<svg xmlns="http://www.w3.org/2000/svg" xmlns:xlink="http://www.w3.org/1999/xlink" width="370" height="300" viewBox="0 0 370 300">
  <defs>
    <radialGradient id="radial-gradient" cx="0.5" cy="0.5" r="0.5" gradientUnits="objectBoundingBox">
      <stop offset="0" stop-color="#0094d6"/>
      <stop offset="1" stop-color="#002c9a"/>
    </radialGradient>
    <linearGradient id="linear-gradient" x1="0.5" y1="0.295" x2="0.5" y2="2.969" gradientUnits="objectBoundingBox">
      <stop offset="0" stop-color="#2fd0fc"/>
      <stop offset="0.226" stop-color="#2ab7f6"/>
      <stop offset="0.701" stop-color="#207ae7"/>
      <stop offset="1" stop-color="#1951de"/>
    </linearGradient>
    <linearGradient id="linear-gradient-2" x1="0.5" y1="-1.593" x2="0.5" y2="1.86" xlink:href="#linear-gradient"/>
    <linearGradient id="linear-gradient-3" y1="0.5" x2="1" y2="0.5" gradientUnits="objectBoundingBox">
      <stop offset="0" stop-color="#1951de"/>
      <stop offset="0.197" stop-color="#1a5ae0"/>
      <stop offset="0.759" stop-color="#2cc0f9"/>
      <stop offset="1" stop-color="#2eccfc"/>
    </linearGradient>
    <linearGradient id="linear-gradient-4" x1="0.5" y1="-0.183" x2="0.5" y2="2.686" xlink:href="#linear-gradient"/>
    <linearGradient id="linear-gradient-5" x1="0.5" y1="-2.913" x2="0.5" y2="1.741" xlink:href="#linear-gradient"/>
  </defs>
  <g id="Group_7228" data-name="Group 7228" transform="translate(-375 -3061)">
    <path id="Rectangle_645" data-name="Rectangle 645" d="M10,0H360a10,10,0,0,1,10,10V300a0,0,0,0,1,0,0H0a0,0,0,0,1,0,0V10A10,10,0,0,1,10,0Z" transform="translate(375 3061)" fill="url(#radial-gradient)"/>
    <g id="Group_6631" data-name="Group 6631" transform="translate(404 3087)">
      <g id="Group_6622" data-name="Group 6622" transform="translate(0 0)">
        <rect id="Rectangle_1342" data-name="Rectangle 1342" width="142.745" height="249.803" fill="#fff"/>
        <rect id="Rectangle_1343" data-name="Rectangle 1343" width="9.726" height="249.806" transform="translate(133.019 0)" fill="#1a1e50"/>
        <rect id="Rectangle_1344" data-name="Rectangle 1344" width="2.892" height="98.126" transform="translate(32.817 0)" fill="url(#linear-gradient)"/>
        <rect id="Rectangle_1345" data-name="Rectangle 1345" width="2.892" height="98.134" transform="translate(32.817 151.669)" fill="url(#linear-gradient-2)"/>
        <rect id="Rectangle_1346" data-name="Rectangle 1346" width="142.745" height="249.803" transform="translate(0 0)" fill="none"/>
        <path id="Path_20700" data-name="Path 20700" d="M70.828,93.022" transform="translate(-0.617 -0.811)" fill="#0d1f29"/>
        <text id="www.sreenevasainfotech.com" transform="translate(48.637 233.581)" fill="#1a1e50" font-size="5.458" font-family="Barlow-Regular, Barlow"><tspan x="0" y="5">www.sreenevasainfotech.com</tspan></text>
        <g id="Group_6621" data-name="Group 6621" transform="translate(14.324 106.308)">
          <g id="Group_6618" data-name="Group 6618" transform="translate(29.917 9.198)">
            <path id="Path_20701" data-name="Path 20701" d="M45.95,124.33a2.214,2.214,0,0,1-.976-.767,1.99,1.99,0,0,1-.344-1.162v-.271a.156.156,0,0,1,.17-.17h.723a.17.17,0,0,1,.124.045.172.172,0,0,1,.045.125v.214a1.137,1.137,0,0,0,.5.948,2.151,2.151,0,0,0,1.32.373,1.805,1.805,0,0,0,1.174-.327,1.064,1.064,0,0,0,.395-.858.912.912,0,0,0-.2-.6,1.931,1.931,0,0,0-.592-.457,11.476,11.476,0,0,0-1.134-.5,11.5,11.5,0,0,1-1.3-.576,2.4,2.4,0,0,1-.8-.682,1.733,1.733,0,0,1-.316-1.067,1.84,1.84,0,0,1,.694-1.524,2.935,2.935,0,0,1,1.878-.553,3.564,3.564,0,0,1,1.467.283,2.248,2.248,0,0,1,.975.79,2.036,2.036,0,0,1,.345,1.173v.17a.168.168,0,0,1-.046.124.165.165,0,0,1-.124.046h-.734a.179.179,0,0,1-.124-.04.132.132,0,0,1-.046-.107v-.136a1.217,1.217,0,0,0-.468-.975,1.962,1.962,0,0,0-1.292-.39,1.779,1.779,0,0,0-1.083.287.975.975,0,0,0-.384.83.94.94,0,0,0,.191.61,1.685,1.685,0,0,0,.57.423q.378.186,1.157.479a12.732,12.732,0,0,1,1.3.582,2.472,2.472,0,0,1,.824.7,1.741,1.741,0,0,1,.327,1.078,1.971,1.971,0,0,1-.327,1.129,2.139,2.139,0,0,1-.948.755,3.622,3.622,0,0,1-1.456.272A3.731,3.731,0,0,1,45.95,124.33Z" transform="translate(-44.63 -116.522)" fill="#1951de"/>
            <path id="Path_20702" data-name="Path 20702" d="M56.043,124.388l-1.556-3.34a.075.075,0,0,0-.068-.046H52.827a.05.05,0,0,0-.057.057v3.284a.168.168,0,0,1-.045.124.172.172,0,0,1-.125.045h-.744a.155.155,0,0,1-.169-.169v-7.571a.168.168,0,0,1,.045-.124.165.165,0,0,1,.124-.046h2.979a2.427,2.427,0,0,1,1.191.283,1.986,1.986,0,0,1,.8.789,2.388,2.388,0,0,1,.282,1.174,2.121,2.121,0,0,1-.417,1.326,2.042,2.042,0,0,1-1.128.739.056.056,0,0,0-.034.068l1.6,3.329.023.089c0,.076-.05.113-.147.113h-.767A.2.2,0,0,1,56.043,124.388ZM52.77,117.6v2.5a.05.05,0,0,0,.057.057H54.7a1.3,1.3,0,0,0,.954-.362,1.255,1.255,0,0,0,.366-.936,1.241,1.241,0,0,0-1.319-1.32H52.827A.05.05,0,0,0,52.77,117.6Z" transform="translate(-44.692 -116.523)" fill="#1951de"/>
            <path id="Path_20703" data-name="Path 20703" d="M63.866,117.505a.168.168,0,0,1-.124.045H59.8a.05.05,0,0,0-.056.057v2.4a.05.05,0,0,0,.056.057H62.49a.168.168,0,0,1,.124.045.17.17,0,0,1,.046.124v.6a.156.156,0,0,1-.17.169H59.8a.05.05,0,0,0-.056.057v2.46a.05.05,0,0,0,.056.057h3.937a.168.168,0,0,1,.124.045.166.166,0,0,1,.046.124v.6a.165.165,0,0,1-.046.124.168.168,0,0,1-.124.045H58.835a.168.168,0,0,1-.124-.045.165.165,0,0,1-.046-.124v-7.561a.165.165,0,0,1,.046-.124.169.169,0,0,1,.124-.046h4.908a.169.169,0,0,1,.124.046.165.165,0,0,1,.046.124v.6A.167.167,0,0,1,63.866,117.505Z" transform="translate(-44.752 -116.523)" fill="#1951de"/>
            <path id="Path_20704" data-name="Path 20704" d="M70.673,117.505a.168.168,0,0,1-.124.045H66.612a.05.05,0,0,0-.057.057v2.4a.05.05,0,0,0,.057.057H69.3a.156.156,0,0,1,.17.169v.6a.156.156,0,0,1-.17.169H66.612a.05.05,0,0,0-.057.057v2.46a.05.05,0,0,0,.057.057h3.937a.168.168,0,0,1,.124.045.166.166,0,0,1,.046.124v.6a.165.165,0,0,1-.046.124.168.168,0,0,1-.124.045H65.642a.168.168,0,0,1-.124-.045.165.165,0,0,1-.046-.124v-7.561a.165.165,0,0,1,.046-.124.169.169,0,0,1,.124-.046h4.908a.168.168,0,0,1,.124.046.165.165,0,0,1,.046.124v.6A.167.167,0,0,1,70.673,117.505Z" transform="translate(-44.812 -116.523)" fill="#1951de"/>
            <path id="Path_20705" data-name="Path 20705" d="M72.324,124.467a.168.168,0,0,1-.045-.124v-7.561a.156.156,0,0,1,.169-.17h.723a.224.224,0,0,1,.2.113l3.453,5.586c.015.023.03.032.045.028s.023-.021.023-.051v-5.507a.157.157,0,0,1,.17-.17h.744a.173.173,0,0,1,.125.046.168.168,0,0,1,.045.124v7.561a.168.168,0,0,1-.045.124.172.172,0,0,1-.125.045h-.734a.22.22,0,0,1-.2-.113l-3.452-5.619c-.016-.023-.031-.032-.046-.028s-.023.02-.023.051l.011,5.54a.155.155,0,0,1-.169.169h-.745A.168.168,0,0,1,72.324,124.467Z" transform="translate(-44.871 -116.523)" fill="#1951de"/>
            <path id="Path_20706" data-name="Path 20706" d="M84.959,117.505a.17.17,0,0,1-.124.045H80.9a.05.05,0,0,0-.057.057v2.4a.05.05,0,0,0,.057.057h2.685a.168.168,0,0,1,.124.045.17.17,0,0,1,.046.124v.6a.156.156,0,0,1-.17.169H80.9a.05.05,0,0,0-.057.057v2.46a.05.05,0,0,0,.057.057h3.938a.155.155,0,0,1,.169.169v.6a.155.155,0,0,1-.169.169H79.927a.168.168,0,0,1-.124-.045.165.165,0,0,1-.046-.124v-7.561a.165.165,0,0,1,.046-.124.169.169,0,0,1,.124-.046h4.909a.17.17,0,0,1,.124.046.168.168,0,0,1,.045.124v.6A.17.17,0,0,1,84.959,117.505Z" transform="translate(-44.936 -116.523)" fill="#1951de"/>
            <path id="Path_20707" data-name="Path 20707" d="M88.535,124.377l-2.392-7.571a.149.149,0,0,1-.012-.067c0-.083.053-.125.159-.125h.8a.214.214,0,0,1,.124.04.157.157,0,0,1,.067.107l1.851,6.15c.008.03.019.046.034.046s.027-.016.035-.046l1.839-6.15a.157.157,0,0,1,.067-.107.217.217,0,0,1,.124-.04h.779c.136,0,.184.064.147.192l-2.415,7.571a.183.183,0,0,1-.191.135h-.825A.183.183,0,0,1,88.535,124.377Z" transform="translate(-44.992 -116.523)" fill="#1951de"/>
            <path id="Path_20708" data-name="Path 20708" d="M97.2,124.377l-.395-1.264c-.016-.03-.035-.046-.057-.046H93.6c-.023,0-.042.016-.057.046l-.4,1.264a.183.183,0,0,1-.191.135h-.8c-.129,0-.173-.063-.136-.191l2.438-7.571a.184.184,0,0,1,.191-.136h1.039a.185.185,0,0,1,.191.136l2.46,7.571a.166.166,0,0,1,.011.067c0,.083-.05.124-.147.124h-.812A.184.184,0,0,1,97.2,124.377Zm-3.318-2.167h2.584c.046,0,.06-.022.046-.067L95.2,117.933c-.007-.03-.019-.045-.034-.045s-.027.015-.034.045l-1.3,4.209C93.825,122.188,93.84,122.21,93.878,122.21Z" transform="translate(-45.043 -116.523)" fill="#1951de"/>
            <path id="Path_20709" data-name="Path 20709" d="M100.234,124.33a2.205,2.205,0,0,1-.975-.767,1.984,1.984,0,0,1-.345-1.162v-.271a.156.156,0,0,1,.17-.17h.723a.168.168,0,0,1,.124.045.172.172,0,0,1,.045.125v.214a1.137,1.137,0,0,0,.5.948,2.151,2.151,0,0,0,1.32.373,1.805,1.805,0,0,0,1.174-.327,1.064,1.064,0,0,0,.395-.858.912.912,0,0,0-.2-.6,1.931,1.931,0,0,0-.592-.457,11.475,11.475,0,0,0-1.134-.5,11.343,11.343,0,0,1-1.3-.576,2.4,2.4,0,0,1-.8-.682,1.733,1.733,0,0,1-.316-1.067,1.84,1.84,0,0,1,.694-1.524,2.937,2.937,0,0,1,1.878-.553,3.567,3.567,0,0,1,1.467.283,2.257,2.257,0,0,1,.976.79,2.043,2.043,0,0,1,.344,1.173v.17a.168.168,0,0,1-.046.124.165.165,0,0,1-.124.046h-.734a.179.179,0,0,1-.124-.04.132.132,0,0,1-.046-.107v-.136a1.22,1.22,0,0,0-.468-.975,1.96,1.96,0,0,0-1.292-.39,1.779,1.779,0,0,0-1.083.287.975.975,0,0,0-.384.83.94.94,0,0,0,.191.61,1.685,1.685,0,0,0,.57.423q.378.186,1.157.479a12.733,12.733,0,0,1,1.3.582,2.482,2.482,0,0,1,.824.7,1.741,1.741,0,0,1,.327,1.078,1.971,1.971,0,0,1-.327,1.129,2.144,2.144,0,0,1-.948.755,3.622,3.622,0,0,1-1.456.272A3.731,3.731,0,0,1,100.234,124.33Z" transform="translate(-45.103 -116.522)" fill="#1951de"/>
            <path id="Path_20710" data-name="Path 20710" d="M110.564,124.377l-.395-1.264c-.016-.03-.034-.046-.057-.046h-3.148c-.023,0-.042.016-.057.046l-.395,1.264a.184.184,0,0,1-.192.135h-.8c-.128,0-.172-.063-.136-.191l2.438-7.571a.185.185,0,0,1,.192-.136h1.038a.184.184,0,0,1,.191.136l2.46,7.571a.167.167,0,0,1,.011.067c0,.083-.049.124-.147.124h-.812A.184.184,0,0,1,110.564,124.377Zm-3.318-2.167h2.584c.046,0,.06-.022.046-.067l-1.309-4.209c-.007-.03-.019-.045-.034-.045s-.026.015-.034.045l-1.3,4.209C107.195,122.188,107.21,122.21,107.247,122.21Z" transform="translate(-45.159 -116.523)" fill="#1951de"/>
          </g>
          <g id="Group_6619" data-name="Group 6619" transform="translate(29.916 22.576)">
            <path id="Path_20711" data-name="Path 20711" d="M44.67,137.168a.148.148,0,0,1-.041-.112v-6.8a.148.148,0,0,1,.041-.112.151.151,0,0,1,.111-.041h.67a.141.141,0,0,1,.153.153v6.8a.141.141,0,0,1-.153.153h-.67A.151.151,0,0,1,44.67,137.168Z" transform="translate(-44.629 -130.019)" fill="#1a1e50"/>
            <path id="Path_20712" data-name="Path 20712" d="M50.56,137.168a.152.152,0,0,1-.041-.112v-6.8a.141.141,0,0,1,.153-.153h.65a.2.2,0,0,1,.182.1l3.108,5.028c.013.02.027.029.041.025s.02-.019.02-.046v-4.955a.152.152,0,0,1,.041-.112.154.154,0,0,1,.112-.041h.67a.154.154,0,0,1,.112.041.152.152,0,0,1,.041.112v6.8a.152.152,0,0,1-.041.112.154.154,0,0,1-.112.041h-.66a.2.2,0,0,1-.182-.1l-3.108-5.057c-.014-.021-.027-.029-.041-.026s-.02.019-.02.046l.01,4.986a.152.152,0,0,1-.041.112.154.154,0,0,1-.112.041h-.67A.152.152,0,0,1,50.56,137.168Z" transform="translate(-44.68 -130.019)" fill="#1a1e50"/>
            <path id="Path_20713" data-name="Path 20713" d="M65.148,130.9a.147.147,0,0,1-.111.041H61.5a.044.044,0,0,0-.051.051v2.163c0,.035.016.052.051.052H63.91a.147.147,0,0,1,.111.041.151.151,0,0,1,.041.111v.538a.141.141,0,0,1-.152.153H61.5a.044.044,0,0,0-.051.051v2.955a.149.149,0,0,1-.042.112.151.151,0,0,1-.111.041h-.67a.141.141,0,0,1-.153-.153v-6.8a.141.141,0,0,1,.153-.153h4.407a.151.151,0,0,1,.111.041.149.149,0,0,1,.042.112v.538A.148.148,0,0,1,65.148,130.9Z" transform="translate(-44.767 -130.019)" fill="#1a1e50"/>
            <path id="Path_20714" data-name="Path 20714" d="M70.464,136.995a2.179,2.179,0,0,1-.883-.858,2.526,2.526,0,0,1-.315-1.274v-2.418a2.5,2.5,0,0,1,.315-1.269,2.193,2.193,0,0,1,.883-.854,2.993,2.993,0,0,1,2.63,0,2.189,2.189,0,0,1,.884.854,2.5,2.5,0,0,1,.314,1.269v2.418a2.526,2.526,0,0,1-.314,1.274,2.175,2.175,0,0,1-.884.858,2.993,2.993,0,0,1-2.63,0Zm2.428-.965a1.523,1.523,0,0,0,.426-1.127v-2.468a1.552,1.552,0,0,0-.426-1.142,1.5,1.5,0,0,0-1.117-.432,1.482,1.482,0,0,0-1.112.432,1.565,1.565,0,0,0-.421,1.142V134.9a1.536,1.536,0,0,0,.421,1.127,1.493,1.493,0,0,0,1.112.426A1.511,1.511,0,0,0,72.892,136.03Z" transform="translate(-44.844 -130.018)" fill="#1a1e50"/>
            <path id="Path_20715" data-name="Path 20715" d="M83.473,130.141a.152.152,0,0,1,.04.112v.548a.141.141,0,0,1-.152.153H81.471a.044.044,0,0,0-.051.051v6.052a.156.156,0,0,1-.04.112.154.154,0,0,1-.112.041H80.6a.155.155,0,0,1-.112-.041.152.152,0,0,1-.04-.112V131a.044.044,0,0,0-.051-.051H78.6a.141.141,0,0,1-.152-.153v-.548a.152.152,0,0,1,.04-.112.154.154,0,0,1,.112-.041h4.763A.154.154,0,0,1,83.473,130.141Z" transform="translate(-44.924 -130.019)" fill="#1a1e50"/>
            <path id="Path_20716" data-name="Path 20716" d="M92.686,130.9a.15.15,0,0,1-.112.041H89.029a.045.045,0,0,0-.051.051v2.163a.045.045,0,0,0,.051.052h2.418a.14.14,0,0,1,.152.152v.538a.148.148,0,0,1-.041.112.151.151,0,0,1-.111.041H89.029a.045.045,0,0,0-.051.051v2.215a.045.045,0,0,0,.051.051h3.545a.154.154,0,0,1,.112.041.151.151,0,0,1,.041.111v.538a.141.141,0,0,1-.153.153H88.156a.154.154,0,0,1-.112-.041.152.152,0,0,1-.04-.112v-6.8a.152.152,0,0,1,.04-.112.154.154,0,0,1,.112-.041h4.418a.154.154,0,0,1,.112.041.152.152,0,0,1,.041.112v.538A.151.151,0,0,1,92.686,130.9Z" transform="translate(-45.007 -130.019)" fill="#1a1e50"/>
            <path id="Path_20717" data-name="Path 20717" d="M98.346,137.01a2.083,2.083,0,0,1-.873-.823,2.383,2.383,0,0,1-.31-1.223v-2.631a2.325,2.325,0,0,1,.31-1.212,2.1,2.1,0,0,1,.873-.813,2.789,2.789,0,0,1,1.295-.289,2.845,2.845,0,0,1,1.29.28,2.087,2.087,0,0,1,.868.786,2.222,2.222,0,0,1,.309,1.179q0,.1-.152.122l-.671.041h-.04a.139.139,0,0,1-.081-.021c-.021-.013-.031-.027-.031-.04V132.3a1.4,1.4,0,0,0-.406-1.046,1.488,1.488,0,0,0-1.086-.4,1.5,1.5,0,0,0-1.091.4,1.383,1.383,0,0,0-.411,1.046V135a1.383,1.383,0,0,0,.411,1.046,1.5,1.5,0,0,0,1.091.4,1.487,1.487,0,0,0,1.086-.4,1.4,1.4,0,0,0,.406-1.046.1.1,0,0,1,.041-.091.142.142,0,0,1,.111-.021l.671.041q.152.021.152.051v.052a2.246,2.246,0,0,1-.309,1.183,2.114,2.114,0,0,1-.868.8,3.057,3.057,0,0,1-2.584-.006Z" transform="translate(-45.087 -130.018)" fill="#1a1e50"/>
            <path id="Path_20718" data-name="Path 20718" d="M110.793,130.141a.154.154,0,0,1,.112-.041h.67a.141.141,0,0,1,.153.153v6.8a.141.141,0,0,1-.153.153h-.67a.141.141,0,0,1-.153-.153V134.1a.045.045,0,0,0-.051-.051h-2.874a.045.045,0,0,0-.051.051v2.955a.141.141,0,0,1-.153.153h-.67a.141.141,0,0,1-.153-.153v-6.8a.152.152,0,0,1,.041-.112.154.154,0,0,1,.112-.041h.67a.141.141,0,0,1,.153.153v2.9a.045.045,0,0,0,.051.052H110.7a.045.045,0,0,0,.051-.052v-2.9A.152.152,0,0,1,110.793,130.141Z" transform="translate(-45.171 -130.019)" fill="#1a1e50"/>
          </g>
          <g id="Group_6620" data-name="Group 6620" transform="translate(30.9 31.596)">
            <path id="Path_20719" data-name="Path 20719" d="M48.484,139.179v.093a.055.055,0,0,1-.062.062H47.174a.022.022,0,0,0-.025.025V143.4a.055.055,0,0,1-.062.062h-.118a.055.055,0,0,1-.061-.062V139.36a.022.022,0,0,0-.025-.025h-1.2a.055.055,0,0,1-.062-.062v-.093a.055.055,0,0,1,.062-.062h2.737A.055.055,0,0,1,48.484,139.179Z" transform="translate(-45.622 -139.117)" fill="#1a1e50"/>
            <path id="Path_20720" data-name="Path 20720" d="M52.719,143.155a.9.9,0,0,0,.342-.4.052.052,0,0,1,.074-.038l.081.025a.058.058,0,0,1,.043.081,1.061,1.061,0,0,1-.415.509,1.226,1.226,0,0,1-.689.192,1.161,1.161,0,0,1-.714-.217,1.112,1.112,0,0,1-.4-.584,3.49,3.49,0,0,1-.068-.813c0-.19,0-.342.009-.456a1.911,1.911,0,0,1,.041-.307,1.064,1.064,0,0,1,.395-.609,1.3,1.3,0,0,1,1.5.016,1.085,1.085,0,0,1,.385.655,1.742,1.742,0,0,1,.031.279q.006.162.006.422c0,.046-.021.068-.061.068H51.236a.022.022,0,0,0-.025.025c0,.133,0,.253.007.36a1.214,1.214,0,0,0,.025.236.828.828,0,0,0,.306.515,1.09,1.09,0,0,0,1.17.043Zm-1.176-2.439a.83.83,0,0,0-.3.5,3.594,3.594,0,0,0-.032.534.022.022,0,0,0,.025.025h1.831a.022.022,0,0,0,.025-.025,2.7,2.7,0,0,0-.031-.521.876.876,0,0,0-.31-.512,1.037,1.037,0,0,0-1.207,0Z" transform="translate(-45.669 -139.127)" fill="#1a1e50"/>
            <path id="Path_20721" data-name="Path 20721" d="M60.221,140.583a1,1,0,0,1,.273.742v2.085a.055.055,0,0,1-.062.062h-.117a.055.055,0,0,1-.062-.062v-2.042a.829.829,0,0,0-.224-.611.787.787,0,0,0-.589-.227.863.863,0,0,0-.621.22.8.8,0,0,0-.23.606v2.054a.055.055,0,0,1-.062.062h-.118a.055.055,0,0,1-.061-.062v-2.042a.829.829,0,0,0-.224-.611.78.78,0,0,0-.583-.227.863.863,0,0,0-.621.22.8.8,0,0,0-.23.606v2.054a.055.055,0,0,1-.061.062h-.118a.055.055,0,0,1-.062-.062v-2.991a.055.055,0,0,1,.062-.062h.118a.055.055,0,0,1,.061.062v.31c0,.012,0,.018.01.018a.037.037,0,0,0,.022-.012.841.841,0,0,1,.356-.313,1.189,1.189,0,0,1,.518-.109,1.06,1.06,0,0,1,.562.146.861.861,0,0,1,.351.413c0,.008.008.012.012.012s.008,0,.013-.012a.851.851,0,0,1,.369-.416,1.182,1.182,0,0,1,.593-.143A.991.991,0,0,1,60.221,140.583Z" transform="translate(-45.716 -139.127)" fill="#1a1e50"/>
            <path id="Path_20722" data-name="Path 20722" d="M66.028,141.427c.006.11.009.27.009.481s0,.368-.009.481a1.911,1.911,0,0,1-.041.307,1.066,1.066,0,0,1-.382.6,1.121,1.121,0,0,1-.717.227,1.057,1.057,0,0,1-.51-.121.925.925,0,0,1-.353-.332c-.009-.008-.016-.013-.022-.013s-.01.007-.01.019v1.564a.055.055,0,0,1-.061.061h-.118a.055.055,0,0,1-.062-.061v-4.22a.055.055,0,0,1,.062-.062h.118a.055.055,0,0,1,.061.062v.335c0,.012,0,.018.01.018a.037.037,0,0,0,.022-.012.931.931,0,0,1,.356-.335,1.064,1.064,0,0,1,.507-.118,1.126,1.126,0,0,1,.71.223,1.052,1.052,0,0,1,.383.6A1.512,1.512,0,0,1,66.028,141.427Zm-.246.977c.009-.091.013-.253.013-.484s0-.386-.013-.475a1.645,1.645,0,0,0-.044-.258.768.768,0,0,0-.294-.478.9.9,0,0,0-.574-.186.8.8,0,0,0-.549.189.863.863,0,0,0-.277.475,1.094,1.094,0,0,0-.04.236c-.007.086-.01.248-.01.484s0,.4.01.494a.976.976,0,0,0,.047.245.8.8,0,0,0,.813.658.892.892,0,0,0,.564-.183.818.818,0,0,0,.3-.469A1.076,1.076,0,0,0,65.782,142.4Z" transform="translate(-45.78 -139.127)" fill="#1a1e50"/>
            <path id="Path_20723" data-name="Path 20723" d="M69.168,143.4v-4.22a.055.055,0,0,1,.062-.062h.118a.055.055,0,0,1,.062.062v4.22a.055.055,0,0,1-.062.062H69.23A.055.055,0,0,1,69.168,143.4Z" transform="translate(-45.827 -139.117)" fill="#1a1e50"/>
            <path id="Path_20724" data-name="Path 20724" d="M74.274,143.155a.9.9,0,0,0,.342-.4.052.052,0,0,1,.074-.038l.08.025a.058.058,0,0,1,.044.081,1.067,1.067,0,0,1-.415.509,1.229,1.229,0,0,1-.69.192,1.165,1.165,0,0,1-.714-.217,1.11,1.11,0,0,1-.4-.584,3.49,3.49,0,0,1-.068-.813c0-.19,0-.342.009-.456a1.806,1.806,0,0,1,.041-.307,1.068,1.068,0,0,1,.394-.609,1.3,1.3,0,0,1,1.5.016,1.076,1.076,0,0,1,.385.655,1.626,1.626,0,0,1,.032.279q.006.162.006.422,0,.068-.062.068H72.791a.022.022,0,0,0-.025.025q0,.2.006.36a1.3,1.3,0,0,0,.025.236.834.834,0,0,0,.307.515.971.971,0,0,0,.618.192A.985.985,0,0,0,74.274,143.155ZM73.1,140.716a.836.836,0,0,0-.3.5,3.615,3.615,0,0,0-.031.534.022.022,0,0,0,.025.025h1.831a.022.022,0,0,0,.025-.025,2.7,2.7,0,0,0-.031-.521.886.886,0,0,0-.31-.512,1.037,1.037,0,0,0-1.207,0Z" transform="translate(-45.856 -139.127)" fill="#1a1e50"/>
            <path id="Path_20725" data-name="Path 20725" d="M81.673,143.295a1.081,1.081,0,0,1-.4-.6,1.738,1.738,0,0,1-.05-.32c-.008-.117-.012-.272-.012-.462s0-.35.009-.466a1.462,1.462,0,0,1,.047-.309,1.07,1.07,0,0,1,.4-.6,1.19,1.19,0,0,1,.732-.226,1.213,1.213,0,0,1,.741.226,1.009,1.009,0,0,1,.395.6,1.783,1.783,0,0,1,.041.3c.006.112.009.27.009.472s0,.372-.009.481a1.786,1.786,0,0,1-.041.3,1.036,1.036,0,0,1-.4.6,1.2,1.2,0,0,1-.74.227A1.17,1.17,0,0,1,81.673,143.295Zm1.334-.186a.871.871,0,0,0,.31-.511,1.8,1.8,0,0,0,.025-.283c0-.126.006-.26.006-.4s0-.29-.006-.412a1.6,1.6,0,0,0-.025-.27.838.838,0,0,0-.31-.512.957.957,0,0,0-.609-.2.92.92,0,0,0-.6.2.881.881,0,0,0-.31.512,3.858,3.858,0,0,0-.037.682,3.8,3.8,0,0,0,.037.683.87.87,0,0,0,.31.515.941.941,0,0,0,.6.192A.925.925,0,0,0,83.007,143.108Z" transform="translate(-45.932 -139.127)" fill="#1a1e50"/>
            <path id="Path_20726" data-name="Path 20726" d="M87.247,139.523a1.051,1.051,0,0,0-.137.606v.192a.022.022,0,0,0,.025.025h.75a.055.055,0,0,1,.062.062v.1a.054.054,0,0,1-.062.061h-.75a.022.022,0,0,0-.025.025V143.4a.055.055,0,0,1-.061.062h-.118a.055.055,0,0,1-.062-.062v-2.805a.022.022,0,0,0-.025-.025h-.4a.055.055,0,0,1-.062-.061v-.1a.055.055,0,0,1,.062-.062h.4a.022.022,0,0,0,.025-.025v-.2a1.222,1.222,0,0,1,.192-.767.861.861,0,0,1,.7-.239h.149a.055.055,0,0,1,.062.062v.093a.055.055,0,0,1-.062.062h-.136A.614.614,0,0,0,87.247,139.523Z" transform="translate(-45.977 -139.117)" fill="#1a1e50"/>
            <path id="Path_20727" data-name="Path 20727" d="M96.042,140.583a1.041,1.041,0,0,1,.271.76v2.067a.055.055,0,0,1-.062.062h-.118a.055.055,0,0,1-.061-.062v-.3a.021.021,0,0,0-.01-.019c-.006,0-.013,0-.022.006a1.017,1.017,0,0,1-.431.313,1.557,1.557,0,0,1-.587.109,1.2,1.2,0,0,1-.717-.211.747.747,0,0,1-.294-.651.85.85,0,0,1,.341-.714,1.508,1.508,0,0,1,.938-.261h.757a.022.022,0,0,0,.025-.025v-.323a.745.745,0,0,0-.845-.813,1,1,0,0,0-.552.14.574.574,0,0,0-.267.376.067.067,0,0,1-.074.056l-.131-.019a.086.086,0,0,1-.047-.022.04.04,0,0,1-.009-.04.8.8,0,0,1,.36-.515,1.305,1.305,0,0,1,.733-.192A1.077,1.077,0,0,1,96.042,140.583Zm-.273,2.523a.632.632,0,0,0,.3-.558v-.633a.022.022,0,0,0-.025-.025h-.751a1.29,1.29,0,0,0-.754.2.641.641,0,0,0-.288.555.575.575,0,0,0,.224.491.939.939,0,0,0,.577.168A1.269,1.269,0,0,0,95.77,143.105Z" transform="translate(-46.044 -139.127)" fill="#1a1e50"/>
            <path id="Path_20728" data-name="Path 20728" d="M100.934,140.4c.033.012.043.04.031.08l-.044.124c-.012.042-.037.053-.074.032a.809.809,0,0,0-.31-.044.759.759,0,0,0-.434.13.894.894,0,0,0-.3.348,1.054,1.054,0,0,0-.108.478v1.862a.056.056,0,0,1-.062.062h-.118a.055.055,0,0,1-.061-.062v-2.991a.055.055,0,0,1,.061-.062h.118a.056.056,0,0,1,.062.062v.465c0,.013,0,.02.009.022s.011,0,.016-.016a1.052,1.052,0,0,1,.347-.409.868.868,0,0,1,.5-.149A.881.881,0,0,1,100.934,140.4Z" transform="translate(-46.091 -139.128)" fill="#1a1e50"/>
            <path id="Path_20729" data-name="Path 20729" d="M105.022,140.561h-.751a.022.022,0,0,0-.025.025v2.06a.585.585,0,0,0,.155.466.751.751,0,0,0,.485.13h.137a.055.055,0,0,1,.061.062v.093a.061.061,0,0,1-.061.068h-.156a1.035,1.035,0,0,1-.635-.168.721.721,0,0,1-.221-.609v-2.1a.022.022,0,0,0-.025-.025h-.379a.055.055,0,0,1-.061-.062v-.086a.055.055,0,0,1,.061-.062h.379a.022.022,0,0,0,.025-.025v-.7a.055.055,0,0,1,.062-.061h.111a.055.055,0,0,1,.062.061v.7a.022.022,0,0,0,.025.025h.751a.055.055,0,0,1,.061.062v.086A.055.055,0,0,1,105.022,140.561Z" transform="translate(-46.127 -139.121)" fill="#1a1e50"/>
            <path id="Path_20730" data-name="Path 20730" d="M108.51,143.391a.934.934,0,0,1-.388-.288.645.645,0,0,1-.14-.4v-.087a.055.055,0,0,1,.062-.062h.111a.055.055,0,0,1,.062.062v.08a.458.458,0,0,0,.109.291.761.761,0,0,0,.3.221,1.126,1.126,0,0,0,.444.083.974.974,0,0,0,.606-.176.548.548,0,0,0,.232-.456.419.419,0,0,0-.118-.311.78.78,0,0,0-.27-.176c-.1-.039-.267-.1-.493-.171a5.313,5.313,0,0,1-.544-.2.98.98,0,0,1-.347-.255.6.6,0,0,1-.14-.409.7.7,0,0,1,.291-.587,1.455,1.455,0,0,1,1.548.006.7.7,0,0,1,.3.575v.018a.055.055,0,0,1-.062.062h-.106c-.041,0-.061-.015-.061-.044v-.037a.509.509,0,0,0-.233-.425,1.017,1.017,0,0,0-.617-.172.99.99,0,0,0-.6.165.507.507,0,0,0-.223.425.409.409,0,0,0,.109.3.784.784,0,0,0,.276.185c.112.048.265.1.46.165.244.075.433.14.57.2a.951.951,0,0,1,.354.248.62.62,0,0,1,.149.431.751.751,0,0,1-.294.615,1.206,1.206,0,0,1-.778.236A1.45,1.45,0,0,1,108.51,143.391Z" transform="translate(-46.166 -139.128)" fill="#1a1e50"/>
          </g>
          <path id="Path_20731" data-name="Path 20731" d="M27.327,126.392v-5.685l11.4,8.781V118.876L23.648,107.243,14.46,119.124l21.312,16.44-4.562,5.911L14.45,128.551v2.677l17.141,13.2,7.131-9.242Zm-3.3-16.2,12.592,9.717v5.3l-11.4-8.781v8.339l-7.81-6.025Z" transform="translate(-14.45 -107.243)" fill="url(#linear-gradient-3)"/>
          <rect id="Rectangle_1347" data-name="Rectangle 1347" width="66.562" height="0.307" transform="translate(29.913 31.543)" fill="#1a1e50"/>
        </g>
      </g>
      <g id="Group_6630" data-name="Group 6630" transform="translate(169.215 0)">
        <rect id="Rectangle_1348" data-name="Rectangle 1348" width="142.745" height="249.803" fill="#fff"/>
        <rect id="Rectangle_1349" data-name="Rectangle 1349" width="2.892" height="177.675" transform="translate(117.646 0)" fill="url(#linear-gradient-4)"/>
        <rect id="Rectangle_1350" data-name="Rectangle 1350" width="2.892" height="28.665" transform="translate(117.646 221.135)" fill="url(#linear-gradient-5)"/>
        <rect id="Rectangle_1351" data-name="Rectangle 1351" width="9.726" height="249.804" transform="translate(0 0)" fill="#1a1e50"/>
        <rect id="Rectangle_1352" data-name="Rectangle 1352" width="142.743" height="249.801" transform="translate(0.03 0)" fill="none"/>
        <g id="Group_6625" data-name="Group 6625" transform="translate(102.03 182.061)">
          <rect id="Rectangle_1353" data-name="Rectangle 1353" width="34.699" height="34.699" fill="#f6f7f7"/>
          <g id="Group_6624" data-name="Group 6624" transform="translate(2.05 2.091)">
            <g id="Group_6623" data-name="Group 6623">
              <path id="Path_20732" data-name="Path 20732" d="M287.374,194.1h1.048v-1h-1.048Zm3.175.534v-.485c.712-.008,1.393,0,2.068-.009v-1.043h-1v-1.049h1v-2.058h-1.065v1.025H290.51v2.082h-1.039v1.536Zm-9.483-.461h-1.032v.655a5.862,5.862,0,0,1,1.032-.253Zm12.553-1.076v-1.049h-1v1.049Zm-19.844-2.108h3.087v-3.133c-1.061,0-2.091-.007-3.087.007Zm14.646,2.108h1.05v-3.123l1.048-.052V188.9h-4.192V191h2.095Zm-8.365-2.132H281.1V189.95h2.084v-2.1H286.2a.141.141,0,0,0,.074-.032c.02-.016.037-.041.024-.027v-2.019H284.22v1.007h-1.058v-1h-1.01c-.017.36-.032.693-.047,1.022h-1.02v1.075h-1.029Zm6.271,1.083V191h-1.051v1.048Zm-4.2-1.044v3.486h.026a5.225,5.225,0,0,1,4.031,1.564c.057.06.1.131.151.2h1.012v-1.024c-.293-.015-.625-.033-.986-.054v-1c-.358-.018-.693-.032-1.079-.05v-2.078c-.349,0-.7,0-1.059.014-.012.674-.012,1.357-.012,2.064h-.987v-2.05c.332,0,.67,0,1-.014.012-.347.012-.684.012-1.062h1.047v-2.062H284.22v1.014h-1.041V191Zm-1.066-5.209h-1v.987h1Zm0,7.287v-.988h-.991v.988Zm5.273-1.034v1.049h1.047v-1.049Zm2.067-6.274H287.4v.988h.991Zm-6.245,12.442a1.017,1.017,0,0,0-.925.371,1.941,1.941,0,0,0-.308.836h.164v.983H282.1c.016-.3.034-.627.055-1.017h1.023v-.6A.986.986,0,0,0,282.149,198.214Zm12.236,1.685a2.734,2.734,0,0,0-.454-3.533,4.615,4.615,0,0,0-2.789-.685h-2.69v9.239h1.959v-3.546h1.044l2.2,3.546h2.174q-.63-.91-2.718-4.025A3,3,0,0,0,294.385,199.9Zm-1.973-.426a2.415,2.415,0,0,1-1.37.309h-.632v-2.5H291a2.717,2.717,0,0,1,1.4.279,1.011,1.011,0,0,1,.453.936A1.105,1.105,0,0,1,292.413,199.473Zm-9.234-.086v2.075c-.387.018-.719.036-1.047.052v.842h0c.487,0,1.3,0,1.3-2.067a4.852,4.852,0,0,0-.078-.9Zm18.834-3.174v-2.048h-.986v2.048Zm.01-3.2v-7.239h-7.282v7.294A72.1,72.1,0,0,0,302.023,193.01Zm-6.233-1.024a.184.184,0,0,1-.026-.075c0-1.683,0-3.365,0-5.076h5.228v5.182h-5.173C295.828,192.029,295.8,192.011,295.79,191.986Zm1.021-1.119a.138.138,0,0,0,.031.072c.017.023.041.04.028.028h3.07v-3.083h-3.128C296.811,188.9,296.81,189.883,296.811,190.867ZM285.957,203.02a5.823,5.823,0,0,0,.578-2.733,5.031,5.031,0,0,0-1.126-3.527,4.212,4.212,0,0,0-3.26-1.225,4.271,4.271,0,0,0-3.27,1.216,4.967,4.967,0,0,0-1.14,3.522,5.042,5.042,0,0,0,1.137,3.541,4.22,4.22,0,0,0,3.259,1.232h.148l1.693,2.072h2.511l-2.225-2.483A3.524,3.524,0,0,0,285.957,203.02Zm-3.822.383a2.056,2.056,0,0,1-1.755-.784,4.9,4.9,0,0,1,.006-4.667,2.069,2.069,0,0,1,1.763-.786q2.333,0,2.331,3.122T282.135,203.4Zm8.384-14.532h1.054V186.8h2.07v-1H289.5v.99l1.022.047Zm1.047,9.505v.311a1.19,1.19,0,0,0,.23-.064.616.616,0,0,0,.011-.123.307.307,0,0,0,0-.066A1.293,1.293,0,0,0,291.566,198.376Zm-13.581,6.28v1.053h1.923a4.634,4.634,0,0,1-1.653-1.053Zm-.025-8.416h-.022v.031A.245.245,0,0,1,277.961,196.24Zm13.575,8.367v-.979h.084l-.163-.26v1.239Zm-12.578,2.162h-.988v.989h.988Zm8.446-8.161v-.271h-.072C287.354,198.428,287.383,198.515,287.4,198.608Zm-9.464-3.416h-2.076c-.021-.389-.036-.723-.051-1.021h-4.121v2.041h.982c.021-.361.038-.694.055-.99H274.8v1.018h3.141Zm1.011-1.03h-.986v1.005h.986Zm-2.023,4.2c-.012,0-.024,0-.037,0v.156C276.9,198.469,276.915,198.417,276.927,198.364Zm22.026-1.076H301V196.24h-2.05Zm-15.76,16.793h-1.061v-1.068h-1.047v-1.049h-1.034v4.16H281.1v-.975h1.059v1.009c.373,0,.717,0,1.063,0s.677-.012,1.011-.02v-1.026h-1.037Zm6.279-2.136c-.332.007-.667.017-1.006.02s-.688,0-1.091,0v1.049h1v1.05h-1v2.06h1.061V215.1h1.044v-1.038h1.041v-1.05h1.047v-1.025l-1.047-.055v-1.016h-1.048Zm2.095,3.12v-1h-1.047v2.065h4.148V215.08h-.981c-.019-.361-.038-.693-.057-1.016h-1.012v1Zm1.2-9.593-.152-.243v.446h.278Zm-6.441,6.54h-1.051v1h1.051Zm6.29-6.337h-1.051v1.049h1.051Zm-6.29,7.338v1.05h1.047v-1.05Zm-1.051,0h-1.047v2.1h2.1v-1.049h-1.051Zm7.34,1.05v-1.05h-1.051v1.05Zm8.413-3.184h1v-.986h-1Zm.986-3.118h-2.024v-3.149h1.028v-3.15h.989v-2.1h-2.033c-.017-.361-.036-.694-.051-1.022h-2.04v-3.145c.373,0,.719,0,1.064,0s.673-.013.973-.02v-1.029c-1.014,0-2,0-2.984,0a.121.121,0,0,0-.073.033,1,1,0,0,0-.088.1v.894H294.7v-1.006h-1v.9a3.777,3.777,0,0,1,.857.468,3.225,3.225,0,0,1,.7.738h.495c0,.372,0,.717,0,1.063,0,.023,0,.048,0,.071a4.414,4.414,0,0,1,.112.934h1.983v1.053h1.057v2.1h1v2.061h-1.033V202.5h-1.027c0-.375,0-.72,0-1.066s-.014-.673-.021-1.036H296.8v-.98h-1.054a3.463,3.463,0,0,1-.5,1.081,3.842,3.842,0,0,1-.509.547v.378c.017.027.034.049.051.073h1v1.009c.362.017.7.034,1.026.048v1.021h1.012c.019.324.036.655.059,1.044h1.006v2.066h-3.127v-.722h-2.142v.757h-1v2.1h-1.051v1.048h1.054v2.106h1.057v1h1.058v-1.009c.376,0,.72,0,1.064,0s.678.012,1.013.021v1.026h2.095v-1.049h-1v-1.047h1v-2.064h1.058v1.014H301v-1.051h1.013Zm-5.222,3.127h-3.129q0-1.5,0-3.088h3.129Zm4.233,3.148h.986v-2.051h-.986Zm-4.334-9.716.118.169v-.911h-.626C296.391,203.883,296.571,204.146,296.693,204.322Zm4.337-7.008v.987h1v-.987Zm-10.511,12.556c0-.348,0-.7-.013-1.062-.323-.011-.662-.011-1.018-.011v-.985H290.5c0,.334,0,.673.011,1,.363.014.712.014,1.06.014v-2.1h-1.051v-.757H287.4v-2.406h0v-1.03h0v-.474a5.854,5.854,0,0,1-.516,1.449,4.892,4.892,0,0,1-.559.827v.315h-.3c-.062.062-.114.134-.178.192l1.414,1.578,1.565,1.748h-.409c0,.9,0,1.761,0,2.619a.15.15,0,0,0,.027.073.612.612,0,0,0,.064.059h.956v-1.05Zm5.2-1.017h-.989v.987h.989Zm-5.2,2.067h1.047v-1.05h-1.047Zm-11.562-17.911v-7.237h-7.279v7.295A71.25,71.25,0,0,0,278.957,193.008Zm-6.232-1.022a.176.176,0,0,1-.027-.077c0-1.682,0-3.365,0-5.074h5.225v5.183h-5.171C272.762,192.028,272.739,192.009,272.725,191.986Zm3.141,11.612v1h.986v-1Zm-2.145,4.155v-1h-.989v1Zm1.055-3.127v1.062h-1.031v1.036h3.112V205.67h-1.014v-1.043Zm-3.091,1.029h.987v-1h-.987Zm5.205,5.29h-3.128v3.089h3.128C276.89,212.976,276.893,211.946,276.89,210.946Zm-4.192-6.318h1.047v-3.144H272.7Zm0-4.194h1.047v1.05h2.115v1.027h1.03v-.479a8.074,8.074,0,0,1-.19-1.6h-1.906v-1.047h-1v-1.049h1v-1.005h-2.122v.985c-.363.017-.7.034-.993.047v1l1.02.055Zm3.1-1.047v-1.049h-1v1.049Zm-4.1,1.047v1.05h1v-1.05Zm10.437,9.436h1.047v-1.042h-1.013v-2.268l-.387-.472a6.14,6.14,0,0,1-1.735-.336v.984h1.017v1.058h-1V208.8c.359.018.693.037,1.022.052v3.114h1.047ZM297.9,216.14h.99v-2.049h-.99Zm2.013-4.174v-1.047h-1v1.047ZM301,216.113v-2.049h-1.047v2.049Zm-18.871-4.148v1.049h2.1V210.9h3.125v-2.042h-1.041v1.012h-3.134v2.1Zm17.824,2.1v-1.05h-1.051v1.05Zm-4.158,1.028h.988v-2.051H295.8Zm-24.135-6.242v7.281h7.294c.1-2.33.064-6.591-.055-7.281Zm6.247,6.2c.01-.01-.011.015-.034.029a.129.129,0,0,1-.075.027c-1.682,0-3.364,0-5.076,0v-5.229h5.185Z" transform="translate(-271.663 -185.771)" fill="#0d1f29"/>
            </g>
          </g>
        </g>
        <path id="Path_20733" data-name="Path 20733" d="M237.526,93.022" transform="translate(-167.285 -0.811)" fill="#0d1f29"/>
        <rect id="Rectangle_1354" data-name="Rectangle 1354" width="67.192" height="0.827" transform="translate(34.826 98.62)" fill="#1a1e50"/>
        <rect id="Rectangle_1355" data-name="Rectangle 1355" width="12.855" height="1.918" transform="translate(22.739 98.074)" fill="#40c6f3"/>
        <path id="Path_20734" data-name="Path 20734" d="M191.584,132.95c.331-.385-.029-.889-.25-1.232-.125-.2-.309-.482-.568-.517s-.469.247-.631.4a1.885,1.885,0,0,0-.63,1.344c0,.06,0,.16-.006.069a3.384,3.384,0,0,0,.594,1.712,7.323,7.323,0,0,0,1.233,1.461,3.656,3.656,0,0,0,1.617.923,1.892,1.892,0,0,0,1.617-.385c.167-.136.475-.334.488-.571a.776.776,0,0,0-.339-.572c-.348-.311-.859-.829-1.333-.451-.183.152-.379.431-.626.471a.923.923,0,0,1-.658-.279,4.047,4.047,0,0,1-1.016-1.219.67.67,0,0,1-.042-.67C191.179,133.231,191.425,133.137,191.584,132.95Z" transform="translate(-166.867 -1.144)" fill="#1a1e50"/>
        <path id="Path_20735" data-name="Path 20735" d="M194.633,117.537a2.356,2.356,0,1,0-4.713,0,2.29,2.29,0,0,0,.405,1.31h0v.009h0l1.949,2.93,1.962-2.939h0A2.324,2.324,0,0,0,194.633,117.537Zm-2.358,1.31a1.311,1.311,0,1,1,1.31-1.31A1.312,1.312,0,0,1,192.274,118.848Z" transform="translate(-166.87 -1.004)" fill="#1a1e50"/>
        <g id="Group_6627" data-name="Group 6627" transform="translate(22.766 145.953)">
          <g id="Group_6626" data-name="Group 6626">
            <path id="Path_20736" data-name="Path 20736" d="M192.948,149.438l-2.865-2.2h5.736Z" transform="translate(-189.637 -147.236)" fill="#1a1e50"/>
            <path id="Path_20737" data-name="Path 20737" d="M191.952,149.254l-2.318,1.892v-3.671Z" transform="translate(-189.633 -147.238)" fill="#1a1e50"/>
            <path id="Path_20738" data-name="Path 20738" d="M192.332,149.56l.615.484.651-.5,2.259,1.882h-5.8Z" transform="translate(-189.637 -147.257)" fill="#1a1e50"/>
            <path id="Path_20739" data-name="Path 20739" d="M194.005,149.233l2.3-1.759v3.667Z" transform="translate(-189.672 -147.238)" fill="#1a1e50"/>
          </g>
        </g>
        <text id="S.SREEVARSH" transform="translate(22.665 74.196)" fill="#1951de" font-size="9.747" font-family="Barlow-Medium, Barlow" font-weight="500"><tspan x="0" y="10">S.SREEVARSH</tspan></text>
        <text id="CEO" transform="translate(22.665 87.838)" fill="#464258" font-size="6.498" font-family="Barlow-Medium, Barlow" font-weight="500"><tspan x="0" y="6">CEO</tspan></text>
        <text id="_218_School_Street_Thazhanguda_Cuddalore_TN." data-name="218, School Street,
Thazhanguda, Cuddalore, TN." transform="translate(35.231 112.825)" fill="#464258" font-size="5.199" font-family="Barlow-Regular, Barlow"><tspan x="0" y="5">218, School Street,</tspan><tspan x="0" y="11.238">Thazhanguda, Cuddalore, TN.</tspan></text>
        <text id="_91_-_96006_10640_971_-_58_128_0322" data-name="+91 - 96006 10640
+971 - 58 128 0322" transform="translate(35.231 128.705)" fill="#464258" font-size="5.199" font-family="Barlow-Regular, Barlow"><tspan x="0" y="5">+91 - 96006 10640</tspan><tspan x="0" y="11.238">+971 - 58 128 0322</tspan></text>
        <text id="info_sreenevasainfotech.com" data-name="info@sreenevasainfotech.com" transform="translate(35.231 144.581)" fill="#464258" font-size="5.166" font-family="Barlow-Regular, Barlow"><tspan x="0" y="5">info@sreenevasainfotech.co</tspan></text>
        <text id="www.sreenevasainfotech.com-2" data-name="www.sreenevasainfotech.com" transform="translate(35.231 154.832)" fill="#464258" font-size="5.199" font-family="Barlow-Regular, Barlow"><tspan x="0" y="5">www.sreenevasainfotech.co</tspan></text>
        <g id="Group_6629" data-name="Group 6629" transform="translate(23.252 156.183)">
          <g id="Group_6628" data-name="Group 6628">
            <path id="Path_20740" data-name="Path 20740" d="M191.723,161.852a3.044,3.044,0,0,1,.65-.212c.024-.006.046-.01.064-.013a2.864,2.864,0,0,1,.411-.051v-1.065H191.53A5.259,5.259,0,0,0,191.723,161.852Z" transform="translate(-190.136 -157.582)" fill="#1a1e50"/>
            <path id="Path_20741" data-name="Path 20741" d="M194.331,158.707l.079-.042.055-.031a2.794,2.794,0,0,0,.448-.313,2.823,2.823,0,0,0-1.161-.66,2.344,2.344,0,0,1,.374.549A3.765,3.765,0,0,1,194.331,158.707Z" transform="translate(-190.156 -157.557)" fill="#1a1e50"/>
            <path id="Path_20742" data-name="Path 20742" d="M192.612,157.575a1.637,1.637,0,0,0-.652.746,3.5,3.5,0,0,0-.171.409,2.874,2.874,0,0,0,.624.212l.06.013a2.864,2.864,0,0,0,.379.048v-1.447h-.022C192.756,157.56,192.684,157.566,192.612,157.575Z" transform="translate(-190.138 -157.556)" fill="#1a1e50"/>
            <path id="Path_20743" data-name="Path 20743" d="M192.413,161.852a2.825,2.825,0,0,0-.624.213,3.322,3.322,0,0,0,.171.408,1.637,1.637,0,0,0,.652.746c.072.009.145.015.217.019h.023v-1.447a2.567,2.567,0,0,0-.379.048Z" transform="translate(-190.138 -157.593)" fill="#1a1e50"/>
            <path id="Path_20744" data-name="Path 20744" d="M192.374,159.157a3.055,3.055,0,0,1-.65-.216,5.24,5.24,0,0,0-.193,1.347h1.319V159.22a2.733,2.733,0,0,1-.411-.05Z" transform="translate(-190.136 -157.568)" fill="#1a1e50"/>
            <path id="Path_20745" data-name="Path 20745" d="M191.551,158.856l-.105-.058-.056-.035a3.083,3.083,0,0,1-.463-.35,2.8,2.8,0,0,0-.8,1.871h1.221A5.442,5.442,0,0,1,191.551,158.856Z" transform="translate(-190.124 -157.563)" fill="#1a1e50"/>
            <path id="Path_20746" data-name="Path 20746" d="M191.624,162.15c-.025.013-.049.027-.072.041l-.055.034a2.833,2.833,0,0,0-.415.313,2.8,2.8,0,0,0,1.1.6,2.333,2.333,0,0,1-.374-.549A3.606,3.606,0,0,1,191.624,162.15Z" transform="translate(-190.132 -157.596)" fill="#1a1e50"/>
            <path id="Path_20747" data-name="Path 20747" d="M191.447,161.992c.034-.02.069-.042.1-.06a5.4,5.4,0,0,1-.206-1.42h-1.221a2.81,2.81,0,0,0,.8,1.865,3.171,3.171,0,0,1,.466-.349Z" transform="translate(-190.124 -157.582)" fill="#1a1e50"/>
            <path id="Path_20748" data-name="Path 20748" d="M191.552,158.609l.072.042a3.557,3.557,0,0,1,.185-.44,2.287,2.287,0,0,1,.374-.548,2.813,2.813,0,0,0-1.1.6,2.92,2.92,0,0,0,.412.311Z" transform="translate(-190.132 -157.557)" fill="#1a1e50"/>
            <path id="Path_20749" data-name="Path 20749" d="M194.4,161.875c.037.018.073.041.109.059l.058.032a3.054,3.054,0,0,1,.5.35,2.792,2.792,0,0,0,.742-1.8h-1.221A5.386,5.386,0,0,1,194.4,161.875Z" transform="translate(-190.161 -157.582)" fill="#1a1e50"/>
            <path id="Path_20750" data-name="Path 20750" d="M193.528,158.967a2.871,2.871,0,0,0,.635-.186,3.438,3.438,0,0,0-.187-.459,1.632,1.632,0,0,0-.654-.745c-.072-.01-.147-.016-.219-.019h-.03v1.451a2.954,2.954,0,0,0,.391-.031Z" transform="translate(-190.15 -157.556)" fill="#1a1e50"/>
            <path id="Path_20751" data-name="Path 20751" d="M194.41,162.134l-.079-.041a3.752,3.752,0,0,1-.205.5,2.332,2.332,0,0,1-.374.549,2.812,2.812,0,0,0,1.164-.657,2.793,2.793,0,0,0-.451-.316Z" transform="translate(-190.156 -157.596)" fill="#1a1e50"/>
            <path id="Path_20752" data-name="Path 20752" d="M194.565,158.826l-.058.032c-.036.02-.072.038-.109.056a5.51,5.51,0,0,1,.19,1.371h1.221a2.818,2.818,0,0,0-.744-1.809A3.086,3.086,0,0,1,194.565,158.826Z" transform="translate(-190.161 -157.564)" fill="#1a1e50"/>
            <path id="Path_20753" data-name="Path 20753" d="M194.223,158.991a3.085,3.085,0,0,1-.666.19l-.066.011a3.317,3.317,0,0,1-.417.033v1.064h1.33A5.3,5.3,0,0,0,194.223,158.991Z" transform="translate(-190.15 -157.568)" fill="#1a1e50"/>
            <path id="Path_20754" data-name="Path 20754" d="M193.559,161.613a3.076,3.076,0,0,1,.665.189,5.236,5.236,0,0,0,.178-1.291h-1.329v1.061a3.314,3.314,0,0,1,.417.032Z" transform="translate(-190.15 -157.582)" fill="#1a1e50"/>
            <path id="Path_20755" data-name="Path 20755" d="M194.162,162.016a2.875,2.875,0,0,0-.635-.187l-.063-.01a2.954,2.954,0,0,0-.391-.031v1.452h.029c.073,0,.148-.01.22-.019a1.633,1.633,0,0,0,.653-.746A3.249,3.249,0,0,0,194.162,162.016Z" transform="translate(-190.15 -157.593)" fill="#1a1e50"/>
          </g>
        </g>
      </g>
    </g>
  </g>
</svg>
