<svg xmlns="http://www.w3.org/2000/svg" xmlns:xlink="http://www.w3.org/1999/xlink" width="370" height="300" viewBox="0 0 370 300">
  <defs>
    <radialGradient id="radial-gradient" cx="0.5" cy="0.5" r="0.5" gradientUnits="objectBoundingBox">
      <stop offset="0" stop-color="#0094d6"/>
      <stop offset="1" stop-color="#002c9a"/>
    </radialGradient>
    <linearGradient id="linear-gradient" x1="0.5" x2="0.5" y2="1" gradientUnits="objectBoundingBox">
      <stop offset="0" stop-color="#2eccfc"/>
      <stop offset="1" stop-color="#1951de"/>
    </linearGradient>
  </defs>
  <g id="Group_7222" data-name="Group 7222" transform="translate(-1175 -1831)">
    <path id="Rectangle_647" data-name="Rectangle 647" d="M10,0H360a10,10,0,0,1,10,10V300a0,0,0,0,1,0,0H0a0,0,0,0,1,0,0V10A10,10,0,0,1,10,0Z" transform="translate(1175 1831)" fill="url(#radial-gradient)"/>
    <g id="Group_5193" data-name="Group 5193" transform="translate(2007.987 1806.306)">
      <path id="Rectangle_925" data-name="Rectangle 925" d="M27.2,0H96.418a27.2,27.2,0,0,1,27.2,27.2V222.474a27.2,27.2,0,0,1-27.2,27.2H27.2A27.2,27.2,0,0,1,0,222.473V27.2A27.2,27.2,0,0,1,27.2,0Z" transform="translate(-712.795 52.855)" fill="rgba(26,30,80,0.2)"/>
      <path id="Rectangle_926" data-name="Rectangle 926" d="M27.2,0H96.419a27.2,27.2,0,0,1,27.2,27.2V222.473a27.2,27.2,0,0,1-27.2,27.2H27.2A27.2,27.2,0,0,1,0,222.473V27.2A27.2,27.2,0,0,1,27.2,0Z" transform="translate(-707.07 46.403)" fill="#8eb5e9"/>
      <path id="Rectangle_927" data-name="Rectangle 927" d="M23.074,0H95.147a23.074,23.074,0,0,1,23.074,23.074V221.2a23.074,23.074,0,0,1-23.074,23.074H23.073A23.073,23.073,0,0,1,0,221.2V23.074A23.074,23.074,0,0,1,23.074,0Z" transform="translate(-704.373 49.101)" fill="#bedbfb"/>
      <rect id="Rectangle_928" data-name="Rectangle 928" width="106.13" height="112.299" rx="2.02" transform="translate(-698.327 74.402)" fill="url(#linear-gradient)"/>
      <path id="Path_18577" data-name="Path 18577" d="M-584.548,249.251v82.662a1.326,1.326,0,0,1-1.321,1.322H-689.357a1.326,1.326,0,0,1-1.321-1.322V249.251Z" transform="translate(-7.649 -70.157)" fill="#fff" fill-rule="evenodd"/>
      <path id="Path_18578" data-name="Path 18578" d="M-627.495,72.832a1.31,1.31,0,0,1-1.309-1.31,1.309,1.309,0,0,1,1.309-1.309h24.254a1.309,1.309,0,0,1,1.31,1.309,1.31,1.31,0,0,1-1.31,1.31Zm-4.37-2.619a1.309,1.309,0,0,1,1.31,1.309,1.31,1.31,0,0,1-1.31,1.31h-1.116a1.31,1.31,0,0,1-1.31-1.31,1.309,1.309,0,0,1,1.31-1.309Z" transform="translate(-27.152 -8.235)" fill="#8eb5e9" fill-rule="evenodd"/>
      <path id="Path_18579" data-name="Path 18579" d="M-614.086,406.6a8.583,8.583,0,0,0,8.567-8.566,8.583,8.583,0,0,0-8.567-8.567,8.584,8.584,0,0,0-8.567,8.567A8.583,8.583,0,0,0-614.086,406.6Z" transform="translate(-31.176 -118.651)" fill="#405ca3" fill-rule="evenodd"/>
      <g id="Group_5189" data-name="Group 5189" transform="translate(-689.524 244.146)">
        <path id="Path_18580" data-name="Path 18580" d="M-549.523,353.568h-6.338a1.118,1.118,0,0,0-.79.328h0a1.121,1.121,0,0,0-.328.79v6.48c-.007.186.019.29.23.365.338.147.346.026.457-.182l.01-.022a4.087,4.087,0,0,1,1.039-1.2,1.807,1.807,0,0,1,1.064-.388h.492v.416a.925.925,0,0,0,.271.653.922.922,0,0,0,.654.271h3.462a1.258,1.258,0,0,1,.736.27,2.933,2.933,0,0,1,.733.842l.017.033c.107.211.192.3.468.179a.29.29,0,0,0,.218-.354c.046-1.565,0-3.247,0-4.813a.919.919,0,0,0-.271-.653.926.926,0,0,0-.654-.271h-.347v-1.621a1.121,1.121,0,0,0-.328-.79,1.116,1.116,0,0,0-.792-.33Zm-5.447,4.018h-.38a.216.216,0,0,1-.217-.215.216.216,0,0,1,.217-.216h.38a.216.216,0,0,1,.215.216.216.216,0,0,1-.215.215Zm.816-.431h3.5a.216.216,0,0,1,.216.216.216.216,0,0,1-.216.215h-3.5a.215.215,0,0,1-.215-.215.216.216,0,0,1,.215-.216Zm3.739-1.664h.381a.216.216,0,0,1,.216.216.215.215,0,0,1-.216.215h-.381a.216.216,0,0,1-.216-.215.216.216,0,0,1,.216-.216Zm-.816.43h-4.119a.216.216,0,0,1-.217-.215.216.216,0,0,1,.217-.216h4.119a.216.216,0,0,1,.216.216.215.215,0,0,1-.216.215Zm-1.74,3.816h3.448a1.118,1.118,0,0,0,.792-.329,1.117,1.117,0,0,0,.328-.791v-1.591h.347a.207.207,0,0,1,.145.06.214.214,0,0,1,.061.147v3.785a2.986,2.986,0,0,0-.294-.249,1.953,1.953,0,0,0-1.16-.411h-3.462a.2.2,0,0,1-.145-.06.2.2,0,0,1-.062-.145v-.416Zm-2.89-5.451h6.338a.4.4,0,0,1,.283.118.4.4,0,0,1,.118.283v3.93a.4.4,0,0,1-.118.283.4.4,0,0,1-.283.118h-4.658a2.5,2.5,0,0,0-1.488.529,4.108,4.108,0,0,0-.593.542v-5.4a.405.405,0,0,1,.118-.284A.4.4,0,0,1-555.861,354.287Z" transform="translate(635.634 -350.382)" fill="#fff" fill-rule="evenodd"/>
        <path id="Path_18581" data-name="Path 18581" d="M-592.137,348.7a2.605,2.605,0,0,0-1.846.764,2.607,2.607,0,0,0-.764,1.845,2.606,2.606,0,0,0,.764,1.846l.022.019a2.6,2.6,0,0,0,1.824.745,2.607,2.607,0,0,0,1.843-.764v0a2.6,2.6,0,0,0,.765-1.844,2.6,2.6,0,0,0-.765-1.844,2.6,2.6,0,0,0-1.844-.765Zm-2.905,9.352V357.8a2.9,2.9,0,0,1,.835-2.034l.018-.016a2.9,2.9,0,0,1,2.052-.854,2.9,2.9,0,0,1,2.051.854,2.892,2.892,0,0,1,.854,2.051v2.1a.15.15,0,0,1-.043.106v0a.15.15,0,0,1-.107.043h-5.507a.151.151,0,0,1-.107-.044.154.154,0,0,1-.044-.107v-1.85Zm-.718-.011V359.9a.872.872,0,0,0,.255.614h0a.868.868,0,0,0,.614.254h5.507a.868.868,0,0,0,.613-.254h0a.872.872,0,0,0,.255-.614v-2.1a3.614,3.614,0,0,0-1.064-2.558,3.611,3.611,0,0,0-2.559-1.066,3.614,3.614,0,0,0-2.56,1.064l-.02.022a3.611,3.611,0,0,0-1.044,2.538v.241Zm2.286-8.068a1.882,1.882,0,0,1,1.337-.554,1.883,1.883,0,0,1,1.336.554,1.878,1.878,0,0,1,.554,1.336,1.882,1.882,0,0,1-.553,1.337h0a1.879,1.879,0,0,1-1.336.553,1.885,1.885,0,0,1-1.321-.536l-.016-.018a1.883,1.883,0,0,1-.554-1.337A1.881,1.881,0,0,1-593.474,349.971Z" transform="translate(649.047 -348.698)" fill="#fff" fill-rule="evenodd"/>
        <path id="Path_18582" data-name="Path 18582" d="M-634.723,353.389a3.757,3.757,0,0,0-.653.3,3.726,3.726,0,0,0-.585.418l-.739-.427-.034-.017a.548.548,0,0,0-.385-.039.554.554,0,0,0-.335.257l-.675,1.171a.546.546,0,0,0-.056.418.548.548,0,0,0,.257.334l.739.427c-.014.071-.025.144-.035.218a3.8,3.8,0,0,0-.034.5,3.784,3.784,0,0,0,.034.5c.01.075.022.148.035.22l-.738.426a.547.547,0,0,0-.258.335.553.553,0,0,0,.056.418l.676,1.169a.546.546,0,0,0,.335.258.543.543,0,0,0,.419-.056l.739-.426a3.817,3.817,0,0,0,.585.419,3.8,3.8,0,0,0,.653.3v.853a.55.55,0,0,0,.162.389.545.545,0,0,0,.39.163h1.352a.551.551,0,0,0,.39-.161l.03-.035a.545.545,0,0,0,.131-.356V360.5a3.777,3.777,0,0,0,.653-.3,3.815,3.815,0,0,0,.586-.419l.739.426.034.019a.544.544,0,0,0,.385.037.551.551,0,0,0,.335-.256l.675-1.171a.543.543,0,0,0,.056-.418.546.546,0,0,0-.256-.335l-.739-.426c.013-.072.025-.145.035-.22a3.774,3.774,0,0,0,.034-.5,3.781,3.781,0,0,0-.034-.5c-.01-.075-.022-.147-.035-.218l.739-.427a.547.547,0,0,0,.256-.334.548.548,0,0,0-.055-.419l-.676-1.168a.553.553,0,0,0-.335-.259.552.552,0,0,0-.419.056l-.739.427a3.692,3.692,0,0,0-.586-.418,3.78,3.78,0,0,0-.653-.3v-.853a.551.551,0,0,0-.162-.389.543.543,0,0,0-.39-.164h-1.352a.547.547,0,0,0-.39.162l-.031.035a.551.551,0,0,0-.131.356v.853Zm-.293.918a3.05,3.05,0,0,1,.72-.3.36.36,0,0,0,.291-.353V352.7h1.018v.951a.36.36,0,0,0,.268.346,3.047,3.047,0,0,1,.743.307,3.042,3.042,0,0,1,.633.487.358.358,0,0,0,.441.064l.826-.477.51.883-.8.466a.359.359,0,0,0-.188.416,3.172,3.172,0,0,1,.081.393,3.18,3.18,0,0,1,.025.406,3.269,3.269,0,0,1-.025.4,3.178,3.178,0,0,1-.081.4h0a.359.359,0,0,0,.167.4l.825.477-.51.884-.826-.477a.359.359,0,0,0-.434.058,3.054,3.054,0,0,1-.64.494,3.041,3.041,0,0,1-.721.3.36.36,0,0,0-.291.353v.951H-634v-.951a.359.359,0,0,0-.268-.347,3.034,3.034,0,0,1-.744-.306,3.088,3.088,0,0,1-.634-.488.36.36,0,0,0-.44-.063l-.826.476-.51-.883.8-.46a.36.36,0,0,0,.2-.421,3.056,3.056,0,0,1-.08-.4,3.045,3.045,0,0,1-.026-.4,3.042,3.042,0,0,1,.026-.4,3.046,3.046,0,0,1,.08-.394h0a.356.356,0,0,0-.167-.4l-.824-.476.51-.884.826.477a.357.357,0,0,0,.434-.057,3.04,3.04,0,0,1,.64-.494Zm1.521.719a1.91,1.91,0,0,1,1.335.542l.022.02a1.912,1.912,0,0,1,.562,1.357,1.918,1.918,0,0,1-.562,1.357h0a1.912,1.912,0,0,1-1.355.562,1.909,1.909,0,0,1-1.357-.563,1.918,1.918,0,0,1-.563-1.357,1.913,1.913,0,0,1,.563-1.357,1.912,1.912,0,0,1,1.357-.562Zm-.85,1.069a1.2,1.2,0,0,1,.85-.351,1.192,1.192,0,0,1,.833.335l.016.016a1.2,1.2,0,0,1,.352.85,1.2,1.2,0,0,1-.35.849l0,0a1.2,1.2,0,0,1-.848.35,1.2,1.2,0,0,1-.85-.352,1.193,1.193,0,0,1-.352-.849A1.2,1.2,0,0,1-634.345,356.095Z" transform="translate(663.726 -349.834)" fill="#fff" fill-rule="evenodd"/>
        <path id="Path_18583" data-name="Path 18583" d="M-676.289,357.229a3.172,3.172,0,0,0-.931,2.247,3.175,3.175,0,0,0,.931,2.249l.022.02a3.169,3.169,0,0,0,2.227.911,3.174,3.174,0,0,0,1.981-.691l1.329,1.329a.359.359,0,0,0,.508,0,.359.359,0,0,0,0-.508l-1.328-1.328a3.174,3.174,0,0,0,.691-1.981,3.169,3.169,0,0,0-.932-2.247,3.166,3.166,0,0,0-2.249-.933,3.169,3.169,0,0,0-2.247.932Zm4,3.98-.007.007-.008.007a2.451,2.451,0,0,1-1.733.714,2.454,2.454,0,0,1-1.723-.7l-.017-.018a2.451,2.451,0,0,1-.721-1.74,2.455,2.455,0,0,1,.72-1.741,2.457,2.457,0,0,1,1.741-.72,2.457,2.457,0,0,1,1.741.72,2.453,2.453,0,0,1,.721,1.741A2.452,2.452,0,0,1-672.292,361.209Z" transform="translate(677.22 -351.326)" fill="#fff" fill-rule="evenodd"/>
      </g>
      <path id="Path_18584" data-name="Path 18584" d="M-557.6,354.745a1.891,1.891,0,0,0,1.887-1.888,1.891,1.891,0,0,0-1.887-1.887,1.892,1.892,0,0,0-1.888,1.887A1.892,1.892,0,0,0-557.6,354.745Z" transform="translate(-53.022 -105.338)" fill="#fdf3f5" fill-rule="evenodd"/>
      <path id="Path_18585" data-name="Path 18585" d="M-556.72,354.206h-.37v-1.4a1.248,1.248,0,0,1-.478.281v-.337a1.035,1.035,0,0,0,.315-.181.679.679,0,0,0,.233-.307h.3Z" transform="translate(-53.687 -105.785)" fill="#2d818f" fill-rule="evenodd"/>
      <rect id="Rectangle_929" data-name="Rectangle 929" width="95.92" height="44.691" rx="4.898" transform="translate(-693.222 141.365)" fill="#e2f0fe"/>
      <path id="Rectangle_930" data-name="Rectangle 930" d="M4.979,0h22.5A4.979,4.979,0,0,1,32.46,4.979V20.068a4.979,4.979,0,0,1-4.979,4.979H4.981A4.981,4.981,0,0,1,0,20.067V4.979A4.979,4.979,0,0,1,4.979,0Z" transform="translate(-637.063 191.457)" fill="#2eccfc"/>
      <path id="Path_18586" data-name="Path 18586" d="M-633.862,267.179a.637.637,0,0,1,.637.636.637.637,0,0,1-.637.636h-3.6a.637.637,0,0,1-.636-.636.636.636,0,0,1,.636-.636Zm43.13,43.831a.637.637,0,0,1,.637.637.637.637,0,0,1-.637.637h-33.752a.637.637,0,0,1-.636-.637.637.637,0,0,1,.636-.637Zm-39.481,0a.637.637,0,0,1,.637.637.637.637,0,0,1-.637.637h-3.874a.637.637,0,0,1-.637-.637.637.637,0,0,1,.637-.637Zm39.481-6.262a.637.637,0,0,1,.637.637.638.638,0,0,1-.637.638h-21.734a.637.637,0,0,1-.637-.638.637.637,0,0,1,.637-.637Zm-24.767,0a.637.637,0,0,1,.637.637.638.638,0,0,1-.637.638h-18.588a.638.638,0,0,1-.637-.638.637.637,0,0,1,.637-.637Zm24.767-6.261a.637.637,0,0,1,.637.636.636.636,0,0,1-.637.636h-7.807a.636.636,0,0,1-.636-.636.636.636,0,0,1,.636-.636Zm-13.086,0a.637.637,0,0,1,.637.636.636.636,0,0,1-.637.636H-623.3a.636.636,0,0,1-.636-.636.636.636,0,0,1,.636-.636Zm-22.519,0a.636.636,0,0,1,.637.636.636.636,0,0,1-.637.636h-7.75a.636.636,0,0,1-.637-.636.636.636,0,0,1,.637-.636Zm-7.525-6.262a.637.637,0,0,1,.637.637.637.637,0,0,1-.637.636h-22.8a.636.636,0,0,1-.636-.636.636.636,0,0,1,.636-.637Zm-28.642,0a.637.637,0,0,1,.636.637.637.637,0,0,1-.636.636h-9.546a.637.637,0,0,1-.636-.636.637.637,0,0,1,.636-.637Zm28.642-6.262a.638.638,0,0,1,.637.637.637.637,0,0,1-.637.636h-7.414a.636.636,0,0,1-.636-.636.637.637,0,0,1,.636-.637Zm-9.323,0a.638.638,0,0,1,.637.637.637.637,0,0,1-.637.636h-19.768a.636.636,0,0,1-.636-.636.637.637,0,0,1,.636-.637Zm-23.474,0a.638.638,0,0,1,.637.637.637.637,0,0,1-.637.636h-5.39a.636.636,0,0,1-.636-.636.637.637,0,0,1,.636-.637Zm32.8-6.261a.637.637,0,0,1,.637.636.637.637,0,0,1-.637.637H-650.71a.636.636,0,0,1-.637-.637.636.636,0,0,1,.637-.636Zm-19.769,0a.637.637,0,0,1,.636.636.636.636,0,0,1-.636.637h-18.419a.636.636,0,0,1-.636-.637.637.637,0,0,1,.636-.636Zm19.769-6.261a.637.637,0,0,1,.637.636.637.637,0,0,1-.637.637h-30.664a.637.637,0,0,1-.637-.637.637.637,0,0,1,.637-.636Zm-34.708,0a.637.637,0,0,1,.637.636.637.637,0,0,1-.637.637h-3.48a.637.637,0,0,1-.636-.637.637.637,0,0,1,.636-.636Zm27.8-6.261a.636.636,0,0,1,.637.636.637.637,0,0,1-.637.636h-31.279a.637.637,0,0,1-.636-.636.636.636,0,0,1,.636-.636Z" transform="translate(-13.872 -76.358)" fill="#a3a4a4" fill-rule="evenodd"/>
      <path id="Rectangle_931" data-name="Rectangle 931" d="M2.574,0H31.3a2.574,2.574,0,0,1,2.574,2.574v5.72A2.573,2.573,0,0,1,31.3,10.867H2.573A2.573,2.573,0,0,1,0,8.293V2.574A2.574,2.574,0,0,1,2.574,0Z" transform="translate(-686.77 224.422)" fill="#7b2aff"/>
      <rect id="Rectangle_932" data-name="Rectangle 932" width="15.275" height="6.007" rx="1.422" transform="translate(-619.878 151.165)" fill="#b4b5b5"/>
      <path id="Rectangle_933" data-name="Rectangle 933" d="M1.423,0H13.852a1.423,1.423,0,0,1,1.423,1.423V4.584a1.423,1.423,0,0,1-1.423,1.423H1.422A1.422,1.422,0,0,1,0,4.585V1.423A1.423,1.423,0,0,1,1.423,0Z" transform="translate(-619.878 168.125)" fill="#7b2aff"/>
      <path id="Path_18587" data-name="Path 18587" d="M-605.015,228.61a.636.636,0,0,1,.636.636.636.636,0,0,1-.636.637H-635.68a.637.637,0,0,1-.637-.637.637.637,0,0,1,.637-.636Zm-34.709,0a.636.636,0,0,1,.637.636.637.637,0,0,1-.637.637H-643.2a.637.637,0,0,1-.637-.637.636.636,0,0,1,.637-.636Zm34.709-6.263a.636.636,0,0,1,.636.637.636.636,0,0,1-.636.637h-3.6a.637.637,0,0,1-.637-.637.637.637,0,0,1,.637-.637Zm-6.91,0a.637.637,0,0,1,.637.637.637.637,0,0,1-.637.637H-643.2a.637.637,0,0,1-.637-.637.637.637,0,0,1,.637-.637Zm6.91-10.7a.636.636,0,0,1,.636.636.636.636,0,0,1-.636.637H-635.68a.638.638,0,0,1-.637-.637.637.637,0,0,1,.637-.636Zm-34.709,0a.637.637,0,0,1,.637.636.637.637,0,0,1-.637.637H-643.2a.637.637,0,0,1-.637-.637.637.637,0,0,1,.637-.636Zm34.709-6.262a.636.636,0,0,1,.636.637.636.636,0,0,1-.636.636h-3.6a.637.637,0,0,1-.637-.636.637.637,0,0,1,.637-.637Zm-6.91,0a.637.637,0,0,1,.637.637.637.637,0,0,1-.637.636H-643.2a.637.637,0,0,1-.637-.636.637.637,0,0,1,.637-.637Z" transform="translate(-23.849 -54.986)" fill="#b4b5b5" fill-rule="evenodd"/>
      <path id="Path_18588" data-name="Path 18588" d="M-666.316,239.617a5.407,5.407,0,0,0,5.4-5.4,5.407,5.407,0,0,0-5.4-5.4,5.408,5.408,0,0,0-5.4,5.4A5.408,5.408,0,0,0-666.316,239.617Z" transform="translate(-14.208 -63.092)" fill="aqua" fill-rule="evenodd"/>
      <path id="Path_18589" data-name="Path 18589" d="M-664.785,203.3l2.921.187a.66.66,0,0,1,.6.462.66.66,0,0,1-.21.724l-2.253,1.869.725,2.836a.66.66,0,0,1-.256.709.661.661,0,0,1-.754.024l-2.473-1.565-2.473,1.565a.661.661,0,0,1-.754-.024.66.66,0,0,1-.256-.709l.725-2.836-2.254-1.869a.661.661,0,0,1-.21-.724.659.659,0,0,1,.6-.462l2.921-.187,1.081-2.721a.661.661,0,0,1,.624-.423.66.66,0,0,1,.624.423Z" transform="translate(-14.197 -53.176)" fill="aqua" fill-rule="evenodd"/>
      <g id="Group_5190" data-name="Group 5190" transform="translate(-683.009 168.464)">
        <rect id="Rectangle_934" data-name="Rectangle 934" width="1.207" height="2.359" rx="0.604" transform="translate(0)" fill="#fff"/>
        <rect id="Rectangle_935" data-name="Rectangle 935" width="1.207" height="2.359" rx="0.604" transform="translate(3.763)" fill="#fff"/>
      </g>
      <path id="Path_18590" data-name="Path 18590" d="M-662.482,237.958a.318.318,0,0,1,.319-.319.319.319,0,0,1,.319.319,3.419,3.419,0,0,1-1.005,2.426,3.417,3.417,0,0,1-2.426,1,3.421,3.421,0,0,1-2.426-1,3.421,3.421,0,0,1-1-2.426.319.319,0,0,1,.319-.319.318.318,0,0,1,.318.319,2.782,2.782,0,0,0,.819,1.975,2.784,2.784,0,0,0,1.976.818,2.783,2.783,0,0,0,1.975-.818A2.784,2.784,0,0,0-662.482,237.958Z" transform="translate(-15.248 -66.141)" fill="#fff" fill-rule="evenodd"/>
      <g id="Group_5191" data-name="Group 5191" transform="translate(-691.553 78.757)">
        <path id="Path_18591" data-name="Path 18591" d="M-680,96.5a.318.318,0,0,1-.318-.319.318.318,0,0,1,.318-.319h6.966a.318.318,0,0,1,.318.319.318.318,0,0,1-.318.319Zm0,4.575a.318.318,0,0,1-.318-.319.318.318,0,0,1,.318-.317h6.966a.318.318,0,0,1,.318.317.319.319,0,0,1-.318.319Zm0-2.288a.318.318,0,0,1-.318-.319.318.318,0,0,1,.318-.319h6.966a.319.319,0,0,1,.318.319.319.319,0,0,1-.318.319Z" transform="translate(680.322 -95.864)" fill="#fff" fill-rule="evenodd"/>
        <path id="Path_18592" data-name="Path 18592" d="M-544.163,96.644Zm-8.378.352h4.09v3.292h-4.09a.324.324,0,0,1-.232-.1.327.327,0,0,1-.1-.232V97.325a.325.325,0,0,1,.1-.233.33.33,0,0,1,.232-.1Zm7.695-.636h-7.695a.96.96,0,0,0-.683.285.965.965,0,0,0-.283.682v2.633a.96.96,0,0,0,.285.682.962.962,0,0,0,.682.284h7.695a.964.964,0,0,0,.661-.264l.022-.02a.964.964,0,0,0,.283-.682V97.325a.969.969,0,0,0-.285-.684A.966.966,0,0,0-544.846,96.359Z" transform="translate(636.462 -96.035)" fill="#fff" fill-rule="evenodd"/>
      </g>
      <path id="Path_18593" data-name="Path 18593" d="M-575.086,129.457a8.749,8.749,0,0,0,6.206-2.571,8.749,8.749,0,0,0,2.571-6.206,8.749,8.749,0,0,0-2.571-6.206,8.749,8.749,0,0,0-6.206-2.571,8.748,8.748,0,0,0-6.206,2.571,8.749,8.749,0,0,0-2.571,6.206,8.749,8.749,0,0,0,2.571,6.206A8.748,8.748,0,0,0-575.086,129.457Z" transform="translate(-44.592 -22.654)" fill="#00c278" fill-rule="evenodd"/>
      <g id="Group_5192" data-name="Group 5192" transform="translate(-683.658 88.08)">
        <path id="Path_18594" data-name="Path 18594" d="M-601.238,128.309V148.1a5.6,5.6,0,0,1-1.648,3.965,5.637,5.637,0,0,1-1.374,1.01h10.569a.319.319,0,0,1,.319.319.319.319,0,0,1-.319.319h-72.333a.319.319,0,0,1-.319-.319.32.32,0,0,1,.319-.319h10.568a5.649,5.649,0,0,1-1.374-1.01,5.6,5.6,0,0,1-1.647-3.965V119.375a5.594,5.594,0,0,1,1.647-3.965,5.6,5.6,0,0,1,3.966-1.647h40.784a9.408,9.408,0,0,1,.785-.89,9.379,9.379,0,0,1,6.655-2.757,9.38,9.38,0,0,1,6.657,2.757,9.379,9.379,0,0,1,2.757,6.656,9.383,9.383,0,0,1-2.757,6.657,9.429,9.429,0,0,1-3.255,2.123Zm-.536-15.515c.122.052.242.107.359.164l.017.009c.1.051.216.111.336.177a.318.318,0,0,0,.432-.122.318.318,0,0,0-.122-.433c-.11-.061-.232-.125-.366-.192l-.016-.008c-.129-.063-.26-.124-.391-.179a.317.317,0,0,0-.417.167.318.318,0,0,0,.168.417Zm1.681,1a7.362,7.362,0,0,1,1.41,1.481,7.281,7.281,0,0,1,.943,1.808.318.318,0,0,0,.4.194.317.317,0,0,0,.194-.406,7.886,7.886,0,0,0-1.025-1.964A8.009,8.009,0,0,0-599.7,113.3a.32.32,0,0,0-.447.052.319.319,0,0,0,.051.447Zm-12.44.6h-40.33a4.963,4.963,0,0,0-3.515,1.46,4.961,4.961,0,0,0-1.461,3.516V148.1a4.961,4.961,0,0,0,1.461,3.515,4.962,4.962,0,0,0,3.473,1.46h46.1a4.962,4.962,0,0,0,3.473-1.46,4.963,4.963,0,0,0,1.461-3.515v-19.57a9.313,9.313,0,0,1-1.118.27v19.3a3.846,3.846,0,0,1-1.134,2.724,3.848,3.848,0,0,1-2.724,1.133h-46.012a3.85,3.85,0,0,1-2.725-1.133,3.848,3.848,0,0,1-1.133-2.724V119.375a3.851,3.851,0,0,1,1.133-2.726,3.849,3.849,0,0,1,2.725-1.132h39.706a9.458,9.458,0,0,1,.624-1.118Zm8.9,14.489a9.5,9.5,0,0,1-1.009.054,9.407,9.407,0,0,1-2.6-.364v.4a1.228,1.228,0,0,1-.361.867,1.228,1.228,0,0,1-.868.361h-42.776a1.228,1.228,0,0,1-.868-.36,1.224,1.224,0,0,1-.36-.867v-1.516a1.224,1.224,0,0,1,.36-.867v0a1.225,1.225,0,0,1,.867-.36h40l-.047-.046a9.432,9.432,0,0,1-1.892-2.708h-42.9V148.1a3.21,3.21,0,0,0,.947,2.274,3.212,3.212,0,0,0,2.274.946h46.012a3.213,3.213,0,0,0,2.274-.946,3.21,3.21,0,0,0,.946-2.274V128.889Zm-3.992-.429a9.42,9.42,0,0,1-3.213-1.845h-40.409a.844.844,0,0,0-.6.249.842.842,0,0,0-.249.6v1.516a.845.845,0,0,0,.249.6.848.848,0,0,0,.6.249h42.776a.845.845,0,0,0,.6-.249.845.845,0,0,0,.248-.6v-.517Zm-5.83-5.619a9.391,9.391,0,0,1-.6-3.311,9.389,9.389,0,0,1,.623-3.374h-39.434a3.209,3.209,0,0,0-2.274.945,3.212,3.212,0,0,0-.947,2.275v3.465Zm15.02-9.518a8.752,8.752,0,0,0-6.206-2.571,8.75,8.75,0,0,0-6.205,2.571,8.752,8.752,0,0,0-2.571,6.206,8.749,8.749,0,0,0,2.571,6.206,8.75,8.75,0,0,0,6.205,2.571,8.752,8.752,0,0,0,6.206-2.571,8.751,8.751,0,0,0,2.571-6.206,8.754,8.754,0,0,0-2.571-6.206Zm6.524,39.752a.319.319,0,0,1,.319.319.319.319,0,0,1-.319.319h-.674a.319.319,0,0,1-.319-.319.319.319,0,0,1,.319-.319Zm-75.351,0a.319.319,0,0,1,.319.319.319.319,0,0,1-.319.319h-.674a.319.319,0,0,1-.319-.319.319.319,0,0,1,.319-.319Zm34.778-10.356h24.746a.191.191,0,0,0,.191-.191.191.191,0,0,0-.191-.191h-24.746a.191.191,0,0,0-.19.191.191.191,0,0,0,.19.191Zm-2.745-3.267h27.492a.191.191,0,0,0,.191-.191.192.192,0,0,0-.191-.192h-27.492a.192.192,0,0,0-.191.192.191.191,0,0,0,.191.191Zm0-3.267h27.492a.192.192,0,0,0,.191-.192.191.191,0,0,0-.191-.19h-27.492a.191.191,0,0,0-.191.19.192.192,0,0,0,.191.192Zm-16.751-3.267h44.243a.191.191,0,0,0,.191-.192.191.191,0,0,0-.191-.19h-44.243a.191.191,0,0,0-.191.19.191.191,0,0,0,.191.192Zm1.194,2.884a1.686,1.686,0,0,0-1.193.5,1.688,1.688,0,0,0-.5,1.194V142.6a1.689,1.689,0,0,0,.5,1.194,1.686,1.686,0,0,0,1.193.5h10.154a1.683,1.683,0,0,0,1.181-.485l.012-.01a1.687,1.687,0,0,0,.5-1.193v-5.106a1.686,1.686,0,0,0-.5-1.194,1.686,1.686,0,0,0-1.193-.5Zm10.154.382h-10.154a1.3,1.3,0,0,0-.923.384,1.3,1.3,0,0,0-.384.923V142.6a1.305,1.305,0,0,0,.384.924,1.31,1.31,0,0,0,.923.383h10.154a1.3,1.3,0,0,0,.914-.374l.009-.009a1.3,1.3,0,0,0,.384-.924v-5.106a1.3,1.3,0,0,0-.384-.923A1.3,1.3,0,0,0-640.631,136.185Z" transform="translate(668.253 -110.116)" fill="#fff" fill-rule="evenodd"/>
        <path id="Path_18595" data-name="Path 18595" d="M-644.011,123.105a.763.763,0,0,1,.763.763.762.762,0,0,1-.763.762.762.762,0,0,1-.763-.762A.763.763,0,0,1-644.011,123.105Z" transform="translate(660.133 -114.608)" fill="#fff" fill-rule="evenodd"/>
        <path id="Path_18596" data-name="Path 18596" d="M-640.4,123.105a.763.763,0,0,1,.763.763.762.762,0,0,1-.763.762.762.762,0,0,1-.762-.762A.763.763,0,0,1-640.4,123.105Z" transform="translate(658.882 -114.608)" fill="#fff" fill-rule="evenodd"/>
        <path id="Path_18597" data-name="Path 18597" d="M-636.781,123.105a.763.763,0,0,1,.763.763.762.762,0,0,1-.763.762.762.762,0,0,1-.763-.762A.763.763,0,0,1-636.781,123.105Z" transform="translate(657.632 -114.608)" fill="#fff" fill-rule="evenodd"/>
        <path id="Path_18598" data-name="Path 18598" d="M-633.166,123.105a.763.763,0,0,1,.763.763.762.762,0,0,1-.763.762.762.762,0,0,1-.763-.762A.762.762,0,0,1-633.166,123.105Z" transform="translate(656.382 -114.608)" fill="#fff" fill-rule="evenodd"/>
        <path id="Path_18599" data-name="Path 18599" d="M-571.644,126.183a.636.636,0,0,1-.637.637.637.637,0,0,1-.636-.637v-1.889h-3.6a.636.636,0,0,1-.366-.116.636.636,0,0,1-.154-.886l4.217-5.993a.637.637,0,0,1,.542-.3.637.637,0,0,1,.637.637v5.388h1.047a.637.637,0,0,1,.637.636.636.636,0,0,1-.637.636h-1.047v1.889Zm-1.273-3.162v-3.379l-2.378,3.379Z" transform="translate(636.746 -112.496)" fill="#fff" fill-rule="evenodd"/>
      </g>
      <path id="Path_18600" data-name="Path 18600" d="M-575.826,275.954a.318.318,0,0,1-.167-.417.319.319,0,0,1,.417-.168c.131.056.262.117.391.181l.016.009c.133.065.255.13.365.192a.318.318,0,0,1,.122.433.318.318,0,0,1-.433.121q-.18-.1-.336-.177l-.016-.007c-.117-.058-.237-.113-.359-.165Zm.547-1.944v-2.274a.745.745,0,0,0-.222-.532.751.751,0,0,0-.531-.221h-3.039a.749.749,0,0,0-.532.222.749.749,0,0,0-.221.531v2.274a7.993,7.993,0,0,0-1.712.737,8.032,8.032,0,0,0-1.5,1.119l-1.972-1.138a.753.753,0,0,0-.568-.075.747.747,0,0,0-.457.351l-1.52,2.631a.744.744,0,0,0-.075.57.749.749,0,0,0,.349.457l1.97,1.138a8.073,8.073,0,0,0-.147.8,8.062,8.062,0,0,0-.071,1.058,8.157,8.157,0,0,0,.071,1.056,7.965,7.965,0,0,0,.148.8l-1.97,1.136a.748.748,0,0,0-.349.457.743.743,0,0,0,.075.57l1.52,2.633a.749.749,0,0,0,.456.349.746.746,0,0,0,.547-.063l1.995-1.151a8.03,8.03,0,0,0,1.5,1.12,7.937,7.937,0,0,0,1.712.737v2.274a.745.745,0,0,0,.222.531.749.749,0,0,0,.531.222h3.039a.747.747,0,0,0,.532-.222.749.749,0,0,0,.22-.531V289.3a7.922,7.922,0,0,0,1.713-.737,7.992,7.992,0,0,0,1.5-1.12l1.973,1.139a.747.747,0,0,0,.568.075.746.746,0,0,0,.457-.351l1.52-2.632a.747.747,0,0,0,.075-.57.751.751,0,0,0-.349-.457l-1.97-1.137a8.009,8.009,0,0,0,.147-.8,7.937,7.937,0,0,0,.071-1.056,8.01,8.01,0,0,0-.071-1.056,7.884,7.884,0,0,0-.147-.8l1.97-1.137a.752.752,0,0,0,.349-.457.747.747,0,0,0-.075-.57l-1.52-2.633a.749.749,0,0,0-.456-.349.752.752,0,0,0-.548.062l-1.994,1.151a8.028,8.028,0,0,0-1.5-1.119,8.032,8.032,0,0,0-1.712-.737Zm1.393,1.287a7.349,7.349,0,0,0-1.772-.733.319.319,0,0,1-.258-.313v-2.515a.119.119,0,0,0-.034-.082.112.112,0,0,0-.082-.035h-3.039a.117.117,0,0,0-.081.035.11.11,0,0,0-.035.082v2.515a.318.318,0,0,1-.237.307,7.338,7.338,0,0,0-1.793.739,7.4,7.4,0,0,0-1.537,1.183.318.318,0,0,1-.39.057l-2.18-1.259a.114.114,0,0,0-.088-.01.123.123,0,0,0-.072.054L-587,277.954a.114.114,0,0,0-.01.088.118.118,0,0,0,.054.071l2.159,1.247a.32.32,0,0,1,.167.37,7.2,7.2,0,0,0-.193.95,7.472,7.472,0,0,0-.063.975,7.457,7.457,0,0,0,.063.973,7.467,7.467,0,0,0,.193.952h0a.316.316,0,0,1-.148.358l-2.177,1.257a.113.113,0,0,0-.054.071.114.114,0,0,0,.01.088l1.519,2.632a.119.119,0,0,0,.072.054.126.126,0,0,0,.08-.006l2.188-1.263a.318.318,0,0,1,.384.05,7.4,7.4,0,0,0,1.542,1.189,7.349,7.349,0,0,0,1.773.733.319.319,0,0,1,.258.312v2.515a.115.115,0,0,0,.034.082.112.112,0,0,0,.082.034h3.039a.117.117,0,0,0,.082-.034.114.114,0,0,0,.034-.082v-2.515a.319.319,0,0,1,.237-.307,7.255,7.255,0,0,0,1.792-.738,7.382,7.382,0,0,0,1.537-1.183.316.316,0,0,1,.39-.056l2.18,1.258a.122.122,0,0,0,.088.011.121.121,0,0,0,.071-.054l1.52-2.632a.114.114,0,0,0,.01-.088.113.113,0,0,0-.054-.071l-2.16-1.246a.319.319,0,0,1-.166-.37,7.261,7.261,0,0,0,.192-.952,7.351,7.351,0,0,0,.063-.973,7.345,7.345,0,0,0-.063-.974,7.238,7.238,0,0,0-.192-.952h0a.318.318,0,0,1,.148-.358l2.177-1.258a.117.117,0,0,0,.054-.073.111.111,0,0,0-.01-.086l-1.52-2.633a.123.123,0,0,0-.071-.054.12.12,0,0,0-.081.007l-2.187,1.263a.317.317,0,0,1-.384-.051,7.384,7.384,0,0,0-1.542-1.189Zm-3.666,2.53a3.819,3.819,0,0,1,2.707,1.121,3.816,3.816,0,0,1,1.121,2.708,3.817,3.817,0,0,1-1.121,2.707,3.816,3.816,0,0,1-2.707,1.121,3.816,3.816,0,0,1-2.707-1.121,3.817,3.817,0,0,1-1.121-2.707,3.817,3.817,0,0,1,1.121-2.708,3.819,3.819,0,0,1,2.707-1.121Zm2.257,1.572a3.181,3.181,0,0,1,.935,2.257,3.186,3.186,0,0,1-.935,2.257,3.183,3.183,0,0,1-2.257.935,3.183,3.183,0,0,1-2.257-.935,3.183,3.183,0,0,1-.935-2.257,3.178,3.178,0,0,1,.935-2.257,3.184,3.184,0,0,1,2.257-.935,3.184,3.184,0,0,1,2.257.935Zm1.149-2.443a.317.317,0,0,1-.051-.445.318.318,0,0,1,.447-.052,8.022,8.022,0,0,1,1.531,1.611,7.948,7.948,0,0,1,1.026,1.964.318.318,0,0,1-.194.406.317.317,0,0,1-.406-.194,7.3,7.3,0,0,0-.943-1.807A7.383,7.383,0,0,0-574.146,276.955Z" transform="translate(-43.282 -77.673)" fill="#fff" fill-rule="evenodd"/>
      <text id="SEE_MORE" data-name="SEE MORE" transform="translate(-672.218 231.616)" fill="#fff" font-size="4" font-family="OpenSans, Open Sans"><tspan x="-9.554" y="0">SEE MORE</tspan></text>
    </g>
  </g>
</svg>
