<svg xmlns="http://www.w3.org/2000/svg" xmlns:xlink="http://www.w3.org/1999/xlink" width="370" height="300" viewBox="0 0 370 300">
  <defs>
    <clipPath id="clip-path">
      <rect id="Rectangle_447" data-name="Rectangle 447" width="209.055" height="1.006" fill="none"/>
    </clipPath>
    <linearGradient id="linear-gradient" x1="95.909" y1="-133.926" x2="96.936" y2="-133.926" gradientUnits="objectBoundingBox">
      <stop offset="0" stop-color="#17224d"/>
      <stop offset="0.114" stop-color="#2d2374"/>
      <stop offset="0.255" stop-color="#44259e"/>
      <stop offset="0.399" stop-color="#5827c1"/>
      <stop offset="0.545" stop-color="#6728dc"/>
      <stop offset="0.692" stop-color="#7229ef"/>
      <stop offset="0.842" stop-color="#7829fb"/>
      <stop offset="1" stop-color="#7b2aff"/>
    </linearGradient>
    <linearGradient id="linear-gradient-2" x1="112.677" y1="-214.921" x2="112.019" y2="-213.553" xlink:href="#linear-gradient"/>
    <linearGradient id="linear-gradient-3" x1="84.743" y1="-43.043" x2="85.951" y2="-43.043" gradientUnits="objectBoundingBox">
      <stop offset="0" stop-color="#1f8fe5"/>
      <stop offset="0.5" stop-color="#00aeef"/>
      <stop offset="1" stop-color="#24e3f2"/>
    </linearGradient>
    <linearGradient id="linear-gradient-4" x1="337.204" y1="-106.11" x2="336.206" y2="-106.366" gradientUnits="objectBoundingBox">
      <stop offset="0" stop-color="#00ffb6"/>
      <stop offset="0.13" stop-color="#00f7b1"/>
      <stop offset="0.321" stop-color="#00e4a5"/>
      <stop offset="0.549" stop-color="#00c392"/>
      <stop offset="0.804" stop-color="#009777"/>
      <stop offset="0.995" stop-color="#007160"/>
    </linearGradient>
    <linearGradient id="linear-gradient-5" x1="119.306" y1="-51.186" x2="120.506" y2="-51.186" gradientUnits="objectBoundingBox">
      <stop offset="0" stop-color="#00648d"/>
      <stop offset="0.5" stop-color="#1ee2b3"/>
      <stop offset="1" stop-color="#30fca4"/>
    </linearGradient>
    <linearGradient id="linear-gradient-6" x1="119.349" y1="-51.186" x2="120.55" y2="-51.186" gradientUnits="objectBoundingBox">
      <stop offset="0" stop-color="#1ea47b"/>
      <stop offset="0.289" stop-color="#1ec69a"/>
      <stop offset="0.555" stop-color="#1ee2b3"/>
      <stop offset="0.564" stop-color="#1ee3b2" stop-opacity="0.965"/>
      <stop offset="0.616" stop-color="#23e9ae" stop-opacity="0.765"/>
      <stop offset="0.671" stop-color="#27efab" stop-opacity="0.588"/>
      <stop offset="0.728" stop-color="#2af3a8" stop-opacity="0.447"/>
      <stop offset="0.787" stop-color="#2cf7a6" stop-opacity="0.337"/>
      <stop offset="0.849" stop-color="#2efaa5" stop-opacity="0.263"/>
      <stop offset="0.917" stop-color="#2ffba4" stop-opacity="0.216"/>
      <stop offset="1" stop-color="#30fca4" stop-opacity="0.2"/>
    </linearGradient>
    <linearGradient id="linear-gradient-7" x1="89.721" y1="-43.043" x2="90.984" y2="-43.043" gradientUnits="objectBoundingBox">
      <stop offset="0" stop-color="#31d7ff"/>
      <stop offset="0.185" stop-color="#31c8fe"/>
      <stop offset="0.536" stop-color="#31a3fe"/>
      <stop offset="1" stop-color="#3369fd"/>
    </linearGradient>
    <linearGradient id="linear-gradient-8" x1="130.889" y1="-51.186" x2="132.14" y2="-51.186" gradientUnits="objectBoundingBox">
      <stop offset="0" stop-color="#00ffdc" stop-opacity="0.502"/>
      <stop offset="0.077" stop-color="#00f8d0" stop-opacity="0.557"/>
      <stop offset="0.46" stop-color="#00daa0" stop-opacity="0.796"/>
      <stop offset="0.781" stop-color="#00c882" stop-opacity="0.945"/>
      <stop offset="1" stop-color="#00c278"/>
    </linearGradient>
    <linearGradient id="linear-gradient-9" x1="129.583" y1="-51.186" x2="130.837" y2="-51.186" gradientUnits="objectBoundingBox">
      <stop offset="0" stop-color="#6affd3" stop-opacity="0"/>
      <stop offset="0.03" stop-color="#68ffc2" stop-opacity="0.137"/>
      <stop offset="0.079" stop-color="#65ffab" stop-opacity="0.337"/>
      <stop offset="0.131" stop-color="#63ff96" stop-opacity="0.514"/>
      <stop offset="0.184" stop-color="#61ff85" stop-opacity="0.663"/>
      <stop offset="0.238" stop-color="#5fff77" stop-opacity="0.788"/>
      <stop offset="0.295" stop-color="#5eff6b" stop-opacity="0.882"/>
      <stop offset="0.355" stop-color="#5dff64" stop-opacity="0.949"/>
      <stop offset="0.42" stop-color="#5dff5f" stop-opacity="0.988"/>
      <stop offset="0.5" stop-color="#5dff5e"/>
      <stop offset="0.56" stop-color="#5dff60" stop-opacity="0.984"/>
      <stop offset="0.622" stop-color="#5fff66" stop-opacity="0.933"/>
      <stop offset="0.686" stop-color="#62ff71" stop-opacity="0.851"/>
      <stop offset="0.75" stop-color="#65ff81" stop-opacity="0.737"/>
      <stop offset="0.816" stop-color="#6aff95" stop-opacity="0.588"/>
      <stop offset="0.881" stop-color="#71ffad" stop-opacity="0.408"/>
      <stop offset="0.947" stop-color="#78ffc9" stop-opacity="0.196"/>
      <stop offset="1" stop-color="#7fffe4" stop-opacity="0"/>
    </linearGradient>
  </defs>
  <g id="Group_7236" data-name="Group 7236" transform="translate(-775 -4906)">
    <g id="Rectangle_646" data-name="Rectangle 646" transform="translate(775 4906)" fill="#fff" stroke="#002a98" stroke-width="4">
      <path d="M10,0H360a10,10,0,0,1,10,10V300a0,0,0,0,1,0,0H0a0,0,0,0,1,0,0V10A10,10,0,0,1,10,0Z" stroke="none"/>
      <path d="M10,2H360a8,8,0,0,1,8,8V296a2,2,0,0,1-2,2H4a2,2,0,0,1-2-2V10A8,8,0,0,1,10,2Z" fill="none"/>
    </g>
    <g id="Group_6486" data-name="Group 6486" transform="translate(428.342 4954.527)">
      <g id="Group_426" data-name="Group 426" transform="translate(465.996 45.345)">
        <path id="Path_4546" data-name="Path 4546" d="M437.321,72.662a7.727,7.727,0,0,1-3.416-2.685,6.96,6.96,0,0,1-1.2-4.065v-.948a.548.548,0,0,1,.592-.594h2.527a.548.548,0,0,1,.59.594v.75a3.984,3.984,0,0,0,1.738,3.316,7.51,7.51,0,0,0,4.619,1.3,6.309,6.309,0,0,0,4.106-1.146,3.706,3.706,0,0,0,1.382-3,3.2,3.2,0,0,0-.709-2.091,6.787,6.787,0,0,0-2.074-1.6,39.627,39.627,0,0,0-3.967-1.757,39.967,39.967,0,0,1-4.56-2.013,8.41,8.41,0,0,1-2.783-2.389,6.057,6.057,0,0,1-1.107-3.731,6.445,6.445,0,0,1,2.43-5.33,10.273,10.273,0,0,1,6.574-1.934,12.477,12.477,0,0,1,5.132.988,7.876,7.876,0,0,1,3.414,2.762A7.149,7.149,0,0,1,451.81,53.2v.594a.586.586,0,0,1-.158.433.592.592,0,0,1-.436.158h-2.564a.635.635,0,0,1-.435-.138.472.472,0,0,1-.157-.375V53.4a4.263,4.263,0,0,0-1.64-3.416A6.87,6.87,0,0,0,441.9,48.62a6.219,6.219,0,0,0-3.789,1.005,3.4,3.4,0,0,0-1.343,2.9,3.273,3.273,0,0,0,.673,2.132,5.8,5.8,0,0,0,1.993,1.48q1.321.652,4.046,1.678a45.023,45.023,0,0,1,4.54,2.034A8.687,8.687,0,0,1,450.9,62.3a6.089,6.089,0,0,1,1.144,3.769,6.9,6.9,0,0,1-1.144,3.948,7.492,7.492,0,0,1-3.317,2.645,12.671,12.671,0,0,1-5.094.948A13.06,13.06,0,0,1,437.321,72.662Z" transform="translate(-432.702 -45.343)" fill="#0037cd"/>
        <path id="Path_4547" data-name="Path 4547" d="M457.342,50.151a.614.614,0,0,1,.315.75l-.554,2.564c-.026.264-.158.4-.394.4a.992.992,0,0,1-.317-.04,4.289,4.289,0,0,0-1.342-.2,3.463,3.463,0,0,0-.592.039,4.433,4.433,0,0,0-3.06,1.284,4.249,4.249,0,0,0-1.2,3.137V69.415a.546.546,0,0,1-.592.592H447a.546.546,0,0,1-.594-.592V50.507a.546.546,0,0,1,.594-.594h2.6a.546.546,0,0,1,.592.594v1.815c0,.105.019.165.059.177s.086-.019.139-.1a5.5,5.5,0,0,1,4.817-2.685A5.047,5.047,0,0,1,457.342,50.151Z" transform="translate(-422.403 -42.057)" fill="#0037cd"/>
        <path id="Path_4548" data-name="Path 4548" d="M467.851,64.65c.131-.237.277-.356.434-.356a.569.569,0,0,1,.355.119l1.619.986a.589.589,0,0,1,.315.513l-.079.315a7.731,7.731,0,0,1-3.02,3.041,9.117,9.117,0,0,1-4.561,1.105,8.581,8.581,0,0,1-4.736-1.244,7.675,7.675,0,0,1-2.922-3.573,14.805,14.805,0,0,1-.986-5.645,16.79,16.79,0,0,1,.432-4.382,7.551,7.551,0,0,1,2.843-4.3,8.439,8.439,0,0,1,5.172-1.58,7.794,7.794,0,0,1,5.724,1.955,9.923,9.923,0,0,1,2.566,5.665q.2,1.461.277,3.552a.524.524,0,0,1-.592.594H458.219a.174.174,0,0,0-.2.2,9.739,9.739,0,0,0,.275,2.132,4.338,4.338,0,0,0,1.738,2.487,5.522,5.522,0,0,0,3.237.909A4.922,4.922,0,0,0,467.851,64.65Zm-7.956-10.9a4.143,4.143,0,0,0-1.48,2.291,9.226,9.226,0,0,0-.356,2.209.175.175,0,0,0,.2.2h8.961a.175.175,0,0,0,.2-.2,11.771,11.771,0,0,0-.236-1.934,4.8,4.8,0,0,0-7.285-2.566Z" transform="translate(-416.491 -42.107)" fill="#0037cd"/>
        <path id="Path_4549" data-name="Path 4549" d="M479.976,64.65c.133-.237.279-.356.436-.356a.573.573,0,0,1,.355.119l1.618.986a.589.589,0,0,1,.315.513l-.079.315a7.714,7.714,0,0,1-3.021,3.041,9.109,9.109,0,0,1-4.558,1.105,8.587,8.587,0,0,1-4.738-1.244,7.677,7.677,0,0,1-2.922-3.573,14.837,14.837,0,0,1-.988-5.645,16.674,16.674,0,0,1,.436-4.382,7.537,7.537,0,0,1,2.841-4.3,8.437,8.437,0,0,1,5.173-1.58A7.791,7.791,0,0,1,480.57,51.6a9.925,9.925,0,0,1,2.566,5.665q.2,1.461.277,3.552a.525.525,0,0,1-.594.594H470.344a.173.173,0,0,0-.2.2,9.617,9.617,0,0,0,.277,2.132,4.334,4.334,0,0,0,1.736,2.487,5.523,5.523,0,0,0,3.239.909A4.914,4.914,0,0,0,479.976,64.65Zm-7.952-10.9a4.138,4.138,0,0,0-1.482,2.291,9.245,9.245,0,0,0-.355,2.209.175.175,0,0,0,.2.2h8.961a.176.176,0,0,0,.2-.2,11.571,11.571,0,0,0-.236-1.934,4.8,4.8,0,0,0-7.283-2.566Z" transform="translate(-407.378 -42.107)" fill="#0037cd"/>
        <path id="Path_4550" data-name="Path 4550" d="M479.265,73a.589.589,0,0,1-.158-.434V46.115a.548.548,0,0,1,.592-.592h2.527a.777.777,0,0,1,.711.394l12.081,19.542c.051.081.1.112.156.1s.081-.072.081-.177V46.115a.548.548,0,0,1,.592-.592h2.6a.548.548,0,0,1,.592.592V72.566a.546.546,0,0,1-.592.592h-2.566a.777.777,0,0,1-.711-.394L483.1,53.1c-.052-.081-.105-.112-.158-.1s-.08.074-.08.179l.04,19.383a.546.546,0,0,1-.592.592H479.7A.589.589,0,0,1,479.265,73Z" transform="translate(-397.824 -45.208)" fill="#7b2aff"/>
        <path id="Path_4551" data-name="Path 4551" d="M507.158,64.65c.132-.237.277-.356.434-.356a.569.569,0,0,1,.356.119l1.618.986a.589.589,0,0,1,.315.513l-.077.315a7.727,7.727,0,0,1-3.021,3.041,9.117,9.117,0,0,1-4.56,1.105,8.588,8.588,0,0,1-4.738-1.244,7.687,7.687,0,0,1-2.922-3.573,14.841,14.841,0,0,1-.986-5.645,16.77,16.77,0,0,1,.434-4.382,7.539,7.539,0,0,1,2.843-4.3,8.43,8.43,0,0,1,5.17-1.58A7.788,7.788,0,0,1,507.75,51.6a9.938,9.938,0,0,1,2.568,5.665q.194,1.461.275,3.552a.524.524,0,0,1-.592.594H497.526a.172.172,0,0,0-.2.2,9.739,9.739,0,0,0,.275,2.132,4.329,4.329,0,0,0,1.737,2.487,5.522,5.522,0,0,0,3.237.909A4.919,4.919,0,0,0,507.158,64.65Zm-7.954-10.9a4.134,4.134,0,0,0-1.48,2.291,9.134,9.134,0,0,0-.356,2.209.174.174,0,0,0,.2.2h8.961a.175.175,0,0,0,.2-.2,11.575,11.575,0,0,0-.237-1.934,4.359,4.359,0,0,0-4.461-3.395A4.527,4.527,0,0,0,499.2,53.754Z" transform="translate(-386.949 -42.107)" fill="#7b2aff"/>
        <path id="Path_4552" data-name="Path 4552" d="M513.593,72.685,505.225,46.2a.556.556,0,0,1-.039-.238c0-.289.182-.434.552-.434h2.8a.748.748,0,0,1,.433.138.554.554,0,0,1,.236.375l6.476,21.516c.025.105.065.158.118.158s.093-.053.119-.158l6.435-21.516a.549.549,0,0,1,.237-.375.749.749,0,0,1,.434-.138h2.724c.474,0,.645.226.513.673l-8.448,26.489a.646.646,0,0,1-.671.473h-2.881A.645.645,0,0,1,513.593,72.685Z" transform="translate(-378.224 -45.208)" fill="#00c278"/>
        <path id="Path_4553" data-name="Path 4553" d="M530.506,50.5a6.459,6.459,0,0,1,2.762,2.37,6.284,6.284,0,0,1,.969,3.454V69.465a.546.546,0,0,1-.594.592h-2.6a.548.548,0,0,1-.594-.592V68.36a.158.158,0,0,0-.077-.158.127.127,0,0,0-.157.039,7.61,7.61,0,0,1-2.628,1.58,9.537,9.537,0,0,1-3.295.554,7.364,7.364,0,0,1-4.738-1.48,5.389,5.389,0,0,1-1.855-4.481,5.9,5.9,0,0,1,2.151-4.838,9.281,9.281,0,0,1,6.022-1.755h4.381a.174.174,0,0,0,.2-.2V56.6a3.574,3.574,0,0,0-1.005-2.7,4.265,4.265,0,0,0-3.058-.967,5.141,5.141,0,0,0-2.626.59,2.8,2.8,0,0,0-1.324,1.661.592.592,0,0,1-.669.471l-2.843-.354a.8.8,0,0,1-.436-.179.33.33,0,0,1-.117-.335,5.333,5.333,0,0,1,2.547-3.691,9.6,9.6,0,0,1,5.388-1.442A9.783,9.783,0,0,1,530.506,50.5Zm-1.618,15.575a3.319,3.319,0,0,0,1.557-2.8V60.977a.174.174,0,0,0-.2-.2h-3.671a6.663,6.663,0,0,0-3.709.907,2.862,2.862,0,0,0-1.382,2.528,2.547,2.547,0,0,0,1.046,2.21,4.54,4.54,0,0,0,2.7.75A6.165,6.165,0,0,0,528.887,66.071Z" transform="translate(-368.822 -42.107)" fill="#00c278"/>
        <path id="Path_4554" data-name="Path 4554" d="M534.214,72.662a7.719,7.719,0,0,1-3.414-2.685,6.95,6.95,0,0,1-1.205-4.065v-.948a.548.548,0,0,1,.592-.594h2.526a.6.6,0,0,1,.437.159.588.588,0,0,1,.157.434v.75a3.981,3.981,0,0,0,1.736,3.316,7.513,7.513,0,0,0,4.619,1.3,6.319,6.319,0,0,0,4.108-1.146,3.711,3.711,0,0,0,1.38-3,3.19,3.19,0,0,0-.711-2.091,6.747,6.747,0,0,0-2.07-1.6,39.928,39.928,0,0,0-3.969-1.757,40.1,40.1,0,0,1-4.559-2.013,8.427,8.427,0,0,1-2.783-2.389,6.057,6.057,0,0,1-1.105-3.731,6.443,6.443,0,0,1,2.428-5.33,10.271,10.271,0,0,1,6.572-1.934,12.473,12.473,0,0,1,5.132.988,7.881,7.881,0,0,1,3.416,2.762,7.134,7.134,0,0,1,1.2,4.106v.594a.545.545,0,0,1-.59.59h-2.566a.629.629,0,0,1-.434-.138.468.468,0,0,1-.159-.375V53.4a4.267,4.267,0,0,0-1.638-3.416,6.864,6.864,0,0,0-4.519-1.361A6.238,6.238,0,0,0,535,49.626a3.411,3.411,0,0,0-1.34,2.9,3.273,3.273,0,0,0,.671,2.132,5.783,5.783,0,0,0,1.993,1.48q1.322.652,4.046,1.678a44.885,44.885,0,0,1,4.54,2.034,8.685,8.685,0,0,1,2.881,2.449,6.078,6.078,0,0,1,1.146,3.769,6.891,6.891,0,0,1-1.146,3.948,7.491,7.491,0,0,1-3.316,2.645,12.669,12.669,0,0,1-5.092.948A13.075,13.075,0,0,1,534.214,72.662Z" transform="translate(-359.879 -45.343)" fill="#3369fd"/>
        <path id="Path_4555" data-name="Path 4555" d="M555.319,50.5a6.468,6.468,0,0,1,2.764,2.37,6.3,6.3,0,0,1,.967,3.454V69.465a.545.545,0,0,1-.59.592h-2.606a.546.546,0,0,1-.593-.592V68.36a.16.16,0,0,0-.08-.158.128.128,0,0,0-.157.039,7.6,7.6,0,0,1-2.624,1.58,9.553,9.553,0,0,1-3.3.554,7.374,7.374,0,0,1-4.74-1.48,5.394,5.394,0,0,1-1.853-4.481,5.9,5.9,0,0,1,2.151-4.838,9.279,9.279,0,0,1,6.02-1.755h4.383a.175.175,0,0,0,.2-.2V56.6a3.574,3.574,0,0,0-1.007-2.7,4.272,4.272,0,0,0-3.06-.967,5.147,5.147,0,0,0-2.625.59,2.792,2.792,0,0,0-1.321,1.661.6.6,0,0,1-.673.471l-2.843-.354a.8.8,0,0,1-.434-.179.327.327,0,0,1-.117-.335,5.337,5.337,0,0,1,2.545-3.691,9.607,9.607,0,0,1,5.39-1.442A9.765,9.765,0,0,1,555.319,50.5ZM553.7,66.071a3.322,3.322,0,0,0,1.561-2.8V60.977a.175.175,0,0,0-.2-.2h-3.672a6.671,6.671,0,0,0-3.711.907,2.866,2.866,0,0,0-1.382,2.528,2.547,2.547,0,0,0,1.046,2.21,4.538,4.538,0,0,0,2.7.75A6.159,6.159,0,0,0,553.7,66.071Z" transform="translate(-350.172 -42.107)" fill="#3369fd"/>
        <path id="Path_4556" data-name="Path 4556" d="M433.556,104.638V72.878a.672.672,0,0,1,.76-.76h4a.672.672,0,0,1,.76.76v31.76a.672.672,0,0,1-.76.76h-4A.672.672,0,0,1,433.556,104.638Z" transform="translate(-432.06 -25.219)" fill="#2eccfc"/>
        <path id="Path_4557" data-name="Path 4557" d="M440.668,104.638V72.878a.672.672,0,0,1,.76-.76h3.8a.993.993,0,0,1,.951.524l13.312,21.774c.063.128.135.173.216.142s.117-.11.117-.236V72.878a.673.673,0,0,1,.762-.76h3.992a.673.673,0,0,1,.762.76v31.76a.673.673,0,0,1-.762.76h-3.9a.993.993,0,0,1-.951-.524L446.42,82.958c-.063-.126-.135-.175-.214-.144s-.119.112-.119.237l.047,21.586a.672.672,0,0,1-.76.76h-3.946A.672.672,0,0,1,440.668,104.638Z" transform="translate(-426.715 -25.219)" fill="#2eccfc"/>
        <path id="Path_4558" data-name="Path 4558" d="M480.173,76.872H464.247a.253.253,0,0,0-.286.286v8.8a.253.253,0,0,0,.286.286H474.9a.672.672,0,0,1,.76.76v3.232a.673.673,0,0,1-.76.762h-10.65a.251.251,0,0,0-.286.284v13.361a.673.673,0,0,1-.76.76h-4a.672.672,0,0,1-.76-.76V72.878a.672.672,0,0,1,.76-.76h20.966a.673.673,0,0,1,.762.76v3.233A.673.673,0,0,1,480.173,76.872Z" transform="translate(-413.353 -25.219)" fill="#2eccfc"/>
        <path id="Path_4559" data-name="Path 4559" d="M478.964,104.586a10.235,10.235,0,0,1-4.256-4.111,12.313,12.313,0,0,1-1.5-6.134V83.5a11.918,11.918,0,0,1,1.52-6.062,10.473,10.473,0,0,1,4.256-4.088,14.49,14.49,0,0,1,12.645,0,10.483,10.483,0,0,1,4.256,4.088,11.936,11.936,0,0,1,1.522,6.062V94.341a12.166,12.166,0,0,1-1.522,6.134,10.426,10.426,0,0,1-4.256,4.111,14.559,14.559,0,0,1-12.669,0Zm11.124-5.157a6.717,6.717,0,0,0,1.808-4.9V83.455a6.781,6.781,0,0,0-1.808-4.945,7.08,7.08,0,0,0-9.555,0,6.781,6.781,0,0,0-1.807,4.945V94.532a6.717,6.717,0,0,0,1.807,4.9,7.085,7.085,0,0,0,9.555,0Z" transform="translate(-402.255 -25.383)" fill="#2eccfc"/>
        <path id="Path_4560" data-name="Path 4560" d="M513.384,72.878v3.281a.672.672,0,0,1-.76.76h-8.511a.252.252,0,0,0-.285.286v27.433a.672.672,0,0,1-.76.76h-3.994a.672.672,0,0,1-.76-.76V77.2a.253.253,0,0,0-.286-.286H489.85a.672.672,0,0,1-.76-.76V72.878a.672.672,0,0,1,.76-.76h22.774A.672.672,0,0,1,513.384,72.878Z" transform="translate(-390.322 -25.219)" fill="#2eccfc"/>
        <path id="Path_4561" data-name="Path 4561" d="M527.64,76.872H511.665a.253.253,0,0,0-.285.286v8.8a.253.253,0,0,0,.285.286h10.65a.671.671,0,0,1,.76.76v3.232a.673.673,0,0,1-.76.762h-10.65a.251.251,0,0,0-.285.284v9.082a.253.253,0,0,0,.285.285H527.64a.672.672,0,0,1,.76.76v3.233a.672.672,0,0,1-.76.76H506.624a.672.672,0,0,1-.76-.76V72.878a.672.672,0,0,1,.76-.76H527.64a.672.672,0,0,1,.76.76v3.233A.672.672,0,0,1,527.64,76.872Z" transform="translate(-377.715 -25.219)" fill="#2eccfc"/>
        <path id="Path_4562" data-name="Path 4562" d="M527.128,104.541a10.122,10.122,0,0,1-4.183-3.924,11.368,11.368,0,0,1-1.473-5.847V83.028a11.38,11.38,0,0,1,1.473-5.85,9.974,9.974,0,0,1,4.183-3.9A13.652,13.652,0,0,1,533.4,71.9a13.973,13.973,0,0,1,6.229,1.333,9.837,9.837,0,0,1,4.183,3.755,10.589,10.589,0,0,1,1.475,5.61q0,.476-.715.571l-4.041.236h-.189c-.38,0-.571-.077-.571-.236v-.286a6.055,6.055,0,0,0-1.736-4.517,6.311,6.311,0,0,0-4.634-1.711,6.4,6.4,0,0,0-4.659,1.711,6.019,6.019,0,0,0-1.759,4.517V95.007a5.955,5.955,0,0,0,1.759,4.468,7.2,7.2,0,0,0,9.293.025,5.975,5.975,0,0,0,1.736-4.493.5.5,0,0,1,.214-.4.69.69,0,0,1,.547-.119l4,.189c.506.065.76.142.76.238v.236a10.809,10.809,0,0,1-1.475,5.684,9.786,9.786,0,0,1-4.183,3.778,13.95,13.95,0,0,1-6.229,1.331A13.482,13.482,0,0,1,527.128,104.541Z" transform="translate(-365.984 -25.383)" fill="#2eccfc"/>
        <path id="Path_4563" data-name="Path 4563" d="M557.31,72.118H561.3a.674.674,0,0,1,.762.76v31.76a.674.674,0,0,1-.762.76H557.31a.673.673,0,0,1-.762-.76V91.277a.25.25,0,0,0-.283-.284H544.236a.251.251,0,0,0-.285.284v13.361a.672.672,0,0,1-.76.76h-4a.672.672,0,0,1-.76-.76V72.878a.672.672,0,0,1,.76-.76h4a.672.672,0,0,1,.76.76V85.954a.253.253,0,0,0,.285.286h12.029a.251.251,0,0,0,.283-.286V72.878A.673.673,0,0,1,557.31,72.118Z" transform="translate(-353.235 -25.219)" fill="#2eccfc"/>
      </g>
      <g id="Group_427" data-name="Group 427" transform="translate(467.674 132.956)">
        <path id="Path_4564" data-name="Path 4564" d="M443.714,95.436a.25.25,0,0,1,.074.182v.5a.254.254,0,0,1-.258.257h-4.258a.076.076,0,0,0-.086.086v13.7a.26.26,0,0,1-.075.184.251.251,0,0,1-.182.074H438.3a.251.251,0,0,1-.182-.074.26.26,0,0,1-.075-.184v-13.7a.076.076,0,0,0-.086-.086h-4.043a.243.243,0,0,1-.182-.075.249.249,0,0,1-.075-.182v-.5a.246.246,0,0,1,.075-.182.25.25,0,0,1,.182-.075h9.613A.26.26,0,0,1,443.714,95.436Z" transform="translate(-433.66 -95.361)" fill="#001454"/>
        <path id="Path_4565" data-name="Path 4565" d="M449.56,107.38a2.835,2.835,0,0,0,1.119-1.28.254.254,0,0,1,.343-.128l.387.149c.174.072.223.187.153.343a3.831,3.831,0,0,1-1.485,1.745,4.39,4.39,0,0,1-2.408.645,4.19,4.19,0,0,1-2.5-.732,3.828,3.828,0,0,1-1.431-2,10.46,10.46,0,0,1-.3-2.881q0-1.054.031-1.592a5.679,5.679,0,0,1,.138-.988,3.851,3.851,0,0,1,1.408-2.172,4.169,4.169,0,0,1,2.613-.818,4.114,4.114,0,0,1,2.775.9,4.058,4.058,0,0,1,1.333,2.473,6.871,6.871,0,0,1,.119.893c.021.306.033.776.033,1.408,0,.186-.087.279-.259.279h-6.991a.075.075,0,0,0-.084.086,10.392,10.392,0,0,0,.107,1.85,2.842,2.842,0,0,0,1.055,1.666,3.219,3.219,0,0,0,2.042.636A3.535,3.535,0,0,0,449.56,107.38Zm-5.009-4.764c0,.058.028.088.084.088h6a.078.078,0,0,0,.087-.088,9.054,9.054,0,0,0-.108-1.634,2.892,2.892,0,0,0-1.032-1.666,3.345,3.345,0,0,0-3.892-.023,2.735,2.735,0,0,0-.991,1.624A9.557,9.557,0,0,0,444.55,102.615Z" transform="translate(-426.315 -93.626)" fill="#001454"/>
        <path id="Path_4566" data-name="Path 4566" d="M466.77,98.629a3.516,3.516,0,0,1,.946,2.6v7.181a.255.255,0,0,1-.258.258h-.6a.255.255,0,0,1-.184-.074.26.26,0,0,1-.075-.184v-6.968a2.719,2.719,0,0,0-.741-2.011,2.607,2.607,0,0,0-1.925-.743,2.786,2.786,0,0,0-2.011.732,2.616,2.616,0,0,0-.764,1.978v7.012a.254.254,0,0,1-.257.258h-.6a.248.248,0,0,1-.182-.074.253.253,0,0,1-.075-.184v-6.968a2.734,2.734,0,0,0-.732-2.011,2.569,2.569,0,0,0-1.914-.743,2.737,2.737,0,0,0-2.009.732,2.649,2.649,0,0,0-.743,1.978v7.012a.26.26,0,0,1-.075.184.248.248,0,0,1-.182.074h-.624a.247.247,0,0,1-.182-.074.254.254,0,0,1-.077-.184V98.091a.245.245,0,0,1,.077-.182.236.236,0,0,1,.182-.075h.624a.237.237,0,0,1,.182.075.25.25,0,0,1,.075.182v.925a.065.065,0,0,0,.044.063.042.042,0,0,0,.065-.021,2.8,2.8,0,0,1,1.214-1.032,4.17,4.17,0,0,1,1.732-.345,3.669,3.669,0,0,1,1.923.485,3.043,3.043,0,0,1,1.216,1.364c.028.06.065.065.108.023a3.094,3.094,0,0,1,1.31-1.4,4.088,4.088,0,0,1,2-.475A3.406,3.406,0,0,1,466.77,98.629Z" transform="translate(-418.749 -93.617)" fill="#001454"/>
        <path id="Path_4567" data-name="Path 4567" d="M475.328,103.239c0,.645-.014,1.177-.044,1.592a6.063,6.063,0,0,1-.17,1.118,3.772,3.772,0,0,1-1.366,2.118,3.988,3.988,0,0,1-2.506.786,3.684,3.684,0,0,1-1.687-.377,3.148,3.148,0,0,1-1.216-1.086.042.042,0,0,0-.065-.021.069.069,0,0,0-.044.065v5.2a.252.252,0,0,1-.073.182.257.257,0,0,1-.184.075h-.624a.253.253,0,0,1-.182-.075.246.246,0,0,1-.075-.182V98.1a.243.243,0,0,1,.075-.182.24.24,0,0,1,.182-.075h.624a.243.243,0,0,1,.184.075.249.249,0,0,1,.073.182v1.009c0,.044.01.07.033.077s.047-.005.075-.033a3.233,3.233,0,0,1,1.216-1.1,3.6,3.6,0,0,1,1.687-.387,3.961,3.961,0,0,1,2.475.774,3.852,3.852,0,0,1,1.375,2.086A11.506,11.506,0,0,1,475.328,103.239Zm-1.214,1.678a13.176,13.176,0,0,0,.073-1.657,14.1,14.1,0,0,0-.063-1.58,5.546,5.546,0,0,0-.215-.979,2.593,2.593,0,0,0-.99-1.463,2.954,2.954,0,0,0-1.806-.559,2.571,2.571,0,0,0-1.688.559,2.744,2.744,0,0,0-.913,1.463,3.813,3.813,0,0,0-.207.914c-.035.336-.054.878-.054,1.624a15.525,15.525,0,0,0,.065,1.668,4.569,4.569,0,0,0,.217.956,2.53,2.53,0,0,0,.9,1.429,2.607,2.607,0,0,0,1.678.55,2.818,2.818,0,0,0,1.741-.55,2.678,2.678,0,0,0,.99-1.408A3.9,3.9,0,0,0,474.114,104.917Z" transform="translate(-408.533 -93.626)" fill="#001454"/>
        <path id="Path_4568" data-name="Path 4568" d="M477.124,110.341a.26.26,0,0,1-.075-.184V95.618a.253.253,0,0,1,.075-.182.257.257,0,0,1,.184-.075h.623a.255.255,0,0,1,.182.075.246.246,0,0,1,.076.182v14.538a.255.255,0,0,1-.258.257h-.623A.256.256,0,0,1,477.124,110.341Z" transform="translate(-401.05 -95.361)" fill="#001454"/>
        <path id="Path_4569" data-name="Path 4569" d="M489.122,107.38a2.83,2.83,0,0,0,1.118-1.28.254.254,0,0,1,.345-.128l.387.149c.17.072.221.187.149.343a3.817,3.817,0,0,1-1.484,1.745,4.386,4.386,0,0,1-2.409.645,4.189,4.189,0,0,1-2.5-.732,3.819,3.819,0,0,1-1.431-2,10.524,10.524,0,0,1-.3-2.881q0-1.054.033-1.592a5.685,5.685,0,0,1,.14-.988,3.853,3.853,0,0,1,1.408-2.172,4.163,4.163,0,0,1,2.613-.818,3.856,3.856,0,0,1,4.107,3.377,7.114,7.114,0,0,1,.117.893q.031.46.031,1.408c0,.186-.084.279-.258.279H484.2a.075.075,0,0,0-.086.086,10.376,10.376,0,0,0,.107,1.85,2.835,2.835,0,0,0,1.054,1.666,3.226,3.226,0,0,0,2.042.636A3.548,3.548,0,0,0,489.122,107.38Zm-5.011-4.764a.077.077,0,0,0,.086.088h6a.077.077,0,0,0,.086-.088,9.067,9.067,0,0,0-.108-1.634,2.884,2.884,0,0,0-1.032-1.666,3.347,3.347,0,0,0-3.894-.023,2.728,2.728,0,0,0-.988,1.624A9.469,9.469,0,0,0,484.11,102.615Z" transform="translate(-396.584 -93.626)" fill="#001454"/>
        <path id="Path_4570" data-name="Path 4570" d="M500.366,108.056a3.95,3.95,0,0,1-1.45-2.128,10.184,10.184,0,0,1-.258-2.689,11.733,11.733,0,0,1,.235-2.668,3.893,3.893,0,0,1,1.463-2.118,4.662,4.662,0,0,1,5.193.011A3.791,3.791,0,0,1,507,100.571a15.154,15.154,0,0,1,0,5.356,3.782,3.782,0,0,1-1.452,2.128,4.254,4.254,0,0,1-2.59.8A4.21,4.21,0,0,1,500.366,108.056Zm4.538-.839a2.828,2.828,0,0,0,1.044-1.676,13.045,13.045,0,0,0,.13-2.281,12.583,12.583,0,0,0-.13-2.279A2.828,2.828,0,0,0,504.9,99.3a3.109,3.109,0,0,0-1.967-.625,3.068,3.068,0,0,0-1.956.625,2.836,2.836,0,0,0-1.032,1.676,20.128,20.128,0,0,0,0,4.559,2.836,2.836,0,0,0,1.032,1.676,3.39,3.39,0,0,0,3.923,0Z" transform="translate(-384.809 -93.626)" fill="#001454"/>
        <path id="Path_4571" data-name="Path 4571" d="M511.483,96.974a3.245,3.245,0,0,0-.462,1.957v.559a.077.077,0,0,0,.086.088h2.474a.237.237,0,0,1,.182.075.244.244,0,0,1,.077.182v.538a.26.26,0,0,1-.259.257h-2.474a.075.075,0,0,0-.086.086v9.441a.254.254,0,0,1-.258.257h-.623a.254.254,0,0,1-.259-.257v-9.441a.076.076,0,0,0-.086-.086h-1.377a.257.257,0,0,1-.257-.257v-.538a.242.242,0,0,1,.075-.182.236.236,0,0,1,.182-.075h1.377a.077.077,0,0,0,.086-.088v-.6a5.741,5.741,0,0,1,.291-2.023,2.088,2.088,0,0,1,.99-1.128,4.2,4.2,0,0,1,1.967-.377h.517a.256.256,0,0,1,.182.075.246.246,0,0,1,.075.182v.5a.257.257,0,0,1-.257.257h-.431A2.077,2.077,0,0,0,511.483,96.974Z" transform="translate(-377.666 -95.361)" fill="#001454"/>
        <path id="Path_4572" data-name="Path 4572" d="M529.037,98.648a3.535,3.535,0,0,1,.99,2.634v7.139a.257.257,0,0,1-.258.257h-.625a.248.248,0,0,1-.182-.074.253.253,0,0,1-.075-.184V107.5a.066.066,0,0,0-.033-.065q-.031-.024-.073.021a3.481,3.481,0,0,1-1.486,1.042,5.467,5.467,0,0,1-1.977.356,4.126,4.126,0,0,1-2.515-.743,2.673,2.673,0,0,1-1.013-2.312,3.027,3.027,0,0,1,1.183-2.515,5.149,5.149,0,0,1,3.247-.925H528.8a.076.076,0,0,0,.086-.086V101.3a2.668,2.668,0,0,0-.667-1.923,2.754,2.754,0,0,0-2.084-.7,3.37,3.37,0,0,0-1.808.441,1.855,1.855,0,0,0-.881,1.193c-.044.173-.144.245-.3.215l-.667-.086c-.187-.03-.265-.107-.236-.236a2.769,2.769,0,0,1,1.27-1.839,4.687,4.687,0,0,1,2.645-.7A3.926,3.926,0,0,1,529.037,98.648Zm-1.15,8.548a2.1,2.1,0,0,0,1-1.85V103.39a.075.075,0,0,0-.086-.086h-2.452a4.293,4.293,0,0,0-2.484.645,2.054,2.054,0,0,0-.936,1.785,1.852,1.852,0,0,0,.731,1.592,3.077,3.077,0,0,0,1.87.538A4.143,4.143,0,0,0,527.887,107.2Z" transform="translate(-367.423 -93.626)" fill="#001454"/>
        <path id="Path_4573" data-name="Path 4573" d="M537.107,97.954a.241.241,0,0,1,.128.322l-.17.625c-.044.17-.152.222-.323.149a3.03,3.03,0,0,0-1.033-.128,2.6,2.6,0,0,0-1.988.913,3.193,3.193,0,0,0-.786,2.184v6.365a.259.259,0,0,1-.075.184.249.249,0,0,1-.182.074h-.623a.249.249,0,0,1-.182-.074.256.256,0,0,1-.077-.184V98.063a.246.246,0,0,1,.077-.182.238.238,0,0,1,.182-.075h.623a.237.237,0,0,1,.182.075.249.249,0,0,1,.075.182v1.419c0,.044.011.068.033.075s.038-.01.055-.054a3.507,3.507,0,0,1,1.172-1.31,3,3,0,0,1,1.687-.475A3.115,3.115,0,0,1,537.107,97.954Z" transform="translate(-359.903 -93.59)" fill="#001454"/>
        <path id="Path_4574" data-name="Path 4574" d="M544.625,99.841a.242.242,0,0,1-.18.075h-2.473a.075.075,0,0,0-.086.086v6.775a1.984,1.984,0,0,0,.492,1.536,2.363,2.363,0,0,0,1.592.441h.452a.253.253,0,0,1,.182.075.247.247,0,0,1,.075.184v.494a.228.228,0,0,1-.258.258l-.6.021a3.726,3.726,0,0,1-2.26-.58,2.558,2.558,0,0,1-.795-2.128V100a.075.075,0,0,0-.086-.086h-1.249a.247.247,0,0,1-.182-.075.254.254,0,0,1-.075-.182v-.452a.251.251,0,0,1,.075-.182.24.24,0,0,1,.182-.075h1.249a.077.077,0,0,0,.086-.088V96.453a.242.242,0,0,1,.075-.182.246.246,0,0,1,.182-.075h.6a.261.261,0,0,1,.26.258v2.408a.077.077,0,0,0,.086.088h2.473a.235.235,0,0,1,.18.075.238.238,0,0,1,.077.182v.452A.241.241,0,0,1,544.625,99.841Z" transform="translate(-354.357 -94.733)" fill="#001454"/>
        <path id="Path_4575" data-name="Path 4575" d="M549.073,108.375a3.314,3.314,0,0,1-1.387-1.021,2.284,2.284,0,0,1-.494-1.419V105.7a.246.246,0,0,1,.075-.182.25.25,0,0,1,.182-.075h.6a.267.267,0,0,1,.182.065.192.192,0,0,1,.076.151v.236a1.668,1.668,0,0,0,.784,1.354,3.3,3.3,0,0,0,2.011.582,3.164,3.164,0,0,0,1.969-.582,1.752,1.752,0,0,0,.764-1.44,1.341,1.341,0,0,0-.388-.99,2.623,2.623,0,0,0-.924-.592q-.538-.2-1.592-.525a18.465,18.465,0,0,1-1.935-.688,3.4,3.4,0,0,1-1.235-.914,2.212,2.212,0,0,1-.507-1.5A2.491,2.491,0,0,1,548.3,98.5a4.444,4.444,0,0,1,2.743-.786,5.033,5.033,0,0,1,2.009.377,3.263,3.263,0,0,1,1.355,1.021,2.366,2.366,0,0,1,.484,1.463v.021a.249.249,0,0,1-.075.184.245.245,0,0,1-.182.075h-.58a.366.366,0,0,1-.184-.042.125.125,0,0,1-.076-.109v-.13a1.627,1.627,0,0,0-.763-1.364,3.952,3.952,0,0,0-3.946-.044,1.579,1.579,0,0,0-.731,1.365,1.336,1.336,0,0,0,.676,1.226,9.734,9.734,0,0,0,2.12.841,18.819,18.819,0,0,1,2.01.676,3.514,3.514,0,0,1,1.278.914,2.234,2.234,0,0,1,.538,1.548,2.638,2.638,0,0,1-1.053,2.182,4.395,4.395,0,0,1-2.8.828A5.261,5.261,0,0,1,549.073,108.375Z" transform="translate(-348.331 -93.59)" fill="#001454"/>
      </g>
      <g id="Group_430" data-name="Group 430" transform="translate(465.892 132.953)">
        <g id="Group_429" data-name="Group 429">
          <g id="Group_428" data-name="Group 428" clip-path="url(#clip-path)">
            <path id="Path_4576" data-name="Path 4576" d="M432.643,95.359v0Z" transform="translate(-432.642 -95.36)" fill="#00114e"/>
            <rect id="Rectangle_402" data-name="Rectangle 402" width="4.646" height="1.006" fill="#00114e"/>
            <rect id="Rectangle_403" data-name="Rectangle 403" width="4.646" height="1.006" transform="translate(4.646)" fill="#00124f"/>
            <rect id="Rectangle_404" data-name="Rectangle 404" width="4.646" height="1.006" transform="translate(9.291)" fill="#011250"/>
            <rect id="Rectangle_405" data-name="Rectangle 405" width="4.646" height="1.006" transform="translate(13.937)" fill="#011351"/>
            <rect id="Rectangle_406" data-name="Rectangle 406" width="4.646" height="1.006" transform="translate(18.583)" fill="#011352"/>
            <rect id="Rectangle_407" data-name="Rectangle 407" width="4.646" height="1.006" transform="translate(23.228)" fill="#021453"/>
            <rect id="Rectangle_408" data-name="Rectangle 408" width="4.646" height="1.006" transform="translate(27.874)" fill="#021454"/>
            <rect id="Rectangle_409" data-name="Rectangle 409" width="4.646" height="1.006" transform="translate(32.52)" fill="#021555"/>
            <rect id="Rectangle_410" data-name="Rectangle 410" width="4.646" height="1.006" transform="translate(37.165)" fill="#031556"/>
            <rect id="Rectangle_411" data-name="Rectangle 411" width="4.646" height="1.006" transform="translate(41.811)" fill="#031657"/>
            <rect id="Rectangle_412" data-name="Rectangle 412" width="4.646" height="1.006" transform="translate(46.457)" fill="#031658"/>
            <rect id="Rectangle_413" data-name="Rectangle 413" width="4.646" height="1.006" transform="translate(51.102)" fill="#031759"/>
            <rect id="Rectangle_414" data-name="Rectangle 414" width="4.646" height="1.006" transform="translate(55.748)" fill="#04175a"/>
            <rect id="Rectangle_415" data-name="Rectangle 415" width="4.646" height="1.006" transform="translate(60.394)" fill="#04185b"/>
            <rect id="Rectangle_416" data-name="Rectangle 416" width="4.646" height="1.006" transform="translate(65.039)" fill="#04185c"/>
            <rect id="Rectangle_417" data-name="Rectangle 417" width="4.646" height="1.006" transform="translate(69.685)" fill="#05195d"/>
            <rect id="Rectangle_418" data-name="Rectangle 418" width="4.646" height="1.006" transform="translate(74.331)" fill="#05195e"/>
            <rect id="Rectangle_419" data-name="Rectangle 419" width="4.646" height="1.006" transform="translate(78.976)" fill="#051a5f"/>
            <rect id="Rectangle_420" data-name="Rectangle 420" width="4.646" height="1.006" transform="translate(83.622)" fill="#061a60"/>
            <rect id="Rectangle_421" data-name="Rectangle 421" width="4.646" height="1.006" transform="translate(88.268)" fill="#061b61"/>
            <rect id="Rectangle_422" data-name="Rectangle 422" width="4.646" height="1.006" transform="translate(92.913)" fill="#061b62"/>
            <rect id="Rectangle_423" data-name="Rectangle 423" width="4.646" height="1.006" transform="translate(97.559)" fill="#071c63"/>
            <rect id="Rectangle_424" data-name="Rectangle 424" width="4.646" height="1.006" transform="translate(102.205)" fill="#071c64"/>
            <rect id="Rectangle_425" data-name="Rectangle 425" width="4.646" height="1.006" transform="translate(106.85)" fill="#071d65"/>
            <rect id="Rectangle_426" data-name="Rectangle 426" width="4.646" height="1.006" transform="translate(111.496)" fill="#081d66"/>
            <rect id="Rectangle_427" data-name="Rectangle 427" width="4.646" height="1.006" transform="translate(116.142)" fill="#081e67"/>
            <rect id="Rectangle_428" data-name="Rectangle 428" width="4.646" height="1.006" transform="translate(120.787)" fill="#081f68"/>
            <rect id="Rectangle_429" data-name="Rectangle 429" width="4.646" height="1.006" transform="translate(125.433)" fill="#091f6a"/>
            <rect id="Rectangle_430" data-name="Rectangle 430" width="4.646" height="1.006" transform="translate(130.079)" fill="#09206b"/>
            <rect id="Rectangle_431" data-name="Rectangle 431" width="4.646" height="1.006" transform="translate(134.724)" fill="#09206c"/>
            <rect id="Rectangle_432" data-name="Rectangle 432" width="4.646" height="1.006" transform="translate(139.37)" fill="#0a216d"/>
            <rect id="Rectangle_433" data-name="Rectangle 433" width="4.646" height="1.006" transform="translate(144.016)" fill="#0a216e"/>
            <rect id="Rectangle_434" data-name="Rectangle 434" width="4.646" height="1.006" transform="translate(148.661)" fill="#0a226f"/>
            <rect id="Rectangle_435" data-name="Rectangle 435" width="4.646" height="1.006" transform="translate(153.307)" fill="#0a2270"/>
            <rect id="Rectangle_436" data-name="Rectangle 436" width="4.646" height="1.006" transform="translate(157.953)" fill="#0b2371"/>
            <rect id="Rectangle_437" data-name="Rectangle 437" width="4.646" height="1.006" transform="translate(162.598)" fill="#0b2372"/>
            <rect id="Rectangle_438" data-name="Rectangle 438" width="4.646" height="1.006" transform="translate(167.244)" fill="#0b2473"/>
            <rect id="Rectangle_439" data-name="Rectangle 439" width="4.646" height="1.006" transform="translate(171.89)" fill="#0c2474"/>
            <rect id="Rectangle_440" data-name="Rectangle 440" width="4.646" height="1.006" transform="translate(176.535)" fill="#0c2575"/>
            <rect id="Rectangle_441" data-name="Rectangle 441" width="4.646" height="1.006" transform="translate(181.181)" fill="#0c2576"/>
            <rect id="Rectangle_442" data-name="Rectangle 442" width="4.646" height="1.006" transform="translate(185.827)" fill="#0d2677"/>
            <rect id="Rectangle_443" data-name="Rectangle 443" width="4.646" height="1.006" transform="translate(190.472)" fill="#0d2678"/>
            <rect id="Rectangle_444" data-name="Rectangle 444" width="4.646" height="1.006" transform="translate(195.118)" fill="#0d2779"/>
            <rect id="Rectangle_445" data-name="Rectangle 445" width="4.646" height="1.006" transform="translate(199.764)" fill="#0e277a"/>
            <rect id="Rectangle_446" data-name="Rectangle 446" width="4.646" height="1.006" transform="translate(204.409)" fill="#0e287b"/>
            <path id="Path_4577" data-name="Path 4577" d="M551.995,96.364v0Z" transform="translate(-342.939 -95.36)" fill="#0e287b"/>
          </g>
        </g>
      </g>
      <g id="Group_431" data-name="Group 431" transform="translate(388.403 45.34)">
        <path id="Path_4578" data-name="Path 4578" d="M396.187,76.671s5.782,2.937,33.294-3.573c6.111-1.447,10.224-2.321,14.072-1.741,0,0,3.409,3.563-4.2,6.833s-18.241,11.105-18.241,11.105-15.359,3.938-16.8,3.825-7.739.662-11.229-4.953S396.187,76.671,396.187,76.671Z" transform="translate(-385.648 -25.922)" fill="url(#linear-gradient)"/>
        <path id="Path_4579" data-name="Path 4579" d="M413.34,81.737c-16.316,4.109-15.829.263-15.829.263s-1.858-2.937-3.633-6.1c-1.482,2.235-2.789,5.535-.788,8.751,3.491,5.616,9.791,4.843,11.229,4.953s16.8-3.825,16.8-3.825a135.736,135.736,0,0,1,15.74-9.926C430.959,77.091,422.623,79.4,413.34,81.737Z" transform="translate(-385.648 -22.407)" fill="url(#linear-gradient-2)"/>
        <path id="Path_4580" data-name="Path 4580" d="M444.223,45.34s13.225,14.929-13.005,34.4c-28.13,20.877-35.417,33.033-23.855,32.791,0,0-16.211,3.987-18.728-11.532-1.484-9.145,4.523-14.634,12.025-20.839C400.66,80.156,426.65,61.6,444.223,45.34Z" transform="translate(-388.399 -45.34)" fill="url(#linear-gradient-3)"/>
        <path id="Path_4581" data-name="Path 4581" d="M415.562,90.589s-8.893,15.2,7.483,27.283a.178.178,0,0,1-.158.315,64.043,64.043,0,0,1-10.126-4.554C403.584,106.367,410.417,96.2,415.562,90.589Z" transform="translate(-373.487 -11.332)" fill="url(#linear-gradient-4)"/>
        <path id="Path_4582" data-name="Path 4582" d="M444.909,79.258c-.557-7.132-10.262-8.031-10.262-8.031,5.836,3.2-12.16,7.033-25.314,21.758-9.331,10.448-5.589,21.154-5.589,21.154,2.846,9.341,12.962,14.046,12.962,14.046C400.585,104.966,445.877,92.4,444.909,79.258Z" transform="translate(-377.431 -25.884)" fill="url(#linear-gradient-5)"/>
        <path id="Path_4583" data-name="Path 4583" d="M444.909,79.258c-.515-7.113-10.262-8.031-10.262-8.031,5.836,3.2-12.16,7.033-25.314,21.758-9.331,10.448-5.589,21.154-5.589,21.154,2.7,9.184,12.962,14.046,12.962,14.046C400.874,105.141,444.711,92.92,444.909,79.258Z" transform="translate(-377.431 -25.884)" fill="url(#linear-gradient-6)"/>
        <path id="Path_4584" data-name="Path 4584" d="M416.29,77.858c30.3-21.622,27.938-32.518,27.938-32.518-15.545,14.822-43.564,34.816-43.564,34.816-7.816,6.479-13.508,11.694-12.025,20.839,2.517,15.519,18.728,11.532,18.728,11.532C388.4,115.836,384.994,100.191,416.29,77.858Z" transform="translate(-388.403 -45.34)" fill="url(#linear-gradient-7)"/>
        <path id="Path_4585" data-name="Path 4585" d="M437.82,80.954c5.609-3.636,2.645-7.344,2.344-7.6-1.517-1.449-5.517-2.13-5.517-2.13,5.836,3.2-12.16,7.033-25.314,21.758-9.331,10.448-5.589,21.154-5.589,21.154,2.635,9.119,12.962,14.046,12.962,14.046C386.915,110.762,430.786,85.516,437.82,80.954Z" transform="translate(-377.431 -25.884)" fill="url(#linear-gradient-8)"/>
        <path id="Path_4586" data-name="Path 4586" d="M433.221,71.227a14.115,14.115,0,0,1,5.518,2.13c.275.308,3.035,3.629-2.344,7.6-5.827,4.3-51.6,28.943-21.115,47.231-15.868-23.044,28.006-35.265,28.2-48.927C442.969,72.169,433.221,71.227,433.221,71.227Z" transform="translate(-376.006 -25.884)" opacity="0.17" fill="url(#linear-gradient-9)"/>
      </g>
    </g>
  </g>
</svg>
