<svg xmlns="http://www.w3.org/2000/svg" xmlns:xlink="http://www.w3.org/1999/xlink" width="371.394" height="311.576" viewBox="0 0 371.394 311.576">
  <defs>
    <radialGradient id="radial-gradient" cx="0.5" cy="0.5" r="0.5" gradientUnits="objectBoundingBox">
      <stop offset="0" stop-color="#0094d6"/>
      <stop offset="1" stop-color="#002c9a"/>
    </radialGradient>
    <radialGradient id="radial-gradient-2" cx="718.117" cy="870.665" r="103.772" gradientTransform="matrix(1.224, 0.065, -0.065, 1.224, -58.085, -178.231)" gradientUnits="userSpaceOnUse">
      <stop offset="0.005" stop-color="#b700a1" stop-opacity="0.8"/>
      <stop offset="1" stop-color="#d73f95" stop-opacity="0.192"/>
    </radialGradient>
    <radialGradient id="radial-gradient-3" cx="642.483" cy="783.322" r="100.045" gradientTransform="matrix(1.262, 0.067, -0.067, 1.262, -74.867, -193.69)" gradientUnits="userSpaceOnUse">
      <stop offset="0" stop-color="#ffb300" stop-opacity="0.8"/>
      <stop offset="1" stop-color="#ffb700" stop-opacity="0.192"/>
    </radialGradient>
    <radialGradient id="radial-gradient-4" cx="4349.806" cy="1556.049" r="55.503" gradientTransform="translate(-6637.962 -2387.245) scale(2.631 2.631)" gradientUnits="userSpaceOnUse">
      <stop offset="0" stop-color="#ffb300" stop-opacity="0.4"/>
      <stop offset="0.99" stop-color="#ffb700" stop-opacity="0"/>
    </radialGradient>
    <radialGradient id="radial-gradient-5" cx="429.063" cy="823.362" r="59.95" gradientTransform="matrix(1.31, 0.069, -0.069, 1.31, -48.905, -223.178)" gradientUnits="userSpaceOnUse">
      <stop offset="0" stop-color="#007ed9" stop-opacity="0.8"/>
      <stop offset="1" stop-color="#007cff" stop-opacity="0.192"/>
    </radialGradient>
    <radialGradient id="radial-gradient-6" cx="58.612" cy="-281.961" r="229.984" gradientTransform="translate(10.847 -165.381) scale(0.63 0.63)" gradientUnits="userSpaceOnUse">
      <stop offset="0" stop-color="#00d1ff" stop-opacity="0.302"/>
      <stop offset="0.99" stop-color="#00c5ff" stop-opacity="0"/>
    </radialGradient>
    <radialGradient id="radial-gradient-7" cx="42.571" cy="300.784" r="99.787" gradientTransform="matrix(0.974, 0.051, -0.051, 0.974, 2.448, 4.955)" gradientUnits="userSpaceOnUse">
      <stop offset="0" stop-color="#28b033" stop-opacity="0.8"/>
      <stop offset="1" stop-color="#008538" stop-opacity="0.192"/>
    </radialGradient>
    <radialGradient id="radial-gradient-8" cx="189.078" cy="489.585" r="29.634" gradientTransform="matrix(1.007, 0.053, -0.053, 1.007, 10.524, 3.949)" gradientUnits="userSpaceOnUse">
      <stop offset="0.005" stop-color="#7100a1" stop-opacity="0.8"/>
      <stop offset="1" stop-color="#8c2195" stop-opacity="0.192"/>
    </radialGradient>
    <radialGradient id="radial-gradient-9" cx="454.043" cy="890.369" r="22.108" gradientTransform="matrix(1.141, 0.06, -0.06, 1.141, 7.847, -92.199)" gradientUnits="userSpaceOnUse">
      <stop offset="0.005" stop-color="#d20043" stop-opacity="0.8"/>
      <stop offset="1" stop-color="#f53f2c" stop-opacity="0.192"/>
    </radialGradient>
    <radialGradient id="radial-gradient-10" cx="528.212" cy="682.215" r="33.015" gradientTransform="matrix(1.109, 0.059, -0.059, 1.109, 2.415, -60.537)" gradientUnits="userSpaceOnUse">
      <stop offset="0.005" stop-color="#ff68ac" stop-opacity="0.8"/>
      <stop offset="1" stop-color="#ff47ac" stop-opacity="0.192"/>
    </radialGradient>
    <radialGradient id="radial-gradient-11" cx="638.709" cy="811.182" r="24.486" gradientTransform="matrix(1.131, 0.06, -0.06, 1.131, -6.067, -88.185)" gradientUnits="userSpaceOnUse">
      <stop offset="0.005" stop-color="#ff385e" stop-opacity="0.8"/>
      <stop offset="1" stop-color="#ff47ac" stop-opacity="0.192"/>
    </radialGradient>
    <radialGradient id="radial-gradient-12" cx="3082.402" cy="2582.126" r="24.974" gradientTransform="matrix(2.214, 0.117, -0.117, 2.214, -3131.164, -3236.493)" xlink:href="#radial-gradient-3"/>
    <radialGradient id="radial-gradient-13" cx="542.621" cy="1026.04" r="33.934" gradientTransform="matrix(1.226, 0.065, -0.065, 1.226, -24.355, -190.125)" gradientUnits="userSpaceOnUse">
      <stop offset="0" stop-color="#ff5c00" stop-opacity="0.8"/>
      <stop offset="1" stop-color="#ff7100" stop-opacity="0.192"/>
    </radialGradient>
    <radialGradient id="radial-gradient-14" cx="3246.524" cy="4227.196" r="3.92" gradientTransform="translate(-3681.787 -4798.941) scale(2.237 2.237)" xlink:href="#radial-gradient-3"/>
    <radialGradient id="radial-gradient-15" cx="1070.058" cy="1328.365" r="8.553" gradientTransform="translate(-288.118 -358.518) scale(1.354 1.354)" gradientUnits="userSpaceOnUse">
      <stop offset="0.005" stop-color="#ff261f" stop-opacity="0.8"/>
      <stop offset="1" stop-color="#ff471c" stop-opacity="0.192"/>
    </radialGradient>
    <radialGradient id="radial-gradient-16" cx="727.72" cy="911.386" r="6.7" gradientTransform="translate(-97.847 -122.84) scale(1.206 1.206)" xlink:href="#radial-gradient-15"/>
    <radialGradient id="radial-gradient-17" cx="1160.576" cy="1185.156" r="28.832" gradientTransform="matrix(1.462, 0.077, -0.077, 1.462, -346.78, -532.064)" xlink:href="#radial-gradient-3"/>
    <radialGradient id="radial-gradient-18" cx="-216.914" cy="-516.414" r="82.158" gradientTransform="matrix(0.652, 0.034, -0.034, 0.652, -134.761, -264.759)" gradientUnits="userSpaceOnUse">
      <stop offset="0" stop-color="#006800" stop-opacity="0.8"/>
      <stop offset="0.529" stop-color="#006400" stop-opacity="0.455"/>
      <stop offset="1" stop-color="#006100" stop-opacity="0.192"/>
    </radialGradient>
    <radialGradient id="radial-gradient-19" cx="-124.413" cy="30.269" r="61.969" gradientTransform="matrix(0.865, 0.046, -0.046, 0.865, -50.188, -22.043)" gradientUnits="userSpaceOnUse">
      <stop offset="0" stop-color="#7fdc33" stop-opacity="0.8"/>
      <stop offset="1" stop-color="#51be38" stop-opacity="0.192"/>
    </radialGradient>
    <radialGradient id="radial-gradient-20" cx="145.285" cy="497.032" r="38.435" gradientTransform="matrix(1.046, 0.055, -0.055, 1.046, 13.862, -9.441)" xlink:href="#radial-gradient-5"/>
    <radialGradient id="radial-gradient-21" cx="-64.899" cy="-166.555" r="65.959" gradientTransform="translate(-40.799 -83.251) scale(0.823 0.823)" gradientUnits="userSpaceOnUse">
      <stop offset="0" stop-color="#006800" stop-opacity="0.8"/>
      <stop offset="1" stop-color="#006100" stop-opacity="0.192"/>
    </radialGradient>
    <radialGradient id="radial-gradient-22" cx="617.117" cy="967.225" r="21.16" gradientTransform="translate(-100.744 -157.431) scale(1.236 1.236)" gradientUnits="userSpaceOnUse">
      <stop offset="0" stop-color="#003600" stop-opacity="0.8"/>
      <stop offset="1" stop-color="#006100" stop-opacity="0.192"/>
    </radialGradient>
    <radialGradient id="radial-gradient-23" cx="55.967" cy="16.294" r="31.349" gradientTransform="translate(-9.031 -28.265) scale(0.893 0.893)" xlink:href="#radial-gradient-22"/>
    <radialGradient id="radial-gradient-24" cx="4553.469" cy="5728.014" r="4.007" gradientTransform="translate(-8314.139 -10465.834) scale(2.932 2.932)" gradientUnits="userSpaceOnUse">
      <stop offset="0" stop-color="#00d1ff" stop-opacity="0.8"/>
      <stop offset="1" stop-color="#00c5ff" stop-opacity="0.192"/>
    </radialGradient>
    <radialGradient id="radial-gradient-25" cx="2248.853" cy="3144.278" r="5.916" gradientTransform="translate(-1764.699 -2469.795) scale(1.884 1.884)" xlink:href="#radial-gradient-24"/>
    <radialGradient id="radial-gradient-26" cx="1648.937" cy="1802.253" r="24.024" gradientTransform="matrix(1.969, 0.104, -0.104, 1.969, -1251.376, -1742.837)" gradientUnits="userSpaceOnUse">
      <stop offset="0" stop-color="#004cd9" stop-opacity="0.8"/>
      <stop offset="1" stop-color="#05f" stop-opacity="0.192"/>
    </radialGradient>
    <radialGradient id="radial-gradient-27" cx="2401.974" cy="1616.675" r="8.663" gradientTransform="translate(-2423.08 -1633.239) scale(2.11 2.11)" xlink:href="#radial-gradient-5"/>
    <radialGradient id="radial-gradient-28" cx="6328.106" cy="5890.709" r="4.536" gradientTransform="translate(-17944.892 -16712.284) scale(3.944 3.944)" xlink:href="#radial-gradient-24"/>
    <radialGradient id="radial-gradient-29" cx="6142.974" cy="4290.319" r="6.959" gradientTransform="translate(-18240.334 -12745.386) scale(4.077 4.077)" xlink:href="#radial-gradient-5"/>
    <radialGradient id="radial-gradient-30" cx="188.996" cy="443.043" r="35.715" gradientTransform="matrix(1.085, 0.057, -0.057, 1.085, 10.586, -24.342)" xlink:href="#radial-gradient-24"/>
    <radialGradient id="radial-gradient-31" cx="-74.557" cy="2.211" r="48.393" gradientTransform="matrix(0.854, 0.045, -0.045, 0.854, -33.644, -25.494)" xlink:href="#radial-gradient-19"/>
    <radialGradient id="radial-gradient-32" cx="135.834" cy="488.891" r="31.392" gradientTransform="matrix(1.094, 0.058, -0.058, 1.094, 14.576, -27.964)" gradientUnits="userSpaceOnUse">
      <stop offset="0" stop-color="#00a381" stop-opacity="0.8"/>
      <stop offset="1" stop-color="#0098f4" stop-opacity="0.192"/>
    </radialGradient>
    <radialGradient id="radial-gradient-33" cx="818.947" cy="837.684" r="23.578" gradientTransform="matrix(1.223, 0.065, -0.065, 1.223, -74.139, -173.318)" xlink:href="#radial-gradient-15"/>
    <radialGradient id="radial-gradient-34" cx="652.857" cy="785.044" r="25.337" gradientTransform="matrix(1.264, 0.067, -0.067, 1.264, -74.504, -187.623)" xlink:href="#radial-gradient-3"/>
    <radialGradient id="radial-gradient-35" cx="10771.463" cy="7560.573" r="3.979" gradientTransform="translate(-47912.819 -33641.964) scale(5.558 5.558)" gradientUnits="userSpaceOnUse">
      <stop offset="0" stop-color="#fff" stop-opacity="0.8"/>
      <stop offset="1" stop-color="#fff" stop-opacity="0.192"/>
    </radialGradient>
    <radialGradient id="radial-gradient-36" cx="6491.653" cy="3859.812" r="4.549" gradientTransform="translate(-17340.364 -10316.552) scale(3.779 3.779)" xlink:href="#radial-gradient-3"/>
    <radialGradient id="radial-gradient-37" cx="3112.696" cy="3872.456" r="14.639" gradientTransform="translate(-3581.437 -4459.642) scale(2.253 2.253)" xlink:href="#radial-gradient-13"/>
    <radialGradient id="radial-gradient-38" cx="-431.353" cy="-623.869" r="30.728" gradientTransform="translate(-229.292 -328.233) scale(0.638 0.638)" xlink:href="#radial-gradient-26"/>
    <radialGradient id="radial-gradient-39" cx="1091.39" cy="1367.862" r="7.25" gradientTransform="translate(-430.567 -540.469) scale(1.485 1.485)" xlink:href="#radial-gradient-24"/>
    <radialGradient id="radial-gradient-40" cx="552.599" cy="747.144" r="24.92" gradientTransform="translate(-79.519 -108.711) scale(1.217 1.217)" xlink:href="#radial-gradient-24"/>
    <radialGradient id="radial-gradient-41" cx="11.928" cy="8.404" r="16.151" gradientTransform="translate(-23.85 -30.331) scale(0.887 0.887)" xlink:href="#radial-gradient-3"/>
    <radialGradient id="radial-gradient-42" cx="507.345" cy="612.949" r="20.777" gradientTransform="translate(-40.606 -49.018) scale(1.141 1.141)" xlink:href="#radial-gradient-3"/>
    <radialGradient id="radial-gradient-43" cx="1511.314" cy="1624.964" r="12.828" gradientTransform="translate(-963.516 -1037.45) scale(1.733 1.733)" gradientUnits="userSpaceOnUse">
      <stop offset="0" stop-color="#001e6c" stop-opacity="0.8"/>
      <stop offset="1" stop-color="#002877" stop-opacity="0.192"/>
    </radialGradient>
    <radialGradient id="radial-gradient-44" cx="-432.015" cy="-637.447" r="29.279" gradientTransform="translate(-228.449 -333.688) scale(0.641 0.641)" xlink:href="#radial-gradient-43"/>
    <radialGradient id="radial-gradient-45" cx="-469.218" cy="-686.473" r="15.772" gradientTransform="translate(-254.923 -370.65) scale(0.618 0.618)" xlink:href="#radial-gradient-43"/>
    <radialGradient id="radial-gradient-46" cx="1403.594" cy="1577.726" r="7.554" gradientTransform="translate(-534.333 -601.623) scale(1.47 1.47)" xlink:href="#radial-gradient-15"/>
    <radialGradient id="radial-gradient-47" cx="1318.845" cy="1520.628" r="7.091" gradientTransform="translate(-455.833 -526.511) scale(1.434 1.434)" xlink:href="#radial-gradient-8"/>
    <radialGradient id="radial-gradient-48" cx="1167.359" cy="1091.036" r="12.087" gradientTransform="translate(-330.597 -309.777) scale(1.368 1.368)" xlink:href="#radial-gradient-15"/>
    <radialGradient id="radial-gradient-49" cx="1951.981" cy="1496.131" r="25.268" gradientTransform="translate(-1292.562 -991.994) scale(1.76 1.76)" xlink:href="#radial-gradient-8"/>
    <radialGradient id="radial-gradient-50" cx="1383.273" cy="1244.422" r="12.942" gradientTransform="translate(-496.323 -447.563) scale(1.447 1.447)" xlink:href="#radial-gradient-8"/>
    <radialGradient id="radial-gradient-51" cx="1667.579" cy="1216.464" r="22.379" gradientTransform="translate(-783.734 -572.151) scale(1.562 1.562)" xlink:href="#radial-gradient-35"/>
    <radialGradient id="radial-gradient-52" cx="5703.971" cy="4851.035" r="3.851" gradientTransform="translate(-12207.796 -10389.163) scale(3.247 3.247)" xlink:href="#radial-gradient-15"/>
    <radialGradient id="radial-gradient-53" cx="NaN" cy="NaN" r="NaN" gradientUnits="userSpaceOnUse">
      <stop offset="0" stop-color="#231f20" stop-opacity="0.4"/>
      <stop offset="0.995" stop-opacity="0.4"/>
    </radialGradient>
    <radialGradient id="radial-gradient-54" cx="6363.178" cy="5113.651" r="6.942" gradientTransform="translate(-17972.594 -14449.733) scale(3.932 3.932)" xlink:href="#radial-gradient-19"/>
    <radialGradient id="radial-gradient-55" cx="4000.632" cy="3973.309" r="5.663" gradientTransform="translate(-6517.164 -6476.991) scale(2.734 2.734)" xlink:href="#radial-gradient-18"/>
    <radialGradient id="radial-gradient-56" cx="2796.27" cy="2950.179" r="5.851" gradientTransform="translate(-3010.916 -3179.563) scale(2.179 2.179)" xlink:href="#radial-gradient-43"/>
    <radialGradient id="radial-gradient-57" cx="9547.17" cy="8612.266" r="3.549" gradientTransform="translate(-35829.99 -32334.479) scale(4.862 4.862)" xlink:href="#radial-gradient-3"/>
    <radialGradient id="radial-gradient-58" cx="767.882" cy="814.931" r="18.456" gradientTransform="translate(-231.213 -245.835) scale(1.383 1.383)" xlink:href="#radial-gradient-43"/>
    <radialGradient id="radial-gradient-59" cx="722.714" cy="1038.403" r="24.223" gradientTransform="translate(-226.412 -324.393) scale(1.396 1.396)" xlink:href="#radial-gradient-43"/>
    <radialGradient id="radial-gradient-60" cx="984.17" cy="947.649" r="22.092" gradientTransform="translate(-201.14 -195.318) scale(1.284 1.284)" xlink:href="#radial-gradient-15"/>
    <linearGradient id="linear-gradient" x1="0.491" y1="-0.824" x2="0.504" y2="1.472" gradientUnits="objectBoundingBox">
      <stop offset="0.005"/>
      <stop offset="1" stop-opacity="0"/>
    </linearGradient>
  </defs>
  <g id="Group_7231" data-name="Group 7231" transform="translate(-1173.606 -3664.424)">
    <path id="Rectangle_647" data-name="Rectangle 647" d="M10,0H360a10,10,0,0,1,10,10V300a0,0,0,0,1,0,0H0a0,0,0,0,1,0,0V10A10,10,0,0,1,10,0Z" transform="translate(1175 3676)" fill="url(#radial-gradient)"/>
    <g id="Group_6441" data-name="Group 6441" transform="translate(1158.579 3599.199)">
      <g id="Group_6438" data-name="Group 6438" transform="translate(29.42 79.619)">
        <g id="Group_6405" data-name="Group 6405">
          <path id="Path_20198" data-name="Path 20198" d="M292.112,310.384c1.4,11.483-8.257,14.449-15.8,20.237-2.727,2.092-15.792,11.854-8.3,15.328,2.222,1.029,8.77-4.089,11.2-4.645,8.46-1.93,25.125,5.2,32.058.322,8.061-5.666-1.16-10.567-.184-17.723,1.115-8.173,9.571-9.1,16.143-7.685,7.084,1.487,13.749,6.039,20.742,4.392,11.289-2.624,6.713-11.056,12.659-16.492,6.527-5.875,14.726-1.113,19.185-10.914,3.671-7.827,1-14.957-5.014-20.463s-13.1-6.991-14.469-16.027c-1-7.943,2.44-17.885,4.509-25.409,2.717-8.477,5.644-18.487-3.507-23.9-5.271-3.321-14.469-4.576-19.626-1.116-8.57,5.6-4.3,12.426-5.344,20.091-.673,8.755-4.251,8.268-12.125,8.755-6.27.185-14.005-.35-14.609,7.9-.535,7.734,6.712,11.845,1.949,20.043-5.342,8.64-16.77,12.286-21.742,22.016C283.706,295.705,290.882,300.327,292.112,310.384Z" transform="translate(-77.471 -114.938)" fill="url(#radial-gradient-2)"/>
          <path id="Path_20199" data-name="Path 20199" d="M204.6,269.563c.037,15.546,12.165,21.2,22.66,29.753,4.654,3.791,10.3,8.228,13.661,13.161,2.157,3.166,8.476,13.66,8.175,17.367-.358,4.391,3.717,5.768,6.81,5.063,4.154-.946,5.652-4.427,7.374-7.916,6.078-12.316,21.412-18.021,22.283-32.849.4-6.712-3.946-13.029-2.019-19.532,5.506-17.466,23.459-4.086,33.981-1.09,13.005,3.857,29.893-13.1,15.029-22.411-8.57-5.854-24.413,3.435-29.009-8.643-6.223-15.422,21.021-20.553,13.637-35.093-1.254-2.253-6.736-4.042-9.013-6.435-2.788-2.462-3.9-5.738-5.457-9.593-2.6-7.641-3.669-15.074-11.356-19.767-3.368-2.02-10.964-3.577-15.191-3.113-7.571,2.09-6.6,6.387-14.725,1.115-10.985-7.226-20.507-13.729-34.931-11.012-15.005,3.157-30.986,24.919-27.9,40.434,2.576,15.446,21.041,17.444,27.242,29.221C233.241,242.762,205.09,254.536,204.6,269.563Z" transform="translate(-63.747 -105.525)" fill="url(#radial-gradient-3)"/>
          <path id="Path_20200" data-name="Path 20200" d="M281.872,288.477c25.094,20.314,74.086,13.144,74.086-23.9,0-15.535-7.17-37.043-26.289-34.653-16.729,2.39-23.9,20.313-7.169,27.483-7.17,9.559-22.7,4.78-26.288-7.17-5.975-16.728,14.338-23.9,23.9-33.458s20.314-27.483,17.924-41.822c-1.2-9.559-10.754-13.144-11.949-22.7-2.39-10.755,4.779-17.924,9.559-27.484,5.974-11.949,20.314-35.848-5.975-32.263-20.313,2.39-9.559,17.924-14.339,27.484-5.974,15.534-13.144,8.364-26.288,16.729-20.314,10.754,2.39,21.508-11.949,32.262" transform="translate(-79.784 -92.147)" fill="url(#radial-gradient-4)"/>
          <path id="Path_20201" data-name="Path 20201" d="M189.1,310.974c4.722,1.684,10.25,2.043,13.438,7.1,4.406,6.991,5.866,9,14.633,10.335,5.386.819,14.988,5.532,17.64-1.416,3.073-8.052-7.654-12.168-10.917-17.526-3.842-6.307.048-15.842-4.942-20.971-2.85-2.927-7.436-3.161-10.042-6.314-3.136-3.794-2.356-7.175-.213-11.547,3.125-6.375,10.114-9.785,12.132-16.834,1.834-6.4-2.425-7.647-3.777-13.107-2.151-8.693,6.152-13.068,13.169-15.559,10.335-3.779,26.052-19.616,10.725-27.242-10.678-5.787-24.047,6.384-33.971,1.078-7.909-4.644-2.01-10.881-4.305-16.992-1.094-4.625-7.734-7.156-12.143-8.677-11-3.089-25.1-.938-35.477,5.756-9.185,5.389-8.231,7.222-7.248,15.387.809,9.19-1.982,9.487-8.6,15.079-18.581,15.011,13.182,11.645,12.644,23.564-.626,10.161-34.059,8.28-23.438,22.858,6.636,8.6,20.413,6.449,29.783,10.411,7.69,3.329,18.274,10.631,20.659,19.819,1.714,6.6.141,16.167,4.97,21.526A12.45,12.45,0,0,0,189.1,310.974Z" transform="translate(-49.126 -108.369)" fill="url(#radial-gradient-5)"/>
          <path id="Path_20202" data-name="Path 20202" d="M163.4,204.106c-40.627,11.949-10.754-29.873-41.822-38.238-19.119-4.78-19.119,10.754-34.653,15.534-16.729,4.78-38.238-14.339-51.382,2.39-20.314,22.7,15.534,15.534,26.288,15.534,5.975,0,15.534-1.195,19.119,2.39,7.17,5.974,0,13.144,3.585,17.924,10.755,15.534,23.9-2.39,39.433,3.584,13.144,5.975,8.364,35.848,29.873,29.874-1.195-22.7,2.39-29.874,16.729-48.992" transform="translate(-29.42 -106.954)" fill="url(#radial-gradient-6)"/>
          <path id="Path_20203" data-name="Path 20203" d="M220.981,351.426c4.957-24.636-21.971-18.491-31.661-34.255-2.521-3.929-3.136-6.979-6.682-10.6-3.943-4.158-7.775-4.879-9.53-10.525-3.676-9.858,3.265-15.1,4.8-23.8,1.482-12.361-7.094-14.94-16.773-14.168-10.246.156-11-1.392-10.791-12.561.838-22.188-20.123-28.14-33.985-13.982-6.234,6.817-13.332,16.936-15.563,26.482-1.452,4.217-2.1,8.078.29,12.4,2.756,4.836,7.928,3.927,10.835,7.516,13.7,16.73-27.556,20.031-3.377,38.363,7.431,5.583,12.229,5.867,20.51,5.207,5.559-.915,13.781-1.271,19.06,3.089,5.836,4.08,5.166,10.26,12.554,13.437,5.824,1.9,11.258,0,16.627-.576,10.541-1.289,16.934.211,27.38,3.641,5.079,1.69,7.68,2.306,12.246.9,4.635-1.432,7.164-6.925,13.409-3.5" transform="translate(-43.67 -118.934)" fill="url(#radial-gradient-7)"/>
          <path id="Path_20204" data-name="Path 20204" d="M288.366,311.344c-6.426,14.121,26.723,12.257,14.5,28.653-4.473,6.477-11.223,7.152-1.765,13.85,2.983,2.223,11.491,7.32,15.042,8.541,8.935,3.071,9.763-3.321,15.161-7.722,2.756-2.248,15.259-2,15.064-6.473-1.933-1.262-5.709-1.486-7.189-3.672-3.144-4.65,1.7-6.239,3.219-9.655,3.169-7.13-5.911-9.316-10.841-7.672-4.346,1.448-9.612,6.707-12.116-.1-1.823-4.95,4.516-6.482,4.862-11.533.324-4.719-2.741-10.355-7.443-11.456-5.057-1.185-11.093,2.435-16.224,2.857C296.152,307.335,290.613,306.406,288.366,311.344Z" transform="translate(-81.906 -135.201)" fill="url(#radial-gradient-8)"/>
          <path id="Path_20205" data-name="Path 20205" d="M275.668,340.462c4.383,10.059-.728,6.676-6.431,12.4-4.2,4.222-7.108,14.438.245,16.732,4.236,1.323,8.409-1.239,12.472-1.459a35.186,35.186,0,0,1,12.7,1.844c5.452,1.882,21.318,3.508,17-8.508-1.815-5.056-15.359-7.833-7.736-15.9,2.488-2.635,7.839-1.08,7.99-6.293.1-3.283-2.082-3.494-4.551-4.512-3.4-1.4-10.042-2.371-9.8-7.376-1.707-4.767-2.668-6.514-7.347-8.339-7.132-2.781-10.3-3.125-14.866,2.693C269.695,328.948,272.26,332.638,275.668,340.462Z" transform="translate(-77.318 -137.892)" fill="url(#radial-gradient-9)"/>
          <path id="Path_20206" data-name="Path 20206" d="M339.859,255.684c-11.215,3.249-10.274,8.292-3.88,16.009,3.4,4.1,14.823,19.2,1.995,19.524-4.743.122-9.042-3.755-13.555-4.989-3.649-1-9.428-1.945-10.556,2.165-.931,3.4,3.269,10.02,5.594,11.356,3.712,5.242.665,14.124,6.327,17.16,8.756,4.693,17.765-.97,21.63-8.669,5.123-9.024,7.781-10.434,17.757-13.522,7.86-2.167,10.056-4.634,7.427-13.551-3.033-11.005-3.657-8.973,4.043-17.861,6.533-6.369,10.113-15.475.546-20.112-6.532-3.443-11.845-.625-16.7,3.25C352.952,252.243,349.293,253.083,339.859,255.684Z" transform="translate(-87.234 -122.546)" fill="url(#radial-gradient-10)"/>
          <path id="Path_20207" data-name="Path 20207" d="M355.224,306.772c-3.144.867-6.913,3.767-7.619,7.344-.135,2.576,6.477,14.286,8.481,15.424,6.451,4.989,11.466-1.975,16.753-4.279,4.229-1.842,12.441-.892,15.721-4.333,2.738-2.956,1.98-8.16,3.2-11.71,2.278-4.011,6.018-6.4,7.375-12.521,2.035-9.189-1.543-9.894-8.13-12.307-3.036-1.194-4.608-.761-7.589-2.984-1.463-1.626-3.224-7.4-5.229-8.538-13.2-4.312-2.388,15.882-3.608,19.434-2.5,8.131-22.878,2.923-20.873,13.874" transform="translate(-94.121 -128.774)" fill="url(#radial-gradient-11)"/>
          <path id="Path_20208" data-name="Path 20208" d="M274.017,327.19c10.6-5.122,24.667-7.478,18.219-22.277-3.685-8.458-11.109-24.343-1.919-32.121,8.674-7.8,25.886-1.215,36.349-3.76,19.84-4.118-4.932-14.205-7.505-24.153-3.819-15.694,21.9-13.82,6.81-31.142-5.828-7.021-5.2-9.055-6.286-17.89s-7.1-12.253-15.151-6.481c-14.529,11.111-5.968,24.989-2.5,37.566,4.794,16.779-14.125,23.011-23.4,32.333-11.44,11.273-9.165,26.886-1.579,39.681,4.769,7.481,10.136,13.446,2,20.763-1.626,1.463-8.919,2.627-8.593,6.259s4.037,1.762,6.18.327" transform="translate(-78.434 -111.337)" fill="url(#radial-gradient-12)"/>
          <path id="Path_20209" data-name="Path 20209" d="M285.647,302.193c-2.055-3.465-4.315-3.025-7.6-4.318-7.106-3.173-7.283.174-11.276-8.988-1.966-5.14-2.669-13.009-11.156-11.218-5.639.821-4.846,7.017-8.929,10.157-7.548,5.2-30.626-2.735-25.343,13.768,2.377,7.959,14.063,9.134,18.76,15.538,4.14,6.372-.53,10.042.233,16.8.7,7.87,5.314,5.317,9.542,10.016,3.113,4.639.5,11.775,4.783,15.358,11.8,9.575,17.593-15.3,17.976-22.549.472-8.927-3.316-11.363,3.7-17.147,2.937-2.642,21.439-13.974,7.608-16.942" transform="translate(-68.288 -129.819)" fill="url(#radial-gradient-13)"/>
          <path id="Path_20210" data-name="Path 20210" d="M255.232,353.371c5.867,1.257,4.19-6.286,9.637-5.866,1.257,4.609,0,18.855-2.933,22.627-1.675-3.771-.419-7.962-2.094-11.732-.838-1.676-3.352-3.771-3.771-5.028" transform="translate(-75.338 -144.07)" fill="url(#radial-gradient-14)"/>
          <path id="Path_20211" data-name="Path 20211" d="M250.913,319.615c-1.676,2.514,5.447,10.475,8.381,12.151-.839-6.285,5.866-9.219,2.1-16.342-2.934.839-11.314,5.028-10.9,7.123" transform="translate(-74.372 -137.55)" fill="url(#radial-gradient-15)"/>
          <path id="Path_20212" data-name="Path 20212" d="M250.492,316.789c-.419,5.448,5.029,2.514,7.543,4.609,3.352,2.513,4.19,9.218,6.285,12.151,2.514-4.609-2.094-12.99-3.352-17.6h0a35.563,35.563,0,0,1-9.218,3.771" transform="translate(-74.37 -137.657)" fill="url(#radial-gradient-16)"/>
          <path id="Path_20213" data-name="Path 20213" d="M267.867,279.276c-19.109.024-7.261-18.975-1.244-25.37,3.336-4.472,9.49-13.443,4.1-18.892-2.928-3.253-10.164-3.119-13.715-4.339-5.61-1.33-12.684-4.285-13.876-11.062s4.664-10.082,3.988-16.832c-.649-7.265-5.745-8.566,3.309-13.769,6.342-2.764,14.04-1.841,20.68-.457,5.124.787,13.825,2.279,17.726,6.617,6.721,9.65-4.691,10.6-9.138,16.559-11.061,13.876,11.273,21.253,20.813,26.4,6.017,3.417,13.9,10.547,7.37,16.915-3.28,3.442-13.608,3.413-17.781,4.225-4.689.786-14.529,1.3-17.836,5.256-7.726,9.4,6.233,9.108,10.7,12.442,2.981,2.223,4.932,4.392,3.685,8.457-6.776,1.192-16.02.187-19.84-5.7" transform="translate(-72.845 -111.481)" fill="url(#radial-gradient-17)"/>
          <path id="Path_20214" data-name="Path 20214" d="M217.028,348.888c-12.833-8.3-22.211,4.339-31.347,8.04-8.311,2.944-17.9.65-25.474-4.576-4.21-2.9-5.119-3.207-9.929-3.258-4.509-.048-15.344,2.016-18.729-3.075-5.085-7.645,7.889-6.519,7.53-11.866-.184-2.732-5.007-8.836-7.406-10.112-4.662-2.478-10.589,2.545-13.583,5.09-3.5,2.979-11.362,5.038-14.45-1.393-2.739-1.084-.789-3.532-2.091-5.162-1.88-2.358-5.575-.455-7.633-3.7-3.955-6.231,3.736-12.142,7.87-14.223,3.134-1.58,5.228-2.19,7.536-4.969,2.646-3.183,2.371-5.5,3.475-9.118,1.63-5.33,5.212-4.7,9.259-6.4,4.2-1.769,5.028-6.576,9.715-8.229,8.446-2.976,19.282,4.213,21.22,13.749,1.64,7.23,1.161,8.135,7.448,13.425,6.837,5.892,6.336,6.795,5.111,15.657-2.815,30.633,41.6,5.838,52.941,23.838,1.984,3.293,2.344,6.35-2.508,5.624" transform="translate(-42.312 -129.382)" fill="url(#radial-gradient-18)"/>
          <path id="Path_20215" data-name="Path 20215" d="M228.2,352.146c-4.907,4.906-19.9,5.146-26.455,2.22-3.035-1.194-4.417-4.366-7.453-5.559-2.548-.65-6.749.676-9.812,0-7.128-1.926-13.172-4.827-14.336-12.118-1.219-6.262,3.281-13.255,1.006-19.056-2.791-5.827-13.551-7.427-9.945-17.05,3.524-8.077,18.163-11.436,26.375-10.485,10.273,1.059,11.654,4.23,14.851,12.145,3.657,8.973,6.721,9.651,15.936,11.171,4.608.758,12.386.136,14.717,4.908,3.794,6.4-3.688,11.167-5.017,16.777-3.689,11.168,6.368,6.533,8.562,13.879,2.249,6.315-5.421,4.877-8.566,5.744" transform="translate(-56.071 -132.367)" fill="url(#radial-gradient-19)"/>
          <path id="Path_20216" data-name="Path 20216" d="M240.154,346.078c15.65.268-5.635-20.439-6.6-23.286-1.379-5.668,4.055-13.213,1-18.969s-8.75-3.82-13.007-7.959c-10.04-11.161,12.632-27.308-5.632-31.069-11.657-1.734-32.624,3.313-41.934,10.094-13.949,9.893-.736,13.948,9.688,17.855,13.711,5.2,11.1,12.334,12.093,25.256.967,13.478,5.753,18.207,19.024,21.146,8.31,1.557,16.472,5.9,24.253,6.874" transform="translate(-57.589 -127.184)" fill="url(#radial-gradient-20)"/>
          <path id="Path_20217" data-name="Path 20217" d="M196.729,303.5c.559,10.056-19.551,5.03-25.139,8.38-9.72,5.826-5.451,16.539,3.515,19.892,4.515,1.688,19.746-.223,17.074,8.453-3.8.636-10.737-.7-14.017,1.539-7.473,5.1,2.2,8.757,8.561,9.774a28.426,28.426,0,0,0,8.719.155c2.211-.446,5.34-3.113,7.179-3.222,7.651-.45,14.858,9.844,21.457,2.108,5.184-6.076,2.118-22.711-2.766-28.083-6.7-6.7-18.437-10.056-24.024-17.32" transform="translate(-57.203 -135.125)" fill="url(#radial-gradient-21)"/>
          <path id="Path_20218" data-name="Path 20218" d="M200.4,301.742a5.444,5.444,0,0,0-7.822.559c-1.675,1.675,1.118,6.145.558,8.38-.558,2.793-4.469,5.028-3.352,8.381,2.793,12.291,22.906,5.028,27.935,16.76,2.793,7.262-8.381,14.525-6.145,19.555,1.117,2.235,18.436,3.352,21.229,1.675,7.263-4.469.559-9.5-1.117-14.525-2.235-5.588-1.118-12.851-4.47-17.319-3.91-6.7-13.967-8.94-18.436-16.761" transform="translate(-61.989 -134.483)" fill="url(#radial-gradient-22)"/>
          <path id="Path_20219" data-name="Path 20219" d="M179.253,332.266c9.049-1.872,10.05-7.682,8.76-15.677-.492-3.046-2.561-7.755-.194-10.5,1.552-1.8,10.167-3.023,11.477-.7-2.249-3.983-5.863-6.308-7.892-11.1-1.508-3.569-2.861-6.743-5.448-9.554-6.1,2.569-11.769,3.156-17.949.789-4.829-1.849-10.058-6.384-15.571-5.2-7.822,1.677-12.849,10.616-11.732,18.437,1.676,10.615,6.145,6.146,13.967,7.822C170.873,309.919,160.816,335.618,179.253,332.266Z" transform="translate(-52.018 -130.369)" fill="url(#radial-gradient-23)"/>
          <path id="Path_20220" data-name="Path 20220" d="M240.551,340.436c.839,1.257,2.514,1.677,4.19,1.677,2.1-5.867-2.1-32.264-10.056-31.427-.838,5.448,2.514,10.894,3.352,15.924s-.419,12.57,3.352,15.5" transform="translate(-71.133 -136.582)" fill="url(#radial-gradient-24)"/>
          <path id="Path_20221" data-name="Path 20221" d="M245,352.128c3.771-1.677,3.352,2.932,5.867,5.446,2.933,3.353,6.285,3.353,7.124,7.543s-1.677,6.7.838,12.151h0c-4.19-.838-17.6-24.3-14.247-27.655" transform="translate(-73.063 -144.502)" fill="url(#radial-gradient-25)"/>
          <path id="Path_20222" data-name="Path 20222" d="M228.258,280.531c-8.6,4.022-20.994-5.025-18.2-15.508,2.057-7.164,12.276-9.981,5.993-18.146-3.081-5.2-14.8-5.816-19.7-8.312-7.106-3.173-16.355-8.137-15.325-17.034,1.059-9.456,8.84-8.485,14.156-13.8,11.277-12.272-13.709-26.459,1.005-40.229,9.428-9.013,27.809-7.483,34.473,4.058,7.661,13.832-8.637,25.839-4.382,40.61,3.258,12.48,23.165,16.888,12.327,31.421-4.817,6.459-12.716,7.72-14.831,16-2.234,10.511,5.225,6.989,8.747,14.449,1.967,5.138.116,8.4-5.991,7.515" transform="translate(-60.232 -106.287)" fill="url(#radial-gradient-26)"/>
          <path id="Path_20223" data-name="Path 20223" d="M224.519,186.91c.419-8.8-5.028-15.5-5.866-24.3-.419-4.61-1.257-6.286-3.352-10.057-4.19-7.542-1.257-7.542,7.124-7.542,7.542,0,7.123-.42,9.218,6.285,1.257,5.029,4.609,10.894,3.352,15.923-.838,5.448-4.19,7.961-2.933,13.828.838,2.933,4.19,4.609,3.352,7.961-1.257,5.028-1.257,1.676-4.609.839-2.514-.419-2.1-3.771-5.867-1.677a3.775,3.775,0,0,1-.419-2.094" transform="translate(-66.833 -102.895)" fill="url(#radial-gradient-27)"/>
          <path id="Path_20224" data-name="Path 20224" d="M230.5,261.57c.419-7.961-2.514-15.922-4.19-23.884a136.927,136.927,0,0,1-2.1-13.828c-.419-2.932.42-14.247-4.19-9.218-5.867,6.286,2.933,46.091,10.056,47.768" transform="translate(-67.789 -116.797)" fill="url(#radial-gradient-28)"/>
          <path id="Path_20225" data-name="Path 20225" d="M221.86,201.8c.42-8.381-3.352-16.761-4.609-24.723-.838-6.285-.838-26.4-7.543-28.911-6.7,3.771-.837,12.989-.419,18.855.838,9.218-.418,14.666,3.771,23.046,2.933,5.028.838,9.637,2.933,14.246,2.1,4.19,5.447,5.448,6.7,10.9.837,3.771,1.256,7.542,2.932,10.894h0c0-10.057-3.352-18.856-3.771-28.493" transform="translate(-65.432 -103.538)" fill="url(#radial-gradient-29)"/>
          <path id="Path_20226" data-name="Path 20226" d="M201.406,266.039c-8.294.6-19.272,3.115-26.21-2.417-1.979-1.653-2.846-4.8-5.311-6.995-3.5-2.25-8.186-1.464-12.252-2.713-9.648-3.092-13.524-7.943-10.947-17.62,1.248-4.065,3.444-6.532,3.661-10.651.3-5.665-2.709-7.373-3.982-12.6-1.328-4.2-5.31-16.806-5.092-20.927,1.546-9.73,23.473-2.173,28.527,1.694,7.721,5.66-.639,17.854,10.337,25.146,7.453,5.558,21.412,5.263,21.3,17.134-.272,5.15-6.751,10.489-3.905,15.287,2.33,4.77,10.164,3.119,13.632,5.883,10.922,8.323-3.634,10.137-10.87,10.27" transform="translate(-52.163 -111.506)" fill="url(#radial-gradient-30)"/>
          <path id="Path_20227" data-name="Path 20227" d="M150.626,291.166c-7.816-12.293,20.856-10.37,24.729-19.468,6.382-14.988-20.349-15.488-25.354-21.784-4.16-4.775,1.322-11.483-.421-16.654-2.435-6.969-13.275-4.927-20.189-4.351-9.565.616-18.617-4.687-28.347-1.343-9.663,3.321-18.784,14.328-11.289,22.106,5.709,6.063,22.7,3.687,22.989,14.672.047,6.29-6.054,7.2-7.732,12.543-2.572,8.309,6.863,10.469,13.275,11.593,5.525,1.115,12.9-.753,17.8,2.382,3.551,2.623,4.28,8.8,8.429,10.98,8.456,3.889,10.843-4.383,7.093-10.655" transform="translate(-41.128 -119.457)" fill="url(#radial-gradient-31)"/>
          <path id="Path_20228" data-name="Path 20228" d="M140.816,215.967c-6.858,2.737-37.407,14.035-18.165,21.248,6.1,1.871,12.415-.378,15.693,5.992,2.819,5.312-2.143,11.248,5.391,15.262,5.5,3.39,12.469-1.408,17.834,4.556,3.876,4.852.974,10.9,4.362,15.207,7.723,10.22,29.842,2.092,19.164-10.865-4.824-6.453-12.9-9.977-17.154-17.433-2.384-3.74-4.227-7.968-3.982-12.6.217-4.119,3.526-8.076,3.2-11.708-.705-6.235-5.366-5.965-9.35-8.758-4.5-2.819-5.338-6.478-9.268-10.3-5.962-4.447-14.365-1.792-11.168,6.123" transform="translate(-47.104 -114.976)" fill="url(#radial-gradient-32)"/>
          <path id="Path_20229" data-name="Path 20229" d="M355.892,220.607c-2.059-9.921-19-11.849-28.323-11.308-4.74.362-12.942,1.693-11.887,8.413.812,5.169,12.9,9.923,7.093,16.276-3.562,3.9-13.8.2-18.239,2.715-5.127,8.094,23.754,10.392,10.725,17.924-2.36,1.364-7.959,1.541-6.38,6.876,1.392,4.7,12.177,8.486,16.1,9.514,4.676,1.224,25.5,5.792,19.83-4.132-1.4-2.443-7.558-4.61-5.812-8.477.562-1.246,4.122-1.421,5.132-3.32,1.436-2.7.09-2.974-.7-5.524-2.048-6.645,2.1-7.466,6.408-11.258C354.659,234.061,356.842,227.13,355.892,220.607Z" transform="translate(-85.238 -115.952)" fill="url(#radial-gradient-33)"/>
          <path id="Path_20230" data-name="Path 20230" d="M254.639,233.91a31.615,31.615,0,0,1-10.132,1.144c-9.454-1.059-7.076-3.73-10.069-10.6-2.906-8.546-6.929-6.521-12.772-12.423-8.015-7.137-2.289-9.632,1.971-16.121,4.934-8.691,5.14-12.6,16.886-12.535,10.042.53,11.07,2.262,11.685,11.806.7,7.869,1.055,11.8,7.456,17.737,7.485,6.55,16.882,8.725,12.916,20.264-3.261,8.779-21.91,22.9-32.422,20.666-16.56-4.231,12.423-12.77,12.16-18.379" transform="translate(-67.694 -110.697)" fill="url(#radial-gradient-34)"/>
          <path id="Path_20231" data-name="Path 20231" d="M250.826,239.957c0-10.476-3.771-19.275-4.609-28.913-.838-8.38,4.19-26.817-5.447-31.845-2.933,6.285,1.257,12.57,2.513,18.855,1.258,5.448.838,10.894.838,16.342,0,5.028-2.514,29.751,6.286,25.979" transform="translate(-72.19 -109.849)" fill="url(#radial-gradient-35)"/>
          <path id="Path_20232" data-name="Path 20232" d="M239.193,184.933c10.475,7.542,1.676-16.761,1.256-18.437-1.675-9.218,6.7-16.761-6.285-18.855-.838,12.151,3.352,25.56,4.19,38.13" transform="translate(-71.032 -103.431)" fill="url(#radial-gradient-36)"/>
        </g>
        <path id="Path_20233" data-name="Path 20233" d="M244.685,315.416c2.49,2.49,7.438,2.6,9.346,5.511,2.1,3.2.492,9.077,1.631,12.832,1.052,3.467,3.786,7.37,3.187,11.24-2.088,0-5.522.319-7.038.17-1.454-.143-1.173,1.655-2.536-.841-.641-1.174-.116-4.889-.306-6.286-1.126-8.305-5.086-16.046-4.284-24.722" transform="translate(-73.172 -137.122)" fill="url(#radial-gradient-37)"/>
        <path id="Path_20234" data-name="Path 20234" d="M204.563,286.191c1.956,2.235,4.47-1.395,6.425-2.234,5.867-2.794,7.822.558,10.615,5.029,3.073,5.307,6.425,7.822,12.012,9.777,3.91,1.4,10.615,1.956,10.615,7.263,1.956.559,6.145-2.793,6.983.28s-3.911,6.145-5.866,6.425c-5.307.558-10.056-6.145-14.805-8.1-5.587-2.513-10.336-5.028-14.806-8.938-3.073-2.235-11.174-4.749-10.894-8.938" transform="translate(-65.035 -130.943)" fill="url(#radial-gradient-38)"/>
        <path id="Path_20235" data-name="Path 20235" d="M214.914,267.063c1.676,6.285-2.514,4.19-5.867,6.285-2.514,1.676-.838,4.19-4.19,4.609s-6.7-2.514-5.448-6.286c1.257-4.609,5.867-2.513,5.448-9.218-.42-3.771-5.867-10.476,2.514-9.637,3.771.418,10.475,12.151,8.38,14.247" transform="translate(-63.932 -124.804)" fill="url(#radial-gradient-39)"/>
        <path id="Path_20236" data-name="Path 20236" d="M194.969,273.028c4.19,4.19,8.8,9.638,14.666,4.19,5.028-4.609,2.1-10.056-3.771-9.638-4.609,0-5.028,3.772-10.056,0-7.961-5.866-5.028-12.989-5.028-20.531-14.666.838,5.867,25.979,8.381,31.007" transform="translate(-61.167 -123.646)" fill="url(#radial-gradient-40)"/>
        <path id="Path_20237" data-name="Path 20237" d="M223.674,277.76c3.771,1.676,5.866,9.218,8.38,12.151,3.352,4.19,2.1,2.934,7.543,5.029a24.072,24.072,0,0,1,9.218,6.284c-5.867,4.19,3.352.839,5.028,1.677,2.1-9.638-19.694-25.98-28.074-26.4-.839.419-.42,1.257-.42,2.1" transform="translate(-68.921 -129.635)" fill="url(#radial-gradient-41)"/>
        <path id="Path_20238" data-name="Path 20238" d="M249.048,298.141c-2.933,1.257-2.1,4.61-.838,3.772,7.577-6.5-3.994-18.621-9.669-22.67-1.62-1.156-20.607-11.407-18.824-13.784-3.771,5.028,3.771,6.286,1.257,11.313,6.285,0,28.493,15.924,26.4,22.627" transform="translate(-67.898 -127.389)" fill="url(#radial-gradient-42)"/>
        <path id="Path_20239" data-name="Path 20239" d="M194.745,229.925c.838-3.352,5.029-5.867,8.381-5.448,5.866.838,4.19,6.7,5.866,10.894,2.1,5.028,5.028,9.218,5.867,15.085,1.257,7.541,2.1,12.151,11.313,14.246-2.514-3.352-5.866-4.19-7.961-7.962-1.257-2.513-.838-6.7-1.257-10.056-.838-6.285-2.1-12.57-2.933-18.855-.838-2.933-.838-17.18-4.19-17.6-1.257,0-12.989,13.828-13.408,15.923" transform="translate(-63.039 -116.159)" fill="url(#radial-gradient-43)"/>
        <path id="Path_20240" data-name="Path 20240" d="M241.657,306.8c-4.19,3.631-12.011-3.632-15.923-5.867l-5.028-2.514c-1.676-1.4-1.955-3.352-3.073-4.469s-6.7-3.632-6.984.838a9.956,9.956,0,0,1-2.514-1.118c1.956.838,3.352,1.955,3.352,3.911-1.676,0-3.352,0-4.468.838,3.352,2.235,10.335,5.028,3.91,8.1.838.839,3.073,1.118,3.632,1.957.838,1.116.838,1.955,1.676,3.073a23.5,23.5,0,0,0,6.145,6.7c5.307,3.632,7.822,4.19,7.263-2.793-.28-3.073-1.956-4.75,2.514-5.028,2.234-.279,4.749,1.676,6.7,2.513,3.352,1.118,12.849,3.353,12.849-2.513-2.235,0-5.307,2.235-7.542,1.118-1.955-1.118-2.793-3.912-.559-5.029" transform="translate(-65.534 -132.832)" fill="url(#radial-gradient-44)"/>
        <path id="Path_20241" data-name="Path 20241" d="M204.213,287.462c.419.42,5.447,2.1,7.542,1.677,4.609-1.257,3.352-6.7,8.8-2.515,2.094,1.677,5.866,9.219,7.123,11.733-2.933,1.675-13.408-2.1-16.342-4.19,3.352-.419,6.286,1.676,5.448,5.028-3.352.419-9.219,1.257-10.056-2.513,4.19-1.677.418-5.448-.838-7.963" transform="translate(-64.964 -131.376)" fill="url(#radial-gradient-45)"/>
        <path id="Path_20242" data-name="Path 20242" d="M264.211,298.945c-2.163,2.164-.041,6.551,1.821,8.212,2.842,2.538,11.661,2.385,12.483-2.31,2.887.6,2.427,8.151,1.122,9.906-2.384,3.207-6.9.2-9.7,2.168-2.282,1.6-1.8,5.675-1.252,8-1.956-.28-1.956-9.778-2.794-12.571-.558-2.793-5.867-13.129-.558-13.408" transform="translate(-76.916 -134.198)" fill="url(#radial-gradient-46)"/>
        <path id="Path_20243" data-name="Path 20243" d="M263.647,307.535c3.771,5.867,13.828,4.609,15.085,7.543-10.474.838,10.057,13.828-3.352,15.923-11.313,1.676-7.962-13.828-10.057-20.113" transform="translate(-77.049 -135.945)" fill="url(#radial-gradient-47)"/>
        <path id="Path_20244" data-name="Path 20244" d="M288.54,267.51c3.632-2.794,6.984-7.822,3.352-11.453-1.675-1.4-3.631-1.118-5.307-3.073-2.513-2.794-2.513-6.984-5.587-1.677-1.676,2.794-2.235,6.7-3.631,9.777a51.887,51.887,0,0,1-6.146,9.777c-1.955,2.514-5.866,4.75-5.307,8.38.279,1.957,4.469,6.426,6.425,7.264.28-6.983.28-10.056,8.1-12.849,6.7-2.515,10.337-4.471,12.292-12.292" transform="translate(-77.499 -123.993)" fill="url(#radial-gradient-48)"/>
        <path id="Path_20245" data-name="Path 20245" d="M250.79,217.134c.891,7.13,1.624,14.8,3.364,21.779,1.071,4.293.394,9.758,1.991,13.713a28.383,28.383,0,0,1,2.6-7.324c1.013-1.822,3.7-3.652,4.712-5.762,1.954-4.065-3.4-6.366-5.286-9.086-3.159-4.565-2.023-10.2-2.768-15.417-1.676-11.731-2.932-18.435,12.151-17.178,3.771.419,8.8,4.19,12.151,3.771,7.123-.837,1.257-6.285-2.514-7.961-5.867-2.933-26.4-5.448-28.912.838C246.6,198.7,249.952,212.525,250.79,217.134Z" transform="translate(-73.83 -112.168)" fill="url(#radial-gradient-49)"/>
        <path id="Path_20246" data-name="Path 20246" d="M296.856,245.043c.419,3.352-.838,4.609-2.933,6.7-.837.838-2.932,0-3.352.418-2.513,2.514-2.094,4.19-2.932,7.123-2.933,8.381-9.219,9.22-14.247,15.924-3.352,3.771-5.448,11.313,2.1,11.732-7.961-8.38,5.866-15.5,11.732-19.693,7.962-5.867,14.666-12.99,12.989-23.884-1.257.419-3.352,0-4.19.419" transform="translate(-78.413 -122.897)" fill="url(#radial-gradient-50)"/>
        <path id="Path_20247" data-name="Path 20247" d="M287.107,238.891c9.637,6.7,10.894-3.352,9.219-10.476-2.1-9.218-2.1-15.085-9.219-21.788-3.352-2.933-8.8-9.637-13.828-7.543-6.7,2.933-2.1,9.638.419,12.99,4.19,5.447,5.447,6.7,4.609,13.828-.837,5.447-2.514,8.38,2.933,12.151,2.1,1.257,5.028,1.676,7.124,2.094" transform="translate(-78.301 -113.811)" fill="url(#radial-gradient-51)"/>
        <path id="Path_20248" data-name="Path 20248" d="M256.386,261.564c-1.117-6.424,5.028-8.659,6.984-13.966,1.117-3.632-.28-6.425-2.514-9.219-2.235-3.352-3.632-7.262-5.867-10.615-3.352,2.235-.558,12.849-.279,16.481.558,5.587,2.234,11.453,1.956,17.04" transform="translate(-74.956 -119.724)" fill="url(#radial-gradient-52)"/>
        <g id="Group_6437" data-name="Group 6437" transform="translate(123.498 41.943)">
          <g id="Group_6406" data-name="Group 6406" transform="translate(70.216 54.825)">
            <path id="Path_20249" data-name="Path 20249" d="M298.869,226.342c-1.693-5.995-6.431-10.028-11.863-12.7a.365.365,0,0,0-.48.231c-.8,4.535,5.653,9.31,8.181,12.352,5.922,7.127,4.393,18.926.254,26.564-3.99,7.363-11.3,10.874-17.818,15.514-4.906,3.492-6.339,7.721-1.9,12.308.2.2.772-.048.554-.272-8.374-8.652,6.231-14.189,11.978-18.595A28.721,28.721,0,0,0,298.783,242.8a30.884,30.884,0,0,0-.751-12.264c-.762-2.972-3.54-5.538-5.515-7.732-2.031-2.259-5.343-5.146-5.474-8.406,0-.067,5.543,3.474,6.068,3.925a16.736,16.736,0,0,1,5.152,8.185c.082.29.689.127.607-.163Z" transform="translate(-272.579 -213.615)"/>
          </g>
          <g id="Group_6407" data-name="Group 6407" transform="translate(61.348 120.696)">
            <path id="Path_20250" data-name="Path 20250" d="M269.359,296.59c4.808-.315,8.122,4.267,9.692,8.241,1.759,4.452.12,11.461-6.231,9.59-6.222-1.832-11.2-10.455-7.643-16.343.092-.15-.443-.025-.48-.007-8.83,4.291,2.432,16.853,8.983,17.026,7.831.207,7.081-12.455,2.376-15.822-.148-.108-.684.135-.57.217,3.249,2.324,4,6.744,3.273,10.453-.641,3.248-3.09,5.428-6.621,4.629-2.2-.5-4.047-2.141-5.608-3.681a17.881,17.881,0,0,1-3.879-5.729,8.494,8.494,0,0,1-.584-2.617c-.184-2.162,1.247-2.288,2.157-3.791-2.045,3.379-.506,7.668,1.487,10.643,2.66,3.969,8.946,8.131,13.071,3.782,5.369-5.662-2.2-17.326-9.17-16.87-.176.013-.658.3-.253.277Z" transform="translate(-261.448 -296.3)"/>
          </g>
          <g id="Group_6408" data-name="Group 6408" transform="translate(5.386 36.88)">
            <path id="Path_20251" data-name="Path 20251" d="M287.821,201.4a22.358,22.358,0,0,0-16.435-9.965,62.913,62.913,0,0,0-21.946,1.683c.014.207.026.413.039.621A102.719,102.719,0,0,1,259.66,192.1c10-1.113,19.218-.487,26.115,7.629a38.28,38.28,0,0,1,6.357,10.837,23.079,23.079,0,0,1,1.373,5.97,14.107,14.107,0,0,1-.133,3.4,6.484,6.484,0,0,0-.6-2.456c-2.128-6.345-7.2-11.071-12.915-14.23-.186-.1-.742.162-.479.306,7.021,3.878,11.914,9.642,13.763,17.527.054.23.57.065.609-.116C295.25,213.914,291.8,207.033,287.821,201.4Z" transform="translate(-203.044 -191.09)"/>
            <path id="Path_20252" data-name="Path 20252" d="M210.413,209.015c-8.968,6.7-16.476,16.1-19.207,26.773-.061.24.553.15.609-.069,2.7-10.564,9.843-19.485,18.6-26.1Z" transform="translate(-191.202 -194.735)"/>
          </g>
          <g id="Group_6409" data-name="Group 6409" transform="translate(29.949 91.92)">
            <path id="Path_20253" data-name="Path 20253" d="M226.318,269.964c-2.3-2.758-3.574-5.443-3.6-8.637a10.793,10.793,0,0,1-.559-1.147,11.786,11.786,0,0,0,.018,3.548,10.689,10.689,0,0,0,2.115,4.652c-.206-.022-.484.112-.417.276.822,2.035,2.872,3.279,4.44,4.8a11.441,11.441,0,0,1,1.524,2.974c.081.255.641.1.607-.162a5.1,5.1,0,0,0-1.328-2.783A36.645,36.645,0,0,0,226.318,269.964Zm-1.647-1.076c.577.749,1.2,1.476,1.81,2.208A7.714,7.714,0,0,1,224.671,268.887Z" transform="translate(-222.034 -260.179)"/>
          </g>
          <g id="Group_6410" data-name="Group 6410" transform="translate(35.149 103.522)">
            <path id="Path_20254" data-name="Path 20254" d="M228.613,275.022c8.932,4.037,16.629,11.484,22.446,19.257,2.7,3.606,7.214,9.506,4,13.933-2.172,2.989-10.29,4.138-9.749-1.057-.147,1.409,2.14-3.587.838-1.217a7.054,7.054,0,0,0-.665,1.606c-1.518,5.589,13.279,7.539,12.206-2.474-.018-.163-.629-.036-.607.162,1.147,10.7-15.633,6.953-9.473-.507.162-.2-.39-.1-.462-.059-3.064,1.926-3.3,5.875,1.015,6.545,3.975.614,8.394-2.135,8.758-6.342.244-2.832-2.144-5.909-3.5-8.174A52.478,52.478,0,0,0,247.1,288.6c-5.045-5.56-11.117-10.733-18-13.846-.155-.069-.713.167-.49.267Z" transform="translate(-228.561 -274.742)"/>
          </g>
          <g id="Group_6411" data-name="Group 6411" transform="translate(41.605 124.642)">
            <path id="Path_20255" data-name="Path 20255" d="M251.932,306.566a7.8,7.8,0,0,0-4.155,2.177,6.381,6.381,0,0,0-1.449,2.673c-.507,1.566-1.459.79-2.65.033a8.551,8.551,0,0,1-3.649-5.113c-1-4.044,3.25-3.5,5.694-2.07.15.088.651-.159.572-.206-3.576-2.122-9.536-3.147-9.389,2.7l.607-.162a5.116,5.116,0,0,1,.176-3.893c1.32-2.568,5.124-1.018,6.776-.112.155.084.647-.166.572-.206-4.022-2.2-9.6-1.412-8.131,4.374.033.132.611-.014.607-.162-.077-3.077,1.731-4.59,5.121-3.716a12,12,0,0,1,2.617,1.106q.856-.446-.269-.648-.311-.152-.635-.275c-1.19-.42-2.836-.79-3.957.07-4.355,3.345,2.965,9.04,5.788,9.945.117.038.543-.038.553-.2a6.176,6.176,0,0,1,5.087-6.094c.237-.049.539-.309.113-.222Z" transform="translate(-236.665 -301.253)"/>
          </g>
          <g id="Group_6412" data-name="Group 6412" transform="translate(55.613 79.083)">
            <path id="Path_20256" data-name="Path 20256" d="M260.3,248.615c-.87-2.329-3.358-3.692-6.05-4.55.01.2.01.4.016.6,3.906,1.52,6.883,4.433,5.153,9.083-1.059,2.846-3.277,5.5-2.595,8.7.058.268.665.11.608-.162C256.389,257.394,262.157,253.591,260.3,248.615Z" transform="translate(-254.249 -244.065)"/>
          </g>
          <g id="Group_6413" data-name="Group 6413" transform="translate(0 77.135)">
            <path id="Path_20257" data-name="Path 20257" d="M189.832,241.837c-.133,4.44-3.623,4.944-5.1,8.4-.808,1.889.247,4.284.97,6,1.593,3.784,4.094,7.1,6.172,10.613,3.943,6.672,12.907,23.8,21.585,13.021.143-.178-.329-.091-.386-.068-3.956,1.6-11.209,2.616-13-2.511-.055-.157-.645,0-.607.162,1.41,5.9,9.738,9.064,14.529,11.558,8.046,4.19,16.431,8.323,23.2,14.447.13.118.684-.112.57-.214-10.215-9.242-24.081-12.7-34.569-21.372a11.365,11.365,0,0,1-2.689-3.23c-.574-1.026-1.029-.48-.356.3a7.34,7.34,0,0,0,5.185,2.333,17.166,17.166,0,0,0,5.655-.538c.452-.1,2.083-1.053,1.28-.056a5.944,5.944,0,0,1-7.666,1.627c-4.406-2.259-7.327-7.559-9.781-11.619-2.9-4.8-6.175-9.53-8.519-14.618-1.456-3.161-1.809-5.932.971-8.28a7.654,7.654,0,0,0,3.16-6.12c0-.117-.6-.03-.608.163Z" transform="translate(-184.441 -241.62)"/>
          </g>
          <g id="Group_6414" data-name="Group 6414" transform="translate(5.389 99.32)">
            <path id="Path_20258" data-name="Path 20258" d="M191.208,269.707a56.213,56.213,0,0,0,9.238,20.562c5.832,7.9,16.758,10.858,24.3,16.761.106.083.664-.019.588-.193-1.561-3.569-6.548-4.664-9.7-6.337-.149-.08-.711.148-.49.265,2.438,1.3,5.027,2.239,7.379,3.7a23.693,23.693,0,0,1,1.988,1.714,43,43,0,0,0-3.624-2.446c-5.079-3.2-10.505-5.786-15.359-9.348-4.006-2.939-6.319-6.878-8.486-11.25a58.421,58.421,0,0,1-5.233-13.592c-.037-.174-.646-.025-.608.162Z" transform="translate(-191.206 -269.468)"/>
          </g>
          <g id="Group_6415" data-name="Group 6415" transform="translate(67.002 143.343)">
            <path id="Path_20259" data-name="Path 20259" d="M268.586,330.848c1.957.61,3.8,1.5,5.68,2.3.835.354,2.544,1.355,3.474,1.01,2.763-1.024,3.4-4.8,3.13-7.281,0-.041-.084-.049-.109-.05-4.124-.08-12.044-3.16-10.555,3.982.029.144.637,0,.608-.162a27.868,27.868,0,0,1,0-5.866l-.5.212h1.676c.6,0,.614-.183.323-.088a4.811,4.811,0,0,0-1.669.808,5.515,5.515,0,0,0-1.7,5.1c.013.131.625.011.607-.162-.265-2.566.464-5.071,3.414-5.663.08-.017.554-.253.248-.253h-2.513c-.12,0-.5.039-.5.212a27.92,27.92,0,0,0,0,5.866l.608-.162c-.582-2.785.016-4.548,3.273-4.292,1.785.14,3.538.547,5.324.7,2.414.2.131,7.363-2.352,6.679-2.758-.758-5.248-2.274-7.978-3.125-.145-.045-.688.185-.5.245Z" transform="translate(-268.545 -324.728)"/>
          </g>
          <g id="Group_6416" data-name="Group 6416" transform="translate(64.887 135.691)">
            <path id="Path_20260" data-name="Path 20260" d="M265.89,315.382a19.467,19.467,0,0,0,1.263,6.347c.095.256.612.178.611-.1a38.091,38.091,0,0,0-.424-6.348c-.048-.28-.612-.159-.612.1v.419a.205.205,0,0,0,.135.2c4.7,2.443,10.992,3.081,12.44,9.083.072.3.68.14.607-.162a8.681,8.681,0,0,0-4.611-5.871c-1.122-.586-7.954-2.576-7.954-3.7l-.613.1a37.509,37.509,0,0,1,.414,6.223l.612-.1a18.964,18.964,0,0,1-1.252-6.223c-.01-.335-.625-.255-.617.038Z" transform="translate(-265.89 -315.122)"/>
          </g>
          <g id="Group_6417" data-name="Group 6417" transform="translate(9.159 109.362)">
            <path id="Path_20261" data-name="Path 20261" d="M195.941,282.326c1.957,6.9,2.862,14.622,8.4,19.728,5.855,5.4,14.2,6.948,21.409,9.664.174.065.728-.194.486-.285-7.48-2.816-14.913-4.556-21.33-9.612-5.685-4.478-6.522-13.175-8.36-19.657-.057-.2-.663-.037-.607.162Z" transform="translate(-195.937 -282.073)"/>
          </g>
          <g id="Group_6418" data-name="Group 6418" transform="translate(21.73 132.831)">
            <path id="Path_20262" data-name="Path 20262" d="M218.425,315.134a17.625,17.625,0,0,0,12.207,9.417c.147.035.682-.224.429-.308-4.027-1.33-8.339-2.435-11.344-5.6-2.718-2.864-3.367-5.906-7.506-7.1-.158-.046-.673.229-.428.307,3.54,1.142,7.166,2.033,10.475,3.771.172.091.732-.159.484-.29a34.614,34.614,0,0,0-5.521-2.233c-.825-.268-1.675-.514-2.505-.766-2.282-.691.695,1.389,1.076,1.769,2.212,2.2,3.107,5.088,5.83,6.908,2.412,1.611,6.322,2.49,8.31,2.965-4.981-1.191-8.566-4.58-10.9-9-.108-.2-.7-.006-.607.162Z" transform="translate(-211.717 -311.532)"/>
          </g>
          <g id="Group_6419" data-name="Group 6419" transform="translate(25.097 0.42)">
            <path id="Path_20263" data-name="Path 20263" d="M216.357,146.461c.95-.423,12.924-1.149,13.226-.117a19.52,19.52,0,0,1,.439,2.3c.6,3.587,1.076,7.2,1.571,10.8,1.715,12.485,3.3,24.987,4.9,37.487,2.866,22.393,5.194,44.934,8.766,67.229.034.215.645.07.607-.163-3.285-20.506-5.447-41.233-8.076-61.83-1.581-12.374-3.16-24.75-4.813-37.115-.825-6.164-1.06-12.954-2.815-18.952-.022-.075-.121-.094-.187-.1-4.273-.08-9.805-1.606-13.865.2-.386.171-.033.383.243.26Z" transform="translate(-215.944 -145.323)"/>
          </g>
          <g id="Group_6420" data-name="Group 6420" transform="translate(58.048 133.204)">
            <path id="Path_20264" data-name="Path 20264" d="M257.306,319.838c.871,8.8,1.822,17.593,2.654,26.4.023.249.594.112.61-.109.163-2.33,1.838-8.168,5.741-5.252.145.108.527.01.543-.2.746-9.632-1.122-19.058-2.517-28.546-.037-.247-.611-.117-.611.109v2.513c0,.3.614.2.614-.055,0-2.731-.277-.161-.141.728.32,2.1.66,4.2.978,6.306a111.429,111.429,0,0,1,1.263,12.646c.06,1.59,0,3.178-.077,4.766-.065,1.44-.625.492-1.278.444a3.208,3.208,0,0,0-2.353.56,7.42,7.42,0,0,0-2.338,3.638,9.42,9.42,0,0,0-.388,1.671,17.442,17.442,0,0,0,.014-5.017c-.685-6.925-1.424-13.844-2.109-20.769-.026-.257-.635-.113-.607.163Z" transform="translate(-257.305 -312)"/>
          </g>
          <g id="Group_6421" data-name="Group 6421" transform="translate(16.364 2.119)">
            <path id="Path_20265" data-name="Path 20265" d="M205.461,151.16c1.632-.841,7.175-4.744,7.645-2.19.242,1.318.468,2.639.694,3.961.663,3.88,1.292,7.767,1.918,11.653q2.617,16.224,5.117,32.468c2.862,18.392,5.608,36.8,8.581,55.177.025.159.637.022.607-.162-5.631-34.8-9.909-69.919-16.551-104.546-.021-.108-.276-.052-.335-.036a42.771,42.771,0,0,0-8.037,3.555c-.361.186.2.2.36.119Z" transform="translate(-204.981 -147.457)"/>
          </g>
          <g id="Group_6422" data-name="Group 6422" transform="translate(16.703 5.407)">
            <path id="Path_20266" data-name="Path 20266" d="M205.41,151.875c4.483,30.619,10.366,61.06,14.246,91.765.032.251.641.1.608-.162-3.88-30.705-9.764-61.147-14.247-91.766-.037-.252-.646-.1-.607.163Z" transform="translate(-205.408 -151.583)"/>
          </g>
          <g id="Group_6423" data-name="Group 6423" transform="translate(38.905)">
            <path id="Path_20267" data-name="Path 20267" d="M235.987,160.435a76.249,76.249,0,0,0-1.053-11.228c-.155-.958-.367-1.9-.592-2.848-.445-1.868-.261-.568-.048-.441a12.879,12.879,0,0,0,5.885,1.715c1.706.142,1.361,2.364,1.538,3.865q.379,3.206.753,6.412,2.257,19.325,4.473,38.654c2.824,24.473,5.486,48.974,8.578,73.416.084.66.168,1.32.263,1.978.033.221.643.078.608-.163-2.847-19.544-4.672-39.283-6.938-58.9-2.522-21.833-4.934-43.681-7.6-65.5-.01-.076-.131-.1-.188-.1-2.966-.069-5.463-.485-7.8-2.454-.128-.108-.665-.034-.585.2,1.632,4.848,2.029,10.37,2.094,15.457,0,.269.611.142.609-.071Z" transform="translate(-233.276 -144.796)"/>
          </g>
          <g id="Group_6424" data-name="Group 6424" transform="translate(46.453 134.03)">
            <path id="Path_20268" data-name="Path 20268" d="M242.753,313.345c1.6,11.214,3.75,22.361,6.37,33.381.049.206.387.149.5.054a5.876,5.876,0,0,1,7.442-.241c.219.144.755-.158.469-.347-1.753-1.157-3.685-1.878-5.773-1.067a10.048,10.048,0,0,0-2.425,1.29c.761-.562-.785-4.952-.961-5.742q-3.019-13.642-5.019-27.49c-.04-.276-.648-.124-.608.162Z" transform="translate(-242.751 -313.037)"/>
          </g>
          <g id="Group_6425" data-name="Group 6425" transform="translate(35.553 128.217)">
            <path id="Path_20269" data-name="Path 20269" d="M229.141,306.068a28.324,28.324,0,0,1,2.933,1.677c.177.11.734-.12.479-.31l-1.676-1.257c-.126-.094-.616.026-.543.236,3.968,11.544,4.826,23.919,9.637,35.2.057.132.237.111.349.087,3.711-.833,4.823,1.021,5.963,3.518.1.228.7.041.607-.162-.742-1.625-1.834-3.736-3.87-3.92-1.206-.11-2.386.445-3.046-1.1a62.086,62.086,0,0,1-2.432-7.2c-1.4-4.843-2.29-9.829-3.356-14.749q-.809-3.732-1.833-7.409c-.785-2.843-.374-3.81-2.732-4.909-.194-.092-.747.185-.479.308Z" transform="translate(-229.068 -305.741)"/>
          </g>
          <g id="Group_6426" data-name="Group 6426" transform="translate(46.235 161.714)">
            <path id="Path_20270" data-name="Path 20270" d="M242.488,349.952A228.552,228.552,0,0,0,258.576,379.6c.12.182.542.023.586-.158a204.361,204.361,0,0,0,4.676-31.492c.022-.277-.591-.17-.61.064-.481,5.962-1.258,11.9-2.137,17.812q-.682,4.578-1.549,9.126c-.238,1.253-.511,2.5-.8,3.745-.014.059-.9-1.376-1.117-1.73A264.316,264.316,0,0,1,243.1,349.79c-.108-.235-.706-.052-.607.162Z" transform="translate(-242.477 -347.788)"/>
          </g>
          <g id="Group_6427" data-name="Group 6427" transform="translate(58.192 184.107)">
            <path id="Path_20271" data-name="Path 20271" d="M257.681,377.811a11.687,11.687,0,0,0,5.9-1.507l-.392-.28a5.065,5.065,0,0,1-4.669,2.172c-.3-.018-.627.4-.208.454a13.754,13.754,0,0,0,3.849,0c-.059-.124-.117-.249-.177-.374a22.906,22.906,0,0,1-2.658,1.844c-.191.107-.247.385.033.413a13.476,13.476,0,0,0,2.593.212c-.077-.108-.155-.216-.23-.324-1.2,1.428-.891,2.877-.467,4.576.072.29.679.129.607-.163-.378-1.513-.737-2.908.37-4.224.15-.177-.046-.339-.23-.323a12.634,12.634,0,0,1-2.435-.207c.01.137.021.275.033.413a24.119,24.119,0,0,0,2.79-1.927c.2-.155.06-.406-.178-.374a13.121,13.121,0,0,1-3.692,0l-.208.454a5.9,5.9,0,0,0,5.388-2.437c.19-.27-.19-.38-.392-.281a10.766,10.766,0,0,1-5.416,1.426c-.3-.015-.617.432-.208.453Z" transform="translate(-257.486 -375.896)"/>
          </g>
          <g id="Group_6428" data-name="Group 6428" transform="translate(29.275 74.815)">
            <path id="Path_20272" data-name="Path 20272" d="M254.265,240.29c.07.168.143.335.21.506,6.118,1.491,7.917,5.077,5.436,10.6-1.686,3.751-3.868,7.273-3.5,11.538.01.123.621.01.607-.163-.507-5.934,4.091-10.145,4.861-15.741C262.418,243.1,258.2,241.231,254.265,240.29Z" transform="translate(-227.914 -239.03)"/>
            <path id="Path_20273" data-name="Path 20273" d="M221.916,256.967c-.048-.2-.1-.393-.151-.589-.257,2.037-.388,4.1-.577,6.057-.009.1.579.018.6-.132.168-1,.3-2.016.412-3.045Q222.035,258.113,221.916,256.967Z" transform="translate(-221.188 -242.301)"/>
            <path id="Path_20274" data-name="Path 20274" d="M263.159,242.734c-2.429-2.169-5.84-3.388-9.5-4.026.008.068.012.138.022.206.025.053.045.108.07.16a18.574,18.574,0,0,1,8.839,3.869C262.712,243.056,263.26,242.824,263.159,242.734Z" transform="translate(-227.79 -238.708)"/>
          </g>
          <g id="Group_6429" data-name="Group 6429" transform="translate(73.615 68.756)">
            <path id="Path_20275" data-name="Path 20275" d="M298.459,252.61c3.54-5.154,3.61-13.43,1.409-19.138-1.033-2.677-3.555-3.03-5.653-1.34-3.947,3.179-5.832,7.942-8.533,12.076-2.829,4.332-6.332,8.974-7.034,14.243-.543,4.057,3.864,6.494,7.523,5.788a11.644,11.644,0,0,0,6.32-3.629,18.38,18.38,0,0,0,2.926-4.33c.794-1.483-1,1.547-1.016,1.575-1.941,3.51-15.748,16.265-16.879,6.858-.66-5.486,4.87-10.67,6.71-15.5.075-.194-.531-.118-.605.078-1.5,3.924-11.944,16.947-3.555,19.113,2.73.705,6.133-1.885,8.112-3.339,2.955-2.168,7.426-6.031,7.782-9.985.024-.266-.535-.077-.606.079-2.443,5.36-7.148,10.58-13.7,7.9-2.865-1.171-2.618-4.444-1.957-6.879,1.293-4.773,4.636-8.992,7.272-13.094,1.57-2.44,6.828-14.31,11.14-11.156,2.352,1.72,2.359,6.5,2.457,9.074.154,4-.37,8.233-2.679,11.594-.156.227.455.167.565.009Z" transform="translate(-276.845 -231.103)"/>
          </g>
          <g id="Group_6430" data-name="Group 6430" transform="translate(15.434 108.38)">
            <path id="Path_20276" data-name="Path 20276" d="M203.9,285.936c2.789,1.681,4.861.2,6.977-1.843,1.41-1.361,3.054-3.661,5.555-2.1,1.247.778,2.091,2.368,2.819,3.59,1.432,2.407,2.524,5,3.926,7.431a14.815,14.815,0,0,0,1.872,2.543c1.553,1.714-2.968,1.2-3.657,1.149-4.4-.3-8.671-3.082-11.7-6.118-.518-.519,1.717.225,1.883.26a11.911,11.911,0,0,0,3.987.136,4.355,4.355,0,0,0,3.109-2.254c.18-.276-.439-.275-.579-.062-2.125,3.244-6.32,1.8-9.171,1.089-.142-.036-.658.1-.455.331,4.241,4.832,11.559,8.8,18.01,6.325.135-.053.253-.237.1-.343-4.842-3.41-5.138-10.656-9.676-14.419-4.554-3.779-7.365,7.056-12.531,3.944-.221-.133-.758.169-.47.342Z" transform="translate(-203.814 -280.84)"/>
          </g>
          <g id="Group_6431" data-name="Group 6431" transform="translate(0.377 54.961)">
            <path id="Path_20277" data-name="Path 20277" d="M185.436,246.576c.887-.637,6.134-1.98,3.007-1.416a5.839,5.839,0,0,0-1.7.471c-1.752.816-1.681,2.747-1.426,4.373.021.137.558-.033.6-.135,3.073-7.08,8.482,1.463,10.292,4.326.078.123.647-.035.607-.162-2.343-7.583-4.794-15.88-3.3-23.861,1.252-6.693,7.07-11.355,11.234-16.308.121-.143-.457-.06-.549.049-3.825,4.55-8.465,8.535-10.665,14.192-2.641,6.793-.445,15.122,1.4,21.826q.4,1.421.835,2.834,1.224,1.379.27.055c-.654-1-1.374-1.958-2.123-2.893a8.5,8.5,0,0,0-4.6-3.346,3.16,3.16,0,0,0-1.69.3,3.657,3.657,0,0,0-1.264,1.086,3.775,3.775,0,0,0-.554.891c1.347-2.192-3.382-4.007,4.225-3.42.093.006.641-.187.447-.238-2.329-.623-3.567-.029-5.51,1.367-.247.176.359.087.464.012Z" transform="translate(-184.913 -213.786)"/>
          </g>
          <g id="Group_6432" data-name="Group 6432" transform="translate(11.684 114.428)">
            <path id="Path_20278" data-name="Path 20278" d="M199.117,288.669c2.395,2.585,5.579,11.478,10.55,8.817,1.068-.572,3.029-2.106.762.634-1.42,1.716-3.9.485-5.271-.291-.747-.421-3.056-1.777-.731-.069,4.593,3.371,10.39,4.338,14.8,8.088.124.106.661-.13.571-.206-5.013-4.259-11.747-5.377-16.76-9.637-.114-.1-.667.108-.572.206,3.106,3.23,8.108,4.554,9.8-.575.052-.158-.511.023-.574.077-6.285,5.425-8.812-3.8-12.01-7.25-.1-.112-.664.106-.572.206Z" transform="translate(-199.107 -288.432)"/>
          </g>
          <g id="Group_6433" data-name="Group 6433" transform="translate(11.664 116.873)">
            <path id="Path_20279" data-name="Path 20279" d="M199.095,292.624c1.546,3.185,5.5,16.637,11.008,14.274a5.28,5.28,0,0,0,1.449-.954c.909-.807-.4-.118-.635.143a1.978,1.978,0,0,1-2.134.552c-1.88-.551-3.254-2.949-4.213-4.493a59.345,59.345,0,0,1-4.868-10.522c-.094-.249-.7-.075-.607.163,1.273,3.389,7.958,21.27,13.162,13.35.17-.26-.414-.245-.537-.1-5.175,6.318-10.411-9.268-12.018-12.578-.118-.244-.715-.059-.607.162Z" transform="translate(-199.082 -291.501)"/>
          </g>
          <g id="Group_6434" data-name="Group 6434" transform="translate(63.611 121.963)">
            <path id="Path_20280" data-name="Path 20280" d="M264.312,301.046c-.525,8.325,7.66,10.267,13.428,5.84.876-.672.856,1.219.926,1.91.284,2.829-2.51,3.892-5.061,3.739-2-.119-3.793-1.969-5.026-3.375-2.057-2.345-5.98-9.475-1-11.015.351-.108.295-.335-.061-.224-6.172,1.908-1.13,9.983,1.7,12.733,3.994,3.877,11.841,2.413,9.525-4.323-.022-.065-.126-.057-.176-.057a1.317,1.317,0,0,0-.782.116c-2.522,1.788-4.808,3.135-8.049,2.5-3.833-.746-5.036-4.6-4.821-8.01.008-.118-.594-.037-.607.163Z" transform="translate(-264.288 -297.891)"/>
          </g>
          <g id="Group_6435" data-name="Group 6435" transform="translate(51.899 126.557)">
            <path id="Path_20281" data-name="Path 20281" d="M260.254,310.856c0-1.935-.221-2.956-2.211-3.426a.517.517,0,0,0-.469.156c-.754,1.242-2.266,3.775-4.057,3.108-.876-.326-1.032-1.448-.879-2.23a2.764,2.764,0,0,1,.829-1.364c.566-.566,3.426-1.476.668-.429-1.384.527-3.209-1.965-3.959-2.972l-.527.256a50.363,50.363,0,0,1,4.57,2.489c.172.111.714-.135.565-.23a51.353,51.353,0,0,0-4.648-2.54c-.123-.061-.672.061-.527.257a27.58,27.58,0,0,0,3.352,3.352c.095.091.3.041.4,0A9.64,9.64,0,0,0,256,305.95c.226-.186-.168-.2-.278-.18-1.332.295-2.94.9-3.512,2.278-.383.918-.381,2.279.629,2.825a2.794,2.794,0,0,0,2.928-.443,8.1,8.1,0,0,0,2.03-2.29c.558-.831,1.527.43,1.7.854a5.858,5.858,0,0,1,.152,2.025c0,.17.607.061.607-.163Z" transform="translate(-249.587 -303.657)"/>
          </g>
          <g id="Group_6436" data-name="Group 6436" transform="translate(52.339 37.413)">
            <path id="Path_20282" data-name="Path 20282" d="M286.322,199.644c-6.869-10.783-25.548-8.242-35.945-5.5-.3.079-.34.394.014.375,8.316-.42,16.837-.84,24.9,1.633,8.774,2.693,13.384,9.645,16.535,17.8,2.644,6.844,4.676,14.277,4.4,21.665a14.749,14.749,0,0,1-3.861,9.929c-2.014,2.074-2.57.839-3.737-.752a7.652,7.652,0,0,0-1.64-1.393,7.861,7.861,0,0,1,2.942,3.381c.112.239.709.055.608-.163a6.25,6.25,0,0,0-4.732-3.875c-.155-.037-.709.182-.419.346a8.529,8.529,0,0,1,4.125,4.53c.067.154.305.137.43.071,8.355-4.429,7.486-14.976,5.822-22.914-2.043-9.742-5.814-20.86-14.549-26.468-4.1-2.635-9.076-3.649-13.847-4.176a73.7,73.7,0,0,0-8.857-.308c-1.162.013-2.324.054-3.485.094q-1.14.043-2.282.1c-.246.01-2.718.586-.84.123,9.982-2.46,27.4-4.39,33.86,5.757.128.2.714-.011.56-.253Z" transform="translate(-250.139 -191.759)"/>
          </g>
        </g>
        <path id="Path_20283" data-name="Path 20283" d="M214.914,297.572" transform="translate(-67.14 -133.919)" stroke="#fff" stroke-miterlimit="10" stroke-width="1" fill="url(#radial-gradient-53)"/>
        <path id="Path_20284" data-name="Path 20284" d="M242.217,244.14c-1.676-6.286-.837-13.828-2.932-20.951-3.352-9.219-.839-18.437-3.352-28.075-.419-2.513-5.867-12.151-10.476-9.218-3.771,2.1,2.1,11.733,2.515,15.5,1.675,10.475.418,21.789,3.352,32.265,1.257,4.609,3.352,8.381,3.771,12.989.419,5.028-2.1,9.637,2.933,12.57,8.8,5.029,3.771-11.313,3.771-16.342" transform="translate(-69.028 -111.099)" fill="url(#radial-gradient-54)"/>
        <path id="Path_20285" data-name="Path 20285" d="M246.732,279.155c-.06-.049.351-6.8.279-7.508a84.519,84.519,0,0,0-1.909-10.017c-1.176-5.21-.664-12.416-4.668-16.422-2.647-2.647-5.521-2.266-5.079-7.052a4.556,4.556,0,0,0-3.215.429c-.209,3.571-.424,8.067.786,11.008.959,5.923-.321,14.357,2.278,19.8C237.284,273.747,243.165,276.184,246.732,279.155Z" transform="translate(-70.61 -121.812)" fill="url(#radial-gradient-55)"/>
        <path id="Path_20286" data-name="Path 20286" d="M247.818,282.563a78.053,78.053,0,0,0-2.933-14.247c-10.488,3.932-5.624-12.416-11-15.59-1.789,3.261.424,7.587.967,10.98.381,2.376-.238,7.45,1.112,9.341,1.075,1.5,5.439,3.086,7.165,4.916,2.011,2.131,4.363,4.859,5.11,7.532" transform="translate(-70.857 -124.8)" fill="url(#radial-gradient-56)"/>
        <path id="Path_20287" data-name="Path 20287" d="M257.336,321.211" transform="translate(-75.766 -138.726)" fill="none" stroke="#707070" stroke-miterlimit="10" stroke-width="1"/>
        <path id="Path_20288" data-name="Path 20288" d="M257.992,287.971c.42-10.056-2.513-19.274-3.771-28.912,0-3.352,0-15.5-2.1-17.6-5.448-5.866-3.771,10.056-3.352,12.151.838,6.7,3.352,13.408,3.771,19.694.419,5.867-1.676,11.732,5.028,13.828a15.576,15.576,0,0,0-.42-8.8" transform="translate(-73.909 -122.247)" fill="url(#radial-gradient-57)"/>
        <path id="Path_20289" data-name="Path 20289" d="M199.618,173.763c1.666,5.33,2.024,10.96,3.9,16.2,1.14,3.174,3.126,5.217,2.394,8.8-.87,4.261-4.362,5.483-7.279,8.088-5.479,4.891-7.816,11.168-10.4,17.82-3.469,8.939-4.929,10.3-10.578,2.572-3.634-4.973-10.511-7.007-12.955-12.561-2.65-6.023.5-10.871,6.976-11.3,8.38-.559,10.615,5.586,17.319-1.118,3.911-3.352,8.38-11.732,9.5-15.643s-.559-8.939-.559-12.85Z" transform="translate(-56.74 -108.743)" fill="url(#radial-gradient-58)"/>
        <path id="Path_20290" data-name="Path 20290" d="M192.426,219.143c-5.028,8.939-9.5,10.615-19,12.85-13.967,2.235-34.639,8.38-15.643,21.789,7.822,5.587,8.381,5.028,9.5,14.525,1.117,7.263,1.676,12.292,6.7,17.879,5.587,5.586,25.141,14.525,31.845,8.939-12.292-4.47-12.292-11.175-16.2-22.348-2.794-7.822-12.291-19-11.174-27.376,11.733,12.849,8.38-14.526,8.939-20.672" transform="translate(-53.968 -117.971)" fill="url(#radial-gradient-59)"/>
        <path id="Path_20291" data-name="Path 20291" d="M277.917,291.307c-5.586-2.794-4.47-8.381-.558-12.85,2.235-2.235,6.7-2.793,9.5-5.028,4.47-3.912,7.822-11.733,12.851-13.408,3.352,8.38-1.118,11.732-7.263,16.761-8.381,7.263-7.263,8.938,3.911,11.173,4.469,1.118,14.525,2.794,3.91,7.263-4.468,2.235-16.2-6.145-15.084,4.47-3.352-3.353-4.47-7.822-9.5-10.057" transform="translate(-79.169 -126.283)" fill="url(#radial-gradient-60)"/>
      </g>
      <g id="Group_6440" data-name="Group 6440" transform="translate(145.333 319.174)">
        <path id="Path_20292" data-name="Path 20292" d="M237.676,393.488a61.343,61.343,0,0,0,8.343.541c2.371.019-4.9,1.333-4.2,1.179a39,39,0,0,1-7.638.82c-.325.006-1.965.663-1.136.658,4.632-.024,9.259-.226,13.889-.038q1.917.09,3.814.355c2.282.281-2.981.814-3.4.895-2.757.537-5.564.817-8.357,1.082-8.766.831-17.549.954-26.157,2.985-.228.053-1.26.52-.506.563,15.741.9,31.46-.58,47.188-1.049a180.44,180.44,0,0,1,24.19.739c.667.07,4.811.7,4.2.836-2.21.481-4.449.834-6.686,1.16-3.772.55-7.579.862-11.38,1.122-14.854,1.013-29.753.482-44.566,2.183-13.645,1.567-27.293,3.753-40.288,8.327-.082.029-.9.428-.425.482,17.205,1.975,34.443.264,51.557-1.789,9.361-1.122,18.709-2.328,28.1-3.125q7.269-.617,14.564-.749c2.449-.047,4.9-.01,7.346.055q1.466.045,2.932.123c2.9.135.612.684-.461,1.056-17.29,5.989-36.467,3.857-54.428,4.313-19.2.487-38.4,1.616-57.545,3.2-.26.021-1.793.639-.951.648,25.369.26,50.633-2.355,75.946-3.6a377.761,377.761,0,0,1,37.983-.176c3.469.178,6.932.46,10.389.793,1.539.147,3.334.029,1.078,1.4a19.512,19.512,0,0,1-4.668,1.822c-4.852,1.416-10,1.818-15,2.4-24.386,2.838-48.951,3.731-73.377,6.165-6.537.652-13.079,1.24-19.642,1.563-3.028.149-6.059.2-9.091.187-.672,0-4.882.609-1.077.6q3.078-.008,6.157-.041c12.9-.115,25.79-.473,38.683-.789,26.693-.653,53.431-1.138,80.082.836.339.026,1.973-.6,1.136-.658-42.619-3.158-85.335-.038-128,0-.323,0-1.974.639-1.136.658,12.28.292,24.492-.951,36.693-2.173,13.164-1.318,26.364-2.063,39.555-3.042,11.079-.822,22.127-1.819,33.158-3.121,6.595-.778,14.6-1.479,19.936-5.883.12-.1.105-.217-.064-.235-20.283-2.237-40.68-1.647-61.011-.453-10.68.627-21.35,1.426-32.029,2.068q-9,.54-18.015.847c-2.514.084-5.029.133-7.544.173-1.5.023-3.008.029-4.513.033-1.394,0-2.689.4-3.9.5,21.438-1.77,43.02-3.128,64.539-3.149,17.189-.017,34.844.484,51.1-5.986.309-.123.552-.381.077-.413-17.346-1.2-34.615.89-51.807,2.992-8.833,1.08-17.667,2.131-26.546,2.758-4.807.339-9.624.482-14.442.461-1.939-.009-3.877-.083-5.814-.168q-2.1-.1-4.2-.278c-.693-.054-2.82-.641-3.422-.429,17.636-6.208,37.253-8.19,55.841-8.835,15.979-.554,32.092-.23,47.758-3.9.1-.023,1.17-.471.652-.552-19.242-3.065-38.68-1.076-58.023-.4-5.052.178-10.1.211-15.158.068q-1.5-.05-3.008-.127a29.032,29.032,0,0,0,4.511-.744c2.374-.345,4.77-.542,7.16-.738,8.8-.723,17.6-.989,26.157-3.351.088-.025,1.174-.468.652-.552-5.926-.955-11.918-.632-17.894-.55-1.19.017-1.894.681.327.554,1.43-.081,2.848-.315,4.26-.538a45.471,45.471,0,0,0,8.1-2.17c.227-.081.937-.492.277-.493a66.272,66.272,0,0,1-9.412-.52c-.391-.057-1.853.575-1.432.636Z" transform="translate(-174.919 -392.848)" fill="url(#linear-gradient)"/>
      </g>
    </g>
  </g>
</svg>
