<svg xmlns="http://www.w3.org/2000/svg" xmlns:xlink="http://www.w3.org/1999/xlink" width="370" height="300" viewBox="0 0 370 300">
  <defs>
    <radialGradient id="radial-gradient" cx="0.5" cy="0.5" r="0.5" gradientUnits="objectBoundingBox">
      <stop offset="0" stop-color="#0094d6"/>
      <stop offset="1" stop-color="#002c9a"/>
    </radialGradient>
  </defs>
  <g id="Group_7221" data-name="Group 7221" transform="translate(-775 -1831)">
    <path id="Rectangle_646" data-name="Rectangle 646" d="M10,0H360a10,10,0,0,1,10,10V300a0,0,0,0,1,0,0H0a0,0,0,0,1,0,0V10A10,10,0,0,1,10,0Z" transform="translate(775 1831)" fill="url(#radial-gradient)"/>
    <g id="Group_5188" data-name="Group 5188" transform="translate(763.332 1802.015)">
      <g id="Group_5131" data-name="Group 5131" transform="translate(91.624 117.15)">
        <rect id="Rectangle_866" data-name="Rectangle 866" width="33.768" height="44.684" transform="translate(90.921 111.927)" fill="#fdf2f4"/>
        <path id="Path_18552" data-name="Path 18552" d="M280.818,329.79H189.059a2.6,2.6,0,0,1-2.6-2.6h0a2.449,2.449,0,0,1,2.448-2.448h92.063a2.449,2.449,0,0,1,2.448,2.448h0A2.6,2.6,0,0,1,280.818,329.79Z" transform="translate(-127.134 -173.09)" fill="#8eb5e9"/>
        <path id="Path_18576" data-name="Path 18576" d="M5.349,0H210.26a5.349,5.349,0,0,1,5.349,5.349V128.92a5.349,5.349,0,0,1-5.349,5.349H5.349A5.349,5.349,0,0,1,0,128.92V5.349A5.349,5.349,0,0,1,5.349,0Z" transform="translate(215.609 134.269) rotate(180)" fill="#bedbfb"/>
        <rect id="Rectangle_868" data-name="Rectangle 868" width="199.074" height="112.302" transform="translate(8.268 8.267)" fill="#fff"/>
        <rect id="Rectangle_869" data-name="Rectangle 869" width="52.03" height="20.764" transform="translate(19.364 86.106)" fill="#56c4cf"/>
        <rect id="Rectangle_870" data-name="Rectangle 870" width="52.03" height="20.764" transform="translate(81.759 86.106)" fill="#27a3f2"/>
        <rect id="Rectangle_871" data-name="Rectangle 871" width="52.03" height="20.764" transform="translate(144.153 86.106)" fill="#00c278"/>
      </g>
      <g id="Group_5133" data-name="Group 5133" transform="translate(110.988 134.659)">
        <g id="Group_5132" data-name="Group 5132" transform="translate(0 0)">
          <rect id="Rectangle_872" data-name="Rectangle 872" width="44.517" height="4.185" fill="#dee6fc"/>
          <rect id="Rectangle_873" data-name="Rectangle 873" width="11.795" height="2.705" transform="translate(76.223 1.628)" fill="#dee6fc"/>
          <rect id="Rectangle_874" data-name="Rectangle 874" width="17.122" height="2.705" transform="translate(102.857 1.628)" fill="#dee6fc"/>
          <rect id="Rectangle_875" data-name="Rectangle 875" width="17.122" height="2.705" transform="translate(132.281 1.628)" fill="#dee6fc"/>
          <rect id="Rectangle_876" data-name="Rectangle 876" width="17.122" height="2.705" transform="translate(161.705 1.628)" fill="#dee6fc"/>
        </g>
      </g>
      <rect id="Rectangle_877" data-name="Rectangle 877" width="114.516" height="70.986" rx="3.95" transform="translate(237.46 88.74)" fill="#88d4ef"/>
      <rect id="Rectangle_878" data-name="Rectangle 878" width="69.211" height="70.215" rx="3.95" transform="translate(260.112 117.26)" fill="#524cb3"/>
      <path id="Path_18553" data-name="Path 18553" d="M142.648,88.74h-97.5a9.057,9.057,0,1,0,0,18.114H134.7l5.532,6.975v-6.975h2.419a9.057,9.057,0,0,0,0-18.114Z" transform="translate(3 0)" fill="#e488c7"/>
      <g id="Group_5141" data-name="Group 5141" transform="translate(269.228 125.433)">
        <g id="Group_5140" data-name="Group 5140">
          <g id="Group_5135" data-name="Group 5135">
            <rect id="Rectangle_879" data-name="Rectangle 879" width="5.771" height="1.731" fill="#e488c7"/>
            <g id="Group_5134" data-name="Group 5134" transform="translate(8.849)">
              <rect id="Rectangle_880" data-name="Rectangle 880" width="23.229" height="1.731" fill="#fff"/>
            </g>
            <rect id="Rectangle_881" data-name="Rectangle 881" width="3.799" height="1.731" transform="translate(8.849 3.03)" fill="#fff"/>
            <rect id="Rectangle_882" data-name="Rectangle 882" width="21.57" height="1.731" transform="translate(29.41 6.06)" fill="#e488c7"/>
            <rect id="Rectangle_883" data-name="Rectangle 883" width="11.999" height="1.731" transform="translate(13.538 3.03)" fill="#fff"/>
            <rect id="Rectangle_884" data-name="Rectangle 884" width="3.799" height="1.731" transform="translate(8.849 12.12)" fill="#fff"/>
            <rect id="Rectangle_885" data-name="Rectangle 885" width="4.304" height="1.731" transform="translate(13.538 12.12)" fill="#e6ca76"/>
            <rect id="Rectangle_886" data-name="Rectangle 886" width="19.67" height="1.731" transform="translate(8.849 6.06)" fill="#e488c7"/>
            <rect id="Rectangle_887" data-name="Rectangle 887" width="42.13" height="1.731" transform="translate(8.849 9.09)" fill="#fff"/>
          </g>
          <g id="Group_5137" data-name="Group 5137" transform="translate(0 20.009)">
            <rect id="Rectangle_888" data-name="Rectangle 888" width="5.771" height="1.731" fill="#e488c7"/>
            <g id="Group_5136" data-name="Group 5136" transform="translate(8.849)">
              <rect id="Rectangle_889" data-name="Rectangle 889" width="23.229" height="1.731" fill="#fff"/>
            </g>
            <rect id="Rectangle_890" data-name="Rectangle 890" width="3.799" height="1.731" transform="translate(8.849 3.03)" fill="#fff"/>
            <rect id="Rectangle_891" data-name="Rectangle 891" width="21.57" height="1.731" transform="translate(29.41 6.06)" fill="#e488c7"/>
            <rect id="Rectangle_892" data-name="Rectangle 892" width="11.999" height="1.731" transform="translate(13.538 3.03)" fill="#fff"/>
            <rect id="Rectangle_893" data-name="Rectangle 893" width="3.799" height="1.731" transform="translate(8.849 12.12)" fill="#fff"/>
            <rect id="Rectangle_894" data-name="Rectangle 894" width="4.304" height="1.731" transform="translate(13.538 12.12)" fill="#e6ca76"/>
            <rect id="Rectangle_895" data-name="Rectangle 895" width="19.67" height="1.731" transform="translate(8.849 6.06)" fill="#e488c7"/>
            <rect id="Rectangle_896" data-name="Rectangle 896" width="42.13" height="1.731" transform="translate(8.849 9.09)" fill="#fff"/>
          </g>
          <g id="Group_5139" data-name="Group 5139" transform="translate(0 40.018)">
            <rect id="Rectangle_897" data-name="Rectangle 897" width="5.771" height="1.731" fill="#e488c7"/>
            <g id="Group_5138" data-name="Group 5138" transform="translate(8.849)">
              <rect id="Rectangle_898" data-name="Rectangle 898" width="23.229" height="1.731" fill="#fff"/>
            </g>
            <rect id="Rectangle_899" data-name="Rectangle 899" width="3.799" height="1.731" transform="translate(8.849 3.03)" fill="#fff"/>
            <rect id="Rectangle_900" data-name="Rectangle 900" width="21.57" height="1.731" transform="translate(29.41 6.06)" fill="#e488c7"/>
            <rect id="Rectangle_901" data-name="Rectangle 901" width="11.999" height="1.731" transform="translate(13.538 3.03)" fill="#fff"/>
            <rect id="Rectangle_902" data-name="Rectangle 902" width="3.799" height="1.731" transform="translate(8.849 12.12)" fill="#fff"/>
            <rect id="Rectangle_903" data-name="Rectangle 903" width="4.304" height="1.731" transform="translate(13.538 12.12)" fill="#e6ca76"/>
            <rect id="Rectangle_904" data-name="Rectangle 904" width="19.67" height="1.731" transform="translate(8.849 6.06)" fill="#e488c7"/>
            <rect id="Rectangle_905" data-name="Rectangle 905" width="42.13" height="1.731" transform="translate(8.849 9.09)" fill="#fff"/>
          </g>
        </g>
      </g>
      <g id="Group_5163" data-name="Group 5163" transform="translate(39.231 148.781)">
        <rect id="Rectangle_906" data-name="Rectangle 906" width="70.819" height="70.819" rx="3.95" fill="#716ef1"/>
        <g id="Group_5162" data-name="Group 5162" transform="translate(6.09 5.929)">
          <g id="Group_5158" data-name="Group 5158" transform="translate(0 0.263)">
            <g id="Group_5144" data-name="Group 5144">
              <g id="Group_5143" data-name="Group 5143">
                <g id="Group_5142" data-name="Group 5142">
                  <path id="Path_18554" data-name="Path 18554" d="M73.6,234.248a29.349,29.349,0,1,1,29.35-29.349A29.382,29.382,0,0,1,73.6,234.248Zm0-55.207A25.858,25.858,0,1,0,99.462,204.9,25.888,25.888,0,0,0,73.6,179.041Z" transform="translate(-44.255 -175.55)" fill="#514db5"/>
                </g>
              </g>
            </g>
            <g id="Group_5147" data-name="Group 5147" transform="translate(6.111 6.111)">
              <g id="Group_5146" data-name="Group 5146">
                <g id="Group_5145" data-name="Group 5145">
                  <path id="Path_18555" data-name="Path 18555" d="M75.5,230.036A23.238,23.238,0,1,1,98.742,206.8,23.264,23.264,0,0,1,75.5,230.036Zm0-42.986A19.747,19.747,0,1,0,95.249,206.8,19.77,19.77,0,0,0,75.5,187.05Z" transform="translate(-52.264 -183.559)" fill="#514db5"/>
                </g>
              </g>
            </g>
            <g id="Group_5149" data-name="Group 5149" transform="translate(27.603 6.111)">
              <g id="Group_5148" data-name="Group 5148">
                <path id="Path_18556" data-name="Path 18556" d="M82.18,230.036a1.746,1.746,0,1,1,0-3.491,19.747,19.747,0,0,0,0-39.494,1.746,1.746,0,1,1,0-3.491,23.238,23.238,0,1,1,0,46.477Z" transform="translate(-80.434 -183.559)" fill="#88d4ef"/>
              </g>
            </g>
            <g id="Group_5152" data-name="Group 5152" transform="translate(12.221 12.221)">
              <g id="Group_5151" data-name="Group 5151">
                <g id="Group_5150" data-name="Group 5150">
                  <path id="Path_18557" data-name="Path 18557" d="M77.4,225.824A17.128,17.128,0,1,1,94.529,208.7,17.147,17.147,0,0,1,77.4,225.824Zm0-30.764A13.636,13.636,0,1,0,91.037,208.7,13.652,13.652,0,0,0,77.4,195.059Z" transform="translate(-60.273 -191.568)" fill="#514db5"/>
                </g>
              </g>
            </g>
            <g id="Group_5155" data-name="Group 5155" transform="translate(18.332 18.332)">
              <g id="Group_5154" data-name="Group 5154">
                <g id="Group_5153" data-name="Group 5153">
                  <path id="Path_18558" data-name="Path 18558" d="M79.3,221.612a11.018,11.018,0,1,1,11.017-11.018A11.03,11.03,0,0,1,79.3,221.612Zm0-18.544a7.527,7.527,0,0,0-7.526,7.526,7.526,7.526,0,1,0,7.526-7.526Z" transform="translate(-68.282 -199.577)" fill="#514db5"/>
                </g>
              </g>
            </g>
            <g id="Group_5157" data-name="Group 5157" transform="translate(18.332 18.332)">
              <g id="Group_5156" data-name="Group 5156">
                <path id="Path_18559" data-name="Path 18559" d="M79.3,221.612a11.03,11.03,0,0,1-11.017-11.018,1.746,1.746,0,1,1,3.491,0,7.526,7.526,0,1,0,7.526-7.526,1.746,1.746,0,0,1,0-3.491,11.018,11.018,0,0,1,0,22.035Z" transform="translate(-68.282 -199.577)" fill="#e488c7"/>
              </g>
            </g>
          </g>
          <g id="Group_5160" data-name="Group 5160" transform="translate(27.34)">
            <g id="Group_5159" data-name="Group 5159">
              <path id="Path_18560" data-name="Path 18560" d="M109.7,206.826a2.009,2.009,0,0,1-2.009-2.009A25.624,25.624,0,0,0,82.1,179.223a2.009,2.009,0,1,1,0-4.018,29.646,29.646,0,0,1,29.612,29.612A2.009,2.009,0,0,1,109.7,206.826Z" transform="translate(-80.089 -175.205)" fill="#fff"/>
            </g>
          </g>
          <g id="Group_5161" data-name="Group 5161" transform="translate(15.85 12.221)">
            <path id="Path_18561" data-name="Path 18561" d="M78.528,226.005a17.415,17.415,0,0,1-12.99-5.837,2.009,2.009,0,0,1,3-2.673,13.37,13.37,0,1,0,9.99-22.254,2.009,2.009,0,1,1,0-4.018,17.391,17.391,0,1,1,0,34.782Z" transform="translate(-65.03 -191.223)" fill="#f0ca76"/>
          </g>
        </g>
        <path id="Path_18562" data-name="Path 18562" d="M127.136,181.324l6.3-5h-6.3" transform="translate(-57.811 -169.542)" fill="#716ef1"/>
      </g>
      <text id="Web_Design" data-name="Web Design" transform="translate(110.988 169.657)" fill="#1a1e50" font-size="8" font-family="SegoeUI, Segoe UI"><tspan x="0" y="0">Web Design</tspan></text>
      <g id="Group_5170" data-name="Group 5170" transform="translate(110.988 176.594)">
        <g id="Group_5169" data-name="Group 5169" transform="translate(0 0)">
          <g id="Group_5164" data-name="Group 5164">
            <rect id="Rectangle_907" data-name="Rectangle 907" width="11.687" height="2.284" fill="#dee6fc"/>
          </g>
          <g id="Group_5168" data-name="Group 5168" transform="translate(0 4.679)">
            <g id="Group_5165" data-name="Group 5165">
              <rect id="Rectangle_908" data-name="Rectangle 908" width="68.384" height="2.686" fill="#dee6fc"/>
            </g>
            <g id="Group_5166" data-name="Group 5166" transform="translate(0 4.637)">
              <rect id="Rectangle_909" data-name="Rectangle 909" width="68.384" height="2.686" fill="#dee6fc"/>
            </g>
            <g id="Group_5167" data-name="Group 5167" transform="translate(0 9.274)">
              <rect id="Rectangle_910" data-name="Rectangle 910" width="36.608" height="2.686" fill="#dee6fc"/>
            </g>
          </g>
        </g>
      </g>
      <g id="Group_5173" data-name="Group 5173" transform="translate(306.024 191.89)">
        <rect id="Rectangle_911" data-name="Rectangle 911" width="45.951" height="45.951" rx="3" transform="translate(0 0)" fill="#fff"/>
        <g id="Group_5172" data-name="Group 5172" transform="translate(9.974 9.216)">
          <g id="Group_5171" data-name="Group 5171">
            <rect id="Rectangle_912" data-name="Rectangle 912" width="3.995" height="7.476" transform="translate(0 18.171)" fill="#e488c7"/>
            <rect id="Rectangle_913" data-name="Rectangle 913" width="3.995" height="17.093" transform="translate(5.663 8.553)" fill="#e6ca76"/>
            <rect id="Rectangle_914" data-name="Rectangle 914" width="3.995" height="11.222" transform="translate(11.326 14.424)" fill="#716ef1"/>
            <rect id="Rectangle_915" data-name="Rectangle 915" width="3.995" height="22.444" transform="translate(16.99 3.202)" fill="#6a95f9"/>
            <rect id="Rectangle_916" data-name="Rectangle 916" width="3.995" height="25.646" transform="translate(22.653)" fill="#88d4ef"/>
          </g>
          <rect id="Rectangle_917" data-name="Rectangle 917" width="3.995" height="0.855" transform="translate(0 28.055)" fill="#dee6fc"/>
          <rect id="Rectangle_918" data-name="Rectangle 918" width="3.995" height="0.855" transform="translate(5.663 28.055)" fill="#dee6fc"/>
          <rect id="Rectangle_919" data-name="Rectangle 919" width="3.995" height="0.855" transform="translate(11.326 28.055)" fill="#dee6fc"/>
          <rect id="Rectangle_920" data-name="Rectangle 920" width="3.995" height="0.855" transform="translate(16.99 28.055)" fill="#dee6fc"/>
          <rect id="Rectangle_921" data-name="Rectangle 921" width="3.995" height="0.855" transform="translate(22.653 28.055)" fill="#dee6fc"/>
        </g>
      </g>
      <path id="Path_18563" data-name="Path 18563" d="M80.525,139.9a3.536,3.536,0,1,1-3.536-3.535A3.535,3.535,0,0,1,80.525,139.9Z" transform="translate(-5.856 -11.289)" fill="none" stroke="#88d4ef" stroke-miterlimit="10" stroke-width="4"/>
      <path id="Path_18564" data-name="Path 18564" d="M412.394,307.981a3.536,3.536,0,1,1-3.536-3.536A3.536,3.536,0,0,1,412.394,307.981Z" transform="translate(-87.389 -51.129)" fill="none" stroke="#88d4ef" stroke-miterlimit="10" stroke-width="4"/>
      <circle id="Ellipse_358" data-name="Ellipse 358" cx="2.978" cy="2.978" r="2.978" transform="translate(76.591 133.224)" fill="#dee6fc"/>
      <g id="Group_5176" data-name="Group 5176" transform="translate(64.893 226.753)">
        <g id="Group_5175" data-name="Group 5175">
          <g id="Group_5174" data-name="Group 5174">
            <rect id="Rectangle_922" data-name="Rectangle 922" width="64.012" height="43.11" rx="3" fill="#88d4ef"/>
            <rect id="Rectangle_923" data-name="Rectangle 923" width="36.578" height="57.48" transform="translate(60.746 3.266) rotate(90)" fill="#524cb3"/>
            <path id="Path_18565" data-name="Path 18565" d="M110.621,289.952a4.8,4.8,0,1,0,4.8-4.8A4.8,4.8,0,0,0,110.621,289.952Z" transform="translate(-79.559 -273.31)" fill="#e6ca76"/>
          </g>
        </g>
        <path id="Path_18566" data-name="Path 18566" d="M131.669,307.214,117.2,292.741l-10.12,10.12-20.7-20.7L74.189,294.357v18.088h57.48Z" transform="translate(-70.923 -272.601)" fill="#fff"/>
      </g>
      <g id="Group_5177" data-name="Group 5177" transform="translate(219.384 102.75)">
        <line id="Line_79" data-name="Line 79" y2="6.044" transform="translate(3.022)" fill="none" stroke="#88d4ef" stroke-linecap="round" stroke-linejoin="round" stroke-width="4"/>
        <line id="Line_80" data-name="Line 80" x1="6.044" transform="translate(0 3.022)" fill="none" stroke="#88d4ef" stroke-linecap="round" stroke-linejoin="round" stroke-width="4"/>
      </g>
      <g id="Group_5178" data-name="Group 5178" transform="translate(348.146 171.519)">
        <line id="Line_81" data-name="Line 81" y2="6.044" transform="translate(3.022)" fill="none" stroke="#88d4ef" stroke-linecap="round" stroke-linejoin="round" stroke-width="4"/>
        <line id="Line_82" data-name="Line 82" x1="6.044" transform="translate(0 3.022)" fill="none" stroke="#88d4ef" stroke-linecap="round" stroke-linejoin="round" stroke-width="4"/>
      </g>
      <g id="Group_5179" data-name="Group 5179" transform="translate(136.849 256.821)">
        <line id="Line_83" data-name="Line 83" y2="6.044" transform="translate(3.022 0)" fill="none" stroke="#88d4ef" stroke-linecap="round" stroke-linejoin="round" stroke-width="4"/>
        <line id="Line_84" data-name="Line 84" x1="6.044" transform="translate(0 3.022)" fill="none" stroke="#88d4ef" stroke-linecap="round" stroke-linejoin="round" stroke-width="4"/>
      </g>
      <path id="Path_18567" data-name="Path 18567" d="M185.417,307.676A1.677,1.677,0,1,1,183.741,306,1.677,1.677,0,0,1,185.417,307.676Z" transform="translate(-34.469 -51.498)" fill="#fff"/>
      <path id="Path_18568" data-name="Path 18568" d="M194.418,311.388a.994.994,0,1,1-.993-.993A.994.994,0,0,1,194.418,311.388Z" transform="translate(-36.926 -52.54)" fill="#fff"/>
      <circle id="Ellipse_359" data-name="Ellipse 359" cx="2.67" cy="2.67" r="2.67" transform="translate(46.326 232.413)" fill="#dee6fc"/>
      <circle id="Ellipse_360" data-name="Ellipse 360" cx="3.077" cy="3.077" r="3.077" transform="translate(307.233 258.229)" fill="#fff"/>
      <g id="Group_5180" data-name="Group 5180" transform="translate(209.855 96.292)">
        <circle id="Ellipse_361" data-name="Ellipse 361" cx="2.094" cy="2.094" r="2.094" fill="#fff"/>
        <path id="Path_18569" data-name="Path 18569" d="M293.561,115.447a1.78,1.78,0,1,1-1.781-1.78A1.78,1.78,0,0,1,293.561,115.447Z" transform="translate(-269.909 -102.201)" fill="#fff"/>
        <path id="Path_18570" data-name="Path 18570" d="M297.2,108.372a1.268,1.268,0,1,1-1.269-1.269A1.269,1.269,0,0,1,297.2,108.372Z" transform="translate(-271.015 -100.645)" fill="#fff"/>
      </g>
      <g id="Group_5183" data-name="Group 5183" transform="translate(185.925 106.323)">
        <g id="Group_5182" data-name="Group 5182">
          <g id="Group_5181" data-name="Group 5181">
            <path id="Path_18571" data-name="Path 18571" d="M233.28,111.785h12.411a.978.978,0,0,1,.977.978v10.966a.978.978,0,0,1-.977.977H242l-2.512,2.511-2.511-2.511H233.28a.978.978,0,0,1-.978-.977V112.763A.978.978,0,0,1,233.28,111.785Z" transform="translate(-232.302 -111.785)" fill="#e488c7"/>
          </g>
        </g>
        <path id="Path_18572" data-name="Path 18572" d="M243.491,118.258a1.6,1.6,0,0,0-2.254,0l-.53.53-.53-.53a1.594,1.594,0,1,0-2.254,2.254l2.784,2.784,2.784-2.784A1.593,1.593,0,0,0,243.491,118.258Z" transform="translate(-233.524 -113.209)" fill="#f9f9f9"/>
      </g>
      <g id="Group_5184" data-name="Group 5184" transform="translate(271.83 244.29)">
        <circle id="Ellipse_362" data-name="Ellipse 362" cx="10.317" cy="10.317" r="10.317" transform="translate(0 20.347) rotate(-80.43)" fill="#88d4ef"/>
        <path id="Path_18573" data-name="Path 18573" d="M358.372,299.315A6.772,6.772,0,0,0,352.7,309.8a.739.739,0,0,1,.077.655l-.7,1.927,1.927-.7a.732.732,0,0,1,.655.076,6.775,6.775,0,1,0,3.706-12.446Zm.485,8.364-1.146-1.147-2.47,1.147L357.8,304.5l1.323,1.587L361.5,304.5Z" transform="translate(-346.483 -294.203)" fill="#fff"/>
      </g>
      <g id="Group_5186" data-name="Group 5186" transform="translate(246.754 96.062)">
        <g id="Group_5185" data-name="Group 5185">
          <path id="Path_18574" data-name="Path 18574" d="M331.433,98.49l-5.475,5.668a.506.506,0,0,0-.142.351v5.018a.506.506,0,0,0,.506.506h3.706a.506.506,0,0,0,.506-.506v-2.442a1.263,1.263,0,0,1,1.263-1.263h0a1.263,1.263,0,0,1,1.263,1.263v2.442a.506.506,0,0,0,.506.506h3.706a.506.506,0,0,0,.506-.506v-5.018a.506.506,0,0,0-.142-.351L332.16,98.49A.506.506,0,0,0,331.433,98.49Z" transform="translate(-325.816 -98.336)" fill="#70c4ea"/>
        </g>
      </g>
      <g id="Group_5187" data-name="Group 5187" transform="translate(39.231 231.093)">
        <rect id="Rectangle_924" data-name="Rectangle 924" width="21.282" height="21.282" rx="3.804" transform="translate(0 0)" fill="#f0ca76"/>
        <path id="Path_18575" data-name="Path 18575" d="M55.016,292.561l-2.882-2.882a6.081,6.081,0,1,0-1.5,1.5l2.882,2.883Zm-7.851-2.408a3.942,3.942,0,1,1,3.942-3.942A3.947,3.947,0,0,1,47.165,290.153Z" transform="translate(-37.417 -276.462)" fill="#fff"/>
      </g>
    </g>
  </g>
</svg>
