<svg xmlns="http://www.w3.org/2000/svg" xmlns:xlink="http://www.w3.org/1999/xlink" width="370" height="300" viewBox="0 0 370 300">
  <defs>
    <radialGradient id="radial-gradient" cx="0.5" cy="0.5" r="0.5" gradientUnits="objectBoundingBox">
      <stop offset="0" stop-color="#0094d6"/>
      <stop offset="1" stop-color="#002c9a"/>
    </radialGradient>
    <linearGradient id="linear-gradient" x1="0.5" x2="0.5" y2="1" gradientUnits="objectBoundingBox">
      <stop offset="0" stop-color="#2fd0fc"/>
      <stop offset="0.226" stop-color="#2ab7f6"/>
      <stop offset="0.701" stop-color="#207ae7"/>
      <stop offset="1" stop-color="#1951de"/>
    </linearGradient>
    <clipPath id="clip-path">
      <rect id="Rectangle_1210" data-name="Rectangle 1210" width="50.931" height="0.245" fill="#fff"/>
    </clipPath>
    <linearGradient id="linear-gradient-2" x1="220.827" y1="-397.038" x2="221.854" y2="-397.038" gradientUnits="objectBoundingBox">
      <stop offset="0" stop-color="#17224d"/>
      <stop offset="0.114" stop-color="#2d2374"/>
      <stop offset="0.255" stop-color="#44259e"/>
      <stop offset="0.399" stop-color="#5827c1"/>
      <stop offset="0.545" stop-color="#6728dc"/>
      <stop offset="0.692" stop-color="#7229ef"/>
      <stop offset="0.842" stop-color="#7829fb"/>
      <stop offset="1" stop-color="#7b2aff"/>
    </linearGradient>
    <linearGradient id="linear-gradient-3" x1="258.406" y1="-634.836" x2="257.748" y2="-633.467" xlink:href="#linear-gradient-2"/>
    <linearGradient id="linear-gradient-4" x1="195.078" y1="-128.398" x2="196.286" y2="-128.398" gradientUnits="objectBoundingBox">
      <stop offset="0" stop-color="#1f8fe5"/>
      <stop offset="0.5" stop-color="#00aeef"/>
      <stop offset="1" stop-color="#24e3f2"/>
    </linearGradient>
    <linearGradient id="linear-gradient-5" x1="776.01" y1="-315.227" x2="775.012" y2="-315.483" gradientUnits="objectBoundingBox">
      <stop offset="0" stop-color="#00ffb6"/>
      <stop offset="0.13" stop-color="#00f7b1"/>
      <stop offset="0.321" stop-color="#00e4a5"/>
      <stop offset="0.549" stop-color="#00c392"/>
      <stop offset="0.804" stop-color="#009777"/>
      <stop offset="0.995" stop-color="#007160"/>
    </linearGradient>
    <linearGradient id="linear-gradient-6" x1="274.981" y1="-152.559" x2="276.181" y2="-152.559" gradientUnits="objectBoundingBox">
      <stop offset="0" stop-color="#00648d"/>
      <stop offset="0.5" stop-color="#1ee2b3"/>
      <stop offset="1" stop-color="#30fca4"/>
    </linearGradient>
    <linearGradient id="linear-gradient-7" x1="275.081" y1="-152.559" x2="276.282" y2="-152.559" gradientUnits="objectBoundingBox">
      <stop offset="0" stop-color="#1ea47b"/>
      <stop offset="0.289" stop-color="#1ec69a"/>
      <stop offset="0.555" stop-color="#1ee2b3"/>
      <stop offset="0.564" stop-color="#1ee3b2" stop-opacity="0.965"/>
      <stop offset="0.616" stop-color="#23e9ae" stop-opacity="0.765"/>
      <stop offset="0.671" stop-color="#27efab" stop-opacity="0.588"/>
      <stop offset="0.728" stop-color="#2af3a8" stop-opacity="0.447"/>
      <stop offset="0.787" stop-color="#2cf7a6" stop-opacity="0.337"/>
      <stop offset="0.849" stop-color="#2efaa5" stop-opacity="0.263"/>
      <stop offset="0.917" stop-color="#2ffba4" stop-opacity="0.216"/>
      <stop offset="1" stop-color="#30fca4" stop-opacity="0.2"/>
    </linearGradient>
    <linearGradient id="linear-gradient-8" x1="206.536" y1="-128.398" x2="207.799" y2="-128.398" gradientUnits="objectBoundingBox">
      <stop offset="0" stop-color="#31d7ff"/>
      <stop offset="0.185" stop-color="#31c8fe"/>
      <stop offset="0.536" stop-color="#31a3fe"/>
      <stop offset="1" stop-color="#3369fd"/>
    </linearGradient>
    <linearGradient id="linear-gradient-9" x1="301.679" y1="-152.559" x2="302.93" y2="-152.559" gradientUnits="objectBoundingBox">
      <stop offset="0" stop-color="#00ffdc" stop-opacity="0.502"/>
      <stop offset="0.077" stop-color="#00f8d0" stop-opacity="0.557"/>
      <stop offset="0.46" stop-color="#00daa0" stop-opacity="0.796"/>
      <stop offset="0.781" stop-color="#00c882" stop-opacity="0.945"/>
      <stop offset="1" stop-color="#00c278"/>
    </linearGradient>
    <linearGradient id="linear-gradient-10" x1="298.714" y1="-152.559" x2="299.968" y2="-152.559" gradientUnits="objectBoundingBox">
      <stop offset="0" stop-color="#6affd3" stop-opacity="0"/>
      <stop offset="0.03" stop-color="#68ffc2" stop-opacity="0.137"/>
      <stop offset="0.079" stop-color="#65ffab" stop-opacity="0.337"/>
      <stop offset="0.131" stop-color="#63ff96" stop-opacity="0.514"/>
      <stop offset="0.184" stop-color="#61ff85" stop-opacity="0.663"/>
      <stop offset="0.238" stop-color="#5fff77" stop-opacity="0.788"/>
      <stop offset="0.295" stop-color="#5eff6b" stop-opacity="0.882"/>
      <stop offset="0.355" stop-color="#5dff64" stop-opacity="0.949"/>
      <stop offset="0.42" stop-color="#5dff5f" stop-opacity="0.988"/>
      <stop offset="0.5" stop-color="#5dff5e"/>
      <stop offset="0.56" stop-color="#5dff60" stop-opacity="0.984"/>
      <stop offset="0.622" stop-color="#5fff66" stop-opacity="0.933"/>
      <stop offset="0.686" stop-color="#62ff71" stop-opacity="0.851"/>
      <stop offset="0.75" stop-color="#65ff81" stop-opacity="0.737"/>
      <stop offset="0.816" stop-color="#6aff95" stop-opacity="0.588"/>
      <stop offset="0.881" stop-color="#71ffad" stop-opacity="0.408"/>
      <stop offset="0.947" stop-color="#78ffc9" stop-opacity="0.196"/>
      <stop offset="1" stop-color="#7fffe4" stop-opacity="0"/>
    </linearGradient>
    <linearGradient id="linear-gradient-11" x1="0.5" y1="0" x2="0.5" y2="1" xlink:href="#linear-gradient"/>
    <linearGradient id="linear-gradient-12" x1="220.913" y1="-386.922" x2="221.939" y2="-386.922" xlink:href="#linear-gradient-2"/>
    <linearGradient id="linear-gradient-13" x1="258.507" y1="-618.579" x2="257.85" y2="-617.211" xlink:href="#linear-gradient-2"/>
    <linearGradient id="linear-gradient-14" x1="195.156" y1="-125.129" x2="196.364" y2="-125.129" xlink:href="#linear-gradient-4"/>
    <linearGradient id="linear-gradient-15" x1="776.318" y1="-307.217" x2="775.32" y2="-307.473" xlink:href="#linear-gradient-5"/>
    <linearGradient id="linear-gradient-16" x1="275.09" y1="-148.676" x2="276.29" y2="-148.676" xlink:href="#linear-gradient-6"/>
    <linearGradient id="linear-gradient-17" x1="275.19" y1="-148.676" x2="276.391" y2="-148.676" xlink:href="#linear-gradient-7"/>
    <linearGradient id="linear-gradient-18" x1="206.617" y1="-125.129" x2="207.881" y2="-125.129" xlink:href="#linear-gradient-8"/>
    <linearGradient id="linear-gradient-19" x1="301.799" y1="-148.676" x2="303.05" y2="-148.676" xlink:href="#linear-gradient-9"/>
    <linearGradient id="linear-gradient-20" x1="298.828" y1="-148.676" x2="300.083" y2="-148.676" xlink:href="#linear-gradient-10"/>
  </defs>
  <g id="Group_7227" data-name="Group 7227" transform="translate(-775 -3061)">
    <path id="Rectangle_646" data-name="Rectangle 646" d="M10,0H360a10,10,0,0,1,10,10V300a0,0,0,0,1,0,0H0a0,0,0,0,1,0,0V10A10,10,0,0,1,10,0Z" transform="translate(775 3061)" fill="url(#radial-gradient)"/>
    <g id="Group_5355" data-name="Group 5355" transform="translate(803 3087)">
      <g id="Group_5345" data-name="Group 5345" transform="translate(1)">
        <g id="Background">
          <path id="Background-2" d="M1,249.806V0H143.746V249.806Z" transform="translate(-1)" fill="#1a1e50"/>
        </g>
        <path id="Rectangle_1_copy_3" data-name="Rectangle 1 copy 3" d="M17.533,121.68V0H127.5V121.68l-54.547,34.6Z" transform="translate(-1.144)" fill="url(#linear-gradient)"/>
        <path id="Rectangle_1_copy" data-name="Rectangle 1 copy" d="M21.373,141.005V0H123.728V141.005L72.957,173.2Z" transform="translate(-1.177)" fill="#bdcefa"/>
        <path id="Path_18717" data-name="Path 18717" d="M25.427,139.574V0h94.106V139.574l-46.68,29.607Z" transform="translate(-1.213)" fill="#1a1e50"/>
        <g id="Web" transform="translate(33.27 216.934)">
          <path id="Path_18718" data-name="Path 18718" d="M37.687,224.484l-.077-.044.006.1.023,1.183.019.122.074-.1.292-.4.2.3.021.021h.335l-.055-.08-.267-.41.465-.129.119-.034-.1-.056Zm-.565-4a2.631,2.631,0,0,0,0,5.26,1.94,1.94,0,0,0,.215-.009l.056-.008,0-.045-.043-.317-.009-.041h-.045a.358.358,0,0,1-.072.007c-.036,0-.067.013-.1.013a2.147,2.147,0,0,1-1.254-.432,6.771,6.771,0,0,0,3.351-2.286,2.057,2.057,0,0,1,.062.492,2.2,2.2,0,0,1-.554,1.469l-.028.045.043.03.265.169.035.028.024-.047a2.635,2.635,0,0,0-1.944-4.327Zm-.286.872a.69.69,0,0,0,.022-.433,1.408,1.408,0,0,1,.265-.032,2.151,2.151,0,0,1,.851.188,5.373,5.373,0,0,1-1.289,1.062,4.421,4.421,0,0,1-.129-.431A1.006,1.006,0,0,0,36.835,221.355Zm-.369-.348a.236.236,0,0,1,0,.185.792.792,0,0,1-.6.4.506.506,0,0,1-.267-.053,2.124,2.124,0,0,1,.864-.536Zm-1.12.854a.809.809,0,0,0,.567.134.936.936,0,0,0,.287-.076c.047.161.084.3.134.425a6.481,6.481,0,0,1-1.357.586,2.244,2.244,0,0,1,.368-1.069Zm.185,2.745a2.189,2.189,0,0,1-.548-1.256,6.538,6.538,0,0,0,1.512-.63,3.206,3.206,0,0,0,.826,1.075,11.1,11.1,0,0,1-1.79.812Zm2.138-1.045a2.729,2.729,0,0,1-.831-1.047,6.141,6.141,0,0,0,1.495-1.232,2.078,2.078,0,0,1,.716.851,3.781,3.781,0,0,1-1.38,1.428Z" transform="translate(-34.562 -218.854)" fill="#fff"/>
          <g id="urwebsitename.com" transform="translate(9.282)">
            <text id="sreenevasainfotech.com" transform="translate(0 5)" fill="#fff" font-size="6" font-family="ArialMT, Arial"><tspan x="0" y="0">sreenevasainfotech.com</tspan></text>
          </g>
        </g>
        <g id="Group_5344" data-name="Group 5344" transform="translate(36.185 70.871)">
          <g id="Group_5338" data-name="Group 5338" transform="translate(18.904 0.001)">
            <path id="Path_18719" data-name="Path 18719" d="M57.7,78.151a1.88,1.88,0,0,1-.832-.654,1.7,1.7,0,0,1-.293-.99v-.231a.144.144,0,0,1,.039-.106.141.141,0,0,1,.105-.039h.617a.141.141,0,0,1,.105.039.144.144,0,0,1,.039.106v.182a.968.968,0,0,0,.423.808,1.827,1.827,0,0,0,1.125.317,1.533,1.533,0,0,0,1-.279.9.9,0,0,0,.337-.731.779.779,0,0,0-.173-.511,1.654,1.654,0,0,0-.5-.39,9.77,9.77,0,0,0-.967-.427,9.656,9.656,0,0,1-1.111-.491,2.061,2.061,0,0,1-.678-.582,1.479,1.479,0,0,1-.27-.909,1.569,1.569,0,0,1,.592-1.3,2.5,2.5,0,0,1,1.6-.471,3.057,3.057,0,0,1,1.25.24,1.917,1.917,0,0,1,.832.674,1.739,1.739,0,0,1,.293,1v.144a.144.144,0,0,1-.039.106.142.142,0,0,1-.106.039h-.625a.16.16,0,0,1-.106-.034.117.117,0,0,1-.039-.092v-.115a1.038,1.038,0,0,0-.4-.832,1.675,1.675,0,0,0-1.1-.332,1.52,1.52,0,0,0-.924.245.83.83,0,0,0-.327.707.792.792,0,0,0,.165.519,1.4,1.4,0,0,0,.485.361q.323.159.986.409a10.971,10.971,0,0,1,1.106.495,2.134,2.134,0,0,1,.7.6,1.486,1.486,0,0,1,.279.918,1.685,1.685,0,0,1-.279.963,1.822,1.822,0,0,1-.808.644,3.088,3.088,0,0,1-1.241.231A3.183,3.183,0,0,1,57.7,78.151Z" transform="translate(-56.573 -71.495)" fill="#3369fd"/>
            <path id="Path_18720" data-name="Path 18720" d="M65.137,73.483a.149.149,0,0,1,.076.182l-.135.626c-.006.064-.038.1-.1.1a.23.23,0,0,1-.076-.01,1.046,1.046,0,0,0-.327-.048.867.867,0,0,0-.145.009,1.078,1.078,0,0,0-.745.313,1.034,1.034,0,0,0-.293.764v2.76a.132.132,0,0,1-.144.145h-.634a.142.142,0,0,1-.106-.039.141.141,0,0,1-.039-.106V73.569a.144.144,0,0,1,.039-.106.146.146,0,0,1,.106-.038h.634a.131.131,0,0,1,.144.144v.442c0,.026,0,.041.015.044s.021,0,.034-.024a1.34,1.34,0,0,1,1.174-.654A1.238,1.238,0,0,1,65.137,73.483Z" transform="translate(-56.624 -71.511)" fill="#3369fd"/>
            <path id="Path_18721" data-name="Path 18721" d="M69.167,77c.032-.058.066-.086.105-.086a.133.133,0,0,1,.086.029l.395.24a.145.145,0,0,1,.077.125l-.019.077a1.883,1.883,0,0,1-.737.741,2.216,2.216,0,0,1-1.11.27,2.09,2.09,0,0,1-1.155-.3,1.867,1.867,0,0,1-.711-.87,3.6,3.6,0,0,1-.241-1.375,4.1,4.1,0,0,1,.105-1.069,1.843,1.843,0,0,1,.693-1.048,2.057,2.057,0,0,1,1.26-.385,1.9,1.9,0,0,1,1.395.476,2.422,2.422,0,0,1,.625,1.38q.048.357.067.866a.127.127,0,0,1-.145.144H66.82a.043.043,0,0,0-.048.049,2.413,2.413,0,0,0,.066.519,1.064,1.064,0,0,0,.423.606,1.347,1.347,0,0,0,.789.221A1.2,1.2,0,0,0,69.167,77Zm-1.939-2.655a1,1,0,0,0-.36.558,2.206,2.206,0,0,0-.087.538.043.043,0,0,0,.049.049h2.183a.043.043,0,0,0,.049-.049A2.9,2.9,0,0,0,69,74.974a1.168,1.168,0,0,0-1.775-.626Z" transform="translate(-56.654 -71.511)" fill="#3369fd"/>
            <path id="Path_18722" data-name="Path 18722" d="M74.386,77c.033-.058.067-.086.106-.086a.14.14,0,0,1,.087.029l.394.24a.145.145,0,0,1,.077.125l-.019.077a1.883,1.883,0,0,1-.737.741,2.216,2.216,0,0,1-1.11.27,2.09,2.09,0,0,1-1.155-.3,1.869,1.869,0,0,1-.712-.87,3.622,3.622,0,0,1-.24-1.375,4.046,4.046,0,0,1,.106-1.069,1.837,1.837,0,0,1,.692-1.048,2.055,2.055,0,0,1,1.26-.385,1.9,1.9,0,0,1,1.395.476,2.422,2.422,0,0,1,.626,1.38c.032.238.055.526.066.866a.127.127,0,0,1-.144.144H72.04a.043.043,0,0,0-.048.049,2.336,2.336,0,0,0,.067.519,1.058,1.058,0,0,0,.422.606,1.347,1.347,0,0,0,.789.221A1.2,1.2,0,0,0,74.386,77Zm-1.937-2.655a1,1,0,0,0-.361.558,2.207,2.207,0,0,0-.087.538.043.043,0,0,0,.049.049h2.183a.043.043,0,0,0,.049-.049,2.771,2.771,0,0,0-.058-.471,1.167,1.167,0,0,0-1.773-.626Z" transform="translate(-56.699 -71.511)" fill="#3369fd"/>
            <path id="Path_18723" data-name="Path 18723" d="M76.589,78.266a.141.141,0,0,1-.039-.106V71.717a.134.134,0,0,1,.144-.145h.616a.191.191,0,0,1,.173.1l2.943,4.761q.019.03.039.024c.013,0,.019-.017.019-.043V71.717a.144.144,0,0,1,.039-.106.148.148,0,0,1,.106-.039h.634a.148.148,0,0,1,.106.039.144.144,0,0,1,.039.106V78.16a.141.141,0,0,1-.039.106.144.144,0,0,1-.106.039h-.626a.187.187,0,0,1-.172-.1l-2.943-4.79q-.019-.028-.039-.024c-.013,0-.019.018-.019.044l.009,4.722a.134.134,0,0,1-.144.145h-.635A.14.14,0,0,1,76.589,78.266Z" transform="translate(-56.747 -71.496)" fill="#7b2aff"/>
            <path id="Path_18724" data-name="Path 18724" d="M86.087,77c.033-.058.067-.086.106-.086a.14.14,0,0,1,.087.029l.394.24a.145.145,0,0,1,.077.125l-.019.077a1.883,1.883,0,0,1-.737.741,2.216,2.216,0,0,1-1.11.27,2.09,2.09,0,0,1-1.155-.3,1.869,1.869,0,0,1-.712-.87,3.622,3.622,0,0,1-.24-1.375,4.046,4.046,0,0,1,.106-1.069,1.837,1.837,0,0,1,.692-1.048,2.055,2.055,0,0,1,1.26-.385,1.9,1.9,0,0,1,1.395.476,2.422,2.422,0,0,1,.626,1.38c.032.238.055.526.066.866a.127.127,0,0,1-.144.144H83.741a.043.043,0,0,0-.048.049,2.336,2.336,0,0,0,.067.519,1.058,1.058,0,0,0,.422.606,1.347,1.347,0,0,0,.789.221A1.2,1.2,0,0,0,86.087,77ZM84.15,74.348a1,1,0,0,0-.361.558,2.207,2.207,0,0,0-.087.538.043.043,0,0,0,.049.049h2.183a.043.043,0,0,0,.049-.049,2.771,2.771,0,0,0-.058-.471,1.167,1.167,0,0,0-1.773-.626Z" transform="translate(-56.801 -71.511)" fill="#7b2aff"/>
            <path id="Path_18725" data-name="Path 18725" d="M89.824,78.19l-2.039-6.454a.139.139,0,0,1-.009-.057c0-.07.045-.106.134-.106h.683a.187.187,0,0,1,.106.034.136.136,0,0,1,.057.091l1.577,5.242c.007.026.017.039.029.039s.023-.013.03-.039L91.959,71.7a.136.136,0,0,1,.057-.091.187.187,0,0,1,.106-.034h.664c.115,0,.157.056.125.164L90.853,78.19a.157.157,0,0,1-.164.115h-.7A.157.157,0,0,1,89.824,78.19Z" transform="translate(-56.845 -71.496)" fill="#00c278"/>
            <path id="Path_18726" data-name="Path 18726" d="M96.282,73.555a1.567,1.567,0,0,1,.673.577,1.53,1.53,0,0,1,.236.842v3.2a.141.141,0,0,1-.039.106.142.142,0,0,1-.106.039h-.634a.142.142,0,0,1-.106-.039.141.141,0,0,1-.039-.106v-.269a.04.04,0,0,0-.019-.039.032.032,0,0,0-.039.01,1.871,1.871,0,0,1-.639.385,2.345,2.345,0,0,1-.8.135,1.788,1.788,0,0,1-1.154-.361,1.311,1.311,0,0,1-.453-1.091,1.44,1.44,0,0,1,.524-1.179,2.26,2.26,0,0,1,1.467-.428h1.068a.042.042,0,0,0,.048-.048v-.25a.87.87,0,0,0-.245-.659,1.043,1.043,0,0,0-.745-.236,1.251,1.251,0,0,0-.639.145.679.679,0,0,0-.322.4.146.146,0,0,1-.164.116l-.693-.086a.2.2,0,0,1-.106-.044.085.085,0,0,1-.029-.082,1.3,1.3,0,0,1,.621-.9,2.341,2.341,0,0,1,1.313-.351A2.378,2.378,0,0,1,96.282,73.555Zm-.395,3.794a.807.807,0,0,0,.38-.683v-.558a.042.042,0,0,0-.048-.048h-.9a1.621,1.621,0,0,0-.9.221.7.7,0,0,0-.337.616.62.62,0,0,0,.255.538,1.106,1.106,0,0,0,.659.183A1.5,1.5,0,0,0,95.887,77.349Z" transform="translate(-56.892 -71.511)" fill="#00c278"/>
            <path id="Path_18727" data-name="Path 18727" d="M99.408,78.151a1.885,1.885,0,0,1-.832-.654,1.7,1.7,0,0,1-.293-.99v-.231a.144.144,0,0,1,.039-.106.142.142,0,0,1,.106-.039h.616a.145.145,0,0,1,.106.039.147.147,0,0,1,.038.106v.182a.971.971,0,0,0,.423.808,1.827,1.827,0,0,0,1.125.317,1.535,1.535,0,0,0,1-.279.9.9,0,0,0,.337-.731.779.779,0,0,0-.173-.511,1.654,1.654,0,0,0-.5-.39,9.769,9.769,0,0,0-.967-.427,9.735,9.735,0,0,1-1.111-.491,2.061,2.061,0,0,1-.678-.582,1.478,1.478,0,0,1-.269-.909,1.569,1.569,0,0,1,.591-1.3,2.5,2.5,0,0,1,1.6-.471,3.053,3.053,0,0,1,1.25.24,1.917,1.917,0,0,1,.832.674,1.732,1.732,0,0,1,.293,1v.144a.144.144,0,0,1-.039.106.14.14,0,0,1-.105.039h-.626a.16.16,0,0,1-.106-.034.117.117,0,0,1-.039-.092v-.115a1.038,1.038,0,0,0-.4-.832,1.675,1.675,0,0,0-1.1-.332,1.522,1.522,0,0,0-.924.245.832.832,0,0,0-.326.707.8.8,0,0,0,.163.519,1.417,1.417,0,0,0,.486.361q.323.159.986.409a10.971,10.971,0,0,1,1.106.495,2.134,2.134,0,0,1,.7.6,1.48,1.48,0,0,1,.279.918,1.677,1.677,0,0,1-.279.963,1.822,1.822,0,0,1-.808.644,3.086,3.086,0,0,1-1.24.231A3.188,3.188,0,0,1,99.408,78.151Z" transform="translate(-56.936 -71.495)" fill="#3369fd"/>
            <path id="Path_18728" data-name="Path 18728" d="M106.964,73.555a1.561,1.561,0,0,1,.673.577,1.53,1.53,0,0,1,.236.842v3.2a.134.134,0,0,1-.144.145h-.635a.144.144,0,0,1-.106-.039.14.14,0,0,1-.038-.106v-.269a.04.04,0,0,0-.02-.039.032.032,0,0,0-.039.01,1.871,1.871,0,0,1-.639.385,2.345,2.345,0,0,1-.8.135,1.79,1.79,0,0,1-1.154-.361,1.313,1.313,0,0,1-.452-1.091,1.438,1.438,0,0,1,.524-1.179,2.255,2.255,0,0,1,1.466-.428H106.9a.043.043,0,0,0,.049-.048v-.25a.87.87,0,0,0-.246-.659,1.043,1.043,0,0,0-.745-.236,1.251,1.251,0,0,0-.639.145.683.683,0,0,0-.322.4.146.146,0,0,1-.164.116l-.693-.086a.2.2,0,0,1-.105-.044.081.081,0,0,1-.029-.082,1.3,1.3,0,0,1,.62-.9,2.341,2.341,0,0,1,1.313-.351A2.375,2.375,0,0,1,106.964,73.555Zm-.395,3.794a.808.808,0,0,0,.381-.683v-.558a.043.043,0,0,0-.049-.048h-.894a1.623,1.623,0,0,0-.9.221.7.7,0,0,0-.337.616.62.62,0,0,0,.255.538,1.1,1.1,0,0,0,.659.183A1.5,1.5,0,0,0,106.569,77.349Z" transform="translate(-56.985 -71.511)" fill="#3369fd"/>
            <path id="Path_18729" data-name="Path 18729" d="M56.941,90.943V83.206a.164.164,0,0,1,.185-.185H58.1a.163.163,0,0,1,.184.185v7.737a.164.164,0,0,1-.184.185h-.973A.164.164,0,0,1,56.941,90.943Z" transform="translate(-56.576 -71.595)" fill="#2eccfc"/>
            <path id="Path_18730" data-name="Path 18730" d="M60,90.943V83.206a.164.164,0,0,1,.185-.185h.927a.244.244,0,0,1,.232.127l3.243,5.305c.016.031.033.042.053.035a.056.056,0,0,0,.029-.058V83.206a.164.164,0,0,1,.185-.185h.972a.164.164,0,0,1,.185.185v7.737a.164.164,0,0,1-.185.185h-.95A.241.241,0,0,1,64.647,91L61.4,85.662c-.016-.031-.033-.043-.053-.035s-.029.027-.029.057l.012,5.259a.164.164,0,0,1-.185.185h-.962A.164.164,0,0,1,60,90.943Z" transform="translate(-56.603 -71.595)" fill="#2eccfc"/>
            <path id="Path_18731" data-name="Path 18731" d="M72.949,84.179h-3.88a.061.061,0,0,0-.069.069v2.143a.061.061,0,0,0,.069.069h2.594a.164.164,0,0,1,.185.185v.787a.164.164,0,0,1-.185.185H69.069a.061.061,0,0,0-.069.069v3.255a.164.164,0,0,1-.185.185H67.84a.164.164,0,0,1-.185-.185V83.206a.164.164,0,0,1,.185-.185h5.108a.164.164,0,0,1,.185.185v.787A.164.164,0,0,1,72.949,84.179Z" transform="translate(-56.67 -71.595)" fill="#2eccfc"/>
            <path id="Path_18732" data-name="Path 18732" d="M75.413,90.89a2.494,2.494,0,0,1-1.037-1,3,3,0,0,1-.364-1.495V85.753a2.9,2.9,0,0,1,.37-1.476,2.548,2.548,0,0,1,1.037-1,3.53,3.53,0,0,1,3.081,0,2.542,2.542,0,0,1,1.037,1,2.9,2.9,0,0,1,.371,1.476v2.641a2.965,2.965,0,0,1-.371,1.495,2.535,2.535,0,0,1-1.037,1,3.543,3.543,0,0,1-3.087,0Zm2.71-1.256a1.633,1.633,0,0,0,.44-1.194v-2.7a1.649,1.649,0,0,0-.44-1.205,1.727,1.727,0,0,0-2.328,0,1.653,1.653,0,0,0-.44,1.205v2.7a1.637,1.637,0,0,0,.44,1.194,1.727,1.727,0,0,0,2.328,0Z" transform="translate(-56.725 -71.595)" fill="#2eccfc"/>
            <path id="Path_18733" data-name="Path 18733" d="M86.765,83.206v.8a.163.163,0,0,1-.184.185H84.507a.061.061,0,0,0-.069.069v6.683a.164.164,0,0,1-.185.185H83.28a.164.164,0,0,1-.185-.185V84.26a.061.061,0,0,0-.069-.069H81.032a.164.164,0,0,1-.185-.185v-.8a.164.164,0,0,1,.185-.185h5.548A.163.163,0,0,1,86.765,83.206Z" transform="translate(-56.784 -71.595)" fill="#2eccfc"/>
            <path id="Path_18734" data-name="Path 18734" d="M93.372,84.179H89.481a.061.061,0,0,0-.069.069v2.143a.061.061,0,0,0,.069.069h2.6a.163.163,0,0,1,.184.185v.787a.163.163,0,0,1-.184.185h-2.6a.061.061,0,0,0-.069.069V89.9a.061.061,0,0,0,.069.069h3.892a.164.164,0,0,1,.185.185v.788a.164.164,0,0,1-.185.185H88.253a.164.164,0,0,1-.185-.185V83.206a.164.164,0,0,1,.185-.185h5.119a.164.164,0,0,1,.185.185v.787A.164.164,0,0,1,93.372,84.179Z" transform="translate(-56.847 -71.595)" fill="#2eccfc"/>
            <path id="Path_18735" data-name="Path 18735" d="M96.165,90.879a2.468,2.468,0,0,1-1.02-.956,2.775,2.775,0,0,1-.359-1.424V85.638a2.776,2.776,0,0,1,.359-1.425,2.436,2.436,0,0,1,1.02-.95,3.322,3.322,0,0,1,1.529-.336,3.417,3.417,0,0,1,1.518.324,2.4,2.4,0,0,1,1.019.916,2.579,2.579,0,0,1,.359,1.366c0,.077-.057.124-.173.14l-.985.057h-.046c-.093,0-.139-.019-.139-.057V85.6a1.477,1.477,0,0,0-.423-1.1,1.539,1.539,0,0,0-1.129-.416,1.559,1.559,0,0,0-1.135.416,1.469,1.469,0,0,0-.428,1.1v2.953a1.45,1.45,0,0,0,.428,1.088,1.754,1.754,0,0,0,2.264.006,1.455,1.455,0,0,0,.423-1.094.12.12,0,0,1,.052-.1.165.165,0,0,1,.133-.029l.973.046c.123.016.185.035.185.058v.057a2.634,2.634,0,0,1-.359,1.384,2.389,2.389,0,0,1-1.019.921,3.4,3.4,0,0,1-1.518.324A3.286,3.286,0,0,1,96.165,90.879Z" transform="translate(-56.906 -71.595)" fill="#2eccfc"/>
            <path id="Path_18736" data-name="Path 18736" d="M106.687,83.021h.973a.164.164,0,0,1,.185.185v7.737a.164.164,0,0,1-.185.185h-.973a.164.164,0,0,1-.185-.185V87.688a.061.061,0,0,0-.069-.069H103.5a.062.062,0,0,0-.069.069v3.255a.164.164,0,0,1-.185.185h-.972a.164.164,0,0,1-.185-.185V83.206a.164.164,0,0,1,.185-.185h.972a.164.164,0,0,1,.185.185v3.185a.062.062,0,0,0,.069.069h2.93a.061.061,0,0,0,.069-.069V83.206A.164.164,0,0,1,106.687,83.021Z" transform="translate(-56.969 -71.595)" fill="#2eccfc"/>
          </g>
          <g id="Group_5339" data-name="Group 5339" transform="translate(19.312 21.345)">
            <path id="Path_18737" data-name="Path 18737" d="M59.434,93.045a.061.061,0,0,1,.019.045v.12a.061.061,0,0,1-.019.045.058.058,0,0,1-.045.019H58.353a.018.018,0,0,0-.021.021v3.338a.065.065,0,0,1-.019.045.061.061,0,0,1-.045.018h-.152a.061.061,0,0,1-.045-.018.065.065,0,0,1-.019-.045V93.294a.018.018,0,0,0-.021-.021h-.984a.064.064,0,0,1-.063-.063v-.12A.058.058,0,0,1,57,93.045a.061.061,0,0,1,.045-.019H59.39A.061.061,0,0,1,59.434,93.045Z" transform="translate(-56.985 -93.026)" fill="#fff"/>
            <path id="Path_18738" data-name="Path 18738" d="M62.685,96.385a.683.683,0,0,0,.273-.311.063.063,0,0,1,.084-.032l.094.037c.042.018.055.046.037.084a.936.936,0,0,1-.362.424,1.072,1.072,0,0,1-.587.157,1.024,1.024,0,0,1-.61-.177.931.931,0,0,1-.349-.488,2.565,2.565,0,0,1-.073-.7c0-.171,0-.3.008-.388a1.425,1.425,0,0,1,.034-.241.939.939,0,0,1,.344-.529,1.012,1.012,0,0,1,.636-.2,1,1,0,0,1,.675.22.988.988,0,0,1,.325.6,1.663,1.663,0,0,1,.029.217c.006.075.008.189.008.343q0,.068-.062.068h-1.7a.018.018,0,0,0-.021.021,2.476,2.476,0,0,0,.027.451.69.69,0,0,0,.256.405.79.79,0,0,0,.5.155A.849.849,0,0,0,62.685,96.385Zm-1.22-1.161c0,.015.007.022.021.022h1.462c.014,0,.021-.007.021-.022a2.274,2.274,0,0,0-.026-.4.709.709,0,0,0-.252-.406.815.815,0,0,0-.949,0,.665.665,0,0,0-.241.4A2.291,2.291,0,0,0,61.465,95.224Z" transform="translate(-57.022 -93.035)" fill="#fff"/>
            <path id="Path_18739" data-name="Path 18739" d="M68.759,94.256a.856.856,0,0,1,.231.633V96.64a.061.061,0,0,1-.019.045.06.06,0,0,1-.044.018h-.148a.061.061,0,0,1-.062-.062v-1.7a.663.663,0,0,0-.18-.49.634.634,0,0,0-.469-.18.679.679,0,0,0-.491.178.636.636,0,0,0-.185.481V96.64a.063.063,0,0,1-.063.062h-.146a.063.063,0,0,1-.063-.062v-1.7a.665.665,0,0,0-.178-.49.623.623,0,0,0-.466-.18.665.665,0,0,0-.49.178.641.641,0,0,0-.181.481V96.64a.064.064,0,0,1-.018.045.061.061,0,0,1-.045.018h-.152a.063.063,0,0,1-.063-.062V94.125a.064.064,0,0,1,.063-.063h.152a.058.058,0,0,1,.045.019.061.061,0,0,1,.018.045v.225a.018.018,0,0,0,.011.016.011.011,0,0,0,.016,0,.682.682,0,0,1,.3-.252,1.023,1.023,0,0,1,.422-.084.9.9,0,0,1,.469.118.746.746,0,0,1,.3.333c.007.014.015.016.026,0a.759.759,0,0,1,.319-.34.991.991,0,0,1,.488-.116A.828.828,0,0,1,68.759,94.256Z" transform="translate(-57.059 -93.035)" fill="#fff"/>
            <path id="Path_18740" data-name="Path 18740" d="M73.383,95.377c0,.157,0,.286-.01.388a1.5,1.5,0,0,1-.042.273.923.923,0,0,1-.333.515.972.972,0,0,1-.611.191.907.907,0,0,1-.411-.091.773.773,0,0,1-.3-.265c0-.007-.009-.009-.016,0a.016.016,0,0,0-.011.016v1.268a.061.061,0,0,1-.062.062h-.153a.06.06,0,0,1-.044-.018.061.061,0,0,1-.019-.045V94.125a.058.058,0,0,1,.019-.045.057.057,0,0,1,.044-.019h.153a.063.063,0,0,1,.062.063v.246c0,.011,0,.017.008.019s.012,0,.019-.008a.781.781,0,0,1,.3-.268.883.883,0,0,1,.411-.094.961.961,0,0,1,.6.188.936.936,0,0,1,.335.509A2.792,2.792,0,0,1,73.383,95.377Zm-.3.408a3.2,3.2,0,0,0,.018-.4A3.249,3.249,0,0,0,73.09,95a1.365,1.365,0,0,0-.052-.239A.627.627,0,0,0,72.8,94.4a.714.714,0,0,0-.44-.137.622.622,0,0,0-.41.137.667.667,0,0,0-.223.356.877.877,0,0,0-.05.223c-.009.082-.014.214-.014.4a3.84,3.84,0,0,0,.016.405,1.2,1.2,0,0,0,.053.234.619.619,0,0,0,.22.348.634.634,0,0,0,.408.134.684.684,0,0,0,.424-.134.659.659,0,0,0,.242-.343A1,1,0,0,0,73.088,95.785Z" transform="translate(-57.11 -93.035)" fill="#fff"/>
            <path id="Path_18741" data-name="Path 18741" d="M75.682,96.676a.064.064,0,0,1-.018-.045V93.089a.061.061,0,0,1,.018-.045.063.063,0,0,1,.045-.019h.152a.064.064,0,0,1,.063.063v3.542a.065.065,0,0,1-.019.045.061.061,0,0,1-.045.018h-.152A.062.062,0,0,1,75.682,96.676Z" transform="translate(-57.148 -93.026)" fill="#fff"/>
            <path id="Path_18742" data-name="Path 18742" d="M79.715,96.385a.681.681,0,0,0,.272-.311.063.063,0,0,1,.084-.032l.094.037c.042.018.055.046.037.084a.934.934,0,0,1-.361.424,1.074,1.074,0,0,1-.587.157,1.027,1.027,0,0,1-.611-.177.93.93,0,0,1-.348-.488,2.52,2.52,0,0,1-.074-.7c0-.171,0-.3.009-.388a1.332,1.332,0,0,1,.034-.241.938.938,0,0,1,.343-.529,1.133,1.133,0,0,1,1.312.021,1,1,0,0,1,.325.6,1.85,1.85,0,0,1,.029.217c0,.075.008.189.008.343,0,.046-.021.068-.063.068h-1.7a.018.018,0,0,0-.021.021,2.475,2.475,0,0,0,.027.451.687.687,0,0,0,.257.405.787.787,0,0,0,.5.155A.856.856,0,0,0,79.715,96.385Zm-1.221-1.161c0,.015.007.022.021.022h1.462c.014,0,.021-.007.021-.022a2.274,2.274,0,0,0-.026-.4.7.7,0,0,0-.252-.406.815.815,0,0,0-.949,0,.665.665,0,0,0-.241.4A2.391,2.391,0,0,0,78.494,95.224Z" transform="translate(-57.17 -93.035)" fill="#fff"/>
            <path id="Path_18743" data-name="Path 18743" d="M85.382,96.551a.959.959,0,0,1-.354-.518,2.5,2.5,0,0,1-.062-.655,2.891,2.891,0,0,1,.057-.65.949.949,0,0,1,.357-.515,1.136,1.136,0,0,1,1.265,0,.93.93,0,0,1,.354.513,3.735,3.735,0,0,1,0,1.306.928.928,0,0,1-.354.518,1.038,1.038,0,0,1-.63.193A1.024,1.024,0,0,1,85.382,96.551Zm1.105-.2a.694.694,0,0,0,.254-.409,3.169,3.169,0,0,0,.032-.555,3.06,3.06,0,0,0-.032-.555.689.689,0,0,0-.254-.408.755.755,0,0,0-.48-.153.747.747,0,0,0-.477.153.69.69,0,0,0-.251.408,4.874,4.874,0,0,0,0,1.11.7.7,0,0,0,.251.409.761.761,0,0,0,.483.152A.753.753,0,0,0,86.488,96.347Z" transform="translate(-57.229 -93.035)" fill="#fff"/>
            <path id="Path_18744" data-name="Path 18744" d="M89.866,93.42a.79.79,0,0,0-.113.477v.136a.018.018,0,0,0,.021.021h.6a.064.064,0,0,1,.063.063v.131a.059.059,0,0,1-.019.045.061.061,0,0,1-.045.018h-.6a.018.018,0,0,0-.021.021v2.3a.061.061,0,0,1-.062.062h-.152a.063.063,0,0,1-.063-.062v-2.3a.018.018,0,0,0-.021-.021h-.335a.061.061,0,0,1-.045-.018.059.059,0,0,1-.019-.045v-.131a.064.064,0,0,1,.063-.063h.335a.018.018,0,0,0,.021-.021v-.147a1.418,1.418,0,0,1,.07-.493.51.51,0,0,1,.242-.275,1.016,1.016,0,0,1,.479-.092h.126a.064.064,0,0,1,.063.063v.12a.061.061,0,0,1-.019.045.058.058,0,0,1-.045.019h-.105A.505.505,0,0,0,89.866,93.42Z" transform="translate(-57.264 -93.026)" fill="#fff"/>
            <path id="Path_18745" data-name="Path 18745" d="M96.688,94.258a.866.866,0,0,1,.242.642v1.74a.065.065,0,0,1-.019.045.062.062,0,0,1-.045.018h-.152a.063.063,0,0,1-.063-.062v-.225a.015.015,0,0,0-.008-.016s-.011,0-.018,0a.84.84,0,0,1-.362.254,1.336,1.336,0,0,1-.482.086,1,1,0,0,1-.613-.18A.652.652,0,0,1,94.923,96a.734.734,0,0,1,.288-.613A1.251,1.251,0,0,1,96,95.162h.628a.018.018,0,0,0,.021-.021v-.236a.653.653,0,0,0-.163-.469.675.675,0,0,0-.508-.171.822.822,0,0,0-.44.108.45.45,0,0,0-.215.29c-.011.042-.035.059-.073.053l-.163-.021c-.046-.007-.064-.027-.058-.058a.671.671,0,0,1,.309-.448,1.138,1.138,0,0,1,.644-.171A.958.958,0,0,1,96.688,94.258Zm-.281,2.083a.511.511,0,0,0,.244-.45v-.477a.018.018,0,0,0-.021-.021h-.6a1.046,1.046,0,0,0-.606.157.5.5,0,0,0-.228.435.45.45,0,0,0,.178.388.751.751,0,0,0,.456.131A1,1,0,0,0,96.408,96.341Z" transform="translate(-57.315 -93.035)" fill="#fff"/>
            <path id="Path_18746" data-name="Path 18746" d="M100.525,94.1a.059.059,0,0,1,.032.078l-.043.153c-.01.042-.037.054-.078.037a.736.736,0,0,0-.251-.032.634.634,0,0,0-.485.223.774.774,0,0,0-.191.531V96.64a.065.065,0,0,1-.019.045.061.061,0,0,1-.045.018h-.152a.061.061,0,0,1-.045-.018.065.065,0,0,1-.019-.045V94.125a.061.061,0,0,1,.019-.045.058.058,0,0,1,.045-.019h.152a.058.058,0,0,1,.045.019.061.061,0,0,1,.019.045v.346c0,.01,0,.016.008.018s.009,0,.013-.013a.863.863,0,0,1,.285-.32.735.735,0,0,1,.411-.115A.773.773,0,0,1,100.525,94.1Z" transform="translate(-57.353 -93.035)" fill="#fff"/>
            <path id="Path_18747" data-name="Path 18747" d="M103.735,94.274a.064.064,0,0,1-.045.018h-.6a.018.018,0,0,0-.021.021v1.651a.484.484,0,0,0,.12.375.577.577,0,0,0,.388.107h.11a.061.061,0,0,1,.045.019.058.058,0,0,1,.019.045v.12a.056.056,0,0,1-.063.063l-.146,0a.912.912,0,0,1-.551-.142.624.624,0,0,1-.193-.518V94.313a.018.018,0,0,0-.021-.021h-.3a.061.061,0,0,1-.062-.062v-.11a.063.063,0,0,1,.062-.063h.3a.018.018,0,0,0,.021-.021v-.587a.062.062,0,0,1,.018-.045.064.064,0,0,1,.045-.018H103a.061.061,0,0,1,.045.018.059.059,0,0,1,.019.045v.587a.018.018,0,0,0,.021.021h.6a.063.063,0,0,1,.062.063v.11A.064.064,0,0,1,103.735,94.274Z" transform="translate(-57.381 -93.029)" fill="#fff"/>
            <path id="Path_18748" data-name="Path 18748" d="M106.317,96.637a.807.807,0,0,1-.338-.249.557.557,0,0,1-.121-.346v-.057a.059.059,0,0,1,.019-.045.061.061,0,0,1,.045-.018h.147a.071.071,0,0,1,.045.015.048.048,0,0,1,.018.037v.058a.405.405,0,0,0,.191.329.8.8,0,0,0,.49.142.767.767,0,0,0,.48-.142.426.426,0,0,0,.186-.35.327.327,0,0,0-.1-.242.626.626,0,0,0-.225-.144c-.087-.034-.217-.076-.388-.128a4.547,4.547,0,0,1-.472-.169.821.821,0,0,1-.3-.222.547.547,0,0,1-.123-.365.607.607,0,0,1,.254-.511,1.09,1.09,0,0,1,.668-.191,1.216,1.216,0,0,1,.49.092.784.784,0,0,1,.33.249.571.571,0,0,1,.118.356v0a.061.061,0,0,1-.018.045.059.059,0,0,1-.045.019h-.142a.093.093,0,0,1-.045-.011.03.03,0,0,1-.018-.026v-.032a.4.4,0,0,0-.186-.332.965.965,0,0,0-.962-.011.384.384,0,0,0-.177.332.326.326,0,0,0,.165.3,2.352,2.352,0,0,0,.516.2,4.775,4.775,0,0,1,.49.165.861.861,0,0,1,.311.223.541.541,0,0,1,.131.378.644.644,0,0,1-.256.531,1.072,1.072,0,0,1-.682.2A1.269,1.269,0,0,1,106.317,96.637Z" transform="translate(-57.411 -93.035)" fill="#fff"/>
          </g>
          <g id="Group_5342" data-name="Group 5342" transform="translate(18.879 21.344)">
            <g id="Group_5341" data-name="Group 5341">
              <rect id="Rectangle_1164" data-name="Rectangle 1164" width="50.931" height="0.245" fill="#fff"/>
              <g id="Group_5340" data-name="Group 5340" clip-path="url(#clip-path)">
                <path id="Path_18749" data-name="Path 18749" d="M56.548,93.026v0Z" transform="translate(-56.548 -93.026)" fill="#fff"/>
                <rect id="Rectangle_1165" data-name="Rectangle 1165" width="1.132" height="0.245" fill="#fff"/>
                <rect id="Rectangle_1166" data-name="Rectangle 1166" width="1.132" height="0.245" transform="translate(1.132)" fill="#fff"/>
                <rect id="Rectangle_1167" data-name="Rectangle 1167" width="1.132" height="0.245" transform="translate(2.264)" fill="#fff"/>
                <rect id="Rectangle_1168" data-name="Rectangle 1168" width="1.132" height="0.245" transform="translate(3.395)" fill="#fff"/>
                <rect id="Rectangle_1169" data-name="Rectangle 1169" width="1.132" height="0.245" transform="translate(4.527)" fill="#fff"/>
                <rect id="Rectangle_1170" data-name="Rectangle 1170" width="1.132" height="0.245" transform="translate(5.659)" fill="#fff"/>
                <rect id="Rectangle_1171" data-name="Rectangle 1171" width="1.132" height="0.245" transform="translate(6.791)" fill="#fff"/>
                <rect id="Rectangle_1172" data-name="Rectangle 1172" width="1.132" height="0.245" transform="translate(7.923)" fill="#fff"/>
                <rect id="Rectangle_1173" data-name="Rectangle 1173" width="1.132" height="0.245" transform="translate(9.054)" fill="#fff"/>
                <rect id="Rectangle_1174" data-name="Rectangle 1174" width="1.132" height="0.245" transform="translate(10.186)" fill="#fff"/>
                <rect id="Rectangle_1175" data-name="Rectangle 1175" width="1.132" height="0.245" transform="translate(11.318)" fill="#fff"/>
                <rect id="Rectangle_1176" data-name="Rectangle 1176" width="1.132" height="0.245" transform="translate(12.45)" fill="#fff"/>
                <rect id="Rectangle_1177" data-name="Rectangle 1177" width="1.132" height="0.245" transform="translate(13.582)" fill="#fff"/>
                <rect id="Rectangle_1178" data-name="Rectangle 1178" width="1.132" height="0.245" transform="translate(14.713)" fill="#fff"/>
                <rect id="Rectangle_1179" data-name="Rectangle 1179" width="1.132" height="0.245" transform="translate(15.845)" fill="#fff"/>
                <rect id="Rectangle_1180" data-name="Rectangle 1180" width="1.132" height="0.245" transform="translate(16.977)" fill="#fff"/>
                <rect id="Rectangle_1181" data-name="Rectangle 1181" width="1.132" height="0.245" transform="translate(18.109)" fill="#fff"/>
                <rect id="Rectangle_1182" data-name="Rectangle 1182" width="1.132" height="0.245" transform="translate(19.241)" fill="#fff"/>
                <rect id="Rectangle_1183" data-name="Rectangle 1183" width="1.132" height="0.245" transform="translate(20.372)" fill="#fff"/>
                <rect id="Rectangle_1184" data-name="Rectangle 1184" width="1.132" height="0.245" transform="translate(21.504)" fill="#fff"/>
                <rect id="Rectangle_1185" data-name="Rectangle 1185" width="1.132" height="0.245" transform="translate(22.636)" fill="#fff"/>
                <rect id="Rectangle_1186" data-name="Rectangle 1186" width="1.132" height="0.245" transform="translate(23.768)" fill="#fff"/>
                <rect id="Rectangle_1187" data-name="Rectangle 1187" width="1.132" height="0.245" transform="translate(24.9)" fill="#fff"/>
                <rect id="Rectangle_1188" data-name="Rectangle 1188" width="1.132" height="0.245" transform="translate(26.031)" fill="#fff"/>
                <rect id="Rectangle_1189" data-name="Rectangle 1189" width="1.132" height="0.245" transform="translate(27.163)" fill="#fff"/>
                <rect id="Rectangle_1190" data-name="Rectangle 1190" width="1.132" height="0.245" transform="translate(28.295)" fill="#fff"/>
                <rect id="Rectangle_1191" data-name="Rectangle 1191" width="1.132" height="0.245" transform="translate(29.427)" fill="#fff"/>
                <rect id="Rectangle_1192" data-name="Rectangle 1192" width="1.132" height="0.245" transform="translate(30.559)" fill="#fff"/>
                <rect id="Rectangle_1193" data-name="Rectangle 1193" width="1.132" height="0.245" transform="translate(31.69)" fill="#fff"/>
                <rect id="Rectangle_1194" data-name="Rectangle 1194" width="1.132" height="0.245" transform="translate(32.822)" fill="#fff"/>
                <rect id="Rectangle_1195" data-name="Rectangle 1195" width="1.132" height="0.245" transform="translate(33.954)" fill="#fff"/>
                <rect id="Rectangle_1196" data-name="Rectangle 1196" width="1.132" height="0.245" transform="translate(35.086)" fill="#fff"/>
                <rect id="Rectangle_1197" data-name="Rectangle 1197" width="1.132" height="0.245" transform="translate(36.217)" fill="#fff"/>
                <rect id="Rectangle_1198" data-name="Rectangle 1198" width="1.132" height="0.245" transform="translate(37.349)" fill="#fff"/>
                <rect id="Rectangle_1199" data-name="Rectangle 1199" width="1.132" height="0.245" transform="translate(38.481)" fill="#fff"/>
                <rect id="Rectangle_1200" data-name="Rectangle 1200" width="1.132" height="0.245" transform="translate(39.613)" fill="#fff"/>
                <rect id="Rectangle_1201" data-name="Rectangle 1201" width="1.132" height="0.245" transform="translate(40.745)" fill="#fff"/>
                <rect id="Rectangle_1202" data-name="Rectangle 1202" width="1.132" height="0.245" transform="translate(41.876)" fill="#fff"/>
                <rect id="Rectangle_1203" data-name="Rectangle 1203" width="1.132" height="0.245" transform="translate(43.008)" fill="#fff"/>
                <rect id="Rectangle_1204" data-name="Rectangle 1204" width="1.132" height="0.245" transform="translate(44.14)" fill="#fff"/>
                <rect id="Rectangle_1205" data-name="Rectangle 1205" width="1.132" height="0.245" transform="translate(45.272)" fill="#fff"/>
                <rect id="Rectangle_1206" data-name="Rectangle 1206" width="1.132" height="0.245" transform="translate(46.404)" fill="#fff"/>
                <rect id="Rectangle_1207" data-name="Rectangle 1207" width="1.132" height="0.245" transform="translate(47.535)" fill="#fff"/>
                <rect id="Rectangle_1208" data-name="Rectangle 1208" width="1.132" height="0.245" transform="translate(48.667)" fill="#fff"/>
                <rect id="Rectangle_1209" data-name="Rectangle 1209" width="1.132" height="0.245" transform="translate(49.799)" fill="#fff"/>
                <path id="Path_18750" data-name="Path 18750" d="M107.926,93.271v0Z" transform="translate(-56.995 -93.026)" fill="#fff"/>
              </g>
            </g>
          </g>
          <g id="Group_5343" data-name="Group 5343">
            <path id="Path_18751" data-name="Path 18751" d="M40.085,83.954s1.409.716,8.111-.871a9.334,9.334,0,0,1,3.428-.423s.831.867-1.022,1.664a29.257,29.257,0,0,0-4.444,2.705s-3.742.96-4.092.932a2.941,2.941,0,0,1-2.736-1.206C38.479,85.387,40.085,83.954,40.085,83.954Z" transform="translate(-37.517 -71.591)" fill="url(#linear-gradient-2)"/>
            <path id="Path_18752" data-name="Path 18752" d="M44.263,86.062c-3.975,1-3.856.063-3.856.063s-.453-.716-.885-1.486a1.923,1.923,0,0,0-.192,2.132,2.941,2.941,0,0,0,2.736,1.206c.35.028,4.092-.932,4.092-.932a33.07,33.07,0,0,1,3.834-2.418C48.556,84.93,46.526,85.492,44.263,86.062Z" transform="translate(-37.517 -71.608)" fill="url(#linear-gradient-3)"/>
            <path id="Path_18753" data-name="Path 18753" d="M51.1,71.494s3.222,3.636-3.168,8.379c-6.854,5.086-8.628,8.047-5.812,7.989,0,0-3.949.971-4.563-2.81-.361-2.227,1.1-3.565,2.93-5.076A130.992,130.992,0,0,0,51.1,71.494Z" transform="translate(-37.503 -71.494)" fill="url(#linear-gradient-4)"/>
            <path id="Path_18754" data-name="Path 18754" d="M47.828,90.972s-2.167,3.7,1.823,6.647a.044.044,0,0,1-.039.077,15.642,15.642,0,0,1-2.467-1.11C44.91,94.816,46.574,92.34,47.828,90.972Z" transform="translate(-37.578 -71.664)" fill="url(#linear-gradient-5)"/>
            <path id="Path_18755" data-name="Path 18755" d="M54,84.594c-.136-1.738-2.5-1.957-2.5-1.957,1.422.779-2.962,1.713-6.167,5.3a5.409,5.409,0,0,0-1.362,5.154,6.4,6.4,0,0,0,3.157,3.421C43.2,90.857,54.233,87.8,54,84.594Z" transform="translate(-37.558 -71.591)" fill="url(#linear-gradient-6)"/>
            <path id="Path_18756" data-name="Path 18756" d="M54,84.594c-.126-1.733-2.5-1.957-2.5-1.957,1.422.779-2.962,1.713-6.167,5.3a5.409,5.409,0,0,0-1.362,5.154,6.438,6.438,0,0,0,3.157,3.421C43.27,90.9,53.949,87.923,54,84.594Z" transform="translate(-37.558 -71.591)" fill="url(#linear-gradient-7)"/>
            <path id="Path_18757" data-name="Path 18757" d="M44.3,79.415c7.381-5.267,6.806-7.921,6.806-7.921a123.788,123.788,0,0,1-10.613,8.481c-1.9,1.578-3.291,2.849-2.93,5.076.614,3.782,4.563,2.81,4.563,2.81C37.5,88.668,36.673,84.857,44.3,79.415Z" transform="translate(-37.503 -71.494)" fill="url(#linear-gradient-8)"/>
            <path id="Path_18758" data-name="Path 18758" d="M52.27,85.007c1.366-.886.644-1.79.571-1.851a3.362,3.362,0,0,0-1.344-.519c1.422.779-2.962,1.713-6.167,5.3a5.409,5.409,0,0,0-1.362,5.154,6.448,6.448,0,0,0,3.157,3.421C39.868,92.268,50.557,86.118,52.27,85.007Z" transform="translate(-37.558 -71.591)" fill="url(#linear-gradient-9)"/>
            <path id="Path_18759" data-name="Path 18759" d="M51.5,82.637a3.437,3.437,0,0,1,1.344.519c.067.074.74.884-.571,1.851-1.42,1.047-12.571,7.051-5.145,11.506C43.268,90.9,53.956,87.923,54,84.594,53.879,82.867,51.5,82.637,51.5,82.637Z" transform="translate(-37.565 -71.591)" opacity="0.17" fill="url(#linear-gradient-10)"/>
          </g>
        </g>
      </g>
      <g id="Group_5354" data-name="Group 5354" transform="translate(170.35)">
        <g id="Background-2-2" data-name="Background">
          <path id="Background-2-3" data-name="Background-2" d="M167.8,249.806V0H310.414V249.806Z" transform="translate(-167.802)" fill="#414142"/>
        </g>
        <g id="Design" transform="translate(16.479)">
          <path id="Rectangle_1_copy_3-2" data-name="Rectangle 1 copy 3" d="M184.426,121.566V0H294.29V121.566l-54.5,34.567Z" transform="translate(-184.426)" fill="#46c1be"/>
          <path id="Rectangle_1_copy-2" data-name="Rectangle 1 copy" d="M188.263,140.874V0H290.521V140.874L239.8,173.036Z" transform="translate(-184.459)" fill="#d1d3d4"/>
          <path id="Path_18760" data-name="Path 18760" d="M192.312,139.443V0H286.33V139.443l-46.635,29.578Z" transform="translate(-184.495)" fill="#414042"/>
        </g>
        <g id="Logo" transform="translate(38.231 65.373)">
          <g id="VISUAL_ART_DESIGN" data-name="VISUAL ART DESIGN" transform="translate(6.327 32.351)">
            <text id="VISUAL_ART_DESIGN-2" data-name="VISUAL ART &amp; DESIGN" transform="translate(0 4)" fill="#939598" font-size="4" font-family="Lato-Regular, Lato"><tspan x="0" y="0">VISUAL ART &amp; DESIGN</tspan></text>
          </g>
          <g id="Company_Logo" data-name="Company Logo" transform="translate(0 20.084)">
            <text id="Company_" data-name="Company " transform="translate(0 9)" fill="#fff" font-size="9" font-family="Roboto-Light, Roboto" font-weight="300"><tspan x="0" y="0">Company </tspan></text>
            <text id="Logo-2" data-name="Logo" transform="translate(43.984 9)" fill="#fff" font-size="9" font-family="Roboto-Bold, Roboto" font-weight="700"><tspan x="0" y="0">Logo</tspan></text>
          </g>
          <path id="Path_18761" data-name="Path 18761" d="M236.624,79.951l-1.559,2.723h6.1a7.72,7.72,0,0,0,6.691-3.895l.963-1.681h-7.3A5.649,5.649,0,0,0,236.624,79.951Zm11.292-4.434-3.25-5.675a7.713,7.713,0,0,0-6.691-3.895H236.05l3.846,6.718a5.652,5.652,0,0,0,4.9,2.853h3.118Zm-12.773-7.986L231.894,73.2a7.841,7.841,0,0,0,0,7.787l.964,1.682,3.845-6.715a5.742,5.742,0,0,0,0-5.7Z" transform="translate(-206.582 -65.947)" fill="#46c1be"/>
        </g>
        <g id="Web-2" data-name="Web" transform="translate(38.453 206.821)">
          <path id="Path_18762" data-name="Path 18762" d="M209.715,214.283l-.077-.045.007.1.023,1.182.019.122.073-.1.292-.4.2.3.022.021h.335l-.056-.08-.266-.409.465-.129.118-.035-.1-.055Zm-.564-4a2.628,2.628,0,0,0,0,5.255,1.94,1.94,0,0,0,.215-.009l.056-.008,0-.045-.042-.317-.009-.04h-.045a.445.445,0,0,1-.072.006c-.036,0-.067.013-.1.013a2.146,2.146,0,0,1-1.253-.431,6.766,6.766,0,0,0,3.348-2.284,2.056,2.056,0,0,1,.062.492,2.2,2.2,0,0,1-.553,1.467l-.028.045.042.03.266.169.034.028.024-.047a2.632,2.632,0,0,0-1.942-4.323Zm-.286.871a.68.68,0,0,0,.023-.432,1.315,1.315,0,0,1,.264-.033,2.181,2.181,0,0,1,.85.188,5.349,5.349,0,0,1-1.288,1.062c-.048-.135-.09-.281-.129-.431A1,1,0,0,0,208.864,211.156Zm-.368-.347a.238.238,0,0,1,0,.184.789.789,0,0,1-.6.4.506.506,0,0,1-.267-.053,2.118,2.118,0,0,1,.864-.535Zm-1.12.854a.811.811,0,0,0,.567.133.906.906,0,0,0,.287-.075c.047.16.084.3.134.424a6.5,6.5,0,0,1-1.356.586,2.237,2.237,0,0,1,.368-1.068Zm.186,2.742a2.186,2.186,0,0,1-.548-1.255,6.519,6.519,0,0,0,1.51-.629,3.216,3.216,0,0,0,.826,1.074,10.989,10.989,0,0,1-1.788.811Zm2.135-1.044a2.74,2.74,0,0,1-.83-1.046,6.173,6.173,0,0,0,1.494-1.23,2.074,2.074,0,0,1,.715.85,3.772,3.772,0,0,1-1.379,1.426Z" transform="translate(-206.593 -208.652)" fill="#fff"/>
          <g id="urwebsitename.com-2" data-name="urwebsitename.com" transform="translate(9.273)">
            <text id="urwebsitename.com-3" data-name="urwebsitename.com" transform="translate(0 5)" fill="#fff" font-size="6" font-family="ArialMT, Arial"><tspan x="0" y="0">urwebsitename.com</tspan></text>
          </g>
        </g>
        <g id="Background-3">
          <path id="Background-4" d="M167.8,249.806V0H310.414V249.806Z" transform="translate(-167.802)" fill="#fff"/>
        </g>
        <path id="Rectangle_1_copy_3-2-2" data-name="Rectangle 1 copy 3-2" d="M184.426,59.662V0H294.29V59.662l-54.5,34.567Z" transform="translate(-167.947)" fill="url(#linear-gradient-11)"/>
        <path id="Rectangle_1_copy-2-2" data-name="Rectangle 1 copy-2" d="M188.263,78.969V0H290.521V78.969L239.8,111.132Z" transform="translate(-167.98)" fill="#bdcefa"/>
        <path id="Path_18763" data-name="Path 18763" d="M192.312,77.539V0H286.33V77.539l-46.635,29.578Z" transform="translate(-168.015)" fill="#1a1e50"/>
        <path id="Location-2" d="M201.76,209.361l-3.493-2.715-3.493,2.715v-1.107l3.493-2.714,3.493,2.714Zm-.873-.1v2.623H199.14v-1.749h-1.747v1.749h-1.747v-2.623l2.619-1.967Z" transform="translate(-168.037 -1.79)" fill="#1a1e50"/>
        <text id="your_address_here_1234_road_NY" data-name="your address here 1234 road NY" transform="translate(38.234 209.298)" fill="#464258" font-size="5" font-family="ArialMT, Arial"><tspan x="0" y="0">218, School Street,</tspan><tspan x="0" y="6">Thazhanguda, Cuddalore, TN.</tspan></text>
        <path id="Web-3" d="M198.155,192.655a3.575,3.575,0,1,0,3.575,3.576h0a3.574,3.574,0,0,0-3.575-3.576Zm2.022,4.767a5.624,5.624,0,0,0,.118-.954h.949a3.042,3.042,0,0,1-.228.954Zm-4.045-2.384a5.711,5.711,0,0,0-.117.954h-.95a3.071,3.071,0,0,1,.229-.954Zm3.558,0a5.154,5.154,0,0,1,.129.954h-1.425v-.954Zm-1.3-.477v-1.395a1.076,1.076,0,0,1,.322.16,2.059,2.059,0,0,1,.548.622,3.5,3.5,0,0,1,.286.615h-1.157Zm-1.346-.615a2.042,2.042,0,0,1,.547-.622,1.1,1.1,0,0,1,.322-.16v1.4H196.76a3.363,3.363,0,0,1,.286-.615Zm.869,1.091v.954h-1.424a5.154,5.154,0,0,1,.128-.954Zm-2.622,2.384a3.078,3.078,0,0,1-.229-.954h.95a5.724,5.724,0,0,0,.117.954Zm1.2-.954h1.424v.954h-1.3a5.154,5.154,0,0,1-.128-.954Zm1.424,1.429v1.395a1.075,1.075,0,0,1-.322-.16,2.031,2.031,0,0,1-.547-.622,3.332,3.332,0,0,1-.286-.615h1.156Zm1.347.615a2.062,2.062,0,0,1-.548.623,1.085,1.085,0,0,1-.322.159v-1.4h1.157a3.444,3.444,0,0,1-.287.616Zm-.87-1.09v-.954h1.425a5.154,5.154,0,0,1-.129.954Zm1.9-1.43a5.708,5.708,0,0,0-.117-.954h.839a3.071,3.071,0,0,1,.229.954h-.951Zm.472-1.43h-.715a3.768,3.768,0,0,0-.561-1.128,3.128,3.128,0,0,1,1.277,1.128Zm-4.8-.522a3.086,3.086,0,0,1,.854-.606,3.792,3.792,0,0,0-.561,1.128h-.713a3.176,3.176,0,0,1,.419-.522Zm-.419,3.86h.715a3.768,3.768,0,0,0,.561,1.128A3.125,3.125,0,0,1,195.544,197.9Zm4.8.522a3.106,3.106,0,0,1-.854.606,3.791,3.791,0,0,0,.561-1.128h.715a3.141,3.141,0,0,1-.422.522Z" transform="translate(-168.035 -1.678)" fill="#1a1e50"/>
        <text id="www.yourwebsite.com" transform="translate(38.45 194.658)" fill="#464258" font-size="4" font-family="ArialMT, Arial"><tspan x="0" y="0">www.sreenevasainfotech.com</tspan></text>
        <path id="Email-2" d="M200.741,180.779h-5.319a.61.61,0,0,0-.614.6v4.029a.61.61,0,0,0,.614.6h5.319a.61.61,0,0,0,.614-.6v-4.03A.609.609,0,0,0,200.741,180.779Zm-.141,4.633-1.818-1.887-.7.7-.7-.7-1.819,1.887H195.2l2.042-2.024-.571-.574-1.408-1.415h.283l1.067.953,1.466,1.309,1.466-1.309,1.067-.953h.284l-1.409,1.415-.57.574,2.041,2.024H200.6Z" transform="translate(-168.037 -1.574)" fill="#1a1e50"/>
        <text id="yourmail_gmail.com" data-name="yourmail gmail.com" transform="translate(38.263 181.996)" fill="#464258" font-size="4" font-family="ArialMT, Arial"><tspan x="0" y="0">info@sreenevasainfotech.com</tspan></text>
        <path id="Phone-2" d="M201,168.669a3.038,3.038,0,0,1,.388,1.074,2.891,2.891,0,0,1-.613.066,2.527,2.527,0,0,1-1.083-.269v-.073q0-.516-1.583-.515-1.636,0-1.636.515v.073a2.114,2.114,0,0,1-1.072.317,1.787,1.787,0,0,1-.625-.115,3.27,3.27,0,0,1,.389-1.074,7.693,7.693,0,0,1,1.395-.37,9.1,9.1,0,0,1,1.5-.122,9.444,9.444,0,0,1,1.542.122A7.49,7.49,0,0,1,201,168.669Zm-4.527,1.074v.129a.72.72,0,0,1-.245.609,1.288,1.288,0,0,1-.785.19.8.8,0,0,1-.528-.127.647.647,0,0,1-.139-.483v-.15a2,2,0,0,0,1.7-.169Zm1.089.2H198.6v-.471h.781v.652l.932,1.468a2.4,2.4,0,0,1,.268.524,1.864,1.864,0,0,1,.063.539v.816h-5.137v-.816a2.023,2.023,0,0,1,.354-1.078l.912-1.454v-.652h.783v.471Zm-.458.562v.3h.433v-.3Zm0,.515v.3h.433v-.3H197.1Zm0,.516v.3h.433v-.3Zm.74-1.032v.3h.433v-.3Zm0,.515v.3h.433v-.3h-.433Zm0,.516v.3h.433v-.3Zm.74-1.032v.3h.433v-.3Zm0,.515v.3h.433v-.3h-.433Zm0,.516v.3h.433v-.3Zm2.8-1.636v.168a.574.574,0,0,1-.14.443.81.81,0,0,1-.516.121,1.341,1.341,0,0,1-.784-.185.653.653,0,0,1-.257-.568v-.157a2.268,2.268,0,0,0,1.08.265,2.106,2.106,0,0,0,.619-.086Z" transform="translate(-168.037 -1.464)" fill="#1a1e50"/>
        <text id="_000-123-456-789" data-name=" 000-123-456-789" transform="translate(38.281 170.372)" fill="#464258" font-size="4" font-family="ArialMT, Arial"><tspan x="0" y="0">+91 - 9600610640</tspan></text>
        <g id="Group_5346" data-name="Group 5346" transform="translate(16.48 127.263)">
          <text id="GRAPHIC_DESIGNER" data-name="GRAPHIC DESIGNER" transform="translate(10.51 14.151)" fill="#464258" font-size="4" font-family="Barlow-Medium, Barlow" font-weight="500"><tspan x="0" y="0">CTO</tspan></text>
          <g id="MICHAL_JOHNS" data-name="MICHAL JOHNS" transform="translate(10.51)">
            <text id="V.VARUNESH" transform="translate(0 7)" fill="#1a1e50" font-size="7" font-family="Barlow-Medium, Barlow" font-weight="500"><tspan x="0" y="0">V.VARUNESH</tspan></text>
          </g>
          <rect id="Name_Tab" data-name="Name Tab" width="2.113" height="14.789" transform="translate(0 0.982)" fill="#1a1e50"/>
        </g>
        <g id="Group_5353" data-name="Group 5353" transform="translate(36.401 40.539)">
          <g id="Group_5347" data-name="Group 5347" transform="translate(18.904 0.001)">
            <path id="Path_18764" data-name="Path 18764" d="M224.718,47.552a1.88,1.88,0,0,1-.832-.654,1.687,1.687,0,0,1-.293-.99v-.231a.135.135,0,0,1,.144-.145h.616a.144.144,0,0,1,.106.04.14.14,0,0,1,.039.105v.182a.971.971,0,0,0,.423.809,1.83,1.83,0,0,0,1.125.317,1.537,1.537,0,0,0,1-.28.9.9,0,0,0,.336-.731.779.779,0,0,0-.172-.51,1.629,1.629,0,0,0-.506-.39,9.5,9.5,0,0,0-.967-.428,9.709,9.709,0,0,1-1.11-.491,2.038,2.038,0,0,1-.678-.582,1.477,1.477,0,0,1-.27-.909,1.569,1.569,0,0,1,.592-1.3,2.5,2.5,0,0,1,1.6-.471,3.042,3.042,0,0,1,1.251.241,1.921,1.921,0,0,1,.832.673,1.741,1.741,0,0,1,.293,1v.145a.141.141,0,0,1-.039.105.144.144,0,0,1-.106.039h-.625a.153.153,0,0,1-.106-.034.116.116,0,0,1-.039-.091v-.116a1.036,1.036,0,0,0-.4-.832,1.671,1.671,0,0,0-1.1-.332,1.512,1.512,0,0,0-.923.246.829.829,0,0,0-.327.707.8.8,0,0,0,.164.519,1.42,1.42,0,0,0,.486.361q.323.158.986.408a10.817,10.817,0,0,1,1.105.5,2.113,2.113,0,0,1,.7.6,1.487,1.487,0,0,1,.279.919,1.684,1.684,0,0,1-.279.962,1.827,1.827,0,0,1-.808.644,3.091,3.091,0,0,1-1.241.231A3.183,3.183,0,0,1,224.718,47.552Z" transform="translate(-223.593 -40.896)" fill="#3369fd"/>
            <path id="Path_18765" data-name="Path 18765" d="M232.156,42.884a.15.15,0,0,1,.077.183l-.135.625c-.007.064-.039.1-.1.1a.24.24,0,0,1-.077-.01,1.042,1.042,0,0,0-.327-.048.742.742,0,0,0-.144.01,1.079,1.079,0,0,0-.745.312,1.034,1.034,0,0,0-.293.764v2.761a.132.132,0,0,1-.144.144h-.635a.131.131,0,0,1-.144-.144V42.971a.132.132,0,0,1,.144-.145h.635a.134.134,0,0,1,.144.145v.442c0,.025,0,.04.015.043s.021,0,.034-.024a1.34,1.34,0,0,1,1.173-.654A1.235,1.235,0,0,1,232.156,42.884Z" transform="translate(-223.644 -40.912)" fill="#3369fd"/>
            <path id="Path_18766" data-name="Path 18766" d="M236.186,46.4c.033-.057.067-.086.106-.086a.137.137,0,0,1,.086.029l.395.241a.142.142,0,0,1,.077.125l-.02.076a1.88,1.88,0,0,1-.736.74,2.22,2.22,0,0,1-1.111.27,2.089,2.089,0,0,1-1.154-.3,1.864,1.864,0,0,1-.712-.87,3.6,3.6,0,0,1-.24-1.375,4.094,4.094,0,0,1,.105-1.068,1.846,1.846,0,0,1,.693-1.049,2.062,2.062,0,0,1,1.26-.385,1.9,1.9,0,0,1,1.395.477,2.421,2.421,0,0,1,.625,1.38c.033.237.055.525.068.865a.128.128,0,0,1-.145.145H233.84a.043.043,0,0,0-.049.048,2.388,2.388,0,0,0,.067.519,1.053,1.053,0,0,0,.423.606,1.347,1.347,0,0,0,.789.222A1.2,1.2,0,0,0,236.186,46.4Zm-1.938-2.655a1.012,1.012,0,0,0-.361.558,2.269,2.269,0,0,0-.086.538.043.043,0,0,0,.049.049h2.183a.042.042,0,0,0,.048-.049,2.822,2.822,0,0,0-.057-.471,1.082,1.082,0,0,0-.38-.6,1.246,1.246,0,0,0-1.395-.025Z" transform="translate(-223.674 -40.912)" fill="#3369fd"/>
            <path id="Path_18767" data-name="Path 18767" d="M241.406,46.4c.032-.057.067-.086.106-.086a.137.137,0,0,1,.086.029l.395.241a.141.141,0,0,1,.076.125l-.019.076a1.874,1.874,0,0,1-.736.74,2.22,2.22,0,0,1-1.111.27,2.089,2.089,0,0,1-1.154-.3,1.864,1.864,0,0,1-.712-.87,3.6,3.6,0,0,1-.241-1.375,4.085,4.085,0,0,1,.106-1.068,1.841,1.841,0,0,1,.693-1.049,2.062,2.062,0,0,1,1.26-.385,1.9,1.9,0,0,1,1.395.477,2.421,2.421,0,0,1,.625,1.38q.048.355.067.865a.127.127,0,0,1-.144.145H239.06a.042.042,0,0,0-.049.048,2.386,2.386,0,0,0,.067.519,1.053,1.053,0,0,0,.423.606,1.347,1.347,0,0,0,.789.222A1.2,1.2,0,0,0,241.406,46.4Zm-1.938-2.655a1.012,1.012,0,0,0-.361.558,2.269,2.269,0,0,0-.086.538.042.042,0,0,0,.048.049h2.184a.042.042,0,0,0,.048-.049,2.72,2.72,0,0,0-.057-.471,1.082,1.082,0,0,0-.38-.6,1.246,1.246,0,0,0-1.395-.025Z" transform="translate(-223.719 -40.912)" fill="#3369fd"/>
            <path id="Path_18768" data-name="Path 18768" d="M243.608,47.668a.143.143,0,0,1-.038-.106V41.118a.139.139,0,0,1,.038-.105.144.144,0,0,1,.106-.039h.616a.189.189,0,0,1,.173.1l2.943,4.76c.013.02.026.028.038.025s.02-.018.02-.044V41.118a.14.14,0,0,1,.039-.105.142.142,0,0,1,.106-.039h.634a.132.132,0,0,1,.144.144v6.444a.131.131,0,0,1-.144.144h-.626a.189.189,0,0,1-.173-.1l-2.942-4.789c-.013-.02-.026-.028-.039-.025s-.02.018-.02.044l.01,4.723a.132.132,0,0,1-.144.144h-.635A.147.147,0,0,1,243.608,47.668Z" transform="translate(-223.767 -40.897)" fill="#7b2aff"/>
            <path id="Path_18769" data-name="Path 18769" d="M253.107,46.4c.032-.057.067-.086.106-.086a.137.137,0,0,1,.086.029l.395.241a.141.141,0,0,1,.076.125l-.019.076a1.874,1.874,0,0,1-.736.74,2.22,2.22,0,0,1-1.111.27,2.089,2.089,0,0,1-1.154-.3,1.864,1.864,0,0,1-.712-.87,3.6,3.6,0,0,1-.241-1.375,4.086,4.086,0,0,1,.106-1.068,1.841,1.841,0,0,1,.693-1.049,2.062,2.062,0,0,1,1.26-.385,1.9,1.9,0,0,1,1.395.477,2.421,2.421,0,0,1,.625,1.38q.048.355.067.865a.127.127,0,0,1-.144.145h-3.039a.042.042,0,0,0-.049.048,2.389,2.389,0,0,0,.067.519,1.054,1.054,0,0,0,.423.606,1.347,1.347,0,0,0,.789.222A1.2,1.2,0,0,0,253.107,46.4Zm-1.938-2.655a1.012,1.012,0,0,0-.361.558,2.269,2.269,0,0,0-.086.538.042.042,0,0,0,.048.049h2.184a.042.042,0,0,0,.048-.049,2.821,2.821,0,0,0-.057-.471,1.082,1.082,0,0,0-.38-.6,1.246,1.246,0,0,0-1.395-.025Z" transform="translate(-223.821 -40.912)" fill="#7b2aff"/>
            <path id="Path_18770" data-name="Path 18770" d="M256.844,47.591,254.8,41.138a.128.128,0,0,1-.01-.057c0-.071.045-.106.135-.106h.683a.18.18,0,0,1,.106.034.135.135,0,0,1,.057.091l1.577,5.242c.006.025.016.038.029.038s.023-.013.029-.038l1.568-5.242a.128.128,0,0,1,.057-.091.178.178,0,0,1,.106-.034h.663c.116,0,.157.055.125.164l-2.058,6.453a.156.156,0,0,1-.164.115h-.7A.156.156,0,0,1,256.844,47.591Z" transform="translate(-223.865 -40.897)" fill="#00c278"/>
            <path id="Path_18771" data-name="Path 18771" d="M263.3,42.956a1.573,1.573,0,0,1,.673.577,1.538,1.538,0,0,1,.236.842v3.2a.132.132,0,0,1-.145.144h-.634a.146.146,0,0,1-.106-.038.144.144,0,0,1-.039-.106v-.27a.04.04,0,0,0-.019-.039.032.032,0,0,0-.039.01,1.856,1.856,0,0,1-.639.385,2.322,2.322,0,0,1-.8.135,1.791,1.791,0,0,1-1.155-.361,1.312,1.312,0,0,1-.452-1.091,1.438,1.438,0,0,1,.524-1.179,2.258,2.258,0,0,1,1.467-.427h1.068a.043.043,0,0,0,.048-.049v-.25a.871.871,0,0,0-.245-.659,1.043,1.043,0,0,0-.745-.235,1.247,1.247,0,0,0-.639.144.68.68,0,0,0-.323.4.144.144,0,0,1-.163.115l-.693-.086a.2.2,0,0,1-.106-.044.082.082,0,0,1-.029-.082,1.3,1.3,0,0,1,.621-.9,2.337,2.337,0,0,1,1.312-.351A2.38,2.38,0,0,1,263.3,42.956Zm-.395,3.794a.808.808,0,0,0,.38-.682V45.51a.043.043,0,0,0-.048-.049h-.9a1.636,1.636,0,0,0-.9.221.7.7,0,0,0-.336.616.619.619,0,0,0,.255.539,1.1,1.1,0,0,0,.659.182A1.5,1.5,0,0,0,262.907,46.75Z" transform="translate(-223.912 -40.912)" fill="#00c278"/>
            <path id="Path_18772" data-name="Path 18772" d="M266.428,47.552a1.88,1.88,0,0,1-.832-.654,1.687,1.687,0,0,1-.293-.99v-.231a.135.135,0,0,1,.145-.145h.615a.143.143,0,0,1,.106.04.14.14,0,0,1,.039.105v.182a.971.971,0,0,0,.423.809,1.834,1.834,0,0,0,1.125.317,1.537,1.537,0,0,0,1-.28.9.9,0,0,0,.337-.731.78.78,0,0,0-.173-.51,1.635,1.635,0,0,0-.5-.39,9.6,9.6,0,0,0-.966-.428,9.657,9.657,0,0,1-1.111-.491,2.039,2.039,0,0,1-.678-.582,1.477,1.477,0,0,1-.27-.909,1.569,1.569,0,0,1,.592-1.3,2.5,2.5,0,0,1,1.6-.471,3.039,3.039,0,0,1,1.251.241,1.921,1.921,0,0,1,.832.673,1.741,1.741,0,0,1,.293,1v.145a.141.141,0,0,1-.039.105.144.144,0,0,1-.106.039h-.625a.153.153,0,0,1-.106-.034.116.116,0,0,1-.039-.091v-.116a1.036,1.036,0,0,0-.4-.832,1.67,1.67,0,0,0-1.1-.332,1.515,1.515,0,0,0-.924.246.829.829,0,0,0-.327.707.8.8,0,0,0,.164.519,1.42,1.42,0,0,0,.486.361q.323.158.986.408a10.815,10.815,0,0,1,1.105.5,2.113,2.113,0,0,1,.7.6,1.487,1.487,0,0,1,.279.919,1.684,1.684,0,0,1-.279.962,1.827,1.827,0,0,1-.808.644,3.088,3.088,0,0,1-1.241.231A3.183,3.183,0,0,1,266.428,47.552Z" transform="translate(-223.956 -40.896)" fill="#3369fd"/>
            <path id="Path_18773" data-name="Path 18773" d="M273.984,42.956a1.573,1.573,0,0,1,.673.577,1.538,1.538,0,0,1,.236.842v3.2a.144.144,0,0,1-.039.106.147.147,0,0,1-.106.038h-.634a.147.147,0,0,1-.106-.038.144.144,0,0,1-.039-.106v-.27a.04.04,0,0,0-.019-.039.032.032,0,0,0-.039.01,1.856,1.856,0,0,1-.639.385,2.322,2.322,0,0,1-.8.135,1.793,1.793,0,0,1-1.155-.361,1.311,1.311,0,0,1-.451-1.091,1.437,1.437,0,0,1,.523-1.179,2.26,2.26,0,0,1,1.467-.427h1.068a.043.043,0,0,0,.048-.049v-.25a.871.871,0,0,0-.245-.659,1.043,1.043,0,0,0-.745-.235,1.252,1.252,0,0,0-.639.144.678.678,0,0,0-.322.4.145.145,0,0,1-.164.115l-.693-.086a.2.2,0,0,1-.106-.044.084.084,0,0,1-.029-.082,1.3,1.3,0,0,1,.621-.9,2.341,2.341,0,0,1,1.313-.351A2.378,2.378,0,0,1,273.984,42.956Zm-.395,3.794a.808.808,0,0,0,.38-.682V45.51a.043.043,0,0,0-.048-.049h-.9a1.636,1.636,0,0,0-.9.221.7.7,0,0,0-.336.616.619.619,0,0,0,.255.539,1.1,1.1,0,0,0,.659.182A1.5,1.5,0,0,0,273.589,46.75Z" transform="translate(-224.005 -40.912)" fill="#3369fd"/>
            <path id="Path_18774" data-name="Path 18774" d="M223.961,60.344V52.607a.163.163,0,0,1,.184-.185h.973a.164.164,0,0,1,.185.185v7.737a.164.164,0,0,1-.185.185h-.973A.163.163,0,0,1,223.961,60.344Z" transform="translate(-223.596 -40.996)" fill="#2eccfc"/>
            <path id="Path_18775" data-name="Path 18775" d="M227.022,60.344V52.607a.164.164,0,0,1,.185-.185h.927a.242.242,0,0,1,.231.128l3.243,5.3c.015.031.033.043.053.035s.029-.027.029-.057V52.607a.164.164,0,0,1,.185-.185h.972a.164.164,0,0,1,.185.185v7.737a.164.164,0,0,1-.185.185h-.95a.243.243,0,0,1-.232-.128l-3.243-5.339c-.016-.031-.033-.043-.053-.035s-.029.027-.029.057l.011,5.259a.163.163,0,0,1-.184.185h-.962A.164.164,0,0,1,227.022,60.344Z" transform="translate(-223.623 -40.996)" fill="#2eccfc"/>
            <path id="Path_18776" data-name="Path 18776" d="M239.968,53.58h-3.88a.061.061,0,0,0-.069.069v2.143a.061.061,0,0,0,.069.069h2.594a.164.164,0,0,1,.185.185v.788a.164.164,0,0,1-.185.185h-2.594a.061.061,0,0,0-.069.069v3.254a.164.164,0,0,1-.185.185h-.973a.164.164,0,0,1-.185-.185V52.607a.164.164,0,0,1,.185-.185h5.108a.164.164,0,0,1,.185.185v.787A.164.164,0,0,1,239.968,53.58Z" transform="translate(-223.689 -40.996)" fill="#2eccfc"/>
            <path id="Path_18777" data-name="Path 18777" d="M242.433,60.291a2.494,2.494,0,0,1-1.037-1,3,3,0,0,1-.365-1.495v-2.64a2.905,2.905,0,0,1,.371-1.477,2.548,2.548,0,0,1,1.037-1,3.53,3.53,0,0,1,3.081,0,2.554,2.554,0,0,1,1.037,1,2.905,2.905,0,0,1,.371,1.477v2.64a2.962,2.962,0,0,1-.371,1.495,2.541,2.541,0,0,1-1.037,1,3.543,3.543,0,0,1-3.087,0Zm2.71-1.256a1.637,1.637,0,0,0,.44-1.194v-2.7a1.653,1.653,0,0,0-.44-1.2,1.558,1.558,0,0,0-1.17-.452,1.541,1.541,0,0,0-1.158.452,1.653,1.653,0,0,0-.44,1.2v2.7a1.637,1.637,0,0,0,.44,1.194,1.541,1.541,0,0,0,1.158.452A1.558,1.558,0,0,0,245.143,59.035Z" transform="translate(-223.745 -40.996)" fill="#2eccfc"/>
            <path id="Path_18778" data-name="Path 18778" d="M253.785,52.607v.8a.164.164,0,0,1-.185.185h-2.073a.061.061,0,0,0-.069.069v6.683a.164.164,0,0,1-.185.185H250.3a.164.164,0,0,1-.185-.185V53.661a.061.061,0,0,0-.069-.069h-1.993a.164.164,0,0,1-.185-.185v-.8a.164.164,0,0,1,.185-.185H253.6A.164.164,0,0,1,253.785,52.607Z" transform="translate(-223.804 -40.996)" fill="#2eccfc"/>
            <path id="Path_18779" data-name="Path 18779" d="M260.392,53.58H256.5a.061.061,0,0,0-.069.069v2.143a.061.061,0,0,0,.069.069h2.594a.164.164,0,0,1,.185.185v.788a.164.164,0,0,1-.185.185H256.5a.061.061,0,0,0-.069.069V59.3a.061.061,0,0,0,.069.069h3.892a.164.164,0,0,1,.185.185v.787a.164.164,0,0,1-.185.185h-5.12a.164.164,0,0,1-.185-.185V52.607a.164.164,0,0,1,.185-.185h5.12a.164.164,0,0,1,.185.185v.787A.164.164,0,0,1,260.392,53.58Z" transform="translate(-223.867 -40.996)" fill="#2eccfc"/>
            <path id="Path_18780" data-name="Path 18780" d="M263.184,60.28a2.466,2.466,0,0,1-1.019-.956,2.775,2.775,0,0,1-.359-1.424V55.039a2.781,2.781,0,0,1,.359-1.425,2.432,2.432,0,0,1,1.019-.949,3.328,3.328,0,0,1,1.529-.337,3.4,3.4,0,0,1,1.518.325,2.4,2.4,0,0,1,1.019.915,2.573,2.573,0,0,1,.36,1.366c0,.078-.059.124-.174.14l-.984.057H266.4c-.093,0-.14-.019-.14-.057V55a1.476,1.476,0,0,0-.422-1.1,1.538,1.538,0,0,0-1.13-.417,1.553,1.553,0,0,0-1.134.417,1.462,1.462,0,0,0-.429,1.1v2.953a1.447,1.447,0,0,0,.429,1.088,1.754,1.754,0,0,0,2.264.006,1.456,1.456,0,0,0,.422-1.094.121.121,0,0,1,.053-.1.169.169,0,0,1,.133-.029l.973.046c.123.016.185.035.185.058v.057a2.628,2.628,0,0,1-.36,1.385,2.381,2.381,0,0,1-1.019.92,3.387,3.387,0,0,1-1.518.325A3.28,3.28,0,0,1,263.184,60.28Z" transform="translate(-223.926 -40.996)" fill="#2eccfc"/>
            <path id="Path_18781" data-name="Path 18781" d="M273.707,52.422h.973a.164.164,0,0,1,.185.185v7.737a.164.164,0,0,1-.185.185h-.973a.164.164,0,0,1-.185-.185V57.09a.061.061,0,0,0-.069-.069h-2.93a.061.061,0,0,0-.069.069v3.254a.164.164,0,0,1-.185.185h-.973a.164.164,0,0,1-.185-.185V52.607a.164.164,0,0,1,.185-.185h.973a.164.164,0,0,1,.185.185v3.185a.061.061,0,0,0,.069.069h2.93a.061.061,0,0,0,.069-.069V52.607A.164.164,0,0,1,273.707,52.422Z" transform="translate(-223.989 -40.996)" fill="#2eccfc"/>
          </g>
          <g id="Group_5348" data-name="Group 5348" transform="translate(19.312 21.345)">
            <path id="Path_18782" data-name="Path 18782" d="M226.454,62.446a.062.062,0,0,1,.018.045v.121a.06.06,0,0,1-.018.044.061.061,0,0,1-.045.019h-1.038a.018.018,0,0,0-.021.021v3.338a.061.061,0,0,1-.062.062h-.152a.061.061,0,0,1-.045-.018.059.059,0,0,1-.019-.045V62.695a.018.018,0,0,0-.021-.021h-.984a.058.058,0,0,1-.045-.019.057.057,0,0,1-.019-.044V62.49a.059.059,0,0,1,.019-.045.06.06,0,0,1,.045-.018h2.341A.064.064,0,0,1,226.454,62.446Z" transform="translate(-224.005 -62.428)" fill="#fff"/>
            <path id="Path_18783" data-name="Path 18783" d="M229.7,65.787a.685.685,0,0,0,.273-.312.063.063,0,0,1,.084-.031l.094.036a.057.057,0,0,1,.037.084.931.931,0,0,1-.362.424,1.066,1.066,0,0,1-.587.158,1.017,1.017,0,0,1-.61-.178.931.931,0,0,1-.349-.488,2.522,2.522,0,0,1-.073-.7c0-.171,0-.3.008-.388a1.343,1.343,0,0,1,.034-.241.943.943,0,0,1,.343-.529,1.017,1.017,0,0,1,.637-.2.939.939,0,0,1,1,.823,1.7,1.7,0,0,1,.029.218c0,.074.008.188.008.343,0,.045-.021.067-.062.067h-1.7a.018.018,0,0,0-.021.021,2.6,2.6,0,0,0,.026.451.692.692,0,0,0,.257.405.787.787,0,0,0,.5.155A.86.86,0,0,0,229.7,65.787Zm-1.22-1.161a.018.018,0,0,0,.021.021h1.461a.019.019,0,0,0,.022-.021,2.165,2.165,0,0,0-.027-.4.7.7,0,0,0-.251-.405.818.818,0,0,0-.949-.006.665.665,0,0,0-.241.4A2.3,2.3,0,0,0,228.485,64.626Z" transform="translate(-224.042 -62.437)" fill="#fff"/>
            <path id="Path_18784" data-name="Path 18784" d="M235.779,63.657a.857.857,0,0,1,.231.634v1.75a.059.059,0,0,1-.019.045.06.06,0,0,1-.045.018H235.8a.061.061,0,0,1-.062-.062v-1.7a.666.666,0,0,0-.18-.49.639.639,0,0,0-.47-.18.678.678,0,0,0-.49.178.636.636,0,0,0-.185.482v1.708a.063.063,0,0,1-.019.045.06.06,0,0,1-.045.018H234.2a.061.061,0,0,1-.062-.062v-1.7a.668.668,0,0,0-.178-.49.628.628,0,0,0-.466-.18.665.665,0,0,0-.49.178.645.645,0,0,0-.181.482v1.708a.062.062,0,0,1-.018.045.064.064,0,0,1-.045.018h-.152a.06.06,0,0,1-.045-.018.059.059,0,0,1-.019-.045V63.526a.058.058,0,0,1,.019-.045.06.06,0,0,1,.045-.018h.152a.064.064,0,0,1,.045.018.061.061,0,0,1,.018.045v.225a.017.017,0,0,0,.011.016c.007,0,.012,0,.016,0a.683.683,0,0,1,.3-.252,1.023,1.023,0,0,1,.422-.084.888.888,0,0,1,.469.119.736.736,0,0,1,.3.332q.01.021.027.006a.751.751,0,0,1,.319-.341,1,1,0,0,1,.488-.116A.828.828,0,0,1,235.779,63.657Z" transform="translate(-224.079 -62.437)" fill="#fff"/>
            <path id="Path_18785" data-name="Path 18785" d="M240.4,64.778c0,.158,0,.286-.011.388a1.5,1.5,0,0,1-.042.273.919.919,0,0,1-.332.516.978.978,0,0,1-.611.191.894.894,0,0,1-.411-.092.768.768,0,0,1-.3-.265.009.009,0,0,0-.015,0,.017.017,0,0,0-.011.016v1.268a.059.059,0,0,1-.019.045.061.061,0,0,1-.045.018h-.152a.058.058,0,0,1-.044-.018.059.059,0,0,1-.019-.045V63.526a.063.063,0,0,1,.062-.062h.152a.061.061,0,0,1,.045.018.058.058,0,0,1,.019.045v.246c0,.011,0,.017.008.019s.011,0,.018-.008a.8.8,0,0,1,.3-.268.883.883,0,0,1,.411-.094.964.964,0,0,1,.6.189.935.935,0,0,1,.335.508A2.794,2.794,0,0,1,240.4,64.778Zm-.3.408a2.976,2.976,0,0,0,.019-.4,3.256,3.256,0,0,0-.016-.385,1.283,1.283,0,0,0-.053-.239.628.628,0,0,0-.241-.356.713.713,0,0,0-.44-.136.624.624,0,0,0-.411.136.673.673,0,0,0-.222.356.921.921,0,0,0-.051.223c-.009.082-.013.214-.013.4a3.874,3.874,0,0,0,.016.406,1.118,1.118,0,0,0,.053.233.615.615,0,0,0,.22.348.634.634,0,0,0,.408.134.686.686,0,0,0,.424-.134.648.648,0,0,0,.241-.343A.912.912,0,0,0,240.107,65.186Z" transform="translate(-224.13 -62.437)" fill="#fff"/>
            <path id="Path_18786" data-name="Path 18786" d="M242.7,66.077a.063.063,0,0,1-.019-.045V62.49a.063.063,0,0,1,.019-.045.061.061,0,0,1,.045-.018h.152a.061.061,0,0,1,.062.062v3.542a.061.061,0,0,1-.062.062h-.152A.061.061,0,0,1,242.7,66.077Z" transform="translate(-224.168 -62.428)" fill="#fff"/>
            <path id="Path_18787" data-name="Path 18787" d="M246.735,65.787a.689.689,0,0,0,.272-.312.063.063,0,0,1,.084-.031l.094.036c.042.018.055.046.037.084a.925.925,0,0,1-.362.424,1.064,1.064,0,0,1-.587.158,1.017,1.017,0,0,1-.61-.178.931.931,0,0,1-.349-.488,2.561,2.561,0,0,1-.073-.7c0-.171,0-.3.008-.388a1.343,1.343,0,0,1,.035-.241.933.933,0,0,1,.343-.529,1.133,1.133,0,0,1,1.312.021,1,1,0,0,1,.324.6,1.9,1.9,0,0,1,.03.218c0,.074.007.188.007.343,0,.045-.021.067-.062.067h-1.7a.018.018,0,0,0-.021.021,2.6,2.6,0,0,0,.026.451.688.688,0,0,0,.258.405.785.785,0,0,0,.5.155A.865.865,0,0,0,246.735,65.787Zm-1.221-1.161a.018.018,0,0,0,.021.021H247a.018.018,0,0,0,.021-.021,2.165,2.165,0,0,0-.027-.4.7.7,0,0,0-.251-.405.818.818,0,0,0-.949-.006.665.665,0,0,0-.241.4A2.305,2.305,0,0,0,245.514,64.626Z" transform="translate(-224.19 -62.437)" fill="#fff"/>
            <path id="Path_18788" data-name="Path 18788" d="M252.4,65.952a.962.962,0,0,1-.353-.518,2.442,2.442,0,0,1-.063-.655,2.808,2.808,0,0,1,.057-.649.946.946,0,0,1,.357-.516,1.134,1.134,0,0,1,1.265,0,.927.927,0,0,1,.354.513,2.65,2.65,0,0,1,.057.649,2.684,2.684,0,0,1-.057.655.928.928,0,0,1-.354.518,1.041,1.041,0,0,1-.631.194A1.029,1.029,0,0,1,252.4,65.952Zm1.105-.2a.689.689,0,0,0,.255-.408,3.19,3.19,0,0,0,.032-.556,3.074,3.074,0,0,0-.032-.555.689.689,0,0,0-.255-.408.76.76,0,0,0-.479-.152.752.752,0,0,0-.477.152.7.7,0,0,0-.252.408,5.038,5.038,0,0,0,0,1.111.7.7,0,0,0,.252.408.828.828,0,0,0,.956,0Z" transform="translate(-224.249 -62.437)" fill="#fff"/>
            <path id="Path_18789" data-name="Path 18789" d="M256.886,62.821a.79.79,0,0,0-.113.477v.136c0,.015.007.022.021.022h.6a.062.062,0,0,1,.045.018.061.061,0,0,1,.019.045v.131a.061.061,0,0,1-.019.045.058.058,0,0,1-.045.018h-.6a.018.018,0,0,0-.021.021v2.3a.059.059,0,0,1-.019.045.06.06,0,0,1-.044.018h-.153a.064.064,0,0,1-.045-.018.062.062,0,0,1-.018-.045v-2.3a.018.018,0,0,0-.021-.021h-.335a.057.057,0,0,1-.045-.018.058.058,0,0,1-.019-.045v-.131a.058.058,0,0,1,.019-.045.061.061,0,0,1,.045-.018h.335c.014,0,.021-.007.021-.022v-.147a1.423,1.423,0,0,1,.07-.493.516.516,0,0,1,.241-.275,1.037,1.037,0,0,1,.48-.091h.126a.064.064,0,0,1,.045.018.062.062,0,0,1,.018.045v.121a.06.06,0,0,1-.018.044.061.061,0,0,1-.045.019h-.105A.506.506,0,0,0,256.886,62.821Z" transform="translate(-224.284 -62.428)" fill="#fff"/>
            <path id="Path_18790" data-name="Path 18790" d="M263.708,63.66a.861.861,0,0,1,.241.641v1.74a.059.059,0,0,1-.019.045.06.06,0,0,1-.044.018h-.153a.064.064,0,0,1-.045-.018.062.062,0,0,1-.018-.045v-.225a.017.017,0,0,0-.008-.016s-.012,0-.019,0a.837.837,0,0,1-.361.254,1.319,1.319,0,0,1-.482.087,1.007,1.007,0,0,1-.614-.181.65.65,0,0,1-.246-.563.736.736,0,0,1,.287-.613,1.252,1.252,0,0,1,.792-.226h.628a.018.018,0,0,0,.021-.021v-.235a.652.652,0,0,0-.163-.469.671.671,0,0,0-.508-.171.822.822,0,0,0-.44.107.45.45,0,0,0-.215.29c-.011.043-.036.059-.073.053l-.163-.021c-.046-.007-.064-.026-.058-.057a.674.674,0,0,1,.309-.448,1.136,1.136,0,0,1,.644-.17A.954.954,0,0,1,263.708,63.66Zm-.281,2.083a.513.513,0,0,0,.244-.451v-.477a.018.018,0,0,0-.021-.021h-.6a1.044,1.044,0,0,0-.6.158.5.5,0,0,0-.228.434.45.45,0,0,0,.178.388.741.741,0,0,0,.455.131A1.012,1.012,0,0,0,263.428,65.743Z" transform="translate(-224.335 -62.437)" fill="#fff"/>
            <path id="Path_18791" data-name="Path 18791" d="M267.545,63.5a.058.058,0,0,1,.031.078l-.042.152c-.01.042-.037.055-.078.037a.738.738,0,0,0-.252-.032.637.637,0,0,0-.485.223.78.78,0,0,0-.191.532v1.55a.062.062,0,0,1-.018.045.06.06,0,0,1-.045.018h-.152a.061.061,0,0,1-.045-.018.059.059,0,0,1-.019-.045V63.526a.058.058,0,0,1,.019-.045.061.061,0,0,1,.045-.018h.152a.061.061,0,0,1,.062.062v.346c0,.011,0,.016.008.018s.01,0,.014-.013a.844.844,0,0,1,.285-.319.727.727,0,0,1,.41-.116A.761.761,0,0,1,267.545,63.5Z" transform="translate(-224.373 -62.437)" fill="#fff"/>
            <path id="Path_18792" data-name="Path 18792" d="M270.754,63.675a.06.06,0,0,1-.044.018h-.6a.018.018,0,0,0-.021.021v1.65a.484.484,0,0,0,.12.375.571.571,0,0,0,.388.108h.11a.061.061,0,0,1,.045.018.063.063,0,0,1,.019.045v.121a.056.056,0,0,1-.063.062l-.147,0a.909.909,0,0,1-.55-.141.622.622,0,0,1-.193-.518V63.714a.018.018,0,0,0-.021-.021h-.3a.062.062,0,0,1-.045-.018.061.061,0,0,1-.018-.045v-.11a.061.061,0,0,1,.018-.045.062.062,0,0,1,.045-.018h.3c.014,0,.021-.007.021-.022V62.85a.061.061,0,0,1,.018-.045.059.059,0,0,1,.045-.019h.147a.058.058,0,0,1,.045.019.061.061,0,0,1,.019.045v.586c0,.015.007.022.021.022h.6a.06.06,0,0,1,.044.018.058.058,0,0,1,.019.045v.11A.058.058,0,0,1,270.754,63.675Z" transform="translate(-224.401 -62.431)" fill="#fff"/>
            <path id="Path_18793" data-name="Path 18793" d="M273.336,66.038a.8.8,0,0,1-.338-.249.561.561,0,0,1-.12-.345v-.058a.063.063,0,0,1,.063-.062h.146a.063.063,0,0,1,.045.016.048.048,0,0,1,.019.037v.057a.405.405,0,0,0,.191.33.8.8,0,0,0,.49.141.774.774,0,0,0,.48-.141.425.425,0,0,0,.185-.351.326.326,0,0,0-.094-.242.649.649,0,0,0-.225-.144c-.087-.033-.217-.075-.388-.128a4.491,4.491,0,0,1-.472-.168.834.834,0,0,1-.3-.223.539.539,0,0,1-.123-.364.608.608,0,0,1,.254-.512,1.088,1.088,0,0,1,.668-.191,1.219,1.219,0,0,1,.49.092.793.793,0,0,1,.33.249.576.576,0,0,1,.118.356v.006a.06.06,0,0,1-.018.044.061.061,0,0,1-.045.019h-.142a.087.087,0,0,1-.045-.01.031.031,0,0,1-.018-.027v-.032a.4.4,0,0,0-.186-.332.965.965,0,0,0-.962-.011.385.385,0,0,0-.178.333.326.326,0,0,0,.166.3,2.331,2.331,0,0,0,.516.2,4.741,4.741,0,0,1,.49.166.866.866,0,0,1,.311.222.547.547,0,0,1,.131.378.641.641,0,0,1-.257.531,1.069,1.069,0,0,1-.681.2A1.277,1.277,0,0,1,273.336,66.038Z" transform="translate(-224.431 -62.437)" fill="#fff"/>
          </g>
          <g id="Group_5351" data-name="Group 5351" transform="translate(18.878 21.344)">
            <g id="Group_5350" data-name="Group 5350">
              <rect id="Rectangle_1211" data-name="Rectangle 1211" width="50.931" height="0.245" fill="#fff"/>
              <g id="Group_5349" data-name="Group 5349" clip-path="url(#clip-path)">
                <path id="Path_18794" data-name="Path 18794" d="M223.567,62.427v0Z" transform="translate(-223.567 -62.427)" fill="#fff"/>
                <rect id="Rectangle_1212" data-name="Rectangle 1212" width="1.132" height="0.245" fill="#fff"/>
                <rect id="Rectangle_1213" data-name="Rectangle 1213" width="1.132" height="0.245" transform="translate(1.132)" fill="#fff"/>
                <rect id="Rectangle_1214" data-name="Rectangle 1214" width="1.132" height="0.245" transform="translate(2.264)" fill="#fff"/>
                <rect id="Rectangle_1215" data-name="Rectangle 1215" width="1.132" height="0.245" transform="translate(3.395)" fill="#fff"/>
                <rect id="Rectangle_1216" data-name="Rectangle 1216" width="1.132" height="0.245" transform="translate(4.527)" fill="#fff"/>
                <rect id="Rectangle_1217" data-name="Rectangle 1217" width="1.132" height="0.245" transform="translate(5.659)" fill="#fff"/>
                <rect id="Rectangle_1218" data-name="Rectangle 1218" width="1.132" height="0.245" transform="translate(6.791)" fill="#fff"/>
                <rect id="Rectangle_1219" data-name="Rectangle 1219" width="1.132" height="0.245" transform="translate(7.923)" fill="#fff"/>
                <rect id="Rectangle_1220" data-name="Rectangle 1220" width="1.132" height="0.245" transform="translate(9.054)" fill="#fff"/>
                <rect id="Rectangle_1221" data-name="Rectangle 1221" width="1.132" height="0.245" transform="translate(10.186)" fill="#fff"/>
                <rect id="Rectangle_1222" data-name="Rectangle 1222" width="1.132" height="0.245" transform="translate(11.318)" fill="#fff"/>
                <rect id="Rectangle_1223" data-name="Rectangle 1223" width="1.132" height="0.245" transform="translate(12.45)" fill="#fff"/>
                <rect id="Rectangle_1224" data-name="Rectangle 1224" width="1.132" height="0.245" transform="translate(13.582)" fill="#fff"/>
                <rect id="Rectangle_1225" data-name="Rectangle 1225" width="1.132" height="0.245" transform="translate(14.713)" fill="#fff"/>
                <rect id="Rectangle_1226" data-name="Rectangle 1226" width="1.132" height="0.245" transform="translate(15.845)" fill="#fff"/>
                <rect id="Rectangle_1227" data-name="Rectangle 1227" width="1.132" height="0.245" transform="translate(16.977)" fill="#fff"/>
                <rect id="Rectangle_1228" data-name="Rectangle 1228" width="1.132" height="0.245" transform="translate(18.109)" fill="#fff"/>
                <rect id="Rectangle_1229" data-name="Rectangle 1229" width="1.132" height="0.245" transform="translate(19.241)" fill="#fff"/>
                <rect id="Rectangle_1230" data-name="Rectangle 1230" width="1.132" height="0.245" transform="translate(20.372)" fill="#fff"/>
                <rect id="Rectangle_1231" data-name="Rectangle 1231" width="1.132" height="0.245" transform="translate(21.504)" fill="#fff"/>
                <rect id="Rectangle_1232" data-name="Rectangle 1232" width="1.132" height="0.245" transform="translate(22.636)" fill="#fff"/>
                <rect id="Rectangle_1233" data-name="Rectangle 1233" width="1.132" height="0.245" transform="translate(23.768)" fill="#fff"/>
                <rect id="Rectangle_1234" data-name="Rectangle 1234" width="1.132" height="0.245" transform="translate(24.9)" fill="#fff"/>
                <rect id="Rectangle_1235" data-name="Rectangle 1235" width="1.132" height="0.245" transform="translate(26.031)" fill="#fff"/>
                <rect id="Rectangle_1236" data-name="Rectangle 1236" width="1.132" height="0.245" transform="translate(27.163)" fill="#fff"/>
                <rect id="Rectangle_1237" data-name="Rectangle 1237" width="1.132" height="0.245" transform="translate(28.295)" fill="#fff"/>
                <rect id="Rectangle_1238" data-name="Rectangle 1238" width="1.132" height="0.245" transform="translate(29.427)" fill="#fff"/>
                <rect id="Rectangle_1239" data-name="Rectangle 1239" width="1.132" height="0.245" transform="translate(30.559)" fill="#fff"/>
                <rect id="Rectangle_1240" data-name="Rectangle 1240" width="1.132" height="0.245" transform="translate(31.69)" fill="#fff"/>
                <rect id="Rectangle_1241" data-name="Rectangle 1241" width="1.132" height="0.245" transform="translate(32.822)" fill="#fff"/>
                <rect id="Rectangle_1242" data-name="Rectangle 1242" width="1.132" height="0.245" transform="translate(33.954)" fill="#fff"/>
                <rect id="Rectangle_1243" data-name="Rectangle 1243" width="1.132" height="0.245" transform="translate(35.086)" fill="#fff"/>
                <rect id="Rectangle_1244" data-name="Rectangle 1244" width="1.132" height="0.245" transform="translate(36.217)" fill="#fff"/>
                <rect id="Rectangle_1245" data-name="Rectangle 1245" width="1.132" height="0.245" transform="translate(37.349)" fill="#fff"/>
                <rect id="Rectangle_1246" data-name="Rectangle 1246" width="1.132" height="0.245" transform="translate(38.481)" fill="#fff"/>
                <rect id="Rectangle_1247" data-name="Rectangle 1247" width="1.132" height="0.245" transform="translate(39.613)" fill="#fff"/>
                <rect id="Rectangle_1248" data-name="Rectangle 1248" width="1.132" height="0.245" transform="translate(40.745)" fill="#fff"/>
                <rect id="Rectangle_1249" data-name="Rectangle 1249" width="1.132" height="0.245" transform="translate(41.876)" fill="#fff"/>
                <rect id="Rectangle_1250" data-name="Rectangle 1250" width="1.132" height="0.245" transform="translate(43.008)" fill="#fff"/>
                <rect id="Rectangle_1251" data-name="Rectangle 1251" width="1.132" height="0.245" transform="translate(44.14)" fill="#fff"/>
                <rect id="Rectangle_1252" data-name="Rectangle 1252" width="1.132" height="0.245" transform="translate(45.272)" fill="#fff"/>
                <rect id="Rectangle_1253" data-name="Rectangle 1253" width="1.132" height="0.245" transform="translate(46.404)" fill="#fff"/>
                <rect id="Rectangle_1254" data-name="Rectangle 1254" width="1.132" height="0.245" transform="translate(47.535)" fill="#fff"/>
                <rect id="Rectangle_1255" data-name="Rectangle 1255" width="1.132" height="0.245" transform="translate(48.667)" fill="#fff"/>
                <rect id="Rectangle_1256" data-name="Rectangle 1256" width="1.132" height="0.245" transform="translate(49.799)" fill="#fff"/>
                <path id="Path_18795" data-name="Path 18795" d="M274.945,62.672v0Z" transform="translate(-224.015 -62.427)" fill="#fff"/>
              </g>
            </g>
          </g>
          <g id="Group_5352" data-name="Group 5352">
            <path id="Path_18796" data-name="Path 18796" d="M207.1,53.355s1.41.716,8.112-.87a9.339,9.339,0,0,1,3.428-.424s.831.867-1.022,1.664a29.343,29.343,0,0,0-4.444,2.705s-3.742.96-4.092.933a2.942,2.942,0,0,1-2.736-1.207C205.5,54.788,207.1,53.355,207.1,53.355Z" transform="translate(-204.537 -40.992)" fill="url(#linear-gradient-12)"/>
            <path id="Path_18797" data-name="Path 18797" d="M211.283,55.463c-3.975,1-3.856.063-3.856.063s-.453-.716-.885-1.485a1.921,1.921,0,0,0-.192,2.131,2.942,2.942,0,0,0,2.736,1.207c.35.027,4.092-.933,4.092-.933a32.973,32.973,0,0,1,3.834-2.418C215.576,54.331,213.546,54.893,211.283,55.463Z" transform="translate(-204.537 -41.009)" fill="url(#linear-gradient-13)"/>
            <path id="Path_18798" data-name="Path 18798" d="M218.124,40.9s3.222,3.637-3.169,8.379c-6.853,5.086-8.628,8.047-5.811,7.989,0,0-3.949.971-4.563-2.809-.361-2.228,1.1-3.566,2.93-5.076A131.11,131.11,0,0,0,218.124,40.9Z" transform="translate(-204.523 -40.895)" fill="url(#linear-gradient-14)"/>
            <path id="Path_18799" data-name="Path 18799" d="M214.848,60.373s-2.167,3.7,1.823,6.648a.043.043,0,0,1-.039.076,15.635,15.635,0,0,1-2.467-1.109C211.93,64.217,213.594,61.741,214.848,60.373Z" transform="translate(-204.598 -41.065)" fill="url(#linear-gradient-15)"/>
            <path id="Path_18800" data-name="Path 18800" d="M221.017,53.995c-.136-1.737-2.5-1.956-2.5-1.956,1.421.778-2.963,1.713-6.167,5.3a5.409,5.409,0,0,0-1.362,5.154,6.4,6.4,0,0,0,3.157,3.422C210.218,60.258,221.253,57.2,221.017,53.995Z" transform="translate(-204.578 -40.992)" fill="url(#linear-gradient-16)"/>
            <path id="Path_18801" data-name="Path 18801" d="M221.017,53.995c-.126-1.733-2.5-1.956-2.5-1.956,1.421.778-2.963,1.713-6.167,5.3a5.409,5.409,0,0,0-1.362,5.154,6.433,6.433,0,0,0,3.157,3.422C210.29,60.3,220.969,57.324,221.017,53.995Z" transform="translate(-204.578 -40.992)" fill="url(#linear-gradient-17)"/>
            <path id="Path_18802" data-name="Path 18802" d="M211.317,48.817c7.381-5.268,6.806-7.922,6.806-7.922a124.048,124.048,0,0,1-10.613,8.482c-1.9,1.578-3.291,2.848-2.93,5.076.614,3.781,4.563,2.809,4.563,2.809C204.523,58.069,203.692,54.258,211.317,48.817Z" transform="translate(-204.523 -40.895)" fill="url(#linear-gradient-18)"/>
            <path id="Path_18803" data-name="Path 18803" d="M219.29,54.408c1.366-.886.644-1.789.571-1.851a3.355,3.355,0,0,0-1.344-.518c1.421.778-2.963,1.713-6.167,5.3a5.409,5.409,0,0,0-1.362,5.154,6.448,6.448,0,0,0,3.157,3.422C206.888,61.67,217.577,55.519,219.29,54.408Z" transform="translate(-204.578 -40.992)" fill="url(#linear-gradient-19)"/>
            <path id="Path_18804" data-name="Path 18804" d="M218.524,52.039a3.444,3.444,0,0,1,1.344.518c.066.075.74.884-.571,1.851-1.421,1.047-12.571,7.051-5.145,11.507-3.865-5.615,6.823-8.592,6.872-11.92C220.9,52.268,218.524,52.039,218.524,52.039Z" transform="translate(-204.585 -40.992)" opacity="0.17" fill="url(#linear-gradient-20)"/>
          </g>
        </g>
      </g>
    </g>
  </g>
</svg>
