<svg xmlns="http://www.w3.org/2000/svg" xmlns:xlink="http://www.w3.org/1999/xlink" width="370" height="300" viewBox="0 0 370 300">
  <defs>
    <linearGradient id="linear-gradient" y1="0.5" x2="1" y2="0.5" gradientUnits="objectBoundingBox">
      <stop offset="0" stop-color="#1951de"/>
      <stop offset="0.197" stop-color="#1a5ae0"/>
      <stop offset="0.759" stop-color="#2cc0f9"/>
      <stop offset="1" stop-color="#2eccfc"/>
    </linearGradient>
    <linearGradient id="linear-gradient-2" x1="1" y1="0.5" x2="0" y2="0.5" xlink:href="#linear-gradient"/>
    <linearGradient id="linear-gradient-3" y1="0.5" x2="1" y2="0.5" gradientUnits="objectBoundingBox">
      <stop offset="0" stop-color="#1954df"/>
      <stop offset="0.119" stop-color="#1954df"/>
      <stop offset="0.199" stop-color="#1c69e4"/>
      <stop offset="0.309" stop-color="#2081e9"/>
      <stop offset="0.412" stop-color="#238fec"/>
      <stop offset="0.5" stop-color="#2494ee"/>
      <stop offset="0.616" stop-color="#2390ed"/>
      <stop offset="0.705" stop-color="#2187ea"/>
      <stop offset="0.783" stop-color="#1e77e7"/>
      <stop offset="0.856" stop-color="#1a60e1"/>
      <stop offset="0.885" stop-color="#1955df"/>
      <stop offset="1" stop-color="#1955df"/>
    </linearGradient>
    <linearGradient id="linear-gradient-4" x1="0.5" y1="1" x2="0.5" gradientUnits="objectBoundingBox">
      <stop offset="0" stop-color="#2289ec" stop-opacity="0"/>
      <stop offset="0.4" stop-color="#2493ee"/>
      <stop offset="0.6" stop-color="#2494ee"/>
      <stop offset="1" stop-color="#228aec" stop-opacity="0"/>
    </linearGradient>
  </defs>
  <g id="Group_7235" data-name="Group 7235" transform="translate(-375 -4906)">
    <g id="Rectangle_645" data-name="Rectangle 645" transform="translate(375 4906)" fill="#fff" stroke="#002a98" stroke-width="4">
      <path d="M10,0H360a10,10,0,0,1,10,10V300a0,0,0,0,1,0,0H0a0,0,0,0,1,0,0V10A10,10,0,0,1,10,0Z" stroke="none"/>
      <path d="M10,2H360a8,8,0,0,1,8,8V296a2,2,0,0,1-2,2H4a2,2,0,0,1-2-2V10A8,8,0,0,1,10,2Z" fill="none"/>
    </g>
    <g id="Group_6603" data-name="Group 6603" transform="translate(405.55 4894.244)">
      <g id="Group_6599" data-name="Group 6599" transform="translate(100.714 173.82)">
        <path id="Path_20632" data-name="Path 20632" d="M45.437,151.948V130.573a.366.366,0,0,1,.414-.414h1.427a.364.364,0,0,1,.411.414v21.375a.363.363,0,0,1-.411.411H45.851A.365.365,0,0,1,45.437,151.948Z" transform="translate(-45.437 -129.906)" fill="#1a1e50"/>
        <path id="Path_20633" data-name="Path 20633" d="M50.939,151.948V130.573a.365.365,0,0,1,.411-.414h1.43a.555.555,0,0,1,.475.288L63.912,147.7c.04.063.083.092.124.081s.063-.057.063-.144v-17.06a.366.366,0,0,1,.414-.414H65.94a.364.364,0,0,1,.411.414v21.375a.363.363,0,0,1-.411.411H64.513a.566.566,0,0,1-.478-.285L53.349,134.758c-.043-.063-.086-.089-.127-.081s-.063.06-.063.144l.032,17.126a.364.364,0,0,1-.411.411H51.35A.364.364,0,0,1,50.939,151.948Z" transform="translate(-35.113 -129.906)" fill="#1a1e50"/>
        <path id="Path_20634" data-name="Path 20634" d="M74.773,132.126H63.261a.139.139,0,0,0-.158.158v7.769a.139.139,0,0,0,.158.158h8.022a.365.365,0,0,1,.411.414v1.139a.365.365,0,0,1-.411.414H63.261a.139.139,0,0,0-.158.158v9.61a.366.366,0,0,1-.414.411H61.262a.363.363,0,0,1-.411-.411V130.573a.364.364,0,0,1,.411-.414H74.773a.365.365,0,0,1,.411.414v1.142A.364.364,0,0,1,74.773,132.126Z" transform="translate(-16.514 -129.906)" fill="#1a1e50"/>
        <path id="Path_20635" data-name="Path 20635" d="M73.056,151.857a6.468,6.468,0,0,1-2.646-2.583,7.735,7.735,0,0,1-.938-3.854v-7.991a7.735,7.735,0,0,1,.938-3.854,6.486,6.486,0,0,1,2.646-2.583,8.254,8.254,0,0,1,3.964-.92,8.356,8.356,0,0,1,3.981.92,6.5,6.5,0,0,1,2.664,2.583,7.764,7.764,0,0,1,.935,3.854v7.991a7.764,7.764,0,0,1-.935,3.854A6.476,6.476,0,0,1,81,151.857a8.323,8.323,0,0,1-3.981.92A8.222,8.222,0,0,1,73.056,151.857Zm7.833-2.474a5.228,5.228,0,0,0,1.458-3.869V137.4a5.287,5.287,0,0,0-1.458-3.886,5.776,5.776,0,0,0-7.706,0,5.287,5.287,0,0,0-1.458,3.886v8.117a5.45,5.45,0,0,0,9.164,3.869Z" transform="translate(-0.337 -130.071)" fill="#1a1e50"/>
        <path id="Path_20636" data-name="Path 20636" d="M93.786,130.573v1.171a.366.366,0,0,1-.414.414H87.282a.14.14,0,0,0-.158.158v19.632a.363.363,0,0,1-.411.411H85.286a.363.363,0,0,1-.411-.411V132.316a.14.14,0,0,0-.161-.158H78.88a.364.364,0,0,1-.411-.414v-1.171a.364.364,0,0,1,.411-.414H93.372A.366.366,0,0,1,93.786,130.573Z" transform="translate(16.545 -129.906)" fill="#1a1e50"/>
        <path id="Path_20637" data-name="Path 20637" d="M101.9,132.126H90.36a.139.139,0,0,0-.158.158v7.769a.139.139,0,0,0,.158.158h8.054a.367.367,0,0,1,.414.414v1.139a.367.367,0,0,1-.414.414H90.36a.139.139,0,0,0-.158.158v7.9a.139.139,0,0,0,.158.158H101.9a.364.364,0,0,1,.411.414v1.142a.363.363,0,0,1-.411.411H88.361a.364.364,0,0,1-.411-.411V130.573a.365.365,0,0,1,.411-.414H101.9a.364.364,0,0,1,.411.414v1.142A.363.363,0,0,1,101.9,132.126Z" transform="translate(34.335 -129.906)" fill="#1a1e50"/>
        <path id="Path_20638" data-name="Path 20638" d="M100.574,151.938a6.36,6.36,0,0,1-2.615-2.474,7.179,7.179,0,0,1-.935-3.693v-8.721a7.032,7.032,0,0,1,.935-3.647,6.382,6.382,0,0,1,2.615-2.459,8.364,8.364,0,0,1,3.9-.872,8.472,8.472,0,0,1,3.9.857,6.327,6.327,0,0,1,2.615,2.41,6.8,6.8,0,0,1,.938,3.584c0,.19-.138.3-.414.348l-1.427.095h-.095a.379.379,0,0,1-.221-.063c-.063-.043-.095-.086-.095-.127v-.19a4.721,4.721,0,0,0-1.427-3.6,5.934,5.934,0,0,0-7.548.017,4.725,4.725,0,0,0-1.427,3.584v8.88a4.719,4.719,0,0,0,1.427,3.581,5.217,5.217,0,0,0,3.771,1.363,5.278,5.278,0,0,0,3.777-1.346,4.71,4.71,0,0,0,1.427-3.6c0-.253.135-.371.411-.351l1.427.063c.276,0,.414.055.414.158v.161a6.956,6.956,0,0,1-.938,3.63,6.285,6.285,0,0,1-2.615,2.425,8.472,8.472,0,0,1-3.9.857A8.364,8.364,0,0,1,100.574,151.938Z" transform="translate(51.362 -130.071)" fill="#1a1e50"/>
        <path id="Path_20639" data-name="Path 20639" d="M119.64,130.159h1.427a.364.364,0,0,1,.411.414v21.375a.363.363,0,0,1-.411.411H119.64a.365.365,0,0,1-.414-.411v-9.61a.139.139,0,0,0-.158-.158H109.014a.14.14,0,0,0-.158.158v9.61a.363.363,0,0,1-.411.411h-1.427a.365.365,0,0,1-.414-.411V130.573a.366.366,0,0,1,.414-.414h1.427a.364.364,0,0,1,.411.414v9.481a.14.14,0,0,0,.158.158h10.053a.139.139,0,0,0,.158-.158v-9.481A.366.366,0,0,1,119.64,130.159Z" transform="translate(69.338 -129.906)" fill="#1a1e50"/>
      </g>
      <g id="Group_6600" data-name="Group 6600" transform="translate(100.728 134.148)">
        <path id="Path_20640" data-name="Path 20640" d="M49.44,140.7a6.633,6.633,0,0,1-2.96-2.307,5.932,5.932,0,0,1-1.038-3.472v-.987a.4.4,0,0,1,.457-.457h1.516a.4.4,0,0,1,.457.457v.846a3.922,3.922,0,0,0,1.691,3.279,7.405,7.405,0,0,0,4.548,1.266,6.405,6.405,0,0,0,4.122-1.145,3.733,3.733,0,0,0,1.409-3.046,3.455,3.455,0,0,0-.653-2.114A6.483,6.483,0,0,0,57,131.36a33.015,33.015,0,0,0-3.84-1.8,40.26,40.26,0,0,1-4.1-1.85,6.847,6.847,0,0,1-2.362-2.045,5.247,5.247,0,0,1-.9-3.153,5.542,5.542,0,0,1,2.062-4.6,8.928,8.928,0,0,1,5.69-1.637,9.442,9.442,0,0,1,6.133,1.832,5.953,5.953,0,0,1,2.255,4.861v.67a.405.405,0,0,1-.457.457h-1.55a.4.4,0,0,1-.457-.457v-.529a4.152,4.152,0,0,0-1.588-3.348,6.866,6.866,0,0,0-4.476-1.3,6.145,6.145,0,0,0-3.823,1.024,3.516,3.516,0,0,0-1.32,2.957,3.282,3.282,0,0,0,.65,2.1,5.5,5.5,0,0,0,1.867,1.447q1.217.617,3.719,1.6a35.829,35.829,0,0,1,4.159,1.973A8.014,8.014,0,0,1,61.19,131.8a5.362,5.362,0,0,1,.952,3.224,5.782,5.782,0,0,1-2.166,4.7,9.258,9.258,0,0,1-6.043,1.781A11.484,11.484,0,0,1,49.44,140.7Z" transform="translate(-45.442 -116.279)" fill="#1951de"/>
        <path id="Path_20641" data-name="Path 20641" d="M66.38,140.711l-5.146-10.853a.228.228,0,0,0-.21-.141H55.139a.158.158,0,0,0-.178.178v10.712a.4.4,0,0,1-.457.457H52.918a.4.4,0,0,1-.457-.457V116.822a.4.4,0,0,1,.457-.457h9.02A6.884,6.884,0,0,1,67.384,127.3a6.156,6.156,0,0,1-3.613,2.238c-.118.023-.152.095-.106.213l5.252,10.781a.549.549,0,0,1,.069.213c0,.21-.138.316-.423.316H66.944A.586.586,0,0,1,66.38,140.711ZM54.961,118.724v8.81a.156.156,0,0,0,.178.175h6.518a4.516,4.516,0,0,0,3.314-1.251,4.421,4.421,0,0,0,1.269-3.294,4.54,4.54,0,0,0-1.269-3.331,4.449,4.449,0,0,0-3.314-1.286H55.139A.158.158,0,0,0,54.961,118.724Z" transform="translate(-32.271 -116.118)" fill="#1951de"/>
        <path id="Path_20642" data-name="Path 20642" d="M74.852,118.56H62.026a.156.156,0,0,0-.178.175v8.635a.155.155,0,0,0,.178.175h8.949a.4.4,0,0,1,.457.457v1.268a.405.405,0,0,1-.457.46H62.026a.155.155,0,0,0-.178.176v8.773a.155.155,0,0,0,.178.175H74.852a.405.405,0,0,1,.457.46v1.268a.4.4,0,0,1-.457.457H59.805a.406.406,0,0,1-.46-.457V116.834a.406.406,0,0,1,.46-.457H74.852a.4.4,0,0,1,.457.457V118.1A.4.4,0,0,1,74.852,118.56Z" transform="translate(-19.354 -116.095)" fill="#1951de"/>
        <path id="Path_20643" data-name="Path 20643" d="M81.649,118.56H68.82a.157.157,0,0,0-.175.175v8.635a.155.155,0,0,0,.175.175h8.951a.406.406,0,0,1,.46.457v1.268a.407.407,0,0,1-.46.46H68.82a.155.155,0,0,0-.175.176v8.773a.155.155,0,0,0,.175.175H81.649a.406.406,0,0,1,.457.46v1.268a.405.405,0,0,1-.457.457H66.6a.4.4,0,0,1-.457-.457V116.834a.4.4,0,0,1,.457-.457H81.649a.405.405,0,0,1,.457.457V118.1A.405.405,0,0,1,81.649,118.56Z" transform="translate(-6.594 -116.095)" fill="#1951de"/>
        <path id="Path_20644" data-name="Path 20644" d="M72.943,140.585V116.834a.4.4,0,0,1,.457-.457h1.588a.622.622,0,0,1,.526.316l11.839,19.169c.046.072.095.1.141.089s.072-.066.072-.158V116.834a.4.4,0,0,1,.457-.457h1.588a.405.405,0,0,1,.457.457v23.751a.405.405,0,0,1-.457.457H88.024a.623.623,0,0,1-.529-.316l-11.874-19.24c-.046-.072-.092-.1-.141-.086s-.072.063-.072.158l.037,19.028a.4.4,0,0,1-.457.457H73.4A.4.4,0,0,1,72.943,140.585Z" transform="translate(6.162 -116.095)" fill="#1951de"/>
        <path id="Path_20645" data-name="Path 20645" d="M95.91,118.56H83.084a.156.156,0,0,0-.178.175v8.635a.155.155,0,0,0,.178.175h8.949a.4.4,0,0,1,.457.457v1.268a.405.405,0,0,1-.457.46H83.084a.155.155,0,0,0-.178.176v8.773a.155.155,0,0,0,.178.175H95.91a.405.405,0,0,1,.457.46v1.268a.4.4,0,0,1-.457.457H80.863a.406.406,0,0,1-.46-.457V116.834a.406.406,0,0,1,.46-.457H95.91a.4.4,0,0,1,.457.457V118.1A.4.4,0,0,1,95.91,118.56Z" transform="translate(20.16 -116.095)" fill="#1951de"/>
        <path id="Path_20646" data-name="Path 20646" d="M94.344,140.654,86.7,116.9a.354.354,0,0,1-.035-.175.307.307,0,0,1,.121-.245.438.438,0,0,1,.3-.106h1.691a.473.473,0,0,1,.495.388l6.412,20.472c.023.095.058.141.106.141s.083-.046.106-.141l6.414-20.472a.468.468,0,0,1,.492-.388h1.657a.406.406,0,0,1,.351.141.422.422,0,0,1,.035.385l-7.715,23.751a.473.473,0,0,1-.495.388h-1.8A.468.468,0,0,1,94.344,140.654Z" transform="translate(31.908 -116.095)" fill="#1951de"/>
        <path id="Path_20647" data-name="Path 20647" d="M108.525,140.654l-1.409-4.3c-.046-.095-.106-.144-.175-.144h-10.5c-.069,0-.129.049-.175.144l-1.375,4.3a.47.47,0,0,1-.492.388H92.705a.415.415,0,0,1-.354-.141.429.429,0,0,1-.035-.388l7.752-23.748a.473.473,0,0,1,.495-.388h2.255a.47.47,0,0,1,.492.388l7.789,23.748a.454.454,0,0,1,.034.175.32.32,0,0,1-.124.247.438.438,0,0,1-.3.106H109.02A.473.473,0,0,1,108.525,140.654Zm-11.345-6.483h9.055c.141,0,.187-.069.141-.21l-4.582-14.414c-.023-.092-.058-.141-.1-.141s-.083.049-.106.141L97.04,133.961C97.017,134.1,97.063,134.171,97.181,134.171Z" transform="translate(42.461 -116.095)" fill="#1951de"/>
        <path id="Path_20648" data-name="Path 20648" d="M102.924,140.7a6.618,6.618,0,0,1-2.96-2.307,5.932,5.932,0,0,1-1.038-3.472v-.987a.4.4,0,0,1,.457-.457H100.9a.405.405,0,0,1,.46.457v.846a3.915,3.915,0,0,0,1.691,3.279,7.4,7.4,0,0,0,4.545,1.266,6.394,6.394,0,0,0,4.122-1.145,3.725,3.725,0,0,0,1.409-3.046,3.453,3.453,0,0,0-.65-2.114,6.5,6.5,0,0,0-1.993-1.657,32.566,32.566,0,0,0-3.84-1.8,40.848,40.848,0,0,1-4.1-1.85,6.863,6.863,0,0,1-2.359-2.045,5.247,5.247,0,0,1-.9-3.153,5.548,5.548,0,0,1,2.06-4.6,8.937,8.937,0,0,1,5.692-1.637,9.447,9.447,0,0,1,6.133,1.832,5.95,5.95,0,0,1,2.252,4.861v.67a.4.4,0,0,1-.457.457h-1.55a.4.4,0,0,1-.457-.457v-.529a4.15,4.15,0,0,0-1.585-3.348,6.876,6.876,0,0,0-4.476-1.3,6.145,6.145,0,0,0-3.823,1.024,3.518,3.518,0,0,0-1.323,2.957,3.284,3.284,0,0,0,.653,2.1,5.472,5.472,0,0,0,1.867,1.447q1.217.617,3.719,1.6a35.828,35.828,0,0,1,4.159,1.973,8.014,8.014,0,0,1,2.534,2.238,5.362,5.362,0,0,1,.952,3.224,5.782,5.782,0,0,1-2.166,4.7,9.264,9.264,0,0,1-6.043,1.781A11.474,11.474,0,0,1,102.924,140.7Z" transform="translate(54.917 -116.279)" fill="#1951de"/>
        <path id="Path_20649" data-name="Path 20649" d="M121.462,140.654l-1.409-4.3c-.046-.095-.106-.144-.175-.144h-10.5c-.069,0-.129.049-.175.144l-1.375,4.3a.47.47,0,0,1-.492.388h-1.691a.408.408,0,0,1-.354-.141.42.42,0,0,1-.034-.388l7.752-23.748a.468.468,0,0,1,.492-.388h2.258a.472.472,0,0,1,.492.388l7.786,23.748a.406.406,0,0,1,.034.175.312.312,0,0,1-.124.247.433.433,0,0,1-.3.106h-1.691A.47.47,0,0,1,121.462,140.654Zm-11.347-6.483h9.055c.144,0,.19-.069.144-.21l-4.582-14.414c-.023-.092-.06-.141-.106-.141s-.083.049-.1.141l-4.548,14.414C109.951,134.1,110,134.171,110.115,134.171Z" transform="translate(66.734 -116.095)" fill="#1951de"/>
      </g>
      <g id="Group_6602" data-name="Group 6602" transform="translate(100.715 201.425)">
        <g id="Group_6601" data-name="Group 6601" transform="translate(2.746 0.296)">
          <path id="Path_20651" data-name="Path 20651" d="M54.512,139.946v.265a.154.154,0,0,1-.175.175H50.8c-.049,0-.069.023-.069.072v11.468a.156.156,0,0,1-.178.175h-.334a.156.156,0,0,1-.178-.175V140.458c0-.049-.02-.072-.069-.072h-3.4a.154.154,0,0,1-.175-.175v-.265a.154.154,0,0,1,.175-.175h7.769A.154.154,0,0,1,54.512,139.946Z" transform="translate(-46.392 -139.771)" fill="#1a1e50"/>
          <path id="Path_20652" data-name="Path 20652" d="M56.713,149.022a2.567,2.567,0,0,0,.972-1.145.145.145,0,0,1,.21-.106l.23.069a.163.163,0,0,1,.121.23,3,3,0,0,1-1.179,1.444,3.465,3.465,0,0,1-1.956.546,3.29,3.29,0,0,1-2.025-.616,3.163,3.163,0,0,1-1.148-1.657,9.948,9.948,0,0,1-.193-2.307q0-.811.026-1.294a5.039,5.039,0,0,1,.115-.874A3,3,0,0,1,53,141.587a3.692,3.692,0,0,1,4.254.043,3.072,3.072,0,0,1,1.093,1.861,4.823,4.823,0,0,1,.089.791q.017.457.017,1.2c0,.127-.06.193-.175.193H52.5c-.049,0-.072.023-.072.069,0,.377.006.719.017,1.024a3.6,3.6,0,0,0,.072.667,2.34,2.34,0,0,0,.872,1.464,2.741,2.741,0,0,0,1.752.547A2.813,2.813,0,0,0,56.713,149.022ZM53.376,142.1a2.344,2.344,0,0,0-.854,1.427,10.017,10.017,0,0,0-.089,1.513.063.063,0,0,0,.072.072h5.2c.046,0,.069-.023.069-.072a7.823,7.823,0,0,0-.086-1.478,2.5,2.5,0,0,0-.883-1.453,2.939,2.939,0,0,0-3.426-.009Z" transform="translate(-36.347 -137.589)" fill="#1a1e50"/>
          <path id="Path_20653" data-name="Path 20653" d="M67.939,141.706a2.818,2.818,0,0,1,.777,2.105v5.92a.156.156,0,0,1-.178.175H68.2a.156.156,0,0,1-.178-.175v-5.8a2.372,2.372,0,0,0-.633-1.737,2.246,2.246,0,0,0-1.674-.641,2.43,2.43,0,0,0-1.76.624A2.259,2.259,0,0,0,63.3,143.9v5.833a.154.154,0,0,1-.175.175h-.337a.155.155,0,0,1-.175-.175v-5.8a2.372,2.372,0,0,0-.633-1.737,2.223,2.223,0,0,0-1.657-.641,2.425,2.425,0,0,0-1.76.624,2.259,2.259,0,0,0-.653,1.717v5.833a.156.156,0,0,1-.178.175H57.4a.154.154,0,0,1-.175-.175V141.24a.156.156,0,0,1,.175-.178h.334a.158.158,0,0,1,.178.178v.88q0,.052.026.052a.107.107,0,0,0,.063-.035,2.361,2.361,0,0,1,1.012-.889,3.334,3.334,0,0,1,1.47-.308,2.988,2.988,0,0,1,1.594.411,2.453,2.453,0,0,1,1,1.174c.011.023.023.035.032.035s.026-.012.037-.035a2.432,2.432,0,0,1,1.047-1.182,3.388,3.388,0,0,1,1.683-.4A2.8,2.8,0,0,1,67.939,141.706Z" transform="translate(-26.061 -137.576)" fill="#1a1e50"/>
          <path id="Path_20654" data-name="Path 20654" d="M70.955,144.115c.017.311.026.765.026,1.366s-.009,1.041-.026,1.363a5.336,5.336,0,0,1-.115.874,3.027,3.027,0,0,1-1.082,1.7,3.183,3.183,0,0,1-2.037.644,3,3,0,0,1-1.444-.342,2.641,2.641,0,0,1-1-.943.1.1,0,0,0-.06-.035c-.02,0-.029.017-.029.052v4.441a.154.154,0,0,1-.175.175h-.337a.155.155,0,0,1-.175-.175v-11.98a.158.158,0,0,1,.175-.178h.337a.156.156,0,0,1,.175.178v.949c0,.037.009.055.029.055a.089.089,0,0,0,.06-.037,2.649,2.649,0,0,1,1.013-.949,2.98,2.98,0,0,1,1.435-.336,3.188,3.188,0,0,1,2.016.636,2.969,2.969,0,0,1,1.084,1.691A4.028,4.028,0,0,1,70.955,144.115Zm-.7,2.776c.023-.259.035-.716.035-1.375s-.012-1.1-.035-1.349a4.668,4.668,0,0,0-.124-.731,2.205,2.205,0,0,0-.837-1.358,2.576,2.576,0,0,0-1.628-.526,2.258,2.258,0,0,0-1.559.538,2.436,2.436,0,0,0-.785,1.346,3.253,3.253,0,0,0-.112.67c-.02.247-.029.7-.029,1.375s.009,1.148.029,1.4a2.719,2.719,0,0,0,.132.693,2.265,2.265,0,0,0,2.307,1.87,2.526,2.526,0,0,0,1.6-.521,2.32,2.32,0,0,0,.863-1.329A3.029,3.029,0,0,0,70.258,146.891Z" transform="translate(-12.419 -137.589)" fill="#1a1e50"/>
          <path id="Path_20655" data-name="Path 20655" d="M69.918,151.927v-11.98a.155.155,0,0,1,.175-.175h.337a.154.154,0,0,1,.175.175v11.98a.154.154,0,0,1-.175.175h-.337A.155.155,0,0,1,69.918,151.927Z" transform="translate(-2.247 -139.771)" fill="#1a1e50"/>
          <path id="Path_20656" data-name="Path 20656" d="M78.292,149.022a2.579,2.579,0,0,0,.969-1.145.145.145,0,0,1,.21-.106l.23.069a.161.161,0,0,1,.121.23,3,3,0,0,1-1.179,1.444,3.462,3.462,0,0,1-1.953.546,3.293,3.293,0,0,1-2.028-.616,3.142,3.142,0,0,1-1.145-1.657,9.95,9.95,0,0,1-.193-2.307q0-.811.026-1.294a5.039,5.039,0,0,1,.115-.874,3,3,0,0,1,1.116-1.726,3.7,3.7,0,0,1,4.257.043,3.1,3.1,0,0,1,1.093,1.861,4.846,4.846,0,0,1,.086.791q.017.457.017,1.2c0,.127-.058.193-.175.193H74.08a.063.063,0,0,0-.072.069c0,.377.006.719.017,1.024a3.6,3.6,0,0,0,.072.667,2.353,2.353,0,0,0,.872,1.464,2.749,2.749,0,0,0,1.755.547A2.819,2.819,0,0,0,78.292,149.022Zm-3.34-6.924a2.357,2.357,0,0,0-.854,1.427,10.015,10.015,0,0,0-.089,1.513.064.064,0,0,0,.072.072h5.2c.046,0,.069-.023.069-.072a7.82,7.82,0,0,0-.086-1.478,2.5,2.5,0,0,0-.88-1.453,2.943,2.943,0,0,0-3.429-.009Z" transform="translate(4.144 -137.589)" fill="#1a1e50"/>
          <path id="Path_20657" data-name="Path 20657" d="M83.376,149.417a3.075,3.075,0,0,1-1.13-1.714,5.391,5.391,0,0,1-.141-.909c-.023-.334-.035-.774-.035-1.312s.009-1,.026-1.323a4.3,4.3,0,0,1,.132-.88,3.033,3.033,0,0,1,1.148-1.7,3.381,3.381,0,0,1,2.077-.644,3.463,3.463,0,0,1,2.108.644,2.862,2.862,0,0,1,1.116,1.7,5.015,5.015,0,0,1,.115.863c.017.316.026.765.026,1.34q0,.9-.026,1.363a4.982,4.982,0,0,1-.115.857,2.944,2.944,0,0,1-1.128,1.714,3.393,3.393,0,0,1-2.1.644A3.305,3.305,0,0,1,83.376,149.417Zm3.785-.526a2.492,2.492,0,0,0,.883-1.455,5.431,5.431,0,0,0,.069-.8c.011-.36.017-.736.017-1.136,0-.434-.006-.826-.017-1.171a4.883,4.883,0,0,0-.069-.768,2.363,2.363,0,0,0-.883-1.453,2.694,2.694,0,0,0-1.726-.555,2.6,2.6,0,0,0-1.691.555,2.481,2.481,0,0,0-.88,1.453,11.035,11.035,0,0,0-.106,1.939,10.813,10.813,0,0,0,.106,1.936,2.457,2.457,0,0,0,.88,1.464,2.925,2.925,0,0,0,3.417-.009Z" transform="translate(20.555 -137.589)" fill="#1a1e50"/>
          <path id="Path_20658" data-name="Path 20658" d="M89.711,140.924a3,3,0,0,0-.385,1.717v.547a.061.061,0,0,0,.069.069h2.131a.156.156,0,0,1,.175.178v.282a.155.155,0,0,1-.175.175H89.395a.061.061,0,0,0-.069.069v7.965a.156.156,0,0,1-.178.175h-.334a.154.154,0,0,1-.175-.175v-7.965c0-.046-.023-.069-.072-.069H87.421a.155.155,0,0,1-.175-.175v-.282a.156.156,0,0,1,.175-.178h1.145c.049,0,.072-.023.072-.069v-.564a3.473,3.473,0,0,1,.547-2.177,2.44,2.44,0,0,1,1.99-.676H91.6a.154.154,0,0,1,.175.175v.265a.154.154,0,0,1-.175.175H91.21A1.745,1.745,0,0,0,89.711,140.924Z" transform="translate(30.267 -139.771)" fill="#1a1e50"/>
          <path id="Path_20659" data-name="Path 20659" d="M100.727,141.719a2.952,2.952,0,0,1,.765,2.157v5.868a.154.154,0,0,1-.175.175h-.334a.154.154,0,0,1-.175-.175V148.9a.055.055,0,0,0-.026-.052c-.017-.014-.037-.006-.063.017a2.9,2.9,0,0,1-1.225.889,4.43,4.43,0,0,1-1.663.308,3.4,3.4,0,0,1-2.036-.6,2.121,2.121,0,0,1-.837-1.85,2.413,2.413,0,0,1,.969-2.028,4.3,4.3,0,0,1,2.661-.739h2.149a.063.063,0,0,0,.072-.069v-.918a2.112,2.112,0,0,0-2.4-2.307,2.839,2.839,0,0,0-1.565.4,1.631,1.631,0,0,0-.759,1.064.186.186,0,0,1-.21.158l-.371-.052a.239.239,0,0,1-.132-.063.11.11,0,0,1-.026-.112,2.266,2.266,0,0,1,1.021-1.464,3.716,3.716,0,0,1,2.08-.546A3.048,3.048,0,0,1,100.727,141.719Zm-.777,7.162a1.8,1.8,0,0,0,.857-1.588V145.5a.064.064,0,0,0-.072-.072H98.6a3.676,3.676,0,0,0-2.14.572,1.823,1.823,0,0,0-.82,1.576,1.636,1.636,0,0,0,.633,1.392,2.653,2.653,0,0,0,1.64.477A3.6,3.6,0,0,0,99.95,148.882Z" transform="translate(44.737 -137.589)" fill="#1a1e50"/>
          <path id="Path_20660" data-name="Path 20660" d="M104.611,141.152c.095.035.124.112.089.23l-.124.351c-.034.118-.106.147-.21.089a2.371,2.371,0,0,0-.883-.124,2.135,2.135,0,0,0-1.231.371,2.53,2.53,0,0,0-.857.987,3,3,0,0,0-.308,1.355V149.7a.154.154,0,0,1-.175.175h-.334a.154.154,0,0,1-.175-.175v-8.491a.156.156,0,0,1,.175-.178h.334a.156.156,0,0,1,.175.178v1.32c0,.035.009.055.029.063s.032-.012.043-.046a3.016,3.016,0,0,1,.987-1.162,2.454,2.454,0,0,1,1.427-.423A2.479,2.479,0,0,1,104.611,141.152Z" transform="translate(54.956 -137.542)" fill="#1a1e50"/>
          <path id="Path_20661" data-name="Path 20661" d="M108.724,143.044h-2.131a.063.063,0,0,0-.072.069v5.851a1.657,1.657,0,0,0,.443,1.32,2.1,2.1,0,0,0,1.372.371h.388a.156.156,0,0,1,.178.175v.265a.175.175,0,0,1-.178.193h-.44a2.951,2.951,0,0,1-1.806-.475,2.051,2.051,0,0,1-.624-1.726v-5.974c0-.046-.023-.069-.072-.069h-1.073a.158.158,0,0,1-.178-.178v-.245a.158.158,0,0,1,.178-.178h1.073c.049,0,.072-.023.072-.069v-1.991a.156.156,0,0,1,.175-.178h.316a.156.156,0,0,1,.175.178v1.991a.063.063,0,0,0,.072.069h2.131a.158.158,0,0,1,.178.178v.245A.158.158,0,0,1,108.724,143.044Z" transform="translate(62.7 -138.957)" fill="#1a1e50"/>
          <path id="Path_20662" data-name="Path 20662" d="M110.495,149.646a2.651,2.651,0,0,1-1.1-.82,1.836,1.836,0,0,1-.4-1.139v-.245a.154.154,0,0,1,.175-.175h.316a.154.154,0,0,1,.175.175v.23a1.3,1.3,0,0,0,.311.828,2.163,2.163,0,0,0,.863.624,3.165,3.165,0,0,0,1.26.236,2.766,2.766,0,0,0,1.717-.5,1.558,1.558,0,0,0,.662-1.294,1.193,1.193,0,0,0-.337-.883,2.207,2.207,0,0,0-.765-.5c-.288-.112-.756-.273-1.4-.486a14.549,14.549,0,0,1-1.542-.561,2.83,2.83,0,0,1-.987-.725,1.705,1.705,0,0,1-.4-1.162,1.984,1.984,0,0,1,.828-1.665,4.125,4.125,0,0,1,4.4.02,1.965,1.965,0,0,1,.837,1.628v.052a.158.158,0,0,1-.175.178h-.3c-.118,0-.175-.043-.175-.124v-.106a1.457,1.457,0,0,0-.662-1.208,2.9,2.9,0,0,0-1.752-.483,2.788,2.788,0,0,0-1.691.466,1.433,1.433,0,0,0-.636,1.208,1.178,1.178,0,0,0,.308.837,2.358,2.358,0,0,0,.785.529q.475.2,1.3.466c.693.21,1.234.4,1.619.555a2.743,2.743,0,0,1,1.007.7,1.763,1.763,0,0,1,.42,1.222,2.133,2.133,0,0,1-.834,1.746,3.443,3.443,0,0,1-2.212.67A4.127,4.127,0,0,1,110.495,149.646Z" transform="translate(71.08 -137.542)" fill="#1a1e50"/>
        </g>
        <rect id="Rectangle_1332" data-name="Rectangle 1332" width="190.807" height="0.959" transform="translate(0 0)" fill="#1a1e50"/>
      </g>
      <g id="Group_14660" data-name="Group 14660" transform="translate(16.45 106.756)">
        <g id="Group_14658" data-name="Group 14658" transform="translate(0 0)">
          <path id="Path_37475" data-name="Path 37475" d="M87.129,20.058V-9.457L45.195-41.82,19.641-8.771,50.464,15.006V30.8L19.634,7.077V36.59L61.571,68.958,87.125,35.909l-30.8-23.757V-3.667Zm-8.211,16.9h0l-18.4,23.792L25.487,33.724l.044-14.75L56.322,42.7V19.523ZM50.456-15.561V7.63L27.848-9.825l18.4-23.792L81.281-6.585V8.163Z" transform="translate(-19.634 41.82)" fill="url(#linear-gradient)"/>
          <path id="Path_37476" data-name="Path 37476" d="M50.456-13.789v15.8L19.634-21.728V7.792L61.571,40.16,87.125,7.111,50.456-21.171M78.918,8.157h0l-18.4,23.792L25.487,4.918l.044-14.75L56.322,13.891V-9.282Z" transform="translate(-19.634 70.625)" fill="url(#linear-gradient-2)"/>
        </g>
        <path id="Path_37477" data-name="Path 37477" d="M27.848-28.673,87.129,17.058l-8.211,1.056L19.634-27.617Z" transform="translate(-19.634 60.668)" fill="url(#linear-gradient-3)"/>
        <rect id="Rectangle_1918" data-name="Rectangle 1918" width="5.853" height="33.507" transform="translate(30.825 38.528)" fill="url(#linear-gradient-4)"/>
      </g>
    </g>
  </g>
</svg>
