<svg xmlns="http://www.w3.org/2000/svg" xmlns:xlink="http://www.w3.org/1999/xlink" width="370" height="300" viewBox="0 0 370 300">
  <defs>
    <radialGradient id="radial-gradient" cx="0.5" cy="0.5" r="0.5" gradientUnits="objectBoundingBox">
      <stop offset="0" stop-color="#0094d6"/>
      <stop offset="1" stop-color="#002c9a"/>
    </radialGradient>
    <linearGradient id="linear-gradient" y1="0.5" x2="1.108" y2="0.5" gradientUnits="objectBoundingBox">
      <stop offset="0" stop-color="#5ec3b9"/>
      <stop offset="1" stop-color="#c8e9f2"/>
    </linearGradient>
    <clipPath id="clip-path">
      <path id="Path_20459" data-name="Path 20459" d="M513.154,236.546l9.8.556c-.372-.021-2.1-.107-5.014-.067l-9.8-.557C511.059,236.438,512.782,236.524,513.154,236.546Z" transform="translate(-508.141 -236.468)" fill="none"/>
    </clipPath>
    <linearGradient id="linear-gradient-2" y1="0.5" x2="1" y2="0.5" gradientUnits="objectBoundingBox">
      <stop offset="0" stop-color="#2d0273"/>
      <stop offset="1" stop-color="#7b2aff"/>
    </linearGradient>
    <linearGradient id="linear-gradient-3" x1="0.637" y1="-0.132" x2="0.456" y2="1.003" xlink:href="#linear-gradient-2"/>
    <linearGradient id="linear-gradient-4" y1="0.5" x2="1" y2="0.5" gradientUnits="objectBoundingBox">
      <stop offset="0" stop-color="#0c2f15"/>
      <stop offset="0.22" stop-color="#32b34a"/>
      <stop offset="0.57" stop-color="#b8d442"/>
      <stop offset="1" stop-color="#eee82a"/>
    </linearGradient>
    <linearGradient id="linear-gradient-5" x1="1.151" y1="-0.092" x2="0.097" y2="0.764" gradientUnits="objectBoundingBox">
      <stop offset="0" stop-color="#0c2f15"/>
      <stop offset="0.08" stop-color="#32b34a"/>
      <stop offset="0.57" stop-color="#b8d442"/>
      <stop offset="1" stop-color="#eee82a"/>
    </linearGradient>
    <linearGradient id="linear-gradient-6" y1="0.5" x2="1" y2="0.5" gradientUnits="objectBoundingBox">
      <stop offset="0" stop-color="#352b6f"/>
      <stop offset="0.24" stop-color="#275ca9"/>
      <stop offset="0.52" stop-color="#00a3c9"/>
      <stop offset="1" stop-color="#c8e9f2"/>
    </linearGradient>
    <linearGradient id="linear-gradient-8" x1="0" y1="0.5" x2="1" y2="0.5" xlink:href="#linear-gradient"/>
  </defs>
  <g id="Group_7237" data-name="Group 7237" transform="translate(-775 -1219)">
    <path id="Rectangle_646" data-name="Rectangle 646" d="M10,0H360a10,10,0,0,1,10,10V300a0,0,0,0,1,0,0H0a0,0,0,0,1,0,0V10A10,10,0,0,1,10,0Z" transform="translate(775 1219)" fill="url(#radial-gradient)"/>
    <g id="Group_6522" data-name="Group 6522" transform="translate(590.893 1037.603)">
      <path id="Path_20457" data-name="Path 20457" d="M667.524,548.091l-3.443-.194-.211.165-.123.1c-.084.067-.193.149-.306.235l-.18.136c-.186.14-.4.3-.648.48l-.222.161c-.212.154-.447.32-.7.5l-.267.188q-.5.348-1.088.741c-.089.06-.187.124-.28.185-.335.222-.692.455-1.065.695l-.378.242c-.474.3-.973.61-1.5.932-.095.059-.2.12-.3.177-.459.277-.942.559-1.441.848l-.489.279c-.607.346-1.238.7-1.9,1.055-.084.044-.176.091-.261.137-.6.318-1.215.641-1.853.964q-.285.146-.577.292c-.739.37-1.5.742-2.292,1.114-.037.018-.079.035-.116.052-.755.352-1.538.7-2.339,1.054l-.665.288c-.822.35-1.66.7-2.528,1.044l-.13.053c-.9.356-1.836.7-2.784,1.047-.241.086-.486.172-.729.257-.872.307-1.76.607-2.669.9-.115.036-.227.075-.343.112-1.007.317-2.042.622-3.094.916-.258.073-.52.143-.781.214q-1.388.376-2.822.72c-.179.042-.353.089-.533.131-1.106.258-2.237.5-3.385.72-.274.054-.551.1-.825.155q-1.372.254-2.779.472c-.27.042-.536.087-.81.127-1.161.17-2.339.322-3.536.45-.226.025-.457.042-.684.065q-1.5.15-3.04.253c-.34.022-.678.044-1.019.063-1.252.07-2.513.123-3.8.141l9.8.556c1.284-.018,2.545-.072,3.795-.14.344-.02.683-.042,1.024-.065q1.527-.1,3.021-.25c.235-.022.472-.041.705-.066q1.786-.193,3.517-.447c.287-.041.569-.089.854-.134q1.377-.214,2.719-.463c.18-.034.368-.058.547-.094.111-.02.216-.047.326-.068q1.706-.333,3.352-.715c.2-.046.392-.1.589-.145q1.4-.335,2.759-.7c.273-.074.548-.147.818-.224,1.042-.293,2.069-.594,3.068-.909.132-.042.26-.087.392-.13.89-.284,1.759-.58,2.614-.879.253-.089.507-.177.758-.268.943-.34,1.871-.685,2.767-1.039.054-.021.1-.044.157-.064.859-.341,1.69-.687,2.5-1.034.225-.1.448-.193.668-.29.8-.35,1.589-.7,2.344-1.054l.11-.05c.8-.375,1.557-.747,2.3-1.118l.051-.027-.191-.167Z" transform="translate(-202.607 -183.216)" fill="url(#linear-gradient)"/>
      <g id="Group_6513" data-name="Group 6513" transform="translate(364.634 236.468)">
        <g id="Group_6512" data-name="Group 6512" transform="translate(0)" clip-path="url(#clip-path)">
          <g id="Group_6511" data-name="Group 6511">
            <path id="Path_20458" data-name="Path 20458" d="M517.94,237.035l-9.8-.557c2.918-.04,4.641.046,5.013.068l9.8.556c-.372-.021-2.1-.107-5.014-.067" transform="translate(-508.141 -236.468)" fill="#891015"/>
          </g>
        </g>
      </g>
      <path id="Path_20460" data-name="Path 20460" d="M274.66,349.984c-.165-1.9-.289-3.765-.392-5.6-.032-.568-.053-1.125-.079-1.687-.06-1.291-.106-2.57-.135-3.83-.014-.6-.027-1.191-.034-1.781q-.025-1.975,0-3.9c0-.439,0-.886.012-1.322q.054-2.531.191-4.972c.02-.355.051-.7.073-1.049q.122-1.917.294-3.784c.049-.524.1-1.042.158-1.56q.172-1.638.383-3.234c.064-.486.126-.974.195-1.455q.283-1.957.621-3.851c.033-.187.061-.38.095-.566.266-1.44.559-2.846.871-4.23.09-.4.19-.795.285-1.193q.353-1.486.74-2.934.182-.672.371-1.336.408-1.433.851-2.822c.115-.363.225-.73.343-1.087.416-1.256.849-2.492,1.305-3.7.067-.176.139-.343.207-.518q.6-1.546,1.236-3.038c.16-.373.325-.738.489-1.106q.538-1.207,1.1-2.378c.175-.363.35-.726.529-1.084q.658-1.313,1.349-2.578c.116-.212.226-.431.344-.642q.869-1.56,1.789-3.049c.162-.263.331-.518.5-.778q.695-1.1,1.415-2.166.345-.51.7-1.01.566-.806,1.146-1.59c.247-.334.494-.668.745-1,.408-.534.823-1.058,1.241-1.577.236-.293.469-.59.708-.878.5-.6,1.008-1.19,1.519-1.77.165-.187.325-.38.491-.565q1.02-1.136,2.069-2.217c.181-.187.367-.364.55-.548.525-.531,1.051-1.056,1.586-1.567.266-.254.536-.5.8-.749.461-.428.923-.853,1.391-1.268.293-.26.588-.515.884-.769q.682-.588,1.373-1.159c.3-.247.6-.494.9-.735q.708-.567,1.425-1.113c.288-.22.574-.443.864-.658q1.042-.778,2.1-1.515c.114-.08.227-.165.343-.244.817-.566,1.641-1.111,2.469-1.644.252-.161.506-.317.758-.476.589-.37,1.18-.735,1.772-1.089q.45-.269.9-.529.858-.5,1.72-.975c.285-.158.569-.318.855-.472q1.056-.571,2.116-1.108c.145-.074.29-.152.435-.225q1.276-.64,2.556-1.236c.251-.117.5-.228.753-.343q.921-.42,1.841-.821.456-.2.911-.387.869-.367,1.738-.715c.292-.117.584-.236.877-.35q1.02-.4,2.037-.772c.174-.065.35-.133.524-.2q1.274-.463,2.541-.885c.233-.078.464-.151.7-.227q.929-.305,1.854-.593l.878-.267q.855-.256,1.7-.5c.281-.08.563-.161.843-.238q.966-.268,1.921-.515c.183-.047.368-.1.551-.145q1.222-.312,2.426-.592c.2-.047.4-.091.6-.136.6-.138,1.2-.272,1.8-.4.271-.059.541-.114.811-.17q.8-.166,1.59-.319c.294-.057.589-.115.881-.17l.8-.147q.558-.1,1.11-.2c.261-.045.52-.089.779-.132.371-.062.739-.121,1.1-.178.244-.039.489-.078.731-.114q.576-.087,1.143-.168c.214-.031.43-.063.642-.092.421-.058.835-.112,1.247-.165.163-.021.329-.044.492-.064.568-.072,1.129-.138,1.68-.2h.007q.847-.1,1.663-.177l.355-.034c.41-.04.818-.079,1.218-.114l.5-.043c.342-.029.682-.057,1.015-.083l.527-.04c.31-.023.618-.045.919-.065l.531-.034c.293-.019.58-.036.863-.051l.5-.027c.275-.014.543-.028.808-.04l.484-.022c.27-.011.531-.021.789-.03l.4-.014c.282-.009.553-.016.82-.023l.305-.008c.359-.008.706-.015,1.036-.019l-9.8-.557q-.492.006-1.026.019l-.406.011-.7.019-.51.019c-.226.008-.452.016-.686.026l-.563.025-.7.034-.615.033-.728.044c-.217.013-.435.028-.657.042-.248.016-.5.035-.753.052l-.692.052c-.27.021-.547.044-.824.067l-.681.058c-.305.028-.619.058-.932.087l-.64.062q-.784.079-1.6.17l-.4.048c-.422.049-.848.1-1.281.153-.217.027-.44.058-.66.086-.359.047-.718.093-1.083.144-.241.033-.486.07-.73.1-.352.05-.7.1-1.061.156-.256.039-.514.079-.772.12-.357.057-.717.114-1.079.174l-.784.133q-.553.1-1.113.2l-.79.145c-.141.026-.28.05-.421.077h0c-.158.03-.322.065-.48.1-.517.1-1.037.205-1.561.314-.277.057-.554.114-.834.174-.581.124-1.168.255-1.758.39-.216.049-.429.1-.644.146q-1.2.28-2.411.588c-.193.049-.388.1-.581.154q-.939.243-1.886.5c-.289.08-.578.163-.868.246q-.836.238-1.678.492c-.3.09-.6.179-.895.272q-.912.282-1.832.586c-.24.079-.477.154-.717.234q-1.263.424-2.534.883c-.177.064-.354.133-.53.2q-1.015.374-2.033.77c-.292.113-.585.232-.877.35q-.869.348-1.738.715c-.3.128-.606.256-.909.387q-.924.4-1.85.825c-.247.114-.5.222-.744.338q-1.281.6-2.56,1.238c-.142.071-.283.148-.425.219q-1.067.543-2.13,1.116c-.281.152-.559.308-.839.463q-.873.483-1.741.988-.441.256-.881.518-.9.54-1.8,1.107c-.243.153-.487.3-.73.458-.833.536-1.662,1.084-2.484,1.654-.1.066-.19.137-.285.2q-1.088.76-2.161,1.559c-.086.065-.174.123-.261.188-.189.142-.374.3-.562.44q-.737.563-1.467,1.145-.437.351-.872.71-.708.583-1.407,1.187c-.286.247-.572.494-.856.745-.478.424-.951.859-1.423,1.3-.259.241-.518.477-.774.722-.552.527-1.1,1.069-1.636,1.616-.166.168-.336.33-.5.5q-1.055,1.088-2.08,2.229c-.156.173-.307.356-.461.53-.522.592-1.039,1.19-1.548,1.8-.236.284-.465.576-.7.865-.422.523-.84,1.051-1.253,1.59-.249.326-.495.659-.741.992q-.579.784-1.144,1.589c-.135.191-.275.373-.408.566-.1.145-.194.3-.294.449-.479.706-.947,1.427-1.409,2.158-.166.263-.336.519-.5.785q-.918,1.489-1.787,3.046c-.12.215-.234.439-.352.657q-.685,1.258-1.34,2.56c-.182.363-.359.73-.536,1.1q-.562,1.162-1.1,2.361c-.166.372-.333.743-.5,1.121q-.633,1.475-1.223,3.005c-.072.185-.149.363-.219.55-.456,1.2-.888,2.435-1.3,3.689-.119.36-.231.731-.347,1.1q-.44,1.386-.849,2.813-.189.666-.371,1.342-.388,1.442-.739,2.927c-.1.4-.2.795-.286,1.2-.312,1.382-.605,2.787-.87,4.224-.035.192-.064.391-.1.583q-.337,1.885-.618,3.835c-.07.48-.131.97-.2,1.456q-.211,1.6-.383,3.237c-.055.516-.109,1.032-.158,1.555q-.173,1.869-.294,3.8c-.022.348-.052.687-.072,1.037q-.138,2.444-.191,4.978c-.009.431-.007.875-.012,1.311q-.024,1.929,0,3.905c.007.589.02,1.182.034,1.778q.044,1.892.135,3.834c.026.56.047,1.115.079,1.681.1,1.841.227,3.7.392,5.608,1.914,22.1,17.005,55.348,45.4,69.468,20.488,10.189,37.187,13.5,49.052,14.17l9.8.557c-11.866-.672-28.565-3.981-49.052-14.171C291.666,405.333,276.573,372.082,274.66,349.984Z" transform="translate(0 -0.015)" fill="url(#linear-gradient-2)"/>
      <g id="Group_6515" data-name="Group 6515" transform="translate(273.837 236.864)">
        <g id="Group_6514" data-name="Group 6514">
          <path id="Path_20461" data-name="Path 20461" d="M388.418,237.83c3.228-.044,4.994.065,5.086.071-3.342,1.705-66.839,34.107-61.979,102.049,4.424,61.94,68.411,91.22,71.777,92.761-.251.085-5.03,1.7-14.276,1.825-11.907.163-30.807-2.278-54.984-14.3-28.392-14.119-43.485-47.37-45.4-69.468C279.557,245.988,366.241,238.134,388.418,237.83Z" transform="translate(-287.821 -237.659)" fill="url(#linear-gradient-3)"/>
          <path id="Path_20462" data-name="Path 20462" d="M387.7,434.473c-11.474,0-30.151-2.486-53.958-14.327-16.324-8.116-26.79-21.774-32.7-31.8-7.092-12.042-11.754-25.818-12.791-37.794-3.033-34.967,4.332-62.54,21.89-81.952,10.836-11.981,25.394-20.71,43.27-25.946a134.029,134.029,0,0,1,34.77-5.21c3.082-.044,4.824.055,5.1.071l.585.035-.519.267c-6.832,3.486-66.609,35.962-61.893,101.895,4.293,60.1,64.8,89.476,71.683,92.627l.367.169-.38.128c-.516.175-5.3,1.709-14.326,1.833Q388.262,434.473,387.7,434.473Zm1.984-196.723c-.455,0-.954,0-1.492.011-15.138.207-53.024,3.649-77.809,31.051-17.5,19.343-24.833,46.835-21.809,81.711,1.7,19.662,15.175,54.352,45.31,69.34,23.752,11.813,42.375,14.292,53.816,14.292.37,0,.737,0,1.094-.008a52.892,52.892,0,0,0,13.837-1.692c-8.475-3.948-67.258-33.412-71.495-92.723-4.627-64.681,52.606-97.255,61.538-101.929C392.086,237.778,391.083,237.75,389.686,237.75Z" transform="translate(-287.594 -237.429)" fill="#fff"/>
        </g>
      </g>
      <path id="Path_20463" data-name="Path 20463" d="M418.666,288.706c.205-.3.422-.6.637-.9.2-.281.4-.561.6-.844.232-.317.477-.636.718-.956.212-.28.42-.559.639-.841.255-.327.521-.657.784-.985.221-.276.436-.552.662-.828.282-.345.576-.692.866-1.037.221-.264.436-.526.66-.789.348-.407.708-.813,1.065-1.221.27-.308.54-.615.816-.923.448-.5.9-1,1.361-1.5.234-.254.475-.507.712-.761.333-.356.664-.713,1-1.069.265-.279.536-.556.8-.835.319-.33.636-.662.959-.991.277-.283.559-.564.838-.847.319-.321.636-.642.958-.962q.429-.427.862-.85c.322-.316.642-.633.965-.946.288-.28.579-.558.869-.836.324-.312.648-.624.974-.933.291-.277.583-.55.875-.824.327-.308.653-.615.98-.919q.44-.41.88-.814.484-.447.968-.89l.882-.8c.324-.292.647-.585.968-.874.287-.257.573-.512.858-.766.326-.29.651-.58.976-.866q.418-.37.834-.734.488-.428.973-.85.406-.354.81-.7.482-.416.957-.824.392-.336.779-.667l.956-.813.738-.624.935-.783.7-.585.935-.775.623-.513c.316-.26.625-.513.93-.763l.569-.463.91-.739.5-.405c.3-.245.6-.48.888-.712l.432-.347c.311-.249.608-.484.9-.716l.311-.247c.327-.259.638-.5.939-.739l.167-.131c2.14-1.679,3.541-2.735,3.862-2.977l-9.8-.555-.025.019-.173.131-.064.048-.227.172-.2.151-.406.311-.167.127q-.324.247-.717.551l-.228.177-.641.5-.3.236c-.22.17-.437.34-.676.527l-.447.353-.663.522-.5.4-.717.569-.567.454-.751.6-.618.5-.795.644-.667.544c-.274.225-.549.45-.831.682-.232.19-.468.385-.7.581-.286.235-.571.472-.863.715l-.751.627-.886.743-.778.657c-.308.26-.617.523-.93.79-.261.222-.522.447-.787.674q-.473.405-.952.819l-.818.709q-.483.421-.972.85-.412.36-.826.726-.493.436-.988.878c-.282.25-.563.5-.846.755q-.494.443-.99.893c-.283.257-.566.513-.85.773q-.509.466-1.02.937c-.276.255-.552.508-.828.765-.347.323-.694.65-1.041.977-.272.255-.541.508-.811.764q-.524.5-1.045,1-.4.385-.8.772c-.354.344-.705.69-1.058,1.037-.254.25-.51.5-.763.751-.371.368-.736.738-1.1,1.109-.233.234-.466.467-.7.7-.382.39-.759.783-1.136,1.175-.21.218-.422.435-.63.653-.431.453-.853.907-1.276,1.361-.146.156-.3.313-.441.471q-.852.924-1.673,1.847l-.021.024q-.805.905-1.577,1.809c-.154.18-.3.359-.451.538-.363.429-.725.859-1.075,1.287-.185.226-.359.45-.541.676-.3.379-.61.759-.9,1.136-.191.246-.371.489-.557.734-.269.354-.541.71-.8,1.063-.188.255-.363.508-.545.762-.193.27-.393.542-.578.81-.04.058-.073.114-.112.171-.463.675-.908,1.345-1.322,2.007-22.153,35.452-13.754,64.279-13.312,65.8l9.8.556c-.442-1.517-8.841-30.345,13.311-65.8C417.752,290.059,418.2,289.385,418.666,288.706Z" transform="translate(-75.356 -5.271)" fill="url(#linear-gradient-4)"/>
      <g id="Group_6517" data-name="Group 6517" transform="translate(326.588 240.511)">
        <g id="Group_6516" data-name="Group 6516" transform="translate(0 0)">
          <path id="Path_20464" data-name="Path 20464" d="M477.463,246.777a67.893,67.893,0,0,1,13.291,14.314c7.236,10.129,13.57,24,13.9,24.73-.234-.082-4.692-1.64-12.408-1.534-11.087.151-28.413,3.908-47.029,21.32-23.362,21.834-27,50.215-27.191,51.709-.442-1.517-8.841-30.345,13.311-65.8C443.115,272.673,475.745,248.072,477.463,246.777Z" transform="translate(-415.95 -246.576)" fill="url(#linear-gradient-5)"/>
          <path id="Path_20465" data-name="Path 20465" d="M417.868,357.811l-.214-.737c-.907-3.114-8.238-31.41,13.329-65.927,11.47-18.359,42.645-42.134,46.162-44.784l.1-.074.1.074a68,68,0,0,1,13.323,14.348c7.034,9.846,13.234,23.258,13.918,24.755l.156.34-.352-.121a38.343,38.343,0,0,0-12.353-1.526c-11.191.152-28.416,3.968-46.922,21.277C422.432,326.63,418.356,354,417.966,357.049ZM477.24,246.691c-3.953,2.984-34.645,26.473-45.986,44.626-20.3,32.486-14.919,59.416-13.5,64.921.82-5.45,5.692-31,27.133-51.034,18.58-17.379,35.888-21.21,47.138-21.363.252,0,.5-.005.748-.005a39.78,39.78,0,0,1,11.363,1.435c-1.182-2.559-7.086-15.065-13.735-24.372A67.806,67.806,0,0,0,477.24,246.691Z" transform="translate(-415.728 -246.289)" fill="#fff"/>
        </g>
      </g>
      <path id="Path_20466" data-name="Path 20466" d="M620.06,312.719c-11.42-48.856-33.316-64.951-34.469-65.8l-9.8-.556c1.152.847,23.049,16.942,34.469,65.8,7.028,30.07-2.653,67.321-3.161,69.282l9.8.556C617.406,380.04,627.088,342.79,620.06,312.719Z" transform="translate(-183.306 -5.823)" fill="url(#linear-gradient-6)"/>
      <g id="Group_6519" data-name="Group 6519" transform="translate(401.64 240.821)">
        <g id="Group_6518" data-name="Group 6518" transform="translate(0 0)">
          <path id="Path_20467" data-name="Path 20467" d="M599.6,247.715c1.653.292,33.07,5.84,54.691,38.669,22.116,33.58,16.64,72.106,16.352,74.133a79.31,79.31,0,0,1-16.347,13.006c-12.473,7.637-22.845,9.19-23.39,9.272.509-1.961,10.191-39.211,3.163-69.282C622.645,264.657,600.749,248.562,599.6,247.715Z" transform="translate(-598.951 -247.438)" fill="url(#linear-gradient-6)"/>
          <path id="Path_20468" data-name="Path 20468" d="M629.764,382.593l.06-.234c1.043-4.01,9.984-40.017,3.163-69.2-11.086-47.428-32.054-63.975-34.408-65.706l-.551-.405.674.119c3.392.6,33.748,6.78,54.8,38.737,21.532,32.694,16.967,70.089,16.375,74.245l-.006.049-.033.036a79.309,79.309,0,0,1-16.381,13.035c-12.145,7.437-22.329,9.126-23.451,9.293ZM599.307,247.6c4.058,3.2,23.476,20.492,33.99,65.479,6.722,28.758-1.816,64.1-3.1,69.121,1.908-.315,11.614-2.184,23.091-9.211a79.293,79.293,0,0,0,16.279-12.942c.617-4.378,5.053-41.5-16.334-73.974C633.254,255.744,604.879,248.717,599.307,247.6Z" transform="translate(-598.028 -247.043)" fill="#fff"/>
        </g>
      </g>
      <path id="Path_20469" data-name="Path 20469" d="M458.3,593.3c-19.933-17.628-27.011-33.107-27.383-33.922l-9.8-.555c.373.815,7.45,16.294,27.383,33.922,13.349,11.806,36.111,26.009,37.31,26.758l9.8.556C494.415,619.314,471.653,605.11,458.3,593.3Z" transform="translate(-92.312 -189.647)" fill="url(#linear-gradient-8)"/>
      <g id="Group_6521" data-name="Group 6521" transform="translate(338.301 364.171)">
        <g id="Group_6520" data-name="Group 6520" transform="translate(0 0)">
          <path id="Path_20470" data-name="Path 20470" d="M515.806,566.526c32.347-.443,54.326-17.93,55.483-18.851a96.941,96.941,0,0,1-22.531,40.151c-18.933,19.8-38.13,25.38-39.141,25.675-1.2-.748-23.96-14.952-37.308-26.758-19.933-17.628-27.011-33.107-27.383-33.922,1.542.59,30.841,11.785,65.167,13.593Q512.993,566.568,515.806,566.526Z" transform="translate(-444.617 -547.257)" fill="url(#linear-gradient-8)"/>
          <path id="Path_20471" data-name="Path 20471" d="M509.156,613.076l-.064-.036.085-.136-.1.126c-2.457-1.534-24.381-15.325-37.316-26.764C452.35,569.1,445.1,553.96,444.34,552.291l-.162-.355.364.14c3.153,1.2,31.76,11.825,65.119,13.582,1.885.1,3.814.138,5.7.111,31.384-.429,53.021-16.935,55.385-18.816l.368-.293-.114.457a97.3,97.3,0,0,1-22.572,40.224c-18.41,19.249-37.133,25.111-39.207,25.716ZM444.8,552.513c1.358,2.844,8.8,17.258,27.178,33.512,12.837,11.355,34.557,25.036,37.226,26.7,2.365-.7,20.827-6.61,39-25.612a97.233,97.233,0,0,0,22.373-39.625,96.908,96.908,0,0,1-55.208,18.595c-1.9.026-3.832-.012-5.726-.111C477.278,564.272,449.377,554.235,444.8,552.513Z" transform="translate(-444.178 -546.659)" fill="#fff"/>
        </g>
      </g>
    </g>
  </g>
</svg>
