<svg xmlns="http://www.w3.org/2000/svg" xmlns:xlink="http://www.w3.org/1999/xlink" width="460.076" height="356.715" viewBox="0 0 460.076 356.715">
  <defs>
    <linearGradient id="linear-gradient" x1="0.5" x2="0.5" y2="1" gradientUnits="objectBoundingBox">
      <stop offset="0" stop-color="#2b317a"/>
      <stop offset="1" stop-color="#4556c5"/>
    </linearGradient>
  </defs>
  <g id="Group_3179" data-name="Group 3179" transform="translate(-28.298 -73.331)">
    <path id="Path_14393" data-name="Path 14393" d="M407.527,293.088c-7.711-16.4-22.8-31.428-43.648-43.462a1.529,1.529,0,0,0-1.525,0l-24.271,14.013a1.524,1.524,0,0,0,.562,2.832,23.91,23.91,0,0,1,8.715,2.766c3.143,1.814,4.874,4.137,4.874,6.535s-1.731,4.722-4.874,6.536c-7.082,4.089-18.606,4.087-25.688,0a9.912,9.912,0,0,1-4.47-4.6,1.525,1.525,0,0,0-2.178-.755l-22.617,13.058a1.524,1.524,0,0,0,0,2.64c16.141,9.32,22.633,22.428,17.365,35.064a1.524,1.524,0,0,0,1.2,2.1l27.987,3.905a11.406,11.406,0,0,0-3.1,4.019,8.134,8.134,0,0,0,.367,7.46c2.262,4.1,7.759,7.149,14.7,8.171a34.821,34.821,0,0,0,5.061.369c9.214,0,17.474-3.669,19.951-9.286a8.07,8.07,0,0,0,.418-5.514l30.779,4.294a1.532,1.532,0,0,0,1.617-.923A59.259,59.259,0,0,0,407.527,293.088Z" transform="translate(4.319 2.888)" fill="rgba(0,44,154,0.4)"/>
    <path id="Path_14394" data-name="Path 14394" d="M347.921,243.037c-41.7-24.078-100.843-33.694-158.193-25.724a1.525,1.525,0,0,0-1.2,2.1l9.013,21.529a1.524,1.524,0,0,0,2.471.5c2.523-2.461,6.8-4.212,11.746-4.8,9.561-1.15,19.239,2.342,21.138,7.619a5.185,5.185,0,0,1-.567,4.662c-2,3.245-7.024,5.715-13.1,6.444a29.727,29.727,0,0,1-13.458-1.4,1.526,1.526,0,0,0-1.928,2.023l7.933,18.948a1.527,1.527,0,0,0,1.616.922c22.9-3.182,46.475.633,63.06,10.209a1.524,1.524,0,0,0,1.525,0l21.234-12.26a14.08,14.08,0,0,0,4.982,4.557c7.922,4.576,20.815,4.576,28.737,0,4.126-2.381,6.4-5.64,6.4-9.176s-2.273-6.793-6.4-9.174a24.214,24.214,0,0,0-5.773-2.341l20.767-11.99a1.525,1.525,0,0,0,0-2.641Z" transform="translate(2.626 2.316)" fill="rgba(0,44,154,0.4)"/>
    <path id="Path_14395" data-name="Path 14395" d="M177.909,346.993c-16.141-9.319-22.632-22.426-17.365-35.062a1.525,1.525,0,0,0-1.2-2.1l-26.4-3.684a11.261,11.261,0,0,0,2.91-3.846,8.133,8.133,0,0,0-.367-7.459c-2.263-4.1-7.76-7.15-14.705-8.172-11.1-1.627-22.086,2.286-25.012,8.918A8.113,8.113,0,0,0,95.3,300.9l-32.113-4.481a1.521,1.521,0,0,0-1.618.923,59.26,59.26,0,0,0,1.223,49.216c7.711,16.4,22.8,31.427,43.648,43.461a1.518,1.518,0,0,0,1.525,0L132,376.141a1.526,1.526,0,0,0-.481-2.82,22.671,22.671,0,0,1-7.166-2.52c-3.142-1.814-4.874-4.136-4.874-6.536s1.732-4.72,4.874-6.534c7.082-4.088,18.606-4.088,25.689,0a10.825,10.825,0,0,1,4.108,3.842,1.524,1.524,0,0,0,2.091.572l21.669-12.511a1.525,1.525,0,0,0,0-2.641Z" transform="translate(0.468 3.493)" fill="rgba(0,44,154,0.4)"/>
    <ellipse id="Ellipse_309" data-name="Ellipse 309" cx="33.7" cy="19.456" rx="33.7" ry="19.456" transform="translate(28.298 361.922)" fill="#ededed"/>
    <ellipse id="Ellipse_310" data-name="Ellipse 310" cx="55.418" cy="31.996" rx="55.418" ry="31.996" transform="translate(377.539 329.927)" fill="rgba(0,44,154,0.4)"/>
    <ellipse id="Ellipse_311" data-name="Ellipse 311" cx="55.418" cy="31.996" rx="55.418" ry="31.996" transform="translate(259.153 230.373)" fill="rgba(0,44,154,0.4)"/>
    <path id="Path_14396" data-name="Path 14396" d="M231.752,244.717c-2.426-6.74-13.136-10.965-24.37-9.614a25.279,25.279,0,0,0-11.839,4.243l-8.214-19.62a1.527,1.527,0,0,0-1.617-.921c-29.977,4.166-57.415,13.062-79.348,25.725-22.057,12.734-37.573,28.718-44.872,46.226a1.524,1.524,0,0,0,1.2,2.1l34.789,4.854a1.524,1.524,0,0,0,1.5-2.331,5.185,5.185,0,0,1-.481-5.138c2.319-5.259,12.294-8.525,21.778-7.13,5.92.869,10.7,3.409,12.479,6.628a5.123,5.123,0,0,1,.246,4.755,10.569,10.569,0,0,1-4.942,4.7,1.524,1.524,0,0,0,.5,2.856l30.293,4.227a1.488,1.488,0,0,0,.211.014,1.525,1.525,0,0,0,1.407-.938c2.791-6.692,8.8-12.845,17.366-17.794,8.692-5.019,19.6-8.549,31.54-10.209a1.523,1.523,0,0,0,1.2-2.1l-6.691-15.983a33.971,33.971,0,0,0,11.695.621c7.085-.851,12.819-3.792,15.335-7.871A8.2,8.2,0,0,0,231.752,244.717Z" transform="translate(0.542 2.386)" fill="rgba(0,44,154,0.4)"/>
    <g id="Group_3127" data-name="Group 3127" transform="translate(63.441 203.604)">
      <path id="Path_14397" data-name="Path 14397" d="M230.662,245.724v-16.6a6.356,6.356,0,0,0,0-.88v-.225h-.02a6.784,6.784,0,0,0-.348-1.6c-2.162-6.007-12.349-9.865-22.754-8.616-5.517.662-9.969,2.632-12.629,5.228L185.9,201.5c-28.875,4.013-56.258,12.522-78.8,25.535S69.824,255.859,62.874,272.53v17.7l34.789,4.854v-7.673c3.358-5.28,13.157-8.343,22.8-6.925a25.648,25.648,0,0,1,8.277,2.588v16.347l30.294,4.227c2.831-6.79,8.83-13.228,18.01-18.528s20.333-8.764,32.093-10.4V257.4a32.791,32.791,0,0,0,6.229-.14c9.475-1.136,15.838-6.117,15.272-11.533Z" transform="translate(-62.874 -201.502)" fill="#ecf2fe"/>
      <g id="Group_3126" data-name="Group 3126" transform="translate(0)">
        <path id="Path_14398" data-name="Path 14398" d="M209.14,257.022l-7.932-18.948a31.336,31.336,0,0,0,14.162,1.483c10.4-1.249,17.086-7.131,14.924-13.138s-12.35-9.865-22.754-8.616c-5.517.662-9.968,2.632-12.629,5.228L185.9,201.5c-28.875,4.013-56.258,12.522-78.8,25.535S69.824,255.859,62.874,272.53l34.789,4.854a6.725,6.725,0,0,1-.592-6.574c2.623-5.945,13.1-9.538,23.4-8.023s16.521,7.561,13.9,13.507a12.058,12.058,0,0,1-5.622,5.428l30.294,4.227c2.831-6.79,8.83-13.228,18.01-18.529S197.38,258.656,209.14,257.022Z" transform="translate(-62.874 -201.502)" fill="#b5c7ed"/>
      </g>
    </g>
    <g id="Group_3145" data-name="Group 3145" transform="translate(192.564 73.331)">
      <g id="Group_3142" data-name="Group 3142" transform="translate(59.133)">
        <g id="Group_3129" data-name="Group 3129" transform="translate(35.025 86.351)">
          <path id="Path_14399" data-name="Path 14399" d="M304.048,247.365s1.893,2.385,1.8,7.372c-.021,1.167-1.656,3.036-2.593,3.733l-4.839,3.6s-10.5,7.246-14.608,3.279c-3.726-3.6,1.617-8.181,5.648-11.682s4.086-6.3,4.086-6.3Z" transform="translate(-282.552 -156.828)" fill="#5c2cb7"/>
          <path id="Path_14400" data-name="Path 14400" d="M303.552,255.546l-5.3,3.943s-10.8,7.454-15.562,3.959a3.95,3.95,0,0,0,1.12,1.819c4.112,3.967,14.608-3.279,14.608-3.279l4.839-3.6c.937-.7,2.571-2.566,2.593-3.733a17.2,17.2,0,0,0-.1-2.245A6.592,6.592,0,0,1,303.552,255.546Z" transform="translate(-282.55 -156.745)"/>
          <g id="Group_3128" data-name="Group 3128" transform="translate(5.554)">
            <path id="Path_14401" data-name="Path 14401" d="M298.321,255.934a6.1,6.1,0,0,1-6.024-5.2,402.551,402.551,0,0,1-3.285-86.9,6.1,6.1,0,0,1,12.145,1.113,398.1,398.1,0,0,0,3.2,84,6.1,6.1,0,0,1-5.136,6.929A6.21,6.21,0,0,1,298.321,255.934Z" transform="translate(-288.017 -158.289)" fill="url(#linear-gradient)"/>
          </g>
          <path id="Path_14402" data-name="Path 14402" d="M292.245,249.583a11.354,11.354,0,0,0,12.251-1.225s-.381,6.974-6.27,8.339S289.462,254.781,292.245,249.583Z" transform="translate(-282.411 -156.812)" fill="#ff7faf"/>
          <path id="Path_14403" data-name="Path 14403" d="M292.312,249.563s1.063.768,6.359,1.189c0,0-2.37,5.11-7.181,6.2a6.214,6.214,0,0,1-4.39-2.743A11.673,11.673,0,0,0,292.312,249.563Z" transform="translate(-282.477 -156.792)" fill="#4e1fa6"/>
        </g>
        <path id="Path_14404" data-name="Path 14404" d="M287.321,172.357c0,8.039,6.973,15.349,16.2,15.349s17.9-8.305,17.9-16.344-7.627-7.072-16.856-7.072S287.321,164.319,287.321,172.357Z" transform="translate(-247.449 -71.84)" fill="#1b4e75"/>
        <g id="Group_3131" data-name="Group 3131" transform="translate(54.299 92.272)">
          <path id="Path_14405" data-name="Path 14405" d="M323.287,253.19a20.767,20.767,0,0,1,1.03,7.676,5.438,5.438,0,0,1-2.1,3.429l-4.839,3.6s-10.5,7.247-14.608,3.279c-3.726-3.6,1.617-8.181,5.648-11.682s4.086-6.3,4.086-6.3Z" transform="translate(-301.515 -162.653)" fill="#5c2cb7"/>
          <path id="Path_14406" data-name="Path 14406" d="M324.252,258.282a6.464,6.464,0,0,1-2.237,3.3l-5.3,3.943s-9.766,6.738-14.82,4.387a4.325,4.325,0,0,0,.873,1.179c4.112,3.968,14.608-3.279,14.608-3.279l4.839-3.6a5.438,5.438,0,0,0,2.1-3.429C324.327,259.871,324.3,259.037,324.252,258.282Z" transform="translate(-301.509 -162.569)"/>
          <g id="Group_3130" data-name="Group 3130" transform="translate(5.554)">
            <path id="Path_14407" data-name="Path 14407" d="M317.284,261.76a6.1,6.1,0,0,1-6.013-5.134c-6.894-42.966-3.45-85.152-3.3-86.928a6.1,6.1,0,0,1,12.153,1.027c-.035.421-3.46,42.522,3.189,83.969a6.112,6.112,0,0,1-6.029,7.066Z" transform="translate(-306.979 -164.114)" fill="#1b4e75"/>
          </g>
          <path id="Path_14408" data-name="Path 14408" d="M311.185,255.464a11.714,11.714,0,0,0,12.167-1.606s.791,7.27-6.163,8.669C311.263,263.719,308.4,260.663,311.185,255.464Z" transform="translate(-301.374 -162.642)" fill="#ff7faf"/>
          <path id="Path_14409" data-name="Path 14409" d="M311.252,255.438s1.861,1.38,6.84.817c0,0-2.829,5.432-7.639,6.521a6.214,6.214,0,0,1-4.39-2.743A11.381,11.381,0,0,0,311.252,255.438Z" transform="translate(-301.44 -162.616)" fill="#bf5f83"/>
        </g>
        <g id="Group_3134" data-name="Group 3134" transform="translate(0 45.997)">
          <g id="Group_3132" data-name="Group 3132" transform="translate(9.647)">
            <path id="Path_14410" data-name="Path 14410" d="M262.671,173.648a5.082,5.082,0,0,1-2.745-9.362c.184-.12,19.834-13.115,31.179-42.449a5.082,5.082,0,0,1,9.48,3.666c-12.61,32.6-34.262,46.755-35.179,47.342A5.062,5.062,0,0,1,262.671,173.648Z" transform="translate(-257.583 -118.586)" fill="#5822d8"/>
          </g>
          <g id="Group_3133" data-name="Group 3133" transform="translate(0 42.49)">
            <path id="Path_14411" data-name="Path 14411" d="M259.253,174.381a5.984,5.984,0,1,1,7.631-3.659A5.985,5.985,0,0,1,259.253,174.381Z" transform="translate(-247.975 -160.352)" fill="#ffbca6"/>
            <path id="Path_14412" data-name="Path 14412" d="M248.439,174h0a1.477,1.477,0,0,1,.173-2.074l9.123-7.721a1.476,1.476,0,0,1,2.074.173h0a1.476,1.476,0,0,1-.173,2.075l-9.122,7.72A1.477,1.477,0,0,1,248.439,174Z" transform="translate(-248.092 -160.334)" fill="#ffbca6"/>
            <path id="Path_14413" data-name="Path 14413" d="M250.439,177.019h0a1.477,1.477,0,0,1,.071-2.082l8.736-8.156a1.477,1.477,0,0,1,2.081.072h0a1.478,1.478,0,0,1-.072,2.082l-8.736,8.155A1.476,1.476,0,0,1,250.439,177.019Z" transform="translate(-248.06 -160.292)" fill="#ffbca6"/>
            <path id="Path_14414" data-name="Path 14414" d="M253.95,179.063h0a1.476,1.476,0,0,1-.126-2.078l7.922-8.948a1.477,1.477,0,0,1,2.079-.127h0a1.478,1.478,0,0,1,.126,2.079l-7.922,8.948A1.476,1.476,0,0,1,253.95,179.063Z" transform="translate(-248.004 -160.273)" fill="#ffbca6"/>
            <path id="Path_14415" data-name="Path 14415" d="M257.944,180.037h0a1.477,1.477,0,0,1-.343-2.054l4.471-6.413a1.477,1.477,0,0,1,2.054-.344h0a1.477,1.477,0,0,1,.343,2.054L260,179.693A1.477,1.477,0,0,1,257.944,180.037Z" transform="translate(-247.941 -160.217)" fill="#ffbca6"/>
            <path id="Path_14416" data-name="Path 14416" d="M252.014,161.632h0a1.864,1.864,0,0,1,2.37-1.136l6.831,2.127a1.864,1.864,0,0,1,1.135,2.37h0a1.864,1.864,0,0,1-2.37,1.136L253.15,164A1.865,1.865,0,0,1,252.014,161.632Z" transform="translate(-248.03 -160.391)" fill="#ffbca6"/>
          </g>
        </g>
        <path id="Path_14417" data-name="Path 14417" d="M304.314,178.274a55.989,55.989,0,0,1-18.584-3.755c-.912-3.523.745-15.978,1.225-25.3.807-15.644-.036-32.9,15.688-32.9s18.807,8.514,20.209,35.654c.472,9.154,1.356,14.06-.269,22.546C318.593,175.847,311.222,178.274,304.314,178.274Z" transform="translate(-247.479 -72.626)" fill="#6f42d4"/>
        <g id="Group_3135" data-name="Group 3135" transform="translate(48.697 28.823)">
          <path id="Path_14418" data-name="Path 14418" d="M301.26,121.729h-.016a5.069,5.069,0,0,1-5.053-5.085c.023-7.154-.126-9.03-.146-9.248a5.069,5.069,0,0,1,10.036-1.428c.178,1.133.267,4.937.249,10.709A5.07,5.07,0,0,1,301.26,121.729Z" transform="translate(-296.004 -101.689)" fill="#ffbca6"/>
        </g>
        <path id="Path_14420" data-name="Path 14420" d="M306.271,107.652a4.422,4.422,0,0,0-.19-1.684,5.069,5.069,0,0,0-10.036,1.428c.02.219.17,2.094.146,9.248a5.063,5.063,0,0,0,.144,1.165A19.907,19.907,0,0,0,306.271,107.652Z" transform="translate(-247.306 -72.866)" fill="#e6a08a"/>
        <g id="Group_3138" data-name="Group 3138" transform="translate(46.543 50.172)">
          <g id="Group_3136" data-name="Group 3136" transform="translate(5.723)">
            <path id="Path_14421" data-name="Path 14421" d="M304.593,187.529a5.081,5.081,0,0,1-4.011-8.2c.19-.246,19.378-25.532,10.747-49.853a5.081,5.081,0,1,1,9.578-3.4c10.509,29.615-11.36,58.279-12.3,59.486A5.074,5.074,0,0,1,304.593,187.529Z" transform="translate(-299.515 -122.694)" fill="#5822d8"/>
          </g>
          <g id="Group_3137" data-name="Group 3137" transform="translate(0 55.368)">
            <path id="Path_14422" data-name="Path 14422" d="M299.477,186.9a5.984,5.984,0,1,0,.914-8.413A5.984,5.984,0,0,0,299.477,186.9Z" transform="translate(-293.814 -177.169)" fill="#ffbca6"/>
            <path id="Path_14423" data-name="Path 14423" d="M303.38,197h0a1.477,1.477,0,0,0,1.9-.853l4.25-11.169a1.477,1.477,0,0,0-.853-1.9h0a1.478,1.478,0,0,0-1.9.853l-4.25,11.17A1.477,1.477,0,0,0,303.38,197Z" transform="translate(-293.744 -177.073)" fill="#ffbca6"/>
            <path id="Path_14424" data-name="Path 14424" d="M299.876,196.107h0a1.478,1.478,0,0,0,1.939-.759L306.6,184.4a1.477,1.477,0,0,0-.759-1.939h0a1.478,1.478,0,0,0-1.939.759l-4.788,10.95A1.478,1.478,0,0,0,299.876,196.107Z" transform="translate(-293.8 -177.084)" fill="#ffbca6"/>
            <path id="Path_14425" data-name="Path 14425" d="M296.792,193.462h0a1.475,1.475,0,0,0,2-.571l5.808-10.446a1.477,1.477,0,0,0-.571-2h0a1.478,1.478,0,0,0-2,.572l-5.807,10.445A1.477,1.477,0,0,0,296.792,193.462Z" transform="translate(-293.849 -177.118)" fill="#ffbca6"/>
            <path id="Path_14426" data-name="Path 14426" d="M294.509,189.967h0a1.476,1.476,0,0,0,2.051-.36l4.564-6.348a1.478,1.478,0,0,0-.36-2.051h0a1.478,1.478,0,0,0-2.051.36l-4.563,6.348A1.477,1.477,0,0,0,294.509,189.967Z" transform="translate(-293.884 -177.107)" fill="#ffbca6"/>
            <path id="Path_14427" data-name="Path 14427" d="M313.824,189.478h0a1.864,1.864,0,0,0,.285-2.613l-4.277-5.736a1.864,1.864,0,0,0-2.613-.284h0a1.864,1.864,0,0,0-.284,2.613l4.276,5.735A1.864,1.864,0,0,0,313.824,189.478Z" transform="translate(-293.677 -177.115)" fill="#ffbca6"/>
          </g>
        </g>
        <g id="Group_3141" data-name="Group 3141" transform="translate(26.162)">
          <path id="Path_14428" data-name="Path 14428" d="M279.076,96.539c0,11.212,3.56,20.486,12.343,20.486s19.46-9.274,19.46-20.486-7.12-17.056-15.9-17.056S279.076,85.327,279.076,96.539Z" transform="translate(-273.746 -73.23)" fill="#ffbca6"/>
          <path id="Path_14431" data-name="Path 14431" d="M276.141,73.331s-8.093,16.849,6.024,19.523c11.022,2.089,19.553-2.674,19.271,4.171-.162,3.929-1.227,6.555,0,7.27s2.473-9.3,5.995-8.819c2.48.338,1.977,6.125.86,10.232a1.033,1.033,0,0,0,1.794.936c1.994-2.38,4.139-6.5,4.139-13.195,0-9.653-2.094-11.81-5.549-11.649a13.832,13.832,0,0,0-13.013-4.5C285,78.928,278.286,77.621,276.141,73.331Z" transform="translate(-273.832 -73.331)" fill="#30190a"/>
        </g>
      </g>
      <g id="Group_3144" data-name="Group 3144" transform="translate(0 80.371)">
        <path id="Path_14439" data-name="Path 14439" d="M347.134,198.326v-17.7c-42.636-24.615-102.6-33.125-157.221-25.534v17.7l9.013,21.529c2.66-2.595,7.111-4.567,12.628-5.228a30.625,30.625,0,0,1,15.514,2.027,27.4,27.4,0,0,1-7.684,2.026,31.336,31.336,0,0,1-14.162-1.483v17.7l7.933,18.948c22.246-3.091,46.667.373,64.031,10.4L299.8,225.652a11.319,11.319,0,0,0,5.124,5.355c7.514,4.338,19.7,4.338,27.212,0,4.212-2.431,6.06-5.709,5.551-8.885V206.48a6.479,6.479,0,0,0,0-2.059v-.012h0c-.029-.185-.087-.368-.134-.553Z" transform="translate(-189.913 -152.405)" fill="#ecf2fe"/>
        <path id="Path_14440" data-name="Path 14440" d="M298.031,224.756a11.319,11.319,0,0,0,5.124,5.355c6.538,3.774,16.6,4.261,24.06,1.469V211.072l-29.184-4.019Z" transform="translate(-188.14 -151.509)" fill="#b7c9ee"/>
        <path id="Path_14441" data-name="Path 14441" d="M238.573,206.332c-28.206-2.365-25.791,3.4-25.791,3.4v17.7c22.246-3.091,46.667.373,64.031,10.4v-17.7S266.778,208.7,238.573,206.332Z" transform="translate(-189.539 -151.53)" fill="#b7c9ee"/>
        <path id="Path_14442" data-name="Path 14442" d="M203.015,190.924l.756-.09a27.222,27.222,0,0,1,7.637-2.007,30.625,30.625,0,0,1,15.514,2.027c-.7.308-1.461.579-2.24.832l12.387,2.369,4.116-19.154-5.593-6.261-34.886.472-1.926,7.242v17.7a16.034,16.034,0,0,1,4.132-2.817Z" transform="translate(-189.768 -152.139)" fill="#b7c9ee"/>
        <g id="Group_3143" data-name="Group 3143">
          <path id="Path_14443" data-name="Path 14443" d="M332.14,197.594a25.4,25.4,0,0,0-9.276-2.958l24.27-14.013c-42.636-24.615-102.6-33.125-157.221-25.534l9.013,21.529c2.66-2.6,7.111-4.567,12.628-5.228,10.4-1.248,20.592,2.609,22.754,8.616s-4.519,11.889-14.924,13.138a31.336,31.336,0,0,1-14.162-1.483l7.933,18.948c22.246-3.092,46.667.373,64.031,10.4L299.8,207.949a11.316,11.316,0,0,0,5.124,5.356c7.514,4.338,19.7,4.338,27.212,0S339.654,201.932,332.14,197.594Z" transform="translate(-189.913 -152.405)" fill="#c9d9fe"/>
        </g>
      </g>
    </g>
    <path id="Path_14444" data-name="Path 14444" d="M393.7,345.248a4.575,4.575,0,0,0-3.34-2.264L356.806,338.3a4.574,4.574,0,0,0-4.411,7.106,2.211,2.211,0,0,1,.345,2.374c-1.577,3.578-9.84,6.626-18.545,5.345-5.6-.823-9.182-3.148-10.253-5.086a2.112,2.112,0,0,1-.125-2.051,8.1,8.1,0,0,1,3.8-3.355,4.574,4.574,0,0,0-1.441-8.607l-31.984-4.462a4.572,4.572,0,0,0-4.854,2.77c-2.53,6.07-8.09,11.716-16.075,16.327-8.356,4.824-18.88,8.224-30.434,9.83-21.923,3.044-45.34-.721-61.116-9.83a4.578,4.578,0,0,0-4.574,0l-18.332,10.584a19.555,19.555,0,0,0-3.438-2.487c-8.912-5.145-22.874-5.145-31.786,0-5.035,2.907-7.923,7.214-7.923,11.818,0,4.39,2.627,8.51,7.238,11.4l-15.705,9.067a4.574,4.574,0,0,0,0,7.923c32.512,18.77,75.426,28.875,119.9,28.875a292.852,292.852,0,0,0,40.238-2.772c30.363-4.219,58.184-13.247,80.453-26.1,22.643-13.073,38.606-29.565,46.163-47.695A4.568,4.568,0,0,0,393.7,345.248Z" transform="translate(1.256 4.202)" fill="rgba(0,44,154,0.4)"/>
    <g id="Group_3148" data-name="Group 3148" transform="translate(110.737 320.181)">
      <path id="Path_14445" data-name="Path 14445" d="M354.263,324.936a6.761,6.761,0,0,1,.751,6.795c-2.623,5.946-13.1,9.538-23.4,8.024a25.852,25.852,0,0,1-7.984-2.445V320.662L291.652,316.2c-2.831,6.791-8.831,13.229-18.011,18.529s-20.332,8.764-32.093,10.4v17.642a32.962,32.962,0,0,0-4.831.218c-9.713,1.165-16.176,6.369-15.235,11.942l-.1-.019.017,16.473c0,.13,0,.26,0,.391v.17h.016a6.709,6.709,0,0,0,.373,1.882c2.162,6.007,12.349,9.864,22.754,8.616a23.173,23.173,0,0,0,11.73-4.431l8.514,20.337c28.875-4.013,56.257-12.522,78.8-25.535s37.278-28.822,44.228-45.493v-17.7Z" transform="translate(-107.57 -316.198)" fill="#b5c7ed"/>
      <path id="Path_14446" data-name="Path 14446" d="M258.114,380.009a23.173,23.173,0,0,1-11.73,4.431,30.621,30.621,0,0,1-15.513-2.027,27.342,27.342,0,0,1,7.684-2.026,31.93,31.93,0,0,1,12.729,1.006v-17.7l-7.9-18.865c-22.246,3.091-46.667-.373-64.031-10.4l-21.67,12.511a12.2,12.2,0,0,0-4.674-4.414c-7.514-4.338-19.7-4.338-27.212,0-4.532,2.616-6.311,6.212-5.376,9.607h-.016V366.4a6.5,6.5,0,0,0-.2,2.183l-10.8,6.233v17.7c42.636,24.615,102.6,33.125,157.221,25.534v-17.7Z" transform="translate(-109.407 -315.899)" fill="#ecf2fe"/>
      <g id="Group_3146" data-name="Group 3146" transform="translate(113.816)">
        <path id="Path_14447" data-name="Path 14447" d="M343.588,375.111c22.539-13.013,37.278-28.822,44.228-45.493l-33.552-4.682a6.761,6.761,0,0,1,.751,6.795c-2.623,5.946-13.1,9.538-23.4,8.024s-16.521-7.562-13.9-13.507a12.263,12.263,0,0,1,5.914-5.586L291.652,316.2c-2.831,6.791-8.831,13.229-18.011,18.529s-20.332,8.764-32.093,10.4l7.9,18.865a31.91,31.91,0,0,0-12.729-1.006c-10.4,1.248-17.087,7.13-14.925,13.137s12.349,9.865,22.754,8.617a23.173,23.173,0,0,0,11.73-4.431l8.514,20.338C293.666,396.633,321.048,388.124,343.588,375.111Z" transform="translate(-221.386 -316.198)" fill="#c9d9fe"/>
      </g>
      <g id="Group_3147" data-name="Group 3147" transform="translate(0 18.529)">
        <path id="Path_14448" data-name="Path 14448" d="M258.114,380.009a23.173,23.173,0,0,1-11.73,4.431c-10.4,1.248-20.592-2.609-22.754-8.617s4.52-11.889,14.925-13.137a31.91,31.91,0,0,1,12.729,1.006l-7.9-18.865c-22.246,3.091-46.667-.373-64.031-10.4l-21.67,12.511a12.2,12.2,0,0,0-4.674-4.414c-7.514-4.338-19.7-4.338-27.212,0s-7.514,11.373,0,15.712a24.384,24.384,0,0,0,7.645,2.7l-24.036,13.877c42.636,24.616,102.6,33.126,157.221,25.535Z" transform="translate(-109.407 -334.428)" fill="#b5c7ed"/>
      </g>
    </g>
    <g id="Group_3163" data-name="Group 3163" transform="translate(33.384 183.231)">
      <g id="Group_3151" data-name="Group 3151" transform="translate(38.511 96.132)">
        <g id="Group_3149" data-name="Group 3149" transform="translate(0 2.058)">
          <path id="Path_14449" data-name="Path 14449" d="M89.618,294.171c-4.994,0-10.789-1.538-16.861-7.358a5.082,5.082,0,1,1,7.033-7.337c4.853,4.652,8.627,5.047,13.5,4.147a5.082,5.082,0,1,1,1.838,10A30.317,30.317,0,0,1,89.618,294.171Z" transform="translate(-71.191 -278.063)" fill="#e6a984"/>
        </g>
        <g id="Group_3150" data-name="Group 3150" transform="translate(19.017)">
          <path id="Path_14450" data-name="Path 14450" d="M98.878,281.953a5.984,5.984,0,1,1-8.174,2.191A5.983,5.983,0,0,1,98.878,281.953Z" transform="translate(-89.902 -275.954)" fill="#e6a984"/>
          <path id="Path_14451" data-name="Path 14451" d="M109.451,284.281h0a1.477,1.477,0,0,1-.552,2.007L98.511,292.2a1.476,1.476,0,0,1-2.007-.552h0a1.477,1.477,0,0,1,.551-2.007l10.388-5.91A1.477,1.477,0,0,1,109.451,284.281Z" transform="translate(-89.797 -275.915)" fill="#e6a984"/>
          <path id="Path_14452" data-name="Path 14452" d="M108.034,280.953h0a1.475,1.475,0,0,1-.453,2.032l-10.087,6.409a1.478,1.478,0,0,1-2.033-.453h0a1.478,1.478,0,0,1,.453-2.033L106,280.5A1.475,1.475,0,0,1,108.034,280.953Z" transform="translate(-89.815 -275.969)" fill="#e6a984"/>
          <path id="Path_14453" data-name="Path 14453" d="M104.946,278.309h0a1.476,1.476,0,0,1-.258,2.066l-9.432,7.337a1.477,1.477,0,0,1-2.066-.257h0a1.477,1.477,0,0,1,.258-2.067l9.432-7.337A1.477,1.477,0,0,1,104.946,278.309Z" transform="translate(-89.853 -276.01)" fill="#e6a984"/>
          <path id="Path_14454" data-name="Path 14454" d="M100.849,276.488h0a1.478,1.478,0,0,1-.041,2.083l-5.575,5.48a1.477,1.477,0,0,1-2.083-.041h0a1.477,1.477,0,0,1,.042-2.083l5.575-5.48A1.476,1.476,0,0,1,100.849,276.488Z" transform="translate(-89.856 -276.038)" fill="#e6a984"/>
          <path id="Path_14455" data-name="Path 14455" d="M103.629,295.725h0a1.863,1.863,0,0,1-2.538.681l-6.323-3.348a1.864,1.864,0,0,1-.68-2.539h0a1.863,1.863,0,0,1,2.538-.68l6.323,3.348A1.863,1.863,0,0,1,103.629,295.725Z" transform="translate(-89.837 -275.816)" fill="#e6a984"/>
        </g>
      </g>
      <g id="Group_3155" data-name="Group 3155" transform="translate(25.408 0)">
        <path id="Path_14456" data-name="Path 14456" d="M177.122,259.637v-17.7c-9.344-5.4-15.391-11.97-18.155-18.893.05-.125.094-.25.145-.374l-.3-.043a23.359,23.359,0,0,1,.3-17.66L135.024,201.6l-.012-8.461h0c.475-5.183-5.421-10.01-14.466-11.339-10.3-1.514-20.773,2.079-23.4,8.024a6.723,6.723,0,0,0,.592,6.573l-34.789-4.854a58.836,58.836,0,0,0-4.625,21.1l-.024,0v21.126l.047.061c.834,24.005,17.1,47.863,48.829,66.182l24.037-13.877v-17.7a26.3,26.3,0,0,1-5.638-1.7c7.542-3.3,18.325-2.977,25.2,1a12.2,12.2,0,0,1,4.674,4.414Z" transform="translate(-58.3 -181.457)" fill="#ecf2fe"/>
        <g id="Group_3152" data-name="Group 3152" transform="translate(0 10.09)">
          <path id="Path_14457" data-name="Path 14457" d="M61.806,194.181c.339-.935.7-1.867,1.086-2.8C62.5,192.314,62.145,193.246,61.806,194.181Z" transform="translate(-58.242 -191.384)" fill="#b0c3e9"/>
          <path id="Path_14458" data-name="Path 14458" d="M58.324,212.145h0l-.024,0v21.125l.047.062c.834,24.005,17.1,47.863,48.829,66.182v-17.7C73.912,262.609,57.631,237.314,58.324,212.145Z" transform="translate(-58.3 -191.043)" fill="#b0c3e9"/>
          <path id="Path_14459" data-name="Path 14459" d="M60.1,199.7c.143-.56.3-1.12.461-1.678C60.4,198.581,60.242,199.141,60.1,199.7Z" transform="translate(-58.27 -191.275)" fill="#b0c3e9"/>
          <path id="Path_14460" data-name="Path 14460" d="M60.881,196.93c.193-.623.4-1.245.618-1.866C61.285,195.685,61.074,196.307,60.881,196.93Z" transform="translate(-58.258 -191.324)" fill="#b0c3e9"/>
          <path id="Path_14461" data-name="Path 14461" d="M58.6,208.126c.054-.532.108-1.063.177-1.595C58.707,207.063,58.653,207.594,58.6,208.126Z" transform="translate(-58.295 -191.136)" fill="#b0c3e9"/>
          <path id="Path_14462" data-name="Path 14462" d="M58.377,211.128c.028-.6.055-1.191.1-1.787C58.432,209.937,58.405,210.532,58.377,211.128Z" transform="translate(-58.299 -191.089)" fill="#b0c3e9"/>
          <path id="Path_14463" data-name="Path 14463" d="M59.458,202.486q.165-.8.353-1.6Q59.623,201.684,59.458,202.486Z" transform="translate(-58.281 -191.228)" fill="#b0c3e9"/>
          <path id="Path_14464" data-name="Path 14464" d="M58.959,205.288c.08-.525.164-1.05.259-1.574C59.124,204.238,59.039,204.763,58.959,205.288Z" transform="translate(-58.289 -191.182)" fill="#b0c3e9"/>
        </g>
        <g id="Group_3153" data-name="Group 3153" transform="translate(59.63 65.32)">
          <path id="Path_14465" data-name="Path 14465" d="M126.652,266.169c-.3-.1-.61-.2-.908-.307C126.042,265.971,126.346,266.07,126.652,266.169Z" transform="translate(-116.824 -245.393)" fill="#b0c3e9"/>
          <path id="Path_14466" data-name="Path 14466" d="M149.817,248.976c-7.515-4.338-19.7-4.338-27.213,0s-7.514,11.373,0,15.712a19.845,19.845,0,0,0,2.008,1c7.542-3.3,18.325-2.977,25.2,1a12.2,12.2,0,0,1,4.674,4.414v-17.7A12.205,12.205,0,0,0,149.817,248.976Z" transform="translate(-116.968 -245.723)" fill="#b0c3e9"/>
          <path id="Path_14467" data-name="Path 14467" d="M128.746,266.749q-.7-.166-1.388-.365Q128.043,266.582,128.746,266.749Z" transform="translate(-116.798 -245.384)" fill="#b0c3e9"/>
        </g>
        <g id="Group_3154" data-name="Group 3154" transform="translate(0)">
          <path id="Path_14468" data-name="Path 14468" d="M150.779,250.031a12.205,12.205,0,0,1,4.674,4.414l21.669-12.51c-17.364-10.026-23.364-24.125-18.01-36.97l-30.294-4.227a12.053,12.053,0,0,0,5.622-5.428c2.622-5.946-3.6-11.993-13.9-13.507s-20.772,2.079-23.4,8.024a6.723,6.723,0,0,0,.592,6.573l-34.789-4.854C49.8,223.083,64.541,257.7,107.176,282.319l24.037-13.878a24.365,24.365,0,0,1-7.646-2.7c-7.514-4.339-7.514-11.373,0-15.711S143.264,245.693,150.779,250.031Z" transform="translate(-58.3 -181.457)" fill="#c9d9fe"/>
        </g>
      </g>
      <g id="Group_3162" data-name="Group 3162" transform="translate(0 19.25)">
        <g id="Group_3157" data-name="Group 3157" transform="translate(4.475 81.468)">
          <path id="Path_14469" data-name="Path 14469" d="M39.163,369.831s-1.837,1.505-1.387,5.7c.113,1.06,1.325,4.047,3.187,4.048a79.4,79.4,0,0,0,18.253-2.774c6.3-1.913,7.43-3.874,5.182-7.036-1.176-1.654-5.311-.991-8.21-1.1a41.72,41.72,0,0,1-6.725-.9Z" transform="translate(-37.704 -279.12)" fill="#39355f"/>
          <g id="Group_3156" data-name="Group 3156" transform="translate(1.56)">
            <path id="Path_14470" data-name="Path 14470" d="M45.008,377.242a5.8,5.8,0,0,1-.672-.041,5.592,5.592,0,0,1-4.886-6.215c5-41.746-.116-83.733-.168-84.153a5.59,5.59,0,0,1,11.094-1.384c.221,1.764,5.339,43.719.175,86.866A5.591,5.591,0,0,1,45.008,377.242Z" transform="translate(-39.239 -280.551)" fill="#ffbca6"/>
          </g>
          <path id="Path_14471" data-name="Path 14471" d="M50.909,368.529s-2.65,4.326-12.194,2.044c0,0-.937,6.641,8.4,5.834C53.5,375.856,54.019,370.89,50.909,368.529Z" transform="translate(-37.688 -279.108)" fill="#39355f"/>
        </g>
        <g id="Group_3159" data-name="Group 3159" transform="translate(23.845 84.924)">
          <path id="Path_14472" data-name="Path 14472" d="M58.221,373.658s-1.837,1.505-1.388,5.705c.114,1.059,1.326,4.046,3.188,4.047a63.183,63.183,0,0,0,16.22-2.774c6.3-1.913,9.462-3.874,7.214-7.036-1.176-1.654-5.311-.991-8.21-1.1a41.722,41.722,0,0,1-6.726-.9Z" transform="translate(-56.762 -282.513)" fill="#39355f"/>
          <g id="Group_3158" data-name="Group 3158" transform="translate(1.211)">
            <path id="Path_14473" data-name="Path 14473" d="M63.723,380.641a5.592,5.592,0,0,1-5.565-6.191A398.444,398.444,0,0,0,58,290.273a5.591,5.591,0,0,1,11.085-1.465,402.081,402.081,0,0,1,.188,86.843A5.591,5.591,0,0,1,63.723,380.641Z" transform="translate(-57.953 -283.95)" fill="#ffbca6"/>
          </g>
          <path id="Path_14474" data-name="Path 14474" d="M69.966,372.356s-2.65,4.326-12.194,2.044c0,0,.08,5.625,9.42,4.818C73.57,378.667,73.077,374.717,69.966,372.356Z" transform="translate(-56.745 -282.5)" fill="#39355f"/>
        </g>
        <path id="Path_14475" data-name="Path 14475" d="M70.949,293.569c.321,8.032-5.337,15.615-14.559,15.984s-18.216-7.583-18.537-15.615,7.338-7.372,16.56-7.741S70.628,285.538,70.949,293.569Z" transform="translate(-33.227 -198.992)" fill="#226294"/>
        <g id="Group_3160" data-name="Group 3160" transform="translate(10.954 27.824)">
          <path id="Path_14476" data-name="Path 14476" d="M49.593,247.806h.016a5.07,5.07,0,0,0,4.846-5.284c-.309-7.146-.235-9.027-.224-9.245a5.069,5.069,0,0,0-10.085-1.027c-.133,1.14-.07,4.944.179,10.711A5.069,5.069,0,0,0,49.593,247.806Z" transform="translate(-44.079 -227.772)" fill="#ffbca6"/>
        </g>
        <path id="Path_14477" data-name="Path 14477" d="M67.236,218.028c1.49,11.113-.808,20.777-9.512,21.944S37.2,233.366,35.715,222.254s4.791-17.851,13.5-19.018S65.747,206.916,67.236,218.028Z" transform="translate(-33.266 -200.353)" fill="#ffbca6"/>
        <path id="Path_14478" data-name="Path 14478" d="M69.315,220.767c-.028,3.007-.625,5.487-2.042,5.473s-3.114-2.515-3.086-5.521,1.19-4.562,2.606-4.548S69.342,217.762,69.315,220.767Z" transform="translate(-32.795 -200.138)" fill="#ffbca6"/>
        <path id="Path_14479" data-name="Path 14479" d="M71.636,294.737a99.176,99.176,0,0,1,2.429,40.507,47.227,47.227,0,0,1-36.193-2.054s-4.119-15.422-.01-36.98Z" transform="translate(-33.257 -198.85)" fill="#7a3938"/>
        <path id="Path_14480" data-name="Path 14480" d="M55.257,301.114a42.756,42.756,0,0,0,16.385-4.493c.77-3.556-3.356-8.9-3.356-22.115,0-5.137,3.327-11.281,2.455-15.018-2.281-9.773-12.662-17.305-18.584-17.561C39.741,241.389,36,248.4,35.683,275.575c-.107,9.166.223,14.1,2.185,22.517C41.909,299.26,48.355,301.39,55.257,301.114Z" transform="translate(-33.263 -199.716)" fill="#506e9c"/>
        <g id="Group_3161" data-name="Group 3161" transform="translate(21.37 46.145)">
          <path id="Path_14481" data-name="Path 14481" d="M76.55,288.756a5.069,5.069,0,0,1-3.517-1.414c-9.089-8.715-15.343-20.615-18.587-35.371a5.082,5.082,0,1,1,9.927-2.182c2.8,12.753,8.084,22.919,15.694,30.216a5.083,5.083,0,0,1-3.518,8.751Z" transform="translate(-54.327 -245.797)" fill="#e6a984"/>
        </g>
        <path id="Path_14482" data-name="Path 14482" d="M51.612,200.4c-12.008,0-18.034,8.714-18.285,16.033s1.387,33.383,2.2,39.71a43.7,43.7,0,0,0,6.322,1.137l.924-7.526,1.38,7.744a57.3,57.3,0,0,0,10.478-.171v-4.729l1.154,4.588a51.308,51.308,0,0,0,5.483-1.03l-1.519-7.893,3.311,7.421c1.071-.307,2.151-.652,3.236-1.047,0,0-6.942-28.159,1-38.2C67.3,216.43,68.325,200.4,51.612,200.4Z" transform="translate(-33.302 -200.397)" fill="#813db6"/>
      </g>
    </g>
    <g id="Group_3178" data-name="Group 3178" transform="translate(297.489 205.447)">
      <g id="Group_3172" data-name="Group 3172" transform="translate(90.321 20.002)">
        <g id="Group_3165" data-name="Group 3165" transform="translate(48.699 94.404)">
          <path id="Path_14483" data-name="Path 14483" d="M454.881,344.477a.258.258,0,0,1-.028-.147c.048-.425.444-2.531,3.659-4.509.909-.559,4.014-1.425,5.152.049a79.33,79.33,0,0,1,8.965,16.139c2.336,6.152,1.477,8.247-2.4,8.4-2.028.08-4.031-3.6-5.893-5.822a41.527,41.527,0,0,0-4.784-4.736.268.268,0,0,1-.067-.087Z" transform="translate(-429.513 -315.494)" fill="#22223a"/>
          <g id="Group_3164" data-name="Group 3164">
            <path id="Path_14484" data-name="Path 14484" d="M452.426,355.28c-10.028,0-16.662-2.8-20.166-8.456-6.817-11.01,3.326-26.719,4.5-28.475a5.59,5.59,0,0,1,9.283,6.232c-3.016,4.53-6.458,12.857-4.279,16.363,1.8,2.894,8.686,3.865,18.414,2.6a5.59,5.59,0,1,1,1.445,11.087A71.722,71.722,0,0,1,452.426,355.28Z" transform="translate(-429.922 -315.875)" fill="#6ca0e7"/>
          </g>
          <path id="Path_14485" data-name="Path 14485" d="M461.081,355.221c-2.711-1.49-5.315-7.192-5.6-11.4-.013-.2-.138-.368.036-.458,1.141-.6,6.441-4.9,10.684,1.7,3.375,5.248-.236,11.34-3.891,10.5C462.16,355.517,461.214,355.294,461.081,355.221Z" transform="translate(-429.503 -315.456)" fill="#22223a"/>
        </g>
        <g id="Group_3167" data-name="Group 3167" transform="translate(0 95.056)">
          <path id="Path_14486" data-name="Path 14486" d="M407.5,356.2s2.022,1.246,2.141,5.467c.03,1.065-.771,4.189-2.616,4.439a63.131,63.131,0,0,1-16.445-.572c-6.5-1.05-9.9-2.568-8.093-6,.943-1.8,5.13-1.7,7.988-2.2a41.7,41.7,0,0,0,6.543-1.8Z" transform="translate(-382.008 -315.876)" fill="#22223a"/>
          <g id="Group_3166" data-name="Group 3166" transform="translate(10.105)">
            <path id="Path_14487" data-name="Path 14487" d="M401.867,363.13a5.592,5.592,0,0,1-5.269-3.724c-6.565-18.512-6.179-30.888,1.183-37.836,10.612-10.011,30.095-2.221,32.281-1.3a5.59,5.59,0,0,1-4.331,10.307h0c-4.8-2-16.079-4.85-20.283-.868-3.577,3.388-2.962,12.85,1.688,25.961a5.6,5.6,0,0,1-5.269,7.46Z" transform="translate(-391.95 -316.516)" fill="#4556c5"/>
          </g>
          <path id="Path_14488" data-name="Path 14488" d="M395.48,356.487s3.207,3.93,12.358.388c0,0,.676,5.585-8.688,6.039C392.756,363.224,392.714,359.245,395.48,356.487Z" transform="translate(-381.816 -315.86)" fill="#22223a"/>
        </g>
        <path id="Path_14489" data-name="Path 14489" d="M415.72,317.326c-.321,8.032,6.354,15.615,15.575,15.984s18.216-7.584,18.537-15.616-7.338-7.371-16.56-7.74S416.041,309.295,415.72,317.326Z" transform="translate(-381.456 -221.57)" fill="#4556c5"/>
        <g id="Group_3168" data-name="Group 3168" transform="translate(48.583 26.704)">
          <path id="Path_14490" data-name="Path 14490" d="M434.674,269.3h-.016a5.068,5.068,0,0,1-4.845-5.283c.309-7.147.234-9.027.223-9.246a5.069,5.069,0,0,1,10.086-1.026c.132,1.139.069,4.944-.18,10.71A5.07,5.07,0,0,1,434.674,269.3Z" transform="translate(-429.807 -249.267)" fill="#ffbca6"/>
        </g>
        <path id="Path_14491" data-name="Path 14491" d="M417.382,240.924c-1.489,11.112.808,20.776,9.513,21.943s20.52-6.607,22.009-17.719-4.791-17.851-13.5-19.017S418.871,229.811,417.382,240.924Z" transform="translate(-381.435 -222.945)" fill="#ffbca6"/>
        <path id="Path_14492" data-name="Path 14492" d="M414.868,243.663c.027,3.005.625,5.487,2.041,5.473s3.114-2.516,3.087-5.521-1.191-4.562-2.607-4.549S414.84,240.657,414.868,243.663Z" transform="translate(-381.469 -222.73)" fill="#ffbca6"/>
        <g id="Group_3171" data-name="Group 3171" transform="translate(4.439 36.884)">
          <g id="Group_3169" data-name="Group 3169" transform="translate(9.208 8.742)">
            <path id="Path_14493" data-name="Path 14493" d="M419.735,289.522a28.631,28.631,0,0,1-23.288-12.144l-.085-.122a5.11,5.11,0,0,1,1.217-7.1,5.055,5.055,0,0,1,7.055,1.191l-4.11,2.989,4.186-2.885a18.289,18.289,0,0,0,20.333,7.09c4.768-1.49,9.113-4.385,13.676-9.11a5.082,5.082,0,1,1,7.312,7.059c-5.712,5.918-11.587,9.762-17.956,11.753A27.921,27.921,0,0,1,419.735,289.522Z" transform="translate(-395.436 -267.883)" fill="#78156b"/>
          </g>
          <g id="Group_3170" data-name="Group 3170">
            <path id="Path_14494" data-name="Path 14494" d="M392.377,270.4a5.984,5.984,0,1,1,3.463,7.722A5.984,5.984,0,0,1,392.377,270.4Z" transform="translate(-386.284 -259.163)" fill="#78156b"/>
            <path id="Path_14495" data-name="Path 14495" d="M393.009,259.605h0a1.477,1.477,0,0,1,2.07.226l7.487,9.315a1.477,1.477,0,0,1-.226,2.07h0a1.477,1.477,0,0,1-2.07-.226l-7.487-9.315A1.477,1.477,0,0,1,393.009,259.605Z" transform="translate(-386.276 -259.282)" fill="#78156b"/>
            <path id="Path_14496" data-name="Path 14496" d="M389.948,261.528h0a1.477,1.477,0,0,1,2.079.125l7.931,8.94a1.476,1.476,0,0,1-.124,2.079h0a1.478,1.478,0,0,1-2.08-.125l-7.931-8.939A1.479,1.479,0,0,1,389.948,261.528Z" transform="translate(-386.326 -259.252)" fill="#78156b"/>
            <path id="Path_14497" data-name="Path 14497" d="M387.827,264.987h0a1.476,1.476,0,0,1,2.081-.073l8.745,8.146a1.476,1.476,0,0,1,.073,2.081h0a1.478,1.478,0,0,1-2.082.074l-8.744-8.146A1.477,1.477,0,0,1,387.827,264.987Z" transform="translate(-386.359 -259.196)" fill="#78156b"/>
            <path id="Path_14498" data-name="Path 14498" d="M386.671,269.259h0a1.477,1.477,0,0,1,2.062-.29l6.3,4.633a1.476,1.476,0,0,1,.291,2.061h0a1.476,1.476,0,0,1-2.062.291l-6.3-4.633A1.477,1.477,0,0,1,386.671,269.259Z" transform="translate(-386.376 -259.128)" fill="#78156b"/>
            <path id="Path_14499" data-name="Path 14499" d="M405.208,263.49h0a1.864,1.864,0,0,1,1.075,2.4l-2.3,6.774a1.863,1.863,0,0,1-2.4,1.075h0a1.863,1.863,0,0,1-1.075-2.4l2.3-6.774A1.863,1.863,0,0,1,405.208,263.49Z" transform="translate(-386.146 -259.215)" fill="#78156b"/>
          </g>
        </g>
        <path id="Path_14500" data-name="Path 14500" d="M433.5,323.868c-13.88-1.774-16.305-5.271-19.078-6.709-.088-4.3,1.034-13.868,2.894-23.012,3.7-18.2,4.321-27.912,16.964-29.216,12.872-1.328,17.522,11.361,17.778,33.4.106,9.166.793,14.1-1.17,22.517C447.777,323.608,440.354,324.743,433.5,323.868Z" transform="translate(-381.477 -222.308)" fill="#941582"/>
        <path id="Path_14501" data-name="Path 14501" d="M418.867,239.33s3.6,22.165,16.919,22.165,16.81-15.259,14.112-26.186-14.98-13.919-22.518-11.562c-7.242,2.264-13.442,6.1-14.992,13.976A7.148,7.148,0,0,0,418.867,239.33Z" transform="translate(-381.51 -222.994)" fill="#9e6d37"/>
      </g>
      <g id="Group_3174" data-name="Group 3174">
        <path id="Path_14502" data-name="Path 14502" d="M411.934,269.6l-.144-2.6c-1.839-23.157-18.07-46-48.7-63.687l-24.271,14.012v17.7a27.325,27.325,0,0,1,7.276,1.959c-7.542,3.305-18.33,2.982-25.212-.991a11.319,11.319,0,0,1-5.124-5.355L293.145,243.7v17.7c9.344,5.4,15.391,11.969,18.155,18.893-.05.125-.092.25-.145.374v17.7l25.477,3.555v9.068l.015-.005c-.142,5.029,5.664,9.643,14.475,10.938,10.3,1.514,20.773-2.079,23.4-8.024a7.046,7.046,0,0,0,.39-1.178l.011,0v-.049a6.374,6.374,0,0,0,.016-2.947l.014-2.454,32.369,4.517a58.938,58.938,0,0,0,4.6-20.514l.052-.03Z" transform="translate(-293.145 -203.315)" fill="#ecf2fe"/>
        <path id="Path_14503" data-name="Path 14503" d="M345.36,236.761a26.272,26.272,0,0,1-5.815,1.731l2.856,2.4,12.439,1.453,4.618-25.24H338.084v17.7A27.325,27.325,0,0,1,345.36,236.761Z" transform="translate(-292.408 -203.089)" fill="#008bb5"/>
        <path id="Path_14504" data-name="Path 14504" d="M373.648,305.882,373.806,292l-1.34-3.986,33.552,4.682v17.7Z" transform="translate(-291.844 -201.926)" fill="#b7c9ee"/>
        <path id="Path_14505" data-name="Path 14505" d="M310.865,297.121v-17.7l31.984,4.463-1.991,5.876-4.508,2.081-.008,8.837Z" transform="translate(-292.854 -202.067)" fill="#b7c9ee"/>
        <g id="Group_3173" data-name="Group 3173">
          <path id="Path_14506" data-name="Path 14506" d="M373.767,289.4l33.551,4.682c13.147-31.535-1.592-66.156-44.227-90.771l-24.271,14.012a25.4,25.4,0,0,1,9.277,2.959c7.514,4.338,7.514,11.372,0,15.711s-19.7,4.339-27.212,0a11.319,11.319,0,0,1-5.124-5.355L293.145,243.7c17.364,10.025,23.365,24.125,18.011,36.969l31.983,4.463a12.27,12.27,0,0,0-5.915,5.586c-2.622,5.946,3.6,11.994,13.9,13.507s20.773-2.079,23.4-8.023A6.765,6.765,0,0,0,373.767,289.4Z" transform="translate(-293.145 -203.315)" fill="#c9d9fe"/>
        </g>
      </g>
      <g id="Group_3177" data-name="Group 3177" transform="translate(83.712 66.095)">
        <g id="Group_3175" data-name="Group 3175" transform="translate(9.777)">
          <path id="Path_14507" data-name="Path 14507" d="M401.071,308.086a54.79,54.79,0,0,1-11.981-1.464,5.083,5.083,0,0,1,2.236-9.916c16.686,3.759,22.287-1.533,25.854-7.814,1.782-3.139,2.809-7.483,4.23-13.494q.358-1.511.752-3.161a5.082,5.082,0,1,1,9.882,2.378q-.393,1.631-.743,3.122c-1.616,6.832-2.784,11.769-5.283,16.173C420.633,303.4,412.416,308.086,401.071,308.086Z" transform="translate(-385.125 -268.343)" fill="#78156b"/>
        </g>
        <g id="Group_3176" data-name="Group 3176" transform="translate(0 21.229)">
          <path id="Path_14508" data-name="Path 14508" d="M382.418,302.1a5.984,5.984,0,1,1,7.122,4.571A5.984,5.984,0,0,1,382.418,302.1Z" transform="translate(-375.395 -289.137)" fill="#ffbca6"/>
          <path id="Path_14509" data-name="Path 14509" d="M377.069,292.666h0a1.477,1.477,0,0,1,1.856-.944l11.362,3.7a1.477,1.477,0,0,1,.944,1.857h0a1.478,1.478,0,0,1-1.857.943l-11.362-3.7A1.477,1.477,0,0,1,377.069,292.666Z" transform="translate(-375.482 -289.189)" fill="#ffbca6"/>
          <path id="Path_14510" data-name="Path 14510" d="M375.558,295.951h0a1.477,1.477,0,0,1,1.808-1.033l11.529,3.147a1.476,1.476,0,0,1,1.033,1.808h0a1.476,1.476,0,0,1-1.808,1.033l-11.529-3.147A1.477,1.477,0,0,1,375.558,295.951Z" transform="translate(-375.506 -289.137)" fill="#ffbca6"/>
          <path id="Path_14511" data-name="Path 14511" d="M375.674,300.006h0a1.477,1.477,0,0,1,1.7-1.2l11.776,2.038a1.479,1.479,0,0,1,1.2,1.7h0a1.477,1.477,0,0,1-1.7,1.2l-11.776-2.038A1.476,1.476,0,0,1,375.674,300.006Z" transform="translate(-375.504 -289.072)" fill="#ffbca6"/>
          <path id="Path_14512" data-name="Path 14512" d="M377.043,304.215h0a1.477,1.477,0,0,1,1.567-1.371l7.807.434a1.478,1.478,0,0,1,1.37,1.568h0a1.475,1.475,0,0,1-1.567,1.37l-7.806-.434A1.477,1.477,0,0,1,377.043,304.215Z" transform="translate(-375.481 -289.006)" fill="#ffbca6"/>
          <path id="Path_14513" data-name="Path 14513" d="M389.374,289.272h0a1.864,1.864,0,0,1,2.212,1.42l1.78,6.929a1.865,1.865,0,0,1-1.42,2.213h0a1.863,1.863,0,0,1-2.212-1.42l-1.78-6.929A1.864,1.864,0,0,1,389.374,289.272Z" transform="translate(-375.302 -289.229)" fill="#ffbca6"/>
        </g>
      </g>
    </g>
  </g>
</svg>
