<svg id="Group_2321" data-name="Group 2321" xmlns="http://www.w3.org/2000/svg" xmlns:xlink="http://www.w3.org/1999/xlink" width="480.571" height="480.572" viewBox="0 0 480.571 480.572">
  <defs>
    <radialGradient id="radial-gradient" cx="53.014" cy="-109.079" r="637.888" gradientTransform="translate(0 36.655) scale(1 1.336)" gradientUnits="userSpaceOnUse">
      <stop offset="0.004" stop-color="#4c02f1"/>
      <stop offset="0.008" stop-color="#4b02ef"/>
      <stop offset="0.126" stop-color="#3802c3"/>
      <stop offset="0.249" stop-color="#29029e"/>
      <stop offset="0.377" stop-color="#1c037f"/>
      <stop offset="0.51" stop-color="#120367"/>
      <stop offset="0.651" stop-color="#0b0357"/>
      <stop offset="0.806" stop-color="#07034d"/>
      <stop offset="1" stop-color="#06044a"/>
    </radialGradient>
    <linearGradient id="linear-gradient" y1="0.5" x2="1" y2="0.5" gradientUnits="objectBoundingBox">
      <stop offset="0" stop-color="#e39a65"/>
      <stop offset="1" stop-color="#e95f8d"/>
    </linearGradient>
    <radialGradient id="radial-gradient-2" cx="404.204" cy="150.964" r="198.68" gradientTransform="translate(-15.189 -4.87) scale(1.08 1.08)" gradientUnits="userSpaceOnUse">
      <stop offset="0" stop-color="#e39a65"/>
      <stop offset="0.474" stop-color="#a92ffb"/>
      <stop offset="0.595" stop-color="#881bfa"/>
      <stop offset="0.742" stop-color="#6507fa"/>
      <stop offset="0.802" stop-color="#0d0c6f"/>
    </radialGradient>
    <radialGradient id="radial-gradient-3" cx="-312.353" cy="-543.895" r="409.231" gradientTransform="translate(-180.557 -321.616) scale(0.573 0.573)" gradientUnits="userSpaceOnUse">
      <stop offset="0" stop-color="#e39a65"/>
      <stop offset="0.474" stop-color="#a92ffb"/>
      <stop offset="0.568" stop-color="#881bfa"/>
      <stop offset="0.683" stop-color="#6507fa"/>
      <stop offset="0.738" stop-color="#0d0c6f"/>
    </radialGradient>
    <radialGradient id="radial-gradient-4" cx="-286.744" cy="-565.654" r="364.513" gradientTransform="translate(-168.076 -325.869) scale(0.577 0.577)" gradientUnits="userSpaceOnUse">
      <stop offset="0" stop-color="#e39a65"/>
      <stop offset="0.474" stop-color="#a92ffb"/>
      <stop offset="0.588" stop-color="#881bfa"/>
      <stop offset="0.726" stop-color="#6507fa"/>
      <stop offset="1" stop-color="#3919bb"/>
    </radialGradient>
    <radialGradient id="radial-gradient-5" cx="338.349" cy="193.496" r="199.37" gradientTransform="translate(-9.66 -7.853) scale(1.077 1.077)" xlink:href="#radial-gradient-4"/>
    <linearGradient id="linear-gradient-5" y1="0.5" x2="1" y2="0.5" gradientUnits="objectBoundingBox">
      <stop offset="0" stop-color="#3919bb"/>
      <stop offset="1" stop-color="#6507fa"/>
    </linearGradient>
    <radialGradient id="radial-gradient-6" cx="281.006" cy="173.439" r="310.513" gradientTransform="translate(-3.049 -3.602) scale(1.077 1.077)" xlink:href="#radial-gradient-4"/>
    <radialGradient id="radial-gradient-7" cx="401.317" cy="537.587" r="120.607" gradientTransform="translate(-94.044 -127.944) scale(1.318 1.318)" gradientUnits="userSpaceOnUse">
      <stop offset="0" stop-color="#e39a65"/>
      <stop offset="0.153" stop-color="#a92ffb"/>
      <stop offset="0.409" stop-color="#3919bb"/>
      <stop offset="0.931" stop-color="#3919bb"/>
    </radialGradient>
    <linearGradient id="linear-gradient-7" y1="0.5" x2="1" y2="0.5" gradientUnits="objectBoundingBox">
      <stop offset="0" stop-color="#e39a65"/>
      <stop offset="0.252" stop-color="#a92ffb"/>
      <stop offset="0.556" stop-color="#3919bb"/>
    </linearGradient>
    <linearGradient id="linear-gradient-8" y1="0.5" x2="1" y2="0.5" gradientUnits="objectBoundingBox">
      <stop offset="0" stop-color="#4f1fec"/>
      <stop offset="1" stop-color="#a92ffb"/>
    </linearGradient>
    <linearGradient id="linear-gradient-10" y1="0.5" x2="1.261" y2="0.5" gradientUnits="objectBoundingBox">
      <stop offset="0" stop-color="#131060"/>
      <stop offset="0.186" stop-color="#140f62"/>
      <stop offset="0.282" stop-color="#190f6a"/>
      <stop offset="0.358" stop-color="#220f77"/>
      <stop offset="0.424" stop-color="#2e0f8a"/>
      <stop offset="0.482" stop-color="#3d0ea3"/>
      <stop offset="0.536" stop-color="#510ec1"/>
      <stop offset="0.585" stop-color="#670de5"/>
      <stop offset="0.607" stop-color="#740df8"/>
      <stop offset="0.618" stop-color="#7a14ef"/>
      <stop offset="0.683" stop-color="#9b3bc2"/>
      <stop offset="0.748" stop-color="#b75c9d"/>
      <stop offset="0.812" stop-color="#cc7680"/>
      <stop offset="0.876" stop-color="#db886b"/>
      <stop offset="0.939" stop-color="#e4935f"/>
      <stop offset="1" stop-color="#e8975b"/>
    </linearGradient>
    <radialGradient id="radial-gradient-8" cx="-293.49" cy="-311.893" r="180.048" gradientTransform="translate(-167.245 -179.267) scale(0.577 0.577)" gradientUnits="userSpaceOnUse">
      <stop offset="0" stop-color="#e39a65"/>
      <stop offset="0.252" stop-color="#a92ffb"/>
      <stop offset="0.736" stop-color="#3919bb"/>
    </radialGradient>
    <linearGradient id="linear-gradient-11" x1="-0.089" y1="0.5" x2="1.209" y2="0.5" xlink:href="#linear-gradient-10"/>
  </defs>
  <rect id="Rectangle_582" data-name="Rectangle 582" width="480.571" height="480.572" transform="translate(0)" fill="url(#radial-gradient)"/>
  <path id="Path_6678" data-name="Path 6678" d="M446.731,340.76a6.694,6.694,0,0,1-3.347-.895l-11.28-6.513a2.088,2.088,0,0,1,0-3.619l11.28-6.513a6.711,6.711,0,0,1,6.691,0l11.281,6.513a2.088,2.088,0,0,1,0,3.619l-11.28,6.513A6.688,6.688,0,0,1,446.731,340.76Zm0-16.644a4.906,4.906,0,0,0-2.453.654L433,331.283a.3.3,0,0,0,0,.521l11.281,6.513h0a4.918,4.918,0,0,0,4.9,0l11.281-6.513a.3.3,0,0,0,0-.521l-11.282-6.514A4.9,4.9,0,0,0,446.731,324.116Z" transform="translate(-16.75 -12.525)" fill="url(#linear-gradient)"/>
  <path id="Path_6679" data-name="Path 6679" d="M412.733,301.824a10.858,10.858,0,0,1-5.435-1.452l-19.413-11.209a2.949,2.949,0,0,1,0-5.109L407.3,272.845a10.9,10.9,0,0,1,10.871,0l19.414,11.208a2.951,2.951,0,0,1,0,5.11l-19.414,11.208A10.873,10.873,0,0,1,412.733,301.824Zm-4.541-3a9.118,9.118,0,0,0,9.084,0l19.413-11.208a1.163,1.163,0,0,0,0-2.014l-19.414-11.208a9.113,9.113,0,0,0-9.084,0L388.777,285.6a1.163,1.163,0,0,0,0,2.013Z" transform="translate(-15.015 -10.545)" fill="url(#linear-gradient)"/>
  <path id="Path_6680" data-name="Path 6680" d="M51.511,320.176a10.862,10.862,0,0,1-5.436-1.451L26.66,307.516a2.95,2.95,0,0,1,0-5.11L46.074,291.2a10.892,10.892,0,0,1,10.871,0l19.413,11.209a2.949,2.949,0,0,1,0,5.109L56.946,318.724A10.866,10.866,0,0,1,51.511,320.176Zm0-28.642a9.089,9.089,0,0,0-4.542,1.212L27.554,303.954a1.162,1.162,0,0,0,0,2.013l19.413,11.208h0a9.113,9.113,0,0,0,9.084,0l19.413-11.208a1.162,1.162,0,0,0,0-2.012l-19.414-11.21A9.088,9.088,0,0,0,51.51,291.534Z" transform="translate(-0.979 -11.259)" fill="url(#linear-gradient)"/>
  <g id="Group_2314" data-name="Group 2314" transform="translate(85.502 86.756)">
    <path id="Path_6681" data-name="Path 6681" d="M251.453,366.732,112.635,286.585c-2.023-1.169-1.769-3.209.567-4.558L202.3,230.588c2.337-1.348,5.871-1.5,7.894-.327l138.819,80.147c2.023,1.168,1.77,3.208-.567,4.558l-89.1,51.438C257.011,367.753,253.476,367.9,251.453,366.732Z" transform="translate(-89.826 -95.673)" fill="#020230" opacity="0.6"/>
    <path id="Path_6682" data-name="Path 6682" d="M253.766,380.708a8.875,8.875,0,0,1-4.368-1.024h0L90.966,288.213a3.543,3.543,0,0,1-2.007-3.033c0-1.389.967-2.744,2.653-3.718l108-63.274c2.962-1.711,7.314-1.875,9.909-.376l158.432,91.472a3.538,3.538,0,0,1,2.007,3.032c0,1.389-.967,2.743-2.654,3.717l-108,63.274A11.332,11.332,0,0,1,253.766,380.708ZM205.172,218.584a9.64,9.64,0,0,0-4.662,1.151l-108,63.274c-1.107.639-1.764,1.449-1.764,2.17a1.891,1.891,0,0,0,1.111,1.485l158.433,91.471h0c2.022,1.17,5.739,1,8.113-.373l108-63.274c1.107-.639,1.764-1.449,1.764-2.171a1.89,1.89,0,0,0-1.111-1.484L208.625,219.361A7.083,7.083,0,0,0,205.172,218.584Z" transform="translate(-88.959 -95.18)" fill="url(#linear-gradient)"/>
    <path id="Path_6683" data-name="Path 6683" d="M389.909,170.632,251.637,90.8a3.581,3.581,0,0,0-2.822-.406h0l-.012,0-2.561.892.9.213a4.481,4.481,0,0,0-.845,1.581L215.029,194.613a6.125,6.125,0,0,0,2.535,6.832l138.272,79.831a4.052,4.052,0,0,0,1.017.416l-.342.746,2.445-.859-.006,0a3.911,3.911,0,0,0,2.225-2.586l31.269-101.527A6.124,6.124,0,0,0,389.909,170.632Z" transform="translate(-93.848 -90.264)" fill="url(#radial-gradient-2)"/>
    <path id="Path_6684" data-name="Path 6684" d="M346.865,289.725l.049.059L210.338,210.931c-2.009-1.16-5.519-1.015-7.838.325L114.257,262.2l-2.942-1.124.827,4.128,0,0a2.471,2.471,0,0,0,1.324,1.652l137.839,79.582c2.009,1.16,5.518,1.014,7.838-.325l88.466-51.076a3.536,3.536,0,0,0,1.874-2.185l.006.006.844-4.018Z" transform="translate(-89.828 -94.922)" fill="url(#radial-gradient-3)"/>
    <path id="Path_6685" data-name="Path 6685" d="M251.453,342.621,112.635,262.474c-2.023-1.168-1.769-3.208.567-4.557L202.3,206.478c2.337-1.348,5.871-1.5,7.894-.327L349.009,286.3c2.023,1.168,1.77,3.208-.567,4.557l-89.1,51.439C257.011,343.643,253.476,343.79,251.453,342.621Z" transform="translate(-89.826 -94.736)" fill="url(#radial-gradient-4)"/>
    <path id="Path_6686" data-name="Path 6686" d="M348.442,291.981l-89.1,51.438c-2.336,1.349-5.871,1.5-7.894.328L112.636,263.6a2.59,2.59,0,0,1-1.262-1.44,2.162,2.162,0,0,0,1.262,2.52l138.818,80.148c2.023,1.168,5.558,1.021,7.894-.328l89.1-51.438c1.541-.89,2.155-2.076,1.829-3.118A3.675,3.675,0,0,1,348.442,291.981Z" transform="translate(-89.827 -96.943)" fill="#fff"/>
    <g id="Group_2310" data-name="Group 2310" transform="translate(84.083 129.289)" opacity="0.4">
      <path id="Path_6687" data-name="Path 6687" d="M181.381,250.97l-4.687-2.706c-.376-.217-.329-.6.106-.848l5.531-3.194a1.633,1.633,0,0,1,1.469-.061l4.687,2.706c.377.217.329.6-.106.848l-5.531,3.194A1.633,1.633,0,0,1,181.381,250.97Z" transform="translate(-176.441 -225.527)" fill="#06033e"/>
      <path id="Path_6688" data-name="Path 6688" d="M188.912,255.318l-4.687-2.707c-.376-.217-.329-.6.106-.847l5.532-3.194a1.631,1.631,0,0,1,1.468-.062l4.687,2.707c.377.217.33.6-.1.847l-5.532,3.194A1.628,1.628,0,0,1,188.912,255.318Z" transform="translate(-176.734 -225.696)" fill="#06033e"/>
      <path id="Path_6689" data-name="Path 6689" d="M196.442,259.665l-4.687-2.706c-.377-.217-.33-.6.1-.848l5.532-3.194a1.631,1.631,0,0,1,1.468-.061l4.688,2.706c.376.217.329.6-.106.848L197.91,259.6A1.631,1.631,0,0,1,196.442,259.665Z" transform="translate(-177.026 -225.865)" fill="#06033e"/>
      <path id="Path_6690" data-name="Path 6690" d="M206.857,256.1l-4.687-2.706c-.376-.217-.329-.6.106-.848l4.644-2.682a1.631,1.631,0,0,1,1.468-.061l4.687,2.706c.377.217.33.6-.1.848l-4.644,2.682A1.631,1.631,0,0,1,206.857,256.1Z" transform="translate(-177.431 -225.746)" fill="#06033e"/>
      <path id="Path_6691" data-name="Path 6691" d="M214.387,260.443l-4.687-2.706c-.377-.217-.33-.6.1-.848l4.644-2.681a1.631,1.631,0,0,1,1.468-.061l4.687,2.706c.377.217.33.6-.1.848l-4.644,2.681A1.628,1.628,0,0,1,214.387,260.443Z" transform="translate(-177.724 -225.915)" fill="#06033e"/>
      <path id="Path_6692" data-name="Path 6692" d="M221.917,264.791l-4.687-2.706c-.377-.217-.329-.6.106-.848l4.643-2.681a1.633,1.633,0,0,1,1.469-.061l4.687,2.707c.376.216.329.6-.106.847l-4.643,2.682A1.633,1.633,0,0,1,221.917,264.791Z" transform="translate(-178.016 -226.084)" fill="#06033e"/>
      <path id="Path_6693" data-name="Path 6693" d="M229.447,269.139l-4.687-2.706c-.376-.217-.329-.6.106-.848l4.643-2.682a1.633,1.633,0,0,1,1.469-.061l4.687,2.706c.377.217.329.6-.106.848l-4.643,2.681A1.633,1.633,0,0,1,229.447,269.139Z" transform="translate(-178.309 -226.253)" fill="#06033e"/>
      <path id="Path_6694" data-name="Path 6694" d="M236.978,273.486l-4.687-2.706c-.377-.217-.33-.6.1-.848l4.644-2.681a1.628,1.628,0,0,1,1.468-.061l4.687,2.706c.377.217.33.6-.1.848l-4.644,2.681A1.631,1.631,0,0,1,236.978,273.486Z" transform="translate(-178.601 -226.422)" fill="#06033e"/>
      <path id="Path_6695" data-name="Path 6695" d="M244.508,277.834l-4.687-2.706c-.377-.217-.33-.6.1-.848l4.644-2.682a1.631,1.631,0,0,1,1.468-.061l4.687,2.706c.377.217.33.6-.1.848l-4.644,2.682A1.631,1.631,0,0,1,244.508,277.834Z" transform="translate(-178.894 -226.591)" fill="#06033e"/>
      <path id="Path_6696" data-name="Path 6696" d="M252.038,282.182l-4.687-2.707c-.376-.217-.329-.6.106-.848l4.643-2.681a1.633,1.633,0,0,1,1.469-.061l4.687,2.706c.376.217.329.6-.106.848l-4.643,2.681A1.633,1.633,0,0,1,252.038,282.182Z" transform="translate(-179.187 -226.759)" fill="#06033e"/>
      <path id="Path_6697" data-name="Path 6697" d="M259.568,286.529l-4.687-2.706c-.376-.217-.329-.6.106-.848l4.643-2.681a1.633,1.633,0,0,1,1.469-.061l4.687,2.707c.376.217.329.6-.106.847l-4.643,2.682A1.633,1.633,0,0,1,259.568,286.529Z" transform="translate(-179.479 -226.928)" fill="#06033e"/>
      <path id="Path_6698" data-name="Path 6698" d="M267.1,290.877l-4.687-2.706c-.376-.218-.329-.6.106-.848l4.644-2.682a1.631,1.631,0,0,1,1.468-.061l4.687,2.706c.377.217.33.6-.1.848l-4.644,2.682A1.631,1.631,0,0,1,267.1,290.877Z" transform="translate(-179.772 -227.097)" fill="#06033e"/>
      <path id="Path_6699" data-name="Path 6699" d="M274.629,295.224l-4.687-2.706c-.377-.217-.33-.6.1-.848l4.644-2.681a1.631,1.631,0,0,1,1.468-.061l4.688,2.707c.376.217.329.6-.106.848l-4.644,2.681A1.631,1.631,0,0,1,274.629,295.224Z" transform="translate(-180.064 -227.266)" fill="#06033e"/>
      <path id="Path_6700" data-name="Path 6700" d="M217.952,254.038l-4.687-2.707c-.377-.217-.33-.6.1-.848l4.644-2.681a1.631,1.631,0,0,1,1.468-.061l4.687,2.706c.376.217.329.6-.106.848l-4.644,2.681A1.631,1.631,0,0,1,217.952,254.038Z" transform="translate(-177.862 -225.666)" fill="#06033e"/>
      <path id="Path_6701" data-name="Path 6701" d="M210.309,249.625l-4.687-2.706c-.376-.217-.329-.6.106-.848l4.643-2.681a1.63,1.63,0,0,1,1.469-.062l4.687,2.706c.376.218.329.6-.106.848l-4.643,2.682A1.633,1.633,0,0,1,210.309,249.625Z" transform="translate(-177.565 -225.494)" fill="#06033e"/>
      <path id="Path_6702" data-name="Path 6702" d="M202.436,245.078l-10.094-5.827c-.376-.217-.329-.6.106-.848l4.643-2.681a1.633,1.633,0,0,1,1.469-.061l10.094,5.828c.376.217.329.6-.106.848l-4.643,2.681A1.633,1.633,0,0,1,202.436,245.078Z" transform="translate(-177.049 -225.197)" fill="#06033e"/>
      <path id="Path_6703" data-name="Path 6703" d="M207.864,239.749l-8.192-4.73c-.376-.217-.329-.6.106-.848l4.644-2.681a1.631,1.631,0,0,1,1.468-.062l8.192,4.73c.376.217.329.6-.106.848l-4.643,2.681A1.633,1.633,0,0,1,207.864,239.749Z" transform="translate(-177.334 -225.032)" fill="#06033e"/>
      <path id="Path_6704" data-name="Path 6704" d="M225.482,258.385l-4.687-2.706c-.376-.217-.329-.6.106-.848l4.643-2.681a1.633,1.633,0,0,1,1.469-.062L231.7,254.8c.376.217.329.6-.106.847l-4.643,2.682A1.633,1.633,0,0,1,225.482,258.385Z" transform="translate(-178.155 -225.835)" fill="#06033e"/>
      <path id="Path_6705" data-name="Path 6705" d="M233.013,262.733l-4.687-2.706c-.376-.218-.329-.6.106-.848l4.643-2.682a1.633,1.633,0,0,1,1.469-.061l4.687,2.706c.377.217.33.6-.106.848l-4.643,2.682A1.631,1.631,0,0,1,233.013,262.733Z" transform="translate(-178.447 -226.004)" fill="#06033e"/>
      <path id="Path_6706" data-name="Path 6706" d="M240.543,267.08l-4.687-2.706c-.377-.217-.33-.6.1-.848l4.644-2.681a1.634,1.634,0,0,1,1.468-.062l4.687,2.707c.377.217.33.6-.1.848l-4.644,2.681A1.628,1.628,0,0,1,240.543,267.08Z" transform="translate(-178.74 -226.173)" fill="#06033e"/>
      <path id="Path_6707" data-name="Path 6707" d="M248.073,271.428l-4.687-2.706c-.377-.217-.33-.6.106-.848l4.643-2.682a1.631,1.631,0,0,1,1.468-.06l4.688,2.706c.376.217.329.6-.106.848l-4.643,2.682A1.633,1.633,0,0,1,248.073,271.428Z" transform="translate(-179.033 -226.342)" fill="#06033e"/>
      <path id="Path_6708" data-name="Path 6708" d="M255.6,275.776l-4.687-2.707c-.376-.217-.329-.6.106-.848l4.643-2.681a1.633,1.633,0,0,1,1.469-.061l4.687,2.706c.376.217.329.6-.106.848l-4.643,2.681A1.633,1.633,0,0,1,255.6,275.776Z" transform="translate(-179.325 -226.511)" fill="#06033e"/>
      <path id="Path_6709" data-name="Path 6709" d="M263.133,280.123l-4.687-2.706c-.376-.217-.329-.6.106-.848l4.643-2.681a1.633,1.633,0,0,1,1.469-.062l4.687,2.707c.377.217.33.6-.106.848l-4.643,2.681A1.633,1.633,0,0,1,263.133,280.123Z" transform="translate(-179.618 -226.68)" fill="#06033e"/>
      <path id="Path_6710" data-name="Path 6710" d="M270.664,284.471l-4.687-2.706c-.377-.217-.33-.6.1-.848l4.644-2.682a1.631,1.631,0,0,1,1.468-.061l4.687,2.706c.377.217.33.6-.1.848l-4.644,2.681A1.628,1.628,0,0,1,270.664,284.471Z" transform="translate(-179.91 -226.848)" fill="#06033e"/>
      <path id="Path_6711" data-name="Path 6711" d="M278.194,288.818l-4.687-2.706c-.377-.217-.33-.6.106-.848l4.643-2.681a1.628,1.628,0,0,1,1.468-.061l4.688,2.706c.376.217.329.6-.106.848l-4.644,2.681A1.628,1.628,0,0,1,278.194,288.818Z" transform="translate(-180.203 -227.017)" fill="#06033e"/>
      <path id="Path_6712" data-name="Path 6712" d="M285.724,293.166l-4.687-2.706c-.376-.217-.329-.6.106-.848l4.643-2.681a1.633,1.633,0,0,1,1.469-.061l4.687,2.706c.376.217.329.6-.106.848l-4.643,2.682A1.633,1.633,0,0,1,285.724,293.166Z" transform="translate(-180.496 -227.186)" fill="#06033e"/>
      <path id="Path_6713" data-name="Path 6713" d="M298.887,300.765l-10.226-5.9c-.376-.218-.329-.6.106-.848l4.643-2.682a1.633,1.633,0,0,1,1.469-.061l10.226,5.9c.377.216.329.6-.106.847l-4.643,2.682A1.633,1.633,0,0,1,298.887,300.765Z" transform="translate(-180.792 -227.357)" fill="#06033e"/>
      <path id="Path_6714" data-name="Path 6714" d="M313.613,292.339l-8.631-4.984c-.377-.217-.33-.6.106-.848l4.643-2.681a1.633,1.633,0,0,1,1.469-.061l8.631,4.983c.376.217.329.6-.106.848l-4.644,2.682A1.631,1.631,0,0,1,313.613,292.339Z" transform="translate(-181.426 -227.066)" fill="#06033e"/>
      <path id="Path_6715" data-name="Path 6715" d="M238.669,257.535l-4.687-2.707c-.376-.217-.329-.6.106-.848l4.643-2.681a1.633,1.633,0,0,1,1.469-.061l4.687,2.706c.376.217.329.6-.106.848l-4.643,2.681A1.633,1.633,0,0,1,238.669,257.535Z" transform="translate(-178.667 -225.802)" fill="#06033e"/>
      <path id="Path_6716" data-name="Path 6716" d="M230.952,253.079l-4.687-2.706c-.377-.218-.33-.6.1-.848l4.644-2.682a1.631,1.631,0,0,1,1.468-.061l4.687,2.706c.377.217.33.6-.1.848l-4.644,2.681A1.628,1.628,0,0,1,230.952,253.079Z" transform="translate(-178.367 -225.629)" fill="#06033e"/>
      <path id="Path_6717" data-name="Path 6717" d="M223.234,248.623l-4.687-2.706c-.376-.217-.329-.6.106-.848l4.643-2.682a1.636,1.636,0,0,1,1.469-.061l4.687,2.706c.376.217.329.6-.106.848l-4.643,2.682A1.633,1.633,0,0,1,223.234,248.623Z" transform="translate(-178.067 -225.456)" fill="#06033e"/>
      <path id="Path_6718" data-name="Path 6718" d="M215.517,244.167l-4.687-2.706c-.376-.217-.329-.6.106-.848l4.644-2.681a1.631,1.631,0,0,1,1.468-.062l4.687,2.707c.377.217.33.6-.1.848l-4.644,2.681A1.631,1.631,0,0,1,215.517,244.167Z" transform="translate(-177.767 -225.282)" fill="#06033e"/>
      <path id="Path_6719" data-name="Path 6719" d="M246.2,261.882l-4.687-2.706c-.376-.217-.329-.6.106-.848l4.644-2.681a1.631,1.631,0,0,1,1.468-.062l4.687,2.707c.377.217.33.6-.106.847l-4.643,2.682A1.631,1.631,0,0,1,246.2,261.882Z" transform="translate(-178.96 -225.971)" fill="#06033e"/>
      <path id="Path_6720" data-name="Path 6720" d="M253.73,266.23l-4.687-2.706c-.377-.217-.33-.6.1-.848l4.644-2.682a1.631,1.631,0,0,1,1.468-.061l4.687,2.706c.377.217.33.6-.1.848l-4.644,2.681A1.628,1.628,0,0,1,253.73,266.23Z" transform="translate(-179.252 -226.14)" fill="#06033e"/>
      <path id="Path_6721" data-name="Path 6721" d="M261.26,270.577l-4.687-2.706c-.377-.217-.329-.6.106-.848l4.643-2.681a1.63,1.63,0,0,1,1.469-.061l4.686,2.706c.376.217.329.6-.106.848l-4.643,2.681A1.633,1.633,0,0,1,261.26,270.577Z" transform="translate(-179.545 -226.309)" fill="#06033e"/>
      <path id="Path_6722" data-name="Path 6722" d="M268.79,274.925l-4.686-2.706c-.376-.217-.329-.6.106-.848l4.643-2.682a1.633,1.633,0,0,1,1.469-.061l4.687,2.706c.376.217.329.6-.106.848l-4.643,2.682A1.633,1.633,0,0,1,268.79,274.925Z" transform="translate(-179.838 -226.478)" fill="#06033e"/>
      <path id="Path_6723" data-name="Path 6723" d="M276.321,279.273l-4.688-2.707c-.376-.217-.329-.6.106-.847l4.644-2.682a1.631,1.631,0,0,1,1.468-.061l4.687,2.706c.377.217.33.6-.1.848l-4.644,2.681A1.631,1.631,0,0,1,276.321,279.273Z" transform="translate(-180.13 -226.646)" fill="#06033e"/>
      <path id="Path_6724" data-name="Path 6724" d="M283.851,283.62l-4.687-2.706c-.377-.217-.33-.6.1-.848l4.644-2.681a1.631,1.631,0,0,1,1.468-.062l4.687,2.707c.377.217.33.6-.1.847l-4.644,2.682A1.631,1.631,0,0,1,283.851,283.62Z" transform="translate(-180.423 -226.815)" fill="#06033e"/>
      <path id="Path_6725" data-name="Path 6725" d="M291.381,287.968l-4.687-2.706c-.377-.218-.329-.6.106-.848l4.643-2.682a1.633,1.633,0,0,1,1.469-.061l4.687,2.706c.376.217.329.6-.106.848l-4.643,2.681A1.63,1.63,0,0,1,291.381,287.968Z" transform="translate(-180.715 -226.984)" fill="#06033e"/>
      <path id="Path_6726" data-name="Path 6726" d="M298.911,292.315l-4.687-2.706c-.376-.217-.329-.6.106-.848l4.643-2.681a1.636,1.636,0,0,1,1.469-.061l4.686,2.707c.377.217.329.6-.106.848l-4.643,2.681A1.633,1.633,0,0,1,298.911,292.315Z" transform="translate(-181.008 -227.153)" fill="#06033e"/>
      <path id="Path_6727" data-name="Path 6727" d="M306.442,296.663l-4.687-2.706c-.377-.217-.33-.6.1-.848l4.644-2.682a1.631,1.631,0,0,1,1.468-.061l4.687,2.706c.377.217.33.6-.1.848L307.91,296.6A1.631,1.631,0,0,1,306.442,296.663Z" transform="translate(-181.301 -227.322)" fill="#06033e"/>
      <path id="Path_6728" data-name="Path 6728" d="M234.7,246.781l-4.687-2.706c-.376-.217-.329-.6.106-.848l4.643-2.681a1.63,1.63,0,0,1,1.469-.062l4.687,2.706c.376.218.329.6-.106.848l-4.643,2.682A1.633,1.633,0,0,1,234.7,246.781Z" transform="translate(-178.513 -225.384)" fill="#06033e"/>
      <path id="Path_6729" data-name="Path 6729" d="M227.211,242.455l-4.687-2.706c-.376-.217-.329-.6.106-.848l4.643-2.681a1.63,1.63,0,0,1,1.469-.062l4.687,2.706c.377.218.329.6-.106.848l-4.643,2.682A1.633,1.633,0,0,1,227.211,242.455Z" transform="translate(-178.222 -225.216)" fill="#06033e"/>
      <path id="Path_6730" data-name="Path 6730" d="M219.719,238.129l-4.687-2.706c-.376-.217-.329-.6.106-.848l4.644-2.681a1.628,1.628,0,0,1,1.468-.062l4.687,2.706c.377.218.33.6-.1.848l-4.644,2.682A1.631,1.631,0,0,1,219.719,238.129Z" transform="translate(-177.931 -225.048)" fill="#06033e"/>
      <path id="Path_6731" data-name="Path 6731" d="M212.226,233.8,207.54,231.1c-.377-.217-.33-.6.1-.848l4.644-2.681a1.628,1.628,0,0,1,1.468-.062l4.687,2.706c.377.218.33.6-.1.848l-4.644,2.682A1.631,1.631,0,0,1,212.226,233.8Z" transform="translate(-177.64 -224.88)" fill="#06033e"/>
      <path id="Path_6732" data-name="Path 6732" d="M219.931,229.427l-4.687-2.706c-.377-.218-.33-.6.1-.848l1.535-.886a1.63,1.63,0,0,1,1.469-.061l4.687,2.706c.376.217.329.6-.106.848l-1.535.886A1.631,1.631,0,0,1,219.931,229.427Z" transform="translate(-177.939 -224.779)" fill="#06033e"/>
      <path id="Path_6733" data-name="Path 6733" d="M229.709,235.072l-4.687-2.706c-.377-.217-.33-.6.1-.848l1.535-.886a1.63,1.63,0,0,1,1.469-.061l4.687,2.706c.377.217.329.6-.106.848l-1.535.886A1.631,1.631,0,0,1,229.709,235.072Z" transform="translate(-178.319 -224.999)" fill="#06033e"/>
      <path id="Path_6734" data-name="Path 6734" d="M237.17,239.38l-4.687-2.706c-.376-.217-.329-.6.106-.848l1.535-.886a1.63,1.63,0,0,1,1.469-.061l4.687,2.706c.376.217.329.6-.106.848l-1.535.886A1.633,1.633,0,0,1,237.17,239.38Z" transform="translate(-178.609 -225.166)" fill="#06033e"/>
      <path id="Path_6735" data-name="Path 6735" d="M244.632,243.688l-4.687-2.706c-.377-.217-.33-.6.1-.848l1.536-.886a1.631,1.631,0,0,1,1.468-.062l4.687,2.707c.377.217.33.6-.1.848l-1.536.886A1.631,1.631,0,0,1,244.632,243.688Z" transform="translate(-178.899 -225.334)" fill="#06033e"/>
      <path id="Path_6736" data-name="Path 6736" d="M252.093,248l-4.687-2.706c-.376-.217-.329-.6.106-.848l1.535-.886a1.633,1.633,0,0,1,1.469-.062L255.2,246.2c.376.217.329.6-.106.848l-1.535.886A1.633,1.633,0,0,1,252.093,248Z" transform="translate(-179.189 -225.501)" fill="#06033e"/>
      <path id="Path_6737" data-name="Path 6737" d="M293.75,272.047l-4.687-2.707c-.376-.217-.329-.6.106-.848l1.535-.886a1.631,1.631,0,0,1,1.468-.061l4.688,2.706c.376.217.329.6-.106.848l-1.535.886A1.633,1.633,0,0,1,293.75,272.047Z" transform="translate(-180.807 -226.435)" fill="#06033e"/>
      <path id="Path_6738" data-name="Path 6738" d="M301.212,276.354l-4.687-2.706c-.377-.217-.33-.6.1-.848l1.536-.886a1.631,1.631,0,0,1,1.468-.061l4.687,2.706c.377.217.33.6-.1.848l-1.536.886A1.628,1.628,0,0,1,301.212,276.354Z" transform="translate(-181.097 -226.603)" fill="#06033e"/>
      <path id="Path_6739" data-name="Path 6739" d="M308.673,280.663l-4.686-2.707c-.376-.217-.329-.6.106-.848l1.535-.886a1.633,1.633,0,0,1,1.469-.061l4.686,2.706c.376.217.329.6-.106.848l-1.535.886A1.636,1.636,0,0,1,308.673,280.663Z" transform="translate(-181.387 -226.77)" fill="#06033e"/>
      <path id="Path_6740" data-name="Path 6740" d="M316.135,284.97l-4.687-2.706c-.377-.217-.33-.6.106-.848l1.535-.886a1.631,1.631,0,0,1,1.468-.061l4.687,2.706c.377.217.33.6-.1.848l-1.535.886A1.63,1.63,0,0,1,316.135,284.97Z" transform="translate(-181.677 -226.938)" fill="#06033e"/>
      <path id="Path_6741" data-name="Path 6741" d="M242.234,251.129l-4.687-2.707c-.376-.217-.329-.6.106-.848l4.643-2.681a1.633,1.633,0,0,1,1.469-.061l4.687,2.706c.377.217.329.6-.106.848l-4.643,2.681A1.633,1.633,0,0,1,242.234,251.129Z" transform="translate(-178.806 -225.553)" fill="#06033e"/>
      <path id="Path_6742" data-name="Path 6742" d="M249.765,255.476l-4.687-2.706c-.377-.217-.33-.6.1-.848l4.644-2.681a1.631,1.631,0,0,1,1.468-.062l4.687,2.707c.377.217.33.6-.1.847l-4.644,2.682A1.631,1.631,0,0,1,249.765,255.476Z" transform="translate(-179.098 -225.722)" fill="#06033e"/>
      <path id="Path_6743" data-name="Path 6743" d="M257.3,259.824l-4.687-2.706c-.377-.217-.33-.6.1-.848l4.644-2.682a1.631,1.631,0,0,1,1.468-.061l4.688,2.706c.376.217.329.6-.106.848l-4.644,2.682A1.631,1.631,0,0,1,257.3,259.824Z" transform="translate(-179.391 -225.891)" fill="#06033e"/>
      <path id="Path_6744" data-name="Path 6744" d="M264.825,264.171l-4.687-2.706c-.376-.217-.329-.6.106-.848l4.643-2.681a1.633,1.633,0,0,1,1.469-.061l4.686,2.706c.376.217.329.6-.106.848l-4.643,2.681A1.63,1.63,0,0,1,264.825,264.171Z" transform="translate(-179.683 -226.06)" fill="#06033e"/>
      <path id="Path_6745" data-name="Path 6745" d="M272.355,268.519l-4.686-2.706c-.376-.217-.329-.6.106-.848l4.643-2.682a1.636,1.636,0,0,1,1.469-.061l4.687,2.706c.377.217.329.6-.106.848l-4.643,2.682A1.633,1.633,0,0,1,272.355,268.519Z" transform="translate(-179.976 -226.229)" fill="#06033e"/>
      <path id="Path_6746" data-name="Path 6746" d="M279.886,272.867,275.2,270.16c-.377-.217-.33-.6.1-.847l4.644-2.682a1.631,1.631,0,0,1,1.468-.061l4.687,2.706c.377.217.33.6-.1.848l-4.644,2.681A1.631,1.631,0,0,1,279.886,272.867Z" transform="translate(-180.269 -226.398)" fill="#06033e"/>
      <path id="Path_6747" data-name="Path 6747" d="M287.416,277.214l-4.687-2.706c-.377-.217-.33-.6.1-.848l4.644-2.681a1.631,1.631,0,0,1,1.468-.061l4.687,2.707c.376.217.329.6-.106.848l-4.644,2.681A1.631,1.631,0,0,1,287.416,277.214Z" transform="translate(-180.561 -226.567)" fill="#06033e"/>
      <path id="Path_6748" data-name="Path 6748" d="M294.946,281.562l-4.687-2.706c-.376-.217-.329-.6.106-.848l4.643-2.682a1.633,1.633,0,0,1,1.469-.061l4.687,2.706c.376.217.329.6-.106.848l-4.643,2.682A1.633,1.633,0,0,1,294.946,281.562Z" transform="translate(-180.854 -226.735)" fill="#06033e"/>
      <path id="Path_6749" data-name="Path 6749" d="M302.477,285.91,297.79,283.2c-.376-.217-.329-.6.106-.848l4.644-2.681a1.631,1.631,0,0,1,1.468-.061l4.687,2.706c.377.217.33.6-.106.848l-4.643,2.681A1.634,1.634,0,0,1,302.477,285.91Z" transform="translate(-181.146 -226.904)" fill="#06033e"/>
      <path id="Path_6750" data-name="Path 6750" d="M198.815,251.452l-13.8-7.969c-.377-.217-.33-.6.106-.848l4.643-2.681a1.63,1.63,0,0,1,1.469-.061l13.8,7.969c.377.217.33.6-.1.848l-4.644,2.681A1.631,1.631,0,0,1,198.815,251.452Z" transform="translate(-176.764 -225.361)" fill="#06033e"/>
      <path id="Path_6751" data-name="Path 6751" d="M291.326,304.864l-13.8-7.969c-.377-.218-.329-.6.106-.848l4.643-2.682a1.633,1.633,0,0,1,1.469-.061l13.8,7.969c.377.217.33.6-.1.848l-4.644,2.681A1.631,1.631,0,0,1,291.326,304.864Z" transform="translate(-180.359 -227.436)" fill="#06033e"/>
      <path id="Path_6752" data-name="Path 6752" d="M261.579,297.273l-4.686-2.707c-.376-.217-.329-.6.106-.848l5.531-3.194a1.633,1.633,0,0,1,1.469-.061l4.686,2.706c.376.217.329.6-.106.848l-5.531,3.194A1.633,1.633,0,0,1,261.579,297.273Z" transform="translate(-179.557 -227.326)" fill="#06033e"/>
      <path id="Path_6753" data-name="Path 6753" d="M206.781,265.634l-7.495-4.327c-.377-.217-.329-.6.106-.848l5.531-3.194a1.63,1.63,0,0,1,1.469-.061l7.495,4.327c.377.217.329.6-.106.848l-5.531,3.194A1.633,1.633,0,0,1,206.781,265.634Z" transform="translate(-177.319 -226.034)" fill="#06033e"/>
      <path id="Path_6754" data-name="Path 6754" d="M254.211,293.017l-7.5-4.327c-.376-.217-.329-.6.106-.848l5.532-3.194a1.631,1.631,0,0,1,1.468-.061l7.495,4.327c.377.217.33.6-.1.848l-5.532,3.194A1.628,1.628,0,0,1,254.211,293.017Z" transform="translate(-179.162 -227.098)" fill="#06033e"/>
      <path id="Path_6755" data-name="Path 6755" d="M217.646,271.907l-7.5-4.328c-.377-.217-.33-.6.1-.847l5.532-3.194a1.628,1.628,0,0,1,1.468-.062l7.5,4.328c.376.217.329.6-.106.848l-5.532,3.193A1.631,1.631,0,0,1,217.646,271.907Z" transform="translate(-177.741 -226.277)" fill="#06033e"/>
      <path id="Path_6756" data-name="Path 6756" d="M217.319,263.514l32.588,18.814a.446.446,0,0,1,0,.845l-5.641,3.257a1.618,1.618,0,0,1-1.465,0l-32.588-18.814Z" transform="translate(-177.753 -226.284)" fill="#06033e"/>
      <path id="Path_6757" data-name="Path 6757" d="M282.673,305.431l5.221,3.014c.309.178.269.489-.087.695l-2.263,1.306a1.338,1.338,0,0,1-1.2.05l-5.22-3.014c-.308-.178-.27-.489.087-.695l2.263-1.306A1.338,1.338,0,0,1,282.673,305.431Z" transform="translate(-180.423 -227.909)" fill="#06033e"/>
      <path id="Path_6758" data-name="Path 6758" d="M275.08,301.047l5.221,3.014c.309.179.27.489-.086.695l-2.263,1.307a1.341,1.341,0,0,1-1.2.05l-5.221-3.014c-.309-.179-.27-.489.086-.695l2.263-1.307A1.341,1.341,0,0,1,275.08,301.047Z" transform="translate(-180.128 -227.738)" fill="#06033e"/>
      <path id="Path_6759" data-name="Path 6759" d="M267.55,296.7l5.221,3.014c.309.178.269.489-.087.695l-2.263,1.306a1.338,1.338,0,0,1-1.2.05L264,298.751c-.309-.178-.27-.489.086-.695l2.263-1.306A1.338,1.338,0,0,1,267.55,296.7Z" transform="translate(-179.835 -227.569)" fill="#06033e"/>
      <path id="Path_6760" data-name="Path 6760" d="M279.239,298.647l5.22,3.014c.309.178.27.489-.086.694l-2.263,1.307a1.338,1.338,0,0,1-1.2.05l-5.221-3.014c-.309-.178-.269-.489.086-.695l2.264-1.306A1.335,1.335,0,0,1,279.239,298.647Z" transform="translate(-180.289 -227.645)" fill="#06033e"/>
    </g>
    <g id="Group_2311" data-name="Group 2311" transform="translate(84.083 129.289)" opacity="0.4">
      <path id="Path_6761" data-name="Path 6761" d="M181.381,250.97l-4.687-2.706c-.376-.217-.329-.6.106-.848l5.531-3.194a1.633,1.633,0,0,1,1.469-.061l4.687,2.706c.377.217.329.6-.106.848l-5.531,3.194A1.633,1.633,0,0,1,181.381,250.97Z" transform="translate(-176.441 -225.527)" fill="#06033e"/>
      <path id="Path_6762" data-name="Path 6762" d="M188.912,255.318l-4.687-2.707c-.376-.217-.329-.6.106-.847l5.532-3.194a1.631,1.631,0,0,1,1.468-.062l4.687,2.707c.377.217.33.6-.1.847l-5.532,3.194A1.628,1.628,0,0,1,188.912,255.318Z" transform="translate(-176.734 -225.696)" fill="#06033e"/>
      <path id="Path_6763" data-name="Path 6763" d="M196.442,259.665l-4.687-2.706c-.377-.217-.33-.6.1-.848l5.532-3.194a1.631,1.631,0,0,1,1.468-.061l4.688,2.706c.376.217.329.6-.106.848L197.91,259.6A1.631,1.631,0,0,1,196.442,259.665Z" transform="translate(-177.026 -225.865)" fill="#06033e"/>
      <path id="Path_6764" data-name="Path 6764" d="M206.857,256.1l-4.687-2.706c-.376-.217-.329-.6.106-.848l4.644-2.682a1.631,1.631,0,0,1,1.468-.061l4.687,2.706c.377.217.33.6-.1.848l-4.644,2.682A1.631,1.631,0,0,1,206.857,256.1Z" transform="translate(-177.431 -225.746)" fill="#06033e"/>
      <path id="Path_6765" data-name="Path 6765" d="M214.387,260.443l-4.687-2.706c-.377-.217-.33-.6.1-.848l4.644-2.681a1.631,1.631,0,0,1,1.468-.061l4.687,2.706c.377.217.33.6-.1.848l-4.644,2.681A1.628,1.628,0,0,1,214.387,260.443Z" transform="translate(-177.724 -225.915)" fill="#06033e"/>
      <path id="Path_6766" data-name="Path 6766" d="M221.917,264.791l-4.687-2.706c-.377-.217-.329-.6.106-.848l4.643-2.681a1.633,1.633,0,0,1,1.469-.061l4.687,2.707c.376.216.329.6-.106.847l-4.643,2.682A1.633,1.633,0,0,1,221.917,264.791Z" transform="translate(-178.016 -226.084)" fill="#06033e"/>
      <path id="Path_6767" data-name="Path 6767" d="M229.447,269.139l-4.687-2.706c-.376-.217-.329-.6.106-.848l4.643-2.682a1.633,1.633,0,0,1,1.469-.061l4.687,2.706c.377.217.329.6-.106.848l-4.643,2.681A1.633,1.633,0,0,1,229.447,269.139Z" transform="translate(-178.309 -226.253)" fill="#06033e"/>
      <path id="Path_6768" data-name="Path 6768" d="M236.978,273.486l-4.687-2.706c-.377-.217-.33-.6.1-.848l4.644-2.681a1.628,1.628,0,0,1,1.468-.061l4.687,2.706c.377.217.33.6-.1.848l-4.644,2.681A1.631,1.631,0,0,1,236.978,273.486Z" transform="translate(-178.601 -226.422)" fill="#06033e"/>
      <path id="Path_6769" data-name="Path 6769" d="M244.508,277.834l-4.687-2.706c-.377-.217-.33-.6.1-.848l4.644-2.682a1.631,1.631,0,0,1,1.468-.061l4.687,2.706c.377.217.33.6-.1.848l-4.644,2.682A1.631,1.631,0,0,1,244.508,277.834Z" transform="translate(-178.894 -226.591)" fill="#06033e"/>
      <path id="Path_6770" data-name="Path 6770" d="M252.038,282.182l-4.687-2.707c-.376-.217-.329-.6.106-.848l4.643-2.681a1.633,1.633,0,0,1,1.469-.061l4.687,2.706c.376.217.329.6-.106.848l-4.643,2.681A1.633,1.633,0,0,1,252.038,282.182Z" transform="translate(-179.187 -226.759)" fill="#06033e"/>
      <path id="Path_6771" data-name="Path 6771" d="M259.568,286.529l-4.687-2.706c-.376-.217-.329-.6.106-.848l4.643-2.681a1.633,1.633,0,0,1,1.469-.061l4.687,2.707c.376.217.329.6-.106.847l-4.643,2.682A1.633,1.633,0,0,1,259.568,286.529Z" transform="translate(-179.479 -226.928)" fill="#06033e"/>
      <path id="Path_6772" data-name="Path 6772" d="M267.1,290.877l-4.687-2.706c-.376-.218-.329-.6.106-.848l4.644-2.682a1.631,1.631,0,0,1,1.468-.061l4.687,2.706c.377.217.33.6-.1.848l-4.644,2.682A1.631,1.631,0,0,1,267.1,290.877Z" transform="translate(-179.772 -227.097)" fill="#06033e"/>
      <path id="Path_6773" data-name="Path 6773" d="M274.629,295.224l-4.687-2.706c-.377-.217-.33-.6.1-.848l4.644-2.681a1.631,1.631,0,0,1,1.468-.061l4.688,2.707c.376.217.329.6-.106.848l-4.644,2.681A1.631,1.631,0,0,1,274.629,295.224Z" transform="translate(-180.064 -227.266)" fill="#06033e"/>
      <path id="Path_6774" data-name="Path 6774" d="M217.952,254.038l-4.687-2.707c-.377-.217-.33-.6.1-.848l4.644-2.681a1.631,1.631,0,0,1,1.468-.061l4.687,2.706c.376.217.329.6-.106.848l-4.644,2.681A1.631,1.631,0,0,1,217.952,254.038Z" transform="translate(-177.862 -225.666)" fill="#06033e"/>
      <path id="Path_6775" data-name="Path 6775" d="M210.309,249.625l-4.687-2.706c-.376-.217-.329-.6.106-.848l4.643-2.681a1.63,1.63,0,0,1,1.469-.062l4.687,2.706c.376.218.329.6-.106.848l-4.643,2.682A1.633,1.633,0,0,1,210.309,249.625Z" transform="translate(-177.565 -225.494)" fill="#06033e"/>
      <path id="Path_6776" data-name="Path 6776" d="M202.436,245.078l-10.094-5.827c-.376-.217-.329-.6.106-.848l4.643-2.681a1.633,1.633,0,0,1,1.469-.061l10.094,5.828c.376.217.329.6-.106.848l-4.643,2.681A1.633,1.633,0,0,1,202.436,245.078Z" transform="translate(-177.049 -225.197)" fill="#06033e"/>
      <path id="Path_6777" data-name="Path 6777" d="M207.864,239.749l-8.192-4.73c-.376-.217-.329-.6.106-.848l4.644-2.681a1.631,1.631,0,0,1,1.468-.062l8.192,4.73c.376.217.329.6-.106.848l-4.643,2.681A1.633,1.633,0,0,1,207.864,239.749Z" transform="translate(-177.334 -225.032)" fill="#06033e"/>
      <path id="Path_6778" data-name="Path 6778" d="M225.482,258.385l-4.687-2.706c-.376-.217-.329-.6.106-.848l4.643-2.681a1.633,1.633,0,0,1,1.469-.062L231.7,254.8c.376.217.329.6-.106.847l-4.643,2.682A1.633,1.633,0,0,1,225.482,258.385Z" transform="translate(-178.155 -225.835)" fill="#06033e"/>
      <path id="Path_6779" data-name="Path 6779" d="M233.013,262.733l-4.687-2.706c-.376-.218-.329-.6.106-.848l4.643-2.682a1.633,1.633,0,0,1,1.469-.061l4.687,2.706c.377.217.33.6-.106.848l-4.643,2.682A1.631,1.631,0,0,1,233.013,262.733Z" transform="translate(-178.447 -226.004)" fill="#06033e"/>
      <path id="Path_6780" data-name="Path 6780" d="M240.543,267.08l-4.687-2.706c-.377-.217-.33-.6.1-.848l4.644-2.681a1.634,1.634,0,0,1,1.468-.062l4.687,2.707c.377.217.33.6-.1.848l-4.644,2.681A1.628,1.628,0,0,1,240.543,267.08Z" transform="translate(-178.74 -226.173)" fill="#06033e"/>
      <path id="Path_6781" data-name="Path 6781" d="M248.073,271.428l-4.687-2.706c-.377-.217-.33-.6.106-.848l4.643-2.682a1.631,1.631,0,0,1,1.468-.06l4.688,2.706c.376.217.329.6-.106.848l-4.643,2.682A1.633,1.633,0,0,1,248.073,271.428Z" transform="translate(-179.033 -226.342)" fill="#06033e"/>
      <path id="Path_6782" data-name="Path 6782" d="M255.6,275.776l-4.687-2.707c-.376-.217-.329-.6.106-.848l4.643-2.681a1.633,1.633,0,0,1,1.469-.061l4.687,2.706c.376.217.329.6-.106.848l-4.643,2.681A1.633,1.633,0,0,1,255.6,275.776Z" transform="translate(-179.325 -226.511)" fill="#06033e"/>
      <path id="Path_6783" data-name="Path 6783" d="M263.133,280.123l-4.687-2.706c-.376-.217-.329-.6.106-.848l4.643-2.681a1.633,1.633,0,0,1,1.469-.062l4.687,2.707c.377.217.33.6-.106.848l-4.643,2.681A1.633,1.633,0,0,1,263.133,280.123Z" transform="translate(-179.618 -226.68)" fill="#06033e"/>
      <path id="Path_6784" data-name="Path 6784" d="M270.664,284.471l-4.687-2.706c-.377-.217-.33-.6.1-.848l4.644-2.682a1.631,1.631,0,0,1,1.468-.061l4.687,2.706c.377.217.33.6-.1.848l-4.644,2.681A1.628,1.628,0,0,1,270.664,284.471Z" transform="translate(-179.91 -226.848)" fill="#06033e"/>
      <path id="Path_6785" data-name="Path 6785" d="M278.194,288.818l-4.687-2.706c-.377-.217-.33-.6.106-.848l4.643-2.681a1.628,1.628,0,0,1,1.468-.061l4.688,2.706c.376.217.329.6-.106.848l-4.644,2.681A1.628,1.628,0,0,1,278.194,288.818Z" transform="translate(-180.203 -227.017)" fill="#06033e"/>
      <path id="Path_6786" data-name="Path 6786" d="M285.724,293.166l-4.687-2.706c-.376-.217-.329-.6.106-.848l4.643-2.681a1.633,1.633,0,0,1,1.469-.061l4.687,2.706c.376.217.329.6-.106.848l-4.643,2.682A1.633,1.633,0,0,1,285.724,293.166Z" transform="translate(-180.496 -227.186)" fill="#06033e"/>
      <path id="Path_6787" data-name="Path 6787" d="M298.887,300.765l-10.226-5.9c-.376-.218-.329-.6.106-.848l4.643-2.682a1.633,1.633,0,0,1,1.469-.061l10.226,5.9c.377.216.329.6-.106.847l-4.643,2.682A1.633,1.633,0,0,1,298.887,300.765Z" transform="translate(-180.792 -227.357)" fill="#06033e"/>
      <path id="Path_6788" data-name="Path 6788" d="M313.613,292.339l-8.631-4.984c-.377-.217-.33-.6.106-.848l4.643-2.681a1.633,1.633,0,0,1,1.469-.061l8.631,4.983c.376.217.329.6-.106.848l-4.644,2.682A1.631,1.631,0,0,1,313.613,292.339Z" transform="translate(-181.426 -227.066)" fill="#06033e"/>
      <path id="Path_6789" data-name="Path 6789" d="M238.669,257.535l-4.687-2.707c-.376-.217-.329-.6.106-.848l4.643-2.681a1.633,1.633,0,0,1,1.469-.061l4.687,2.706c.376.217.329.6-.106.848l-4.643,2.681A1.633,1.633,0,0,1,238.669,257.535Z" transform="translate(-178.667 -225.802)" fill="#06033e"/>
      <path id="Path_6790" data-name="Path 6790" d="M230.952,253.079l-4.687-2.706c-.377-.218-.33-.6.1-.848l4.644-2.682a1.631,1.631,0,0,1,1.468-.061l4.687,2.706c.377.217.33.6-.1.848l-4.644,2.681A1.628,1.628,0,0,1,230.952,253.079Z" transform="translate(-178.367 -225.629)" fill="#06033e"/>
      <path id="Path_6791" data-name="Path 6791" d="M223.234,248.623l-4.687-2.706c-.376-.217-.329-.6.106-.848l4.643-2.682a1.636,1.636,0,0,1,1.469-.061l4.687,2.706c.376.217.329.6-.106.848l-4.643,2.682A1.633,1.633,0,0,1,223.234,248.623Z" transform="translate(-178.067 -225.456)" fill="#06033e"/>
      <path id="Path_6792" data-name="Path 6792" d="M215.517,244.167l-4.687-2.706c-.376-.217-.329-.6.106-.848l4.644-2.681a1.631,1.631,0,0,1,1.468-.062l4.687,2.707c.377.217.33.6-.1.848l-4.644,2.681A1.631,1.631,0,0,1,215.517,244.167Z" transform="translate(-177.767 -225.282)" fill="#06033e"/>
      <path id="Path_6793" data-name="Path 6793" d="M246.2,261.882l-4.687-2.706c-.376-.217-.329-.6.106-.848l4.644-2.681a1.631,1.631,0,0,1,1.468-.062l4.687,2.707c.377.217.33.6-.106.847l-4.643,2.682A1.631,1.631,0,0,1,246.2,261.882Z" transform="translate(-178.96 -225.971)" fill="#06033e"/>
      <path id="Path_6794" data-name="Path 6794" d="M253.73,266.23l-4.687-2.706c-.377-.217-.33-.6.1-.848l4.644-2.682a1.631,1.631,0,0,1,1.468-.061l4.687,2.706c.377.217.33.6-.1.848l-4.644,2.681A1.628,1.628,0,0,1,253.73,266.23Z" transform="translate(-179.252 -226.14)" fill="#06033e"/>
      <path id="Path_6795" data-name="Path 6795" d="M261.26,270.577l-4.687-2.706c-.377-.217-.329-.6.106-.848l4.643-2.681a1.63,1.63,0,0,1,1.469-.061l4.686,2.706c.376.217.329.6-.106.848l-4.643,2.681A1.633,1.633,0,0,1,261.26,270.577Z" transform="translate(-179.545 -226.309)" fill="#06033e"/>
      <path id="Path_6796" data-name="Path 6796" d="M268.79,274.925l-4.686-2.706c-.376-.217-.329-.6.106-.848l4.643-2.682a1.633,1.633,0,0,1,1.469-.061l4.687,2.706c.376.217.329.6-.106.848l-4.643,2.682A1.633,1.633,0,0,1,268.79,274.925Z" transform="translate(-179.838 -226.478)" fill="#06033e"/>
      <path id="Path_6797" data-name="Path 6797" d="M276.321,279.273l-4.688-2.707c-.376-.217-.329-.6.106-.847l4.644-2.682a1.631,1.631,0,0,1,1.468-.061l4.687,2.706c.377.217.33.6-.1.848l-4.644,2.681A1.631,1.631,0,0,1,276.321,279.273Z" transform="translate(-180.13 -226.646)" fill="#06033e"/>
      <path id="Path_6798" data-name="Path 6798" d="M283.851,283.62l-4.687-2.706c-.377-.217-.33-.6.1-.848l4.644-2.681a1.631,1.631,0,0,1,1.468-.062l4.687,2.707c.377.217.33.6-.1.847l-4.644,2.682A1.631,1.631,0,0,1,283.851,283.62Z" transform="translate(-180.423 -226.815)" fill="#06033e"/>
      <path id="Path_6799" data-name="Path 6799" d="M291.381,287.968l-4.687-2.706c-.377-.218-.329-.6.106-.848l4.643-2.682a1.633,1.633,0,0,1,1.469-.061l4.687,2.706c.376.217.329.6-.106.848l-4.643,2.681A1.63,1.63,0,0,1,291.381,287.968Z" transform="translate(-180.715 -226.984)" fill="#06033e"/>
      <path id="Path_6800" data-name="Path 6800" d="M298.911,292.315l-4.687-2.706c-.376-.217-.329-.6.106-.848l4.643-2.681a1.636,1.636,0,0,1,1.469-.061l4.686,2.707c.377.217.329.6-.106.848l-4.643,2.681A1.633,1.633,0,0,1,298.911,292.315Z" transform="translate(-181.008 -227.153)" fill="#06033e"/>
      <path id="Path_6801" data-name="Path 6801" d="M306.442,296.663l-4.687-2.706c-.377-.217-.33-.6.1-.848l4.644-2.682a1.631,1.631,0,0,1,1.468-.061l4.687,2.706c.377.217.33.6-.1.848L307.91,296.6A1.631,1.631,0,0,1,306.442,296.663Z" transform="translate(-181.301 -227.322)" fill="#06033e"/>
      <path id="Path_6802" data-name="Path 6802" d="M234.7,246.781l-4.687-2.706c-.376-.217-.329-.6.106-.848l4.643-2.681a1.63,1.63,0,0,1,1.469-.062l4.687,2.706c.376.218.329.6-.106.848l-4.643,2.682A1.633,1.633,0,0,1,234.7,246.781Z" transform="translate(-178.513 -225.384)" fill="#06033e"/>
      <path id="Path_6803" data-name="Path 6803" d="M227.211,242.455l-4.687-2.706c-.376-.217-.329-.6.106-.848l4.643-2.681a1.63,1.63,0,0,1,1.469-.062l4.687,2.706c.377.218.329.6-.106.848l-4.643,2.682A1.633,1.633,0,0,1,227.211,242.455Z" transform="translate(-178.222 -225.216)" fill="#06033e"/>
      <path id="Path_6804" data-name="Path 6804" d="M219.719,238.129l-4.687-2.706c-.376-.217-.329-.6.106-.848l4.644-2.681a1.628,1.628,0,0,1,1.468-.062l4.687,2.706c.377.218.33.6-.1.848l-4.644,2.682A1.631,1.631,0,0,1,219.719,238.129Z" transform="translate(-177.931 -225.048)" fill="#06033e"/>
      <path id="Path_6805" data-name="Path 6805" d="M212.226,233.8,207.54,231.1c-.377-.217-.33-.6.1-.848l4.644-2.681a1.628,1.628,0,0,1,1.468-.062l4.687,2.706c.377.218.33.6-.1.848l-4.644,2.682A1.631,1.631,0,0,1,212.226,233.8Z" transform="translate(-177.64 -224.88)" fill="#06033e"/>
      <path id="Path_6806" data-name="Path 6806" d="M219.931,229.427l-4.687-2.706c-.377-.218-.33-.6.1-.848l1.535-.886a1.63,1.63,0,0,1,1.469-.061l4.687,2.706c.376.217.329.6-.106.848l-1.535.886A1.631,1.631,0,0,1,219.931,229.427Z" transform="translate(-177.939 -224.779)" fill="#06033e"/>
      <path id="Path_6807" data-name="Path 6807" d="M229.709,235.072l-4.687-2.706c-.377-.217-.33-.6.1-.848l1.535-.886a1.63,1.63,0,0,1,1.469-.061l4.687,2.706c.377.217.329.6-.106.848l-1.535.886A1.631,1.631,0,0,1,229.709,235.072Z" transform="translate(-178.319 -224.999)" fill="#06033e"/>
      <path id="Path_6808" data-name="Path 6808" d="M237.17,239.38l-4.687-2.706c-.376-.217-.329-.6.106-.848l1.535-.886a1.63,1.63,0,0,1,1.469-.061l4.687,2.706c.376.217.329.6-.106.848l-1.535.886A1.633,1.633,0,0,1,237.17,239.38Z" transform="translate(-178.609 -225.166)" fill="#06033e"/>
      <path id="Path_6809" data-name="Path 6809" d="M244.632,243.688l-4.687-2.706c-.377-.217-.33-.6.1-.848l1.536-.886a1.631,1.631,0,0,1,1.468-.062l4.687,2.707c.377.217.33.6-.1.848l-1.536.886A1.631,1.631,0,0,1,244.632,243.688Z" transform="translate(-178.899 -225.334)" fill="#06033e"/>
      <path id="Path_6810" data-name="Path 6810" d="M252.093,248l-4.687-2.706c-.376-.217-.329-.6.106-.848l1.535-.886a1.633,1.633,0,0,1,1.469-.062L255.2,246.2c.376.217.329.6-.106.848l-1.535.886A1.633,1.633,0,0,1,252.093,248Z" transform="translate(-179.189 -225.501)" fill="#06033e"/>
      <path id="Path_6811" data-name="Path 6811" d="M293.75,272.047l-4.687-2.707c-.376-.217-.329-.6.106-.848l1.535-.886a1.631,1.631,0,0,1,1.468-.061l4.688,2.706c.376.217.329.6-.106.848l-1.535.886A1.633,1.633,0,0,1,293.75,272.047Z" transform="translate(-180.807 -226.435)" fill="#06033e"/>
      <path id="Path_6812" data-name="Path 6812" d="M301.212,276.354l-4.687-2.706c-.377-.217-.33-.6.1-.848l1.536-.886a1.631,1.631,0,0,1,1.468-.061l4.687,2.706c.377.217.33.6-.1.848l-1.536.886A1.628,1.628,0,0,1,301.212,276.354Z" transform="translate(-181.097 -226.603)" fill="#06033e"/>
      <path id="Path_6813" data-name="Path 6813" d="M308.673,280.663l-4.686-2.707c-.376-.217-.329-.6.106-.848l1.535-.886a1.633,1.633,0,0,1,1.469-.061l4.686,2.706c.376.217.329.6-.106.848l-1.535.886A1.636,1.636,0,0,1,308.673,280.663Z" transform="translate(-181.387 -226.77)" fill="#06033e"/>
      <path id="Path_6814" data-name="Path 6814" d="M316.135,284.97l-4.687-2.706c-.377-.217-.33-.6.106-.848l1.535-.886a1.631,1.631,0,0,1,1.468-.061l4.687,2.706c.377.217.33.6-.1.848l-1.535.886A1.63,1.63,0,0,1,316.135,284.97Z" transform="translate(-181.677 -226.938)" fill="#06033e"/>
      <path id="Path_6815" data-name="Path 6815" d="M242.234,251.129l-4.687-2.707c-.376-.217-.329-.6.106-.848l4.643-2.681a1.633,1.633,0,0,1,1.469-.061l4.687,2.706c.377.217.329.6-.106.848l-4.643,2.681A1.633,1.633,0,0,1,242.234,251.129Z" transform="translate(-178.806 -225.553)" fill="#06033e"/>
      <path id="Path_6816" data-name="Path 6816" d="M249.765,255.476l-4.687-2.706c-.377-.217-.33-.6.1-.848l4.644-2.681a1.631,1.631,0,0,1,1.468-.062l4.687,2.707c.377.217.33.6-.1.847l-4.644,2.682A1.631,1.631,0,0,1,249.765,255.476Z" transform="translate(-179.098 -225.722)" fill="#06033e"/>
      <path id="Path_6817" data-name="Path 6817" d="M257.3,259.824l-4.687-2.706c-.377-.217-.33-.6.1-.848l4.644-2.682a1.631,1.631,0,0,1,1.468-.061l4.688,2.706c.376.217.329.6-.106.848l-4.644,2.682A1.631,1.631,0,0,1,257.3,259.824Z" transform="translate(-179.391 -225.891)" fill="#06033e"/>
      <path id="Path_6818" data-name="Path 6818" d="M264.825,264.171l-4.687-2.706c-.376-.217-.329-.6.106-.848l4.643-2.681a1.633,1.633,0,0,1,1.469-.061l4.686,2.706c.376.217.329.6-.106.848l-4.643,2.681A1.63,1.63,0,0,1,264.825,264.171Z" transform="translate(-179.683 -226.06)" fill="#06033e"/>
      <path id="Path_6819" data-name="Path 6819" d="M272.355,268.519l-4.686-2.706c-.376-.217-.329-.6.106-.848l4.643-2.682a1.636,1.636,0,0,1,1.469-.061l4.687,2.706c.377.217.329.6-.106.848l-4.643,2.682A1.633,1.633,0,0,1,272.355,268.519Z" transform="translate(-179.976 -226.229)" fill="#06033e"/>
      <path id="Path_6820" data-name="Path 6820" d="M279.886,272.867,275.2,270.16c-.377-.217-.33-.6.1-.847l4.644-2.682a1.631,1.631,0,0,1,1.468-.061l4.687,2.706c.377.217.33.6-.1.848l-4.644,2.681A1.631,1.631,0,0,1,279.886,272.867Z" transform="translate(-180.269 -226.398)" fill="#06033e"/>
      <path id="Path_6821" data-name="Path 6821" d="M287.416,277.214l-4.687-2.706c-.377-.217-.33-.6.1-.848l4.644-2.681a1.631,1.631,0,0,1,1.468-.061l4.687,2.707c.376.217.329.6-.106.848l-4.644,2.681A1.631,1.631,0,0,1,287.416,277.214Z" transform="translate(-180.561 -226.567)" fill="#06033e"/>
      <path id="Path_6822" data-name="Path 6822" d="M294.946,281.562l-4.687-2.706c-.376-.217-.329-.6.106-.848l4.643-2.682a1.633,1.633,0,0,1,1.469-.061l4.687,2.706c.376.217.329.6-.106.848l-4.643,2.682A1.633,1.633,0,0,1,294.946,281.562Z" transform="translate(-180.854 -226.735)" fill="#06033e"/>
      <path id="Path_6823" data-name="Path 6823" d="M302.477,285.91,297.79,283.2c-.376-.217-.329-.6.106-.848l4.644-2.681a1.631,1.631,0,0,1,1.468-.061l4.687,2.706c.377.217.33.6-.106.848l-4.643,2.681A1.634,1.634,0,0,1,302.477,285.91Z" transform="translate(-181.146 -226.904)" fill="#06033e"/>
      <path id="Path_6824" data-name="Path 6824" d="M198.815,251.452l-13.8-7.969c-.377-.217-.33-.6.106-.848l4.643-2.681a1.63,1.63,0,0,1,1.469-.061l13.8,7.969c.377.217.33.6-.1.848l-4.644,2.681A1.631,1.631,0,0,1,198.815,251.452Z" transform="translate(-176.764 -225.361)" fill="#06033e"/>
      <path id="Path_6825" data-name="Path 6825" d="M291.326,304.864l-13.8-7.969c-.377-.218-.329-.6.106-.848l4.643-2.682a1.633,1.633,0,0,1,1.469-.061l13.8,7.969c.377.217.33.6-.1.848l-4.644,2.681A1.631,1.631,0,0,1,291.326,304.864Z" transform="translate(-180.359 -227.436)" fill="#06033e"/>
      <path id="Path_6826" data-name="Path 6826" d="M261.579,297.273l-4.686-2.707c-.376-.217-.329-.6.106-.848l5.531-3.194a1.633,1.633,0,0,1,1.469-.061l4.686,2.706c.376.217.329.6-.106.848l-5.531,3.194A1.633,1.633,0,0,1,261.579,297.273Z" transform="translate(-179.557 -227.326)" fill="#06033e"/>
      <path id="Path_6827" data-name="Path 6827" d="M206.781,265.634l-7.495-4.327c-.377-.217-.329-.6.106-.848l5.531-3.194a1.63,1.63,0,0,1,1.469-.061l7.495,4.327c.377.217.329.6-.106.848l-5.531,3.194A1.633,1.633,0,0,1,206.781,265.634Z" transform="translate(-177.319 -226.034)" fill="#06033e"/>
      <path id="Path_6828" data-name="Path 6828" d="M254.211,293.017l-7.5-4.327c-.376-.217-.329-.6.106-.848l5.532-3.194a1.631,1.631,0,0,1,1.468-.061l7.495,4.327c.377.217.33.6-.1.848l-5.532,3.194A1.628,1.628,0,0,1,254.211,293.017Z" transform="translate(-179.162 -227.098)" fill="#06033e"/>
      <path id="Path_6829" data-name="Path 6829" d="M217.646,271.907l-7.5-4.328c-.377-.217-.33-.6.1-.847l5.532-3.194a1.628,1.628,0,0,1,1.468-.062l7.5,4.328c.376.217.329.6-.106.848l-5.532,3.193A1.631,1.631,0,0,1,217.646,271.907Z" transform="translate(-177.741 -226.277)" fill="#06033e"/>
      <path id="Path_6830" data-name="Path 6830" d="M217.319,263.514l32.588,18.814a.446.446,0,0,1,0,.845l-5.641,3.257a1.618,1.618,0,0,1-1.465,0l-32.588-18.814Z" transform="translate(-177.753 -226.284)" fill="#06033e"/>
      <path id="Path_6831" data-name="Path 6831" d="M282.673,305.431l5.221,3.014c.309.178.269.489-.087.695l-2.263,1.306a1.338,1.338,0,0,1-1.2.05l-5.22-3.014c-.308-.178-.27-.489.087-.695l2.263-1.306A1.338,1.338,0,0,1,282.673,305.431Z" transform="translate(-180.423 -227.909)" fill="#06033e"/>
      <path id="Path_6832" data-name="Path 6832" d="M275.08,301.047l5.221,3.014c.309.179.27.489-.086.695l-2.263,1.307a1.341,1.341,0,0,1-1.2.05l-5.221-3.014c-.309-.179-.27-.489.086-.695l2.263-1.307A1.341,1.341,0,0,1,275.08,301.047Z" transform="translate(-180.128 -227.738)" fill="#06033e"/>
      <path id="Path_6833" data-name="Path 6833" d="M267.55,296.7l5.221,3.014c.309.178.269.489-.087.695l-2.263,1.306a1.338,1.338,0,0,1-1.2.05L264,298.751c-.309-.178-.27-.489.086-.695l2.263-1.306A1.338,1.338,0,0,1,267.55,296.7Z" transform="translate(-179.835 -227.569)" fill="#06033e"/>
      <path id="Path_6834" data-name="Path 6834" d="M279.239,298.647l5.22,3.014c.309.178.27.489-.086.694l-2.263,1.307a1.338,1.338,0,0,1-1.2.05l-5.221-3.014c-.309-.178-.269-.489.086-.695l2.264-1.306A1.335,1.335,0,0,1,279.239,298.647Z" transform="translate(-180.289 -227.645)" fill="#06033e"/>
    </g>
    <path id="Path_6835" data-name="Path 6835" d="M353.384,282.134,215.112,202.3a6.126,6.126,0,0,1-2.535-6.832l31.27-101.527c.775-2.517,3.165-3.541,5.339-2.286L387.458,171.49a6.124,6.124,0,0,1,2.535,6.832l-31.27,101.527C357.949,282.366,355.558,283.389,353.384,282.134Z" transform="translate(-93.753 -90.297)" fill="url(#radial-gradient-5)"/>
    <path id="Path_6836" data-name="Path 6836" d="M352.2,278.727l-134.116-77.5a5.86,5.86,0,0,1-2.426-6.538l29.9-97.059a3.4,3.4,0,0,1,5.109-2.188l134.116,77.5a5.862,5.862,0,0,1,2.426,6.539l-29.9,97.058A3.4,3.4,0,0,1,352.2,278.727Z" transform="translate(-93.873 -90.445)" fill="url(#linear-gradient-5)"/>
    <path id="Path_6837" data-name="Path 6837" d="M352.2,278.727l-134.116-77.5a5.86,5.86,0,0,1-2.426-6.538l29.9-97.059a3.4,3.4,0,0,1,5.109-2.188l134.116,77.5a5.862,5.862,0,0,1,2.426,6.539l-29.9,97.058A3.4,3.4,0,0,1,352.2,278.727Z" transform="translate(-93.873 -90.445)" fill="#06033e" opacity="0.4"/>
    <path id="Path_6838" data-name="Path 6838" d="M352.2,278.727l-134.116-77.5a5.86,5.86,0,0,1-2.426-6.538l29.9-97.059a3.4,3.4,0,0,1,5.109-2.188l134.116,77.5a5.862,5.862,0,0,1,2.426,6.539l-29.9,97.058A3.4,3.4,0,0,1,352.2,278.727Z" transform="translate(-93.873 -90.445)" fill="#06033e" opacity="0.4"/>
    <path id="Path_6839" data-name="Path 6839" d="M346.489,250.227,255.7,197.81a4.021,4.021,0,0,1-1.664-4.487l20.531-66.662a2.332,2.332,0,0,1,3.506-1.5l90.79,52.418a4.021,4.021,0,0,1,1.664,4.486L350,248.725A2.332,2.332,0,0,1,346.489,250.227Z" transform="translate(-95.367 -91.606)" fill="#06033e" opacity="0.5"/>
    <g id="Group_2312" data-name="Group 2312" transform="translate(146.241 34.811)">
      <path id="Path_6840" data-name="Path 6840" d="M333.726,251.9l-90.79-52.417A4.023,4.023,0,0,1,241.273,195L261.8,128.335a2.331,2.331,0,0,1,3.505-1.5l90.79,52.418a4.021,4.021,0,0,1,1.665,4.486L337.232,250.4A2.331,2.331,0,0,1,333.726,251.9Z" transform="translate(-241.113 -126.482)" fill="url(#radial-gradient-6)"/>
    </g>
    <g id="Group_2313" data-name="Group 2313" transform="translate(146.241 34.811)" opacity="0.5">
      <path id="Path_6841" data-name="Path 6841" d="M333.726,251.9l-90.79-52.417A4.023,4.023,0,0,1,241.273,195L261.8,128.335a2.331,2.331,0,0,1,3.505-1.5l90.79,52.418a4.021,4.021,0,0,1,1.665,4.486L337.232,250.4A2.331,2.331,0,0,1,333.726,251.9Z" transform="translate(-241.113 -126.482)" fill="#06033e"/>
    </g>
    <path id="Path_6842" data-name="Path 6842" d="M356.974,179.252l-90.79-52.418a2.26,2.26,0,0,0-2.555.087,2.446,2.446,0,0,1,1.311.335l90.79,52.418a4.022,4.022,0,0,1,1.665,4.486l-20.532,66.662a2.739,2.739,0,0,1-.952,1.414,2.4,2.4,0,0,0,2.2-1.837l20.531-66.662A4.02,4.02,0,0,0,356.974,179.252Z" transform="translate(-95.746 -91.671)" fill="#fff"/>
    <path id="Path_6843" data-name="Path 6843" d="M216.667,312.044a6.831,6.831,0,0,1-3.364-.789h0l-36.374-21a2.63,2.63,0,0,1-1.495-2.241,3.438,3.438,0,0,1,2.006-2.781l18.723-10.811a8.385,8.385,0,0,1,7.648-.3l36.374,21a2.629,2.629,0,0,1,1.5,2.241,3.439,3.439,0,0,1-2.006,2.78L220.95,310.962A8.769,8.769,0,0,1,216.667,312.044Zm-16.2-37.64a7.808,7.808,0,0,0-3.775.929l-18.723,10.81c-.942.544-1.482,1.226-1.482,1.871a1.658,1.658,0,0,0,.971,1.33l36.374,21a7.462,7.462,0,0,0,6.6-.3l18.724-10.81c.942-.543,1.481-1.224,1.481-1.87a1.661,1.661,0,0,0-.971-1.331l-36.373-21A5.77,5.77,0,0,0,200.464,274.4Z" transform="translate(-92.319 -97.378)" fill="#06033e" opacity="0.4"/>
  </g>
  <g id="Group_2316" data-name="Group 2316" transform="translate(245.023 143.663)">
    <g id="Group_2315" data-name="Group 2315" transform="translate(6.018 4.482)">
      <path id="Path_6844" data-name="Path 6844" d="M289.041,163.013l-5.612-3.241a1.463,1.463,0,0,1-.624-1.614h0a.831.831,0,0,1,1.262-.526l5.612,3.241a1.462,1.462,0,0,1,.624,1.614h0A.831.831,0,0,1,289.041,163.013Z" transform="translate(-262.029 -154.265)" fill="#fff"/>
      <path id="Path_6845" data-name="Path 6845" d="M302.844,170.982l-8.276-4.779a1.463,1.463,0,0,1-.624-1.614h0a.831.831,0,0,1,1.262-.525l8.276,4.778a1.465,1.465,0,0,1,.624,1.615h0A.831.831,0,0,1,302.844,170.982Z" transform="translate(-262.461 -154.515)" fill="#fff"/>
      <path id="Path_6846" data-name="Path 6846" d="M277.264,189.012l-5.613-3.24a1.466,1.466,0,0,1-.624-1.615h0a.831.831,0,0,1,1.262-.525l5.613,3.241a1.462,1.462,0,0,1,.624,1.614h0A.831.831,0,0,1,277.264,189.012Z" transform="translate(-261.571 -155.275)" fill="#fff"/>
      <path id="Path_6847" data-name="Path 6847" d="M289.556,196.11l-8.276-4.779a1.466,1.466,0,0,1-.624-1.614h0a.832.832,0,0,1,1.262-.526l8.276,4.779a1.463,1.463,0,0,1,.624,1.614h0A.831.831,0,0,1,289.556,196.11Z" transform="translate(-261.945 -155.491)" fill="#fff"/>
      <path id="Path_6848" data-name="Path 6848" d="M271.633,158.428l-3.506-2.024a1.463,1.463,0,0,1-.624-1.614h0a.831.831,0,0,1,1.262-.526l3.506,2.025a1.463,1.463,0,0,1,.624,1.614h0A.831.831,0,0,1,271.633,158.428Z" transform="translate(-261.434 -154.134)" fill="#fff"/>
      <path id="Path_6849" data-name="Path 6849" d="M282.319,170.065l-10.713-6.186a1.462,1.462,0,0,1-.624-1.614h0a.831.831,0,0,1,1.262-.526l10.713,6.186a1.463,1.463,0,0,1,.624,1.614h0A.831.831,0,0,1,282.319,170.065Z" transform="translate(-261.569 -154.425)" fill="#fff"/>
      <path id="Path_6850" data-name="Path 6850" d="M272.33,175.23l-3.507-2.024a1.466,1.466,0,0,1-.624-1.614h0a.831.831,0,0,1,1.262-.526l3.507,2.024a1.467,1.467,0,0,1,.624,1.615h0A.831.831,0,0,1,272.33,175.23Z" transform="translate(-261.461 -154.787)" fill="#fff"/>
      <path id="Path_6851" data-name="Path 6851" d="M290.857,207.794l-9.365-5.407a1.464,1.464,0,0,1-.624-1.614h0a.831.831,0,0,1,1.262-.526l9.365,5.407a1.464,1.464,0,0,1,.624,1.614h0A.831.831,0,0,1,290.857,207.794Z" transform="translate(-261.953 -155.921)" fill="#fff"/>
      <path id="Path_6852" data-name="Path 6852" d="M268.292,183.832l-2.251-1.3a1.465,1.465,0,0,1-.624-1.615h0a.831.831,0,0,1,1.262-.525l2.251,1.3a1.464,1.464,0,0,1,.624,1.614h0A.831.831,0,0,1,268.292,183.832Z" transform="translate(-261.353 -155.15)" fill="#fff"/>
      <path id="Path_6853" data-name="Path 6853" d="M266.054,193.473l-2.795-1.614a1.462,1.462,0,0,1-.624-1.614h0a.831.831,0,0,1,1.262-.525l2.795,1.614a1.463,1.463,0,0,1,.624,1.614h0A.831.831,0,0,1,266.054,193.473Z" transform="translate(-261.245 -155.512)" fill="#fff"/>
      <path id="Path_6854" data-name="Path 6854" d="M277.182,199.9l-7.369-4.255a1.463,1.463,0,0,1-.624-1.614h0a.83.83,0,0,1,1.262-.525l7.369,4.254a1.464,1.464,0,0,1,.624,1.614h0A.831.831,0,0,1,277.182,199.9Z" transform="translate(-261.5 -155.659)" fill="#fff"/>
      <path id="Path_6855" data-name="Path 6855" d="M267.165,199.582l-5.3-3.058a1.464,1.464,0,0,1-.624-1.615h0a.831.831,0,0,1,1.262-.525l5.3,3.059a1.462,1.462,0,0,1,.624,1.614h0A.831.831,0,0,1,267.165,199.582Z" transform="translate(-261.191 -155.693)" fill="#fff"/>
      <path id="Path_6856" data-name="Path 6856" d="M299.457,212.783l-3.4-1.965a1.465,1.465,0,0,1-.624-1.615h0a.831.831,0,0,1,1.262-.525l3.4,1.965a1.463,1.463,0,0,1,.624,1.614h0A.831.831,0,0,1,299.457,212.783Z" transform="translate(-262.519 -156.249)" fill="#fff"/>
      <path id="Path_6857" data-name="Path 6857" d="M285.663,182.929l-9.365-5.407a1.463,1.463,0,0,1-.624-1.614h0a.83.83,0,0,1,1.262-.525l9.365,5.406a1.465,1.465,0,0,1,.624,1.615h0A.831.831,0,0,1,285.663,182.929Z" transform="translate(-261.752 -154.955)" fill="#fff"/>
    </g>
    <path id="Path_6858" data-name="Path 6858" d="M286.537,177.966l-16.322-9.423a1.464,1.464,0,0,1-.624-1.615h0a.831.831,0,0,1,1.262-.525l16.322,9.424a1.463,1.463,0,0,1,.624,1.614h0A.831.831,0,0,1,286.537,177.966Z" transform="translate(-255.497 -150.124)" fill="#e8975b"/>
    <path id="Path_6859" data-name="Path 6859" d="M276.8,183.277l-9.365-5.407a1.464,1.464,0,0,1-.624-1.614h0a.831.831,0,0,1,1.262-.526l9.365,5.407a1.464,1.464,0,0,1,.624,1.614h0A.831.831,0,0,1,276.8,183.277Z" transform="translate(-255.389 -150.486)" fill="#e8975b"/>
    <path id="Path_6860" data-name="Path 6860" d="M293.294,187.335l-3.4-1.965a1.464,1.464,0,0,1-.624-1.614h0a.831.831,0,0,1,1.262-.526l3.4,1.965a1.463,1.463,0,0,1,.624,1.614h0A.831.831,0,0,1,293.294,187.335Z" transform="translate(-256.261 -150.778)" fill="#e8975b"/>
    <path id="Path_6861" data-name="Path 6861" d="M328.628,185.869l-20.149-11.634a1.464,1.464,0,0,1-.624-1.615h0a.831.831,0,0,1,1.262-.525l20.149,11.634a1.463,1.463,0,0,1,.624,1.614h0A.831.831,0,0,1,328.628,185.869Z" transform="translate(-256.984 -150.345)" fill="#e8975b"/>
    <path id="Path_6862" data-name="Path 6862" d="M275.908,193.7l-11.258-6.5a1.464,1.464,0,0,1-.624-1.614h0a.831.831,0,0,1,1.262-.526l11.258,6.5a1.463,1.463,0,0,1,.624,1.614h0A.831.831,0,0,1,275.908,193.7Z" transform="translate(-255.281 -150.849)" fill="#f8359e"/>
    <path id="Path_6863" data-name="Path 6863" d="M277.794,156.519l-8.276-4.778a1.465,1.465,0,0,1-.624-1.615h0a.831.831,0,0,1,1.262-.525l8.276,4.778a1.465,1.465,0,0,1,.624,1.615h0A.831.831,0,0,1,277.794,156.519Z" transform="translate(-255.47 -149.471)" fill="#f8359e"/>
    <path id="Path_6864" data-name="Path 6864" d="M265.191,203.908l-9.585-5.534a1.464,1.464,0,0,1-.624-1.614h0a.831.831,0,0,1,1.262-.526l9.585,5.534a1.464,1.464,0,0,1,.624,1.615h0A.831.831,0,0,1,265.191,203.908Z" transform="translate(-254.929 -151.283)" fill="#e8975b"/>
  </g>
  <g id="Group_2317" data-name="Group 2317" transform="translate(314.333 164.795)">
    <path id="Path_6865" data-name="Path 6865" d="M331.638,175.486l-4.1-2.369a1.069,1.069,0,0,1-.456-1.179h0a.607.607,0,0,1,.922-.384l4.1,2.369a1.069,1.069,0,0,1,.456,1.179h0A.607.607,0,0,1,331.638,175.486Z" transform="translate(-327.041 -171.458)" fill="#fff"/>
    <path id="Path_6866" data-name="Path 6866" d="M339.78,180.187l-4.1-2.369a1.07,1.07,0,0,1-.456-1.179h0a.608.608,0,0,1,.923-.384l4.1,2.369a1.07,1.07,0,0,1,.457,1.179h0A.608.608,0,0,1,339.78,180.187Z" transform="translate(-327.357 -171.64)" fill="#fff"/>
    <path id="Path_6867" data-name="Path 6867" d="M347.922,184.887l-4.1-2.368a1.07,1.07,0,0,1-.456-1.179h0a.607.607,0,0,1,.923-.384l4.1,2.368a1.071,1.071,0,0,1,.457,1.18h0A.607.607,0,0,1,347.922,184.887Z" transform="translate(-327.674 -171.823)" fill="#fff"/>
    <path id="Path_6868" data-name="Path 6868" d="M352.085,187.294l-.123-.074a1.071,1.071,0,0,1-.457-1.18h0a.607.607,0,0,1,.923-.383l.123.074a1.071,1.071,0,0,1,.457,1.18h0A.607.607,0,0,1,352.085,187.294Z" transform="translate(-327.99 -172.006)" fill="#f8359e"/>
  </g>
  <path id="Path_6869" data-name="Path 6869" d="M130.305,235.607A15.015,15.015,0,0,1,122.8,233.6h0L95.313,217.733a3.805,3.805,0,0,1,0-6.592L122.8,195.275a15.055,15.055,0,0,1,15.019,0L165.3,211.142a3.805,3.805,0,0,1,0,6.592L137.816,233.6A15.019,15.019,0,0,1,130.305,235.607Zm-6.615-3.555a13.273,13.273,0,0,0,13.231,0L164.4,216.185a2.017,2.017,0,0,0,0-3.493l-27.484-15.868a13.269,13.269,0,0,0-13.231,0L96.207,212.691a2.017,2.017,0,0,0,0,3.493Z" transform="translate(-3.63 -7.51)" fill="url(#linear-gradient)"/>
  <g id="Group_2320" data-name="Group 2320" transform="translate(99.135 107.953)">
    <ellipse id="Ellipse_174" data-name="Ellipse 174" cx="18.877" cy="10.899" rx="18.877" ry="10.899" transform="translate(8.525 88.449)" fill="#020230" opacity="0.6"/>
    <path id="Path_6870" data-name="Path 6870" d="M158.593,134.863H104.825l5,58.215h0c0,3.234,2.137,6.468,6.41,8.934,8.546,4.934,22.4,4.934,30.948,0,4.273-2.466,6.409-5.7,6.409-8.934Z" transform="translate(-103.208 -113.194)" fill="url(#radial-gradient-7)"/>
    <path id="Path_6871" data-name="Path 6871" d="M158.593,134.863H104.825l.823,9.578a20.922,20.922,0,0,0,4.984,4.483c10.274,6.815,27.227,8.129,38.795,3.221l-1.789,42.579a8.36,8.36,0,0,1-1.921,5.077c-1.742,2.05-5.1,4.462-11.547,5.825a30.336,30.336,0,0,0,13.015-3.613c4.273-2.466,6.409-5.7,6.409-8.934l4.011-46.688h0Z" transform="translate(-103.208 -113.194)" fill="#06033e" opacity="0.4"/>
    <ellipse id="Ellipse_175" data-name="Ellipse 175" cx="26.884" cy="15.522" rx="26.884" ry="15.522" transform="translate(1.617 6.148)" fill="#06033e" opacity="0.4"/>
    <ellipse id="Ellipse_176" data-name="Ellipse 176" cx="23.156" cy="13.369" rx="23.156" ry="13.369" transform="translate(5.345 2.829)" fill="#06033e" opacity="0.4"/>
    <path id="Path_6872" data-name="Path 6872" d="M160.121,133.258l0,0,0-.047c0-.026-.006-.053-.009-.08l-.516-5.212-.022.059c-.231-3.945-2.948-7.851-8.164-10.863-10.916-6.3-28.613-6.3-39.528,0-5.348,3.087-8.069,7.115-8.176,11.162l-.007-.014-.491,4.641c-.013.121-.03.242-.038.362l-.009.077.006,0c-.3,4.422,2.476,8.9,8.323,12.275,11.132,6.427,29.181,6.428,40.313,0C157.685,142.221,160.456,137.709,160.121,133.258Z" transform="translate(-103.143 -112.321)" fill="url(#linear-gradient-7)"/>
    <ellipse id="Ellipse_177" data-name="Ellipse 177" cx="23.156" cy="13.369" rx="23.156" ry="13.369" transform="translate(5.345 2.829)" fill="url(#linear-gradient-8)"/>
    <ellipse id="Ellipse_178" data-name="Ellipse 178" cx="23.156" cy="13.369" rx="23.156" ry="13.369" transform="translate(4.246 2.829)" fill="url(#linear-gradient-8)"/>
    <path id="Path_6873" data-name="Path 6873" d="M118.233,121.168c9.042-5.221,23.7-5.221,32.747,0,.115.066.211.139.324.207a18.426,18.426,0,0,0-3.071-2.2c-9.042-5.221-23.7-5.222-32.747,0-8.928,5.155-9.024,13.466-.324,18.7C109.353,132.7,110.371,125.708,118.233,121.168Z" transform="translate(-103.359 -112.432)" fill="#06033e" opacity="0.4"/>
    <path id="Path_6874" data-name="Path 6874" d="M115.486,121.5c9.043-5.221,23.7-5.22,32.747,0,4.011,2.314,6.238,5.268,6.692,8.293.569-3.8-1.659-7.707-6.692-10.613-9.042-5.221-23.7-5.222-32.747,0-5.033,2.906-7.26,6.816-6.691,10.614C109.248,126.765,111.476,123.812,115.486,121.5Z" transform="translate(-103.359 -112.432)" fill="url(#linear-gradient-10)"/>
    <path id="Path_6875" data-name="Path 6875" d="M151.6,117.238c-10.9-6.421-28.662-6.578-39.673-.349s-11.1,16.484-.2,22.9,28.661,6.578,39.673.349S162.5,123.659,151.6,117.238Zm-3.563,20.732a30.184,30.184,0,0,1-10.529,3.47l-.42-1.381a1.325,1.325,0,0,0-1.268-.938H127.5a1.324,1.324,0,0,0-1.267.938l-.42,1.381a30.153,30.153,0,0,1-10.528-3.471c-9.043-5.221-9.044-13.686,0-18.907s23.7-5.22,32.747,0S157.078,132.749,148.036,137.97Z" transform="translate(-103.161 -112.318)" fill="url(#radial-gradient-8)"/>
    <g id="Group_2318" data-name="Group 2318" transform="translate(0.455 1.839)">
      <path id="Path_6876" data-name="Path 6876" d="M148.233,118.148c-9.042-5.221-23.7-5.222-32.747,0-4.739,2.735-6.99,6.363-6.762,9.947.208-3.254,2.459-6.473,6.762-8.958,9.042-5.221,23.7-5.221,32.747,0,4.3,2.485,6.555,5.7,6.763,8.958C155.224,124.511,152.973,120.884,148.233,118.148Z" transform="translate(-103.815 -114.232)" fill="#fff"/>
      <path id="Path_6877" data-name="Path 6877" d="M151.4,139.782c-11.011,6.229-28.774,6.072-39.673-.349-5.187-3.056-7.879-6.98-8.1-10.925-.214,4.272,2.476,8.6,8.1,11.915,10.9,6.421,28.662,6.578,39.673.349,5.771-3.264,8.536-7.635,8.3-11.98C159.494,132.805,156.731,136.766,151.4,139.782Z" transform="translate(-103.617 -114.786)" fill="#fff"/>
    </g>
    <path id="Rectangle_583" data-name="Rectangle 583" d="M.654,0H5.573a.653.653,0,0,1,.653.653V.69a.654.654,0,0,1-.654.654H.654A.654.654,0,0,1,0,.69V.654A.654.654,0,0,1,.654,0Z" transform="translate(25.388 28.498)" fill="#0c0a78"/>
    <path id="Path_6878" data-name="Path 6878" d="M135.155,141.968h-4.97a.628.628,0,0,0-.628.628v.088a.6.6,0,0,0,.034.166.62.62,0,0,1,.594-.46h4.97a.621.621,0,0,1,.595.46.639.639,0,0,0,.034-.166V142.6A.629.629,0,0,0,135.155,141.968Z" transform="translate(-104.169 -113.47)" fill="url(#linear-gradient-11)"/>
    <g id="Group_2319" data-name="Group 2319" transform="translate(18.868 62.8)">
      <path id="Path_6879" data-name="Path 6879" d="M133.246,189.019a4.3,4.3,0,0,1-8.3-2.208c.609-2.293,2.772-2.942,5.064-2.333S133.856,186.725,133.246,189.019Z" transform="translate(-122.852 -177.913)" fill="#e8975b"/>
      <path id="Path_6880" data-name="Path 6880" d="M136.973,184.356a1.9,1.9,0,1,1-2.659-2.72c.865-.845,2.509-1.261,3.243-.51S137.838,183.511,136.973,184.356Z" transform="translate(-123.198 -177.776)" fill="#e8975b"/>
      <path id="Path_6881" data-name="Path 6881" d="M132.279,180.642a1.9,1.9,0,1,1-3.745-.666c.211-1.191,1.307-2.486,2.341-2.3S132.492,179.452,132.279,180.642Z" transform="translate(-122.996 -177.657)" fill="#e8975b"/>
      <path id="Path_6882" data-name="Path 6882" d="M126.52,180.117A1.9,1.9,0,1,1,123,181.564c-.46-1.119-.231-2.8.741-3.2S126.059,179,126.52,180.117Z" transform="translate(-122.773 -177.681)" fill="#e8975b"/>
    </g>
  </g>
  <path id="Path_6883" data-name="Path 6883" d="M134.317,140.3s15.032-5.037,8.946-22.31S125.326,95.448,130.1,81.631c0,0-7.482,11.186-.49,26.32s8.524,13.4,8.443,20.633a13.06,13.06,0,0,1-7.044,11.712Z" transform="translate(-4.92 -3.172)" fill="#fff" opacity="0.5"/>
  <path id="Path_6884" data-name="Path 6884" d="M136.031,83.292s-1.566-10.332,8.126-20.745c0,0-8.571,19.143-5.767,28.594C138.391,91.141,136.123,85.134,136.031,83.292Z" transform="translate(-5.282 -2.43)" fill="#fff" opacity="0.5"/>
</svg>
