<svg xmlns="http://www.w3.org/2000/svg" xmlns:xlink="http://www.w3.org/1999/xlink" width="370" height="300" viewBox="0 0 370 300">
  <defs>
    <radialGradient id="radial-gradient" cx="0.5" cy="0.5" r="0.5" gradientUnits="objectBoundingBox">
      <stop offset="0" stop-color="#0094d6"/>
      <stop offset="1" stop-color="#002c9a"/>
    </radialGradient>
    <linearGradient id="linear-gradient" x1="0.5" y1="1" x2="0.5" gradientUnits="objectBoundingBox">
      <stop offset="0" stop-color="#ebebeb"/>
      <stop offset="0.177" stop-color="#f3f3f3"/>
      <stop offset="0.497" stop-color="#fcfcfc"/>
      <stop offset="1" stop-color="#fff"/>
    </linearGradient>
    <linearGradient id="linear-gradient-2" y1="0.5" x2="1" y2="0.5" gradientUnits="objectBoundingBox">
      <stop offset="0" stop-color="#1dc0d5"/>
      <stop offset="0.081" stop-color="#20b1d9"/>
      <stop offset="0.381" stop-color="#2e80e9"/>
      <stop offset="0.645" stop-color="#375df5"/>
      <stop offset="0.86" stop-color="#3d47fc"/>
      <stop offset="1" stop-color="#4040ff"/>
    </linearGradient>
  </defs>
  <g id="Group_14528" data-name="Group 14528" transform="translate(-1175 -2446)">
    <g id="Group_8217" data-name="Group 8217" transform="translate(0 1230)">
      <path id="Rectangle_1462" data-name="Rectangle 1462" d="M10,0H360a10,10,0,0,1,10,10V300a0,0,0,0,1,0,0H0a0,0,0,0,1,0,0V10A10,10,0,0,1,10,0Z" transform="translate(1175 1216)" fill="url(#radial-gradient)"/>
    </g>
    <g id="Group_9680" data-name="Group 9680" transform="translate(377.657 2313.837)">
      <g id="Group_9679" data-name="Group 9679" transform="translate(828.472 158.266)">
        <g id="Group_9611" data-name="Group 9611" transform="translate(0 140.778)">
          <g id="Group_9607" data-name="Group 9607">
            <path id="Path_28872" data-name="Path 28872" d="M910.915,340.326A41.222,41.222,0,1,1,869.695,299.1,41.223,41.223,0,0,1,910.915,340.326Z" transform="translate(-828.472 -299.103)" fill="#2ab7f6"/>
          </g>
          <g id="Group_9608" data-name="Group 9608" transform="translate(7.703 7.701)">
            <path id="Path_28873" data-name="Path 28873" d="M869.7,373.847a33.52,33.52,0,1,1,33.518-33.518A33.556,33.556,0,0,1,869.7,373.847Zm0-63.223a29.7,29.7,0,1,0,29.7,29.7A29.739,29.739,0,0,0,869.7,310.624Z" transform="translate(-836.178 -306.807)" fill="#002a98"/>
          </g>
          <g id="Group_9609" data-name="Group 9609" transform="translate(18.705 18.704)">
            <path id="Path_28874" data-name="Path 28874" d="M869.7,362.849a22.517,22.517,0,1,1,22.517-22.516A22.543,22.543,0,0,1,869.7,362.849Zm0-41.219a18.7,18.7,0,1,0,18.7,18.7A18.724,18.724,0,0,0,869.7,321.63Z" transform="translate(-847.185 -317.815)" fill="#002a98"/>
          </g>
          <g id="Group_9610" data-name="Group 9610" transform="translate(28.883 28.885)">
            <path id="Path_28875" data-name="Path 28875" d="M869.707,352.678a12.339,12.339,0,1,1,12.339-12.34A12.355,12.355,0,0,1,869.707,352.678Zm0-20.862a8.52,8.52,0,1,0,8.518,8.522A8.527,8.527,0,0,0,869.707,331.815Z" transform="translate(-857.367 -328)" fill="#002a98"/>
          </g>
        </g>
        <g id="Group_9619" data-name="Group 9619" transform="translate(38.868 46.359)">
          <g id="Group_9612" data-name="Group 9612" transform="translate(105.138 107.651)">
            <path id="Path_28877" data-name="Path 28877" d="M1039.259,314.416s-12.607,75.048-14.584,79.5c-29.167.988-43.408,0-43.408,0s-.99-10.877,4.449-13.349,15.7-7.663,20.454-28.3,8.258-39.921,8.258-39.921Z" transform="translate(-972.541 -312.34)" fill="#111581"/>
          </g>
          <g id="Group_9615" data-name="Group 9615">
            <g id="Group_9613" data-name="Group 9613" transform="translate(177.027 50.323)">
              <path id="Path_28878" data-name="Path 28878" d="M1075.426,257.173c-2.293-1.326-16.353-1.836-30.968-2.185a7.562,7.562,0,0,1,2.125.619c4.807,0,8.7,10.849,8.7,24.236s-3.9,24.234-8.7,24.234a7.53,7.53,0,0,1-2.126.62c14.615-.349,28.676-.86,30.969-2.186,4.5,0,8.142-10.15,8.142-22.668S1079.921,257.173,1075.426,257.173Z" transform="translate(-1044.457 -254.988)" fill="#111581"/>
            </g>
            <path id="Path_28879" data-name="Path 28879" d="M1053,242.488c-3.239-2.981-30.034-3.361-48.573-4.1s-66.927-33.742-84.539-33.742H891.54l-1.38,59.326h-.673l.337,14.46-.337,14.46h.673l1.38,59.326h28.352c17.612,0,66-33,84.539-33.741s45.334-1.122,48.573-4.1c4.48,0,8.112-16.09,8.112-35.941S1057.484,242.488,1053,242.488Z" transform="translate(-867.365 -204.644)" fill="#83a7fd"/>
            <g id="Group_9614" data-name="Group 9614" transform="translate(154.779 34.379)">
              <path id="Path_28880" data-name="Path 28880" d="M1053.059,242.5c-2.285-2.1-16.3-2.911-30.859-3.466a5.7,5.7,0,0,1,2.119.982c4.789,0,8.672,17.2,8.672,38.426s-3.883,38.426-8.672,38.426a5.674,5.674,0,0,1-2.119.982c14.563-.554,28.574-1.362,30.859-3.467,4.48,0,8.112-16.09,8.112-35.941S1057.539,242.5,1053.059,242.5Z" transform="translate(-1022.2 -239.037)" fill="#6275f1"/>
            </g>
            <path id="Path_28881" data-name="Path 28881" d="M922.952,204.918q-1.036-.165-1.974-.231c-.372-.025-.737-.043-1.086-.043H891.54l-1.38,59.326h-.673l.337,14.46-.337,14.46h.673l1.38,59.326h28.352c.349,0,.714-.017,1.086-.042q.939-.064,1.974-.232c8.525-3.217,15.22-34.9,15.22-73.512S931.477,208.135,922.952,204.918Z" transform="translate(-867.365 -204.644)" fill="#6275f1"/>
            <path id="Path_28882" data-name="Path 28882" d="M908.187,278.43c0,40.751-7.456,73.786-16.653,73.786s-16.652-33.035-16.652-73.786,7.456-73.786,16.652-73.786S908.187,237.679,908.187,278.43Z" transform="translate(-867.359 -204.644)" fill="#111581"/>
            <path id="Path_28883" data-name="Path 28883" d="M908,267.333H878.478a11.123,11.123,0,0,0,0,22.247H908q.186-5.443.188-11.123C908.184,274.675,908.12,270.96,908,267.333Z" transform="translate(-867.356 -204.67)" fill="#2ab7f6"/>
            <path id="Path_28884" data-name="Path 28884" d="M903.027,209.652h20.208c4.382,0,26.141,10.011,37.449,16.314s28.365,13.9,34.483,15.017,18.724,1.483,18.724,1.483-15.387,1.668-25.768,0-47.46-22.371-59.6-27.623C923.514,212.678,903.027,209.652,903.027,209.652Z" transform="translate(-867.371 -204.646)" opacity="0.4" fill="url(#linear-gradient)"/>
          </g>
          <g id="Group_9618" data-name="Group 9618" transform="translate(168.135 57.596)">
            <path id="Path_28885" data-name="Path 28885" d="M1057.931,276.853a1.605,1.605,0,0,1-1.606,1.606h-18.415a1.606,1.606,0,0,1-1.606-1.606h0a1.607,1.607,0,0,1,1.606-1.607h18.415a1.606,1.606,0,0,1,1.606,1.607Z" transform="translate(-1035.561 -262.269)" fill="#83a7fd"/>
            <g id="Group_9616" data-name="Group 9616">
              <path id="Path_28886" data-name="Path 28886" d="M1057.607,270.362a1.605,1.605,0,0,1-1.606,1.605h-18.415a1.607,1.607,0,0,1-1.608-1.605h0a1.609,1.609,0,0,1,1.608-1.608H1056a1.607,1.607,0,0,1,1.606,1.608Z" transform="translate(-1035.561 -262.267)" fill="#83a7fd"/>
              <path id="Path_28887" data-name="Path 28887" d="M1057.19,263.87a1.607,1.607,0,0,1-1.607,1.606h-18.415a1.606,1.606,0,0,1-1.606-1.606h0a1.606,1.606,0,0,1,1.606-1.606h18.415a1.607,1.607,0,0,1,1.607,1.606Z" transform="translate(-1035.561 -262.264)" fill="#83a7fd"/>
            </g>
            <g id="Group_9617" data-name="Group 9617" transform="translate(0 19.574)">
              <path id="Path_28888" data-name="Path 28888" d="M1057.607,283.454a1.607,1.607,0,0,0-1.606-1.608h-18.415a1.609,1.609,0,0,0-1.608,1.608h0a1.608,1.608,0,0,0,1.608,1.605H1056a1.606,1.606,0,0,0,1.606-1.605Z" transform="translate(-1035.561 -281.846)" fill="#83a7fd"/>
              <path id="Path_28889" data-name="Path 28889" d="M1057.19,289.945a1.607,1.607,0,0,0-1.607-1.608h-18.415a1.607,1.607,0,0,0-1.606,1.608h0a1.605,1.605,0,0,0,1.606,1.605h18.415a1.606,1.606,0,0,0,1.607-1.605Z" transform="translate(-1035.561 -281.849)" fill="#83a7fd"/>
            </g>
          </g>
        </g>
        <g id="Group_9623" data-name="Group 9623" transform="translate(164.355 8.306)">
          <g id="Group_9620" data-name="Group 9620" transform="translate(22.754)">
            <path id="Path_28890" data-name="Path 28890" d="M1033.09,170.776a3.6,3.6,0,1,1-3.29-4.192A3.775,3.775,0,0,1,1033.09,170.776Z" transform="translate(-1015.664 -166.576)" fill="#191f54"/>
            <path id="Path_28891" data-name="Path 28891" d="M1032.727,173.271c-1.275,1.765-2.719,1.241-4.692,1.1s-3.025,1.059-2.871-1.114-.161-4.811,1.815-4.8C1029.859,168.483,1034.344,171.038,1032.727,173.271Z" transform="translate(-1015.664 -166.576)" fill="#5aa5ff"/>
            <path id="Path_28892" data-name="Path 28892" d="M1026.232,193.723l.253-3.543-4.86.09-.357,3.1Z" transform="translate(-1015.662 -166.586)" fill="#f4b67d"/>
            <path id="Path_28893" data-name="Path 28893" d="M1031.68,183.74s-.786,8.388-7.823,7.824c-4.566-.387-5.867-5.695-5.867-5.695a2.478,2.478,0,0,1-1.8-2.551c-.03-2.174.883-2.792,1.384-2.012a18.872,18.872,0,0,1,1.265-5.21s9.607-.1,10.914-.132S1031.68,183.74,1031.68,183.74Z" transform="translate(-1015.66 -166.58)" fill="#ffc384"/>
            <path id="Path_28894" data-name="Path 28894" d="M1031.078,184.276s.316-1.26,1.182-1.272,1.023,1.161.42,2.5-1.808,1.594-1.947,1.316A12.57,12.57,0,0,1,1031.078,184.276Z" transform="translate(-1015.666 -166.583)" fill="#ffc384"/>
            <path id="Path_28895" data-name="Path 28895" d="M1022.236,176.24s4.086.8,5.409.27,2.512,1.074,2.759,1.617-.743,2.385.151,2.914.49,2.787.322,3.941c.348-1.805,1.534-2.747,2.049-1.237,1.746-6.522,1.38-11.328-4.045-13.44s-10.593-.238-12.019,3.168c-1.155,2.76-1.674,7.953-.661,9.271a8.321,8.321,0,0,1,.292-1.187c.276-.632,1-.037,1.111.713s.233,1.785.233,1.785a27.982,27.982,0,0,1,.385-3.034c.186-.609,1.533-2.022,1.349-2.8S1020.987,175.42,1022.236,176.24Z" transform="translate(-1015.66 -166.577)" fill="#191f54"/>
          </g>
          <g id="Group_9622" data-name="Group 9622" transform="translate(0 25.008)">
            <path id="Path_28896" data-name="Path 28896" d="M1008.643,204.578s-2.329,6.841-3.069,9.855,5.356,12.123,5.356,12.123l1.45-4.366-1.984-6.58,3.507-9.869Z" transform="translate(-992.901 -191.599)" fill="#f4b67d"/>
            <path id="Path_28897" data-name="Path 28897" d="M1039.756,206.8s1.334,7.1,1.638,10.191-7.021,11.239-7.021,11.239l-.815-4.526,2.9-6.233-2.071-10.266Z" transform="translate(-992.913 -191.6)" fill="#f4b67d"/>
            <g id="Group_9621" data-name="Group 9621" transform="translate(31.957 48.24)">
              <path id="Path_28898" data-name="Path 28898" d="M1028.637,240.693s1.6-1.458,5.109-.528c4.589,1.218,10.648.15,9.83,4.915-.718,2.4-4.566,2.216-6.9,2.03-4.312-.344-8.4-1.919-8.934-3.085S1028.637,240.693,1028.637,240.693Z" transform="translate(-1024.868 -239.854)" fill="#e8e8e8"/>
              <path id="Path_28899" data-name="Path 28899" d="M1033.746,240.165c-3.508-.931-5.109.528-5.109.528s-.044.07-.1.167a6.151,6.151,0,0,1,4.789-.306c4.592,1.217,10.651.149,9.829,4.913a2.294,2.294,0,0,1-.462.845,2.346,2.346,0,0,0,.886-1.231C1044.394,240.315,1038.335,241.383,1033.746,240.165Z" transform="translate(-1024.869 -239.854)" fill="#b2b2b2"/>
              <path id="Path_28900" data-name="Path 28900" d="M1030.043,240.843s-1.322-.279-2.968-.785l-.138,1.932-1.045-.074-.06.829-.914-.065-.052.726a15.425,15.425,0,0,1,4.686,1.332c1.561.881,6.586.825,7.023-1.08S1033.5,239.911,1030.043,240.843Z" transform="translate(-1024.867 -239.855)" fill="#eaa36a"/>
            </g>
            <path id="Path_28901" data-name="Path 28901" d="M1020.1,243.227s-1.46-.95-5.009-.193c-4.646.992-10.713-.954-10.129,3.842.6,2.434,4.373,2.948,6.712,2.876,4.323-.132,8.563-2.015,9.155-3.152S1020.1,243.227,1020.1,243.227Z" transform="translate(-992.901 -191.615)" fill="#e8e8e8"/>
            <path id="Path_28902" data-name="Path 28902" d="M1005.624,247.418c-.587-4.8,5.483-2.85,10.128-3.84a8.6,8.6,0,0,1,4.528-.01c-.1-.207-.182-.341-.182-.341s-1.46-.95-5.009-.193c-4.646.992-10.713-.954-10.129,3.842a2.915,2.915,0,0,0,1.339,1.749A2.611,2.611,0,0,1,1005.624,247.418Z" transform="translate(-992.901 -191.615)" fill="#b2b2b2"/>
            <path id="Path_28903" data-name="Path 28903" d="M999.161,229.406s6.177-.614,8.891-.594,26.765.595,26.765.595,11.268-2.719,15-2.527c-10.4,9.25-20.219,15.734-26.218,13.729S999.161,229.406,999.161,229.406Z" transform="translate(-992.899 -191.609)" fill="#6f33c6"/>
            <path id="Path_28904" data-name="Path 28904" d="M1027.187,193.935s7.047,2.984,9.514,5.253,4.423,10.912,4.514,12.372c-2.958.022-7.066.348-7.066.348a26.346,26.346,0,0,1-.9,6.212c-.869,2.961-19.348.422-19.348.422l-.078-8.142-7.557-1.661s2.86-8.469,5.019-10.666c1.4-1.421,9.049-4.354,9.049-4.354l.361-2.125,6.406.458Z" transform="translate(-992.902 -191.594)" fill="#b6b9fe"/>
            <rect id="Rectangle_1867" data-name="Rectangle 1867" width="19.837" height="31.284" transform="translate(13.852 39.477) rotate(-85.922)" fill="#f4f4f4"/>
            <path id="Path_28905" data-name="Path 28905" d="M1031.092,241.058s-8.99-1.693-11.693-4.338-14.181-8.722-20.372-7.936-7.358,4.9-.709,9.937c4.856,3.15,16.961,2.961,19.836,3.167a60.268,60.268,0,0,1,8.859,1.991Z" transform="translate(-992.896 -191.61)" fill="#f4b67d"/>
            <path id="Path_28906" data-name="Path 28906" d="M1007,230.089c-2.9-.99-7.642-2.208-9.841-1.928-6.189.785-5.486,5.528,1.164,10.56a10.627,10.627,0,0,0,1.883.927C1000.753,235.41,1002.2,231.474,1007,230.089Z" transform="translate(-992.896 -191.609)" fill="#6f33c6"/>
            <path id="Path_28907" data-name="Path 28907" d="M1018.208,243.73s6.036-2.375,7.882-4.871,8.331-8.693,15.258-10.038,10.833-3.258,12.714-1.372-1.48,8.471-7.735,11.4-15.736,4.445-19.317,5.5-6.275,2.006-7.67,3.135-6.356,1.909-7.1.1S1014.64,243.388,1018.208,243.73Z" transform="translate(-992.904 -191.609)" fill="#f4b67d"/>
            <path id="Path_28908" data-name="Path 28908" d="M1054.072,227.449c-1.881-1.885-5.784.027-12.714,1.372a16.81,16.81,0,0,0-1.838.482,11.4,11.4,0,0,1,6.8,9.558l.018-.008C1052.592,235.92,1055.951,229.336,1054.072,227.449Z" transform="translate(-992.916 -191.609)" fill="#6f33c6"/>
          </g>
        </g>
        <g id="Group_9654" data-name="Group 9654" transform="translate(198.544 136.726)">
          <g id="Group_9630" data-name="Group 9630" transform="translate(0 19.653)">
            <g id="Group_9624" data-name="Group 9624" transform="translate(49.204 56.132)">
              <path id="Path_28909" data-name="Path 28909" d="M1087.548,404.18c-6.954-12.7-7.9-33.138-7.906-33.315l-3.319.167c.037.726.908,20.025,7.473,33.148Z" transform="translate(-1076.324 -370.865)" fill="#74a2c4"/>
            </g>
            <g id="Group_9625" data-name="Group 9625" transform="translate(60.26 58.376)">
              <path id="Path_28910" data-name="Path 28910" d="M1101.014,399.73c-7.083-9.685-10.171-26.435-10.2-26.62h-3.426c.132.738,2.967,16.094,9.246,26.62Z" transform="translate(-1087.384 -373.11)" fill="#397999"/>
            </g>
            <g id="Group_9626" data-name="Group 9626" transform="translate(27.516 57.139)">
              <path id="Path_28911" data-name="Path 28911" d="M1058.727,399.729c5.227-10.573,5.877-26.93,5.906-27.63l-3.319-.226c-.006.172-.734,18.416-6.687,27.856Z" transform="translate(-1054.627 -371.873)" fill="#397999"/>
            </g>
            <g id="Group_9627" data-name="Group 9627" transform="translate(1.646)">
              <path id="Path_28912" data-name="Path 28912" d="M1058.964,315.832s-2.213,37.188,11.629,52.506c-10.153,1.922-27.96,2.587-27.96,2.587s-17.526-29.016-13.2-53.409C1037.736,312.411,1058.964,315.832,1058.964,315.832Z" transform="translate(-1028.746 -314.71)" fill="url(#linear-gradient-2)"/>
            </g>
            <path id="Path_28913" data-name="Path 28913" d="M1030.962,319.369c6.93-4.26,22.851-2.583,27.935-1.911.033-1.046.067-1.626.067-1.626s-21.228-3.421-29.532,1.684c-4.325,24.393,13.2,53.409,13.2,53.409l.466-.019C1039.369,364.117,1027.294,340.079,1030.962,319.369Z" transform="translate(-1027.1 -314.71)" fill="#0869b2"/>
            <g id="Group_9628" data-name="Group 9628" transform="translate(0 2.806)">
              <path id="Path_28914" data-name="Path 28914" d="M1040.343,370.31c.16.277.306.548.469.826-5.247,15.268-11.793,29.828-13.713,33.044h3.843c2.753-4.816,8.571-18.826,13.263-32.7l.168-.5Z" transform="translate(-1027.099 -317.539)" fill="#74a2c4"/>
              <path id="Path_28915" data-name="Path 28915" d="M1044.451,370.732l-.394-.659c-18.124-30.385-11.565-51.23-11.479-51.5l0,0-1.424-.477-1.723-.581c-.3.885-6.994,21.746,10.911,52.771l4.03.673Z" transform="translate(-1027.099 -317.517)" fill="#0869b2"/>
            </g>
            <g id="Group_9629" data-name="Group 9629" transform="translate(11.357 53.628)">
              <rect id="Rectangle_1868" data-name="Rectangle 1868" width="53.222" height="4.984" fill="#88949e"/>
            </g>
          </g>
          <g id="Group_9653" data-name="Group 9653" transform="translate(11.696)">
            <g id="Group_9631" data-name="Group 9631" transform="translate(26.058 45.272)">
              <path id="Path_28916" data-name="Path 28916" d="M1065.21,340.34s4.567,5.261,14.049,6.922c2.7,2.838-2.561,4.015-2.561,4.015S1062.511,349.408,1065.21,340.34Z" transform="translate(-1064.868 -340.34)" fill="#eac50f"/>
            </g>
            <g id="Group_9633" data-name="Group 9633" transform="translate(72.309 96.536)">
              <g id="Group_9632" data-name="Group 9632">
                <path id="Path_28917" data-name="Path 28917" d="M1111.139,393.654a31.311,31.311,0,0,1,.83,4.984c0,1.567-2.031,4.336,3.414,4.243s16.057,0,18.734,0,1.66-5.722-3.415-5.258-13.843-2.677-16.057-6A4.86,4.86,0,0,0,1111.139,393.654Z" transform="translate(-1111.139 -391.625)" fill="#4c4c4c"/>
              </g>
            </g>
            <g id="Group_9634" data-name="Group 9634" transform="translate(72.776 106.085)">
              <path id="Path_28918" data-name="Path 28918" d="M1111.606,401.178c.081.977.843,1.757,3.776,1.707,5.446-.092,16.057,0,18.734,0,.976,0,1.454-.762,1.431-1.707Z" transform="translate(-1111.606 -401.178)" fill="#f4f4f4"/>
            </g>
            <g id="Group_9635" data-name="Group 9635" transform="translate(57.45 57.407)">
              <path id="Path_28919" data-name="Path 28919" d="M1096.274,352.481s8.491-.093,11.72,1.385,2.214,5.353-2.86,4.89-8.86-.739-8.86-.739Z" transform="translate(-1096.274 -352.48)" fill="#eaeaea"/>
            </g>
            <g id="Group_9636" data-name="Group 9636" transform="translate(57.219 57.638)">
              <path id="Path_28920" data-name="Path 28920" d="M1096.043,352.712s8.49-.092,11.719,1.385,2.214,5.354-2.861,4.891-8.858-.74-8.858-.74Z" transform="translate(-1096.043 -352.711)" fill="#4c3c3c"/>
            </g>
            <g id="Group_9638" data-name="Group 9638" transform="translate(7.528 6.324)">
              <g id="Group_9637" data-name="Group 9637">
                <path id="Path_28921" data-name="Path 28921" d="M1066.416,305.068s-.171,12.092-6.068,14.795c-1.062.342-3.133-.823-3.133-.823s-.828.153-.134,1.814a13.9,13.9,0,0,0,1.984,2.17s-8.661,1.867-12.734-2.492c2.906-1.477,5.1-8.445,5.1-8.445s-2.043-1.133-2.285-2.629.532-2.815,1.607-2.4a3.458,3.458,0,0,1,1.991,2.768s1.176-5.252,2.787-7.139S1064.293,300.457,1066.416,305.068Z" transform="translate(-1046.331 -301.375)" fill="#ffc384"/>
              </g>
            </g>
            <g id="Group_9639" data-name="Group 9639" transform="translate(1.565 24.858)">
              <path id="Path_28922" data-name="Path 28922" d="M1046.962,319.917s6.471,3.806,12.146,2.7a23.7,23.7,0,0,1,6.646,16.61c0,4.43,8.3,12.044,8.3,12.044s-9.828,0-13.7,2.352a17.306,17.306,0,0,0-8.443,11.9c-4.291-1.938-6.09-10.935-6.367-16.472s-2.353-11.489-4.013-16.611S1038.8,323,1046.962,319.917Z" transform="translate(-1040.366 -319.917)" fill="#bedaff"/>
            </g>
            <g id="Group_9640" data-name="Group 9640" transform="translate(45.885 56.297)">
              <path id="Path_28923" data-name="Path 28923" d="M1084.7,351.532s8.152-.435,11.75.118a6.017,6.017,0,0,1,.729.654c2.19,2.313,1.093,5.158.84,6.083-2.214,2.307-4.035,2.348-7.231,3.3S1084.7,351.532,1084.7,351.532Z" transform="translate(-1084.704 -351.369)" fill="#3a55ca"/>
            </g>
            <g id="Group_9641" data-name="Group 9641" transform="translate(31.798 65.119)">
              <path id="Path_28924" data-name="Path 28924" d="M1070.611,369s16.748,1.384,22.839.971c.445,5.929.416,7.349,4.152,10.532s12.233,14.8,12.233,14.8,5.485-2.63,6.177-3.461c-4.891-7.876-13.566-24.638-16.2-27.682s-3.151-4.142-11.68-3.941S1070.611,369,1070.611,369Z" transform="translate(-1070.611 -360.195)" fill="#293677"/>
            </g>
            <g id="Group_9642" data-name="Group 9642" transform="translate(12.594 55.683)">
              <path id="Path_28925" data-name="Path 28925" d="M1051.409,360.787s-.739,7.936,10.887,9.873,26.809-6.737,29.392-9.873,6.616-9.255-6.534-9.255-22.717-2.05-27.01.511S1051.409,360.787,1051.409,360.787Z" transform="translate(-1051.4 -350.755)" fill="#3a55ca"/>
            </g>
            <g id="Group_9643" data-name="Group 9643" transform="translate(28.336 47.978)">
              <path id="Path_28926" data-name="Path 28926" d="M1067.356,344.911a10.376,10.376,0,0,0,4.221-.97c1.385-.9,2.631-1.453,3.807,0s1.869,5.584,1.869,5.584h-4.2l-1.182-.892-4.726-.089Z" transform="translate(-1067.148 -343.047)" fill="#ffc384"/>
            </g>
            <g id="Group_9649" data-name="Group 9649" transform="translate(20.169 28.37)">
              <g id="Group_9644" data-name="Group 9644" transform="translate(16.977)">
                <path id="Path_28927" data-name="Path 28927" d="M1075.962,349.375l7.523-25.944,22.467.151.742.324-10.431,25.469Z" transform="translate(-1075.962 -323.431)" fill="#e5e5e5"/>
              </g>
              <g id="Group_9645" data-name="Group 9645" transform="translate(17.718 0.475)">
                <path id="Path_28928" data-name="Path 28928" d="M1076.7,349.376l7.475-25.469h22.516l-9.689,25.469Z" transform="translate(-1076.703 -323.907)" fill="#d8d8d8"/>
              </g>
              <g id="Group_9648" data-name="Group 9648" transform="translate(0 25.944)">
                <g id="Group_9646" data-name="Group 9646">
                  <rect id="Rectangle_1869" data-name="Rectangle 1869" width="37.997" height="2.145" fill="#afafaf"/>
                </g>
                <g id="Group_9647" data-name="Group 9647">
                  <rect id="Rectangle_1870" data-name="Rectangle 1870" width="17.718" height="2.145" fill="#939393"/>
                </g>
              </g>
            </g>
            <g id="Group_9650" data-name="Group 9650" transform="translate(0 26.229)">
              <path id="Path_28929" data-name="Path 28929" d="M1039.038,327.876c.381-2.284,1.96-5.858,5.306-6.527s5.4,4.358,4.476,9.156,1.108,9.691,2.029,11.536,10.446,1.14,17.22,2.507c.037,2.752,0,4.414,0,4.414s-13.343,2.585-20.173.924-8.147-6.341-8.858-13.013A41.6,41.6,0,0,1,1039.038,327.876Z" transform="translate(-1038.8 -321.289)" fill="#0382ff"/>
            </g>
            <g id="Group_9651" data-name="Group 9651" transform="translate(12.402 8.058)">
              <path id="Path_28930" data-name="Path 28930" d="M1057.216,304.925s.2,1.488-1.01,1.9-2.907,2.942-3.045,4.118a8.444,8.444,0,0,1-.866-.278s.241-1.951-.148-2.439a3.687,3.687,0,0,0-.936-.935,38.051,38.051,0,0,1,.312-4.186S1056.911,303.3,1057.216,304.925Z" transform="translate(-1051.207 -303.11)" fill="#aa471b"/>
            </g>
            <g id="Group_9652" data-name="Group 9652" transform="translate(10.819)">
              <path id="Path_28931" data-name="Path 28931" d="M1069.985,306.317a2.229,2.229,0,0,0-.622-4.081c.062-.655.5-1.524.167-2.366-.477-1.221-1.414-1.422-2.475-1.611-1.094-.193-.155-1.364-1.867-2.056-.968-.391-1.15.265-1.852.378-.46.071-.988-.446-1.387-.643a2.8,2.8,0,0,0-1.24-.445,2.352,2.352,0,0,0-1.389.371c-.407.28-.386.768-.959.539-.335-.133-.57-.7-.9-.9a2.267,2.267,0,0,0-1.391-.441c-1.625.241-1.333,1.4-2,1.3-1.4-.216-2.43-.275-2.781,1.457-.154.76-1.968.421-1.626,2.244.156.831,1.172.79,1.056,1.194-.044.15-1.431.862-.79,2.176a2.054,2.054,0,0,0,2.942.664c-.134.967.738,1.341,1.412,1.375a2.541,2.541,0,0,0,2.2-.822c.826,1.692,2,2.014,3.516,1.13a2.479,2.479,0,0,0,1.118,1.683,4.094,4.094,0,0,0,3.876.231,2.019,2.019,0,0,0,2.077,1.762c.707.017,1.469-.209,1.323-1.139.519.235,1.943.351,2.281-.391A1.183,1.183,0,0,0,1069.985,306.317Z" transform="translate(-1049.623 -295.049)" fill="#934016"/>
            </g>
          </g>
        </g>
        <g id="Group_9663" data-name="Group 9663" transform="translate(85.473 109.386)">
          <g id="Group_9658" data-name="Group 9658">
            <g id="Group_9655" data-name="Group 9655" transform="translate(38.231 95.874)">
              <rect id="Rectangle_1871" data-name="Rectangle 1871" width="4.43" height="31.785" fill="#eaf2ff"/>
            </g>
            <g id="Group_9656" data-name="Group 9656" transform="translate(53.41 98.562)">
              <path id="Path_28932" data-name="Path 28932" d="M982.667,398.088h-4.431L967.413,366.3h4.431Z" transform="translate(-967.413 -366.301)" fill="#eaf2ff"/>
            </g>
            <g id="Group_9657" data-name="Group 9657" transform="translate(11.158 98.562)">
              <path id="Path_28933" data-name="Path 28933" d="M925.144,398.088h4.43L940.4,366.3h-4.431Z" transform="translate(-925.144 -366.301)" fill="#eaf2ff"/>
            </g>
            <rect id="Rectangle_1872" data-name="Rectangle 1872" width="80.855" height="99.5" fill="#eaf2ff"/>
          </g>
          <g id="Group_9662" data-name="Group 9662" transform="translate(15.281 17.236)">
            <g id="Group_9659" data-name="Group 9659" transform="translate(0.079 15.067)">
              <rect id="Rectangle_1873" data-name="Rectangle 1873" width="6.848" height="22.691" transform="translate(0 24.286)" fill="#eaf2ff"/>
              <rect id="Rectangle_1874" data-name="Rectangle 1874" width="6.848" height="28.351" transform="translate(10.823 18.625)" fill="#eaf2ff"/>
              <rect id="Rectangle_1875" data-name="Rectangle 1875" width="6.847" height="34.018" transform="translate(21.644 12.958)" fill="#eaf2ff"/>
              <rect id="Rectangle_1876" data-name="Rectangle 1876" width="6.848" height="39.527" transform="translate(32.466 7.449)" fill="#eaf2ff"/>
              <rect id="Rectangle_1877" data-name="Rectangle 1877" width="6.848" height="46.976" transform="translate(43.287)" fill="#eaf2ff"/>
            </g>
            <g id="Group_9661" data-name="Group 9661">
              <g id="Group_9660" data-name="Group 9660" transform="translate(0 3.181)">
                <path id="Path_28934" data-name="Path 28934" d="M975.452,288.123c-18.073,21.571-38.688,28.354-46.184,30.2v2.424c7.36-1.736,29.078-8.531,47.993-31.107Z" transform="translate(-929.268 -288.123)" fill="#eaf2ff"/>
              </g>
              <path id="Path_28935" data-name="Path 28935" d="M971,286.732l8.5-1.791-1.1,8.718Z" transform="translate(-929.286 -284.941)" fill="#eaf2ff"/>
            </g>
          </g>
        </g>
        <g id="Group_9669" data-name="Group 9669" transform="translate(155.223 104.158)">
          <path id="Path_28937" data-name="Path 28937" d="M993.646,281.031a28.275,28.275,0,0,1-2.265,8.295c-1.646,3.476,6.247-1.675,6.435-3.6S997.607,277.1,993.646,281.031Z" transform="translate(-983.763 -262.475)" fill="#191f54"/>
          <g id="Group_9665" data-name="Group 9665" transform="translate(2.046 128.075)">
            <path id="Path_28938" data-name="Path 28938" d="M994.586,390.6s.984,5.765,1.195,7.592-3.3,3.653-4.287,4.287c.844,1.756,8.883-1.131,8.883-1.131l-1.5-10.749Z" transform="translate(-985.81 -390.596)" fill="#ffc384"/>
            <g id="Group_9664" data-name="Group 9664" transform="translate(0 9.431)">
              <path id="Path_28939" data-name="Path 28939" d="M1000.189,400.031a52.886,52.886,0,0,1-5.068,2.142,1.716,1.716,0,0,1-1.979-.72s-5.629,1.527-6.8,1.591c-1.077.253-.327,1.942.516,2.129s14.217-.611,14.217-.611S1001.647,400.792,1000.189,400.031Z" transform="translate(-985.807 -400.031)" fill="#88949e"/>
              <path id="Path_28940" data-name="Path 28940" d="M986.857,404.237c.813.05,13-.585,14.309-.66-.03.576-.092.988-.092.988s-13.373.8-14.217.611a1.636,1.636,0,0,1-1.046-1.381A1.453,1.453,0,0,0,986.857,404.237Z" transform="translate(-985.807 -400.033)" fill="#4c4c4c"/>
            </g>
          </g>
          <g id="Group_9667" data-name="Group 9667" transform="translate(19.197 126.289)">
            <path id="Path_28941" data-name="Path 28941" d="M1009.756,389.435s1.814,5.559,2.29,7.336-2.734,4.1-3.614,4.866c1.089,1.615,8.623-2.414,8.623-2.414L1014,388.809Z" transform="translate(-1002.967 -388.809)" fill="#ffc384"/>
            <g id="Group_9666" data-name="Group 9666" transform="translate(0 9.136)">
              <path id="Path_28942" data-name="Path 28942" d="M1016.677,397.949a53.014,53.014,0,0,1-4.7,2.861,1.716,1.716,0,0,1-2.064-.424s-4.231,2.634-6.508,2.517c-1.029.408-.04,1.969.821,2.03a23.491,23.491,0,0,0,5.664-.3,80.945,80.945,0,0,0,8.325-2.328S1018.231,398.489,1016.677,397.949Z" transform="translate(-1002.965 -397.949)" fill="#88949e"/>
              <path id="Path_28943" data-name="Path 28943" d="M1003.114,403.1a1.564,1.564,0,0,0,1.111.872,23.434,23.434,0,0,0,5.664-.3,80.8,80.8,0,0,0,8.278-2.311c.049.551.047.944.047.944a80.945,80.945,0,0,1-8.325,2.328,23.491,23.491,0,0,1-5.664.3C1003.468,404.881,1002.617,403.673,1003.114,403.1Z" transform="translate(-1002.965 -397.95)" fill="#4c4c4c"/>
            </g>
          </g>
          <path id="Path_28944" data-name="Path 28944" d="M1007.4,325.059s2.61,6.331,1.492,11.768-4.677,21.127-4.4,23.658,5.8,9.978,6.736,15.881,4.231,17.429,4.231,17.429l-3.96,1.122s-7.952-17.431-8.984-21.084-4.677-11.332-5.427-14.893-1.873-14.242-1.873-14.242-2.339,15.115-2.479,15.817c.14,2.671,2.447,5.477,3.292,8.992s3.26,24.045,3.26,24.045l-3.911,1.838s-7.77-26.307-9.174-31.507-.509-9.767-.742-13.843-.226-26.1-.226-26.1S1001.868,321.117,1007.4,325.059Z" transform="translate(-983.76 -262.493)" fill="#ffc384"/>
          <path id="Path_28945" data-name="Path 28945" d="M984.2,358.075h21.729c.328-5.006,2.015-16.649,2.962-21.248,1.117-5.437-1.492-11.768-1.492-11.768-5.53-3.942-22.163-1.118-22.163-1.118s-1.685,22.349-1.452,26.426C983.925,352.85,983.915,355.336,984.2,358.075Z" transform="translate(-983.76 -262.493)" fill="#6f33c6"/>
          <path id="Path_28946" data-name="Path 28946" d="M997.042,285.41s-6.475,4.258-9.111,11.161c.282.17,1.545.741,1.545.741s-1.993,3.56-1.993,5.317.844,2.39,1.265,3.865-3.469,13.167-4.967,18.227c4.967,4.217,18.742,3.28,24.365.563-4.592-4.029-5.06-12.229-4.967-15.089.122-3.713,6-9.745,6-9.745.7-.07,2.872,2.3,2.872,2.3l5.412-3.707c-3.736-5.247-5.987-9.839-8.189-10.543C1003.621,286.7,997.042,285.41,997.042,285.41Z" transform="translate(-983.76 -262.477)" fill="#b6b9fe"/>
          <g id="Group_9668" data-name="Group 9668" transform="translate(6.906)">
            <path id="Path_28947" data-name="Path 28947" d="M993.156,268.393a30.119,30.119,0,0,0-1.219,5.84c-.106.933-1.267,2.6-1.267,3.532,0,.209.984.269.987.362a7.665,7.665,0,0,0,1.394,4.75c.621.586,3.565.333,3.565.333l-.554,4.086a4.2,4.2,0,0,0,6,.4c-.094-3.374-.376-8.247-.376-8.247s1.968.093,2.436-1.125.141-4.077-1.17-3.935-1.873,1.825-1.873,1.825.327-4.825-.33-6.886S995.5,265.02,993.156,268.393Z" transform="translate(-990.669 -262.469)" fill="#ffc384"/>
            <path id="Path_28948" data-name="Path 28948" d="M997.188,271.965c-2.338,1.311-6.032.569-6.032.569s0-8.413,7.779-10c4.357-.417,5.388,1.387,5.811,2.3,3.861-1.081,5.783,6.065,4.728,8.806s-1.555,3.95,1.3,10.381c1.667,10.7-14.935,6.03-14.315,5.273C1000.072,284.879,997.118,272.071,997.188,271.965Z" transform="translate(-990.669 -262.467)" fill="#191f54"/>
          </g>
          <path id="Path_28949" data-name="Path 28949" d="M1017.03,299.333s2.945,5.571,3.914,6.992-2.223,5.32-5.252,8.536-7.1,6.91-7.353,7.443-.661,2.37-1.662,1.785-2.214-1.17-2.907-.474-1.678,1.5-2.4,1.427-.759-.426-.572-.443,2.767-2.374,3.286-2.365a2.175,2.175,0,0,0-1.035-.719c-.319-.048-3.289,2.117-4.245,1.148a1.571,1.571,0,0,1,.486-.612s-.914.255-1.173-.206a15.944,15.944,0,0,1,3.184-2.591,2.428,2.428,0,0,1,1.755.007,1.216,1.216,0,0,0-.894-.9c-.352-.027-2.669,1.422-3.411,1.347s-1.028-.491-.881-.591,2.729-1.279,3.4-1.62a1.675,1.675,0,0,1,2.411.433c.808,1.109,2.495,1.631,3.1,1.333s9.174-11.885,9.174-11.885l-3.292-5.027Z" transform="translate(-983.766 -262.483)" fill="#ffc384"/>
        </g>
        <g id="Group_9677" data-name="Group 9677" transform="translate(53.475 108.982)">
          <path id="Path_28951" data-name="Path 28951" d="M920.717,293.491s-3.025-3.887-12.546-.465c-1.733-2.694-1.434-12.77-1.434-12.77l15.82-1.361Z" transform="translate(-881.98 -267.298)" fill="#191f54"/>
          <g id="Group_9676" data-name="Group 9676">
            <g id="Group_9670" data-name="Group 9670" transform="translate(0 68.556)">
              <path id="Path_28952" data-name="Path 28952" d="M894.442,394.239s-2.345,4.033-3.47,4.55c1.077,1.5,6.284,1.173,6.284,1.173l.233-4.408Z" transform="translate(-881.973 -335.902)" fill="#ffc384"/>
              <path id="Path_28953" data-name="Path 28953" d="M922.909,394.239V397.9h-3.73v-3.988Z" transform="translate(-881.985 -335.902)" fill="#ffc384"/>
              <path id="Path_28954" data-name="Path 28954" d="M905.248,337.747s-3.535,26.451-5.083,31.376c-1.246,3.963-4.314,18.328-5.606,23.89a11.772,11.772,0,0,1-.861,2.416l3.759.714s2.144-9.571,4.958-13.231,4.361-10.13,4.5-13.366c.986-3.8,7.337-22.9,7.337-23.32a3.066,3.066,0,0,1,.432-1.008l-.41-9.339A83.293,83.293,0,0,0,905.248,337.747Z" transform="translate(-881.974 -335.878)" fill="#ffc384"/>
              <path id="Path_28955" data-name="Path 28955" d="M924.316,368.353c-.088-1.3,1.755-13.892,2.4-22.817l-10.049.6c.316,5.072,1.227,19.611,1.458,22.215.282,3.166,0,5.7,0,9.569s1.055,16.782,1.055,16.782l3.729.422s2.163-15.555,1.952-19S924.456,370.464,924.316,368.353Z" transform="translate(-881.984 -335.882)" fill="#ffc384"/>
              <path id="Path_28956" data-name="Path 28956" d="M892.173,397.632s2.83,1.945,5.175.536c.327,2.762.327,7.1.327,7.1H882.431s-1.64-3.658,1.265-4.08,3.753.234,4.691-.8A24.692,24.692,0,0,1,892.173,397.632Z" transform="translate(-881.97 -335.904)" fill="#e2e2e2"/>
              <path id="Path_28957" data-name="Path 28957" d="M888.352,400.424c.012-.013.025-.023.038-.039a24.692,24.692,0,0,1,3.785-2.753,5.925,5.925,0,0,0,.649.369l-3.112,3.368Z" transform="translate(-881.972 -335.904)" fill="#a3a3a3"/>
              <path id="Path_28958" data-name="Path 28958" d="M897.64,402.92c.01,1.357.034,2.345.034,2.345H882.431a5.507,5.507,0,0,1-.448-2.345Z" transform="translate(-881.97 -335.906)" fill="#4c4c4c"/>
              <path id="Path_28959" data-name="Path 28959" d="M926.478,405.52h-8.67v-3.166a37.235,37.235,0,0,1,1.371-5.237c.775-.039,3.729,0,3.729,0a28.172,28.172,0,0,0,2.426,3.547C926.075,401.369,926.673,403.059,926.478,405.52Z" transform="translate(-881.985 -335.904)" fill="#e2e2e2"/>
              <path id="Path_28960" data-name="Path 28960" d="M919.385,400.805l.425-3.7c.738-.007,1.812,0,2.484.009l.96,3.674Z" transform="translate(-881.985 -335.904)" fill="#a3a3a3"/>
              <path id="Path_28961" data-name="Path 28961" d="M926.338,402.78a9.65,9.65,0,0,1,.14,2.743h-8.67V402.78Z" transform="translate(-881.985 -335.906)" fill="#4c4c4c"/>
            </g>
            <g id="Group_9675" data-name="Group 9675" transform="translate(15.286)">
              <g id="Group_9674" data-name="Group 9674">
                <path id="Path_28962" data-name="Path 28962" d="M916.622,285.954s-.312,3.658-.231,4.4,2.6,1.19,2.6,1.19-1.9,7.235-6.444,7.345c-4.1-1.665-4.667-6.611-4.349-7.557a6.765,6.765,0,0,0,2.841-.835c.353-.341.059-3.9.059-3.9Z" transform="translate(-897.267 -267.301)" fill="#f2b175"/>
                <g id="Group_9671" data-name="Group 9671" transform="translate(0 23.898)">
                  <path id="Path_28963" data-name="Path 28963" d="M908.872,291.262s-4.651,1.168-6.094,1.764-4.636,9.586-5.516,10.765l3.536,2.186,1.937-2.186s-.422,5.9,1.461,7.647c.652,1.062.941,6.7.721,8.513s18.411,1.639,18.411,1.639-1.8-7.2-.5-10.326a13.474,13.474,0,0,0,.8-7.917l4.131,4.462s3.864-4.116,4.525-5.163c-3.37-4.258-6.892-7.964-7.926-9.031s-3.218-1.773-4.932-2.183c-.216,1.524-3.523,5.149-6.08,6.826C908.935,296.231,908.872,291.262,908.872,291.262Z" transform="translate(-897.262 -291.202)" fill="#b6b9fe"/>
                  <path id="Path_28964" data-name="Path 28964" d="M909.066,291.2s-1.769,8.616-1.6,11.485c4.265-.182,10.782-.394,10.782-.394s.237-9.19,1.41-10.854a3.88,3.88,0,0,1,1.717.45s-1.8,5.7-1.159,10.545c.751.12,1.3,1.679,1.257,4.109s2.306,13.97,5,19.273c3.143,6.179,3.42,9.634,1.738,26.052-6.531,3.337-26.326-1.113-26.326-1.113s1.143-7.947,2.307-15.948c.837-5.748-.955-5.5.024-11.486.349-2.142.884-6.577.965-8.629A66.46,66.46,0,0,0,904.67,306c-.264-1.435-.146-2.771.669-2.949.083-2.148.934-10.753,2.123-11.494C907.574,291.488,909.066,291.2,909.066,291.2Z" transform="translate(-897.264 -291.202)" fill="#073b66"/>
                  <path id="Path_28965" data-name="Path 28965" d="M931.394,303.8s4.647,5.2,5.487,6.426-.616,3.365-3.242,6.151-6.151,5.99-6.373,6.452-.572,2.052-1.44,1.545-1.919-1.012-2.519-.41-1.453,1.3-2.08,1.237-.658-.369-.5-.384,2.4-2.057,2.846-2.049a1.869,1.869,0,0,0-.9-.623c-.277-.042-2.85,1.833-3.678,1a1.347,1.347,0,0,1,.421-.531s-.792.22-1.018-.177a13.967,13.967,0,0,1,2.76-2.248,2.1,2.1,0,0,1,1.522.008,1.055,1.055,0,0,0-.776-.784c-.3-.023-2.313,1.233-2.957,1.169s-.891-.426-.762-.513,2.365-1.108,2.943-1.4a1.452,1.452,0,0,1,2.089.375,2.848,2.848,0,0,0,2.686,1.156c.524-.262,6.38-8.3,6.38-8.3l-3.8-4.848Z" transform="translate(-897.271 -291.207)" fill="#ffc384"/>
                </g>
                <g id="Group_9673" data-name="Group 9673" transform="translate(6.776)">
                  <g id="Group_9672" data-name="Group 9672">
                    <path id="Path_28966" data-name="Path 28966" d="M920.558,279s-.291,9.653-7.035,9.476c-4.376-.139-5.909-6.585-5.909-6.585a2.439,2.439,0,0,1-1.855-2.461c-.145-2.182.694-2.852,1.217-2.1a8.1,8.1,0,0,1,.526-3.417s9.564-2.514,10.808-2.618S920.558,279,920.558,279Z" transform="translate(-904.042 -267.295)" fill="#ffc384"/>
                    <path id="Path_28967" data-name="Path 28967" d="M918.625,274.358s-.163,5.758.623,8.574-1.288,13.668-2.95,14.014c3.189.428,8.08-8.666,7.314-16.529s-2.955-11.637-4.563-11.042c-1.56-2.392-9.611-3.332-12.256.538-4.37,6.392-3.936,25.879,4.218,26.642-1.112-.829-2.914-10.107-2.625-11.536a41.539,41.539,0,0,0-.17-7.509,51.062,51.062,0,0,0,6.756-3.035c-1.4,1.19-2.852,2.271-2.852,2.271S916.635,276.976,918.625,274.358Z" transform="translate(-904.041 -267.294)" fill="#191f54"/>
                  </g>
                </g>
              </g>
            </g>
          </g>
        </g>
        <path id="Path_28968" data-name="Path 28968" d="M927.459,318.4H904.231l-3.742-31.316h23.23Z" transform="translate(-828.502 -158.32)" fill="#fff"/>
        <g id="Group_9678" data-name="Group 9678" transform="translate(68.386 139.413)">
          <path id="Path_28969" data-name="Path 28969" d="M915.808,309.616c-2.426.058-14.631-.637-14.631-.637l1.438-4.087-.768-6.424-1.181-.731s-4.137,12.18-3.754,13.621,7.538,1.734,11.363,1.572c2.646-.112,5.723-.421,7.533-.556Z" transform="translate(-896.887 -297.737)" fill="#ffc384"/>
          <path id="Path_28970" data-name="Path 28970" d="M915.166,309.621a3.771,3.771,0,0,0,2.063-.882,7.458,7.458,0,0,1,2.063-1.205c.394-.233.765-.418.811,0s-.417.819-.718.92-.533.563-.533.563a19.874,19.874,0,0,0,2.78-.069,7.481,7.481,0,0,1,1.436-.494c.395-.016.14.447,0,.541s-1.019.49-1.367.627a6.141,6.141,0,0,0,1.426-.558c.278-.127.765-.139.626.277s-.962.731-.962.731a4.247,4.247,0,0,1,.694-.092c.186.012.383.486-.417.811-.458.187-1.194.51-1.194.51s.974-.255,1.229-.3.528.378-.011.637a7.163,7.163,0,0,1-3.415,1.074c-1.7.058-3.743-.344-4.72-.261A4.436,4.436,0,0,1,915.166,309.621Z" transform="translate(-896.894 -297.741)" fill="#ffc384"/>
        </g>
        <path id="Path_28971" data-name="Path 28971" d="M979.587,202.754a28.287,28.287,0,0,0,0-6.209c-3.766-1.02-8.035-1.94-8.514-3.418-.506-1.53,2.383-4.8,4.83-7.833a28.425,28.425,0,0,0-3.592-4.911c-3.642,1.382-7.63,3.119-8.911,2.183s-.844-5.261-.644-9.155a27.554,27.554,0,0,0-5.771-1.89c-2.13,3.264-4.351,7.023-5.989,7.023s-3.867-3.759-5.992-7.023a28.038,28.038,0,0,0-5.772,1.89c.2,3.894.631,8.231-.644,9.155s-5.277-.8-8.914-2.183a28.293,28.293,0,0,0-3.591,4.92c2.447,3.023,5.326,6.293,4.826,7.824-.478,1.477-4.747,2.4-8.519,3.418a27.95,27.95,0,0,0,0,6.209c3.772,1.018,8.042,1.944,8.519,3.414.5,1.54-2.379,4.8-4.826,7.831a28.717,28.717,0,0,0,3.591,4.92c3.637-1.385,7.626-3.128,8.917-2.191,1.271.933.842,5.272.641,9.166A28.533,28.533,0,0,0,945,227.785c2.117-3.266,4.347-7.03,5.992-7.03s3.866,3.764,5.989,7.03a28.462,28.462,0,0,0,5.771-1.892c-.2-3.894-.63-8.234.644-9.166s5.275.806,8.911,2.193A28.664,28.664,0,0,0,975.9,214c-2.447-3.028-5.336-6.29-4.83-7.831C971.552,204.7,975.821,203.771,979.587,202.754ZM951,213.822a14.174,14.174,0,1,1,14.172-14.17A14.174,14.174,0,0,1,951,213.822Z" transform="translate(-828.511 -158.272)" fill="#eb3981"/>
        <path id="Path_28972" data-name="Path 28972" d="M927.435,179.28a19.036,19.036,0,0,0,0-4.177c-2.534-.686-5.406-1.305-5.729-2.3-.34-1.03,1.6-3.23,3.25-5.27a19.1,19.1,0,0,0-2.417-3.3c-2.45.93-5.134,2.1-6,1.468s-.567-3.54-.433-6.159a18.5,18.5,0,0,0-3.882-1.272c-1.432,2.2-2.927,4.725-4.03,4.725s-2.6-2.529-4.03-4.725a18.911,18.911,0,0,0-3.882,1.272c.134,2.62.423,5.538-.434,6.159s-3.55-.539-6-1.468a19.011,19.011,0,0,0-2.416,3.31c1.646,2.034,3.583,4.234,3.248,5.264-.324.995-3.195,1.614-5.734,2.3-.067.684-.116,1.384-.116,2.09s.049,1.4.116,2.087c2.539.685,5.41,1.308,5.734,2.3.335,1.037-1.6,3.232-3.248,5.269a19.279,19.279,0,0,0,2.416,3.31c2.447-.932,5.129-2.1,6-1.474.855.628.566,3.548.432,6.167a19.16,19.16,0,0,0,3.882,1.273c1.424-2.2,2.925-4.73,4.03-4.73s2.6,2.533,4.03,4.73a19.1,19.1,0,0,0,3.882-1.273c-.134-2.62-.424-5.54.433-6.167s3.55.543,6,1.476a19.273,19.273,0,0,0,2.417-3.312c-1.647-2.037-3.589-4.232-3.25-5.269C922.029,180.589,924.9,179.965,927.435,179.28ZM908.2,186.728a9.537,9.537,0,1,1,9.535-9.535A9.538,9.538,0,0,1,908.2,186.728Z" transform="translate(-828.497 -158.266)" fill="#ffa70d"/>
      </g>
    </g>
  </g>
</svg>
