<svg xmlns="http://www.w3.org/2000/svg" xmlns:xlink="http://www.w3.org/1999/xlink" width="370" height="300" viewBox="0 0 370 300">
  <defs>
    <radialGradient id="radial-gradient" cx="0.5" cy="0.5" r="0.5" gradientUnits="objectBoundingBox">
      <stop offset="0" stop-color="#0094d6"/>
      <stop offset="1" stop-color="#002c9a"/>
    </radialGradient>
    <linearGradient id="linear-gradient" y1="0.5" x2="1" y2="0.5" gradientUnits="objectBoundingBox">
      <stop offset="0" stop-color="#2aa9ce"/>
      <stop offset="1" stop-color="#ef73db"/>
    </linearGradient>
    <linearGradient id="linear-gradient-4" y1="0.5" x2="1" y2="0.5" gradientUnits="objectBoundingBox">
      <stop offset="0.249" stop-color="#df1e68"/>
      <stop offset="1" stop-color="#cc1f5e"/>
    </linearGradient>
    <linearGradient id="linear-gradient-5" y1="0.5" x2="1" y2="0.5" gradientUnits="objectBoundingBox">
      <stop offset="0" stop-color="#e01e68"/>
      <stop offset="0.312" stop-color="#e11f69"/>
      <stop offset="0.433" stop-color="#e52670"/>
      <stop offset="0.521" stop-color="#eb317c"/>
      <stop offset="0.522" stop-color="#ec327d"/>
      <stop offset="0.755" stop-color="#d9276b"/>
      <stop offset="0.992" stop-color="#cc1f5e"/>
    </linearGradient>
    <linearGradient id="linear-gradient-6" y1="0.5" x2="1" y2="0.5" gradientUnits="objectBoundingBox">
      <stop offset="0" stop-color="#e01e68"/>
      <stop offset="0.314" stop-color="#e11f69"/>
      <stop offset="0.436" stop-color="#e52670"/>
      <stop offset="0.524" stop-color="#ec327c"/>
      <stop offset="0.593" stop-color="#f6428d"/>
      <stop offset="0.603" stop-color="#f23f89"/>
      <stop offset="0.664" stop-color="#e13075"/>
      <stop offset="0.736" stop-color="#d52668"/>
      <stop offset="0.826" stop-color="#ce2060"/>
      <stop offset="0.992" stop-color="#cc1f5e"/>
    </linearGradient>
    <linearGradient id="linear-gradient-7" x1="0.418" y1="0.719" x2="0.582" y2="0.165" gradientUnits="objectBoundingBox">
      <stop offset="0" stop-color="#e01e68"/>
      <stop offset="0.594" stop-color="#ee3681"/>
      <stop offset="1" stop-color="#f6428d"/>
    </linearGradient>
    <linearGradient id="linear-gradient-9" x1="0.257" y1="1.394" x2="0.743" y2="0.644" gradientUnits="objectBoundingBox">
      <stop offset="0" stop-color="#418ec6"/>
      <stop offset="1" stop-color="#9162d7"/>
    </linearGradient>
    <linearGradient id="linear-gradient-10" x1="-1.03" y1="7.098" x2="1.466" y2="5.319" gradientUnits="objectBoundingBox">
      <stop offset="0" stop-color="#6d6e71"/>
      <stop offset="1" stop-color="#bcbec0"/>
    </linearGradient>
    <linearGradient id="linear-gradient-11" x1="-0.773" y1="7.235" x2="2.715" y2="5.131" xlink:href="#linear-gradient-10"/>
    <linearGradient id="linear-gradient-12" x1="-0.351" y1="6.491" x2="3.125" y2="4.539" xlink:href="#linear-gradient-10"/>
    <linearGradient id="linear-gradient-13" x1="0.113" y1="6.677" x2="3.596" y2="4.582" xlink:href="#linear-gradient-10"/>
    <linearGradient id="linear-gradient-14" x1="-0.369" y1="6.509" x2="2.124" y2="4.766" xlink:href="#linear-gradient-10"/>
    <linearGradient id="linear-gradient-15" x1="-2.486" y1="10.086" x2="1.008" y2="7.834" xlink:href="#linear-gradient-10"/>
    <linearGradient id="linear-gradient-16" x1="-2.028" y1="8.686" x2="1.447" y2="6.721" xlink:href="#linear-gradient-10"/>
    <linearGradient id="linear-gradient-17" x1="-1.59" y1="8.392" x2="1.888" y2="6.426" xlink:href="#linear-gradient-10"/>
    <linearGradient id="linear-gradient-18" x1="-0.567" y1="6.296" x2="1.656" y2="4.681" xlink:href="#linear-gradient-10"/>
    <linearGradient id="linear-gradient-19" x1="-108.144" y1="237.525" x2="77.924" y2="177.631" xlink:href="#linear-gradient-10"/>
  </defs>
  <g id="Group_14529" data-name="Group 14529" transform="translate(-375 -3061)">
    <g id="Group_8208" data-name="Group 8208" transform="translate(0 1845)">
      <path id="Rectangle_645" data-name="Rectangle 645" d="M10,0H360a10,10,0,0,1,10,10V300a0,0,0,0,1,0,0H0a0,0,0,0,1,0,0V10A10,10,0,0,1,10,0Z" transform="translate(375 1216)" fill="url(#radial-gradient)"/>
    </g>
    <g id="Group_9722" data-name="Group 9722" transform="translate(407.027 3060.711)">
      <g id="Group_9681" data-name="Group 9681" transform="translate(54.216 108.088)">
        <path id="Path_28973" data-name="Path 28973" d="M263.971,158.137v1.06L126.765,79.978a17.6,17.6,0,0,0-15.925,0l-64,36.95v-.782H40.085v7.146H40.1c-.107,1.74.98,3.5,3.278,4.828l139.784,80.7a17.612,17.612,0,0,0,15.925,0l67.455-38.948c2.133-1.229,3.222-2.832,3.285-4.443h.014v-7.3Z" transform="translate(-40.084 -70.952)" fill="#00027b" opacity="0.4"/>
        <path id="Path_28974" data-name="Path 28974" d="M266.546,156.482c4.4,2.539,4.4,6.652,0,9.194l-67.455,38.946a17.6,17.6,0,0,1-15.925,0l-139.784-80.7c-4.4-2.542-4.4-6.659,0-9.2l67.458-38.948a17.6,17.6,0,0,1,15.925,0Z" transform="translate(-40.084 -73.874)" fill="#6275f1"/>
        <path id="Path_28975" data-name="Path 28975" d="M243.491,147.589l-75.729,43.722L48.33,122.358l75.729-43.723Z" transform="translate(-34.347 -70.562)" fill="#00dfff"/>
        <ellipse id="Ellipse_508" data-name="Ellipse 508" cx="11.033" cy="6.37" rx="11.033" ry="6.37" transform="translate(171.195 98.839)" fill="#83a7fd"/>
        <path id="Path_28976" data-name="Path 28976" d="M174.268,125.1c1.74,1,1.74,2.634,0,3.637l-14.589,8.423-6.317-3.646,14.592-8.423A6.957,6.957,0,0,1,174.268,125.1Z" transform="translate(38.729 -38.762)" fill="#83a7fd"/>
        <path id="Path_28977" data-name="Path 28977" d="M128.8,151.34c-1.738-1.009-1.738-2.637,0-3.641l14.59-8.423,6.315,3.648-14.59,8.423A6.987,6.987,0,0,1,128.8,151.34Z" transform="translate(20.732 -28.371)" fill="#83a7fd"/>
        <path id="Path_28978" data-name="Path 28978" d="M83.74,85.5a1.046,1.046,0,0,1,0,1.981L61.956,100.058a3.8,3.8,0,0,1-3.43,0h0a1.045,1.045,0,0,1,0-1.979L80.311,85.5a3.793,3.793,0,0,1,3.429,0Z" transform="translate(-27.747 -66.071)" fill="#e6e7e8"/>
        <path id="Path_28979" data-name="Path 28979" d="M91.535,77.883c2.193,1.267,2.474,3.2.843,4.643l-.017.01a5.676,5.676,0,0,1-.826.583c-.188.109-.393.207-.582.292a6.831,6.831,0,0,1-1.406.488,10.6,10.6,0,0,1-3.71.259,8.709,8.709,0,0,1-3.393-1.028c-2.511-1.45-2.53-3.8,0-5.259a7.57,7.57,0,0,1,1.031-.487,9.881,9.881,0,0,1,3.6-.585,11.482,11.482,0,0,1,1.63.119,10.328,10.328,0,0,1,1.9.509A6.46,6.46,0,0,1,91.535,77.883Z" transform="translate(-11.928 -71.839)" fill="#414042"/>
        <path id="Path_28980" data-name="Path 28980" d="M85.874,76.8l2.474,7.1a10.6,10.6,0,0,1-3.71.259l-2.362-6.773A9.881,9.881,0,0,1,85.874,76.8Z" transform="translate(-10.73 -71.839)" fill="#6d6e71"/>
        <path id="Path_28981" data-name="Path 28981" d="M87.255,77.379l1.779,5.1-.017.01a5.676,5.676,0,0,1-.826.583c-.188.109-.393.207-.582.292l-2.25-6.491A10.328,10.328,0,0,1,87.255,77.379Z" transform="translate(-8.585 -71.79)" fill="#6d6e71"/>
        <path id="Path_28982" data-name="Path 28982" d="M88.27,78.383c1.2.69,1.348,1.747.46,2.533l-.012.005a3.027,3.027,0,0,1-.448.319c-.1.059-.215.114-.317.159a3.831,3.831,0,0,1-.768.266,5.783,5.783,0,0,1-2.026.141,4.726,4.726,0,0,1-1.852-.56c-1.372-.792-1.382-2.074,0-2.871a4.179,4.179,0,0,1,.563-.266,5.408,5.408,0,0,1,1.964-.319,6.394,6.394,0,0,1,.89.064,5.681,5.681,0,0,1,1.034.278A3.669,3.669,0,0,1,88.27,78.383Z" transform="translate(-10.731 -71.15)" fill="#231f20"/>
      </g>
      <g id="Group_9686" data-name="Group 9686" transform="translate(108.272 71.884)">
        <path id="Path_28983" data-name="Path 28983" d="M182.394,130.753l-35.056-20.246L124.062,97.076a9.48,9.48,0,0,0-8.575,0l-.641.371L77.668,118.9c-2.189,1.25-2.366,3.59,0,4.958l58.344,33.674a9.494,9.494,0,0,0,8.577,0l37.8-21.826C184.658,134.058,184.549,131.9,182.394,130.753Z" transform="translate(-69.181 -22.241)" opacity="0.3" fill="url(#linear-gradient)"/>
        <path id="Path_28984" data-name="Path 28984" d="M182.376,136.01,147.32,115.766l-23.274-13.432a9.473,9.473,0,0,0-8.577,0l-.641.371L77.649,124.155c-2.189,1.251-2.362,3.59,0,4.96l58.346,33.676a9.5,9.5,0,0,0,8.577,0l37.8-21.824C184.642,139.317,184.531,137.158,182.376,136.01Z" transform="translate(-69.194 -18.584)" opacity="0.2" fill="url(#linear-gradient)"/>
        <path id="Path_28985" data-name="Path 28985" d="M182.376,141.259,147.32,121.017l-23.274-13.432a9.473,9.473,0,0,0-8.577,0l-.641.37L77.649,129.409c-2.189,1.246-2.362,3.585,0,4.955l58.346,33.676a9.473,9.473,0,0,0,8.577,0l37.8-21.824C184.642,144.566,184.531,142.407,182.376,141.259Z" transform="translate(-69.194 -14.93)" opacity="0.1" fill="url(#linear-gradient)"/>
        <g id="Group_9682" data-name="Group 9682" transform="translate(53.345 1.629)">
          <path id="Path_28986" data-name="Path 28986" d="M113.3,88a1.694,1.694,0,0,1-1.7-1.7V78.753c0-2-2.328-7.212-4.2-11.4-3.649-8.168-4.8-11.183-3.43-12.927,1.063-1.353,3.034-1.243,5.133.285,1.543,1.121.951,2.276.733,2.6a1.769,1.769,0,0,1-2.6.356,1.613,1.613,0,0,1-.183-.131,87.235,87.235,0,0,0,3.449,8.431c2.308,5.172,4.49,10.056,4.49,12.783V86.3A1.694,1.694,0,0,1,113.3,88Z" transform="translate(-103.42 -53.485)" fill="#a7a9ac"/>
        </g>
        <path id="Path_28987" data-name="Path 28987" d="M189.792,105.912a2.7,2.7,0,0,0-.624-.492L123.639,67.588a8.035,8.035,0,0,0-6.978,0L74.168,92.112a2.48,2.48,0,0,0-.339.236l-.019-.024v.036a1.66,1.66,0,0,0-.251.242l.287,1.5.281,13.649,7.115,32.658,36.877-22.638a8.83,8.83,0,0,1,7.989,0l55.739,32.253,9.1-41.619C191.334,108.2,189.726,105.992,189.792,105.912ZM82.94,105.527a5.955,5.955,0,0,1,4.394-.729,3,3,0,0,1,2.242,2.52l1.367,8.136-10.7,6.011-2.1-9.767A9.226,9.226,0,0,1,82.94,105.527Zm5.64,26.9a6.376,6.376,0,0,1-3.637,1.05,2.142,2.142,0,0,1-2.055-1.591l-1.711-6.73,10.39-5.959,1.153,6.89C93.053,128.06,91.195,130.858,88.58,132.425Zm6.318-28c-.348-2.681,1.869-6.262,4.908-7.9A4.8,4.8,0,0,1,103.747,96a2.794,2.794,0,0,1,1.74,2.666l.463,8.321-10,5.64Zm7.429,19.788a5.211,5.211,0,0,1-3.317.889,1.873,1.873,0,0,1-1.686-1.723l-.889-6.97,9.74-5.572.383,7.1C106.68,119.965,104.784,122.739,102.327,124.212Zm17.278-13.961c-.08,2.082-2,4.831-4.339,6.225a4.3,4.3,0,0,1-3.039.755,1.743,1.743,0,0,1-1.313-1.859l-.173-7.151,9.128-5.228Zm.412-11.2-9.369,5.282-.2-8.374c-.066-2.734,2.2-6.278,5.03-7.777a3.79,3.79,0,0,1,3.531-.373,2.736,2.736,0,0,1,1.328,2.774ZM132.7,114.659c-.132,2.135-2.03,2.784-4.233,1.485a8.324,8.324,0,0,1-2.749-2.761,6.306,6.306,0,0,1-1.073-3.451l.266-7.287,8.267,4.779Zm.716-11.016-8.372-4.8.278-7.9c.08-2.481,2.1-3.449,4.5-2.1a8.2,8.2,0,0,1,3.013,3.079,6.956,6.956,0,0,1,1.087,3.888Zm10.712,17.688c-.227,2.126-2.245,2.722-4.487,1.407a8.358,8.358,0,0,1-2.774-2.8,5.945,5.945,0,0,1-.982-3.424l.546-7.207,8.465,4.884Zm2.016-18.618-.838,7.736-8.584-4.923.6-7.8c.185-2.454,2.337-3.369,4.806-1.991a8.423,8.423,0,0,1,3.051,3.12A6.6,6.6,0,0,1,146.147,102.714Zm9.686,25.467c-.331,2.1-2.455,2.64-4.763,1.287a8.379,8.379,0,0,1-2.8-2.828,5.639,5.639,0,0,1-.89-3.4l.865-7.126,8.677,5.016Zm2.84-18.394-1.18,7.656-8.8-5.041.929-7.724c.292-2.428,2.576-3.3,5.1-1.882a8,8,0,0,1,3.064,3.144A6.074,6.074,0,0,1,158.674,109.787Zm9.132,25.4c-.412,2.072-2.671,2.562-5.031,1.168a8.141,8.141,0,0,1-2.825-2.839,5.171,5.171,0,0,1-.785-3.383l1.182-7.024,8.879,5.138Zm-6.849-15.75,1.287-7.631c.4-2.4,2.813-3.224,5.415-1.765a8.165,8.165,0,0,1,3.091,3.171,5.774,5.774,0,0,1,.77,3.836l-1.538,7.549Zm19.123,22.928c-.517,2.033-2.907,2.481-5.309,1.065a7.893,7.893,0,0,1-2.839-2.883,4.806,4.806,0,0,1-.717-3.352l1.526-6.931,9.1,5.269ZM184.7,124.5l-1.925,7.432-9.235-5.3,1.645-7.524c.519-2.374,3.1-3.13,5.774-1.63a8.119,8.119,0,0,1,3.117,3.21A5.443,5.443,0,0,1,184.7,124.5Z" transform="translate(-70.851 -42.598)" fill="url(#linear-gradient-4)"/>
        <path id="Path_28988" data-name="Path 28988" d="M84.748,110.924a6.376,6.376,0,0,1-3.637,1.05,2.15,2.15,0,0,1-2.043-1.552,2.437,2.437,0,0,0,1.513.621A6.48,6.48,0,0,0,84.256,110c2.642-1.567,4.512-4.368,4.18-6.345l-.98-5.8.278-.159,1.153,6.89C89.221,106.559,87.363,109.357,84.748,110.924Z" transform="translate(-67.019 -21.098)" fill="#f6428d"/>
        <path id="Path_28989" data-name="Path 28989" d="M88.3,99.419,77.6,105.43l-.239-1.116L87.819,98.49,86.44,90.355a3.189,3.189,0,0,0-.12-.517,3.168,3.168,0,0,1,.61,1.445Z" transform="translate(-68.206 -26.564)" fill="#f6428d"/>
        <path id="Path_28990" data-name="Path 28990" d="M96.8,99.863c.12,2.03-1.775,4.8-4.233,6.278a5.211,5.211,0,0,1-3.317.889,1.847,1.847,0,0,1-1.658-1.6,1.9,1.9,0,0,0,1.26.675,5.3,5.3,0,0,0,3.356-.89c2.483-1.47,4.394-4.244,4.275-6.276l-.332-6.023.266-.146Z" transform="translate(-61.089 -24.527)" fill="#f6428d"/>
        <path id="Path_28991" data-name="Path 28991" d="M96.819,94.519l-10,5.64-.132-1.087,9.807-5.482-.465-8.321a3.31,3.31,0,0,0-.066-.556,3.243,3.243,0,0,1,.4,1.485Z" transform="translate(-61.721 -30.13)" fill="#f6428d"/>
        <path id="Path_28992" data-name="Path 28992" d="M104.538,88.14l-.265,7.258c-.08,2.082-2,4.831-4.339,6.225a4.3,4.3,0,0,1-3.039.755,1.687,1.687,0,0,1-1.3-1.657,1.552,1.552,0,0,0,1.033.727,4.368,4.368,0,0,0,3.068-.755c2.36-1.394,4.3-4.141,4.378-6.225l.237-6.2Z" transform="translate(-55.519 -27.745)" fill="#f6428d"/>
        <path id="Path_28993" data-name="Path 28993" d="M105.129,81.426l-.319,8.467-9.369,5.282L95.416,94.1l9.208-5.135.319-8.469a3.587,3.587,0,0,0-.014-.543A3.946,3.946,0,0,1,105.129,81.426Z" transform="translate(-55.644 -33.44)" fill="#f6428d"/>
        <path id="Path_28994" data-name="Path 28994" d="M112.214,90.78l-.478,7.234c-.132,2.135-2.03,2.784-4.233,1.485a8.324,8.324,0,0,1-2.749-2.761,6.575,6.575,0,0,1-1.06-3,7.185,7.185,0,0,0,.928,2.071A8.234,8.234,0,0,0,107.4,98.57c2.228,1.3,4.139.649,4.272-1.485l.424-6.371Z" transform="translate(-49.884 -25.954)" fill="#f6428d"/>
        <path id="Path_28995" data-name="Path 28995" d="M112.8,84.342l-.505,7.829-8.372-4.8.025-.836,8.294,4.711.505-7.829v-.134A4.8,4.8,0,0,1,112.8,84.342Z" transform="translate(-49.726 -31.127)" fill="#f6428d"/>
        <path id="Path_28996" data-name="Path 28996" d="M120.258,87.654c0,.187-.014.371-.027.544l-.838,7.736-8.584-4.923.066-.875,8.57,4.868Z" transform="translate(-44.934 -28.083)" fill="#f6428d"/>
        <path id="Path_28997" data-name="Path 28997" d="M119.33,94.754l-.768,7.139c-.227,2.126-2.245,2.722-4.487,1.407a8.359,8.359,0,0,1-2.774-2.8,5.9,5.9,0,0,1-.982-3.41,6.726,6.726,0,0,0,.956,2.481,8.44,8.44,0,0,0,2.8,2.8c2.269,1.311,4.3.716,4.54-1.409l.675-6.235Z" transform="translate(-45.282 -23.161)" fill="#f6428d"/>
        <path id="Path_28998" data-name="Path 28998" d="M125.664,104.487l-.109.717c-.331,2.1-2.455,2.64-4.763,1.287a8.38,8.38,0,0,1-2.8-2.828,5.639,5.639,0,0,1-.89-3.4l.053-.451a6.048,6.048,0,0,0,.931,2.922,8.319,8.319,0,0,0,2.825,2.823C123.154,106.863,125.238,106.413,125.664,104.487Z" transform="translate(-40.573 -19.622)" fill="#f6428d"/>
        <path id="Path_28999" data-name="Path 28999" d="M126.811,98.165l-.146.941-8.8-5.043.106-.916Z" transform="translate(-40.024 -24.261)" fill="#f6428d"/>
        <path id="Path_29000" data-name="Path 29000" d="M134.321,105.408l-.2.98-9.025-5.16,1.287-7.631a3.259,3.259,0,0,1,.173-.638L125.31,100.3Z" transform="translate(-34.993 -24.392)" fill="#f6428d"/>
        <path id="Path_29001" data-name="Path 29001" d="M132.77,111.774l-.066.305c-.412,2.072-2.671,2.562-5.031,1.168a8.141,8.141,0,0,1-2.825-2.839,5.171,5.171,0,0,1-.785-3.383L125.244,100l.041.027-1.023,6.066a5.07,5.07,0,0,0,.783,3.383,8.246,8.246,0,0,0,2.852,2.842C130.021,113.553,132.065,113.3,132.77,111.774Z" transform="translate(-35.75 -19.492)" fill="#f6428d"/>
        <path id="Path_29002" data-name="Path 29002" d="M140.07,116.217l-.027.105c-.517,2.033-2.907,2.481-5.309,1.065A7.893,7.893,0,0,1,131.9,114.5a4.806,4.806,0,0,1-.717-3.353l1.526-6.931.105.066-1.326,5.932a4.765,4.765,0,0,0,.731,3.358,7.814,7.814,0,0,0,2.864,2.878C137.137,117.651,139.167,117.521,140.07,116.217Z" transform="translate(-30.815 -16.557)" fill="#f6428d"/>
        <path id="Path_29003" data-name="Path 29003" d="M142.018,109.8l-.266,1.024-9.235-5.3,1.645-7.524a2.757,2.757,0,0,1,.334-.875l-1.647,7.473Z" transform="translate(-29.831 -21.49)" fill="#f6428d"/>
        <path id="Path_29004" data-name="Path 29004" d="M177.276,132.706l-35.221,20.327a8.819,8.819,0,0,1-7.989,0L79.713,121.661c-2.2-1.272-2.04-3.453,0-4.616l34.634-19.984,22.189,12.8a8.024,8.024,0,0,0,6.98,0l1.1-.636,32.658,18.857C179.286,129.158,179.386,131.168,177.276,132.706Z" transform="translate(-67.677 -21.538)" fill="#cc1f5e"/>
        <path id="Path_29005" data-name="Path 29005" d="M108.071,97.249a8.83,8.83,0,0,0-7.989,0l-.6.346,22.189,12.8a8.024,8.024,0,0,0,6.98,0l1.1-.636Z" transform="translate(-52.814 -22.072)" fill="#e01e68"/>
        <path id="Path_29006" data-name="Path 29006" d="M129.755,109.763l-1.1.636a8.024,8.024,0,0,1-6.98,0l-22.189-12.8.6-.346a8.83,8.83,0,0,1,7.989,0Z" transform="translate(-52.814 -22.072)" fill="#cc1f5e"/>
        <path id="Path_29007" data-name="Path 29007" d="M148.314,128.341a10.627,10.627,0,0,1-9.635,0L73.136,90.511l.492,1.937,7.909,31.463a3.222,3.222,0,0,0,1.645,2.308l54.354,31.371a8.819,8.819,0,0,0,7.989,0l35.221-20.327a3.66,3.66,0,0,0,1.645-2.345l7.87-29.133.531-1.965ZM76.572,98.261c-.529-2.189.305-3.319,1.95-2.986a5.711,5.711,0,0,1,1.674.7,10.586,10.586,0,0,1,1.592,1.184,15.285,15.285,0,0,1,2.2,2.413,11.89,11.89,0,0,1,2.189,4.407l1.859,8.675-9.277-5.489Zm10.564,27.919a12.282,12.282,0,0,1-3.33-3,10.257,10.257,0,0,1-2.031-3.754l-1.964-8.014,9.1,5.387,1.672,7.829C91.077,126.925,89.525,127.6,87.136,126.179Zm2.786-19.984c-.543-2.666,1.089-3.661,3.663-2.23l.4.241a13.071,13.071,0,0,1,3.5,3.4,11.01,11.01,0,0,1,1.977,4.272l1.38,8.374-9.21-5.45Zm9.211,27.047a12.09,12.09,0,0,1-3.28-2.947,9.285,9.285,0,0,1-1.845-3.649L92.456,118.9l9.052,5.357,1.246,7.553C103.127,134.022,101.494,134.634,99.133,133.242Zm4.034-19.165c-.4-2.65,1.431-3.554,4.087-1.962a11.839,11.839,0,0,1,3.583,3.449,9.42,9.42,0,0,1,1.791,4.141l.929,8.082-9.145-5.415Zm7.843,26.169a11.615,11.615,0,0,1-3.186-2.9,8.4,8.4,0,0,1-1.674-3.531l-1.126-7.485,8.982,5.323.838,7.287C115.084,141.071,113.371,141.641,111.01,140.246ZM116.3,121.9c-.253-2.549,1.672-3.388,4.339-1.808a11.572,11.572,0,0,1,3.478,3.386,8.54,8.54,0,0,1,1.592,4.019l.478,7.777-9.077-5.375Zm6.53,25.306a10.982,10.982,0,0,1-3.107-2.851,7.429,7.429,0,0,1-1.513-3.427l-.716-7.207,8.918,5.27.426,7.017C126.974,148.075,125.168,148.582,122.833,147.2Zm6.529-17.542c-.107-2.457,1.937-3.213,4.563-1.647a10.883,10.883,0,0,1,3.385,3.317,7.537,7.537,0,0,1,1.382,3.89l.039,7.5-9.025-5.348Zm5.23,24.47a10.168,10.168,0,0,1-3.027-2.8,6.474,6.474,0,0,1-1.367-3.347l-.319-6.939,8.865,5.243.027,6.756C138.772,155.032,136.9,155.494,134.592,154.129ZM154.84,147.2c-.2,1.925-2.2,4.47-4.5,5.747a4.19,4.19,0,0,1-2.856.663,1.458,1.458,0,0,1-1.085-1.674l.292-6.344,8.8-5Zm1.009-10.151-9,5.145.344-7.215c.107-2.323,2.323-5.509,4.977-7.073a4.084,4.084,0,0,1,3.3-.677,1.962,1.962,0,0,1,1.117,2.282Zm11.863,2.932c-.346,2.043-2.549,4.726-4.909,6.035a3.9,3.9,0,0,1-2.868.655c-.7-.187-1.062-.8-.941-1.792l.836-6.756,9.1-5.174Zm3.264-18.845-1.392,8.029-9.3,5.335.941-7.682c.292-2.325,2.483-5.442,5.031-7.17l.185-.117c.107-.066.226-.134.331-.2.12-.064.239-.131.358-.2l.054-.025a3.476,3.476,0,0,1,2.907-.438C170.845,119,171.2,119.851,170.977,121.138Zm10.059,11.389c-.531,2.174-2.932,4.985-5.374,6.34a3.866,3.866,0,0,1-2.893.649c-.649-.226-.956-.887-.756-1.935l1.406-7.2,9.435-5.36Zm4.207-22.733c.731.358,1.009,1.273.665,2.65l-2.071,8.564-9.661,5.53,1.618-8.2c.439-2.228,2.428-5.094,4.738-6.939a10.256,10.256,0,0,1,1.367-.956,6.664,6.664,0,0,1,1.447-.661A2.419,2.419,0,0,1,185.243,109.793Z" transform="translate(-71.145 -26.095)" fill="url(#linear-gradient-5)"/>
        <path id="Path_29008" data-name="Path 29008" d="M87.913,117.18c-.2,1.355-1.579,1.582-3.515.424a12.282,12.282,0,0,1-3.33-3,10.257,10.257,0,0,1-2.032-3.754l-1.964-8.014,1.036.607,1.563,6.464a10.408,10.408,0,0,0,2,3.754,12.284,12.284,0,0,0,3.291,3C86.268,117.446,87.316,117.592,87.913,117.18Z" transform="translate(-68.407 -17.52)" fill="#f6428d"/>
        <path id="Path_29009" data-name="Path 29009" d="M86.694,110.647l-9.277-5.489-2.189-8.906c-.358-1.487-.093-2.483.638-2.854a3.812,3.812,0,0,0,.066,1.911l2.164,8.9,8.28,4.979Z" transform="translate(-69.801 -24.087)" fill="#f6428d"/>
        <path id="Path_29010" data-name="Path 29010" d="M94,114.847l-9.21-5.45-1.713-8.6a2.478,2.478,0,0,1,.5-2.522,3.738,3.738,0,0,0,.027,1.582l1.686,8.6,8.494,5.084Z" transform="translate(-64.301 -20.695)" fill="#f6428d"/>
        <path id="Path_29011" data-name="Path 29011" d="M94.868,121c-.132,1.511-1.631,1.794-3.661.6a12.09,12.09,0,0,1-3.28-2.947A9.285,9.285,0,0,1,86.082,115l-1.553-7.748.785.463,1.246,6.344a9.247,9.247,0,0,0,1.831,3.648,11.99,11.99,0,0,0,3.225,2.944C93.089,121.527,94.283,121.609,94.868,121Z" transform="translate(-63.219 -14.449)" fill="#f6428d"/>
        <path id="Path_29012" data-name="Path 29012" d="M101.788,124.665c-.027,1.777-1.66,2.188-3.861.887a11.615,11.615,0,0,1-3.186-2.9,8.4,8.4,0,0,1-1.674-3.531l-1.126-7.485.531.321.929,6.223a8.49,8.49,0,0,0,1.643,3.532,11.624,11.624,0,0,0,3.147,2.9C99.9,125.636,101.269,125.592,101.788,124.665Z" transform="translate(-58.062 -11.401)" fill="#f6428d"/>
        <path id="Path_29013" data-name="Path 29013" d="M101.258,118.978l-9.145-5.415-1.245-8.3a2.758,2.758,0,0,1,.344-2.1,4.269,4.269,0,0,0,.025,1.157l1.221,8.294,8.665,5.191Z" transform="translate(-58.845 -17.287)" fill="#f6428d"/>
        <path id="Path_29014" data-name="Path 29014" d="M108.489,123.031l-9.077-5.376-.811-8a3.123,3.123,0,0,1,.187-1.555,3.135,3.135,0,0,0,.014.614l.8,8,8.823,5.292Z" transform="translate(-53.444 -13.857)" fill="#f6428d"/>
        <path id="Path_29015" data-name="Path 29015" d="M108.641,128.186v.092c.132,2.071-1.674,2.578-4.009,1.2a10.982,10.982,0,0,1-3.107-2.851,7.428,7.428,0,0,1-1.513-3.427L99.3,115.99l.292.175.6,6.091a7.506,7.506,0,0,0,1.5,3.422,10.783,10.783,0,0,0,3.068,2.854C106.7,129.7,108.281,129.514,108.641,128.186Z" transform="translate(-52.944 -8.368)" fill="#f6428d"/>
        <path id="Path_29016" data-name="Path 29016" d="M115.49,132.309c0,1.991-1.872,2.452-4.18,1.087a10.168,10.168,0,0,1-3.027-2.8,6.474,6.474,0,0,1-1.367-3.347l-.319-6.939.066.042.28,5.957a6.56,6.56,0,0,0,1.353,3.344,10.048,10.048,0,0,0,2.986,2.8c2.282,1.365,4.127.9,4.127-1.092l-.027-5.852.08.042Z" transform="translate(-47.864 -5.363)" fill="#f6428d"/>
        <path id="Path_29017" data-name="Path 29017" d="M115.664,126.961l-9.025-5.348L106.3,113.9a2.689,2.689,0,0,1,.053-.743l.331,7.507,8.906,5.348-.039-7.376a4.5,4.5,0,0,1,.08.824Z" transform="translate(-48.078 -10.338)" fill="#f6428d"/>
        <path id="Path_29018" data-name="Path 29018" d="M125.43,120.045l-.649,6.608c-.2,1.925-2.2,4.47-4.5,5.747a4.19,4.19,0,0,1-2.856.663,1.459,1.459,0,0,1-1.085-1.647,1.249,1.249,0,0,0,.9.7,4.043,4.043,0,0,0,2.813-.666c2.271-1.272,4.248-3.817,4.446-5.744l.517-5.44Z" transform="translate(-41.085 -5.547)" fill="#f6428d"/>
        <path id="Path_29019" data-name="Path 29019" d="M126.349,114.175l-.744,7.538-9,5.145.054-1.073,8.65-5.018.733-7.533a3.021,3.021,0,0,0,0-.678A2.45,2.45,0,0,1,126.349,114.175Z" transform="translate(-40.9 -10.758)" fill="#f6428d"/>
        <path id="Path_29020" data-name="Path 29020" d="M133.718,115.538,132.5,122.57c-.346,2.043-2.549,4.726-4.909,6.035a3.9,3.9,0,0,1-2.868.655,1.287,1.287,0,0,1-.968-1.318,1.229,1.229,0,0,0,.624.373,3.8,3.8,0,0,0,2.827-.649c2.335-1.314,4.511-3.993,4.855-6.037l.984-5.706Z" transform="translate(-35.929 -8.683)" fill="#f6428d"/>
        <path id="Path_29021" data-name="Path 29021" d="M135.222,109.47,133.83,117.5l-9.3,5.335.146-1.233,8.691-5.045,1.382-8.029a3.274,3.274,0,0,0,.012-1.245A2.366,2.366,0,0,1,135.222,109.47Z" transform="translate(-35.39 -14.427)" fill="#f6428d"/>
        <path id="Path_29022" data-name="Path 29022" d="M142.307,110.865l-1.818,7.5c-.531,2.174-2.932,4.985-5.374,6.34a3.866,3.866,0,0,1-2.893.649,1.221,1.221,0,0,1-.809-1.1,1.309,1.309,0,0,0,.305.159,3.78,3.78,0,0,0,2.851-.651c2.416-1.353,4.794-4.166,5.309-6.344l1.448-6Z" transform="translate(-30.599 -11.934)" fill="#f6428d"/>
        <path id="Path_29023" data-name="Path 29023" d="M144.452,104.516l-2.071,8.564-9.661,5.53.278-1.4,8.743-5.07,2.045-8.558a3.69,3.69,0,0,0,.08-1.672C144.544,102.29,144.783,103.192,144.452,104.516Z" transform="translate(-29.689 -18.168)" fill="#f6428d"/>
        <path id="Path_29024" data-name="Path 29024" d="M193.61,95.707v11.479h-.039a2.434,2.434,0,0,1-.371,1.089,4.283,4.283,0,0,1-1.592,1.458L149.13,134.255a10.627,10.627,0,0,1-9.635,0L73.953,96.424A4.358,4.358,0,0,1,72.32,94.9a2.484,2.484,0,0,1-.358-1.26c0-.053.025-.092.025-.146h-.025V82.012a2.494,2.494,0,0,0,.358,1.262A4.352,4.352,0,0,0,73.953,84.8L139.5,122.63a10.616,10.616,0,0,0,9.635,0L191.607,98.11a4.313,4.313,0,0,0,1.592-1.46,2.5,2.5,0,0,0,.371-.943Z" transform="translate(-71.962 -32.009)" fill="url(#linear-gradient-6)"/>
        <path id="Path_29025" data-name="Path 29025" d="M190.79,103.819l-.531,1.965-6.914,4-2.813,1.618-13.351,7.712-.054.025-.688.4-.185.117L148.314,130a10.627,10.627,0,0,1-9.635,0l-44.695-25.8-.4-.241-11.8-6.805-3.266-1.886-4.894-2.827-.492-1.937,65.542,37.83a10.627,10.627,0,0,0,9.635,0Z" transform="translate(-71.145 -26.095)" fill="#cc1f5e"/>
        <path id="Path_29026" data-name="Path 29026" d="M191.6,104.213l-10.346-5.969-3.391-1.967-51.786-29.9a10.6,10.6,0,0,0-9.632,0L73.949,90.9a3.409,3.409,0,0,0-1.984,2.8,2.476,2.476,0,0,0,.356,1.255,4.456,4.456,0,0,0,1.628,1.526l65.541,37.83a10.588,10.588,0,0,0,9.632,0L191.6,109.792a4.345,4.345,0,0,0,1.594-1.458,2.417,2.417,0,0,0,.373-.95,1.4,1.4,0,0,0,.034-.373A3.4,3.4,0,0,0,191.6,104.213Zm-1.307,3.273L148.9,131.38l-1.1.641a8.027,8.027,0,0,1-6.988,0L118.63,119.2,75.27,94.191a2.564,2.564,0,0,1-.609-.492,1.87,1.87,0,0,1,.609-.492l42.5-24.537a8.212,8.212,0,0,1,6.986,0l53.109,30.676,3.391,1.967,9.021,5.206a2.524,2.524,0,0,1,.629.492A2.325,2.325,0,0,1,190.292,107.486Z" transform="translate(-71.96 -43.689)" fill="#f6428d"/>
        <g id="Group_9683" data-name="Group 9683" transform="translate(11.336 6.244)">
          <path id="Path_29027" data-name="Path 29027" d="M80.56,118.407a1.7,1.7,0,0,1-1.692-1.613c-.185-3.792-.424-10.38.086-11.9,1.738-5.2,33.518-47.352,33.828-47.745,1.06-1.352,3.03-1.243,5.135.285,1.543,1.119.95,2.272.731,2.6a1.762,1.762,0,0,1-2.6.354,1.717,1.717,0,0,1-.487-.449,4.265,4.265,0,0,0-.463-.236c-4.038,5.264-31.568,42.194-32.925,46.265a85.418,85.418,0,0,0,.085,10.658,1.7,1.7,0,0,1-1.613,1.779Z" transform="translate(-78.647 -56.206)" fill="#a7a9ac"/>
        </g>
        <path id="Path_29028" data-name="Path 29028" d="M111.112,52.792l-.014.019a2.932,2.932,0,0,0-3,.309,8.133,8.133,0,0,0-3.919,6.183,2.115,2.115,0,0,0,1.067,2.059l-.005.008L131.2,76.33l5.823-8.6Z" transform="translate(-49.546 -52.524)" fill="url(#linear-gradient-7)"/>
        <path id="Path_29029" data-name="Path 29029" d="M127.321,63.6a8.128,8.128,0,0,1-3.917,6.181c-2.165,1.251-3.922.509-3.922-1.655a8.135,8.135,0,0,1,3.922-6.184C125.568,60.694,127.321,61.435,127.321,63.6Z" transform="translate(-38.9 -46.393)" fill="#cc1f5e"/>
        <path id="Path_29030" data-name="Path 29030" d="M106.494,55.575l-.012.02a2.927,2.927,0,0,0-3,.307,8.13,8.13,0,0,0-3.922,6.184,2.118,2.118,0,0,0,1.07,2.059l-.007.007,25.96,14.96,5.823-8.6Z" transform="translate(-52.759 -50.588)" fill="url(#linear-gradient-7)"/>
        <path id="Path_29031" data-name="Path 29031" d="M122.7,66.384a8.136,8.136,0,0,1-3.919,6.184c-2.165,1.25-3.921.507-3.921-1.657a8.127,8.127,0,0,1,3.921-6.183C120.949,63.477,122.7,64.22,122.7,66.384Z" transform="translate(-42.112 -44.457)" fill="#cc1f5e"/>
        <g id="Group_9684" data-name="Group 9684" transform="translate(57.41 22.907)">
          <path id="Path_29032" data-name="Path 29032" d="M107.73,137.656a1.7,1.7,0,0,1-1.692-1.613c-.185-3.792-.421-10.381.083-11.9.8-2.371,5.577-15.577,10.2-28.346,4.166-11.507,8.889-24.549,9.14-25.4.153-.551.19-.683-.685-1.219a1.7,1.7,0,0,1,1.775-2.89,4.19,4.19,0,0,1,2.176,5.023c-.215.773-3.642,10.247-9.22,25.645-4.618,12.75-9.394,25.936-10.173,28.265a86.643,86.643,0,0,0,.086,10.661,1.7,1.7,0,0,1-1.613,1.777Z" transform="translate(-105.817 -66.033)" fill="#a7a9ac"/>
        </g>
        <g id="Group_9685" data-name="Group 9685" transform="translate(83.32 18.049)">
          <path id="Path_29033" data-name="Path 29033" d="M147.071,97.2v2.476l-3.391-1.967V97.2c0-4.341-13.683-21.807-19.925-29.1a8.375,8.375,0,0,0-1.848-1.781,1.7,1.7,0,1,1,1.782-2.9,12.5,12.5,0,0,1,2.645,2.476C127.182,66.878,147.071,90.212,147.071,97.2Z" transform="translate(-121.097 -63.168)" fill="#a7a9ac"/>
        </g>
      </g>
      <g id="Group_9687" data-name="Group 9687" transform="translate(174.718 33.837)">
        <path id="Path_29034" data-name="Path 29034" d="M136.9,50.681a4.3,4.3,0,0,1-1.686,3.724c-.083.056-.168.112-.253.159a4.833,4.833,0,0,1-1.645.607,8.369,8.369,0,0,1-3.125-.029c-.056.768.11,3.21,3.761,6.6A24.977,24.977,0,0,1,123.8,52.618c-7.007-4.134-12.659-11.611-12.659-16.8A4.418,4.418,0,0,1,112.57,32.3h.008l.029-.029a3.637,3.637,0,0,1,.663-.448c2.3-1.245,6.259-.665,10.749,1.937C131.141,37.855,136.9,45.433,136.9,50.681Z" transform="translate(-111.146 -29.319)" fill="#fff" opacity="0.5"/>
        <path id="Path_29035" data-name="Path 29035" d="M163.613,73.25a5.7,5.7,0,0,1-2.091,4.8l-.617.414-.02.012c-2.976,1.655-8.1.95-13.939-2.35-5.518,2.338-13.393-3.434-13.393-3.434,3.758.883,4.733-.727,4.945-2a4.851,4.851,0,0,0,.046-.941c-5.269-5.157-8.84-11.343-8.84-16.076a5.768,5.768,0,0,1,1.97-4.709l.827-.56c3.032-1.633,8.235-.861,14.153,2.55C156.018,56.369,163.613,66.349,163.613,73.25Z" transform="translate(-98.235 -17.917)" fill="#fff" opacity="0.5"/>
        <path id="Path_29036" data-name="Path 29036" d="M163.54,76.848l.01.012-3.176,2.1a5.7,5.7,0,0,0,2.091-4.8c0-6.9-7.6-16.881-16.959-22.3-5.918-3.412-11.121-4.183-14.153-2.55l2.92-1.97.012.024c2.94-1.981,8.357-1.331,14.577,2.26,9.364,5.413,16.961,15.394,16.961,22.3A5.651,5.651,0,0,1,163.54,76.848Z" transform="translate(-97.087 -18.831)" fill="#fff" opacity="0.2"/>
        <path id="Path_29037" data-name="Path 29037" d="M136.918,61.3c-.212,1.275-1.187,2.886-4.945,2l3.356-2.238A9.62,9.62,0,0,0,136.918,61.3Z" transform="translate(-96.656 -8.533)" fill="#fff" opacity="0.2"/>
        <path id="Path_29038" data-name="Path 29038" d="M138.837,49.578a4.245,4.245,0,0,1-1.794,3.788v.01l-2.7,1.8a4.3,4.3,0,0,0,1.686-3.724c0-5.248-5.764-12.827-12.884-16.924-4.49-2.6-8.446-3.181-10.749-1.937l2.311-1.552c2.2-1.648,6.408-1.18,11.246,1.618C133.075,36.753,138.837,44.329,138.837,49.578Z" transform="translate(-110.274 -30.087)" fill="#fff" opacity="0.2"/>
        <path id="Path_29039" data-name="Path 29039" d="M128.951,50.04a.282.282,0,0,0-.075-.027l-2.715,1.909-.017-.01c-3.651-3.386-3.817-5.828-3.761-6.6a8.369,8.369,0,0,0,3.125.029,12.414,12.414,0,0,0,3.386,4.64l.008.01A.216.216,0,0,1,128.951,50.04Z" transform="translate(-103.333 -19.492)" fill="#fff" opacity="0.2"/>
      </g>
      <g id="Group_9688" data-name="Group 9688" transform="translate(23.556 125.941)">
        <path id="Path_29040" data-name="Path 29040" d="M34.083,132.961s-5.684-3.224-6.73-3.812c-3.485-1.969-5.335-4.4-5.348-7.022-.014-2.913,2.294-5.859,6.5-8.29.383-.226,38.592-22.5,44.844-26C79.142,84.6,84.837,82.15,90.828,87.7a.424.424,0,0,1-.577.622c-5.077-4.7-9.712-3.534-16.484.258-6.245,3.495-44.447,25.774-44.834,25.992-3.936,2.274-6.095,4.957-6.081,7.555.01,2.3,1.713,4.48,4.918,6.286,1.046.592,6.73,3.815,6.73,3.815Z" transform="translate(-22.004 -84.402)" fill="#111581"/>
      </g>
      <g id="Group_9689" data-name="Group 9689" transform="translate(142.906 236.178)">
        <path id="Path_29041" data-name="Path 29041" d="M100.519,154.739a.417.417,0,0,1-.215-.056L92.6,150.2a.426.426,0,0,1,.427-.736l7.707,4.482a.423.423,0,0,1,.151.58A.413.413,0,0,1,100.519,154.739Z" transform="translate(-92.386 -149.41)" fill="#111581"/>
      </g>
      <g id="Group_9690" data-name="Group 9690" transform="translate(105.138 214.196)">
        <path id="Path_29042" data-name="Path 29042" d="M78.247,141.777a.418.418,0,0,1-.215-.056l-7.707-4.48a.425.425,0,0,1,.427-.736l7.707,4.48a.425.425,0,0,1,.153.58A.418.418,0,0,1,78.247,141.777Z" transform="translate(-70.114 -136.447)" fill="#111581"/>
      </g>
      <g id="Group_9692" data-name="Group 9692" transform="translate(182.172 221.654)">
        <g id="Group_9691" data-name="Group 9691" transform="translate(0)">
          <path id="Path_29043" data-name="Path 29043" d="M154.265,198.988c-2.62,0-4.979-1.258-7.565-2.637-.483-.256-.977-.522-1.484-.785-3.743-1.928-21.85-12.252-29.46-16.6a.424.424,0,1,1,.421-.736c5.935,3.393,25.6,14.614,29.426,16.589q.766.392,1.5.787c3.968,2.118,7.1,3.79,11.47,1.27,4.65-2.686,45.6-26.333,51.276-29.674,3.078-1.813,4.7-3.67,4.707-5.372,0-1.474-1.184-2.925-3.522-4.309-5.65-3.349-27.758-15.755-27.98-15.877a.426.426,0,0,1,.415-.743c.22.127,22.335,12.537,28,15.891,2.613,1.55,3.939,3.242,3.936,5.038,0,2.05-1.73,4.105-5.125,6.1-5.677,3.344-46.633,26.991-51.283,29.672A9.29,9.29,0,0,1,154.265,198.988Z" transform="translate(-115.541 -140.845)" fill="#111581"/>
        </g>
      </g>
      <g id="Group_9694" data-name="Group 9694" transform="translate(22.284 124.667)" opacity="0.3">
        <g id="Group_9693" data-name="Group 9693">
          <path id="Path_29044" data-name="Path 29044" d="M34.812,134.81a1.673,1.673,0,0,1-.848-.229c-5.669-3.28-5.669-3.213-6.715-3.8-4.935-2.784-5.984-5.954-5.994-8.123-.017-3.391,2.516-6.729,7.139-9.4.378-.217,38.6-22.5,44.859-26.009,5.964-3.334,12.343-6.081,18.958.039a1.7,1.7,0,0,1-2.3,2.489c-4.534-4.194-8.608-3.146-15,.432-6.235,3.49-44.427,25.76-44.812,25.984-3.476,2.008-5.46,4.355-5.45,6.451.01,2.3,2.328,4.085,4.27,5.182,1.05.592,1.065.534,6.747,3.826a1.695,1.695,0,0,1-.851,3.161Z" transform="translate(-21.254 -83.651)" fill="#002a98"/>
        </g>
      </g>
      <g id="Group_9696" data-name="Group 9696" transform="translate(141.631 234.909)" opacity="0.3">
        <g id="Group_9695" data-name="Group 9695">
          <path id="Path_29045" data-name="Path 29045" d="M101.039,156.532a1.694,1.694,0,0,1-.851-.232l-7.707-4.477a1.694,1.694,0,1,1,1.7-2.93l7.711,4.478a1.7,1.7,0,0,1-.855,3.161Z" transform="translate(-91.634 -148.662)" fill="#002a98"/>
        </g>
      </g>
      <g id="Group_9698" data-name="Group 9698" transform="translate(103.867 212.925)" opacity="0.3">
        <g id="Group_9697" data-name="Group 9697">
          <path id="Path_29046" data-name="Path 29046" d="M78.765,143.57a1.688,1.688,0,0,1-.85-.232l-7.709-4.482a1.7,1.7,0,1,1,1.706-2.93l7.707,4.482a1.7,1.7,0,0,1-.855,3.163Z" transform="translate(-69.364 -135.697)" fill="#002a98"/>
        </g>
      </g>
      <g id="Group_9699" data-name="Group 9699" transform="translate(66.987 192.102)">
        <path id="Path_29047" data-name="Path 29047" d="M55.749,128.746a.437.437,0,0,1-.215-.058l-7.707-4.477a.426.426,0,0,1,.427-.736l7.707,4.48a.422.422,0,0,1,.153.578A.414.414,0,0,1,55.749,128.746Z" transform="translate(-47.616 -123.418)" fill="#111581"/>
      </g>
      <g id="Group_9701" data-name="Group 9701" transform="translate(65.716 190.83)" opacity="0.3">
        <g id="Group_9700" data-name="Group 9700">
          <path id="Path_29048" data-name="Path 29048" d="M56.267,130.54a1.686,1.686,0,0,1-.85-.231l-7.709-4.482a1.7,1.7,0,0,1,1.706-2.93l7.707,4.48a1.7,1.7,0,0,1-.855,3.163Z" transform="translate(-46.866 -122.668)" fill="#002a98"/>
        </g>
      </g>
      <path id="Path_29049" data-name="Path 29049" d="M158.053,141.847a1.828,1.828,0,1,1-1.828-1.828A1.827,1.827,0,0,1,158.053,141.847Z" transform="translate(93.664 80.234)" fill="#1951de"/>
      <g id="Group_9703" data-name="Group 9703" transform="translate(180.899 218.988)" opacity="0.3">
        <g id="Group_9702" data-name="Group 9702" transform="translate(0)">
          <path id="Path_29050" data-name="Path 29050" d="M212.638,156.79c-4.6-2.723-19.991-11.39-25.791-14.65a3.081,3.081,0,1,0-3.066,3.31,3.119,3.119,0,0,0,1.407-.349c5.793,3.251,21.151,11.9,25.721,14.607,1.867,1.109,2.9,2.245,2.895,3.212,0,1.19-1.489,2.75-4.082,4.277-3.508,2.069-20.856,12.109-50.172,29.033l-1.094.634c-3.753,2.165-6.33.792-10.23-1.284-.5-.268-1-.536-1.516-.8-3.683-1.9-21.775-12.216-29.382-16.562a1.7,1.7,0,1,0-1.682,2.944c7.627,4.358,25.77,14.706,29.511,16.634.5.256.992.519,1.472.773,2.572,1.372,5.2,2.776,8.184,2.776a10.52,10.52,0,0,0,5.34-1.541l1.094-.634c29.323-16.93,46.682-26.978,50.2-29.048,3.812-2.245,5.747-4.668,5.75-7.2C217.2,160.646,215.665,158.582,212.638,156.79Z" transform="translate(-114.791 -139.273)" fill="#1951de"/>
        </g>
      </g>
      <g id="Group_9713" data-name="Group 9713" transform="translate(29.279 171.066)">
        <g id="Group_9704" data-name="Group 9704">
          <path id="Path_29051" data-name="Path 29051" d="M54.258,135.164a14.605,14.605,0,0,1-13.2,0l-12.949-7.475c-3.642-2.11-3.642-5.518,0-7.621L41.06,112.59a14.6,14.6,0,0,1,13.2,0l12.949,7.478c3.642,2.1,3.642,5.511,0,7.621Z" transform="translate(-25.379 -111.013)" fill="#76db26"/>
        </g>
        <g id="Group_9705" data-name="Group 9705" transform="translate(37.505 22.837)">
          <path id="Path_29052" data-name="Path 29052" d="M76.375,148.631a14.606,14.606,0,0,1-13.2,0l-12.949-7.475c-3.642-2.109-3.642-5.518,0-7.624l12.949-7.475a14.6,14.6,0,0,1,13.2,0l12.949,7.475c3.642,2.106,3.642,5.515,0,7.624Z" transform="translate(-47.496 -124.48)" fill="#ed1c24"/>
        </g>
        <g id="Group_9706" data-name="Group 9706" transform="translate(75.473 44.583)">
          <path id="Path_29053" data-name="Path 29053" d="M98.764,161.453a14.6,14.6,0,0,1-13.2,0l-12.947-7.475c-3.644-2.1-3.644-5.513,0-7.619l12.947-7.477a14.585,14.585,0,0,1,13.2,0l12.947,7.477c3.646,2.106,3.646,5.516,0,7.619Z" transform="translate(-69.886 -137.304)" fill="#58dfec"/>
        </g>
        <g id="Group_9707" data-name="Group 9707" transform="translate(114.91 66.595)">
          <path id="Path_29054" data-name="Path 29054" d="M122.024,174.434a14.6,14.6,0,0,1-13.2,0l-12.949-7.475c-3.646-2.1-3.646-5.516,0-7.622l12.949-7.475a14.6,14.6,0,0,1,13.2,0l12.947,7.475c3.642,2.106,3.642,5.518,0,7.622Z" transform="translate(-93.143 -150.285)" fill="#58dfec"/>
        </g>
        <g id="Group_9708" data-name="Group 9708" transform="translate(11.936 5.347)">
          <path id="Path_29055" data-name="Path 29055" d="M59.345,122.626c0-1.073-1.5-1.94-3.363-1.94L39.14,122.4l1.784-6.295c0-1.072-1.5-1.94-3.363-1.94s-3.361.868-3.361,1.94l-1.782,8.235a1.69,1.69,0,0,0,.984,1.377,4.837,4.837,0,0,0,2.376.563l20.2-1.714C57.841,124.566,59.346,123.7,59.345,122.626Z" transform="translate(-32.418 -114.166)" fill="#fff"/>
        </g>
        <path id="Path_29056" data-name="Path 29056" d="M98.779,147.174c.424-.244.973-.51,1.616-.814,3.163-1.511,2.891-3.675,1.48-4.487-1.808-1.046-3.653.022-6.451,1.635l-.414.237c-.673.317-4.133.273-5.8.093a1.72,1.72,0,0,0-1-1.358l-1.933-1.116a5.4,5.4,0,0,0-4.86,0l-7.783,4.494c-1.338.772-1.338,2.032,0,2.806l1.933,1.116a4.955,4.955,0,0,0,2.306.566c1.062,1.524,4.168,3.473,6.125,4.6,1.477.855,4.94,2.851,7.834,1.426a4.6,4.6,0,0,0,.663-.39A5.642,5.642,0,0,0,95.8,155.4a4.121,4.121,0,0,0,.887-.661,5.2,5.2,0,0,0,2.418-.627,1.588,1.588,0,0,0,.985-1.709,4.673,4.673,0,0,0,.707-.336c1.153-.668,1.243-1.653.743-2.208a3.059,3.059,0,0,0-1.012-.794c-.531-.324-1.586-.96-1.976-1.187a1.091,1.091,0,0,1-.358-.263C98.2,147.6,98.245,147.482,98.779,147.174ZM75.62,147l7.783-4.494a1,1,0,0,1,.9,0l1.933,1.116a.274.274,0,0,1,0,.517l-7.792,4.5a1,1,0,0,1-.89,0l-1.935-1.116A.274.274,0,0,1,75.62,147Zm20.949,2.023c.385.217,1.414.841,1.931,1.156a1.636,1.636,0,0,1,.49.351c.132.292-.337.548-.566.533a1.882,1.882,0,0,0-1.528.4c-.3.312-.2.7.241.958.256.149.249.39-.015.544a1.2,1.2,0,0,1-.89.117,2.3,2.3,0,0,0-1.4.07c-.059.027-.115.054-.164.083-.292.17-.437.4-.383.639-.014.037-.124.18-.471.378a1.369,1.369,0,0,1-1.031.071,2.254,2.254,0,0,0-1.218-.142,1.4,1.4,0,0,0-.941.468,1.485,1.485,0,0,1-.6.492c-.929.454-3.11-.8-4.041-1.341-3.18-1.837-4.979-3.286-5.516-4.046l7.677-4.433c2.483.375,7.3.453,8.835-.431l.424-.246c1-.577,2.026-1.168,2.63-1.428.142.4-.014,1.219-1.423,1.887-.721.346-1.338.648-1.813.923C95,147.067,94.923,148.076,96.57,149.025Z" transform="translate(7.5 -90.298)" fill="#fff"/>
        <g id="Group_9709" data-name="Group 9709" transform="translate(120.077 72.228)">
          <path id="Path_29057" data-name="Path 29057" d="M114.33,170.48a1.99,1.99,0,0,1-.945.239,2.045,2.045,0,0,1-1.036-.239L96.6,161.387a.679.679,0,0,1-.41-.6.773.773,0,0,1,.478-.58l12.657-6.4a2.2,2.2,0,0,1,1.913.037l14.18,8.184c.519.3.546.783.063,1.106l-11.088,7.307A.482.482,0,0,1,114.33,170.48Zm-14.692-9.625,13.635,7.872,9.237-6.089-12.325-7.115Z" transform="translate(-96.19 -153.607)" fill="#fff"/>
        </g>
        <g id="Group_9710" data-name="Group 9710" transform="translate(136.658 72.067)">
          <path id="Path_29058" data-name="Path 29058" d="M117.781,159.415l-2.9,1.67a2.177,2.177,0,0,1-1.979,0,.6.6,0,0,1,0-1.145l2.895-1.672a1.311,1.311,0,0,0,0-2.483l-.246-.141a4.749,4.749,0,0,0-4.3,0l-2.895,1.67a2.181,2.181,0,0,1-1.981,0,.6.6,0,0,1,0-1.143l2.895-1.674a9.142,9.142,0,0,1,8.263,0l.246.142C120.057,155.956,120.057,158.1,117.781,159.415Z" transform="translate(-105.968 -153.512)" fill="#fff"/>
        </g>
        <g id="Group_9711" data-name="Group 9711" transform="translate(126.134 75.499)">
          <path id="Path_29059" data-name="Path 29059" d="M111.329,165.639a2.15,2.15,0,0,1-1.979,0l-9.177-5.3a.677.677,0,0,1-.41-.594.776.776,0,0,1,.473-.58l6.724-3.429a2.212,2.212,0,0,1,1.916.032l8.392,4.845c.524.3.548.79.061,1.109l-5.938,3.88A.32.32,0,0,1,111.329,165.639Zm-8.126-5.83,7.073,4.083,4.082-2.669-6.53-3.771Z" transform="translate(-99.762 -155.536)" fill="#fff"/>
        </g>
        <g id="Group_9712" data-name="Group 9712" transform="translate(48.506 26.775)">
          <path id="Path_29060" data-name="Path 29060" d="M77.94,140.337h0q-.387.224-.831.429c-3.186,1.484-7.867,1.9-12.214,1.085a36.933,36.933,0,0,0-7.453-.436,2.81,2.81,0,0,1-1.467-.293.923.923,0,0,1-.571-.834,9.308,9.308,0,0,0-.765-4.377c-1.324-2.6-.617-5.225,1.9-7.025a13.411,13.411,0,0,1,12.138-1.129c2.16.975,3.344,2.432,3.376,4.053a12.123,12.123,0,0,1,7.017,1.95C81.637,135.653,81.152,138.482,77.94,140.337Zm-18.792-1.109a39.807,39.807,0,0,1,6.9.573,15.312,15.312,0,0,0,8.723-.712c2.337-1.1,2.891-2.869,1.358-4.007-1.877-1.384-4.885-1.128-5.76-1.016a2.858,2.858,0,0,1-1.721-.29c-.451-.261-.641-.636-.5-1,.193-.505.638-2.242-1.765-3.324a7.674,7.674,0,0,0-6.936.785,3.747,3.747,0,0,0-1.219,5.06A9.671,9.671,0,0,1,59.148,139.228Z" transform="translate(-53.983 -126.803)" fill="#fff"/>
        </g>
      </g>
      <g id="Group_9714" data-name="Group 9714" transform="translate(20.439 70.398)">
        <path id="Path_29061" data-name="Path 29061" d="M45.977,64.462a2.511,2.511,0,0,0,1.987.588,5.231,5.231,0,0,0,2.142-.736,9.47,9.47,0,0,0,2.142-1.736,11.315,11.315,0,0,0,1.979-2.89c-.051-1.085-.6-1.394-1.413-1.279a8.218,8.218,0,0,1-2.708,2.678,3.138,3.138,0,0,1-2.708.449A4.394,4.394,0,0,0,45.977,64.462Z" transform="translate(-2.208 -46.958)" fill="#fff" opacity="0.8"/>
        <path id="Path_29062" data-name="Path 29062" d="M20.166,86.219V97.206c0,1.592,1.289,2.137,2.881,1.216L73.163,69.489c.01,0,.01.014.01.032,2.344,1.574,5.328-.934,5.328-.934-1.613-.041-1.9-1.016-1.9-1.718a2.746,2.746,0,0,1,.1-.727,4.385,4.385,0,0,0,.47-1.847V53.31c0-1.584-1.287-2.137-2.879-1.218L23.047,81.675A5.988,5.988,0,0,0,20.166,86.219ZM62.032,67.464c0-3.305,2.679-7.531,5.984-9.437s5.991-.78,5.991,2.523S71.33,68.09,68.017,70,62.032,70.776,62.032,67.464Z" transform="translate(-20.166 -51.648)" fill="#fff" opacity="0.2"/>
        <path id="Path_29063" data-name="Path 29063" d="M46.842,60.506c0,1.056.614,1.614,1.506,1.531a2.786,2.786,0,0,0,1.153-.4,4.984,4.984,0,0,0,1.153-.934,5.2,5.2,0,0,0,1.506-3.271c0-1.469-1.19-1.972-2.659-1.123A5.514,5.514,0,0,0,46.842,60.506Z" transform="translate(-1.606 -48.689)" fill="#fff" opacity="0.8"/>
        <path id="Path_29064" data-name="Path 29064" d="M37.737,67.211,23.313,75.539V73.3l14.424-8.328Z" transform="translate(-17.976 -42.378)" fill="#fff"/>
        <path id="Path_29065" data-name="Path 29065" d="M32.036,72.7l-8.722,5.036V75.494l8.722-5.036Z" transform="translate(-17.976 -38.56)" fill="#58dfec"/>
        <path id="Path_29066" data-name="Path 29066" d="M57.162,66.43,23.313,85.973V83.732L57.162,64.189Z" transform="translate(-17.976 -42.922)" fill="#58dfec"/>
      </g>
      <g id="Group_9715" data-name="Group 9715" transform="translate(19.773 94.142)">
        <path id="Path_29067" data-name="Path 29067" d="M31.707,86.828A11.609,11.609,0,0,1,29.726,89.7a9.479,9.479,0,0,1-2.133,1.73,5.258,5.258,0,0,1-2.135.734,2.427,2.427,0,0,1-1.972-.6,4.363,4.363,0,0,1,1.407-2.9,3.136,3.136,0,0,0,2.7-.448,8.233,8.233,0,0,0,2.7-2.667C31.113,85.431,31.649,85.741,31.707,86.828Z" transform="translate(-17.19 -51.82)" fill="#fff" opacity="0.8"/>
        <path id="Path_29068" data-name="Path 29068" d="M75.031,66.093,23.975,95.572a5.956,5.956,0,0,0-2.869,4.528v10.946a1.719,1.719,0,0,0,.468,1.3,1.578,1.578,0,0,1,.095.614c0,.7-.285,2-1.9,3.9,0,0,2.976-.934,5.313-5.2a.077.077,0,0,1,.008-.044L75.031,82.781A5.939,5.939,0,0,0,77.9,78.253V67.307C77.9,65.728,76.621,65.177,75.031,66.093ZM30.222,106.2c-3.3,1.906-5.969.777-5.969-2.525s2.669-7.5,5.969-9.408,5.962-.772,5.962,2.52S33.515,104.3,30.222,106.2Z" transform="translate(-19.773 -65.65)" fill="#fff" opacity="0.2"/>
        <path id="Path_29069" data-name="Path 29069" d="M29.649,84.576a5.175,5.175,0,0,1-1.5,3.259A5.034,5.034,0,0,1,27,88.766a2.8,2.8,0,0,1-1.148.4c-.89.083-1.5-.473-1.5-1.524A5.5,5.5,0,0,1,27,83.455C28.46,82.611,29.649,83.113,29.649,84.576Z" transform="translate(-16.591 -53.547)" fill="#fff" opacity="0.8"/>
        <path id="Path_29070" data-name="Path 29070" d="M50.187,75.226,31.092,86.25V84.018l19.1-11.026Z" transform="translate(-11.898 -60.541)" fill="#fff"/>
        <path id="Path_29071" data-name="Path 29071" d="M64.818,73.776,31.092,93.249V91.017L64.818,71.544Z" transform="translate(-11.898 -61.549)" fill="#58dfec"/>
        <path id="Path_29072" data-name="Path 29072" d="M56.606,78.851,31.092,93.583V91.351L56.606,76.619Z" transform="translate(-11.898 -58.018)" fill="#58dfec"/>
      </g>
      <g id="Group_9717" data-name="Group 9717" transform="translate(243.133 93.287)">
        <g id="Group_9716" data-name="Group 9716" transform="translate(0 0.936)" opacity="0.9">
          <path id="Path_29073" data-name="Path 29073" d="M185.167,84.036v5.418L153.4,71.134l.02-5.437Z" transform="translate(-150.163 -65.697)" fill="#fff" opacity="0.5"/>
          <path id="Path_29074" data-name="Path 29074" d="M159.952,76.128l-6.244-3.6c-1.175-.677-2.142-.127-2.145,1.224l-.02,7.171a4.726,4.726,0,0,0,2.132,3.715l6.24,3.6c1.2.688,2.164.139,2.167-1.234l.019-7.171A4.735,4.735,0,0,0,159.952,76.128Z" transform="translate(-151.455 -61.149)" fill="#fff" opacity="0.5"/>
          <path id="Path_29075" data-name="Path 29075" d="M168.052,80.807,161.809,77.2c-1.175-.677-2.142-.127-2.145,1.224l-.02,7.171a4.723,4.723,0,0,0,2.13,3.715l6.244,3.6c1.194.69,2.142.127,2.145-1.246l.02-7.171A4.681,4.681,0,0,0,168.052,80.807Z" transform="translate(-145.819 -57.895)" fill="#fff" opacity="0.5"/>
          <path id="Path_29076" data-name="Path 29076" d="M178.286,89.176l-.02,7.171a1.53,1.53,0,0,1-.661,1.423l-.176.059a1.6,1.6,0,0,1-1.306-.236l-6.256-3.605a4.744,4.744,0,0,1-2.123-3.722l.019-7.171a1.442,1.442,0,0,1,.663-1.384l.273-.1a1.727,1.727,0,0,1,1.207.273l6.237,3.605A4.65,4.65,0,0,1,178.286,89.176Z" transform="translate(-140.183 -54.641)" fill="#fff" opacity="0.5"/>
          <path id="Path_29077" data-name="Path 29077" d="M159.926,85.255l-6.242-3.6c-1.175-.678-2.143-.127-2.147,1.223l-.019,7.2a4.721,4.721,0,0,0,2.128,3.692l6.244,3.6c1.2.69,2.16.139,2.165-1.211l.02-7.2A4.73,4.73,0,0,0,159.926,85.255Z" transform="translate(-151.472 -54.8)" fill="#fff" opacity="0.5"/>
          <path id="Path_29078" data-name="Path 29078" d="M168.026,89.932l-6.244-3.6c-1.173-.678-2.14-.127-2.143,1.223l-.022,7.2a4.724,4.724,0,0,0,2.133,3.692l6.242,3.6c1.194.69,2.14.129,2.143-1.223l.022-7.2A4.688,4.688,0,0,0,168.026,89.932Z" transform="translate(-145.837 -51.546)" fill="#fff" opacity="0.5"/>
          <path id="Path_29079" data-name="Path 29079" d="M176.125,94.609l-6.24-3.6c-1.175-.68-2.143-.127-2.147,1.221l-.019,7.2a4.708,4.708,0,0,0,2.13,3.69l6.242,3.607c1.2.688,2.142.125,2.147-1.226l.02-7.193A4.69,4.69,0,0,0,176.125,94.609Z" transform="translate(-140.2 -48.292)" fill="#fff" opacity="0.5"/>
          <path id="Path_29080" data-name="Path 29080" d="M159.9,94.379l-6.24-3.6c-1.175-.678-2.142-.127-2.145,1.246l-.022,7.171a4.718,4.718,0,0,0,2.132,3.693l6.244,3.6c1.194.69,2.159.139,2.162-1.212l.022-7.173A4.728,4.728,0,0,0,159.9,94.379Z" transform="translate(-151.491 -48.451)" fill="#fff" opacity="0.5"/>
          <path id="Path_29081" data-name="Path 29081" d="M168,99.056l-6.242-3.6c-1.175-.678-2.143-.127-2.147,1.245l-.019,7.171a4.721,4.721,0,0,0,2.133,3.7l6.239,3.6c1.2.688,2.143.129,2.147-1.224l.02-7.173A4.69,4.69,0,0,0,168,99.056Z" transform="translate(-145.855 -45.197)" fill="#fff" opacity="0.5"/>
          <path id="Path_29082" data-name="Path 29082" d="M176.1,103.732l-6.24-3.6c-1.175-.675-2.142-.125-2.145,1.246l-.022,7.175a4.719,4.719,0,0,0,2.132,3.69l6.244,3.6c1.194.69,2.142.127,2.143-1.219l.022-7.176A4.705,4.705,0,0,0,176.1,103.732Z" transform="translate(-140.219 -41.943)" fill="#fff" opacity="0.5"/>
        </g>
        <path id="Path_29083" data-name="Path 29083" d="M187.693,83.486V88.9l-2.534.936V84.42L153.412,66.081l2.534-.936Z" transform="translate(-150.154 -65.146)" fill="#fff" opacity="0.2"/>
        <path id="Path_29084" data-name="Path 29084" d="M180.428,88.621l-.02,7.171a1.419,1.419,0,0,1-.817,1.463l-.041.019a.133.133,0,0,1-.095.039l-2.242.838a1.53,1.53,0,0,0,.661-1.423l.02-7.171a4.65,4.65,0,0,0-2.143-3.683l-6.237-3.605A1.727,1.727,0,0,0,168.307,82l2.455-.9a1.546,1.546,0,0,1,1.287.234l6.235,3.605A4.65,4.65,0,0,1,180.428,88.621Z" transform="translate(-139.791 -54.086)" fill="#fff" opacity="0.2"/>
        <path id="Path_29085" data-name="Path 29085" d="M172.325,83.942l-.019,7.171a1.42,1.42,0,0,1-.819,1.463l-.037.019a.159.159,0,0,1-.1.039l-2.24.838a1.532,1.532,0,0,0,.663-1.423l.019-7.171a4.65,4.65,0,0,0-2.143-3.683l-6.237-3.605a1.729,1.729,0,0,0-1.207-.273l2.455-.9a1.542,1.542,0,0,1,1.285.234l6.237,3.605A4.652,4.652,0,0,1,172.325,83.942Z" transform="translate(-145.429 -57.341)" fill="#fff" opacity="0.2"/>
        <path id="Path_29086" data-name="Path 29086" d="M172.3,93.068l-.02,7.173a1.417,1.417,0,0,1-.817,1.46l-.037.02a.158.158,0,0,1-.1.039l-2.242.838a1.534,1.534,0,0,0,.663-1.423L169.766,94a4.653,4.653,0,0,0-2.143-3.685l-6.235-3.605a1.731,1.731,0,0,0-1.209-.273l2.455-.9a1.551,1.551,0,0,1,1.287.234l6.235,3.605A4.655,4.655,0,0,1,172.3,93.068Z" transform="translate(-145.447 -50.992)" fill="#fff" opacity="0.2"/>
        <path id="Path_29087" data-name="Path 29087" d="M172.275,102.193l-.02,7.173a1.421,1.421,0,0,1-.817,1.462l-.041.02a.161.161,0,0,1-.095.037l-2.243.838a1.534,1.534,0,0,0,.663-1.423l.02-7.171a4.654,4.654,0,0,0-2.143-3.683l-6.237-3.605a1.74,1.74,0,0,0-1.209-.273l2.455-.9a1.547,1.547,0,0,1,1.287.234l6.237,3.605A4.654,4.654,0,0,1,172.275,102.193Z" transform="translate(-145.465 -44.643)" fill="#fff" opacity="0.2"/>
        <path id="Path_29088" data-name="Path 29088" d="M164.185,97.515l-.019,7.173a1.418,1.418,0,0,1-.819,1.463l-.039.019a.137.137,0,0,1-.1.037l-2.242.838a1.526,1.526,0,0,0,.663-1.421l.019-7.173a4.65,4.65,0,0,0-2.143-3.683l-6.237-3.605a1.739,1.739,0,0,0-1.209-.273l2.459-.9a1.532,1.532,0,0,1,1.284.232l6.237,3.605A4.652,4.652,0,0,1,164.185,97.515Z" transform="translate(-151.094 -47.897)" fill="#fff" opacity="0.2"/>
        <path id="Path_29089" data-name="Path 29089" d="M164.21,88.391l-.017,7.173a1.416,1.416,0,0,1-.821,1.46l-.037.02a.153.153,0,0,1-.1.039L161,97.921a1.537,1.537,0,0,0,.661-1.423l.019-7.173a4.654,4.654,0,0,0-2.145-3.683L153.3,82.037a1.736,1.736,0,0,0-1.207-.273l2.455-.9a1.54,1.54,0,0,1,1.285.232l6.237,3.605A4.66,4.66,0,0,1,164.21,88.391Z" transform="translate(-151.075 -54.246)" fill="#fff" opacity="0.2"/>
        <path id="Path_29090" data-name="Path 29090" d="M164.238,79.264l-.02,7.173A1.414,1.414,0,0,1,163.4,87.9l-.039.02a.153.153,0,0,1-.1.037l-2.24.838a1.53,1.53,0,0,0,.663-1.423L161.7,80.2a4.652,4.652,0,0,0-2.143-3.683l-6.237-3.605a1.738,1.738,0,0,0-1.207-.273l2.454-.9a1.551,1.551,0,0,1,1.287.234l6.237,3.605A4.654,4.654,0,0,1,164.238,79.264Z" transform="translate(-151.057 -60.595)" fill="#fff" opacity="0.2"/>
        <path id="Path_29091" data-name="Path 29091" d="M180.4,97.745l-.02,7.171a1.408,1.408,0,0,1-.817,1.46l-.041.02a.149.149,0,0,1-.1.039l-2.24.838a1.531,1.531,0,0,0,.663-1.419l.02-7.173A4.659,4.659,0,0,0,175.723,95l-6.237-3.605a1.729,1.729,0,0,0-1.207-.273l2.455-.9a1.549,1.549,0,0,1,1.285.234l6.237,3.607A4.653,4.653,0,0,1,180.4,97.745Z" transform="translate(-139.811 -47.738)" fill="#fff" opacity="0.2"/>
        <path id="Path_29092" data-name="Path 29092" d="M180.374,106.87l-.019,7.171a1.417,1.417,0,0,1-.819,1.463l-.037.019a.141.141,0,0,1-.1.037l-2.24.843a1.539,1.539,0,0,0,.661-1.426l.02-7.17a4.657,4.657,0,0,0-2.143-3.687l-6.237-3.6a1.74,1.74,0,0,0-1.207-.275l2.455-.894a1.54,1.54,0,0,1,1.285.231l6.237,3.609A4.647,4.647,0,0,1,180.374,106.87Z" transform="translate(-139.829 -41.389)" fill="#fff" opacity="0.2"/>
      </g>
      <g id="Group_9720" data-name="Group 9720" transform="translate(83.908 24.698)">
        <path id="Path_29093" data-name="Path 29093" d="M129.5,25.815,128.04,24.9l-.015.008a2.677,2.677,0,0,0-2.586.324L61.072,62.391a7.216,7.216,0,0,0-3.478,5.487v34.793a1.9,1.9,0,0,0,.873,1.781l0,.017.856.47-.115-.271a3.37,3.37,0,0,0,1.862-.526L125.439,66.98a7.219,7.219,0,0,0,3.481-5.489V26.7a2.591,2.591,0,0,0-.156-.883Z" transform="translate(-57.594 -24.698)" fill="#163fa1"/>
        <path id="Path_29094" data-name="Path 29094" d="M129.662,61.963a7.222,7.222,0,0,1-3.48,5.489L61.816,104.615c-1.921,1.109-3.48.449-3.48-1.47v-34.8a7.216,7.216,0,0,1,3.48-5.487L126.183,25.7c1.921-1.109,3.48-.449,3.48,1.472Z" transform="translate(-57.078 -24.377)" fill="url(#linear-gradient-9)"/>
        <path id="Path_29095" data-name="Path 29095" d="M98.8,48.7c0,2.678-2.172,6.1-4.848,7.648s-4.85.627-4.85-2.05,2.171-6.1,4.85-7.648S98.8,46.018,98.8,48.7Z" transform="translate(-35.669 -9.95)" fill="#fcf586" opacity="0.5"/>
        <path id="Path_29096" data-name="Path 29096" d="M102.339,46.654c0,2.678-2.169,6.1-4.846,7.648s-4.848.629-4.848-2.048,2.171-6.1,4.848-7.648S102.339,43.976,102.339,46.654Z" transform="translate(-33.208 -11.371)" fill="#ed1c24"/>
        <g id="Group_9718" data-name="Group 9718" transform="translate(5.274 41.515)" opacity="0.8">
          <path id="Path_29097" data-name="Path 29097" d="M65.3,53.079a3.167,3.167,0,0,1,2.225-.521l.11-.064V50.327l-4.675,2.7v2.167l.115-.068A7.34,7.34,0,0,1,65.3,53.079Z" transform="translate(-59.134 -48.382)" fill="url(#linear-gradient-10)"/>
          <path id="Path_29098" data-name="Path 29098" d="M60.7,54.659v1.514l3.319-1.916V52.092l-2.708,1.563A1.294,1.294,0,0,0,60.7,54.659Z" transform="translate(-60.704 -47.154)" fill="url(#linear-gradient-11)"/>
          <path id="Path_29099" data-name="Path 29099" d="M60.7,58.077l3.271-1.887a1.393,1.393,0,0,1-.288-.931,3.5,3.5,0,0,1,.336-1.387V53.69L60.7,55.6Z" transform="translate(-60.704 -46.042)" fill="url(#linear-gradient-12)"/>
          <path id="Path_29100" data-name="Path 29100" d="M60.7,59.171c0,.366.275.493.61.3l2.708-1.563v-2.44L60.7,57.383Z" transform="translate(-60.704 -44.806)" fill="url(#linear-gradient-13)"/>
          <path id="Path_29101" data-name="Path 29101" d="M62.96,56.5v2.269l4.675-2.7V53.807A7.309,7.309,0,0,1,65.3,56.015,2.969,2.969,0,0,1,62.96,56.5Z" transform="translate(-59.134 -45.961)" fill="url(#linear-gradient-14)"/>
          <path id="Path_29102" data-name="Path 29102" d="M68.722,49.27l-2.706,1.563V53l3.319-1.916V49.57C69.335,49.2,69.058,49.077,68.722,49.27Z" transform="translate(-57.008 -49.18)" fill="url(#linear-gradient-15)"/>
          <path id="Path_29103" data-name="Path 29103" d="M66.016,52.708a1.451,1.451,0,0,1,.343,1.009,3.427,3.427,0,0,1-.281,1.26L69.335,53.1V50.622l-3.319,1.916Z" transform="translate(-57.008 -48.177)" fill="url(#linear-gradient-16)"/>
          <path id="Path_29104" data-name="Path 29104" d="M66.016,56.758l2.706-1.563a1.3,1.3,0,0,0,.612-1.006V52.4l-3.319,1.916Z" transform="translate(-57.008 -46.94)" fill="url(#linear-gradient-17)"/>
          <path id="Path_29105" data-name="Path 29105" d="M67.449,52.074a1.369,1.369,0,0,0-.751-.107,3.245,3.245,0,0,0-1.285.453,5.806,5.806,0,0,0-1.282,1.029,5.744,5.744,0,0,0-.758.978,3.931,3.931,0,0,0-.3.578,2.819,2.819,0,0,0-.275,1.131,1.144,1.144,0,0,0,.275.812.212.212,0,0,0,.08.08.934.934,0,0,0,.517.242,2.713,2.713,0,0,0,1.743-.446,5.928,5.928,0,0,0,1.735-1.563,4.518,4.518,0,0,0,.521-.841l.08-.046v-.124a2.82,2.82,0,0,0,.275-1.129,1.175,1.175,0,0,0-.275-.816A.827.827,0,0,0,67.449,52.074Z" transform="translate(-59.247 -47.248)" fill="url(#linear-gradient-18)"/>
          <path id="Path_29106" data-name="Path 29106" d="M66.016,53.331c.019-.044.042-.092.061-.141l-.061.036Z" transform="translate(-57.008 -46.39)" fill="url(#linear-gradient-19)"/>
        </g>
        <g id="Group_9719" data-name="Group 9719" transform="translate(52.636 6.159)" opacity="0.8">
          <path id="Path_29107" data-name="Path 29107" d="M88.634,33.833a12.035,12.035,0,0,1,1.323-.88,2.316,2.316,0,0,1,1.54-.482c.292.047.466.28.466.722a2.7,2.7,0,0,1-.95,1.777v.017c.534-.173,1.157-.092,1.157.739a2.618,2.618,0,0,1-.475,1.4,5.644,5.644,0,0,1-1.937,1.645,12.528,12.528,0,0,1-1.124.582Zm.722,1.879.658-.38a2.149,2.149,0,0,0,1.214-1.64c0-.658-.5-.629-1.231-.207a5.335,5.335,0,0,0-.641.422Zm0,2.688a5.2,5.2,0,0,0,.609-.317,2.468,2.468,0,0,0,1.44-1.921c0-.766-.656-.7-1.448-.246l-.6.346Z" transform="translate(-88.634 -25.464)" fill="#fff"/>
          <path id="Path_29108" data-name="Path 29108" d="M93.641,35.834l-.061-.473-.022.015a3.317,3.317,0,0,1-1.233,1.309c-.814.47-1.231.136-1.231-.446,0-.973.863-2.006,2.42-2.895v-.083c0-.336-.09-.88-.914-.405a4.123,4.123,0,0,0-1.05.906l-.164-.387a5,5,0,0,1,1.323-1.121c1.229-.712,1.531-.044,1.531.763v1.506a5.087,5.087,0,0,0,.066.928Zm-.11-1.993c-.8.444-1.706,1.111-1.706,1.892,0,.473.319.516.694.3a2.2,2.2,0,0,0,.973-1.235,1.147,1.147,0,0,0,.039-.256Z" transform="translate(-86.922 -25.81)" fill="#fff"/>
          <path id="Path_29109" data-name="Path 29109" d="M93.659,32.954c0-.417-.005-.753-.032-1.072l.649-.375.042.643.017-.01a3.247,3.247,0,0,1,1.331-1.524c.556-.324,1.423-.49,1.423.892v2.4l-.734.422v-2.32c0-.649-.239-1.053-.931-.653a2.282,2.282,0,0,0-.982,1.314,1.393,1.393,0,0,0-.049.371v2.422l-.734.422Z" transform="translate(-85.16 -26.896)" fill="#fff"/>
          <path id="Path_29110" data-name="Path 29110" d="M97.1,32.057l.017-.008c.1-.2.241-.454.356-.665l1.184-2.072.88-.509-1.555,2.554,1.772,1.348-.889.516-1.392-1.128-.373.631V34.24l-.724.415V28.747l.724-.417Z" transform="translate(-83.25 -28.33)" fill="#fff"/>
        </g>
        <path id="Path_29111" data-name="Path 29111" d="M63.616,60.669a3.374,3.374,0,0,1-1.55,3.081c-.872.5-1.462.086-1.475-1.277a3.455,3.455,0,0,1,1.55-3.049C63.08,58.881,63.616,59.349,63.616,60.669ZM61.195,62.13c0,1.078.356,1.484.9,1.167a2.481,2.481,0,0,0,.914-2.254c0-1.021-.283-1.526-.907-1.167A2.552,2.552,0,0,0,61.195,62.13Z" transform="translate(-55.509 -0.692)" fill="#fff" opacity="0.8"/>
        <path id="Path_29112" data-name="Path 29112" d="M65.691,59.471a3.368,3.368,0,0,1-1.55,3.079c-.872.5-1.46.085-1.475-1.275a3.462,3.462,0,0,1,1.55-3.051C65.157,57.684,65.691,58.152,65.691,59.471Zm-2.422,1.46c0,1.077.356,1.484.907,1.167a2.484,2.484,0,0,0,.911-2.254c0-1.019-.28-1.526-.906-1.167A2.554,2.554,0,0,0,63.27,60.931Z" transform="translate(-54.065 -1.526)" fill="#fff" opacity="0.8"/>
        <path id="Path_29113" data-name="Path 29113" d="M67.767,58.272a3.372,3.372,0,0,1-1.55,3.081c-.87.5-1.462.085-1.475-1.279a3.463,3.463,0,0,1,1.55-3.049C67.233,56.483,67.767,56.953,67.767,58.272Zm-2.42,1.462c0,1.077.356,1.482.906,1.167a2.484,2.484,0,0,0,.911-2.254c0-1.021-.281-1.528-.9-1.167A2.55,2.55,0,0,0,65.347,59.734Z" transform="translate(-52.621 -2.36)" fill="#fff" opacity="0.8"/>
        <path id="Path_29114" data-name="Path 29114" d="M69.843,57.074a3.371,3.371,0,0,1-1.552,3.079c-.87.5-1.46.086-1.474-1.277a3.461,3.461,0,0,1,1.55-3.049C69.309,55.285,69.843,55.753,69.843,57.074Zm-2.422,1.46c0,1.078.358,1.484.907,1.167a2.488,2.488,0,0,0,.911-2.254c0-1.019-.281-1.526-.9-1.167A2.548,2.548,0,0,0,67.422,58.534Z" transform="translate(-51.176 -3.194)" fill="#fff" opacity="0.8"/>
        <path id="Path_29115" data-name="Path 29115" d="M73.635,54.883a3.379,3.379,0,0,1-1.55,3.083c-.87.5-1.462.083-1.475-1.279a3.455,3.455,0,0,1,1.55-3.049C73.1,53.1,73.635,53.564,73.635,54.883Zm-2.42,1.463c0,1.075.354,1.482.9,1.165a2.48,2.48,0,0,0,.912-2.254c0-1.021-.281-1.528-.906-1.167A2.553,2.553,0,0,0,71.215,56.347Z" transform="translate(-48.538 -4.717)" fill="#fff" opacity="0.8"/>
        <path id="Path_29116" data-name="Path 29116" d="M75.712,53.686a3.368,3.368,0,0,1-1.55,3.079c-.872.5-1.462.086-1.477-1.275a3.454,3.454,0,0,1,1.552-3.049C75.176,51.9,75.712,52.367,75.712,53.686Zm-2.422,1.46c0,1.078.356,1.484.906,1.168a2.487,2.487,0,0,0,.911-2.254c0-1.021-.28-1.528-.9-1.168A2.556,2.556,0,0,0,73.29,55.146Z" transform="translate(-47.095 -5.551)" fill="#fff" opacity="0.8"/>
        <path id="Path_29117" data-name="Path 29117" d="M77.786,52.488a3.372,3.372,0,0,1-1.548,3.079c-.872.5-1.463.086-1.475-1.277a3.461,3.461,0,0,1,1.55-3.049C77.251,50.7,77.786,51.167,77.786,52.488Zm-2.42,1.46c0,1.078.356,1.484.906,1.167a2.481,2.481,0,0,0,.911-2.255c0-1.017-.281-1.524-.9-1.165A2.55,2.55,0,0,0,75.366,53.948Z" transform="translate(-45.649 -6.385)" fill="#fff" opacity="0.8"/>
        <path id="Path_29118" data-name="Path 29118" d="M79.862,51.287a3.373,3.373,0,0,1-1.55,3.083c-.87.5-1.46.085-1.474-1.279a3.463,3.463,0,0,1,1.55-3.049C79.329,49.5,79.862,49.968,79.862,51.287Zm-2.42,1.463c0,1.077.356,1.482.906,1.165a2.48,2.48,0,0,0,.912-2.254c0-1.019-.281-1.526-.906-1.165A2.548,2.548,0,0,0,77.442,52.751Z" transform="translate(-44.205 -7.219)" fill="#fff" opacity="0.8"/>
        <path id="Path_29119" data-name="Path 29119" d="M83.654,49.1a3.372,3.372,0,0,1-1.55,3.081c-.872.5-1.46.085-1.475-1.279a3.456,3.456,0,0,1,1.55-3.047C83.12,47.311,83.654,47.781,83.654,49.1Zm-2.422,1.46c0,1.078.356,1.484.906,1.167a2.477,2.477,0,0,0,.914-2.254c0-1.019-.282-1.526-.907-1.167A2.554,2.554,0,0,0,81.233,50.56Z" transform="translate(-41.568 -8.741)" fill="#fff" opacity="0.8"/>
        <path id="Path_29120" data-name="Path 29120" d="M85.73,47.9a3.372,3.372,0,0,1-1.55,3.081c-.872.5-1.46.085-1.475-1.279a3.458,3.458,0,0,1,1.55-3.047C85.2,46.113,85.73,46.581,85.73,47.9Zm-2.422,1.462c0,1.077.356,1.482.907,1.167a2.484,2.484,0,0,0,.911-2.254c0-1.021-.28-1.528-.9-1.167A2.55,2.55,0,0,0,83.309,49.362Z" transform="translate(-40.123 -9.575)" fill="#fff" opacity="0.8"/>
        <path id="Path_29121" data-name="Path 29121" d="M87.806,46.7a3.371,3.371,0,0,1-1.55,3.079c-.87.5-1.462.086-1.475-1.277a3.461,3.461,0,0,1,1.55-3.049C87.272,44.914,87.806,45.382,87.806,46.7Zm-2.42,1.46c0,1.078.356,1.484.906,1.167a2.486,2.486,0,0,0,.911-2.254c0-1.019-.282-1.526-.9-1.167A2.552,2.552,0,0,0,85.386,48.163Z" transform="translate(-38.679 -10.409)" fill="#fff" opacity="0.8"/>
        <path id="Path_29122" data-name="Path 29122" d="M89.882,45.5a3.372,3.372,0,0,1-1.55,3.081c-.872.5-1.462.086-1.475-1.277a3.459,3.459,0,0,1,1.55-3.049C89.348,43.716,89.882,44.184,89.882,45.5Zm-2.422,1.462c0,1.077.358,1.484.907,1.165a2.484,2.484,0,0,0,.911-2.254c0-1.019-.281-1.524-.9-1.165A2.544,2.544,0,0,0,87.461,46.965Z" transform="translate(-37.234 -11.243)" fill="#fff" opacity="0.8"/>
        <path id="Path_29123" data-name="Path 29123" d="M93.676,43.315a3.369,3.369,0,0,1-1.552,3.079c-.87.5-1.462.086-1.475-1.277A3.452,3.452,0,0,1,92.2,42.07C93.138,41.526,93.676,42,93.676,43.315Zm-2.422,1.46c0,1.078.354,1.484.9,1.168a2.484,2.484,0,0,0,.912-2.254c0-1.021-.282-1.528-.906-1.168A2.552,2.552,0,0,0,91.254,44.775Z" transform="translate(-34.596 -12.766)" fill="#fff" opacity="0.8"/>
        <path id="Path_29124" data-name="Path 29124" d="M95.75,42.117A3.369,3.369,0,0,1,94.2,45.2c-.872.5-1.462.086-1.475-1.277a3.457,3.457,0,0,1,1.55-3.049C95.214,40.328,95.75,40.8,95.75,42.117Zm-2.422,1.46c0,1.078.356,1.484.906,1.167a2.486,2.486,0,0,0,.911-2.254c0-1.019-.28-1.526-.9-1.167A2.554,2.554,0,0,0,93.329,43.577Z" transform="translate(-33.152 -13.6)" fill="#fff" opacity="0.8"/>
        <path id="Path_29125" data-name="Path 29125" d="M97.826,40.916A3.379,3.379,0,0,1,96.276,44c-.872.5-1.462.085-1.475-1.279a3.463,3.463,0,0,1,1.55-3.049C97.29,39.131,97.826,39.6,97.826,40.916ZM95.4,42.38c0,1.077.356,1.482.906,1.165a2.48,2.48,0,0,0,.911-2.254c0-1.019-.281-1.526-.9-1.165A2.548,2.548,0,0,0,95.4,42.38Z" transform="translate(-31.707 -14.434)" fill="#fff" opacity="0.8"/>
        <path id="Path_29126" data-name="Path 29126" d="M99.9,39.719a3.375,3.375,0,0,1-1.55,3.083c-.872.5-1.46.083-1.474-1.279a3.459,3.459,0,0,1,1.55-3.049C99.368,37.931,99.9,38.4,99.9,39.719ZM97.479,41.18c0,1.077.358,1.484.909,1.167a2.484,2.484,0,0,0,.911-2.254c0-1.021-.282-1.526-.906-1.167A2.553,2.553,0,0,0,97.479,41.18Z" transform="translate(-30.263 -15.268)" fill="#fff" opacity="0.8"/>
        <path id="Path_29127" data-name="Path 29127" d="M77.361,56.583a2.668,2.668,0,0,1-1.168,2.445c-.656.378-1.1.02-1.111-1.084a2.734,2.734,0,0,1,1.167-2.42C76.956,55.116,77.361,55.513,77.361,56.583Zm-1.825,1.1c0,.873.27,1.214.682.975a2,2,0,0,0,.688-1.8c0-.826-.212-1.246-.682-.975A2.044,2.044,0,0,0,75.536,57.687Z" transform="translate(-45.427 -3.36)" fill="#fff"/>
        <path id="Path_29128" data-name="Path 29128" d="M78.922,55.681a2.666,2.666,0,0,1-1.165,2.444c-.656.38-1.1.022-1.112-1.084a2.733,2.733,0,0,1,1.168-2.42C78.522,54.213,78.922,54.611,78.922,55.681Zm-1.821,1.1c0,.875.268,1.214.682.975a1.994,1.994,0,0,0,.687-1.8c0-.828-.212-1.246-.683-.975A2.051,2.051,0,0,0,77.1,56.784Z" transform="translate(-44.339 -3.989)" fill="#fff"/>
        <path id="Path_29129" data-name="Path 29129" d="M78.1,58.213l1.441-4.577.351-.2-1.445,4.58Z" transform="translate(-43.33 -4.705)" fill="#fff"/>
        <path id="Path_29130" data-name="Path 29130" d="M81.533,54.174a2.668,2.668,0,0,1-1.168,2.445c-.656.38-1.1.02-1.111-1.085a2.732,2.732,0,0,1,1.168-2.418C81.13,52.707,81.533,53.1,81.533,54.174Zm-1.825,1.1c0,.873.271,1.214.683.975a1.994,1.994,0,0,0,.687-1.8c0-.826-.212-1.248-.682-.975A2.046,2.046,0,0,0,79.708,55.278Z" transform="translate(-42.524 -5.036)" fill="#fff"/>
        <path id="Path_29131" data-name="Path 29131" d="M83.1,53.272a2.67,2.67,0,0,1-1.167,2.445c-.656.378-1.1.02-1.111-1.085a2.732,2.732,0,0,1,1.167-2.42C82.694,51.8,83.1,52.2,83.1,53.272Zm-1.823,1.1c0,.875.268,1.216.682.975a1.994,1.994,0,0,0,.687-1.794c0-.828-.21-1.248-.682-.977A2.053,2.053,0,0,0,81.272,54.375Z" transform="translate(-41.436 -5.665)" fill="#fff"/>
        <path id="Path_29132" data-name="Path 29132" d="M73.181,62.812l-12.541,7.24V67.678l12.541-7.24Z" transform="translate(-55.474 0.168)" fill="#fff" opacity="0.8"/>
        <path id="Path_29133" data-name="Path 29133" d="M105.588,55.043,60.641,80.994V78.62l44.947-25.95Z" transform="translate(-55.474 -5.237)" fill="#fff" opacity="0.8"/>
      </g>
      <g id="Group_9721" data-name="Group 9721" transform="translate(96.467 85.071)">
        <path id="Path_29134" data-name="Path 29134" d="M73.945,69.285c.687.292.687,1.4,0,2.489l-4.7,7.407,4.7,1.986c.687.29.687,1.4,0,2.488s-1.8,1.728-2.489,1.438l-5.94-2.511A.945.945,0,0,1,65,81.635a3.014,3.014,0,0,1,.516-1.543l5.94-9.369C72.142,69.637,73.257,68.995,73.945,69.285Z" transform="translate(-65 -54.099)" fill="#58dfec" opacity="0.6"/>
        <path id="Path_29135" data-name="Path 29135" d="M81.663,64.828c.688.29.688,1.4,0,2.489L76.97,74.724l4.694,1.986c.688.29.688,1.4,0,2.488s-1.8,1.728-2.488,1.436l-5.942-2.51a.944.944,0,0,1-.514-.948,2.994,2.994,0,0,1,.514-1.541l5.942-9.371C79.862,65.181,80.978,64.536,81.663,64.828Z" transform="translate(-59.629 -57.2)" fill="#58dfec" opacity="0.4"/>
        <path id="Path_29136" data-name="Path 29136" d="M89.386,60.371c.687.29.687,1.4,0,2.489l-4.7,7.407,4.7,1.984c.687.292.687,1.406,0,2.488s-1.8,1.73-2.489,1.438l-5.94-2.51a.947.947,0,0,1-.517-.948,3,3,0,0,1,.517-1.541l5.94-9.369C87.583,60.724,88.7,60.079,89.386,60.371Z" transform="translate(-54.258 -60.301)" fill="#58dfec" opacity="0.2"/>
      </g>
    </g>
  </g>
</svg>
