<svg xmlns="http://www.w3.org/2000/svg" xmlns:xlink="http://www.w3.org/1999/xlink" width="370" height="300" viewBox="0 0 370 300">
  <defs>
    <radialGradient id="radial-gradient" cx="0.5" cy="0.5" r="0.5" gradientUnits="objectBoundingBox">
      <stop offset="0" stop-color="#0094d6"/>
      <stop offset="1" stop-color="#002c9a"/>
    </radialGradient>
    <linearGradient id="linear-gradient" x1="0.773" y1="0.799" x2="1.896" y2="0.331" gradientUnits="objectBoundingBox">
      <stop offset="0" stop-color="#00dfff"/>
      <stop offset="0.652" stop-color="#00baff"/>
      <stop offset="1" stop-color="#00acff"/>
    </linearGradient>
  </defs>
  <g id="Group_14523" data-name="Group 14523" transform="translate(-375 -1831)">
    <g id="Group_8208" data-name="Group 8208" transform="translate(0 615)">
      <path id="Rectangle_645" data-name="Rectangle 645" d="M10,0H360a10,10,0,0,1,10,10V300a0,0,0,0,1,0,0H0a0,0,0,0,1,0,0V10A10,10,0,0,1,10,0Z" transform="translate(375 1216)" fill="url(#radial-gradient)"/>
    </g>
    <g id="Group_9329" data-name="Group 9329" transform="translate(776.02 1936.642)">
      <path id="Path_28050" data-name="Path 28050" d="M-199.079,181.156c-.248.149-.5.3-.744.445l-.4.243,5.479,2.954-11.9,7.7-5.553-3q-.537.361-1.073.725l54.906,29.609,1.175-.669-9.7-5.229,11.9-7.7,9.661,5.21,1.175-.669Zm-6.658,11.828,11.9-7.7,8,4.313-11.9,7.7Zm8.9,4.8,11.9-7.7,8.825,4.759-11.9,7.7Zm9.729,5.246,11.9-7.7,9.165,4.942-11.9,7.7Zm19.317,10.417-9.248-4.987,11.9-7.7,9.248,4.987Z" transform="translate(-42.465 -98.2)" fill="#c8e6eb"/>
      <path id="Path_28051" data-name="Path 28051" d="M-312.832,275.226c.152,1.816-2.473,3.973-5.864,4.817s-6.263.056-6.416-1.759,2.473-3.973,5.864-4.817S-312.985,273.41-312.832,275.226Z" transform="translate(-3.207 -130.481)" fill="#c8e6eb"/>
      <path id="Path_28052" data-name="Path 28052" d="M-247.412,261.872c-.152,1.816,2.473,3.973,5.864,4.817s6.263.056,6.415-1.76-2.473-3.973-5.864-4.817S-247.26,260.056-247.412,261.872Z" transform="translate(-30.479 -125.794)" fill="#c8e6eb"/>
      <g id="Group_9292" data-name="Group 9292" transform="translate(-334.256 -78.418)">
        <path id="Path_28053" data-name="Path 28053" d="M-243.144,146.583a1.892,1.892,0,0,0-1.9,0l-81.994,47.989a1.89,1.89,0,0,0,0,3.261l27.54,16.168a1.892,1.892,0,0,0,1.913,0l82.067-48.123a1.89,1.89,0,0,0-.006-3.265Z" transform="translate(332.052 -7.558)" fill="rgba(0,42,152,0.5)"/>
        <g id="Group_9280" data-name="Group 9280" transform="translate(32.412 139.735)">
          <g id="Group_9279" data-name="Group 9279" transform="translate(6.589 20.341)">
            <g id="Group_9278" data-name="Group 9278">
              <path id="Path_28054" data-name="Path 28054" d="M-234.285,179.156l-39.878,23.34,14.549,8.542,39.92-23.408Z" transform="translate(274.163 -179.156)" fill="#83a7fd"/>
              <path id="Path_28055" data-name="Path 28055" d="M-259.614,223.659l-14.549-8.542v2.335l14.551,8.542Z" transform="translate(274.163 -191.778)" fill="#2ab7f6"/>
              <path id="Path_28056" data-name="Path 28056" d="M-211.826,192.211l-39.92,23.408,0,2.335,39.918-23.419Z" transform="translate(266.295 -183.738)" fill="#111581"/>
            </g>
          </g>
          <path id="Path_28057" data-name="Path 28057" d="M-237.3,169.624c-10.664-5.67-8.1-13.9-7.155-15.524.336-.575,1.169-2.077,2.1-3.774l-.679-2.511-34.38,19.089s-4.517,8.213-5.406,9.864c-1.349,2.5-4.494,11.993,6.17,17.662l39.347-24.805Z" transform="translate(284.316 -147.815)" fill="#2ab7f6"/>
          <path id="Path_28058" data-name="Path 28058" d="M-234.559,169.323c-10.664-5.669-8.137-13.6-7.192-15.223.336-.575,1.169-2.077,2.1-3.774l-.678-2.511-33.757,20.031s-3.919,6.836-5.833,10.582c-.853,1.67-3.345,9.684,7.319,15.353l38-24.157Z" transform="translate(283.077 -147.815)" fill="#83a7fd"/>
        </g>
        <g id="Group_9281" data-name="Group 9281" transform="translate(35.022 139.735)">
          <path id="Path_28059" data-name="Path 28059" d="M-242.528,158.075a8.763,8.763,0,0,1,.95-3.975c.336-.575,1.169-2.077,2.1-3.774l-.678-2.511-33.757,20.031s-3.919,6.836-5.833,10.582a7.685,7.685,0,0,0-.552,1.537Z" transform="translate(280.295 -147.815)" fill="#83a7fd"/>
        </g>
        <g id="Group_9291" data-name="Group 9291">
          <path id="Path_28060" data-name="Path 28060" d="M-331.866-6.23l105.728-60.945a2.318,2.318,0,0,1,3.475,2.009V48.386a4.1,4.1,0,0,1-2.063,3.556l-106.062,60.6a2.318,2.318,0,0,1-3.468-2.013V-2.093A4.774,4.774,0,0,1-331.866-6.23Z" transform="translate(334.256 67.487)" fill="#3032bd"/>
          <path id="Path_28061" data-name="Path 28061" d="M-164.348-58.574l4.1,2.622v-8.536l-4.1-2.622Z" transform="translate(274.621 67.355)" fill="#111581"/>
          <path id="Path_28062" data-name="Path 28062" d="M-332.5,205.26l4.2,2.693v-8.536l-4.2-2.693Z" transform="translate(333.639 -25.246)" fill="#111581"/>
          <path id="Path_28063" data-name="Path 28063" d="M-325.591-2.169l105.728-60.945a2.319,2.319,0,0,1,3.476,2.009V52.447A4.1,4.1,0,0,1-218.45,56l-106.062,60.6a2.318,2.318,0,0,1-3.468-2.013V1.968A4.775,4.775,0,0,1-325.591-2.169Z" transform="translate(332.054 66.062)" fill="#6275f1"/>
          <path id="Path_28064" data-name="Path 28064" d="M-319.341,3.585l99.619-57.423a.887.887,0,0,1,1.33.768v94.8L-321.254,100.5V6.9A3.821,3.821,0,0,1-319.341,3.585Z" transform="translate(329.692 62.739)" fill="url(#linear-gradient)"/>
          <path id="Path_28065" data-name="Path 28065" d="M-312.106,9.334l90.3-52.051a.8.8,0,0,1,1.206.7V-30.3L-313.84,22.971V12.335A3.463,3.463,0,0,1-312.106,9.334Z" transform="translate(327.09 58.831)" fill="#111581"/>
          <path id="Path_28066" data-name="Path 28066" d="M-313.84,128.188-220.6,74.443V87.553l-93.239,53.272Z" transform="translate(327.09 17.672)" fill="#fff"/>
          <path id="Path_28067" data-name="Path 28067" d="M-306.565,89.454l38.656-22.512v28.84l-38.656,22.086Z" transform="translate(324.537 20.305)" fill="#111581"/>
          <path id="Path_28068" data-name="Path 28068" d="M-306.565,59.04l11.131-6.785V72.3l-11.131,6.36Z" transform="translate(324.537 25.46)" fill="#111581"/>
          <path id="Path_28069" data-name="Path 28069" d="M-194.955-4.1l11.131-6.786V9.161l-11.131,6.36Z" transform="translate(285.364 47.622)" fill="#111581"/>
          <path id="Path_28070" data-name="Path 28070" d="M-237.29,50.221l38.656-22.512v28.84L-237.29,78.634Z" transform="translate(300.223 34.075)" fill="#111581"/>
          <g id="Group_9290" data-name="Group 9290" transform="translate(24.534 21.006)">
            <g id="Group_9282" data-name="Group 9282">
              <path id="Path_28071" data-name="Path 28071" d="M-295.074,6.39l71.9-41.446a.8.8,0,0,1,.768.1l1.171.628-.98,66.633a2.788,2.788,0,0,1-1.406,2.422l-70.588,40.924a15.548,15.548,0,0,1-1.517-.844,1.685,1.685,0,0,1-.732-1.4V8.78A2.758,2.758,0,0,1-295.074,6.39Z" transform="translate(296.454 35.122)" fill="#c8e6eb"/>
              <path id="Path_28072" data-name="Path 28072" d="M-293.018,7.524l71.9-41.446a.64.64,0,0,1,.96.555v66.8a2.79,2.79,0,0,1-1.406,2.422l-70.289,40.16A1.7,1.7,0,0,1-294.4,74.54V9.914A2.758,2.758,0,0,1-293.018,7.524Z" transform="translate(295.732 34.731)" fill="#fff"/>
            </g>
            <g id="Group_9286" data-name="Group 9286" transform="translate(6.285 42.875)">
              <path id="Path_28073" data-name="Path 28073" d="M-285.39,72.472l71.9-41.446a.634.634,0,0,1,.606-.018c.2.1,1.4.783,1.4.783l-1.048,15.576a2.789,2.789,0,0,1-1.405,2.421l-70.488,40.982a16.512,16.512,0,0,1-1.632-.912,1.683,1.683,0,0,1-.717-1.389V74.862A2.759,2.759,0,0,1-285.39,72.472Z" transform="translate(286.77 -30.94)" fill="#475de6"/>
              <path id="Path_28074" data-name="Path 28074" d="M-283.334,73.617l71.9-41.446a.64.64,0,0,1,.96.555V48.512a2.789,2.789,0,0,1-1.405,2.422l-70.29,40.16a1.7,1.7,0,0,1-2.548-1.478V76.007A2.76,2.76,0,0,1-283.334,73.617Z" transform="translate(286.049 -31.342)" fill="#6275f1"/>
              <g id="Group_9283" data-name="Group 9283" transform="translate(4.74 37.972)">
                <path id="Path_28075" data-name="Path 28075" d="M-279.467,101.269-258.6,89.446l.006.841S-279.467,102.1-279.467,102.1Z" transform="translate(279.467 -89.446)" fill="#fff"/>
                <path id="Path_28076" data-name="Path 28076" d="M-279.467,98.12l9.276-5.474.007,1.793s-9.283,5.465-9.283,5.465Z" transform="translate(279.467 -90.569)" fill="#475de6"/>
                <path id="Path_28077" data-name="Path 28077" d="M-279.467,104.021-258.6,92.2l.006.84s-20.876,11.815-20.876,11.815Z" transform="translate(279.467 -90.412)" fill="#fff"/>
                <path id="Path_28078" data-name="Path 28078" d="M-279.467,106.773-258.6,94.949l.006.841S-279.467,107.6-279.467,107.6Z" transform="translate(279.467 -91.377)" fill="#fff"/>
                <path id="Path_28079" data-name="Path 28079" d="M-279.467,109.524-258.6,97.7l.006.841s-20.876,11.815-20.876,11.815Z" transform="translate(279.467 -92.343)" fill="#fff"/>
              </g>
              <g id="Group_9284" data-name="Group 9284" transform="translate(28.77 24.414)">
                <path id="Path_28080" data-name="Path 28080" d="M-242.442,80.379l20.869-11.823.006.841s-20.876,11.815-20.876,11.815Z" transform="translate(242.442 -68.556)" fill="#fff"/>
                <path id="Path_28081" data-name="Path 28081" d="M-242.442,77.23l9.277-5.473.007,1.792s-9.284,5.465-9.284,5.465Z" transform="translate(242.442 -69.68)" fill="#475de6"/>
                <path id="Path_28082" data-name="Path 28082" d="M-242.442,83.131l20.869-11.823.006.84c0,.005-20.876,11.815-20.876,11.815Z" transform="translate(242.442 -69.522)" fill="#fff"/>
                <path id="Path_28083" data-name="Path 28083" d="M-242.442,85.883l20.869-11.824.006.841s-20.876,11.815-20.876,11.815Z" transform="translate(242.442 -70.487)" fill="#fff"/>
                <path id="Path_28084" data-name="Path 28084" d="M-242.442,88.635l20.869-11.824.006.841s-20.876,11.815-20.876,11.815Z" transform="translate(242.442 -71.453)" fill="#fff"/>
              </g>
              <g id="Group_9285" data-name="Group 9285" transform="translate(52.747 10.641)">
                <path id="Path_28085" data-name="Path 28085" d="M-205.5,59.159l20.87-11.823.006.841S-205.5,59.992-205.5,59.992Z" transform="translate(205.498 -47.336)" fill="#fff"/>
                <path id="Path_28086" data-name="Path 28086" d="M-205.5,56.01l9.277-5.474.006,1.793s-9.284,5.465-9.284,5.465Z" transform="translate(205.498 -48.459)" fill="#475de6"/>
                <path id="Path_28087" data-name="Path 28087" d="M-205.5,61.911l20.87-11.823.006.84S-205.5,62.744-205.5,62.744Z" transform="translate(205.498 -48.302)" fill="#fff"/>
                <path id="Path_28088" data-name="Path 28088" d="M-205.5,64.663l20.87-11.824.006.841S-205.5,65.495-205.5,65.495Z" transform="translate(205.498 -49.267)" fill="#fff"/>
                <path id="Path_28089" data-name="Path 28089" d="M-205.5,67.414l20.87-11.823.006.841S-205.5,68.247-205.5,68.247Z" transform="translate(205.498 -50.233)" fill="#fff"/>
              </g>
            </g>
            <g id="Group_9287" data-name="Group 9287" transform="translate(5.953 29.793)">
              <path id="Path_28090" data-name="Path 28090" d="M-286.664,29.361-254.5,10.822a.286.286,0,0,1,.43.248V40.951a1.247,1.247,0,0,1-.629,1.083L-286.142,60a.762.762,0,0,1-1.14-.661V30.429A1.233,1.233,0,0,1-286.664,29.361Z" transform="translate(287.282 -10.783)" fill="#05cdff"/>
              <path id="Path_28091" data-name="Path 28091" d="M-277.905,58.974l1.921-1.108,0,2.361-1.925,1.1Z" transform="translate(283.991 -27.308)" fill="#8ef"/>
              <path id="Path_28092" data-name="Path 28092" d="M-277.905,47.055l22.555-12.648,0,.919L-277.905,47.97Z" transform="translate(283.991 -19.075)" fill="#8ef"/>
              <path id="Path_28093" data-name="Path 28093" d="M-277.905,61.955l22.555-12.648,0,.919L-277.905,62.87Z" transform="translate(283.991 -24.305)" fill="#8ef"/>
              <path id="Path_28094" data-name="Path 28094" d="M-277.905,65-255.35,52.35l0,.919-22.558,12.644Z" transform="translate(283.991 -25.372)" fill="#fff"/>
              <path id="Path_28095" data-name="Path 28095" d="M-277.905,68.12l22.555-12.648,0,.919-22.558,12.644Z" transform="translate(283.991 -26.468)" fill="#09abd1"/>
              <path id="Path_28096" data-name="Path 28096" d="M-277.918,44.356s-.286-4.646,1.142-5.332c1.025-.492.9.876,3.009-.139,2-.963,1.589-6.921,4.03-8.261,1.835-1.007,2.545,3.139,4.769,2.136,2.055-.927,2.061-2.533,3.909-3.475,1.088-.555,3.088,2.378,3.772,2.065,1.7-.779,1.924.359,1.924.359l0,.919-22.558,12.643Z" transform="translate(284.003 -17.252)" fill="#09abd1"/>
              <path id="Path_28097" data-name="Path 28097" d="M-277.9,44.513s.5-2.368,1.924-3.053c1.025-.491,1.079-3.781,3.189-4.795,2-.963,1.889.937,4.33-.4,1.836-1.008.879-5.485,3.1-6.488,2.055-.927,3.668,4.272,5.481,3.264.814-.452,1.919-2.265,2.6-2.579,1.7-.779,1.924,1.406,1.924,1.406l0,.919L-277.9,45.428Z" transform="translate(283.991 -17.41)" fill="#8ef"/>
              <path id="Path_28098" data-name="Path 28098" d="M-277.9,45.7s.132-2.1,1.263-2.572c1.047-.441,1.115.211,3.224-.8,2-.963,3.093-6.121,5.619-7.294.935-.434,2.144,2.391,3.045,1.975.866-.4,1.693-2.7,3.507-3.708.814-.452,3.289,1.4,3.973,1.088,1.7-.779,1.924-1.334,1.924-1.334l0,.919L-277.9,46.619Z" transform="translate(283.991 -18.601)" fill="#fff"/>
              <path id="Path_28099" data-name="Path 28099" d="M-271.51,55.279l1.921-1.108,0,2.361-1.925,1.1Z" transform="translate(281.746 -26.012)" fill="#8ef"/>
              <path id="Path_28100" data-name="Path 28100" d="M-265.3,51.709l1.921-1.108,0,2.361-1.925,1.1Z" transform="translate(279.567 -24.759)" fill="#8ef"/>
              <path id="Path_28101" data-name="Path 28101" d="M-259.126,48.17l1.921-1.108,0,2.361-1.925,1.1Z" transform="translate(277.4 -23.517)" fill="#8ef"/>
              <path id="Path_28102" data-name="Path 28102" d="M-252.513,44.351l1.921-1.108,0,2.361-1.925,1.1Z" transform="translate(275.079 -22.176)" fill="#8ef"/>
              <path id="Path_28103" data-name="Path 28103" d="M-246.118,40.626l1.921-1.108,0,2.361-1.925,1.1Z" transform="translate(272.834 -20.869)" fill="#8ef"/>
            </g>
            <g id="Group_9289" data-name="Group 9289" transform="translate(40.288 11.595)">
              <path id="Path_28104" data-name="Path 28104" d="M-233.8.185l30.194-17.4a.269.269,0,0,1,.4.233v30.12a1.17,1.17,0,0,1-.591,1.017l-29.517,16.865a.715.715,0,0,1-1.07-.62V1.188A1.158,1.158,0,0,1-233.8.185Z" transform="translate(234.378 17.256)" fill="#05cdff"/>
              <path id="Path_28105" data-name="Path 28105" d="M-195.217-4.1l1.8-1.074V.713l0,.005-1.8,1Z" transform="translate(220.633 13.016)" fill="#8ef"/>
              <path id="Path_28106" data-name="Path 28106" d="M-199.12-4.314l1.8-1.074v7.5l0,.005-1.8,1Z" transform="translate(222.003 13.09)" fill="#fff"/>
              <path id="Path_28107" data-name="Path 28107" d="M-202.906.582l1.8-1.074V5.193l0,.005-1.8,1Z" transform="translate(223.332 11.372)" fill="#fff"/>
              <path id="Path_28108" data-name="Path 28108" d="M-206.576,5.1l1.8-1.074V8.194l0,.006-1.8,1Z" transform="translate(224.62 9.787)" fill="#fff"/>
              <path id="Path_28109" data-name="Path 28109" d="M-210.613,19.985l1.8-1.006,0,2.216,0,.005-1.8,1Z" transform="translate(226.037 4.538)" fill="#fff"/>
              <path id="Path_28110" data-name="Path 28110" d="M-205.054,14.457l10.21-5.6,0,.412-10.213,5.593Z" transform="translate(224.086 8.09)" fill="#e6ffff"/>
              <path id="Path_28111" data-name="Path 28111" d="M-210.613,12.665l13.818-7.575,0,.412-13.821,7.571Z" transform="translate(226.037 9.413)" fill="#fff"/>
              <path id="Path_28112" data-name="Path 28112" d="M-205.054,15.841l10.21-5.6,0,.412-10.213,5.593Z" transform="translate(224.086 7.604)" fill="#e6ffff"/>
              <path id="Path_28113" data-name="Path 28113" d="M-205.054,17.225l10.21-5.6,0,.412-10.213,5.593Z" transform="translate(224.086 7.118)" fill="#e6ffff"/>
              <path id="Path_28114" data-name="Path 28114" d="M-205.054,19.533l10.21-5.6,0,.412-10.213,5.593Z" transform="translate(224.086 6.308)" fill="#e6ffff"/>
              <path id="Path_28115" data-name="Path 28115" d="M-205.054,20.917l10.21-5.6,0,.411-10.213,5.593Z" transform="translate(224.086 5.822)" fill="#e6ffff"/>
              <path id="Path_28116" data-name="Path 28116" d="M-205.054,22.3l10.21-5.6,0,.412-10.213,5.593Z" transform="translate(224.086 5.336)" fill="#e6ffff"/>
              <path id="Path_28117" data-name="Path 28117" d="M-205.054,24.609l10.21-5.6,0,.412-10.213,5.593Z" transform="translate(224.086 4.526)" fill="#e6ffff"/>
              <path id="Path_28118" data-name="Path 28118" d="M-205.054,25.994l10.21-5.6,0,.412L-205.054,26.4Z" transform="translate(224.086 4.04)" fill="#e6ffff"/>
              <path id="Path_28119" data-name="Path 28119" d="M-205.054,27.378l10.21-5.6,0,.412-10.213,5.593Z" transform="translate(224.086 3.555)" fill="#e6ffff"/>
              <path id="Path_28120" data-name="Path 28120" d="M-205.054,29.686l10.21-5.6,0,.412-10.213,5.593Z" transform="translate(224.086 2.745)" fill="#e6ffff"/>
              <path id="Path_28121" data-name="Path 28121" d="M-205.054,31.07l10.21-5.6,0,.412-10.213,5.593Z" transform="translate(224.086 2.259)" fill="#e6ffff"/>
              <path id="Path_28122" data-name="Path 28122" d="M-205.054,32.455l10.21-5.6,0,.411-10.213,5.593Z" transform="translate(224.086 1.773)" fill="#e6ffff"/>
              <path id="Path_28123" data-name="Path 28123" d="M-210.613,24.809l1.8-1.008V26.02l0,.006-1.8,1Z" transform="translate(226.037 2.846)" fill="#fff"/>
              <path id="Path_28124" data-name="Path 28124" d="M-210.613,29.667l1.8-1.008v2.219l0,.006-1.8,1Z" transform="translate(226.037 1.141)" fill="#fff"/>
              <path id="Path_28125" data-name="Path 28125" d="M-210.613,34.524l1.8-1.008v2.219l0,.006-1.8,1Z" transform="translate(226.037 -0.564)" fill="#fff"/>
              <g id="Group_9288" data-name="Group 9288" transform="translate(3.218 16.216)">
                <path id="Path_28126" data-name="Path 28126" d="M-225.432,7.729a4.032,4.032,0,0,0-3.359,2.891l3.359,2.032Z" transform="translate(229.199 -7.729)" fill="#fff"/>
                <path id="Path_28127" data-name="Path 28127" d="M-222.693,20.376c2.092-.105,3.766-2.384,3.766-5.188a6.7,6.7,0,0,0-.258-1.844l-3.508,1.932Z" transform="translate(227.058 -9.7)" fill="#fff"/>
                <path id="Path_28128" data-name="Path 28128" d="M-225.653,15.182l-3.462-2.094a6.662,6.662,0,0,0-.3,2.01c0,2.8,1.674,5.083,3.766,5.188v-5.1Z" transform="translate(229.419 -9.61)" fill="#fff"/>
                <path id="Path_28129" data-name="Path 28129" d="M-219.276,10.781a4.088,4.088,0,0,0-3.417-3.052v4.935Z" transform="translate(227.058 -7.729)" fill="#fff"/>
              </g>
              <path id="Path_28130" data-name="Path 28130" d="M-225.045,41.976a1.756,1.756,0,0,1-1.52,1.92,1.756,1.756,0,0,1-1.52-1.92,1.755,1.755,0,0,1,1.52-1.92A1.755,1.755,0,0,1-225.045,41.976Z" transform="translate(232.169 -2.86)" fill="#fff"/>
              <path id="Path_28131" data-name="Path 28131" d="M-217.717,37.794a1.756,1.756,0,0,1-1.52,1.92,1.756,1.756,0,0,1-1.52-1.92,1.756,1.756,0,0,1,1.52-1.92A1.756,1.756,0,0,1-217.717,37.794Z" transform="translate(229.597 -1.392)" fill="#fff"/>
              <path id="Path_28132" data-name="Path 28132" d="M-225.045,32.959a1.756,1.756,0,0,1-1.52,1.92,1.756,1.756,0,0,1-1.52-1.92,1.756,1.756,0,0,1,1.52-1.92A1.756,1.756,0,0,1-225.045,32.959Z" transform="translate(232.169 0.305)" fill="#fff"/>
              <path id="Path_28133" data-name="Path 28133" d="M-217.717,28.778a1.756,1.756,0,0,1-1.52,1.92,1.756,1.756,0,0,1-1.52-1.92,1.755,1.755,0,0,1,1.52-1.92A1.755,1.755,0,0,1-217.717,28.778Z" transform="translate(229.597 1.773)" fill="#fff"/>
            </g>
          </g>
        </g>
      </g>
      <g id="Group_9296" data-name="Group 9296" transform="translate(-276.795 90.121)">
        <g id="Group_9295" data-name="Group 9295" transform="translate(0)">
          <g id="Group_9294" data-name="Group 9294" transform="translate(0.651)">
            <path id="Path_28134" data-name="Path 28134" d="M-242.79,202.235a2.8,2.8,0,0,0-1.885,2.708c-.326,5.526,1.344,5.674,1.149,10.935l.239-2.384S-240.85,204.679-242.79,202.235Z" transform="translate(244.717 -195.719)" fill="#375599"/>
            <path id="Path_28135" data-name="Path 28135" d="M-234.577,249.462s-.278-10.526-.278-11.647,1.179-8.636.1-12.079l-7.932-.448s-.42,4.684-.42,4.945c0,.408,1.24,11.242,1.083,16.508l2.953.067s.313-6.743-.31-9.463c-.031-1.637.1-5.323.1-5.323s1.081,4.934,1.2,6.085.683,10.864.683,10.864A13.6,13.6,0,0,0-234.577,249.462Z" transform="translate(244.152 -203.811)" fill="#263364"/>
            <path id="Path_28136" data-name="Path 28136" d="M-234.4,226.735c.843,3.618-.23,10.518-.23,11.588,0,.921.188,8.192.254,10.755-1.14.156-2.226.231-2.853-.382l-.008-.143a12.677,12.677,0,0,0,1.216-.759,1.644,1.644,0,0,0,.711-1.467l-.486-7.172.948-5.173-.27-2.585c-1.082-.308-1.027-1.023-1.048-1.709l-2.47,0c-3.164-.331-3.7-.9-3.836-1.891l.01-.014Z" transform="translate(243.931 -204.319)" fill="#1b2851"/>
            <path id="Path_28137" data-name="Path 28137" d="M-232.75,209.749a5.417,5.417,0,0,0-.641-3.49c-.583-1.229-2.239-2.259-4.232-3.228-3.8-1.848-5.284-1.378-5.787.416a21.458,21.458,0,0,0-.2,5.761,48.075,48.075,0,0,1,.321,9.419c-.049.357,1.027,1.254,3.263,1.743,1.621.354,5.311.229,5.673-1.271l-.212-8.725Z" transform="translate(244.367 -195.585)" fill="#497fc1"/>
            <path id="Path_28138" data-name="Path 28138" d="M-230.022,219.672c-.2-.609-.45-1.2-.7-1.785-.143-.33-.4-1.65-.558-1.972-.781-1.584.546-1.8-1.24-3.382a1.867,1.867,0,0,1-.417-1.654c.672.09.458-2.1.527-2.444a16.749,16.749,0,0,1,.647-1.652,6.689,6.689,0,0,1-.4,2.458,1.635,1.635,0,0,0,.84,2.065l1.286.8c.143.806.123,1.639.195,2.453.075.843.167,1.687.206,2.532a5.87,5.87,0,0,1-.325,2.478A.228.228,0,0,1-230.022,219.672Z" transform="translate(240.597 -197.316)" fill="#375599"/>
            <rect id="Rectangle_1667" data-name="Rectangle 1667" width="2.819" height="3.325" transform="translate(6.504 8.467) rotate(180)" fill="#fcae6e"/>
            <path id="Path_28139" data-name="Path 28139" d="M-236.638,200.119a3.3,3.3,0,0,1-2.242,3.129l-.578.2v-3.325Z" transform="translate(242.871 -194.977)" fill="#eb9854"/>
            <path id="Path_28140" data-name="Path 28140" d="M-238.03,204.516s1.689-.41,2.168-1.371a5.209,5.209,0,0,1,1.571,1.031,9.148,9.148,0,0,1-3.053,1.652.2.2,0,0,1-.249-.181C-237.632,205.161-237.632,204.849-238.03,204.516Z" transform="translate(242.37 -196.039)" fill="#41a0d7"/>
            <path id="Path_28141" data-name="Path 28141" d="M-239.83,204.084a.957.957,0,0,0-.8.635.2.2,0,0,1-.367.005,5.514,5.514,0,0,1,.376-2.7c.2-.336.376.443.617.489Z" transform="translate(243.427 -195.617)" fill="#41a0d7"/>
            <path id="Path_28142" data-name="Path 28142" d="M-241.227,196.308c.136,2.048.523,3.647,1.574,3.647,1.559,0,2.661-1.638,2.661-3.691s-.09-3.173-1.648-3.173S-241.36,194.3-241.227,196.308Z" transform="translate(243.496 -192.51)" fill="#fcae6e"/>
            <path id="Path_28143" data-name="Path 28143" d="M-237.164,198.8a11.8,11.8,0,0,0-.23-2.376c-.151-.778-.266-1.053-.933-1.2-.2-.044-1.731.437-2.107.391-.485-.058-.862-.941-.962-.267a3.744,3.744,0,0,1-.145-2.573c.336-.748,4.254-1.3,5.441,1.851C-235.576,196.018-236.662,197.55-237.164,198.8Z" transform="translate(243.668 -192.196)" fill="#aa3927"/>
            <path id="Path_28144" data-name="Path 28144" d="M-235.858,198.831c0,.5-.023,1,.369,1s.887-.632.887-1.135-.153-.779-.546-.779A.829.829,0,0,0-235.858,198.831Z" transform="translate(241.608 -194.205)" fill="#fcae6e"/>
            <path id="Path_28145" data-name="Path 28145" d="M-229.347,214.1s.559,5.349.5,5.981a22.717,22.717,0,0,1-3.879,6.495s-.891-.144-.891-.748a42.036,42.036,0,0,1,2.349-5.249,2.846,2.846,0,0,0,.265-1.684l-.666-4.475Z" transform="translate(240.821 -199.882)" fill="#fcae6e"/>
            <path id="Path_28146" data-name="Path 28146" d="M-240.131,205.822c-.212.611-.086,1.456.367,1.456a1.833,1.833,0,0,0,1.27-1.456c0-.6-.366-.7-.818-.7S-239.936,205.26-240.131,205.822Z" transform="translate(243.143 -196.733)" fill="#2a4997"/>
            <path id="Path_28147" data-name="Path 28147" d="M-236,196.965s.313.365.1,1.395c0,0,.672-.69.623-.989S-235.55,196.693-236,196.965Z" transform="translate(241.658 -193.837)" fill="#aa3927"/>
            <g id="Group_9293" data-name="Group 9293" transform="translate(2.908 16.65)">
              <path id="Path_28148" data-name="Path 28148" d="M-239.824,225.71c.1.032.412.119.412.119l-.084-7.884-.741-.1v7.716S-239.929,225.677-239.824,225.71Z" transform="translate(240.237 -217.85)" fill="#375599"/>
            </g>
            <path id="Path_28149" data-name="Path 28149" d="M-239.227,212.3c0-.8-.305-4.955-.916-4.955s-1.3,4.15-1.3,4.955.5,3.069,1.107,3.069S-239.227,213.1-239.227,212.3Z" transform="translate(243.567 -197.513)" fill="#2a4997"/>
            <path id="Path_28150" data-name="Path 28150" d="M-230.962,214.8l2.553-.377a.234.234,0,0,0,.2-.232v-.718a.235.235,0,0,0-.269-.232l-2.665.393a.235.235,0,0,0-.2.269l.112.7A.235.235,0,0,0-230.962,214.8Z" transform="translate(240.023 -199.58)" fill="#41a0d7"/>
            <path id="Path_28151" data-name="Path 28151" d="M-232.907,208.444a5.4,5.4,0,0,1,.127,2.219S-233.166,210.115-232.907,208.444Z" transform="translate(240.603 -197.899)" fill="#375599"/>
            <path id="Path_28152" data-name="Path 28152" d="M-233.651,230.554a3.032,3.032,0,0,0,1.39,2.408,3.027,3.027,0,0,1-1.889-1.086C-234.74,230.979-233.651,230.554-233.651,230.554Z" transform="translate(241.07 -205.659)" fill="#1b2851"/>
          </g>
          <path id="Path_28153" data-name="Path 28153" d="M-239.761,258.49s-.025,1.253,0,1.578-2.984,2.2-4.337,2.427a1.507,1.507,0,0,1-1.474-.465.643.643,0,0,1,.1-.914,16.962,16.962,0,0,0,2.731-2.767Z" transform="translate(245.72 -215.415)" fill="#aa3927"/>
          <path id="Path_28154" data-name="Path 28154" d="M-232.032,262.46a12.028,12.028,0,0,1,.248,1.946c-.057.376-.3,2.782-2.353,2.681s-.7-2.581-.576-2.907.4-1.721.4-1.721Z" transform="translate(242.051 -216.857)" fill="#aa3927"/>
          <path id="Path_28155" data-name="Path 28155" d="M-238.773,260.391a6.313,6.313,0,0,0-3.363-1.258c.42-.471.652-.784.652-.784l2.98.141s-.025,1.253,0,1.578C-238.5,260.13-238.6,260.243-238.773,260.391Z" transform="translate(244.462 -215.415)" fill="#872d1e"/>
          <path id="Path_28156" data-name="Path 28156" d="M-234.287,263.9c.136-.52.318-1.443.318-1.443h2.281a13.881,13.881,0,0,1,.253,1.882A4.263,4.263,0,0,0-234.287,263.9Z" transform="translate(241.707 -216.857)" fill="#872d1e"/>
          <path id="Path_28157" data-name="Path 28157" d="M-238.1,230.654v1.738a.571.571,0,0,1-.571.571v-2.407C-238.485,230.6-238.294,230.631-238.1,230.654Z" transform="translate(243.247 -205.66)" fill="#1b2851"/>
          <path id="Path_28158" data-name="Path 28158" d="M-234.58,261.825a4.72,4.72,0,0,0,2.677-.012.393.393,0,0,0,.3-.326,2.511,2.511,0,0,0-.126-1.592,4.192,4.192,0,0,1-2.588.087c-.058-.029-.215-.1-.273-.138a2.469,2.469,0,0,0-.247,1.659A.386.386,0,0,0-234.58,261.825Z" transform="translate(241.915 -215.939)" fill="#375599"/>
          <path id="Path_28159" data-name="Path 28159" d="M-240.248,248.137c1.031-.337,1.329-1.731,1.329-1.731a32.932,32.932,0,0,0-.918-4.176,5.429,5.429,0,0,0-1.6-.729l.785-.365,1.079-1.284v-7.508l.911,2.242c.019.605-.158,3.831-.131,5.234.517,2.256.389,7.277.331,8.925C-239.436,248.621-240.975,248.375-240.248,248.137Z" transform="translate(244.218 -206.287)" fill="#1b2851"/>
          <path id="Path_28160" data-name="Path 28160" d="M-241.618,257.738a4.816,4.816,0,0,0,2.974.036.5.5,0,0,0,.359-.465,5.918,5.918,0,0,0-.332-1.77,4.436,4.436,0,0,1-2.993-.167,4.424,4.424,0,0,0-.363,1.909A.506.506,0,0,0-241.618,257.738Z" transform="translate(244.406 -214.37)" fill="#375599"/>
        </g>
      </g>
      <g id="Group_9299" data-name="Group 9299" transform="translate(-329.056 103.276)">
        <path id="Path_28161" data-name="Path 28161" d="M-310.094,232.2l.226,1.707-1.236.472.263-2.589Z" transform="translate(320.93 -219.25)" fill="#fcae6e"/>
        <g id="Group_9297" data-name="Group 9297">
          <path id="Path_28162" data-name="Path 28162" d="M-310.833,228.177a14.752,14.752,0,0,0,.258-4.188,2.581,2.581,0,0,0-1.74-2.5c-.95,1.2-.763,4.049-.378,6.464Q-311.765,228.082-310.833,228.177Z" transform="translate(321.598 -215.632)" fill="#0382ff"/>
          <path id="Path_28163" data-name="Path 28163" d="M-310.7,231.789l-2.381-.11a.217.217,0,0,1-.206-.195l-.066-.66a.216.216,0,0,1,.225-.238l2.485.114a.217.217,0,0,1,.206.229l-.038.655A.217.217,0,0,1-310.7,231.789Z" transform="translate(321.719 -218.825)" fill="#fa735f"/>
          <path id="Path_28164" data-name="Path 28164" d="M-322.961,265.1s.257-9.72.257-10.755-1.089-7.974-.092-11.154l7.325-.413s.387,4.325.387,4.566c0,.376-1.146,10.382-1,15.243l-2.727.062s-.289-6.227.286-8.738c.029-1.512-.088-4.915-.088-4.915s-1,4.557-1.1,5.619-.63,10.031-.63,10.031A12.539,12.539,0,0,1-322.961,265.1Z" transform="translate(325.181 -223.104)" fill="#3a55ca"/>
          <path id="Path_28165" data-name="Path 28165" d="M-325.762,228.427a5,5,0,0,1,.592-3.223c.538-1.135,2.068-2.087,3.908-2.981,3.509-1.706,4.879-1.273,5.343.384a19.793,19.793,0,0,1,.187,5.319,44.4,44.4,0,0,0-.3,8.7c.045.33-.948,1.158-3.013,1.61-1.5.327-4.9.212-5.239-1.173l.2-8.056Z" transform="translate(326.097 -215.508)" fill="#bedaff"/>
          <path id="Path_28166" data-name="Path 28166" d="M-316.3,222.645l-2.154-.04v-3.07h2.6l.124,2.536A.574.574,0,0,1-316.3,222.645Z" transform="translate(323.509 -214.946)" fill="#fcae6e"/>
          <path id="Path_28167" data-name="Path 28167" d="M-318.068,219.535a3.052,3.052,0,0,0,2.07,2.889h0a.4.4,0,0,0,.533-.382v-2.507Z" transform="translate(323.374 -214.946)" fill="#e68f47"/>
          <path id="Path_28168" data-name="Path 28168" d="M-317.254,223.623s-1.546-.407-1.989-1.294a4.8,4.8,0,0,0-1.45.952,8.463,8.463,0,0,0,2.819,1.526.189.189,0,0,0,.231-.168C-317.608,224.19-317.623,223.93-317.254,223.623Z" transform="translate(324.296 -215.927)" fill="#0382ff"/>
          <path id="Path_28169" data-name="Path 28169" d="M-314.487,223.054a1.368,1.368,0,0,1,.85.73.185.185,0,0,0,.338,0,5.085,5.085,0,0,0-.347-2.491c-.182-.31-.428.445-.65.487A1.345,1.345,0,0,1-314.487,223.054Z" transform="translate(322.117 -215.539)" fill="#0382ff"/>
          <path id="Path_28170" data-name="Path 28170" d="M-314.543,216.015c-.125,1.891-.483,3.368-1.453,3.368-1.439,0-2.457-1.513-2.457-3.409s.083-2.93,1.523-2.93S-314.419,214.157-314.543,216.015Z" transform="translate(323.509 -212.669)" fill="#fcae6e"/>
          <path id="Path_28171" data-name="Path 28171" d="M-319.046,218.407a10.906,10.906,0,0,1,.212-2.194c.14-.718.246-.972.862-1.11.182-.04,1.6.4,1.946.362.448-.055.8-.869.888-.247,0,0,1-1.1.544-2.111-.31-.691-4.339-1.47-5.436,1.444C-320.512,215.834-319.307,217.054-319.046,218.407Z" transform="translate(324.102 -212.465)" fill="#b25e02"/>
          <path id="Path_28172" data-name="Path 28172" d="M-318.008,218.345c0,.464.021.927-.341.927s-.819-.583-.819-1.048.141-.72.5-.72A.766.766,0,0,1-318.008,218.345Z" transform="translate(323.76 -214.234)" fill="#fcae6e"/>
          <path id="Path_28173" data-name="Path 28173" d="M-325.777,232.44s-.515,4.94-.463,5.523a20.981,20.981,0,0,0,3.583,6s.823-.132.823-.69A38.838,38.838,0,0,0-324,238.423a2.623,2.623,0,0,1-.245-1.554l.615-4.132Z" transform="translate(326.244 -219.476)" fill="#fcae6e"/>
          <path id="Path_28174" data-name="Path 28174" d="M-317.317,216.489s-.809.2-.382,1.378c0,0-.621-.637-.576-.913S-317.735,216.238-317.317,216.489Z" transform="translate(323.448 -213.851)" fill="#b25e02"/>
          <path id="Path_28175" data-name="Path 28175" d="M-323.466,233.087l-2.357-.348a.217.217,0,0,1-.185-.215v-.663a.217.217,0,0,1,.249-.215l2.46.363a.217.217,0,0,1,.182.249l-.1.648A.217.217,0,0,1-323.466,233.087Z" transform="translate(326.161 -219.196)" fill="#0382ff"/>
        </g>
        <path id="Path_28176" data-name="Path 28176" d="M-316.751,273.435s.023,1.157,0,1.458,2.756,2.032,4.005,2.24a1.391,1.391,0,0,0,1.361-.43.593.593,0,0,0-.092-.844A15.649,15.649,0,0,1-314,273.3Z" transform="translate(322.912 -233.819)" fill="#373c41"/>
        <path id="Path_28177" data-name="Path 28177" d="M-322.655,277.1a11.2,11.2,0,0,0-.229,1.8c.053.347.276,2.568,2.173,2.476s.648-2.384.532-2.684-.37-1.589-.37-1.589Z" transform="translate(325.067 -235.151)" fill="#373c41"/>
        <path id="Path_28178" data-name="Path 28178" d="M-316.5,275.189a5.83,5.83,0,0,1,3.1-1.161c-.387-.435-.6-.724-.6-.724l-2.752.131s.023,1.157,0,1.458C-316.756,274.949-316.663,275.054-316.5,275.189Z" transform="translate(322.912 -233.819)" fill="#272a2e"/>
        <path id="Path_28179" data-name="Path 28179" d="M-320.255,278.433c-.125-.48-.294-1.333-.294-1.333h-2.106a12.759,12.759,0,0,0-.234,1.738A3.94,3.94,0,0,1-320.255,278.433Z" transform="translate(325.067 -235.151)" fill="#272a2e"/>
        <path id="Path_28180" data-name="Path 28180" d="M-320.23,276.514a4.357,4.357,0,0,1-2.471-.012.363.363,0,0,1-.274-.3,2.322,2.322,0,0,1,.116-1.47l-.006.269a2.7,2.7,0,0,0,2.456.069c.054-.027.138-.354.192-.385a2.283,2.283,0,0,1,.228,1.532A.356.356,0,0,1-320.23,276.514Z" transform="translate(325.12 -234.303)" fill="#0073aa"/>
        <path id="Path_28181" data-name="Path 28181" d="M-313.9,272.741a4.451,4.451,0,0,1-2.746.033.46.46,0,0,1-.331-.43,5.455,5.455,0,0,1,.306-1.634l.005.223a.271.271,0,0,0,.193.256,3.786,3.786,0,0,0,2.378-.089.273.273,0,0,0,.186-.259v-.286a4.091,4.091,0,0,1,.335,1.763A.468.468,0,0,1-313.9,272.741Z" transform="translate(322.993 -232.854)" fill="#0073aa"/>
        <g id="Group_9298" data-name="Group 9298" transform="translate(5.674 12.427)">
          <path id="Path_28182" data-name="Path 28182" d="M-313.968,234.773l5.484-3.161.527.316-5.484,3.16Z" transform="translate(316.261 -231.612)" fill="#375599"/>
          <path id="Path_28183" data-name="Path 28183" d="M-316.689,239.325l5.484-3.16,2.293-4.067-5.484,3.16Z" transform="translate(317.216 -231.783)" fill="#2a4997"/>
          <path id="Path_28184" data-name="Path 28184" d="M-316.974,240.864l-.527-.314,2.293-4.067.527.314Z" transform="translate(317.501 -233.322)" fill="#5a7ebf"/>
        </g>
        <path id="Path_28185" data-name="Path 28185" d="M-311.891,238.976a4.426,4.426,0,0,0,1.323-.149c.613-.186,2.152-.976,1.77-2.584,0,0-.217.013-.43.558s-.383.641-1.021.748-1.52.485-.936.532c.532.043.74-.062.754.035C-311.3,238.714-312.148,238.751-311.891,238.976Z" transform="translate(321.223 -220.811)" fill="#fcae6e"/>
      </g>
      <g id="Group_9300" data-name="Group 9300" transform="translate(-247.034 13.706)">
        <line id="Line_422" data-name="Line 422" x2="47.138" y2="101.862" transform="translate(0 6.334)" fill="none" stroke="#05cdff" stroke-miterlimit="10" stroke-width="1.67"/>
        <line id="Line_423" data-name="Line 423" x2="47.138" y2="101.862" transform="translate(11.198)" fill="none" stroke="#05cdff" stroke-miterlimit="10" stroke-width="1.67"/>
        <line id="Line_424" data-name="Line 424" y1="6.379" x2="11.177" transform="translate(3.344 7.571)" fill="none" stroke="#05cdff" stroke-miterlimit="10" stroke-width="1.67"/>
        <line id="Line_425" data-name="Line 425" y1="6.379" x2="11.177" transform="translate(8.358 18.291)" fill="none" stroke="#05cdff" stroke-miterlimit="10" stroke-width="1.67"/>
        <line id="Line_426" data-name="Line 426" y1="6.379" x2="11.177" transform="translate(13.398 28.257)" fill="none" stroke="#05cdff" stroke-miterlimit="10" stroke-width="1.67"/>
        <line id="Line_427" data-name="Line 427" y1="6.379" x2="11.177" transform="translate(17.981 38.663)" fill="none" stroke="#05cdff" stroke-miterlimit="10" stroke-width="1.67"/>
        <line id="Line_428" data-name="Line 428" y1="6.379" x2="11.177" transform="translate(22.365 48.412)" fill="none" stroke="#05cdff" stroke-miterlimit="10" stroke-width="1.67"/>
        <line id="Line_429" data-name="Line 429" y1="6.379" x2="11.177" transform="translate(26.801 58.161)" fill="none" stroke="#05cdff" stroke-miterlimit="10" stroke-width="1.67"/>
        <line id="Line_430" data-name="Line 430" y1="6.379" x2="11.177" transform="translate(31.949 68.644)" fill="none" stroke="#05cdff" stroke-miterlimit="10" stroke-width="1.67"/>
        <line id="Line_431" data-name="Line 431" y1="6.379" x2="11.177" transform="translate(36.834 79.747)" fill="none" stroke="#05cdff" stroke-miterlimit="10" stroke-width="1.67"/>
        <line id="Line_432" data-name="Line 432" y1="6.379" x2="11.177" transform="translate(41.918 90.85)" fill="none" stroke="#05cdff" stroke-miterlimit="10" stroke-width="1.67"/>
      </g>
      <line id="Line_433" data-name="Line 433" y1="44.404" transform="translate(-275.232 -78.629)" fill="none" stroke="#355ca0" stroke-linecap="round" stroke-miterlimit="10" stroke-width="1.67"/>
      <g id="Group_9301" data-name="Group 9301" transform="translate(-154.063 109.353)">
        <path id="Path_28186" data-name="Path 28186" d="M-71.985,183.657l-13.948,7.889s0,.692,0,.932a.723.723,0,0,0,.359.628l19.384,11.379a.726.726,0,0,0,.746-.006l13.684-8.335a.719.719,0,0,0,.348-.58c.014-.259,0-.858,0-.858l-19.833-11.056A.728.728,0,0,0-71.985,183.657Z" transform="translate(85.935 -182.649)" fill="#05cdff"/>
        <path id="Path_28187" data-name="Path 28187" d="M-71.985,182.265l-13.6,8.2a.728.728,0,0,0,.007,1.25l19.384,11.379a.726.726,0,0,0,.746-.006l13.684-8.335a.727.727,0,0,0-.014-1.251l-19.469-11.243A.727.727,0,0,0-71.985,182.265Z" transform="translate(85.935 -182.161)" fill="#111581"/>
      </g>
      <g id="Group_9306" data-name="Group 9306" transform="translate(-157.59 63.933)">
        <g id="Group_9302" data-name="Group 9302" transform="translate(0 3.793)">
          <path id="Path_28188" data-name="Path 28188" d="M-92.941,131.591l-13.942,8.024s0,.539-.008.77a.722.722,0,0,0,.359.655l49.257,29.1a.728.728,0,0,0,.746-.006l13.684-8.335a.719.719,0,0,0,.347-.558c.022-.265,0-.842,0-.842L-92.2,131.584A.727.727,0,0,0-92.941,131.591Z" transform="translate(106.892 -130.584)" fill="#3c5a73"/>
          <path id="Path_28189" data-name="Path 28189" d="M-92.941,130.2l-13.6,8.2a.727.727,0,0,0,.007,1.25l49.257,29.1a.726.726,0,0,0,.746-.006l13.684-8.335a.728.728,0,0,0-.014-1.251L-92.2,130.193A.727.727,0,0,0-92.941,130.2Z" transform="translate(106.892 -130.096)" fill="#e6ffff"/>
        </g>
        <g id="Group_9303" data-name="Group 9303" transform="translate(0 2.529)">
          <path id="Path_28190" data-name="Path 28190" d="M-92.941,129.643l-13.945,8.006s0,.562-.005.8a.721.721,0,0,0,.359.647l49.257,29.1a.728.728,0,0,0,.746-.006l13.684-8.335a.721.721,0,0,0,.349-.618c0-.246,0-.866,0-.866l-49.7-28.728A.727.727,0,0,0-92.941,129.643Z" transform="translate(106.891 -128.636)" fill="#3c5a73"/>
          <path id="Path_28191" data-name="Path 28191" d="M-92.941,128.252l-13.6,8.2a.727.727,0,0,0,.007,1.25l49.257,29.1a.728.728,0,0,0,.746-.007l13.684-8.335a.728.728,0,0,0-.014-1.251L-92.2,128.245A.727.727,0,0,0-92.941,128.252Z" transform="translate(106.891 -128.148)" fill="#e6ffff"/>
        </g>
        <g id="Group_9304" data-name="Group 9304" transform="translate(0 1.264)">
          <path id="Path_28192" data-name="Path 28192" d="M-92.941,127.7l-13.95,7.992s0,.583,0,.821a.718.718,0,0,0,.359.635l49.257,29.1a.728.728,0,0,0,.746-.006l13.684-8.335a.722.722,0,0,0,.349-.63c0-.242,0-.844,0-.844l-49.7-28.738A.727.727,0,0,0-92.941,127.7Z" transform="translate(106.891 -126.688)" fill="#3c5a73"/>
          <path id="Path_28193" data-name="Path 28193" d="M-92.941,126.3l-13.6,8.2a.727.727,0,0,0,.007,1.25l49.257,29.1a.726.726,0,0,0,.746-.006l13.684-8.335a.728.728,0,0,0-.014-1.251L-92.2,126.3A.727.727,0,0,0-92.941,126.3Z" transform="translate(106.891 -126.2)" fill="#e6ffff"/>
        </g>
        <g id="Group_9305" data-name="Group 9305" transform="translate(0)">
          <path id="Path_28194" data-name="Path 28194" d="M-92.941,125.748l-13.949,7.908s0,.676,0,.918a.722.722,0,0,0,.359.623l49.257,29.1a.728.728,0,0,0,.746-.006l13.684-8.335a.719.719,0,0,0,.348-.576c.016-.26.009-.867.009-.867L-92.2,125.74A.728.728,0,0,0-92.941,125.748Z" transform="translate(106.892 -124.74)" fill="#3c5a73"/>
          <path id="Path_28195" data-name="Path 28195" d="M-92.941,124.356l-13.6,8.2a.727.727,0,0,0,.007,1.25l49.257,29.1a.726.726,0,0,0,.746-.006l13.684-8.335a.727.727,0,0,0-.014-1.251L-92.2,124.349A.727.727,0,0,0-92.941,124.356Z" transform="translate(106.892 -124.252)" fill="#05cdff"/>
          <path id="Path_28196" data-name="Path 28196" d="M-99.405,136.515l-1.795,1.018a.653.653,0,0,0,.007,1.122L-57,164.759a.651.651,0,0,0,.67-.005l1.872-1.14a.653.653,0,0,0-.013-1.123l-44.269-25.983A.653.653,0,0,0-99.405,136.515Z" transform="translate(105.005 -128.523)" fill="#3c5a73"/>
          <path id="Path_28197" data-name="Path 28197" d="M-84.641,127.882l-1.624.979a.087.087,0,0,0,0,.149l5.881,3.474a.087.087,0,0,0,.089,0l1.634-.995a.087.087,0,0,0,0-.149l-5.891-3.458A.086.086,0,0,0-84.641,127.882Z" transform="translate(99.667 -125.522)" fill="#3c5a73"/>
          <path id="Path_28198" data-name="Path 28198" d="M-89.176,130.65l-1.624.979a.087.087,0,0,0,0,.149l5.881,3.474a.087.087,0,0,0,.089,0l1.634-1a.087.087,0,0,0,0-.149l-5.891-3.457A.086.086,0,0,0-89.176,130.65Z" transform="translate(101.259 -126.493)" fill="#3c5a73"/>
          <path id="Path_28199" data-name="Path 28199" d="M-93.6,133.392l-1.624.979a.087.087,0,0,0,0,.149l5.881,3.474a.086.086,0,0,0,.089,0l1.634-.995a.087.087,0,0,0,0-.149l-5.891-3.458A.086.086,0,0,0-93.6,133.392Z" transform="translate(102.813 -127.455)" fill="#3c5a73"/>
          <path id="Path_28200" data-name="Path 28200" d="M-24.463,163.4l-1.624.979a.087.087,0,0,0,0,.149l5.881,3.474a.086.086,0,0,0,.089,0l1.634-.995a.087.087,0,0,0,0-.149l-5.891-3.458A.088.088,0,0,0-24.463,163.4Z" transform="translate(78.545 -137.989)" fill="#3c5a73"/>
          <path id="Path_28201" data-name="Path 28201" d="M-29,166.171l-1.623.979a.087.087,0,0,0,0,.149l5.881,3.474a.087.087,0,0,0,.09,0l1.634-.995a.087.087,0,0,0,0-.149l-5.891-3.458A.088.088,0,0,0-29,166.171Z" transform="translate(80.137 -138.961)" fill="#3c5a73"/>
          <path id="Path_28202" data-name="Path 28202" d="M-33.427,168.913l-1.623.979a.087.087,0,0,0,0,.149l5.881,3.474a.089.089,0,0,0,.09,0l1.634-.995a.087.087,0,0,0,0-.15l-5.891-3.457A.086.086,0,0,0-33.427,168.913Z" transform="translate(81.691 -139.923)" fill="#3c5a73"/>
          <path id="Path_28203" data-name="Path 28203" d="M-75.412,134.8l-7.579,4.622a.193.193,0,0,0,0,.332l13.069,7.719a.192.192,0,0,0,.2,0l7.6-4.658a.193.193,0,0,0,0-.332L-75.216,134.8A.193.193,0,0,0-75.412,134.8Z" transform="translate(98.536 -127.944)" fill="#3c5a73"/>
          <path id="Path_28204" data-name="Path 28204" d="M-52.725,148.536l-7.578,4.622a.193.193,0,0,0,0,.332l13.068,7.72a.193.193,0,0,0,.2,0l7.6-4.658a.193.193,0,0,0,0-.332l-13.091-7.684A.193.193,0,0,0-52.725,148.536Z" transform="translate(90.573 -132.765)" fill="#3c5a73"/>
        </g>
      </g>
      <g id="Group_9311" data-name="Group 9311" transform="translate(-272.308 126.479)">
        <path id="Path_28205" data-name="Path 28205" d="M-206.774,246.263l-56.179,33.855s.027.6,0,.818a.722.722,0,0,0,.354.707l19.383,11.379a.728.728,0,0,0,.746-.006l55.913-34.267a.721.721,0,0,0,.349-.63c0-.242,0-1,0-1l-19.833-10.866A.727.727,0,0,0-206.774,246.263Z" transform="translate(262.953 -245.256)" fill="#05cdff"/>
        <path id="Path_28206" data-name="Path 28206" d="M-195.867,246.263l-35.928,45.957a.57.57,0,0,0,.23.8l.007,0,55.913-34.267a.721.721,0,0,0,.349-.63c0-.242,0-1,0-1l-19.833-10.866A.727.727,0,0,0-195.867,246.263Z" transform="translate(252.045 -245.256)" fill="#c8e6eb"/>
        <path id="Path_28207" data-name="Path 28207" d="M-206.774,244.872-262.6,279a.727.727,0,0,0,.007,1.25l19.384,11.379a.727.727,0,0,0,.746-.007l55.913-34.267a.727.727,0,0,0-.014-1.251l-19.469-11.243A.728.728,0,0,0-206.774,244.872Z" transform="translate(262.953 -244.768)" fill="#111581"/>
        <g id="Group_9309" data-name="Group 9309" transform="translate(45.666 7.899)">
          <g id="Group_9307" data-name="Group 9307" transform="translate(1.007 1.643)">
            <path id="Path_28208" data-name="Path 28208" d="M-185.441,259.469c-3.087,0-5.6,1.689-5.6,3.764s2.512,3.764,5.6,3.764,5.6-1.689,5.6-3.764S-182.354,259.469-185.441,259.469Z" transform="translate(191.04 -259.469)" fill="#05cdff"/>
          </g>
          <g id="Group_9308" data-name="Group 9308">
            <path id="Path_28209" data-name="Path 28209" d="M-185.985,266.48c-3.642,0-6.606-2.14-6.606-4.772s2.963-4.771,6.606-4.771,6.606,2.14,6.606,4.771S-182.343,266.48-185.985,266.48Zm0-8.536c-3.087,0-5.6,1.689-5.6,3.764s2.512,3.764,5.6,3.764,5.6-1.688,5.6-3.764S-182.9,257.945-185.985,257.945Z" transform="translate(192.591 -256.938)" fill="#e6ffff"/>
          </g>
          <path id="Path_28210" data-name="Path 28210" d="M-163.651,264.336h-8.924l-.506-1.823h9.43a.912.912,0,0,1,.911.911h0A.912.912,0,0,1-163.651,264.336Z" transform="translate(185.743 -258.895)" fill="#e6ffff"/>
        </g>
        <g id="Group_9310" data-name="Group 9310" transform="translate(13.842 24.625)">
          <path id="Path_28211" data-name="Path 28211" d="M-241.143,297.845a3.276,3.276,0,0,1,2.991-.044l.221.09-.785.487-.291-.118a1.174,1.174,0,0,0-1.108-.023c-.265.164-.225.335.277.537,1.447.585,3.341-.311,5.351.5,1.125.454,1.345.975.53,1.48a3.292,3.292,0,0,1-3.007.053l-.432-.174.785-.486.5.2a1.172,1.172,0,0,0,1.113.009c.264-.164.251-.339-.252-.542-1.447-.584-3.342.311-5.352-.5C-241.724,298.863-241.951,298.346-241.143,297.845Z" transform="translate(241.625 -287.888)" fill="#fff"/>
          <path id="Path_28212" data-name="Path 28212" d="M-234.334,296.4l1.14-.706,1,.406-1.14.7,2.06.833,1.435-.888,1,.406-2.266,1.4-7.033-2.839,2.266-1.4,1.005.406-1.435.889Z" transform="translate(240.398 -286.781)" fill="#fff"/>
          <path id="Path_28213" data-name="Path 28213" d="M-223.784,294.379l-.839.519-1.419-.426-1.02.631,1.133.6-.763.472-6.186-3.363,1.216-.752Zm-4.126.273.8-.5-3.956-1.188Z" transform="translate(238.555 -285.992)" fill="#fff"/>
          <path id="Path_28214" data-name="Path 28214" d="M-220.337,292a4.2,4.2,0,0,1-.939-.3l-1.105-.447a1.468,1.468,0,0,0-1.438-.025l-.287.178,2.863,1.157-.831.514-7.032-2.839,1.253-.776a2.946,2.946,0,0,1,2.849-.11l.552.224c.724.291,1.023.59.883.913a3.278,3.278,0,0,1,2.049.263l1.085.439a4.076,4.076,0,0,0,.944.289Zm-6.933-1.872,2.159.872.325-.2c.31-.191.318-.382-.245-.609l-.693-.28a1.2,1.2,0,0,0-1.146-.031Z" transform="translate(237.231 -284.932)" fill="#fff"/>
          <path id="Path_28215" data-name="Path 28215" d="M-217.281,287.661l.934.378c1.125.454,1.345.975.53,1.48a3.294,3.294,0,0,1-3.007.053l-3.657-1.476c-1.125-.454-1.344-.975-.529-1.48a3.292,3.292,0,0,1,3.006-.053l.684.276-.785.485-.754-.3a1.2,1.2,0,0,0-1.123-.013c-.264.164-.24.344.262.546l3.8,1.533a1.18,1.18,0,0,0,1.114.01c.264-.164.251-.339-.252-.542l-1-.406Z" transform="translate(235.264 -283.944)" fill="#fff"/>
          <path id="Path_28216" data-name="Path 28216" d="M-212.07,286.656l-.831.515-7.033-2.839.831-.515,3.015,1.217.944-.584-3.014-1.217.846-.524,7.033,2.839-.846.524-3.014-1.217-.944.584Z" transform="translate(234.011 -282.709)" fill="#fff"/>
        </g>
      </g>
      <g id="Group_9318" data-name="Group 9318" transform="translate(-183.222 103.056)">
        <path id="Path_28217" data-name="Path 28217" d="M-79.677,268.153c.153,1.816-2.473,3.973-5.864,4.817s-6.263.056-6.416-1.759,2.473-3.973,5.864-4.817S-79.83,266.337-79.677,268.153Z" transform="translate(98.181 -231.055)" fill="#c8e6eb"/>
        <g id="Group_9317" data-name="Group 9317" transform="translate(0)">
          <g id="Group_9312" data-name="Group 9312" transform="translate(6.868 17.226)">
            <path id="Path_28218" data-name="Path 28218" d="M-87.628,270.987c-.674.027-2.084-.895-2.784-.435-.935.614-.489,1.231-.045,1.719a14.89,14.89,0,0,0,4.089,1.834,1.837,1.837,0,0,0,1.664-.936,1.909,1.909,0,0,0-.169-1.457A5.222,5.222,0,0,0-87.628,270.987Z" transform="translate(90.962 -249.814)" fill="#aa3927"/>
            <path id="Path_28219" data-name="Path 28219" d="M-87,271.162h.008l2.991.874c.186.793-.5,1.364-1.843,1.092-1.274-.257-2.279-.513-2.486-1.415C-88.6,270.538-87.012,271.188-87,271.162Z" transform="translate(90.049 -250.019)" fill="#692823"/>
            <path id="Path_28220" data-name="Path 28220" d="M-81.228,267.588c-.674.026-2.084-.895-2.784-.435-.934.614-.489,1.231-.044,1.719a14.875,14.875,0,0,0,4.089,1.834,1.839,1.839,0,0,0,1.665-.936,1.911,1.911,0,0,0-.17-1.457A5.222,5.222,0,0,0-81.228,267.588Z" transform="translate(88.716 -248.621)" fill="#aa3927"/>
            <path id="Path_28221" data-name="Path 28221" d="M-80.6,267.762h.008l3.2,1.162c.186.793-.705,1.075-2.052.8-1.274-.257-2.279-.513-2.486-1.415C-82.2,267.139-80.612,267.789-80.6,267.762Z" transform="translate(87.803 -248.826)" fill="#692823"/>
            <path id="Path_28222" data-name="Path 28222" d="M-85.911,260.973s-.4-9.87-.255-10.894c.5-3.474-.577-7.835.419-11.015l7-.4a9.034,9.034,0,0,0,.323,2.127,9.512,9.512,0,0,1,.365,2.314c0,1.232-.352,1.478-.433,2.688-.051.768-.41,2.756-.631,4.829a60.014,60.014,0,0,0,.091,7.834l-2.727.062s-.289-6.227.286-8.738a7.972,7.972,0,0,0-.458-2.754,41.4,41.4,0,0,0-1.033,4.235c-.106,1.062-.332,9.254-.332,9.254A12.556,12.556,0,0,1-85.911,260.973Z" transform="translate(89.291 -238.669)" fill="#263364"/>
            <path id="Path_28223" data-name="Path 28223" d="M-86.4,242.252a27,27,0,0,1-.178,4.774,9.438,9.438,0,0,0-.385-2.5A3.358,3.358,0,0,1-86.4,242.252Z" transform="translate(89.583 -239.927)" fill="#1b2851"/>
            <path id="Path_28224" data-name="Path 28224" d="M-83.412,272.29a2.963,2.963,0,0,1-2.239-.214c-.225-.1-.415-.16-.439-.449a8.106,8.106,0,0,1,.14-1.573,4.331,4.331,0,0,0,2.726.166,6.206,6.206,0,0,1,.091,1.653A.6.6,0,0,1-83.412,272.29Z" transform="translate(89.255 -249.685)" fill="#375599"/>
            <path id="Path_28225" data-name="Path 28225" d="M-76.9,268.614a3.148,3.148,0,0,1-2.465-.117.625.625,0,0,1-.325-.529,4.149,4.149,0,0,1,.157-1.439,3.484,3.484,0,0,0,2.7-.239,4.656,4.656,0,0,1,.258,1.9A.467.467,0,0,1-76.9,268.614Z" transform="translate(87.005 -248.364)" fill="#375599"/>
          </g>
          <g id="Group_9316" data-name="Group 9316">
            <path id="Path_28226" data-name="Path 28226" d="M-84.23,215.294c.116,1.741.445,3.1,1.338,3.1,1.325,0,2.262-1.393,2.262-3.138s-.076-2.7-1.4-2.7S-84.343,213.583-84.23,215.294Z" transform="translate(95.47 -212.279)" fill="#fcae6e"/>
            <path id="Rectangle_1668" data-name="Rectangle 1668" d="M0,0H2.627a0,0,0,0,1,0,0V1.28A1.547,1.547,0,0,1,1.08,2.826h0A1.08,1.08,0,0,1,0,1.746V0A0,0,0,0,1,0,0Z" transform="translate(13.12 4.139)" fill="#fcae6e"/>
            <path id="Path_28227" data-name="Path 28227" d="M-83.6,215.008a2.025,2.025,0,0,1,1.588-2.23c1.079-.156,2.886.016,2.967,2.434-1.471.82-2.237,3.161-3.609,2.63C-82.739,216.679-83.592,216.811-83.6,215.008Z" transform="translate(95.247 -212.341)" fill="#fcae6e"/>
            <path id="Path_28228" data-name="Path 28228" d="M-77.345,220.3s1.815.861,1,6.381c-.2,1.379-4.139,2.453-4.139,2.453l-.7-2.248Z" transform="translate(94.397 -214.995)" fill="#4ab6bf"/>
            <path id="Path_28229" data-name="Path 28229" d="M-86.264,224.208c-.078-.274-.192-.937-.025-1.167a7.288,7.288,0,0,1,2.984-2.062c3.23-1.571,4.491-1.171,4.919.354a18.272,18.272,0,0,1,.171,4.9,40.851,40.851,0,0,0-.273,8.006c.042.3-.873,1.066-2.773,1.482-1.225.267-3.842.214-4.623-.7a.956.956,0,0,1-.291-.584l.268-7.071a.949.949,0,0,0-.036-.28Z" transform="translate(96.22 -214.882)" fill="#b6b9fe"/>
            <g id="Group_9313" data-name="Group 9313" transform="translate(0 5.844)">
              <path id="Path_28230" data-name="Path 28230" d="M-82.354,231.648l-18.207-10.495a.159.159,0,0,0-.149-.007c-.054.025-.718.38-.718.38l.624,16.683a.706.706,0,0,0,.356.613L-83,249.4a9.013,9.013,0,0,0,.842-.446.428.428,0,0,0,.158-.334V232.253A.7.7,0,0,0-82.354,231.648Z" transform="translate(101.503 -221.131)" fill="#fa968c"/>
              <path id="Path_28231" data-name="Path 28231" d="M-83.094,232.216-101.3,221.721a.162.162,0,0,0-.243.14v16.916a.705.705,0,0,0,.356.613l17.8,10.169a.431.431,0,0,0,.645-.374V232.821A.7.7,0,0,0-83.094,232.216Z" transform="translate(101.544 -221.33)" fill="#ff3c3c"/>
            </g>
            <g id="Group_9314" data-name="Group 9314" transform="translate(7.377 16.77)">
              <path id="Path_28232" data-name="Path 28232" d="M-86.62,243.387l-3.076,1.5a.334.334,0,0,1-.48-.3V238.3a.334.334,0,0,1,.615-.18l3.076,4.786A.334.334,0,0,1-86.62,243.387Z" transform="translate(90.177 -237.966)" fill="#e6ffff"/>
            </g>
            <g id="Group_9315" data-name="Group 9315" transform="translate(2.559 8.027)">
              <path id="Path_28233" data-name="Path 28233" d="M-94.335,232.536a5.057,5.057,0,0,1-1.794-.273c-.5-.445-1.554-.864-1.467-1.281a1.4,1.4,0,0,1,1.348-.269c.12.038.718.1.861.145.249.069-.448-.508-.294-.582.258-.125,1.517.9,1.552,1.124A5.948,5.948,0,0,1-94.335,232.536Z" transform="translate(97.601 -226.519)" fill="#fcae6e"/>
              <path id="Path_28234" data-name="Path 28234" d="M-92.915,229.5c-.173.445-.236,1.012.156,1.117,2.592,1.062,5.3,1.177,5.527.612.164-.413.388-5.178.388-5.178l-1-1.323c-.426-.443-.9-.23-1.048.367l-.562,3.833c-.029.372-.04.648-.406.572-.6-.125-1.894-.14-2.586-.262A.427.427,0,0,0-92.915,229.5Z" transform="translate(96.004 -224.494)" fill="#8489fc"/>
            </g>
            <path id="Path_28235" data-name="Path 28235" d="M-81.978,221.019a1.027,1.027,0,0,0,.337.733,1.456,1.456,0,0,0,.791.25,1.413,1.413,0,0,0,1.532-1.725C-79.4,219.558-81.278,220.484-81.978,221.019Z" transform="translate(94.677 -214.895)" fill="#fcae6e"/>
            <path id="Path_28236" data-name="Path 28236" d="M-82.457,217.934c.8,1.484,2.833.8,3.089.5.295-.342-.139-.548-.24-.729a.984.984,0,0,1-.086-.715,6.041,6.041,0,0,0-.007-3.127,2.724,2.724,0,0,0-3.13-1.665c-1.366.347-2.037.84-2.033,1.5a2.581,2.581,0,0,0,.8,1.523c.119.123.186.861.3.958s.415-.428.484-.322A13.092,13.092,0,0,1-82.457,217.934Z" transform="translate(95.69 -212.127)" fill="#cd5014"/>
            <path id="Path_28237" data-name="Path 28237" d="M-82.107,218.942c.8,1.484,2.833.8,3.089.5.295-.342-.139-.548-.24-.729-1.418.866-2.528.141-2.481-2.343.023-1.227-1.5-1.63-1.9-1.216a.86.86,0,0,0-.078,1.072c.119.123.186.861.3.958s.415-.428.484-.322A13.088,13.088,0,0,1-82.107,218.942Z" transform="translate(95.34 -213.134)" fill="#c44d13"/>
            <path id="Path_28238" data-name="Path 28238" d="M-82.8,217.887c0,.428-.02.853.313.853s.754-.537.754-.964-.13-.663-.464-.663A.7.7,0,0,0-82.8,217.887Z" transform="translate(94.965 -213.877)" fill="#fcae6e"/>
          </g>
        </g>
      </g>
      <g id="Group_9319" data-name="Group 9319" transform="translate(-316.859 44.058)">
        <path id="Path_28239" data-name="Path 28239" d="M-304.545,162.777l-.838.493-.143-.875-1.02.6-.143,1.042-.763.448.846-5.779,1.215-.715Zm-1.894-.561.8-.471-.4-2.436Z" transform="translate(307.451 -134.128)" fill="#05cdff"/>
        <path id="Path_28240" data-name="Path 28240" d="M-302.382,156.324l1.313-.772c.83-.487,1.238-.267,1.238.578V158.8a2.274,2.274,0,0,1-1.238,2.033l-1.313.772Zm.829.266v3.773l.468-.275a.808.808,0,0,0,.423-.761V156.58c0-.377-.158-.42-.423-.264Z" transform="translate(305.672 -133.182)" fill="#05cdff"/>
        <path id="Path_28241" data-name="Path 28241" d="M-296.518,156.83l.634-4.681.763-.448-.815,5.761-1.238.727-.815-4.8.837-.492Z" transform="translate(304.13 -131.92)" fill="#05cdff"/>
        <path id="Path_28242" data-name="Path 28242" d="M-290.7,154.641l-.837.492-.144-.874-1.019.6-.143,1.042-.762.448.845-5.778,1.216-.715Zm-1.895-.562.8-.47-.4-2.436Z" transform="translate(302.592 -131.272)" fill="#05cdff"/>
        <path id="Path_28243" data-name="Path 28243" d="M-287.8,148.93v3.826l-.747.439v-5.282l1.042-.612.853,2.66V146.8l.739-.434v5.282l-.853.5Z" transform="translate(300.817 -130.047)" fill="#05cdff"/>
        <path id="Path_28244" data-name="Path 28244" d="M-281.205,147.186v.7a2.328,2.328,0,0,1-1.238,2.055c-.815.479-1.238.245-1.238-.6V146.6a2.328,2.328,0,0,1,1.238-2.056c.815-.479,1.238-.245,1.238.6v.513l-.785.461v-.565c0-.378-.166-.424-.43-.269a.833.833,0,0,0-.43.774v2.852c0,.376.166.416.43.261a.822.822,0,0,0,.43-.766v-.755Z" transform="translate(299.108 -129.321)" fill="#05cdff"/>
        <path id="Path_28245" data-name="Path 28245" d="M-278.26,144.208l1.14-.67v.755l-1.14.669v1.547l1.434-.842v.755l-2.264,1.331v-5.282l2.264-1.33v.754l-1.434.843Z" transform="translate(297.497 -128.213)" fill="#05cdff"/>
        <path id="Path_28246" data-name="Path 28246" d="M-274.812,140.118l1.313-.772c.83-.488,1.238-.267,1.238.578V142.6a2.276,2.276,0,0,1-1.238,2.033l-1.313.772Zm.83.266v3.773l.468-.274a.809.809,0,0,0,.423-.762v-2.747c0-.376-.158-.419-.423-.264Z" transform="translate(295.995 -127.494)" fill="#05cdff"/>
        <path id="Path_28247" data-name="Path 28247" d="M-267.22,135.593c.807-.475,1.222-.236,1.222.609v.166l-.785.461v-.219c0-.378-.151-.432-.415-.277a.809.809,0,0,0-.415.765c0,1.086,1.623.337,1.623,1.846A2.329,2.329,0,0,1-267.227,141c-.815.479-1.238.245-1.238-.6v-.324l.785-.461v.377c0,.377.166.416.43.26a.819.819,0,0,0,.43-.765c0-1.086-1.623-.337-1.623-1.846A2.308,2.308,0,0,1-267.22,135.593Z" transform="translate(293.768 -126.182)" fill="#05cdff"/>
        <path id="Path_28248" data-name="Path 28248" d="M-263.091,135.292l1.14-.67v.755l-1.14.669v1.547l1.434-.842v.755l-2.263,1.331v-5.282l2.263-1.33v.754l-1.434.843Z" transform="translate(292.172 -125.084)" fill="#05cdff"/>
        <path id="Path_28249" data-name="Path 28249" d="M-257.074,134.876l-.838.493-.143-.874-1.019.6-.143,1.042-.762.448.845-5.779,1.215-.714Zm-1.895-.561.8-.471-.4-2.436Z" transform="translate(290.789 -124.336)" fill="#05cdff"/>
        <path id="Path_28250" data-name="Path 28250" d="M-253.177,132.69a1.265,1.265,0,0,1-.075-.6v-.83c0-.491-.166-.574-.543-.352l-.287.169v2.151l-.83.488v-5.282l1.253-.737c.86-.506,1.231-.323,1.231.492v.414a1.935,1.935,0,0,1-.544,1.391c.415-.071.551.249.551.8v.815a1.2,1.2,0,0,0,.09.588Zm-.905-4v1.623l.324-.191a.905.905,0,0,0,.5-.851v-.521c0-.377-.128-.467-.423-.3Z" transform="translate(289.011 -123.395)" fill="#05cdff"/>
        <path id="Path_28251" data-name="Path 28251" d="M-247.869,127.591v.7a2.328,2.328,0,0,1-1.238,2.056c-.815.479-1.238.245-1.238-.6V127a2.327,2.327,0,0,1,1.238-2.055c.815-.48,1.238-.245,1.238.6v.513l-.785.461v-.565c0-.378-.166-.424-.43-.269a.832.832,0,0,0-.43.774v2.852c0,.377.165.416.43.26a.82.82,0,0,0,.43-.766v-.755Z" transform="translate(287.408 -122.444)" fill="#05cdff"/>
        <path id="Path_28252" data-name="Path 28252" d="M-244.923,127.556l-.831.488v-5.282l.831-.488v2.263l.943-.554V121.72l.845-.5V126.5l-.845.5v-2.264l-.943.554Z" transform="translate(285.796 -121.223)" fill="#05cdff"/>
      </g>
      <g id="Group_9324" data-name="Group 9324" transform="translate(-183.407 -5.272)">
        <g id="Group_9323" data-name="Group 9323" transform="translate(0)">
          <ellipse id="Ellipse_494" data-name="Ellipse 494" cx="4.444" cy="8.714" rx="4.444" ry="8.714" transform="translate(3.179 60.854) rotate(-72.723)" fill="#c8e6eb"/>
          <g id="Group_9322" data-name="Group 9322">
            <path id="Path_28253" data-name="Path 28253" d="M-84.235,50.248c-2.608,1.069-2.72,7.293-3.3,8.086-.909,1.246-4.6,5.976-5.044,6.737s1.254,1.986,1.791,1.44c.428-.433,4.069-4.09,5.54-5.567a2.227,2.227,0,0,0,.647-1.483Z" transform="translate(93.145 -42.635)" fill="#0382ff"/>
            <g id="Group_9320" data-name="Group 9320" transform="translate(4.514)">
              <path id="Path_28254" data-name="Path 28254" d="M-73.646,102.231S-74,88.908-74,87.489c0-.454.153-1.736.346-3.723.317-3.255.709-8.6-.219-11.567l-10.37.963s-.2,4.4-.2,4.729c0,.516,1.57,14.231,1.37,20.9l3.738.085s.4-8.535-.392-11.978c-.039-2.073.121-6.737.121-6.737s1.369,6.246,1.514,7.7.864,13.751.864,13.751A17.19,17.19,0,0,0-73.646,102.231Z" transform="translate(87.725 -45.057)" fill="#3a55ca"/>
              <path id="Path_28255" data-name="Path 28255" d="M-71.124,59.916a6.853,6.853,0,0,0-.81-4.418c-.738-1.556-2.834-2.859-5.357-4.086-4.81-2.339-6.688-1.745-7.325.527a27.172,27.172,0,0,0-.255,7.292,60.874,60.874,0,0,1,.407,11.922c-.062.452,1.3,1.588,4.13,2.206,2.052.448,6.723.291,7.181-1.609l-.269-11.043Z" transform="translate(87.787 -42.599)" fill="#bedaff"/>
              <path id="Path_28256" data-name="Path 28256" d="M-73.129,61.957h-1.244c-.8,2.872-1.21,5.456-4.23,6.623a15.42,15.42,0,0,1-5.648.667c-.011,1.084-.06,2.6-.147,3.234-.062.452,1.3,1.588,4.13,2.206,2.052.448,6.723.291,7.181-1.609l-.269-11.043Z" transform="translate(87.72 -43.927)" fill="#bedaff"/>
              <path id="Path_28257" data-name="Path 28257" d="M-81.874,52.746c0,.972,1.237,1.76,2.763,1.76s2.763-.788,2.763-1.76-1.238-1.759-2.763-1.759S-81.874,51.775-81.874,52.746Z" transform="translate(87.441 -42.717)" fill="#0382ff"/>
              <path id="Path_28258" data-name="Path 28258" d="M-81.242,52.2c0,.773.986,1.4,2.2,1.4s2.2-.627,2.2-1.4-.985-1.4-2.2-1.4S-81.242,51.428-81.242,52.2Z" transform="translate(87.371 -42.696)" fill="#ffc2b0"/>
              <path id="Rectangle_1669" data-name="Rectangle 1669" d="M1.639,0H3.06a.852.852,0,0,1,.852.852V4.209a0,0,0,0,1,0,0H0a0,0,0,0,1,0,0V1.639A1.639,1.639,0,0,1,1.639,0Z" transform="translate(10.191 10.107) rotate(180)" fill="#ffc2b0"/>
              <path id="Path_28259" data-name="Path 28259" d="M-77.589,48.321a4.106,4.106,0,0,1-2.753,3.96h0a.553.553,0,0,1-.731-.524V48.321Z" transform="translate(87.353 -42.423)" fill="#dd936f"/>
              <path id="Path_28260" data-name="Path 28260" d="M-82.7,45.9c.172,2.593.662,4.617,1.992,4.617,1.973,0,3.368-2.074,3.368-4.673s-.114-4.016-2.087-4.016S-82.872,43.356-82.7,45.9Z" transform="translate(87.534 -41.707)" fill="#ffc2b0"/>
              <path id="Path_28261" data-name="Path 28261" d="M-77.357,49.444a14.948,14.948,0,0,0-.291-3.008c-.191-.985-.337-1.332-1.181-1.521-.25-.055-2.191.554-2.667.5-.614-.075-1.092-1.191-1.218-.339,0,0-.347-.587.084-2.047.357-1.21,5.708-2.92,6.372,1.714C-75.921,47.092-77.018,48.206-77.357,49.444Z" transform="translate(87.548 -41.691)" fill="#b25e02"/>
              <path id="Path_28262" data-name="Path 28262" d="M-77.749,47.443c0,.636-.029,1.27.467,1.27s1.124-.8,1.124-1.437-.194-.987-.691-.987A1.05,1.05,0,0,0-77.749,47.443Z" transform="translate(86.986 -42.199)" fill="#ffc2b0"/>
              <path id="Path_28263" data-name="Path 28263" d="M-83.66,72.916h.049c1.206-.034,1.409-1.525.226-1.762a7.142,7.142,0,0,1-1.4-.329l-.628-.963c-.136-.209-.845-.9-1.05-.754-.166.116.341.9.411,1.093,0,0,.533.9-.133.576-.576-.278-2.02-2.679-1.941-.9C-88.039,71.873-85.316,72.932-83.66,72.916Z" transform="translate(88.132 -44.714)" fill="#fcae6e"/>
              <path id="Path_28264" data-name="Path 28264" d="M-70.876,59.867s-.495,8.114-.658,8.9-2.78,4.887-11.51,3.45a9.978,9.978,0,0,1-.152-2.6c1.712-.1,6.979-.093,8.159-1.911.4-.618.529-4.356.529-4.356a3.148,3.148,0,0,1,3.632-3.482Z" transform="translate(87.591 -43.692)" fill="#0382ff"/>
            </g>
            <path id="Path_28265" data-name="Path 28265" d="M-79.313,102.27s-.031,1.585,0,2-3.778,2.786-5.49,3.071a1.907,1.907,0,0,1-1.866-.589.813.813,0,0,1,.126-1.157,21.446,21.446,0,0,0,3.456-3.5Z" transform="translate(92.505 -48.355)" fill="#373c41"/>
            <path id="Path_28266" data-name="Path 28266" d="M-73.109,105.886a15.347,15.347,0,0,1,.314,2.464c-.073.476-.378,3.521-2.979,3.394s-.888-3.268-.73-3.68.508-2.179.508-2.179Z" transform="translate(91.44 -48.774)" fill="#373c41"/>
            <path id="Path_28267" data-name="Path 28267" d="M-79.29,104.674a7.992,7.992,0,0,0-4.256-1.592c.531-.6.825-.993.825-.993l3.773.18s-.031,1.585,0,2C-78.942,104.344-79.069,104.489-79.29,104.674Z" transform="translate(92.14 -48.355)" fill="#1b2851"/>
            <path id="Path_28268" data-name="Path 28268" d="M-76.3,107.713c.172-.658.4-1.827.4-1.827h2.887a17.491,17.491,0,0,1,.32,2.383A5.4,5.4,0,0,0-76.3,107.713Z" transform="translate(91.34 -48.774)" fill="#1b2851"/>
            <path id="Path_28269" data-name="Path 28269" d="M-76.466,105.979a5.979,5.979,0,0,0,3.387-.017.5.5,0,0,0,.375-.412,3.177,3.177,0,0,0-.16-2.015l.01.369a3.706,3.706,0,0,1-3.366.094c-.074-.036-.19-.486-.263-.528a3.124,3.124,0,0,0-.313,2.1A.491.491,0,0,0-76.466,105.979Z" transform="translate(91.401 -48.508)" fill="#293677"/>
            <path id="Path_28270" data-name="Path 28270" d="M-82.945,102.337a6.1,6.1,0,0,0,3.764.045.631.631,0,0,0,.454-.589,7.476,7.476,0,0,0-.42-2.24l-.007.306a.371.371,0,0,1-.265.351,5.189,5.189,0,0,1-3.26-.122.374.374,0,0,1-.254-.355l0-.392a5.608,5.608,0,0,0-.459,2.417A.641.641,0,0,0-82.945,102.337Z" transform="translate(92.124 -48.052)" fill="#293677"/>
            <g id="Group_9321" data-name="Group 9321" transform="translate(0.041 20.422)">
              <path id="Path_28273" data-name="Path 28273" d="M-87.191,69.623l-2.4-.25-3.567-4.007,2.4.25Z" transform="translate(93.159 -64.726)" fill="#2d5d92"/>
              <path id="Path_28274" data-name="Path 28274" d="M-86.893,69.575l.583-.64-3.567-4.007-.583.64Z" transform="translate(92.862 -64.677)" fill="#4ab6bf"/>
              <path id="Path_28275" data-name="Path 28275" d="M-93.159,65.286l.583-.64,2.4.25-.583.64Z" transform="translate(93.159 -64.646)" fill="#4ab6bf"/>
            </g>
            <path id="Path_28276" data-name="Path 28276" d="M-92.418,66.235a1.936,1.936,0,0,0,1.377.516c.7.088,1.383.081,1.5.383.129.343-.563.339-.563.339s-1.089,0-1.036.1a4.732,4.732,0,0,0,1.355.241c.6.028.859.01.887.3.041.429-1.616.133-1.586.3s1.329.305,1.436.378.012.222-.479.3a3.851,3.851,0,0,1-2.1-.283c-1.109-.711-1.746-1.969-1.53-2.567l.214-.6Z" transform="translate(93.206 -44.333)" fill="#fcae6e"/>
            <path id="Path_28277" data-name="Path 28277" d="M-78.09,48.773h0c.291-.991.811-2.582,0-3.378h.83v2.548A.83.83,0,0,1-78.09,48.773Z" transform="translate(91.538 -42.1)" fill="#b25e02"/>
          </g>
        </g>
        <path id="Path_28278" data-name="Path 28278" d="M-72.462,88.377a3.833,3.833,0,0,1-2.083.165.793.793,0,0,1-.659-.772V83.634a.762.762,0,0,1,.82-.768,5.994,5.994,0,0,0,1.922-.133Z" transform="translate(91.22 -46.219)" fill="#293677"/>
        <path id="Path_28279" data-name="Path 28279" d="M-83.831,82.616c-.133.012-.268,0-.4.005a54.876,54.876,0,0,0,.564,5.671.793.793,0,0,0,.658-.771V83.383A.762.762,0,0,0-83.831,82.616Z" transform="translate(92.216 -46.206)" fill="#293677"/>
        <path id="Path_28280" data-name="Path 28280" d="M-75.472,76.37s.312,2.742,2.08,3.576v-4.1A11.081,11.081,0,0,1-75.472,76.37Z" transform="translate(91.249 -45.46)" fill="#293677"/>
        <path id="Path_28281" data-name="Path 28281" d="M-83.515,74.8s-.089,3.117-.929,3.3c0,0,0-2.472.139-4.006A3.448,3.448,0,0,0-83.515,74.8Z" transform="translate(92.239 -45.266)" fill="#293677"/>
        <path id="Path_28282" data-name="Path 28282" d="M-79.183,76.363v3.616A1.113,1.113,0,0,1-80.3,78.866V76.138Z" transform="translate(91.781 -45.492)" fill="#293677"/>
      </g>
      <g id="Group_9328" data-name="Group 9328" transform="translate(-223.536 30.185)">
        <g id="Group_9325" data-name="Group 9325" transform="translate(9.694 33.827)">
          <path id="Path_28283" data-name="Path 28283" d="M-145.388,184.285c-.674.027-2.085-.894-2.785-.434-.934.613-.489,1.231-.044,1.718a14.854,14.854,0,0,0,4.089,1.835,1.842,1.842,0,0,0,1.665-.936,1.911,1.911,0,0,0-.17-1.457A5.218,5.218,0,0,0-145.388,184.285Z" transform="translate(148.723 -163.113)" fill="#aa3927"/>
          <path id="Path_28284" data-name="Path 28284" d="M-144.76,184.46h.008l3.2,1.162c.186.793-.705,1.075-2.052.8-1.274-.256-2.279-.513-2.486-1.414C-146.359,183.837-144.773,184.487-144.76,184.46Z" transform="translate(147.809 -163.318)" fill="#692823"/>
          <path id="Path_28285" data-name="Path 28285" d="M-138.988,180.886c-.674.027-2.085-.894-2.784-.435-.935.614-.49,1.231-.045,1.719A14.852,14.852,0,0,0-137.728,184a1.84,1.84,0,0,0,1.664-.936,1.911,1.911,0,0,0-.17-1.457A5.218,5.218,0,0,0-138.988,180.886Z" transform="translate(146.477 -161.92)" fill="#aa3927"/>
          <path id="Path_28286" data-name="Path 28286" d="M-138.36,181.061h.008l3.2,1.162c.186.793-.705,1.075-2.052.8-1.273-.256-2.279-.513-2.486-1.414C-139.959,180.438-138.373,181.088-138.36,181.061Z" transform="translate(145.563 -162.125)" fill="#692823"/>
          <path id="Path_28287" data-name="Path 28287" d="M-143.672,174.272s-.4-9.87-.254-10.894c.5-3.474-.578-7.835.419-11.014l7-.4a9.031,9.031,0,0,0,.323,2.126,9.518,9.518,0,0,1,.365,2.314c0,1.232-.352,1.478-.432,2.688-.051.767-.411,2.756-.632,4.829a60.127,60.127,0,0,0,.091,7.834l-2.727.062a68.676,68.676,0,0,0-.454-8.1c.029-1.513.282-3.4.282-3.4a41.245,41.245,0,0,0-1.033,4.236c-.106,1.061-.332,9.253-.332,9.253A12.531,12.531,0,0,1-143.672,174.272Z" transform="translate(147.051 -151.968)" fill="#263364"/>
          <path id="Path_28288" data-name="Path 28288" d="M-140.969,185.678a3.586,3.586,0,0,1-2.471.02c-.225-.1-.388-.184-.411-.473a3.9,3.9,0,0,1,.151-1.377,5.367,5.367,0,0,0,2.745,0,4.122,4.122,0,0,1,.228,1.532A.355.355,0,0,1-140.969,185.678Z" transform="translate(147.017 -163.157)" fill="#375599"/>
          <path id="Path_28289" data-name="Path 28289" d="M-134.616,181.912a3.458,3.458,0,0,1-2.587-.158c-.184-.076-.242-.477-.243-.676a3.6,3.6,0,0,1,.19-1.334,4.145,4.145,0,0,0,2.669-.155,4.911,4.911,0,0,1,.306,1.95A.417.417,0,0,1-134.616,181.912Z" transform="translate(144.765 -161.663)" fill="#375599"/>
        </g>
        <path id="Path_28290" data-name="Path 28290" d="M-141.99,128.592c.116,1.741.445,3.1,1.338,3.1,1.325,0,2.262-1.392,2.262-3.137s-.077-2.7-1.4-2.7S-142.1,126.882-141.99,128.592Z" transform="translate(156.057 -108.976)" fill="#fcae6e"/>
        <path id="Rectangle_1670" data-name="Rectangle 1670" d="M0,0H2.627a0,0,0,0,1,0,0V1.28A1.547,1.547,0,0,1,1.08,2.826h0A1.08,1.08,0,0,1,0,1.746V0A0,0,0,0,1,0,0Z" transform="translate(15.946 20.74)" fill="#fcae6e"/>
        <path id="Path_28291" data-name="Path 28291" d="M-143.907,158.554s.165,1,.773,1.2v-3.166a3.415,3.415,0,0,1-.743-.7Z" transform="translate(156.726 -119.517)" fill="#1e284f"/>
        <path id="Path_28292" data-name="Path 28292" d="M-141.362,128.307a2.024,2.024,0,0,1,1.587-2.229c1.08-.156,2.887.016,2.967,2.434-1.471.819-2.237,3.161-3.608,2.629C-140.5,129.978-141.353,130.11-141.362,128.307Z" transform="translate(155.833 -109.039)" fill="#fcae6e"/>
        <path id="Path_28293" data-name="Path 28293" d="M-143.768,137.193c-.078-.274-.978-.352-.81-.583a9.2,9.2,0,0,1,3.35-2.333c3.23-1.571,4.491-1.171,4.918.354a18.213,18.213,0,0,1,.171,4.9,35.857,35.857,0,0,0,.093,7.8c.042.3-1.238,1.276-3.139,1.691-1.225.268-4.185.071-4.966-.84a.957.957,0,0,1-.291-.584Z" transform="translate(156.969 -111.58)" fill="#b6b9fe"/>
        <path id="Path_28294" data-name="Path 28294" d="M-139.67,134.32c0,.025.049.431.078.571a1.652,1.652,0,0,0,1.1.489,1.45,1.45,0,0,0,1.435-1.782C-137.14,132.878-138.7,134.118-139.67,134.32Z" transform="translate(155.239 -111.615)" fill="#eb9b59"/>
        <path id="Path_28295" data-name="Path 28295" d="M-146.831,128.112c-.28-.387-.661-.379-1.043-.478-2.3,1.6-3.817,3.133-3.606,4.154.09.434,5.225,5.526,5.225,5.526l.563-2.5a.779.779,0,0,0,.418-1.3l-3.5-2.214c-.3-.226,1.119-2.133,1.6-2.647C-147.043,128.5-146.712,128.277-146.831,128.112Z" transform="translate(159.391 -109.6)" fill="#8489fc"/>
        <path id="Path_28296" data-name="Path 28296" d="M-140,131.233c.8,1.484,2.833.8,3.089.5.295-.342-.138-.548-.24-.729a.984.984,0,0,1-.085-.715,6.042,6.042,0,0,0-.008-3.128,2.725,2.725,0,0,0-3.13-1.665c-1.366.347-1.631,1.1-1.627,1.757a1.684,1.684,0,0,0,.4,1.264c.119.123.186.861.3.958s.414-.428.483-.323A13.1,13.1,0,0,1-140,131.233Z" transform="translate(156.057 -108.824)" fill="#5b2b10"/>
        <path id="Path_28297" data-name="Path 28297" d="M-140,132.081c.8,1.484,2.833.8,3.089.5.295-.342-.138-.548-.24-.729-1.418.865-2.625.137-2.481-2.343.083-1.432-2.373-2.065-2.37-1.408a1.684,1.684,0,0,0,.4,1.264c.119.123.186.861.3.958s.414-.428.483-.323A13.1,13.1,0,0,1-140,132.081Z" transform="translate(156.057 -109.673)" fill="#4f230e"/>
        <path id="Path_28298" data-name="Path 28298" d="M-140.561,131.186c0,.427-.019.853.314.853s.753-.537.753-.965-.13-.663-.463-.663A.705.705,0,0,0-140.561,131.186Z" transform="translate(155.552 -110.575)" fill="#fcae6e"/>
        <path id="Path_28299" data-name="Path 28299" d="M-149.708,101.343l-13.951,7.939s.01.622,0,.852a.721.721,0,0,0,.359.657l19.383,11.38a.726.726,0,0,0,.746-.006l13.685-8.335a.719.719,0,0,0,.347-.578c.015-.259,0-.959,0-.959l-19.832-10.957A.728.728,0,0,0-149.708,101.343Z" transform="translate(163.659 -100.335)" fill="#ffa50a"/>
        <path id="Path_28300" data-name="Path 28300" d="M-148.969,99.944a.727.727,0,0,0-.739.007l-13.6,8.2a.727.727,0,0,0,.008,1.25l19.383,11.379a.726.726,0,0,0,.746-.006l13.685-8.335a.727.727,0,0,0-.015-1.251Z" transform="translate(163.659 -99.847)" fill="#ffc305"/>
        <g id="Group_9327" data-name="Group 9327" transform="translate(3.527 2.148)">
          <path id="Path_28301" data-name="Path 28301" d="M-146.537,103.235a.577.577,0,0,0-.588.005l-10.82,6.524a.578.578,0,0,0,.006.994l15.423,9.055a.578.578,0,0,0,.594-.005l10.889-6.632a.578.578,0,0,0-.012-.995Z" transform="translate(158.225 -103.157)" fill="#fff"/>
          <path id="Path_28302" data-name="Path 28302" d="M-144.151,106.117l-2.629,7.685-5.966-2.629Z" transform="translate(156.302 -104.196)" fill="#5acbe5"/>
          <path id="Path_28303" data-name="Path 28303" d="M-144.151,106.117l7.868,6.659-16.462-1.6Z" transform="translate(156.302 -104.196)" fill="#6ee1ff"/>
          <g id="Group_9326" data-name="Group 9326" transform="translate(12.913 9.923)">
            <path id="Path_28304" data-name="Path 28304" d="M-135.769,118.446c-1.412,0-2.56.772-2.56,1.722s1.148,1.721,2.56,1.721,2.56-.772,2.56-1.721S-134.357,118.446-135.769,118.446Z" transform="translate(138.329 -118.446)" fill="#ffe65a"/>
          </g>
        </g>
        <path id="Path_28305" data-name="Path 28305" d="M-145.913,126.63s.4-1.848.8-1.857c.252-.005.334.257.537.423.114.094.5.067.58.142a3.4,3.4,0,0,1,.21.312.663.663,0,0,0,.24.228,2.551,2.551,0,0,1,.308.188c.083.171-.324.136-.661.352a.384.384,0,0,0-.191.347c.02.17.591.073.57.242-.035.284-1.192.442-1.394.352A.877.877,0,0,1-145.913,126.63Z" transform="translate(157.43 -108.595)" fill="#fcae6e"/>
        <path id="Path_28306" data-name="Path 28306" d="M-136.968,166.729c0-.145-.116-1.394-.116-1.394l.328-.809.281-1.044a9.71,9.71,0,0,0,.957-3.247,5.114,5.114,0,0,1-2.02,2.994s-.254,1.885-.282,3.4c.132.891.225,1.923.291,2.946h0S-136.968,166.875-136.968,166.729Z" transform="translate(154.59 -121.042)" fill="#1e284f"/>
      </g>
      <path id="Path_28307" data-name="Path 28307" d="M-322.49,249.673s1.844-.01,2.072-.956c0,0,1.258,1.8.288,2.9s-2.36-.145-2.36-.145Z" transform="translate(-4.13 -121.913)" fill="#304a85"/>
    </g>
  </g>
</svg>
