<svg xmlns="http://www.w3.org/2000/svg" xmlns:xlink="http://www.w3.org/1999/xlink" width="370" height="300" viewBox="0 0 370 300">
  <defs>
    <radialGradient id="radial-gradient" cx="0.5" cy="0.5" r="0.5" gradientUnits="objectBoundingBox">
      <stop offset="0" stop-color="#0094d6"/>
      <stop offset="1" stop-color="#002c9a"/>
    </radialGradient>
    <linearGradient id="linear-gradient" x1="0.251" y1="1.205" x2="0.697" y2="-0.064" gradientUnits="objectBoundingBox">
      <stop offset="0" stop-color="#111581" stop-opacity="0"/>
      <stop offset="0.11" stop-color="#101983" stop-opacity="0.02"/>
      <stop offset="0.233" stop-color="#0f2589" stop-opacity="0.071"/>
      <stop offset="0.363" stop-color="#0e3995" stop-opacity="0.161"/>
      <stop offset="0.497" stop-color="#0c55a4" stop-opacity="0.282"/>
      <stop offset="0.635" stop-color="#097ab8" stop-opacity="0.443"/>
      <stop offset="0.775" stop-color="#06a6d1" stop-opacity="0.635"/>
      <stop offset="0.916" stop-color="#02daed" stop-opacity="0.863"/>
      <stop offset="0.994" stop-color="#00faff"/>
    </linearGradient>
    <linearGradient id="linear-gradient-2" x1="-0.045" y1="0.424" x2="1.11" y2="0.588" gradientUnits="objectBoundingBox">
      <stop offset="0" stop-color="#baffff"/>
      <stop offset="1" stop-color="#06e6ff" stop-opacity="0"/>
    </linearGradient>
    <clipPath id="clip-path">
      <path id="Path_29675" data-name="Path 29675" d="M0,16.878,2.354,0l9.118,2.477L9.118,19.355Z" fill="#ffff3f"/>
    </clipPath>
    <clipPath id="clip-path-2">
      <path id="Path_29675-2" data-name="Path 29675" d="M0,19.043,2.656,0,12.944,2.795,10.288,21.838Z" fill="#ffff3f"/>
    </clipPath>
    <clipPath id="clip-path-3">
      <path id="Path_29675-3" data-name="Path 29675" d="M0,9.655,1.347,0,6.562,1.417,5.216,11.072Z" fill="#ffff3f"/>
    </clipPath>
    <clipPath id="clip-path-4">
      <path id="Path_29675-4" data-name="Path 29675" d="M0,11.56,1.612,0,7.858,1.7,6.245,13.257Z" fill="#faffff"/>
    </clipPath>
    <clipPath id="clip-path-5">
      <path id="Path_29675-5" data-name="Path 29675" d="M0,12.577,1.754,0,8.549,1.846,6.795,14.423Z" fill="#faffff"/>
    </clipPath>
    <clipPath id="clip-path-6">
      <path id="Path_29675-6" data-name="Path 29675" d="M0,4.2.586,0,2.857.617l-.586,4.2Z" fill="#ffff3f"/>
    </clipPath>
    <clipPath id="clip-path-7">
      <path id="Path_29675-7" data-name="Path 29675" d="M0,7.466,1.041,0,5.075,1.1,4.033,8.562Z" fill="#ffff3f"/>
    </clipPath>
  </defs>
  <g id="Group_14531" data-name="Group 14531" transform="translate(-1175 -3061)">
    <g id="Group_8217" data-name="Group 8217" transform="translate(0 1845)">
      <path id="Rectangle_1462" data-name="Rectangle 1462" d="M10,0H360a10,10,0,0,1,10,10V300a0,0,0,0,1,0,0H0a0,0,0,0,1,0,0V10A10,10,0,0,1,10,0Z" transform="translate(1175 1216)" fill="url(#radial-gradient)"/>
    </g>
    <g id="Group_9827" data-name="Group 9827" transform="translate(1158.135 3033.549)">
      <g id="Group_9727" data-name="Group 9727" transform="translate(117.865 175.067)">
        <g id="Group_9726" data-name="Group 9726" transform="translate(0 0)">
          <path id="Path_29137" data-name="Path 29137" d="M190.785,224.021a10.766,10.766,0,0,1,9.808-.041l26.517,15.343c2.7,1.565,2.71,4.136.014,5.714l-50.3,29.443a10.714,10.714,0,0,1-9.8-.011L141,259.152c-2.692-1.584-2.693-4.179,0-5.766Z" transform="translate(-138.978 -222.302)" fill="#0683ff"/>
          <path id="Path_29138" data-name="Path 29138" d="M190.785,223.306a10.765,10.765,0,0,1,9.808-.041l26.517,15.343c2.7,1.564,2.71,4.135.014,5.714l-50.3,29.442a10.714,10.714,0,0,1-9.8-.011L141,258.437c-2.692-1.584-2.693-4.179,0-5.765Z" transform="translate(-138.978 -222.104)" fill="#06e6ff"/>
          <path id="Path_29139" data-name="Path 29139" d="M175.674,281.236c2.658,1.962,7.414,2.226,10.622.588s3.653-4.558,1-6.52-7.415-2.227-10.622-.588S173.016,279.272,175.674,281.236Z" transform="translate(-148.663 -236.381)" fill="#ff277d"/>
          <path id="Path_29140" data-name="Path 29140" d="M187.845,274.833c2.658,1.962,7.413,2.225,10.623.587s3.652-4.558.995-6.52-7.414-2.227-10.621-.588S185.187,272.868,187.845,274.833Z" transform="translate(-152.035 -234.607)" fill="#ffb700"/>
          <g id="Group_9723" data-name="Group 9723" transform="translate(1.323 0.795)">
            <path id="Path_29141" data-name="Path 29141" d="M200.356,223.2a7.109,7.109,0,0,1,.743.367l5.353,3.1L146.738,261.82l-5.233-3.078a5.709,5.709,0,0,1-.7-.487Z" transform="translate(-140.808 -223.204)" fill="#2d2ebc"/>
            <path id="Path_29142" data-name="Path 29142" d="M154.026,266.1l-1.554-.915,59.739-35.163,1.564.905Z" transform="translate(-144.039 -225.092)" fill="#2d2ebc"/>
          </g>
          <g id="Group_9724" data-name="Group 9724" transform="translate(67.819 16.319)">
            <path id="Path_29143" data-name="Path 29143" d="M234.529,253.854a1.193,1.193,0,0,0,.6-.144l12.348-7.1c.5-.291.468-.927-.08-1.421a1.787,1.787,0,0,0-1.907-.369l-12.347,7.1c-.5.29-.468.926.08,1.42A2.021,2.021,0,0,0,234.529,253.854Z" transform="translate(-232.784 -244.676)" fill="#0668ff"/>
          </g>
          <g id="Group_9725" data-name="Group 9725" transform="translate(52.772 24.94)">
            <path id="Path_29144" data-name="Path 29144" d="M213.717,265.779a1.2,1.2,0,0,0,.6-.143l12.347-7.1c.505-.291.469-.927-.08-1.421a1.785,1.785,0,0,0-1.906-.369l-12.347,7.1c-.505.291-.469.926.079,1.421A2.024,2.024,0,0,0,213.717,265.779Z" transform="translate(-211.973 -256.601)" fill="#0668ff"/>
          </g>
        </g>
      </g>
      <path id="Path_29145" data-name="Path 29145" d="M266.21,308.366l-113.752,73-73-35.283,123.13-74.679Z" transform="translate(0.293 -60.696)" fill="url(#linear-gradient)"/>
      <g id="Group_9731" data-name="Group 9731" transform="translate(122.012 229.828)">
        <g id="Group_9728" data-name="Group 9728" transform="translate(0 23.547)">
          <path id="Path_29146" data-name="Path 29146" d="M213.343,380.765l-7.689-40.033-60.941-7.978.306-2.333,62.625,8.2,8.009,41.7Z" transform="translate(-144.714 -330.42)" fill="#111581"/>
        </g>
        <g id="Group_9729" data-name="Group 9729" transform="translate(12.637 11.776)">
          <path id="Path_29147" data-name="Path 29147" d="M230.131,365.551l-7.97-37.926-59.967-9.419.639-4.068L225.606,324,234.16,364.7Z" transform="translate(-162.194 -314.138)" fill="#111581"/>
        </g>
        <g id="Group_9730" data-name="Group 9730" transform="translate(25.304)">
          <path id="Path_29148" data-name="Path 29148" d="M246.925,350.316l-7.844-37.331-59.366-9.325.913-5.81L244,307.8l8.679,41.3Z" transform="translate(-179.714 -297.85)" fill="#111581"/>
        </g>
      </g>
      <g id="Group_9746" data-name="Group 9746" transform="translate(196.725 52.317)">
        <path id="Path_29149" data-name="Path 29149" d="M252.1,54.409l3.459-1.74v.006a4.123,4.123,0,0,1,4.036.41l56.145,32.77c3.586,2.093,6.494,7.8,6.494,12.736V242.581c0,2.908-1.012,4.894-2.572,5.617l.01.007-3.786,1.864-1.221-2.173.36-4.049s.767-1.613,1.185-2.4l-50.635-29.554c-3.586-2.093-6.494-7.8-6.494-12.736V58.018l-2.008-1.323Z" transform="translate(-249.176 -52.317)" fill="#2d2ebc"/>
        <g id="Group_9732" data-name="Group 9732" transform="translate(0 1.928)">
          <path id="Path_29150" data-name="Path 29150" d="M248.057,204.9c0,4.94,2.908,10.642,6.494,12.736l56.145,32.77c3.586,2.094,6.494-.215,6.494-5.155V101.262c0-4.941-2.908-10.643-6.494-12.736l-56.145-32.77c-3.587-2.093-6.494.215-6.494,5.155Z" transform="translate(-248.057 -54.984)" fill="#6275f1"/>
        </g>
        <g id="Group_9733" data-name="Group 9733" transform="translate(0 1.928)">
          <path id="Path_29151" data-name="Path 29151" d="M252.021,57.22a2.94,2.94,0,0,1,1.4.467l56.146,32.771c2.919,1.7,5.385,6.652,5.385,10.8v143.99c0,1.778-.54,3.691-1.726,3.691a2.933,2.933,0,0,1-1.4-.468l-56.145-32.769c-2.919-1.7-5.385-6.653-5.385-10.8V60.912c0-1.778.541-3.691,1.727-3.691h0m0-2.236c-2.329,0-3.964,2.224-3.964,5.928V204.9c0,4.94,2.908,10.642,6.494,12.736l56.145,32.77a5.057,5.057,0,0,0,2.53.773c2.329,0,3.963-2.225,3.963-5.928V101.262c0-4.941-2.908-10.643-6.494-12.736l-56.145-32.77a5.063,5.063,0,0,0-2.53-.772Z" transform="translate(-248.057 -54.984)" fill="#475de6"/>
        </g>
        <g id="Group_9734" data-name="Group 9734" transform="translate(0 1.928)">
          <path id="Path_29152" data-name="Path 29152" d="M314.084,306.639a2.941,2.941,0,0,1-1.4-.468L256.536,273.4c-2.919-1.7-5.385-6.653-5.385-10.8v-.247c0,4.152,2.466,9.1,5.385,10.8l56.145,32.769a2.933,2.933,0,0,0,1.4.468c1.186,0,1.726-1.914,1.726-3.691v.247C315.811,304.724,315.271,306.639,314.084,306.639Z" transform="translate(-248.914 -112.432)" fill="#8196e6"/>
          <path id="Path_29153" data-name="Path 29153" d="M252.021,54.984a5.063,5.063,0,0,1,2.53.772L310.7,88.526c3.586,2.093,6.494,7.8,6.494,12.736v.247c0-4.941-2.908-10.643-6.494-12.736L254.551,56a5.063,5.063,0,0,0-2.53-.772c-2.329,0-3.964,2.225-3.964,5.928v-.247C248.057,57.208,249.692,54.983,252.021,54.984Z" transform="translate(-248.057 -54.984)" fill="#8196e6"/>
        </g>
        <g id="Group_9735" data-name="Group 9735" transform="translate(4.795 16.342)">
          <path id="Path_29154" data-name="Path 29154" d="M254.689,205.156l55.691,32.505V107.426L254.689,74.921Z" transform="translate(-254.689 -74.921)" fill="#06e6ff"/>
        </g>
        <path id="Path_29155" data-name="Path 29155" d="M254.689,89.617V114.5c18.215,36.543,39.027,78.436,55.691,112.023V201.545c-9.027-18.185-19.318-38.9-29.584-59.535C270.924,122.166,262.2,104.656,254.689,89.617Zm0,46.875v47.076c5.281,10.617,10.65,21.421,16.009,32.209l32.974,19.245c-10.213-20.578-22.676-45.674-35.1-70.649Q261.2,149.557,254.689,136.492Zm27.327-24.62q-7.35-14.773-13.843-27.8L260.4,79.53c15.711,31.515,33.684,67.678,49.981,100.513V168.95C301.651,151.368,291.822,131.583,282.016,111.872Z" transform="translate(-249.894 -59.856)" fill="url(#linear-gradient-2)"/>
        <g id="Group_9736" data-name="Group 9736" transform="translate(27.263 21.027)">
          <path id="Path_29156" data-name="Path 29156" d="M285.767,84.177c0,2.316,1.322,4.986,2.952,5.967s2.953-.1,2.953-2.416-1.321-4.985-2.953-5.966S285.767,81.864,285.767,84.177Z" transform="translate(-285.767 -81.401)" fill="#8b9df1"/>
        </g>
        <g id="Group_9737" data-name="Group 9737" transform="translate(27.263 21.026)">
          <path id="Path_29157" data-name="Path 29157" d="M285.767,84.1a7.272,7.272,0,0,0,2.952,5.791c1.632.952,2.953-.1,2.953-2.345a7.269,7.269,0,0,0-2.953-5.79C287.089,80.8,285.767,81.85,285.767,84.1Z" transform="translate(-285.767 -81.401)" fill="#4347de"/>
        </g>
        <g id="Group_9738" data-name="Group 9738" transform="translate(27.93 22.026)">
          <path id="Path_29158" data-name="Path 29158" d="M286.69,84.868a5.627,5.627,0,0,0,2.285,4.482c1.262.737,2.285-.076,2.285-1.815a5.627,5.627,0,0,0-2.285-4.481C287.713,82.318,286.69,83.131,286.69,84.868Z" transform="translate(-286.69 -82.783)" fill="#2c137c"/>
        </g>
        <g id="Group_9739" data-name="Group 9739" transform="translate(29.083 23.75)">
          <path id="Path_29159" data-name="Path 29159" d="M288.284,86.2a2.79,2.79,0,0,0,1.132,2.221c.626.365,1.133-.038,1.133-.9a2.788,2.788,0,0,0-1.133-2.221C288.791,84.937,288.284,85.34,288.284,86.2Z" transform="translate(-288.284 -85.168)" fill="#070028"/>
        </g>
        <g id="Group_9740" data-name="Group 9740" transform="translate(28.407 22.439)" opacity="0.2">
          <path id="Path_29160" data-name="Path 29160" d="M287.35,84.388a2.788,2.788,0,0,0,1.132,2.221c.626.366,1.133-.038,1.133-.9a2.789,2.789,0,0,0-1.133-2.222C287.857,83.124,287.35,83.527,287.35,84.388Z" transform="translate(-287.35 -83.354)" fill="#fff"/>
        </g>
        <g id="Group_9741" data-name="Group 9741" transform="translate(30.394 25.897)" opacity="0.2">
          <path id="Path_29161" data-name="Path 29161" d="M290.1,88.782a1.737,1.737,0,0,0,.7,1.383c.39.228.706-.023.706-.56a1.738,1.738,0,0,0-.706-1.384C290.414,87.995,290.1,88.246,290.1,88.782Z" transform="translate(-290.098 -88.138)" fill="#fff"/>
        </g>
        <g id="Group_9742" data-name="Group 9742" transform="translate(29.033 24.989)" opacity="0.2">
          <path id="Path_29162" data-name="Path 29162" d="M288.215,87.242a.97.97,0,0,0,.394.773c.218.127.394-.013.394-.313a.97.97,0,0,0-.394-.773C288.391,86.8,288.215,86.942,288.215,87.242Z" transform="translate(-288.215 -86.882)" fill="#fff"/>
        </g>
        <g id="Group_9743" data-name="Group 9743" transform="translate(23.174 20.25)">
          <path id="Path_29163" data-name="Path 29163" d="M280.111,81.442a3.041,3.041,0,0,0,1.183,2.4c.653.394,1.183-.04,1.183-.97a3.043,3.043,0,0,0-1.183-2.4C280.641,80.078,280.111,80.512,280.111,81.442Z" transform="translate(-280.111 -80.326)" fill="#8b9df1"/>
        </g>
        <g id="Group_9744" data-name="Group 9744" transform="translate(23.174 20.25)">
          <path id="Path_29164" data-name="Path 29164" d="M280.111,81.406a2.912,2.912,0,0,0,1.183,2.32c.653.382,1.183-.039,1.183-.939a2.913,2.913,0,0,0-1.183-2.32C280.641,80.086,280.111,80.506,280.111,81.406Z" transform="translate(-280.111 -80.327)" fill="#4347de"/>
        </g>
        <path id="Path_29165" data-name="Path 29165" d="M280.379,277.171a1.951,1.951,0,0,1,2.014.119l10.43,6.228a5.922,5.922,0,0,1,2.47,4.777,2.6,2.6,0,0,1-1.082,2.368,1.7,1.7,0,0,1-.852.226,2.324,2.324,0,0,1-1.163-.346l-10.432-6.229a5.923,5.923,0,0,1-2.467-4.775A2.6,2.6,0,0,1,280.379,277.171Z" transform="translate(-256.711 -114.547)" fill="#9e9ff1"/>
        <path id="Path_29166" data-name="Path 29166" d="M280.379,276.887a1.951,1.951,0,0,1,2.014.119l10.43,6.228a5.925,5.925,0,0,1,2.47,4.777,2.6,2.6,0,0,1-1.082,2.369,1.7,1.7,0,0,1-.852.226,2.324,2.324,0,0,1-1.163-.346l-10.432-6.229a5.923,5.923,0,0,1-2.467-4.775A2.6,2.6,0,0,1,280.379,276.887Z" transform="translate(-256.711 -114.468)" fill="#475de6"/>
        <g id="Group_9745" data-name="Group 9745" transform="translate(23.202 162.811)">
          <path id="Path_29167" data-name="Path 29167" d="M282.313,283.737l10.435,6.23c1.2.7,2.165-.072,2.165-1.719A5.33,5.33,0,0,0,292.748,284l-10.435-6.23c-1.2-.7-2.163.074-2.163,1.72A5.326,5.326,0,0,0,282.313,283.737Z" transform="translate(-280.15 -277.516)" fill="#83a7fd"/>
        </g>
        <path id="Path_29168" data-name="Path 29168" d="M292.748,284.209l-10.435-6.231c-1.17-.683-2.115.048-2.156,1.622,0-.035-.007-.072-.007-.107,0-1.646.968-2.418,2.163-1.72L292.748,284a5.33,5.33,0,0,1,2.165,4.245c0,.035-.007.064-.008.1A5.314,5.314,0,0,0,292.748,284.209Z" transform="translate(-256.948 -114.705)" fill="#aeecfd"/>
      </g>
      <g id="Group_9748" data-name="Group 9748" transform="translate(205.301 146.914)">
        <g id="Group_9747" data-name="Group 9747">
          <path id="Path_29169" data-name="Path 29169" d="M299.95,221.5c3.34,0,5.874-2.13,6.395-5.942.775-5.69-3.24-12.975-8.971-16.275l-25.583-14.518c-5.723-3.291-11-1.36-11.776,4.331s3.24,12.975,8.967,16.274l25.586,14.521A10.941,10.941,0,0,0,299.95,221.5Z" transform="translate(-259.919 -183.164)" fill="#be0649"/>
        </g>
      </g>
      <g id="Group_9750" data-name="Group 9750" transform="translate(204.048 147.799)">
        <g id="Group_9749" data-name="Group 9749">
          <path id="Path_29170" data-name="Path 29170" d="M298.217,222.727c3.34,0,5.874-2.13,6.395-5.942.775-5.69-3.24-12.975-8.971-16.275l-25.583-14.518c-5.724-3.291-11-1.36-11.776,4.331s3.24,12.975,8.967,16.274l25.586,14.521A10.945,10.945,0,0,0,298.217,222.727Z" transform="translate(-258.186 -184.388)" fill="#ff277d"/>
        </g>
      </g>
      <path id="Path_29171" data-name="Path 29171" d="M258.286,190.645c.774-5.692,6.052-7.623,11.776-4.332l25.583,14.518c5.286,3.044,9.1,9.475,9.056,14.921.2-5.512-3.666-12.139-9.056-15.242l-25.583-14.518c-5.724-3.291-11-1.36-11.776,4.331a10.6,10.6,0,0,0-.086,1.355A10.342,10.342,0,0,1,258.286,190.645Z" transform="translate(-54.142 -36.588)" fill="#ff6fab"/>
      <g id="Group_9758" data-name="Group 9758" transform="translate(192.645 68.659)">
        <g id="Group_9751" data-name="Group 9751" transform="translate(0)">
          <path id="Path_29172" data-name="Path 29172" d="M311.688,133.2l5.565,3.252,8.967-17.8-5.565-3.252Z" transform="translate(-261.605 -86.136)" fill="#ff277d"/>
          <path id="Path_29173" data-name="Path 29173" d="M303.991,128.7l5.564,3.252,8.967-17.8-5.564-3.252Z" transform="translate(-259.473 -84.889)" fill="#fff"/>
          <path id="Path_29174" data-name="Path 29174" d="M296.294,124.2l5.565,3.252,8.966-17.8-5.565-3.252Z" transform="translate(-257.34 -83.643)" fill="#ff277d"/>
          <path id="Path_29175" data-name="Path 29175" d="M288.6,119.706l5.565,3.251,8.966-17.8-5.565-3.252Z" transform="translate(-255.208 -82.397)" fill="#fff"/>
          <path id="Path_29176" data-name="Path 29176" d="M280.9,115.208l5.565,3.252,8.966-17.8-5.564-3.252Z" transform="translate(-253.075 -81.151)" fill="#ff277d"/>
          <path id="Path_29177" data-name="Path 29177" d="M273.2,110.709l5.565,3.252,8.967-17.8-5.565-3.252Z" transform="translate(-250.943 -79.905)" fill="#fff"/>
          <path id="Path_29178" data-name="Path 29178" d="M265.506,106.212l5.564,3.251,8.967-17.8-5.565-3.251Z" transform="translate(-248.811 -78.659)" fill="#ff277d"/>
          <path id="Path_29179" data-name="Path 29179" d="M257.808,101.714l5.565,3.252,8.966-17.8-5.565-3.252Z" transform="translate(-246.678 -77.413)" fill="#fff"/>
          <path id="Path_29180" data-name="Path 29180" d="M250.111,97.216l5.565,3.251,8.966-17.8-5.564-3.252Z" transform="translate(-244.546 -76.167)" fill="#ff277d"/>
          <path id="Path_29181" data-name="Path 29181" d="M242.413,92.718l5.565,3.252,8.967-17.8-5.565-3.252Z" transform="translate(-242.413 -74.921)" fill="#fff"/>
        </g>
        <g id="Group_9757" data-name="Group 9757" transform="translate(0 17.756)">
          <g id="Group_9752" data-name="Group 9752" transform="translate(44.561 26.074)">
            <path id="Path_29182" data-name="Path 29182" d="M317.255,143.275v4.684c0,1.875-1.241,2.67-2.771,1.774a6.378,6.378,0,0,1-2.771-5.017v-4.684Z" transform="translate(-306.172 -136.79)" fill="#fff"/>
            <path id="Path_29183" data-name="Path 29183" d="M309.59,138.79v4.684c0,1.875-1.24,2.669-2.77,1.774a6.377,6.377,0,0,1-2.77-5.017v-4.684Z" transform="translate(-304.049 -135.547)" fill="#ff277d"/>
          </g>
          <g id="Group_9753" data-name="Group 9753" transform="translate(33.42 19.556)">
            <path id="Path_29184" data-name="Path 29184" d="M301.847,134.258v4.684c0,1.875-1.241,2.67-2.771,1.774a6.377,6.377,0,0,1-2.77-5.017v-4.684Z" transform="translate(-290.763 -127.774)" fill="#fff"/>
            <path id="Path_29185" data-name="Path 29185" d="M294.182,129.773v4.684c0,1.875-1.241,2.669-2.771,1.774a6.377,6.377,0,0,1-2.77-5.017v-4.684Z" transform="translate(-288.64 -126.531)" fill="#ff277d"/>
          </g>
          <g id="Group_9754" data-name="Group 9754" transform="translate(22.281 13.038)">
            <path id="Path_29186" data-name="Path 29186" d="M286.436,125.242v4.684c0,1.875-1.239,2.67-2.77,1.774a6.375,6.375,0,0,1-2.769-5.017V122Z" transform="translate(-275.355 -118.757)" fill="#fff"/>
            <path id="Path_29187" data-name="Path 29187" d="M278.773,120.757v4.684c0,1.875-1.241,2.67-2.772,1.774a6.376,6.376,0,0,1-2.77-5.017v-4.683Z" transform="translate(-273.232 -117.515)" fill="#ff277d"/>
          </g>
          <g id="Group_9755" data-name="Group 9755" transform="translate(11.141 6.519)">
            <path id="Path_29188" data-name="Path 29188" d="M271.029,116.225v4.683c0,1.875-1.241,2.67-2.77,1.775a6.376,6.376,0,0,1-2.771-5.017v-4.684Z" transform="translate(-259.946 -109.74)" fill="#fff"/>
            <path id="Path_29189" data-name="Path 29189" d="M263.364,111.74v4.684c0,1.875-1.24,2.67-2.77,1.774a6.378,6.378,0,0,1-2.77-5.017V108.5Z" transform="translate(-257.823 -108.498)" fill="#ff277d"/>
          </g>
          <g id="Group_9756" data-name="Group 9756">
            <path id="Path_29190" data-name="Path 29190" d="M255.62,107.208v4.684c0,1.875-1.241,2.669-2.771,1.774a6.375,6.375,0,0,1-2.77-5.017v-4.684Z" transform="translate(-244.536 -100.724)" fill="#fff"/>
            <path id="Path_29191" data-name="Path 29191" d="M247.954,102.723v4.684c0,1.875-1.24,2.67-2.77,1.775a6.38,6.38,0,0,1-2.771-5.017V99.481Z" transform="translate(-242.413 -99.481)" fill="#ff277d"/>
          </g>
        </g>
      </g>
      <g id="Group_9762" data-name="Group 9762" transform="translate(243.446 129.694)">
        <g id="Group_9761" data-name="Group 9761">
          <path id="Path_29192" data-name="Path 29192" d="M346.069,188.234c0,10.69-6.8,15.782-15.2,11.377s-15.2-16.64-15.2-27.329c0-6.151-1.544-8.809,5.769-12.151,2.618-1.2,5.868-1.1,9.43.774C339.264,165.31,346.069,177.546,346.069,188.234Z" transform="translate(-313.472 -159.344)" fill="#ff5f00"/>
          <path id="Path_29193" data-name="Path 29193" d="M343.079,189.928c0,10.689-6.8,15.782-15.2,11.377s-15.2-16.64-15.2-27.33,6.805-15.781,15.2-11.377S343.079,179.241,343.079,189.928Z" transform="translate(-312.681 -159.807)" fill="orange"/>
          <path id="Path_29194" data-name="Path 29194" d="M327.881,162.965c8.345,4.38,15.117,16.5,15.194,27.144,0-.061,0-.12,0-.181,0-10.688-6.8-22.924-15.2-27.329s-15.2.689-15.2,11.377c0,.061,0,.124,0,.185C312.762,163.6,319.535,158.586,327.881,162.965Z" transform="translate(-312.681 -159.807)" fill="#ffe500"/>
          <path id="Path_29195" data-name="Path 29195" d="M340.639,190.437c0,7.908-5.033,11.675-11.243,8.417s-11.244-12.31-11.244-20.217,5.035-11.674,11.244-8.416S340.639,182.531,340.639,190.437Z" transform="translate(-314.197 -162.033)" fill="#ffe500"/>
          <path id="Path_29196" data-name="Path 29196" d="M329.4,170.9c6.15,3.227,11.138,12.134,11.234,19.985,0-.149.009-.3.009-.448,0-7.906-5.033-16.958-11.243-20.216s-11.244.51-11.244,8.416c0,.076.008.154.009.231C318.349,171.27,323.307,167.7,329.4,170.9Z" transform="translate(-314.197 -162.033)" fill="#ffff4b"/>
        </g>
        <g id="Group_9906" data-name="Group 9906" transform="translate(1.385 1.617)">
          <g id="Group_9901" data-name="Group 9901" transform="translate(5.526 12.77) rotate(-10)">
            <g id="Group_9900" data-name="Group 9900" transform="translate(0 0)">
              <g id="Group_9903" data-name="Group 9903" transform="translate(0 0)">
                <g id="Group_9898" data-name="Group 9898" transform="translate(0 0)">
                  <g id="Group_9902" data-name="Group 9902" transform="translate(0 0)">
                    <g id="Group_9900-2" data-name="Group 9900" transform="translate(0 0)">
                      <g id="Group_9899" data-name="Group 9899" clip-path="url(#clip-path)">
                        <g id="Group_9898-2" data-name="Group 9898" transform="translate(1.523 0.268)">
                          <path id="Path_29674" data-name="Path 29674" d="M9.947,2.209l-.075-.02-3.322-.9Q4.164.65,1.776.007a.1.1,0,0,0-.125.043Q1.162.67.672,1.284c-.02.027-.033.066-.067.071l0,.022L.693,1.4c.341.08.682.161,1.021.253a11.054,11.054,0,0,1,1.177.384,4.837,4.837,0,0,1,1.3.723,2.628,2.628,0,0,1,.917,1.434c.008.027.028.057.008.089q-1.893-.548-3.784-1.1a.092.092,0,0,0-.117.045Q.748,3.894.279,4.555a.09.09,0,0,0-.03.071l.572.155L3.5,5.528c.514.142,1.031.287,1.545.427.048.013.064.025.039.09-.039.094-.065.2-.1.29A2.75,2.75,0,0,1,3.843,7.821a2.58,2.58,0,0,1-1.6.276A6.277,6.277,0,0,1,1.25,7.9C.936,7.818.625,7.714.315,7.6L.295,7.6c-.048-.013-.068,0-.079.079C.149,8.123.077,8.573,0,9.02a.234.234,0,0,0,.018.144c.077.175.151.354.226.531l3.5,8.269a.162.162,0,0,0,.118.109l1.985.539.086.023c-.013-.033-.019-.052-.026-.072L3.265,12.177q-.541-1.31-1.083-2.621c-.01-.025-.038-.055-.02-.085.006-.013.018-.014.032-.01l.015,0a.044.044,0,0,0,.018,0,5.757,5.757,0,0,0,.848.032A4.2,4.2,0,0,0,5.38,8.78,3.777,3.777,0,0,0,6.853,6.572c.021-.079.055-.069.1-.056q.714.176,1.432.355a.1.1,0,0,0,.118-.045q.467-.618.937-1.238c.017-.02.041-.038.044-.073l-.345-.094q-.972-.249-1.947-.5l-.01,0c-.046-.013-.062-.034-.053-.1a1.288,1.288,0,0,0,0-.3,4.315,4.315,0,0,0-.439-1.436c-.012-.026-.039-.048-.027-.089l.092.025q1.045.284,2.088.57a.1.1,0,0,0,.124-.048c.311-.42.627-.836.939-1.252.015-.021.041-.036.041-.078" transform="translate(0 0)" fill="#ffff3f"/>
                        </g>
                      </g>
                    </g>
                  </g>
                </g>
              </g>
            </g>
          </g>
          <path id="Path_29676" data-name="Path 29676" d="M10.07,2.206l-.076-.02-3.362-.9Q4.216.649,1.8.007a.1.1,0,0,0-.127.043Q1.176.668.68,1.282c-.02.027-.033.066-.068.071l0,.021L.7,1.4c.345.08.69.161,1.033.253a11.3,11.3,0,0,1,1.192.383,4.916,4.916,0,0,1,1.316.722A2.621,2.621,0,0,1,5.17,4.188c.008.027.028.057.008.089q-1.917-.547-3.83-1.1a.094.094,0,0,0-.119.045Q.757,3.888.283,4.548a.089.089,0,0,0-.03.071l.579.155L3.54,5.52c.521.142,1.043.287,1.565.427.048.013.065.025.039.09-.039.094-.066.2-.1.29A2.751,2.751,0,0,1,3.89,7.808a2.643,2.643,0,0,1-1.619.275,6.433,6.433,0,0,1-1.005-.192C.948,7.806.632,7.7.319,7.59L.3,7.584c-.048-.013-.069,0-.08.079C.151,8.11.077,8.559,0,9.006a.231.231,0,0,0,.018.144c.078.175.153.353.229.53l3.54,8.256a.163.163,0,0,0,.119.109l2.009.538.087.023c-.013-.033-.019-.052-.026-.072L3.305,12.157q-.548-1.308-1.1-2.617c-.011-.025-.038-.055-.02-.085.006-.013.018-.014.032-.01l.015,0a.045.045,0,0,0,.018,0,5.908,5.908,0,0,0,.858.032,4.293,4.293,0,0,0,2.334-.719,3.769,3.769,0,0,0,1.492-2.2c.021-.079.056-.069.1-.056q.723.175,1.45.354a.1.1,0,0,0,.119-.045q.473-.617.949-1.236c.017-.02.042-.038.044-.072l-.349-.094q-.984-.249-1.971-.5l-.01,0c-.047-.013-.063-.034-.053-.1a1.269,1.269,0,0,0,0-.3,4.265,4.265,0,0,0-.445-1.433c-.013-.026-.039-.048-.028-.089l.093.025Q7.9,3.3,8.952,3.582a.1.1,0,0,0,.125-.048c.315-.419.635-.834.951-1.251.015-.021.041-.036.041-.078" transform="translate(7.226 12.672) rotate(-10)" fill="#ff9400"/>
        </g>
      </g>
      <g id="Group_9772" data-name="Group 9772" transform="translate(253.478 173.254)">
        <g id="Group_9766" data-name="Group 9766" transform="translate(23.692)">
          <g id="Group_9765" data-name="Group 9765">
            <path id="Path_29199" data-name="Path 29199" d="M378.414,236.111c0,6.11-3.89,9.022-8.689,6.5s-8.689-9.513-8.689-15.623c0-3.516-.883-5.035,3.3-6.946a6,6,0,0,1,5.391.442C374.524,223.006,378.414,230,378.414,236.111Z" transform="translate(-359.779 -219.596)" fill="#ff5f00"/>
            <path id="Path_29200" data-name="Path 29200" d="M376.7,237.079c0,6.111-3.89,9.023-8.689,6.5s-8.689-9.513-8.689-15.623,3.89-9.022,8.689-6.5S376.7,230.97,376.7,237.079Z" transform="translate(-359.327 -219.861)" fill="orange"/>
            <path id="Path_29201" data-name="Path 29201" d="M368.016,221.667c4.771,2.5,8.642,9.433,8.686,15.517,0-.035,0-.069,0-.1,0-6.109-3.89-13.1-8.689-15.623s-8.689.394-8.689,6.5c0,.035,0,.07,0,.106C359.374,222.028,363.245,219.163,368.016,221.667Z" transform="translate(-359.327 -219.861)" fill="#ffe500"/>
            <path id="Path_29202" data-name="Path 29202" d="M375.31,237.371c0,4.521-2.877,6.674-6.427,4.811s-6.428-7.037-6.428-11.557,2.879-6.674,6.428-4.811S375.31,232.851,375.31,237.371Z" transform="translate(-360.194 -221.133)" fill="#ffe500"/>
            <path id="Path_29203" data-name="Path 29203" d="M368.883,226.2c3.516,1.845,6.367,6.937,6.422,11.425,0-.085.005-.169.005-.256,0-4.52-2.877-9.694-6.427-11.557s-6.428.291-6.428,4.811c0,.044,0,.088.005.132C362.568,226.414,365.4,224.375,368.883,226.2Z" transform="translate(-360.194 -221.133)" fill="#ffff4b"/>
          </g>
        </g>
        <g id="Group_9767" data-name="Group 9767" transform="translate(0 51.638)">
          <path id="Path_29206" data-name="Path 29206" d="M400.927,341.793l-23.77,14.092V334.51l23.77-14.092Z" transform="translate(-340.575 -299.165)" fill="#f4734e"/>
          <path id="Path_29207" data-name="Path 29207" d="M326.557,331.217l36.582,21.738V331.58l-36.582-21.738Z" transform="translate(-326.557 -296.236)" fill="#f4caa0"/>
          <path id="Path_29208" data-name="Path 29208" d="M328.367,335.893l4.859,2.887V333.1l-4.859-2.887Z" transform="translate(-327.058 -301.879)" fill="#f46c33"/>
          <path id="Path_29209" data-name="Path 29209" d="M387.183,355.75l-7.884,4.685v-9.213l7.884-4.685Z" transform="translate(-341.168 -306.401)" fill="#a52113"/>
          <path id="Path_29210" data-name="Path 29210" d="M394.444,355.313l-2.751,1.635v-3.215l2.751-1.635Z" transform="translate(-344.602 -307.942)" fill="#a52113"/>
          <path id="Path_29211" data-name="Path 29211" d="M336.83,342.53l1.6.95v-1.868l-1.6-.95Z" transform="translate(-329.403 -304.773)" fill="#f46c33"/>
          <path id="Path_29212" data-name="Path 29212" d="M341.561,345.342l1.6.95v-1.868l-1.6-.95Z" transform="translate(-330.713 -305.553)" fill="#f46c33"/>
          <path id="Path_29213" data-name="Path 29213" d="M386.909,312.274l-23.771,14.092-36.582-21.738,23.764-13.607Z" transform="translate(-326.557 -291.021)" fill="#f49a61"/>
          <path id="Path_29214" data-name="Path 29214" d="M341.906,300.25l35.868,21.936,3.649-2.163-35.854-21.87Z" transform="translate(-330.809 -292.997)" fill="#f4efa4"/>
          <path id="Path_29215" data-name="Path 29215" d="M391.523,330.572v7.472l.46.392.456-.925.456.388.456-.924.456.388.455-.924.456.388.461-.935V328.42Z" transform="translate(-344.555 -301.382)" fill="#f4d38b"/>
          <path id="Path_29216" data-name="Path 29216" d="M391.523,330.572l3.655-2.151A19.069,19.069,0,0,0,391.523,330.572Z" transform="translate(-344.555 -301.382)" fill="#ffffe8"/>
        </g>
        <ellipse id="Ellipse_509" data-name="Ellipse 509" cx="4.79" cy="8.951" rx="4.79" ry="8.951" transform="matrix(0.3, -0.954, 0.954, 0.3, 23.034, 67.277)" fill="#f4734e" opacity="0.31"/>
        <g id="Group_9771" data-name="Group 9771" transform="translate(14.434 26.879)">
          <g id="Group_9770" data-name="Group 9770">
            <path id="Path_29217" data-name="Path 29217" d="M378.769,284.677c0,10.325-6.572,15.244-14.68,10.989s-14.68-16.072-14.68-26.4c0-5.941-1.491-8.508,5.571-11.735,2.53-1.156,5.668-1.058,9.109.748C372.2,262.537,378.769,274.355,378.769,284.677Z" transform="translate(-347.286 -256.775)" fill="#ff5f00"/>
            <path id="Path_29218" data-name="Path 29218" d="M375.882,286.314c0,10.324-6.572,15.243-14.679,10.988s-14.681-16.071-14.681-26.4,6.572-15.242,14.681-10.988S375.882,275.991,375.882,286.314Z" transform="translate(-346.522 -257.222)" fill="orange"/>
            <path id="Path_29219" data-name="Path 29219" d="M361.2,260.272c8.06,4.23,14.6,15.937,14.675,26.217,0-.059,0-.116,0-.175,0-10.322-6.572-22.141-14.679-26.4s-14.681.665-14.681,10.988c0,.059,0,.119,0,.179C346.6,260.884,353.141,256.042,361.2,260.272Z" transform="translate(-346.522 -257.222)" fill="#ffe500"/>
            <path id="Path_29220" data-name="Path 29220" d="M373.525,286.805c0,7.638-4.862,11.276-10.859,8.129s-10.86-11.889-10.86-19.527,4.863-11.275,10.86-8.128S373.525,279.169,373.525,286.805Z" transform="translate(-347.986 -259.372)" fill="#ffe500"/>
            <path id="Path_29221" data-name="Path 29221" d="M362.666,267.935c5.939,3.117,10.758,11.72,10.85,19.3,0-.143.009-.285.009-.432,0-7.636-4.862-16.378-10.859-19.525s-10.86.492-10.86,8.128c0,.074.008.15.009.223C352,268.293,356.784,264.849,362.666,267.935Z" transform="translate(-347.986 -259.372)" fill="#ffff4b"/>
            <g id="Group_9904" data-name="Group 9904">
              <g id="Group_9901-2" data-name="Group 9901" transform="translate(-364.868 -109.535) rotate(-10)">
                <g id="Group_9900-3" data-name="Group 9900" transform="translate(343.653 184.939)">
                  <g id="Group_9903-2" data-name="Group 9903" transform="translate(0.005 -0.907)">
                    <g id="Group_9898-3" data-name="Group 9898" transform="translate(-0.174 0.985)">
                      <g id="Group_9902-2" data-name="Group 9902" transform="translate(0 0)">
                        <g id="Group_9900-4" data-name="Group 9900" transform="translate(0 0)">
                          <g id="Group_9899-2" data-name="Group 9899" clip-path="url(#clip-path-2)">
                            <g id="Group_9898-4" data-name="Group 9898" transform="translate(1.719 0.302)">
                              <path id="Path_29674-2" data-name="Path 29674" d="M11.223,2.492l-.084-.023L7.391,1.457Q4.7.734,2,.007a.113.113,0,0,0-.141.048q-.551.7-1.1,1.393c-.022.03-.037.074-.076.08l0,.024.1.028c.385.09.769.182,1.151.286A12.471,12.471,0,0,1,3.262,2.3a5.457,5.457,0,0,1,1.466.816A2.965,2.965,0,0,1,5.762,4.733c.009.03.031.065.008.1Q3.635,4.215,1.5,3.59a.1.1,0,0,0-.133.051q-.525.753-1.054,1.5a.1.1,0,0,0-.034.081l.646.175q1.508.422,3.018.842c.58.16,1.163.324,1.744.482.054.015.072.028.044.1-.044.106-.073.221-.115.327A3.1,3.1,0,0,1,4.336,8.824a2.91,2.91,0,0,1-1.8.311A7.083,7.083,0,0,1,1.41,8.917C1.056,8.821.7,8.7.356,8.577L.333,8.57c-.054-.014-.077,0-.089.089C.168,9.165.086,9.673,0,10.177a.265.265,0,0,0,.02.162c.087.2.171.4.255.6l3.946,9.33a.183.183,0,0,0,.133.123L6.6,21l.1.026c-.015-.038-.021-.059-.029-.081L3.684,13.738q-.611-1.478-1.221-2.958c-.012-.029-.043-.062-.022-.1.007-.015.021-.015.036-.011l.016.006a.049.049,0,0,0,.02,0,6.5,6.5,0,0,0,.956.036,4.739,4.739,0,0,0,2.6-.812A4.261,4.261,0,0,0,7.732,7.415c.024-.089.062-.078.117-.064q.806.2,1.616.4A.113.113,0,0,0,9.6,7.7q.527-.7,1.058-1.4c.019-.023.046-.043.049-.082l-.389-.106q-1.1-.281-2.2-.56l-.012,0c-.052-.014-.07-.039-.059-.114a1.453,1.453,0,0,0,0-.34,4.868,4.868,0,0,0-.5-1.62c-.014-.029-.044-.054-.031-.1l.1.028q1.179.32,2.356.643a.113.113,0,0,0,.14-.054c.351-.474.707-.943,1.06-1.413.017-.023.046-.041.046-.088" transform="translate(0 0)" fill="#ffff3f"/>
                            </g>
                          </g>
                        </g>
                      </g>
                    </g>
                  </g>
                </g>
              </g>
              <path id="Path_29676-2" data-name="Path 29676" d="M360.682,188.409l-.085-.023-3.794-1.011q-2.726-.722-5.454-1.447a.116.116,0,0,0-.143.048q-.558.7-1.118,1.39c-.022.03-.038.074-.077.08l0,.024.1.028c.389.09.779.181,1.166.285a12.745,12.745,0,0,1,1.345.432,5.546,5.546,0,0,1,1.484.814,2.957,2.957,0,0,1,1.047,1.615c.009.03.032.064.009.1q-2.162-.618-4.321-1.242a.106.106,0,0,0-.134.051q-.532.751-1.067,1.5a.1.1,0,0,0-.034.08l.654.175q1.526.422,3.055.841c.588.16,1.177.324,1.765.481.055.015.073.028.044.1-.044.106-.074.221-.116.327a3.1,3.1,0,0,1-1.3,1.672,2.982,2.982,0,0,1-1.827.31,7.259,7.259,0,0,1-1.134-.217c-.358-.1-.714-.213-1.067-.34l-.023-.007c-.054-.014-.078,0-.09.089-.076.506-.159,1.012-.242,1.516a.261.261,0,0,0,.02.162c.088.2.173.4.258.6l3.994,9.315a.184.184,0,0,0,.134.123l2.267.607.1.026c-.015-.037-.021-.059-.029-.081l-3.019-7.2q-.618-1.475-1.237-2.953c-.012-.029-.043-.062-.023-.1.007-.015.021-.015.036-.011l.017.006a.051.051,0,0,0,.02,0,6.665,6.665,0,0,0,.968.036,4.844,4.844,0,0,0,2.633-.811,4.252,4.252,0,0,0,1.683-2.487c.024-.089.063-.078.118-.064q.816.2,1.636.4a.115.115,0,0,0,.134-.051q.534-.7,1.071-1.395c.019-.023.047-.043.05-.082l-.394-.106q-1.111-.281-2.224-.559l-.012,0c-.053-.014-.071-.039-.06-.114a1.432,1.432,0,0,0,0-.34,4.812,4.812,0,0,0-.5-1.617c-.014-.029-.045-.054-.031-.1l.1.028q1.194.32,2.385.642a.115.115,0,0,0,.142-.054c.355-.473.716-.941,1.073-1.411.017-.023.047-.041.047-.088" transform="translate(-368.854 -109.523) rotate(-10)" fill="#ff9400"/>
            </g>
          </g>
        </g>
        <g id="Group_9905" data-name="Group 9905" transform="translate(21.92 -3.886)">
          <g id="Group_9901-3" data-name="Group 9901" transform="translate(5.526 11.917) rotate(-10)">
            <g id="Group_9900-5" data-name="Group 9900" transform="translate(0 0)">
              <g id="Group_9903-3" data-name="Group 9903" transform="translate(0 0)">
                <g id="Group_9898-5" data-name="Group 9898" transform="translate(0 0)">
                  <g id="Group_9902-3" data-name="Group 9902" transform="translate(0 0)">
                    <g id="Group_9900-6" data-name="Group 9900" transform="translate(0 0)">
                      <g id="Group_9899-3" data-name="Group 9899" clip-path="url(#clip-path-3)">
                        <g id="Group_9898-6" data-name="Group 9898" transform="translate(0.871 0.153)">
                          <path id="Path_29674-3" data-name="Path 29674" d="M5.69,1.264l-.043-.012L3.747.739,1.016,0A.057.057,0,0,0,.944.028Q.665.383.384.734C.373.75.366.772.346.775l0,.012L.4.8C.592.847.787.894.98.946a6.323,6.323,0,0,1,.673.219,2.767,2.767,0,0,1,.743.414,1.5,1.5,0,0,1,.524.82c0,.015.016.033,0,.051Q1.843,2.137.761,1.82a.053.053,0,0,0-.067.026q-.266.382-.534.76a.052.052,0,0,0-.017.041l.327.089L2,3.162c.294.081.589.164.884.244.027.007.037.014.022.052-.022.054-.037.112-.058.166a1.573,1.573,0,0,1-.65.849,1.476,1.476,0,0,1-.915.158,3.591,3.591,0,0,1-.568-.11C.535,4.472.357,4.413.18,4.349l-.012,0c-.027-.007-.039,0-.045.045C.085,4.647.044,4.9,0,5.16a.134.134,0,0,0,.01.082c.044.1.087.2.129.3l2,4.73a.093.093,0,0,0,.067.063l1.135.308.049.013c-.008-.019-.011-.03-.015-.041L1.868,6.965q-.31-.749-.619-1.5c-.006-.014-.022-.031-.011-.049s.01-.008.018-.006l.008,0h.01a3.293,3.293,0,0,0,.485.018,2.4,2.4,0,0,0,1.319-.412A2.16,2.16,0,0,0,3.92,3.759c.012-.045.032-.04.059-.032l.819.2A.057.057,0,0,0,4.866,3.9q.267-.354.536-.708c.01-.012.024-.022.025-.041L5.23,3.1,4.117,2.817l-.006,0c-.026-.007-.036-.02-.03-.058a.737.737,0,0,0,0-.173,2.468,2.468,0,0,0-.251-.821c-.007-.015-.022-.027-.016-.051l.053.014,1.194.326a.057.057,0,0,0,.071-.028c.178-.24.359-.478.537-.716.008-.012.023-.021.023-.045" transform="translate(0 0)" fill="#ffff3f"/>
                        </g>
                      </g>
                    </g>
                  </g>
                </g>
              </g>
            </g>
          </g>
          <path id="Path_29676-3" data-name="Path 29676" d="M5.76,1.262,5.717,1.25,3.793.738,1.028,0A.059.059,0,0,0,.956.028Q.673.382.389.733C.378.749.37.771.35.774l0,.012L.4.8C.6.846.8.892.992.945a6.464,6.464,0,0,1,.682.219,2.812,2.812,0,0,1,.753.413,1.5,1.5,0,0,1,.531.819c0,.015.016.033,0,.051q-1.1-.313-2.191-.63A.054.054,0,0,0,.7,1.843q-.27.381-.541.759a.051.051,0,0,0-.017.041l.331.089,1.549.426c.3.081.6.164.895.244.028.007.037.014.023.052-.022.054-.038.112-.059.166a1.574,1.574,0,0,1-.658.848,1.512,1.512,0,0,1-.926.157,3.68,3.68,0,0,1-.575-.11C.542,4.465.362,4.406.183,4.342l-.012,0c-.028-.007-.039,0-.046.045C.086,4.639.044,4.9,0,5.152a.132.132,0,0,0,.01.082c.045.1.088.2.131.3L2.169,10.26a.093.093,0,0,0,.068.062l1.149.308.05.013c-.008-.019-.011-.03-.015-.041L1.891,6.954q-.314-.748-.627-1.5c-.006-.014-.022-.031-.012-.049s.011-.008.018-.006l.008,0h.01a3.38,3.38,0,0,0,.491.018,2.456,2.456,0,0,0,1.335-.411,2.156,2.156,0,0,0,.853-1.261c.012-.045.032-.04.06-.032l.829.2A.058.058,0,0,0,4.926,3.9q.271-.353.543-.707c.01-.012.024-.022.025-.041l-.2-.054L4.167,2.812l-.006,0c-.027-.007-.036-.02-.031-.058a.726.726,0,0,0,0-.172,2.44,2.44,0,0,0-.254-.82c-.007-.015-.023-.027-.016-.051l.053.014,1.209.325a.058.058,0,0,0,.072-.028c.18-.24.363-.477.544-.715.009-.012.024-.021.024-.045" transform="translate(6.499 11.861) rotate(-10)" fill="#ff9400"/>
        </g>
      </g>
      <g id="Group_9776" data-name="Group 9776" transform="translate(140.195 107.244)">
        <path id="Path_29224" data-name="Path 29224" d="M172.262,128.629c-1.318-.779-2.4-.163-2.4,1.369v23.974a5.4,5.4,0,0,0,2.4,4.194l41.828,24.566c1.32.775,2.4.157,2.4-1.374V157.551a5.422,5.422,0,0,0-2.4-4.2Z" transform="translate(-169.865 -128.291)" fill="#06e6ff"/>
        <path id="Path_29225" data-name="Path 29225" d="M214.1,153.35l-41.837-24.722c-1.318-.779-2.4-.163-2.4,1.369v.16c0-1.531,1.079-2.146,2.4-1.368L214.1,153.512a5.422,5.422,0,0,1,2.4,4.2v-.161A5.422,5.422,0,0,0,214.1,153.35Z" transform="translate(-169.865 -128.291)" fill="#06ffff"/>
        <path id="Path_29226" data-name="Path 29226" d="M172.86,132.048l40.966,24.208a3.314,3.314,0,0,1,1.333,2.335V181.4l-40.967-24.06a3.3,3.3,0,0,1-1.332-2.327V132.048" transform="translate(-170.695 -129.332)" fill="#0688ff"/>
        <path id="Path_29227" data-name="Path 29227" d="M205.177,164.358a26.911,26.911,0,0,0-5.007-14.871l-11.9-7.034c-3.43.66-5.747,4.169-5.747,9.636A26.735,26.735,0,0,0,187,166.175l13.051,7.665C203.139,172.892,205.177,169.486,205.177,164.358Z" transform="translate(-173.371 -132.215)" fill="#0673ff"/>
        <path id="Path_29228" data-name="Path 29228" d="M213.826,156.256,172.86,132.048v.2l40.966,24.208a3.315,3.315,0,0,1,1.333,2.336v-.2A3.315,3.315,0,0,0,213.826,156.256Z" transform="translate(-170.695 -129.332)" fill="#06ffff"/>
        <g id="Group_9775" data-name="Group 9775" transform="translate(13.013 15.54)">
          <path id="Path_29229" data-name="Path 29229" d="M202.794,164.3c0,5.332-3.342,7.844-7.465,5.612s-7.465-8.364-7.465-13.7,3.342-7.845,7.465-5.613S202.794,158.965,202.794,164.3Z" transform="translate(-187.864 -149.786)" fill="#06e6ff"/>
          <g id="Group_9910" data-name="Group 9910" transform="translate(-1.786 -5.985)">
            <g id="Group_9909" data-name="Group 9909" transform="translate(3.241 9.26)">
              <g id="Group_9901-4" data-name="Group 9901" transform="translate(0 1.364) rotate(-10)">
                <g id="Group_9900-7" data-name="Group 9900" transform="translate(0 0)">
                  <g id="Group_9903-4" data-name="Group 9903" transform="translate(0 0)">
                    <g id="Group_9898-7" data-name="Group 9898" transform="translate(0 0)">
                      <g id="Group_9902-4" data-name="Group 9902" transform="translate(0 0)">
                        <g id="Group_9900-8" data-name="Group 9900" transform="translate(0 0)">
                          <g id="Group_9899-4" data-name="Group 9899" clip-path="url(#clip-path-4)">
                            <g id="Group_9898-8" data-name="Group 9898" transform="translate(1.043 0.183)">
                              <path id="Path_29674-4" data-name="Path 29674" d="M6.813,1.513,6.762,1.5,4.487.885Q2.852.445,1.216,0a.069.069,0,0,0-.086.029Q.8.459.46.879C.447.9.438.924.414.928l0,.015L.475.96c.233.055.467.11.7.173A7.571,7.571,0,0,1,1.98,1.4a3.313,3.313,0,0,1,.89.5,1.8,1.8,0,0,1,.628.982c.006.018.019.039.005.061q-1.3-.375-2.591-.755a.063.063,0,0,0-.08.031q-.319.457-.64.91a.062.062,0,0,0-.02.049l.392.106L2.4,3.786c.352.1.706.2,1.059.293.033.009.044.017.027.062-.027.064-.045.134-.07.2a1.884,1.884,0,0,1-.779,1.017,1.767,1.767,0,0,1-1.1.189,4.3,4.3,0,0,1-.68-.132c-.215-.058-.428-.13-.64-.206L.2,5.2c-.033-.009-.047,0-.054.054-.046.307-.1.615-.145.922a.161.161,0,0,0,.012.1c.053.12.1.242.155.364l2.4,5.664a.111.111,0,0,0,.081.075l1.359.369.059.016c-.009-.023-.013-.036-.018-.049L2.236,8.34q-.371-.9-.742-1.8c-.007-.017-.026-.038-.014-.058s.013-.009.022-.007l.01,0a.03.03,0,0,0,.012,0,3.943,3.943,0,0,0,.581.022,2.877,2.877,0,0,0,1.579-.493A2.587,2.587,0,0,0,4.694,4.5c.014-.054.038-.047.071-.039q.489.12.981.243a.069.069,0,0,0,.081-.031q.32-.423.642-.848c.011-.014.028-.026.03-.05l-.236-.064q-.666-.171-1.334-.34l-.007,0c-.032-.009-.043-.024-.036-.069a.882.882,0,0,0,0-.207,2.955,2.955,0,0,0-.3-.983c-.008-.018-.027-.033-.019-.061l.063.017q.716.194,1.43.39a.069.069,0,0,0,.085-.033c.213-.287.429-.572.643-.858.01-.014.028-.025.028-.054" transform="translate(0 0)" fill="#faffff"/>
                            </g>
                          </g>
                        </g>
                      </g>
                    </g>
                  </g>
                </g>
              </g>
              <path id="Path_29676-4" data-name="Path 29676" d="M6.9,1.511,6.845,1.5,4.542.883Q2.887.445,1.231,0a.07.07,0,0,0-.087.029Q.806.458.466.878C.452.9.443.923.419.926l0,.015L.481.958c.236.055.473.11.708.173A7.74,7.74,0,0,1,2,1.394a3.367,3.367,0,0,1,.9.494,1.8,1.8,0,0,1,.635.98c.006.018.019.039.005.061Q2.234,2.555.923,2.176a.064.064,0,0,0-.081.031q-.323.456-.648.908a.061.061,0,0,0-.021.049l.4.106,1.855.511c.357.1.714.2,1.072.292.033.009.044.017.027.062-.027.064-.045.134-.071.2a1.884,1.884,0,0,1-.788,1.015,1.81,1.81,0,0,1-1.109.188A4.406,4.406,0,0,1,.866,5.4C.649,5.346.433,5.275.219,5.2l-.014,0c-.033-.009-.047,0-.055.054-.046.307-.1.614-.147.92a.158.158,0,0,0,.012.1c.053.12.1.242.157.363L2.6,12.285a.112.112,0,0,0,.082.075l1.376.369.06.016c-.009-.023-.013-.036-.018-.049L2.264,8.327q-.375-.9-.751-1.793c-.007-.017-.026-.038-.014-.058s.013-.009.022-.007l.01,0a.031.031,0,0,0,.012,0,4.047,4.047,0,0,0,.588.022A2.94,2.94,0,0,0,3.73,6a2.581,2.581,0,0,0,1.022-1.51c.015-.054.038-.047.072-.039q.5.12.993.242A.07.07,0,0,0,5.9,4.667q.324-.423.65-.847c.012-.014.029-.026.03-.05L6.34,3.707q-.674-.171-1.35-.34l-.007,0c-.032-.009-.043-.023-.037-.069a.87.87,0,0,0,0-.206,2.921,2.921,0,0,0-.3-.982c-.009-.018-.027-.033-.019-.061l.064.017q.725.194,1.448.389a.07.07,0,0,0,.086-.033c.215-.287.435-.571.651-.856.01-.014.028-.025.028-.053" transform="translate(1.164 1.297) rotate(-10)" fill="#0688ff"/>
            </g>
          </g>
        </g>
      </g>
      <path id="Path_29232" data-name="Path 29232" d="M178.927,146.627c-1.319-.779-2.4-.163-2.4,1.368v16.578l39.411,23.146c1.32.775,2.4.157,2.4-1.374V169.918Z" transform="translate(-31.516 -26.034)" fill="#0688ff" opacity="0.6"/>
      <g id="Group_9780" data-name="Group 9780" transform="translate(147.322 124.452)">
        <path id="Path_29233" data-name="Path 29233" d="M182.12,152.431c-1.319-.779-2.4-.163-2.4,1.369v23.974a5.4,5.4,0,0,0,2.4,4.194l41.829,24.566c1.321.775,2.4.157,2.4-1.374V181.353a5.421,5.421,0,0,0-2.4-4.2Z" transform="translate(-179.723 -152.093)" fill="#06e6ff"/>
        <path id="Path_29234" data-name="Path 29234" d="M223.956,177.152,182.12,152.431c-1.319-.779-2.4-.163-2.4,1.369v.161c0-1.531,1.079-2.146,2.4-1.368l41.836,24.722a5.421,5.421,0,0,1,2.4,4.2v-.161A5.421,5.421,0,0,0,223.956,177.152Z" transform="translate(-179.723 -152.093)" fill="#06ffff"/>
        <path id="Path_29235" data-name="Path 29235" d="M182.719,155.85l40.966,24.208a3.312,3.312,0,0,1,1.333,2.335V205.2l-40.967-24.059a3.294,3.294,0,0,1-1.332-2.327V155.85" transform="translate(-180.553 -153.134)" fill="#0688ff"/>
        <path id="Path_29236" data-name="Path 29236" d="M215.036,188.16a26.911,26.911,0,0,0-5.007-14.871l-11.9-7.034c-3.431.66-5.747,4.169-5.747,9.636a26.733,26.733,0,0,0,4.485,14.085l13.051,7.665C213,196.694,215.036,193.288,215.036,188.16Z" transform="translate(-183.229 -156.017)" fill="#0673ff"/>
        <path id="Path_29237" data-name="Path 29237" d="M223.685,180.058,182.719,155.85v.2l40.966,24.208a3.315,3.315,0,0,1,1.333,2.336v-.2A3.315,3.315,0,0,0,223.685,180.058Z" transform="translate(-180.553 -153.134)" fill="#06ffff"/>
        <g id="Group_9779" data-name="Group 9779" transform="translate(13.013 15.54)">
          <path id="Path_29238" data-name="Path 29238" d="M212.652,188.1c0,5.332-3.342,7.844-7.465,5.612s-7.465-8.364-7.465-13.7,3.342-7.845,7.465-5.613S212.652,182.767,212.652,188.1Z" transform="translate(-197.723 -173.588)" fill="#06e6ff"/>
          <g id="Group_9778" data-name="Group 9778" transform="translate(-1.914 -6.461)">
            <g id="Group_9909-2" data-name="Group 9909" transform="translate(3.241 9.26)">
              <g id="Group_9901-5" data-name="Group 9901" transform="translate(0 1.484) rotate(-10)">
                <g id="Group_9900-9" data-name="Group 9900" transform="translate(0 0)">
                  <g id="Group_9903-5" data-name="Group 9903" transform="translate(0 0)">
                    <g id="Group_9898-9" data-name="Group 9898" transform="translate(0 0)">
                      <g id="Group_9902-5" data-name="Group 9902" transform="translate(0 0)">
                        <g id="Group_9900-10" data-name="Group 9900" transform="translate(0 0)">
                          <g id="Group_9899-5" data-name="Group 9899" clip-path="url(#clip-path-5)">
                            <g id="Group_9898-10" data-name="Group 9898" transform="translate(1.135 0.199)">
                              <path id="Path_29674-5" data-name="Path 29674" d="M7.412,1.646l-.056-.015L4.882.962Q3.1.485,1.323,0A.075.075,0,0,0,1.23.037Q.866.5.5.957c-.015.02-.025.049-.05.053l0,.016.069.019c.254.06.508.12.76.189a8.237,8.237,0,0,1,.877.286,3.6,3.6,0,0,1,.968.539,1.958,1.958,0,0,1,.683,1.068c.006.02.021.043.006.066Q2.4,2.784.992,2.371A.069.069,0,0,0,.9,2.4q-.347.5-.7.99a.067.067,0,0,0-.022.053l.426.116,1.993.556c.383.106.768.214,1.152.318.036.01.048.018.029.067-.029.07-.048.146-.076.216a2.049,2.049,0,0,1-.847,1.106,1.922,1.922,0,0,1-1.192.205,4.677,4.677,0,0,1-.74-.143C.7,5.826.466,5.748.235,5.665l-.015,0c-.035-.01-.051,0-.059.059-.05.334-.1.67-.158,1a.175.175,0,0,0,.013.107c.057.13.113.264.168.4l2.606,6.162a.121.121,0,0,0,.088.081l1.479.4.064.017c-.01-.025-.014-.039-.019-.053L2.433,9.074Q2.03,8.1,1.626,7.12c-.008-.019-.028-.041-.015-.063s.014-.01.024-.007l.011,0a.032.032,0,0,0,.013,0,4.29,4.29,0,0,0,.632.024,3.13,3.13,0,0,0,1.718-.536A2.814,2.814,0,0,0,5.107,4.9c.016-.059.041-.052.077-.042q.532.131,1.067.264a.075.075,0,0,0,.088-.034q.348-.461.7-.923c.012-.015.031-.029.033-.054l-.257-.07q-.725-.186-1.451-.37l-.008,0c-.034-.009-.046-.026-.039-.076a.96.96,0,0,0,0-.225A3.215,3.215,0,0,0,4.986,2.3c-.009-.019-.029-.036-.02-.067l.068.019q.779.211,1.556.424a.075.075,0,0,0,.092-.036c.232-.313.467-.623.7-.933.011-.015.03-.027.03-.058" transform="translate(0 0)" fill="#faffff"/>
                            </g>
                          </g>
                        </g>
                      </g>
                    </g>
                  </g>
                </g>
              </g>
              <path id="Path_29676-5" data-name="Path 29676" d="M7.5,1.644l-.056-.015L4.942.961Q3.141.484,1.34,0a.076.076,0,0,0-.094.032Q.877.5.507.955C.492.975.482,1,.456,1.008l0,.016.069.019c.257.059.514.12.77.188a8.421,8.421,0,0,1,.888.285,3.663,3.663,0,0,1,.98.538,1.953,1.953,0,0,1,.691,1.067c.006.02.021.043.006.066Q2.43,2.779,1,2.367A.07.07,0,0,0,.916,2.4q-.351.5-.7.988a.067.067,0,0,0-.023.053l.432.116,2.018.556c.388.106.777.214,1.166.318.036.01.048.018.029.067-.029.07-.049.146-.077.216a2.05,2.05,0,0,1-.858,1.1,1.969,1.969,0,0,1-1.207.2A4.794,4.794,0,0,1,.943,5.88c-.237-.063-.471-.141-.7-.224l-.015,0c-.036-.01-.051,0-.06.059-.05.334-.105.668-.16,1a.172.172,0,0,0,.013.107c.058.13.114.263.17.395l2.638,6.152a.122.122,0,0,0,.089.081l1.5.4.065.017c-.01-.025-.014-.039-.019-.053L2.463,9.059q-.408-.974-.817-1.95c-.008-.019-.029-.041-.015-.063s.014-.01.024-.007l.011,0a.033.033,0,0,0,.013,0,4.4,4.4,0,0,0,.639.024,3.2,3.2,0,0,0,1.739-.535A2.808,2.808,0,0,0,5.17,4.889c.016-.059.042-.051.078-.042q.539.131,1.08.264a.076.076,0,0,0,.089-.033q.352-.46.707-.921c.013-.015.031-.029.033-.054l-.26-.07q-.734-.186-1.469-.369l-.008,0c-.035-.009-.047-.026-.04-.075a.946.946,0,0,0,0-.224,3.178,3.178,0,0,0-.331-1.068c-.009-.019-.029-.036-.02-.067l.069.019q.788.211,1.575.424a.076.076,0,0,0,.093-.036c.234-.312.473-.622.709-.932.011-.015.031-.027.031-.058" transform="translate(1.267 1.412) rotate(-10)" fill="#0688ff"/>
            </g>
          </g>
        </g>
      </g>
      <g id="Group_9790" data-name="Group 9790" transform="translate(165.544 161.063)">
        <g id="Group_9784" data-name="Group 9784" transform="translate(10.667 0)">
          <g id="Group_9783" data-name="Group 9783">
            <path id="Path_29241" data-name="Path 29241" d="M228.274,210.169c0,2.752-1.751,4.062-3.912,2.929s-3.911-4.283-3.911-7.034c0-1.583-.4-2.267,1.484-3.127a2.7,2.7,0,0,1,2.427.2C226.523,204.27,228.274,207.418,228.274,210.169Z" transform="translate(-219.884 -202.734)" fill="#ff5f00"/>
            <path id="Path_29242" data-name="Path 29242" d="M227.5,210.605c0,2.751-1.751,4.062-3.911,2.928s-3.912-4.283-3.912-7.034,1.751-4.062,3.912-2.928S227.5,207.855,227.5,210.605Z" transform="translate(-219.681 -202.853)" fill="orange"/>
            <path id="Path_29243" data-name="Path 29243" d="M223.593,203.666c2.148,1.127,3.89,4.247,3.911,6.986,0-.016,0-.031,0-.046,0-2.751-1.751-5.9-3.911-7.034s-3.912.177-3.912,2.928c0,.016,0,.032,0,.048C219.7,203.829,221.444,202.539,223.593,203.666Z" transform="translate(-219.681 -202.853)" fill="#ffe500"/>
            <path id="Path_29244" data-name="Path 29244" d="M226.876,210.737c0,2.035-1.3,3-2.893,2.166a6.337,6.337,0,0,1-2.894-5.2c0-2.035,1.3-3,2.894-2.166A6.338,6.338,0,0,1,226.876,210.737Z" transform="translate(-220.071 -203.426)" fill="#ffe500"/>
            <path id="Path_29245" data-name="Path 29245" d="M223.983,205.708a6.336,6.336,0,0,1,2.891,5.144c0-.038,0-.077,0-.115a6.338,6.338,0,0,0-2.893-5.2c-1.6-.839-2.894.131-2.894,2.166,0,.02,0,.04,0,.059C221.14,205.8,222.416,204.886,223.983,205.708Z" transform="translate(-220.071 -203.426)" fill="#ffff4b"/>
            <g id="Group_9908" data-name="Group 9908" transform="translate(-3.62 -7.465)">
              <g id="Group_9901-6" data-name="Group 9901" transform="translate(5.526 11.273) rotate(-10)">
                <g id="Group_9900-11" data-name="Group 9900" transform="translate(0 0)">
                  <g id="Group_9903-6" data-name="Group 9903" transform="translate(0 0)">
                    <g id="Group_9898-11" data-name="Group 9898" transform="translate(0 0)">
                      <g id="Group_9902-6" data-name="Group 9902" transform="translate(0 0)">
                        <g id="Group_9900-12" data-name="Group 9900" transform="translate(0 0)">
                          <g id="Group_9899-6" data-name="Group 9899" clip-path="url(#clip-path-6)">
                            <g id="Group_9898-12" data-name="Group 9898" transform="translate(0.379 0.067)">
                              <path id="Path_29674-6" data-name="Path 29674" d="M2.477.55,2.458.545,1.631.322.442,0A.025.025,0,0,0,.411.012L.167.32C.162.326.159.336.151.337V.343L.173.349c.085.02.17.04.254.063a2.753,2.753,0,0,1,.293.1,1.2,1.2,0,0,1,.324.18.654.654,0,0,1,.228.357c0,.007.007.014,0,.022L.331.792A.023.023,0,0,0,.3.8L.07,1.134a.022.022,0,0,0-.007.018L.2,1.191l.666.186.385.106c.012,0,.016.006.01.022s-.016.049-.025.072a.685.685,0,0,1-.283.37.642.642,0,0,1-.4.069,1.563,1.563,0,0,1-.247-.048C.233,1.947.156,1.921.078,1.893l-.005,0c-.012,0-.017,0-.02.02-.017.112-.035.224-.053.335a.058.058,0,0,0,0,.036c.019.044.038.088.056.132L.933,4.473A.04.04,0,0,0,.962,4.5l.494.134.021.006-.006-.018L.813,3.032l-.27-.653c0-.006-.009-.014,0-.021s0,0,.008,0H.554a1.434,1.434,0,0,0,.211.008,1.046,1.046,0,0,0,.574-.179.94.94,0,0,0,.367-.55c.005-.02.014-.017.026-.014l.357.088A.025.025,0,0,0,2.118,1.7l.233-.308c0-.005.01-.01.011-.018L2.277,1.35l-.485-.124h0c-.012,0-.015-.009-.013-.025a.321.321,0,0,0,0-.075A1.074,1.074,0,0,0,1.666.768c0-.006-.01-.012-.007-.022l.023.006L2.2.893A.025.025,0,0,0,2.233.881c.077-.1.156-.208.234-.312,0-.005.01-.009.01-.019" transform="translate(0 0)" fill="#ffff3f"/>
                            </g>
                          </g>
                        </g>
                      </g>
                    </g>
                  </g>
                </g>
              </g>
              <path id="Path_29676-6" data-name="Path 29676" d="M2.508.549,2.489.544,1.651.321.448,0A.025.025,0,0,0,.416.012L.169.319C.164.326.161.335.152.337V.342L.175.348c.086.02.172.04.257.063a2.814,2.814,0,0,1,.3.1,1.224,1.224,0,0,1,.328.18.653.653,0,0,1,.231.356c0,.007.007.014,0,.022L.336.791A.023.023,0,0,0,.306.8l-.236.33a.022.022,0,0,0-.008.018l.144.039.674.186.39.106c.012,0,.016.006.01.022s-.016.049-.026.072a.685.685,0,0,1-.287.369.658.658,0,0,1-.4.068,1.6,1.6,0,0,1-.25-.048C.236,1.944.157,1.918.079,1.89l-.005,0c-.012,0-.017,0-.02.02C.038,2.02.019,2.131,0,2.243a.058.058,0,0,0,0,.036c.019.043.038.088.057.132L.944,4.466a.041.041,0,0,0,.03.027l.5.134.022.006-.007-.018L.823,3.027.55,2.376c0-.006-.01-.014-.005-.021s0,0,.008,0H.561a1.471,1.471,0,0,0,.214.008,1.069,1.069,0,0,0,.581-.179.938.938,0,0,0,.371-.549c.005-.02.014-.017.026-.014l.361.088a.025.025,0,0,0,.03-.011l.236-.308c0-.005.01-.01.011-.018L2.3,1.348l-.491-.123h0C1.8,1.22,1.8,1.215,1.8,1.2a.316.316,0,0,0,0-.075A1.062,1.062,0,0,0,1.687.766c0-.006-.01-.012-.007-.022L1.7.75l.526.142A.025.025,0,0,0,2.26.88c.078-.1.158-.208.237-.311,0-.005.01-.009.01-.019" transform="translate(5.95 11.249) rotate(-10)" fill="#ff9400"/>
            </g>
          </g>
        </g>
        <g id="Group_9785" data-name="Group 9785" transform="translate(0 23.248)">
          <path id="Path_29248" data-name="Path 29248" d="M238.409,257.748l-10.7,6.344V254.47l10.7-6.344Z" transform="translate(-211.238 -238.557)" fill="#f4734e"/>
          <path id="Path_29249" data-name="Path 29249" d="M204.927,252.987l16.47,9.787v-9.623l-16.47-9.787Z" transform="translate(-204.927 -237.238)" fill="#f4caa0"/>
          <path id="Path_29250" data-name="Path 29250" d="M205.742,255.092l2.188,1.3v-2.556l-2.188-1.3Z" transform="translate(-205.153 -239.779)" fill="#f46c33"/>
          <path id="Path_29251" data-name="Path 29251" d="M232.222,264.032l-3.55,2.109v-4.148l3.55-2.109Z" transform="translate(-211.505 -241.815)" fill="#a52113"/>
          <path id="Path_29252" data-name="Path 29252" d="M235.491,263.835l-1.238.736v-1.447l1.238-.736Z" transform="translate(-213.051 -242.508)" fill="#a52113"/>
          <path id="Path_29253" data-name="Path 29253" d="M209.552,258.08l.72.428v-.841l-.72-.428Z" transform="translate(-206.208 -241.082)" fill="#f46c33"/>
          <path id="Path_29254" data-name="Path 29254" d="M211.682,259.346l.72.428v-.841l-.72-.428Z" transform="translate(-206.798 -241.433)" fill="#f46c33"/>
          <path id="Path_29255" data-name="Path 29255" d="M232.1,244.459,221.4,250.8l-16.47-9.787,10.7-6.126Z" transform="translate(-204.927 -234.89)" fill="#f49a61"/>
          <path id="Path_29256" data-name="Path 29256" d="M211.837,239.045l16.148,9.876,1.643-.974L213.486,238.1Z" transform="translate(-206.841 -235.78)" fill="#f4efa4"/>
          <path id="Path_29257" data-name="Path 29257" d="M234.176,252.7v3.364l.207.177.205-.416.205.175.205-.416.205.175.205-.416.205.175.207-.421v-3.364Z" transform="translate(-213.03 -239.555)" fill="#f4d38b"/>
          <path id="Path_29258" data-name="Path 29258" d="M234.176,252.7l1.645-.969A8.574,8.574,0,0,0,234.176,252.7Z" transform="translate(-213.03 -239.555)" fill="#ffffe8"/>
        </g>
        <ellipse id="Ellipse_510" data-name="Ellipse 510" cx="2.157" cy="4.03" rx="2.157" ry="4.03" transform="matrix(0.3, -0.954, 0.954, 0.3, 10.37, 30.289)" fill="#f4734e" opacity="0.31"/>
        <g id="Group_9789" data-name="Group 9789" transform="translate(6.498 12.101)">
          <g id="Group_9788" data-name="Group 9788">
            <path id="Path_29259" data-name="Path 29259" d="M228.433,232.034c0,4.648-2.958,6.862-6.609,4.947s-6.609-7.236-6.609-11.884c0-2.674-.671-3.83,2.509-5.283a4.563,4.563,0,0,1,4.1.337C225.475,222.066,228.433,227.387,228.433,232.034Z" transform="translate(-214.259 -219.472)" fill="#ff5f00"/>
            <path id="Path_29260" data-name="Path 29260" d="M227.134,232.771c0,4.648-2.959,6.862-6.609,4.947s-6.609-7.236-6.609-11.884,2.959-6.862,6.609-4.947S227.134,228.124,227.134,232.771Z" transform="translate(-213.915 -219.673)" fill="orange"/>
            <path id="Path_29261" data-name="Path 29261" d="M220.524,221.047c3.629,1.9,6.574,7.175,6.607,11.8,0-.027,0-.052,0-.079,0-4.647-2.959-9.968-6.609-11.884s-6.609.3-6.609,4.947c0,.027,0,.053,0,.08C213.95,221.322,216.9,219.143,220.524,221.047Z" transform="translate(-213.915 -219.673)" fill="#ffe500"/>
            <path id="Path_29262" data-name="Path 29262" d="M226.073,232.992c0,3.438-2.189,5.077-4.889,3.66s-4.889-5.352-4.889-8.791,2.19-5.077,4.889-3.66S226.073,229.554,226.073,232.992Z" transform="translate(-214.574 -220.641)" fill="#ffe500"/>
            <path id="Path_29263" data-name="Path 29263" d="M221.183,224.5c2.674,1.4,4.843,5.276,4.885,8.69,0-.064,0-.129,0-.194,0-3.438-2.189-7.374-4.889-8.791s-4.889.221-4.889,3.66c0,.033,0,.067,0,.1C216.38,224.658,218.536,223.107,221.183,224.5Z" transform="translate(-214.574 -220.641)" fill="#ffff4b"/>
            <g id="Group_9907" data-name="Group 9907" transform="translate(-2.489 -4.747)">
              <g id="Group_9901-7" data-name="Group 9901" transform="translate(5.526 11.659) rotate(-10)">
                <g id="Group_9900-13" data-name="Group 9900" transform="translate(0 0)">
                  <g id="Group_9903-7" data-name="Group 9903" transform="translate(0 0)">
                    <g id="Group_9898-13" data-name="Group 9898" transform="translate(0 0)">
                      <g id="Group_9902-7" data-name="Group 9902" transform="translate(0 0)">
                        <g id="Group_9900-14" data-name="Group 9900" transform="translate(0 0)">
                          <g id="Group_9899-7" data-name="Group 9899" clip-path="url(#clip-path-7)">
                            <g id="Group_9898-14" data-name="Group 9898" transform="translate(0.674 0.118)">
                              <path id="Path_29674-7" data-name="Path 29674" d="M4.4.977,4.367.968,2.9.571.786,0A.044.044,0,0,0,.73.022Q.514.3.3.568C.289.58.283.6.267.6v.01L.307.62c.151.035.3.071.451.112A4.889,4.889,0,0,1,1.279.9a2.14,2.14,0,0,1,.575.32,1.162,1.162,0,0,1,.405.634c0,.012.012.025,0,.039Q1.425,1.653.589,1.407a.041.041,0,0,0-.052.02q-.206.3-.413.588a.04.04,0,0,0-.013.032l.253.069,1.183.33c.228.063.456.127.684.189.021.006.028.011.017.04s-.029.087-.045.128a1.217,1.217,0,0,1-.5.657,1.141,1.141,0,0,1-.708.122A2.777,2.777,0,0,1,.553,3.5C.414,3.458.276,3.412.139,3.363l-.009,0C.109,3.354.1,3.36.1,3.395c-.029.2-.062.4-.094.6a.1.1,0,0,0,.008.064c.034.077.067.157.1.235L1.657,7.946a.072.072,0,0,0,.052.048l.878.238.038.01c-.006-.015-.008-.023-.011-.032L1.444,5.386.965,4.227c0-.011-.017-.024-.009-.038s.008-.006.014,0l.006,0H.985A2.547,2.547,0,0,0,1.36,4.2a1.858,1.858,0,0,0,1.02-.318,1.671,1.671,0,0,0,.652-.977c.009-.035.024-.031.046-.025l.634.157a.044.044,0,0,0,.052-.02l.415-.548c.007-.009.018-.017.019-.032L4.045,2.4l-.861-.22h0c-.02-.006-.027-.015-.023-.045a.57.57,0,0,0,0-.133,1.909,1.909,0,0,0-.194-.635c-.005-.011-.017-.021-.012-.04l.041.011.924.252a.044.044,0,0,0,.055-.021c.137-.186.277-.37.416-.554C4.389,1,4.4,1,4.4.977" transform="translate(0 0)" fill="#ffff3f"/>
                            </g>
                          </g>
                        </g>
                      </g>
                    </g>
                  </g>
                </g>
              </g>
              <path id="Path_29676-7" data-name="Path 29676" d="M4.454.976,4.421.967,2.933.57.8,0A.045.045,0,0,0,.739.022Q.52.3.3.567C.292.579.286.6.271.6v.01L.31.619C.463.654.616.69.767.731A5,5,0,0,1,1.295.9a2.174,2.174,0,0,1,.582.319,1.159,1.159,0,0,1,.41.633c0,.012.012.025,0,.039Q1.443,1.65.6,1.405a.042.042,0,0,0-.053.02q-.208.295-.418.587a.04.04,0,0,0-.013.032l.256.069,1.2.33c.23.063.461.127.692.189.021.006.029.011.017.04s-.029.087-.046.128a1.217,1.217,0,0,1-.509.656A1.169,1.169,0,0,1,1,3.575,2.846,2.846,0,0,1,.56,3.491c-.14-.038-.28-.084-.418-.133l-.009,0c-.021-.006-.03,0-.035.035-.03.2-.062.4-.095.594a.1.1,0,0,0,.008.064c.034.077.068.156.1.234L1.677,7.934a.072.072,0,0,0,.053.048l.889.238.039.01c-.006-.015-.008-.023-.012-.032L1.462,5.378.977,4.22c0-.011-.017-.024-.009-.038s.008-.006.014,0l.007,0H1a2.613,2.613,0,0,0,.38.014,1.9,1.9,0,0,0,1.032-.318,1.667,1.667,0,0,0,.66-.975c.009-.035.025-.031.046-.025l.641.157a.045.045,0,0,0,.053-.02l.42-.547c.007-.009.018-.017.02-.032l-.154-.041-.872-.219h0c-.021-.006-.028-.015-.024-.045a.562.562,0,0,0,0-.133A1.887,1.887,0,0,0,3,1.361c-.006-.011-.017-.021-.012-.039l.041.011.935.252a.045.045,0,0,0,.055-.021c.139-.185.281-.369.421-.553C4.443,1,4.454.994,4.454.976" transform="translate(6.278 11.615) rotate(-10)" fill="#ff9400"/>
            </g>
          </g>
        </g>
      </g>
      <g id="Group_9802" data-name="Group 9802" transform="translate(111.739 126.273)">
        <g id="Group_9791" data-name="Group 9791" transform="translate(10.059 0.709)">
          <path id="Path_29266" data-name="Path 29266" d="M152.578,163.681a.717.717,0,0,1-.716-.716,6.823,6.823,0,0,0-3.311-5.68,1.872,1.872,0,0,0-1.8-.045,2.531,2.531,0,0,0-.9,2.213.716.716,0,1,1-1.432,0,3.892,3.892,0,0,1,1.566-3.423,3.219,3.219,0,0,1,3.177-.041,8.161,8.161,0,0,1,4.132,6.976A.716.716,0,0,1,152.578,163.681Z" transform="translate(-144.418 -155.592)" fill="#fff"/>
        </g>
        <g id="Group_9800" data-name="Group 9800">
          <g id="Group_9799" data-name="Group 9799">
            <g id="Group_9792" data-name="Group 9792" transform="translate(0 3.373)">
              <path id="Path_29267" data-name="Path 29267" d="M130.5,189.492l17.609,10.439V169.717L130.5,159.278Z" transform="translate(-130.505 -159.278)" fill="#06e6ff"/>
            </g>
            <g id="Group_9793" data-name="Group 9793" transform="translate(17.609 10.418)">
              <path id="Path_29268" data-name="Path 29268" d="M160.664,198.9l-5.8,3.732V172.417l5.8-3.394Z" transform="translate(-154.862 -169.023)" fill="#ff56b0"/>
            </g>
            <g id="Group_9794" data-name="Group 9794" transform="translate(17.609 10.418)">
              <path id="Path_29269" data-name="Path 29269" d="M160.664,198.9l-5.8,3.732V172.417l5.8-3.394Z" transform="translate(-154.862 -169.023)" fill="#068ae0"/>
            </g>
            <g id="Group_9795" data-name="Group 9795" transform="translate(20.51 10.418)">
              <path id="Path_29270" data-name="Path 29270" d="M158.874,170.72l2.9-1.7V198.9l-2.9,1.866Z" transform="translate(-158.874 -169.023)" fill="#06b4ff"/>
            </g>
            <g id="Group_9796" data-name="Group 9796" transform="translate(0 0)">
              <path id="Path_29271" data-name="Path 29271" d="M130.5,157.985l17.609,10.439,5.8-3.394-17.6-10.418Z" transform="translate(-130.505 -154.612)" fill="#06b4ff"/>
            </g>
            <g id="Group_9797" data-name="Group 9797" transform="translate(5.807 0)">
              <path id="Path_29272" data-name="Path 29272" d="M138.537,154.612v6.368l11.8,7.049,4.882-3.128-.9-.95" transform="translate(-138.537 -154.612)" fill="#065ee0"/>
            </g>
            <g id="Group_9798" data-name="Group 9798" transform="translate(0)">
              <path id="Path_29273" data-name="Path 29273" d="M136.308,155.442l16.2,9.585-4.388,2.567-16.2-9.6,4.388-2.55m0-.83-5.807,3.373,17.609,10.439,5.8-3.394-17.6-10.419Z" transform="translate(-130.505 -154.612)" fill="#8affff"/>
            </g>
          </g>
        </g>
        <g id="Group_9801" data-name="Group 9801" transform="translate(4.694 4.036)">
          <path id="Path_29274" data-name="Path 29274" d="M145.156,168.283a.715.715,0,0,1-.716-.716,6.826,6.826,0,0,0-3.312-5.681,1.869,1.869,0,0,0-1.8-.044,2.531,2.531,0,0,0-.9,2.213.716.716,0,1,1-1.432,0,3.893,3.893,0,0,1,1.565-3.423,3.217,3.217,0,0,1,3.178-.042,8.164,8.164,0,0,1,4.132,6.977A.716.716,0,0,1,145.156,168.283Z" transform="translate(-136.997 -160.194)" fill="#fff"/>
        </g>
      </g>
      <g id="Group_9814" data-name="Group 9814" transform="translate(128.208 144.449)">
        <g id="Group_9803" data-name="Group 9803" transform="translate(5.091 0.806)">
          <path id="Path_29275" data-name="Path 29275" d="M161.142,190.069a.815.815,0,0,1-.815-.815c0-3.206,2.065-6.691,4.7-7.934a3.662,3.662,0,0,1,3.615.047,4.429,4.429,0,0,1,1.781,3.893.814.814,0,0,1-1.629,0,2.881,2.881,0,0,0-1.024-2.518,2.13,2.13,0,0,0-2.047.051c-2.042.964-3.767,3.922-3.767,6.461A.815.815,0,0,1,161.142,190.069Z" transform="translate(-160.327 -180.869)" fill="#fff"/>
        </g>
        <g id="Group_9812" data-name="Group 9812">
          <g id="Group_9811" data-name="Group 9811">
            <g id="Group_9804" data-name="Group 9804" transform="translate(6.599 3.836)">
              <path id="Path_29276" data-name="Path 29276" d="M182.441,219.424,162.413,231.3V196.933l20.028-11.873Z" transform="translate(-162.413 -185.061)" fill="#ff277d"/>
            </g>
            <g id="Group_9805" data-name="Group 9805" transform="translate(0 11.849)">
              <path id="Path_29277" data-name="Path 29277" d="M153.285,230.123l6.6,4.245V200l-6.6-3.86Z" transform="translate(-153.285 -196.144)" fill="#ff56b0"/>
            </g>
            <g id="Group_9806" data-name="Group 9806" transform="translate(0 11.849)">
              <path id="Path_29278" data-name="Path 29278" d="M153.285,230.123l6.6,4.245V200l-6.6-3.86Z" transform="translate(-153.285 -196.144)" fill="#ff56b0"/>
            </g>
            <g id="Group_9807" data-name="Group 9807" transform="translate(0 11.849)">
              <path id="Path_29279" data-name="Path 29279" d="M156.585,198.074l-3.3-1.93v33.979l3.3,2.122Z" transform="translate(-153.285 -196.144)" fill="#dd3d99"/>
            </g>
            <g id="Group_9808" data-name="Group 9808" transform="translate(0 0)">
              <path id="Path_29280" data-name="Path 29280" d="M179.912,183.59l-20.028,11.873-6.6-3.86,20.022-11.849Z" transform="translate(-153.285 -179.754)" fill="#ab0a41"/>
            </g>
            <g id="Group_9809" data-name="Group 9809" transform="translate(1.047 0)">
              <path id="Path_29281" data-name="Path 29281" d="M173.709,179.754V187l-13.423,8.017-5.553-3.558,1.028-1.081" transform="translate(-154.733 -179.754)" fill="#79081a"/>
            </g>
            <g id="Group_9810" data-name="Group 9810">
              <path id="Path_29282" data-name="Path 29282" d="M173.311,180.7l4.991,2.9-18.421,10.921-4.99-2.919,18.42-10.9m0-.944L153.285,191.6l6.6,3.86,20.028-11.872-6.6-3.837Z" transform="translate(-153.285 -179.754)" fill="#ff70aa"/>
            </g>
          </g>
        </g>
        <g id="Group_9813" data-name="Group 9813" transform="translate(11.194 4.59)">
          <path id="Path_29283" data-name="Path 29283" d="M169.583,195.3a.814.814,0,0,1-.815-.814,9.281,9.281,0,0,1,4.7-7.934,3.659,3.659,0,0,1,3.614.047,4.428,4.428,0,0,1,1.781,3.893.814.814,0,0,1-1.629,0,2.88,2.88,0,0,0-1.024-2.518,2.128,2.128,0,0,0-2.047.051c-2.042.964-3.767,3.921-3.767,6.461A.814.814,0,0,1,169.583,195.3Z" transform="translate(-168.768 -186.103)" fill="#fff"/>
        </g>
      </g>
      <g id="Group_9826" data-name="Group 9826" transform="translate(271.767 250.366)">
        <g id="Group_9815" data-name="Group 9815" transform="translate(12.109 0.853)">
          <path id="Path_29284" data-name="Path 29284" d="M378.426,337.174a.862.862,0,0,1-.862-.862c0-2.688-1.826-5.819-3.986-6.839a2.256,2.256,0,0,0-2.167-.054,3.049,3.049,0,0,0-1.084,2.665.862.862,0,0,1-1.724,0,4.688,4.688,0,0,1,1.885-4.12,3.876,3.876,0,0,1,3.826-.05c2.789,1.317,4.975,5,4.975,8.4A.862.862,0,0,1,378.426,337.174Z" transform="translate(-368.603 -327.437)" fill="#fff"/>
        </g>
        <g id="Group_9824" data-name="Group 9824">
          <g id="Group_9823" data-name="Group 9823">
            <g id="Group_9816" data-name="Group 9816" transform="translate(0 4.061)">
              <path id="Path_29285" data-name="Path 29285" d="M351.854,368.245l21.2,12.567V344.44l-21.2-12.567Z" transform="translate(-351.854 -331.873)" fill="#06e6ff"/>
            </g>
            <g id="Group_9817" data-name="Group 9817" transform="translate(21.198 12.542)">
              <path id="Path_29286" data-name="Path 29286" d="M388.16,379.569l-6.985,4.493V347.69l6.985-4.086Z" transform="translate(-381.175 -343.604)" fill="#ff56b0"/>
            </g>
            <g id="Group_9818" data-name="Group 9818" transform="translate(21.198 12.542)">
              <path id="Path_29287" data-name="Path 29287" d="M388.16,379.569l-6.985,4.493V347.69l6.985-4.086Z" transform="translate(-381.175 -343.604)" fill="#068ae0"/>
            </g>
            <g id="Group_9819" data-name="Group 9819" transform="translate(24.691 12.542)">
              <path id="Path_29288" data-name="Path 29288" d="M386.006,345.647,389.5,343.6v35.964l-3.492,2.246Z" transform="translate(-386.006 -343.604)" fill="#06b4ff"/>
            </g>
            <g id="Group_9820" data-name="Group 9820" transform="translate(0)">
              <path id="Path_29289" data-name="Path 29289" d="M351.854,330.317l21.2,12.567,6.985-4.086-21.192-12.542Z" transform="translate(-351.854 -326.257)" fill="#06b4ff"/>
            </g>
            <g id="Group_9821" data-name="Group 9821" transform="translate(6.99 0)">
              <path id="Path_29290" data-name="Path 29290" d="M361.523,326.257v7.666l14.208,8.486,5.877-3.765-1.088-1.144" transform="translate(-361.523 -326.257)" fill="#065ee0"/>
            </g>
            <g id="Group_9822" data-name="Group 9822" transform="translate(0 0)">
              <path id="Path_29291" data-name="Path 29291" d="M358.841,327.256l19.5,11.538-5.282,3.09-19.5-11.559,5.283-3.069m0-1-6.99,4.06,21.2,12.567,6.985-4.085-21.193-12.541Z" transform="translate(-351.854 -326.257)" fill="#8affff"/>
            </g>
          </g>
        </g>
        <g id="Group_9825" data-name="Group 9825" transform="translate(5.651 4.858)">
          <path id="Path_29292" data-name="Path 29292" d="M369.492,342.714a.862.862,0,0,1-.862-.862c0-2.687-1.825-5.819-3.986-6.839a2.252,2.252,0,0,0-2.167-.053,3.048,3.048,0,0,0-1.084,2.665.862.862,0,1,1-1.724,0,4.687,4.687,0,0,1,1.884-4.12,3.871,3.871,0,0,1,3.826-.05c2.789,1.316,4.975,5.005,4.975,8.4A.862.862,0,0,1,369.492,342.714Z" transform="translate(-359.67 -332.976)" fill="#fff"/>
        </g>
      </g>
      <path id="Path_29293" data-name="Path 29293" d="M250.712,236.194" transform="translate(-52.067 -50.941)" fill="#e93800"/>
      <g id="Group_9828" data-name="Group 9828" transform="translate(-54.64 -40.031)">
        <path id="Path_29294" data-name="Path 29294" d="M264.552,201.983a9.031,9.031,0,0,0,2.448,2.19c1.4.8,2.213.421,2.213-.8,0-1.132-.565-2.1-1.993-3.547-1.726-1.688-2.793-3.322-2.793-5.029,0-1.886,1.366-2.506,3.421-1.331a8.548,8.548,0,0,1,2.339,1.93l-.377,1.06a7.741,7.741,0,0,0-2.008-1.724c-1.444-.825-1.993-.152-1.993.675,0,1.132.643,2.056,2.1,3.538,1.789,1.814,2.7,3.322,2.7,5.1,0,1.868-1.209,2.794-3.7,1.368a9.964,9.964,0,0,1-2.7-2.317Z" fill="#fff"/>
        <path id="Path_29295" data-name="Path 29295" d="M276.71,207.176l-1.1,3.18-1.412-.808,3.594-10.052,1.647.941,3.61,14.172-1.459-.835-1.13-4.454Zm3.469.762-1.037-4.077c-.235-.925-.392-1.734-.549-2.524l-.031-.019c-.157.629-.329,1.267-.534,1.886l-1.035,2.911Z" transform="translate(-1.578 -1.046)" fill="#fff"/>
        <path id="Path_29296" data-name="Path 29296" d="M287.676,204.762l1.365.78v10.8l4.52,2.585v1.311l-5.885-3.365Z" transform="translate(-3.706 -1.878)" fill="#fff"/>
        <path id="Path_29297" data-name="Path 29297" d="M303.07,220l-4.113-2.351v4.365l4.584,2.621v1.311l-5.948-3.4V210.433l5.712,3.267v1.311l-4.348-2.486v3.827l4.113,2.351Z" transform="translate(-5.271 -2.773)" fill="#fff"/>
      </g>
    </g>
  </g>
</svg>
