<svg xmlns="http://www.w3.org/2000/svg" xmlns:xlink="http://www.w3.org/1999/xlink" width="370" height="300" viewBox="0 0 370 300">
  <defs>
    <radialGradient id="radial-gradient" cx="0.5" cy="0.5" r="0.5" gradientUnits="objectBoundingBox">
      <stop offset="0" stop-color="#0094d6"/>
      <stop offset="1" stop-color="#002c9a"/>
    </radialGradient>
    <linearGradient id="linear-gradient" x1="0.773" y1="0.799" x2="1.896" y2="0.331" gradientUnits="objectBoundingBox">
      <stop offset="0" stop-color="#00dfff"/>
      <stop offset="0.652" stop-color="#00baff"/>
      <stop offset="1" stop-color="#00acff"/>
    </linearGradient>
  </defs>
  <g id="Group_14526" data-name="Group 14526" transform="translate(-375 -2446)">
    <g id="Group_8208" data-name="Group 8208" transform="translate(0 1230)">
      <path id="Rectangle_645" data-name="Rectangle 645" d="M10,0H360a10,10,0,0,1,10,10V300a0,0,0,0,1,0,0H0a0,0,0,0,1,0,0V10A10,10,0,0,1,10,0Z" transform="translate(375 1216)" fill="url(#radial-gradient)"/>
    </g>
    <g id="Group_9606" data-name="Group 9606" transform="translate(52.031 2321.76)">
      <ellipse id="Ellipse_506" data-name="Ellipse 506" cx="48.236" cy="4.69" rx="48.236" ry="4.69" transform="translate(357.859 388.218)" fill="#002a98"/>
      <ellipse id="Ellipse_507" data-name="Ellipse 507" cx="37.182" cy="4.69" rx="37.182" ry="4.69" transform="translate(589.658 383.528)" fill="#002a98"/>
      <path id="Path_28816" data-name="Path 28816" d="M586.009,347.6h58.285s11.389-12.729,2.01-22.108c-6.581-6.581-13.4-4.019-17.418-8.709s0-18.088-16.748-16.748-8.039,23.448-14.069,25.458S574.62,332.19,586.009,347.6Z" transform="translate(1.639 1.093)" fill="#80aad8"/>
      <path id="Path_28817" data-name="Path 28817" d="M518.415,152.162H505.687a15.453,15.453,0,0,0-15.34,14.069h-1.074a8.374,8.374,0,0,0,0,16.748h29.142a15.454,15.454,0,0,0,15.409-15.409h0A15.454,15.454,0,0,0,518.415,152.162Z" transform="translate(0.899 0.013)" fill="#80abd8"/>
      <g id="Group_9569" data-name="Group 9569" transform="translate(372.995 236.29)">
        <g id="Group_9564" data-name="Group 9564">
          <g id="Group_9527" data-name="Group 9527" transform="translate(15.537)">
            <rect id="Rectangle_1848" data-name="Rectangle 1848" width="170.074" height="109.859" rx="5.069" fill="#6275f1"/>
          </g>
          <g id="Group_9528" data-name="Group 9528" transform="translate(23.673 8.41)">
            <rect id="Rectangle_1849" data-name="Rectangle 1849" width="153.802" height="93.038" fill="url(#linear-gradient)"/>
          </g>
          <g id="Group_9529" data-name="Group 9529" transform="translate(0 109.792)">
            <path id="Path_28818" data-name="Path 28818" d="M391.689,344.662l-18.8,17.093H573.47L551.291,345S439.276,344.662,391.689,344.662Z" transform="translate(-372.885 -344.662)" fill="#83a7fd"/>
          </g>
          <g id="Group_9530" data-name="Group 9530" transform="translate(14.984 111.711)">
            <path id="Path_28819" data-name="Path 28819" d="M544.558,347.011l15.963,11.21H387.76l13.967-11.655S543.028,347.011,544.558,347.011Z" transform="translate(-387.76 -346.567)" fill="#e9efff"/>
          </g>
          <g id="Group_9531" data-name="Group 9531" transform="translate(0 126.885)">
            <rect id="Rectangle_1850" data-name="Rectangle 1850" width="200.584" height="5.316" fill="#3032bd"/>
          </g>
          <g id="Group_9532" data-name="Group 9532" transform="translate(23.673 8.41)">
            <rect id="Rectangle_1851" data-name="Rectangle 1851" width="153.802" height="8.912" fill="#00bbf2"/>
          </g>
          <g id="Group_9533" data-name="Group 9533" transform="translate(32.486 21.154)">
            <rect id="Rectangle_1852" data-name="Rectangle 1852" width="65.27" height="33.022" fill="#bad2ff"/>
          </g>
          <g id="Group_9534" data-name="Group 9534" transform="translate(37.4 26.929)">
            <rect id="Rectangle_1853" data-name="Rectangle 1853" width="18.839" height="18.838" fill="#fff"/>
          </g>
          <g id="Group_9543" data-name="Group 9543" transform="translate(34.772 71.443)">
            <g id="Group_9535" data-name="Group 9535" transform="translate(20.317)">
              <rect id="Rectangle_1854" data-name="Rectangle 1854" width="57.641" height="20.868" fill="#00bbf2"/>
            </g>
            <g id="Group_9537" data-name="Group 9537" transform="translate(24.128 4.76)">
              <g id="User">
                <g id="Group_9536" data-name="Group 9536">
                  <rect id="Rectangle_1855" data-name="Rectangle 1855" width="43.093" height="3.336" fill="#fff"/>
                </g>
              </g>
            </g>
            <g id="Group_9539" data-name="Group 9539" transform="translate(24.128 11.104)">
              <g id="User-2" data-name="User">
                <g id="Group_9538" data-name="Group 9538">
                  <rect id="Rectangle_1856" data-name="Rectangle 1856" width="33.345" height="3.336" fill="#fff"/>
                </g>
              </g>
            </g>
            <g id="Group_9540" data-name="Group 9540">
              <rect id="Rectangle_1857" data-name="Rectangle 1857" width="20.538" height="20.868" transform="translate(20.538 20.868) rotate(180)" fill="#fcb543"/>
            </g>
            <g id="Group_9542" data-name="Group 9542" transform="translate(4.026 6.997)">
              <g id="Group_9541" data-name="Group 9541">
                <path id="Path_28820" data-name="Path 28820" d="M411.656,313.792a.875.875,0,0,1,1.234,0l5.2,4.6,5.2-4.6a.872.872,0,1,1,1.233,1.233l-5.8,5.132a.861.861,0,0,1-.629.254.852.852,0,0,1-.627-.251l-5.8-5.132A.877.877,0,0,1,411.656,313.792Z" transform="translate(-411.401 -313.537)" fill="#fff"/>
              </g>
            </g>
          </g>
          <g id="Group_9559" data-name="Group 9559" transform="translate(66.712 43.822)">
            <g id="Group_9545" data-name="Group 9545" transform="translate(0 12.168)">
              <g id="Schloss">
                <g id="Group_9544" data-name="Group 9544">
                  <rect id="Rectangle_1858" data-name="Rectangle 1858" width="44.666" height="9.826" fill="#00bbf2"/>
                </g>
              </g>
            </g>
            <g id="Group_9547" data-name="Group 9547">
              <g id="Schloss-2" data-name="Schloss">
                <g id="Group_9546" data-name="Group 9546">
                  <rect id="Rectangle_1859" data-name="Rectangle 1859" width="44.666" height="9.826" fill="#157eb7"/>
                </g>
              </g>
            </g>
            <g id="Group_9553" data-name="Group 9553" transform="translate(44.666 0.109)">
              <g id="Group_9549" data-name="Group 9549">
                <g id="Group_9548" data-name="Group 9548">
                  <rect id="Rectangle_1860" data-name="Rectangle 1860" width="9.826" height="9.826" transform="translate(9.826 9.826) rotate(180)" fill="#fff"/>
                </g>
              </g>
              <g id="Group_9552" data-name="Group 9552" transform="translate(2.306 2.646)">
                <g id="Group_9551" data-name="Group 9551">
                  <g id="Group_9550" data-name="Group 9550">
                    <path id="Path_28821" data-name="Path 28821" d="M490.651,285.564a.265.265,0,0,1,0,.374l-.873.873a.264.264,0,0,1-.375,0l-1.166-1.166-1.166,1.166a.264.264,0,0,1-.375,0l-.873-.873a.265.265,0,0,1,0-.374l1.166-1.166-1.166-1.166a.266.266,0,0,1,0-.375l.873-.873a.266.266,0,0,1,.375,0l1.166,1.166,1.166-1.166a.266.266,0,0,1,.375,0l.873.873a.266.266,0,0,1,0,.375l-1.167,1.166Zm0,0" transform="translate(-485.745 -281.906)" fill="#f0532d"/>
                  </g>
                </g>
              </g>
            </g>
            <g id="Group_9558" data-name="Group 9558" transform="translate(44.666 12.168)">
              <g id="Group_9555" data-name="Group 9555">
                <g id="Group_9554" data-name="Group 9554">
                  <rect id="Rectangle_1861" data-name="Rectangle 1861" width="9.826" height="9.826" transform="translate(9.826 9.826) rotate(180)" fill="#fff"/>
                </g>
              </g>
              <g id="Group_9557" data-name="Group 9557" transform="translate(1.698 2.645)">
                <g id="Group_9556" data-name="Group 9556">
                  <path id="Path_28822" data-name="Path 28822" d="M491.459,294.67l-.711-.729a.212.212,0,0,0-.3,0l-2.963,3.037-1.259-1.291a.212.212,0,0,0-.305,0l-.711.728a.225.225,0,0,0,0,.313l2.123,2.176a.211.211,0,0,0,.305,0l3.826-3.921a.224.224,0,0,0,0-.312Zm0,0" transform="translate(-485.141 -293.876)" fill="#00bbf2"/>
                </g>
              </g>
            </g>
          </g>
          <g id="Group_9563" data-name="Group 9563" transform="translate(27.293 10.2)">
            <g id="Group_9560" data-name="Group 9560">
              <path id="Path_28823" data-name="Path 28823" d="M404.733,248.169a2.377,2.377,0,1,1-2.376-2.377A2.377,2.377,0,0,1,404.733,248.169Z" transform="translate(-399.98 -245.792)" fill="#c1272d"/>
            </g>
            <g id="Group_9561" data-name="Group 9561" transform="translate(7.541)">
              <path id="Path_28824" data-name="Path 28824" d="M412.219,248.169a2.377,2.377,0,1,1-2.377-2.377A2.377,2.377,0,0,1,412.219,248.169Z" transform="translate(-407.466 -245.792)" fill="#fcee21"/>
            </g>
            <g id="Group_9562" data-name="Group 9562" transform="translate(15.08)">
              <path id="Path_28825" data-name="Path 28825" d="M419.7,248.169a2.377,2.377,0,1,1-2.376-2.377A2.377,2.377,0,0,1,419.7,248.169Z" transform="translate(-414.951 -245.792)" fill="#66d871"/>
            </g>
          </g>
        </g>
        <rect id="Rectangle_1862" data-name="Rectangle 1862" width="47.231" height="45.221" transform="translate(123.506 49.056)" fill="#fff"/>
        <g id="Group_9568" data-name="Group 9568" transform="translate(129.182 51.066)">
          <g id="Group_9567" data-name="Group 9567">
            <g id="Group_9565" data-name="Group 9565">
              <path id="Path_28826" data-name="Path 28826" d="M501.13,306.132a19.772,19.772,0,1,0,19.772-19.77A19.793,19.793,0,0,0,501.13,306.132Zm2.787,0A16.986,16.986,0,1,1,520.9,323.121,17,17,0,0,1,503.917,306.132Z" transform="translate(-501.13 -286.362)" fill="#ed1c24"/>
            </g>
            <g id="Group_9566" data-name="Group 9566" transform="translate(15.035 9.496)">
              <path id="Path_28827" data-name="Path 28827" d="M516.056,297.185v17.976a1.391,1.391,0,0,0,2.374.984l8.988-8.988a1.4,1.4,0,0,0,0-1.97L518.43,296.2a1.389,1.389,0,0,0-.981-.412,1.429,1.429,0,0,0-.536.107A1.4,1.4,0,0,0,516.056,297.185Z" transform="translate(-516.056 -295.789)" fill="#ed1c24"/>
            </g>
          </g>
        </g>
      </g>
      <g id="Group_9570" data-name="Group 9570" transform="translate(581.747 312.847)">
        <line id="Line_434" data-name="Line 434" x1="16.282" y2="16.282" transform="translate(1.008 1.007)" fill="#5851bb"/>
        <path id="Path_28828" data-name="Path 28828" d="M581.131,329.966a1.007,1.007,0,0,1-.712-1.719L596.7,311.964a1.007,1.007,0,0,1,1.424,1.424l-16.282,16.282A1,1,0,0,1,581.131,329.966Z" transform="translate(-580.124 -311.669)" fill="#83a7fd"/>
      </g>
      <g id="Group_9572" data-name="Group 9572" transform="translate(568.349 315.527)">
        <g id="Group_9571" data-name="Group 9571" transform="translate(0)">
          <line id="Line_435" data-name="Line 435" x1="16.282" y2="16.282" transform="translate(1.007 1.007)" fill="#ffa70d"/>
          <path id="Path_28829" data-name="Path 28829" d="M567.829,332.626a1.007,1.007,0,0,1-.712-1.719L583.4,314.624a1.007,1.007,0,0,1,1.424,1.424l-16.282,16.282A1,1,0,0,1,567.829,332.626Z" transform="translate(-566.822 -314.329)" fill="#111581"/>
        </g>
      </g>
      <g id="Group_9574" data-name="Group 9574" transform="translate(364.88 270.137)">
        <g id="Group_9573" data-name="Group 9573">
          <path id="Path_28830" data-name="Path 28830" d="M366.34,286.535a1.51,1.51,0,0,1-1.068-2.579l1.424-1.425a1.511,1.511,0,1,1,2.136,2.138l-1.424,1.424A1.506,1.506,0,0,1,366.34,286.535Zm6.41-6.409a1.511,1.511,0,0,1-1.068-2.58l1.424-1.424a1.511,1.511,0,0,1,2.137,2.137l-1.424,1.424A1.507,1.507,0,0,1,372.75,280.126Zm6.412-6.41a1.511,1.511,0,0,1-1.069-2.58l1.424-1.424a1.511,1.511,0,0,1,2.137,2.137l-1.424,1.424A1.507,1.507,0,0,1,379.162,273.715Z" transform="translate(-364.829 -269.268)" fill="#111581"/>
        </g>
      </g>
      <g id="Group_9575" data-name="Group 9575" transform="translate(411.424 172.733)">
        <line id="Line_436" data-name="Line 436" y1="16.283" x2="16.282" transform="translate(1.007 1.007)" fill="#5851bb"/>
        <path id="Path_28831" data-name="Path 28831" d="M412.042,190.868a1.007,1.007,0,0,1-.712-1.719l16.282-16.283a1.007,1.007,0,0,1,1.424,1.424l-16.282,16.283A1,1,0,0,1,412.042,190.868Z" transform="translate(-411.036 -172.571)" fill="#83a7fd"/>
      </g>
      <g id="Group_9577" data-name="Group 9577" transform="translate(424.396 160.828)">
        <g id="Group_9576" data-name="Group 9576">
          <path id="Path_28832" data-name="Path 28832" d="M425.424,190.839a1.51,1.51,0,0,1-1.068-2.579l1.424-1.424a1.511,1.511,0,0,1,2.136,2.136l-1.424,1.424A1.506,1.506,0,0,1,425.424,190.839Zm6.41-6.41a1.51,1.51,0,0,1-1.068-2.579l1.424-1.425a1.511,1.511,0,0,1,2.137,2.136l-1.424,1.425A1.506,1.506,0,0,1,431.834,184.429Zm6.411-6.41a1.51,1.51,0,0,1-1.069-2.579l1.424-1.425a1.511,1.511,0,0,1,2.137,2.137l-1.424,1.424A1.5,1.5,0,0,1,438.246,178.018Zm6.409-6.41a1.51,1.51,0,0,1-1.069-2.579l1.425-1.424a1.511,1.511,0,0,1,2.137,2.137l-1.424,1.424A1.506,1.506,0,0,1,444.655,171.608Zm6.41-6.409a1.511,1.511,0,0,1-1.068-2.58l1.424-1.424a1.511,1.511,0,1,1,2.136,2.136l-1.424,1.424A1.507,1.507,0,0,1,451.066,165.2Z" transform="translate(-423.914 -160.751)" fill="#111581"/>
        </g>
      </g>
      <g id="Group_9580" data-name="Group 9580" transform="translate(482.035 207.509)">
        <g id="Group_9578" data-name="Group 9578" transform="translate(9.738)">
          <path id="Path_28833" data-name="Path 28833" d="M497.588,214.323l-2.011-.127.316-5-4.944.367-.149-2.009,6.1-.452a.977.977,0,0,1,.784.288,1,1,0,0,1,.3.78Z" transform="translate(-490.801 -207.094)" fill="#83a7fd"/>
        </g>
        <g id="Group_9579" data-name="Group 9579" transform="translate(0 0.395)">
          <rect id="Rectangle_1863" data-name="Rectangle 1863" width="21.631" height="2.014" transform="translate(0 15.295) rotate(-44.998)" fill="#83a7fd"/>
        </g>
      </g>
      <g id="Group_9582" data-name="Group 9582" transform="translate(475.715 192.735)">
        <g id="Group_9581" data-name="Group 9581">
          <path id="Path_28834" data-name="Path 28834" d="M476.958,196.947a1.712,1.712,0,1,0,2.421-2.421l-1.6-1.6a1.712,1.712,0,0,0-2.421,2.421Z" transform="translate(-474.861 -192.427)" fill="#111581"/>
          <path id="Path_28835" data-name="Path 28835" d="M477.114,198.948l-1.595,1.595a1.712,1.712,0,1,0,2.421,2.421l1.595-1.595a1.712,1.712,0,0,0-2.421-2.421Z" transform="translate(-474.86 -192.383)" fill="#111581"/>
          <path id="Path_28836" data-name="Path 28836" d="M483.891,196.947l1.6-1.6a1.712,1.712,0,0,0-2.421-2.421l-1.6,1.6a1.712,1.712,0,0,0,2.422,2.421Z" transform="translate(-474.816 -192.427)" fill="#111581"/>
          <path id="Path_28837" data-name="Path 28837" d="M483.735,198.948a1.712,1.712,0,1,0-2.421,2.421l1.595,1.595a1.712,1.712,0,1,0,2.421-2.421Z" transform="translate(-474.817 -192.383)" fill="#111581"/>
        </g>
      </g>
      <g id="Group_9584" data-name="Group 9584" transform="translate(555.737 150.344)">
        <g id="Group_9583" data-name="Group 9583">
          <path id="Path_28838" data-name="Path 28838" d="M558.368,158.475a4.065,4.065,0,1,1,4.065-4.066A4.07,4.07,0,0,1,558.368,158.475Zm0-6.116a2.051,2.051,0,1,0,2.051,2.05A2.053,2.053,0,0,0,558.368,152.359Z" transform="translate(-554.302 -150.344)" fill="#111581"/>
        </g>
      </g>
      <g id="Group_9594" data-name="Group 9594" transform="translate(514.294 170.228)">
        <g id="Group_9585" data-name="Group 9585" transform="translate(0)">
          <path id="Path_28839" data-name="Path 28839" d="M513.16,286.333c0,4.206,3.115,7.974,7.32,7.974H598.9a8.045,8.045,0,0,0,7.749-7.974V177.772a7.793,7.793,0,0,0-7.749-7.688H520.48a7.431,7.431,0,0,0-7.32,7.688Z" transform="translate(-513.16 -170.084)" fill="#5469ed"/>
        </g>
        <g id="Group_9586" data-name="Group 9586" transform="translate(7.358 9.09)">
          <rect id="Rectangle_1864" data-name="Rectangle 1864" width="78.775" height="95.223" fill="url(#linear-gradient)"/>
        </g>
        <g id="Group_9587" data-name="Group 9587" transform="translate(41.467 109.019)">
          <path id="Path_28840" data-name="Path 28840" d="M554.326,283.378a5.064,5.064,0,1,0,5.064-5.066A5.062,5.062,0,0,0,554.326,283.378Z" transform="translate(-554.326 -278.312)" fill="#83a7fd"/>
        </g>
        <g id="Group_9589" data-name="Group 9589" transform="translate(45.476 23.039)">
          <g id="Group_9588" data-name="Group 9588">
            <path id="Path_28841" data-name="Path 28841" d="M561.074,208.544h-2.766l0,0v5.84l0,0h2.766l0,0a15.937,15.937,0,0,0,2.541,6.137v0l-1.957,1.956v0l4.131,4.131h0l1.957-1.956h0a15.916,15.916,0,0,0,6.138,2.542l0,0v2.769h5.84l0,0V227.2a15.9,15.9,0,0,0,6.138-2.542h0l1.956,1.956h0l4.131-4.131v0l-1.957-1.956v0a15.938,15.938,0,0,0,2.541-6.137l0,0h2.767v-5.844h-2.767l0,0a15.925,15.925,0,0,0-2.541-6.138v0l1.957-1.957v0l-4.131-4.13h0l-1.956,1.956h0a15.9,15.9,0,0,0-6.138-2.542v-2.769l0,0h-5.84v2.769l0,0a15.9,15.9,0,0,0-6.138,2.542h0l-1.957-1.956h0l-4.131,4.129v0l1.957,1.957v0a15.934,15.934,0,0,0-2.541,6.139Zm6.935-.038a9.162,9.162,0,0,1,8.8-6.3h0a9.292,9.292,0,0,1,8.8,12.232,9.163,9.163,0,0,1-8.8,6.294h0A9.293,9.293,0,0,1,568.009,208.506Zm8.932-1.621a4.847,4.847,0,1,1-4.846,4.846A4.846,4.846,0,0,1,576.941,206.885Z" transform="translate(-558.306 -192.956)" fill="#ffa70d"/>
          </g>
        </g>
        <g id="Group_9591" data-name="Group 9591" transform="translate(15.644 29.384)">
          <g id="Group_9590" data-name="Group 9590">
            <path id="Path_28842" data-name="Path 28842" d="M530.746,210.826h-2.054v4.337h2.056a11.834,11.834,0,0,0,1.887,4.556v0l-1.453,1.452v0l3.066,3.066h0l1.453-1.453h0a11.818,11.818,0,0,0,4.556,1.887h0v2.055H544.6v-2.055h0a11.812,11.812,0,0,0,4.556-1.887h0l1.453,1.453h0l3.066-3.066v0l-1.453-1.452v0a11.833,11.833,0,0,0,1.887-4.556h2.056v-4.337h-2.055a11.826,11.826,0,0,0-1.887-4.556h0l1.453-1.454v0l-3.066-3.065h0l-1.453,1.453h0a11.8,11.8,0,0,0-4.556-1.887v-2.058h-4.335v2.058A11.8,11.8,0,0,0,535.7,203.2h0l-1.453-1.453h0l-3.066,3.065v0l1.453,1.453h0a11.839,11.839,0,0,0-1.887,4.557Zm5.148-.028a6.8,6.8,0,0,1,6.535-4.678h0a6.9,6.9,0,0,1,6.531,9.08,6.8,6.8,0,0,1-6.531,4.671h0A6.9,6.9,0,0,1,535.894,210.8Zm6.63-1.2a3.6,3.6,0,1,1-3.6,3.6A3.6,3.6,0,0,1,542.524,209.6Z" transform="translate(-528.691 -199.255)" fill="#e2f0fe"/>
          </g>
        </g>
        <g id="Group_9593" data-name="Group 9593" transform="translate(23.196 55.282)">
          <g id="Group_9592" data-name="Group 9592">
            <path id="Path_28843" data-name="Path 28843" d="M539.136,244.624l-2.946.453,0,0,.958,6.22,0,0,2.946-.453h0a17.167,17.167,0,0,0,3.713,6.12v0l-1.764,2.4v0l5.077,3.723h0l1.763-2.405h0a17.152,17.152,0,0,0,6.953,1.7h0l.454,2.948,0,0,3.109-.478,3.111-.478,0,0-.453-2.947v0a17.14,17.14,0,0,0,6.12-3.713h0l2.405,1.764h0l3.722-5.076v0l-2.405-1.762v0a17.174,17.174,0,0,0,1.7-6.953h0l2.946-.453v0l-.957-6.22,0,0-2.946.453h0a17.16,17.16,0,0,0-3.713-6.12v0l1.764-2.4v0l-5.076-3.723h0l-1.764,2.4h0a17.136,17.136,0,0,0-6.953-1.7l0,0-.453-2.947,0,0-3.111.478-3.11.478v0l.453,2.947v0a17.121,17.121,0,0,0-6.12,3.713h0l-2.4-1.764h0l-3.723,5.075v0l2.4,1.764v0a17.159,17.159,0,0,0-1.7,6.955Zm7.381-1.177a9.872,9.872,0,0,1,8.344-8.155h0a10.012,10.012,0,0,1,11.375,11.586,9.874,9.874,0,0,1-8.341,8.144h0A10.013,10.013,0,0,1,546.517,243.447Zm9.246-3.189a5.222,5.222,0,1,1-4.367,5.955A5.223,5.223,0,0,1,555.763,240.258Z" transform="translate(-536.188 -224.965)" fill="#eb3981"/>
          </g>
        </g>
      </g>
      <g id="Group_9595" data-name="Group 9595" transform="translate(590.244 247.7)">
        <path id="Path_28844" data-name="Path 28844" d="M608.308,386.817c.5-.379,4.926-1.516,6.347-2.842a5.112,5.112,0,0,0,1.42-3.253L611.15,342.2l1.389-11.241,17.809,2.778s-1.263,8.211-1.263,8.842c.253-.38,5.708,4.237,7.073,8.335,1.581,4.747,6.857,19.4,8.837,23.166l2.421,4.344-5.566,4.108s-5.233,1.786-4.9,1.252,4.067-3.167,4.924-4.912a4.747,4.747,0,0,0,.34-2.828l-18.463-31.269-1.616-10.912h-2.905l-2.346,9.153s2.973,9.773,3.1,14.32-.752,23.007-.752,23.007l.758,5.179-6.662,1.863S607.8,387.2,608.308,386.817Z" transform="translate(-588.415 -246.381)" fill="#e89f8b"/>
        <path id="Path_28845" data-name="Path 28845" d="M648.5,380.515a26,26,0,0,0-1.068-3.344,6.155,6.155,0,0,0-1.52-1.765s-2.058,1.075-2.156,2.342c-.121,1.568-2.052,2.572-4.415,3.469-2.192.833-3.512,2.49-3.4,3.055s8.736-2.61,8.736-2.61l1.64-2.828.774,2.035Z" transform="translate(-588.213 -246.056)" fill="#231f20"/>
        <path id="Path_28846" data-name="Path 28846" d="M620.346,387.864a25.94,25.94,0,0,0,.189-3.505,6.142,6.142,0,0,0-.793-2.189s-2.307.273-2.848,1.423c-.67,1.423-2.832,1.675-5.36,1.675-2.345,0-4.167,1.08-4.262,1.648s9.094.664,9.094.664l2.537-2.061V387.7Z" transform="translate(-588.422 -246.007)" fill="#231f20"/>
        <path id="Path_28847" data-name="Path 28847" d="M623.179,257.936a11.513,11.513,0,0,1-1.768-6.568c.126-3.915,10.989-6.189,14.651-2.526s2.4,7.831,4.421,9.726,7.957,1.642,7.2,7.7-5.179,6.82-3.032,9.726,5.805,7.17,1.116,13.033-16.079-.671-16.079-.671l-2.214-27.644Z" transform="translate(-588.319 -246.994)" fill="#2d0d60"/>
        <path id="Path_28848" data-name="Path 28848" d="M630.966,261.995l1.642,5.557-5.052,1.01-.126-4.421Z" transform="translate(-588.275 -246.884)" fill="#e89f8b"/>
        <path id="Path_28849" data-name="Path 28849" d="M618.494,279.8a20.8,20.8,0,0,1-6.82,1.516,12.426,12.426,0,0,1-5.81-1.01v6.189s6.441,2.525,12.125-.759C619,285.484,618.494,279.8,618.494,279.8Z" transform="translate(-588.433 -246.754)" fill="#e89f8b"/>
        <path id="Path_28850" data-name="Path 28850" d="M630.123,259.279s1.768-1.389,2.4.253-1.516,2.526-1.516,2.526-2.4,4.547-7.2,4.547c-3.915-6.442-.883-13.262-.883-13.262s1.961,1.783,3.327,3.149C627.926,258.167,630.376,257.637,630.123,259.279Z" transform="translate(-588.316 -246.948)" fill="#f9c6b5"/>
        <path id="Path_28851" data-name="Path 28851" d="M620.1,273.827c1.432-1.77,7.7-6.189,7.7-6.189l4.927-.126s4.041,4.041,4.041,9.22-5.81,12.883-6.695,15.788a13.632,13.632,0,0,0-.632,5.053s4.8,11.493,4.674,17.556-2.905,19.7-2.905,19.7-14.651,1.516-20.588-1.389c.759-.126,4.8-32.839,5.81-36.123s1.01-12,1.01-14.02S615.806,279.132,620.1,273.827Z" transform="translate(-588.398 -246.844)" fill="#b6b9fe"/>
        <path id="Path_28852" data-name="Path 28852" d="M629.1,274.035c1.389-1.263,7.831-.253,4.041,6.316s-14.02,15.156-14.02,15.156a21.537,21.537,0,0,1-11.367,3.032,22.133,22.133,0,0,1-11.115-2.652,6.97,6.97,0,0,1-4.674.379c-2.9-.632-3.41-2.652-3.41-2.652l5.3.126s-1.515-2.021-.5-2.148,3.157,2.022,3.157,2.022,14.778-1.011,17.557-2.274S627.714,275.3,629.1,274.035Z" transform="translate(-588.559 -246.8)" fill="#f9c6b5"/>
        <path id="Path_28853" data-name="Path 28853" d="M619.485,305.036l6.365-2.177s2.847,7.871-1.341,9.044S619.485,305.036,619.485,305.036Z" transform="translate(-588.333 -246.586)" fill="#7278ff"/>
      </g>
      <g id="Group_9596" data-name="Group 9596" transform="translate(368.578 242.821)">
        <path id="Path_28854" data-name="Path 28854" d="M374.806,377.619l-2.461,6.644h4.922l1.969-4.922Z" transform="translate(-368.472 -241.161)" fill="#e89f8b"/>
        <path id="Path_28855" data-name="Path 28855" d="M416.687,382.138l.246,5.414,4.184-.246v-5.168Z" transform="translate(-368.148 -241.128)" fill="#e89f8b"/>
        <path id="Path_28856" data-name="Path 28856" d="M380.737,393.339l-11.812-8.121s.246-1.722,2.707-3.445c1.477-.738,5.66,2.461,5.66,2.461S382.706,388.417,380.737,393.339Z" transform="translate(-368.497 -241.132)" fill="#1f3155"/>
        <path id="Path_28857" data-name="Path 28857" d="M415.465,391.7s-.493-3.691,1.477-4.183,4.53-.358,7.875-.246c7.383.246,9.351,4.429,9.351,4.429Z" transform="translate(-368.157 -241.092)" fill="#1f3155"/>
        <path id="Path_28858" data-name="Path 28858" d="M388.568,313.666a25.868,25.868,0,0,0-2.812,10.649c0,5.413,2.952,22.886,2.952,22.886s-6.4,8.368-8.121,12.058-8,19.811-8,19.811l6.891,3.2L399.536,350.4l-.984-24.608h2.707L414.3,349.416a39.3,39.3,0,0,0-2.707,11.32c-.247,5.414,4.183,24.117,4.183,24.117l7.383-.492V347.94s-5.414-19.441-16.98-33.468C402.489,313.487,388.568,313.666,388.568,313.666Z" transform="translate(-368.47 -241.629)" fill="#3a55ca"/>
        <path id="Path_28859" data-name="Path 28859" d="M448.2,258.04l5.66-1.23.984,7.383-5.168.738Z" transform="translate(-367.918 -242.044)" fill="#e7357c"/>
        <path id="Path_28860" data-name="Path 28860" d="M425.726,260.814l1.723,7.383,4.184-.738,3.937,14.519,3.2-.492-2.953-15.012,16.98,4.184-3.2-23.133-14.519,10.582Z" transform="translate(-368.082 -242.112)" fill="#e7357c"/>
        <path id="Path_28861" data-name="Path 28861" d="M404.678,277.089s-15.011-1.477-20.672,2.214-7.874,7.137-7.874,7.137l5.906,6.4,4.183-2.953L387.7,314a28.374,28.374,0,0,0,17.964.738s1.1-6.436,3.938-10.829c2.708-4.183,2.461-10.336,3.446-13.781.984,1.23,5.66,4.429,5.66,4.429l5.167-6.644S413.784,277.826,404.678,277.089Z" transform="translate(-368.444 -241.898)" fill="#bedaff"/>
        <path id="Path_28862" data-name="Path 28862" d="M396.766,281.484l1.117-10.261,6.587,2.222-1,9.044S400.451,285.169,396.766,281.484Z" transform="translate(-368.294 -241.938)" fill="#e89f8b"/>
        <path id="Path_28863" data-name="Path 28863" d="M418.714,294.215s11.247,7.034,14.692,5.8.493-21.9.493-21.9l3.938-.738.493-6.4s-6.153,0-7.384,1.723-3.445,19.441-3.445,19.441l-4.183-4.183Z" transform="translate(-368.133 -241.94)" fill="#fcc4b7"/>
        <path id="Path_28864" data-name="Path 28864" d="M455.287,252.733l2.215-10.582,3.691,1.477Z" transform="translate(-367.866 -242.151)" fill="#e7357c"/>
        <path id="Path_28865" data-name="Path 28865" d="M457.241,266.093l5.168,9.105,2.707-1.477Z" transform="translate(-367.852 -241.976)" fill="#e7357c"/>
        <path id="Path_28866" data-name="Path 28866" d="M460.417,258.535l10.336-2.215.246,3.445Z" transform="translate(-367.829 -242.047)" fill="#e7357c"/>
        <path id="Path_28867" data-name="Path 28867" d="M406.286,262.491s3.938-4.676,1.969-7.628-10.09,1.476-13.781,3.445-2.953,9.105-.985,11.32,6.645,2.461,6.645,2.461Z" transform="translate(-368.329 -242.065)" fill="#b25e02"/>
        <path id="Path_28868" data-name="Path 28868" d="M397.891,271.321s-2.215-1.968-2.215-3.938,3.2-.738,3.2-.738,6.644-4.183,6.4-8.859c5.414,2.708,4.922,15.75,3.445,18.7-3.937.492-7.383-2.461-7.383-2.461Z" transform="translate(-368.301 -242.037)" fill="#fcc4b7"/>
        <path id="Path_28869" data-name="Path 28869" d="M382.094,292.768l-5.906-6.4s-7.688,13.762-7.688,17.447,3.015,14.739,3.015,14.739,1.34,5.359,5.359,5.359.335-6.7.335-6.7,1.675,2.344,3.015.67-4.355-4.02-4.355-4.02l-2.345-10.384Z" transform="translate(-368.5 -241.828)" fill="#fcc4b7"/>
      </g>
      <path id="Path_28870" data-name="Path 28870" d="M638.386,192.035a12.539,12.539,0,0,0-23.471,6.146c0,.212.021.417.031.626a6.839,6.839,0,0,0,.826,13.629h13.684a6.746,6.746,0,0,0,1.024-.086,10.128,10.128,0,0,0,1.256.086h5.131a10.256,10.256,0,0,0,1.518-20.4Z" transform="translate(1.834 0.258)" fill="#80acd9"/>
      <g id="Group_9605" data-name="Group 9605" transform="translate(399.952 194.467)">
        <path id="Path_28871" data-name="Path 28871" d="M467.171,194.147h-64.5a3.03,3.03,0,0,0-3.022,3.022v26.551a3.03,3.03,0,0,0,3.022,3.022h3.1v4.4l9.072-4.4h52.334a3.031,3.031,0,0,0,3.022-3.022V197.169A3.031,3.031,0,0,0,467.171,194.147Z" transform="translate(-399.647 -194.147)" fill="#58dfec"/>
        <g id="Group_9600" data-name="Group 9600" transform="translate(6.896 5.038)">
          <g id="Group_9599" data-name="Group 9599">
            <g id="Group_9598" data-name="Group 9598">
              <g id="Group_9597" data-name="Group 9597">
                <rect id="Rectangle_1865" data-name="Rectangle 1865" width="57.167" height="5.413" fill="#fff"/>
              </g>
            </g>
          </g>
        </g>
        <g id="Group_9604" data-name="Group 9604" transform="translate(6.896 15.757)">
          <g id="Group_9603" data-name="Group 9603">
            <g id="Group_9602" data-name="Group 9602">
              <g id="Group_9601" data-name="Group 9601">
                <rect id="Rectangle_1866" data-name="Rectangle 1866" width="57.167" height="5.413" fill="#fff"/>
              </g>
            </g>
          </g>
        </g>
      </g>
    </g>
  </g>
</svg>
