<svg xmlns="http://www.w3.org/2000/svg" xmlns:xlink="http://www.w3.org/1999/xlink" width="370" height="300" viewBox="0 0 370 300">
  <defs>
    <radialGradient id="radial-gradient" cx="0.5" cy="0.5" r="0.5" gradientUnits="objectBoundingBox">
      <stop offset="0" stop-color="#0094d6"/>
      <stop offset="1" stop-color="#002c9a"/>
    </radialGradient>
  </defs>
  <g id="Group_14520" data-name="Group 14520" transform="translate(-1175 -1216)">
    <g id="Group_8217" data-name="Group 8217">
      <path id="Rectangle_1462" data-name="Rectangle 1462" d="M10,0H360a10,10,0,0,1,10,10V300a0,0,0,0,1,0,0H0a0,0,0,0,1,0,0V10A10,10,0,0,1,10,0Z" transform="translate(1175 1216)" fill="url(#radial-gradient)"/>
    </g>
    <g id="Group_8424" data-name="Group 8424" transform="translate(1179.803 1188.95)">
      <path id="Path_27352" data-name="Path 27352" d="M298.623,133.562l-6.488.109-3.256-3.573-.625-5.745-3.327,1.819-1.792,7.023-4.809-5.124-.2-4.842-4.645-4-1.716-1.706h-5.39l1.707,4.8,6.482,3.618,1.125,1.2-1.4.7.053,3.806-3.153,1.32-2.7-.593-1.679-2.391,4.381.236,1.182-1.6-9.717-6.562-.738-2.794-3.948,3.573-4.007-.824-6.092,7.926-1.194,3.1-3.895.355-5.763.036-3.446-1.613-1.015-6.851,1.236-3.268,5.865-1.285,6.4,1.285.776-3.542-2.717-.643.93-5.516L251.488,111l4.5-6.365,4.653-.78,4.195.622h1.544l-.847-5.978-5.1,2.062-1.791-4.467-2.961-.414-.553-3.062,2.421-2.631,5.738-2.253,1.479-2.642a123.865,123.865,0,0,0-81.887-31.12c-.093,0-.187,0-.28,0a123.709,123.709,0,0,0-73.123,23.856l6.278-.05,2.8,1.549,5.269,1.138.411,2.072,8.381.311-1.136-2.69-7.446-.208,1.755-1.653-.613-1.971h-6.732l7.345-5.487h7.033l3.308,4.558,5.49.309,3.3-3.214,2.49,1.244-4.556,4.453s-6.309.106-6,.106.523,4.345.523,4.345l7.641-.211.836-2.066,5.268-.312.623-3.1-3.1-.523,1.036-2.793,2.377-.721,8.276.409-4.567,4.144.741,3.2,4.756.727-.312-5.8,4.55-2.383,8.074-.93,9.306,4.125,2.372,1.053v4.451l3.731.931-1.866,3.519h-5.274L180.279,90.4l-12.058-2.848L177.7,82.5l-3.615-3.073-8.175,1.035-.713.74-.026-.013-.133.177-2.351,2.446-3.884.328.312,1.942,1.352.56-.053.64-3.16.452-.231,1.837-3.029.16-.544-3.649-5.432,1.652-11.091,6.5,1.246,4.575,3.1,2.023,6.2.857v7.059l2.864-.463,2.644-5.513,6.594-2.093V92.213l3.667-2.771,8.872,2.093-.624,5.593h2.384l6.516-3.207.311,7.347,2.173,1.326,2.572,1.569-.2,4.356-2.372.808-2.173.74.306,1.44,1.866.85,3.613,1.648-.1,3-1.591.134c-.005-.05-.01-.082-.01-.082l-1.907-.587-5.011-1.546-.289-2.218h-.01l2.016-1.392v-2.023l-2.171-.545-.539,1.867-3.81.59-.381-.127v.191l-1.32.2-1.078-2.176-1.247-.545h-2.717l-1.235,1.01v2.25l2.326.775,2.292.322-.512.226-2.093,2.322-.925-1.161-2.018-.534-5.511,5.191.719.592-8.138,4.509-7.657,7.971-.518,3.548-7.676,5.045-3.8,3.83.417,7.658-5.278-2.459.043-4.479-14.68.006-7.6,3.853-3.308,6.09-1.306,4.831,2.14,4.683,5.987.731,9.516-6.371.834,3.157-2.906,5.493,7.251,1.237.717,11.2,9.935,1.685,6.3-7.3,7.656,1.558,2.689,3.744,7.34-.435.207-2.173,4.032,1.967,4.554,7.139,7.852.109,2.9,5.074.412,6.206,5.592,2.131,3.1,1.183,10.96.1,3.212,5.271L205,208.1l-.935,4.352-5.328,6.775-1.552,14.989-4.8,3.806-7.138-.215-2.372,4.125-.007.011.007.026,1.759,7.746-1.759,2.253-6,7.686-2.478,4.556-7.4,3.559-4.866.738-.2,2.067,3.413.98-.412,2.224-3.059,2.948,1.861,2.339,3.677.1-.207,2.844-.978,2.8-.317,2.276,5.442,4.586-.724,2.384-7.4-.14-7.371-6.439-5.744-10.1.8-9.751-4.343-5.8,1.76-9.83-2.586-.728V229.945s-7.239-5.495-7.65-5.495-3.825-.927-3.825-.927l-.73-4.037-9.4-11.8.93-4.244.306-6.937,6.51-4.554-.93-7.767-9.512-.716-7.446-8.495-5.274-1.443-3.407-.627.406-3.1-4.343-.62v1.759l-10.86-2.69-4.37-6.693,1.781-3.243-6.88-10.045-1.183-7.348H77.07L78,148.056l4.756,7.349-.518,2.9-4.031-.622-4.961-8.468v-9.854l-5.169-2.488v-7.09a123.924,123.924,0,0,0-9.939,48.751c0,68.688,55.833,124.573,124.458,124.573.093,0,.187-.005.28-.005a124.209,124.209,0,0,0,96.245-46.042h-4.107v-8.281l-4.745-6.4v-9.959l-3.63-3.615-.311-4.144,4.6-8.8-8.735-15.424,1.037-10.462-7.863-.819-2.891-2.9H247.2l-2.684,2.485H235.2l-.311.826h-5.173l-11.889-13.556.1-10.562,1.964-.722.73-4.04h-2.79l-1.141-4.242,13.76-9.935v-7.04l6.73-3.744L239.9,136h5.544l4.333-2.329,13.965-1.09v7.144l11.018,2.8,2.172,1.552h2.016v-3.887l6.359-.619,6.055,4.506h9.925l.7-.638Q300.509,138.408,298.623,133.562ZM239.852,98.108l1.143-1.755,4.085-.829,1.029,4.972,2.177,3.518,1.443,1.66,2.637,1.029-2.477,2.956-4.809.463h-3.62l.408-4.294,3.006-.624-.254-2.018-2.8-1.762-1.966-1.343Zm-6.721,7.769,2.49-3.985,3.348-.777,2.39,1.036-.216,2.689-5.115,3.623h-2.9ZM165.515,121.2l-2.588.218.137-1.8,1.162-1.446,1.554,1.221Zm9.089-3.183-1.77.154-.359,1.713-1.363.848-2.183.182c-.073-.512-.126-.9-.126-.9h-.845v-1.84h3.561l.741-1.9,1.415-.028,1.622.334Z" transform="translate(0 -1.458)" fill="#111581" opacity="0.3"/>
      <g id="Group_8389" data-name="Group 8389" transform="translate(218.654 133.037)">
        <g id="Group_8386" data-name="Group 8386" transform="translate(29.185)">
          <rect id="Rectangle_1661" data-name="Rectangle 1661" width="8.897" height="45.754" transform="translate(1.487 3.375)" fill="#2eccfc"/>
          <path id="Path_27353" data-name="Path 27353" d="M363.212,180.689l-6.551,4.01h13.1l-6.551-4.01-6.551,4.01h13.1Z" transform="translate(-356.66 -180.689)" fill="#2eccfc"/>
        </g>
        <g id="Group_8387" data-name="Group 8387" transform="translate(14.592 17.158)">
          <rect id="Rectangle_1662" data-name="Rectangle 1662" width="9.532" height="46.389" transform="translate(1.464 2.739)" fill="#2eccfc"/>
          <path id="Path_27354" data-name="Path 27354" d="M340.248,207.689,333.7,211.7h13.1l-6.551-4.01L333.7,211.7h13.1Z" transform="translate(-333.696 -207.689)" fill="#2eccfc"/>
        </g>
        <g id="Group_8388" data-name="Group 8388" transform="translate(0 13.345)">
          <rect id="Rectangle_1663" data-name="Rectangle 1663" width="8.897" height="45.118" transform="translate(2.076 3.375)" fill="#2eccfc"/>
          <path id="Path_27355" data-name="Path 27355" d="M317.284,201.689l-6.551,4.01h13.1l-6.552-4.01-6.551,4.01h13.1Z" transform="translate(-310.733 -201.689)" fill="#2eccfc"/>
        </g>
      </g>
      <text id="_" data-name="@" transform="translate(94.585 146.654) rotate(-1.188)" fill="#111581" font-size="30" font-family="Roboto-Regular, Roboto"><tspan x="-13.469" y="0">@</tspan></text>
      <g id="Group_8391" data-name="Group 8391" transform="translate(201.213 113.201)">
        <path id="Path_27356" data-name="Path 27356" d="M315.5,172.128l-22.841,10.367,8.368-23.648" transform="translate(-286.705 -152.891)" fill="none" stroke="#111581" stroke-miterlimit="10" stroke-width="4"/>
        <path id="Path_27357" data-name="Path 27357" d="M293.632,196.67a5.957,5.957,0,1,1-.362-8.417A5.957,5.957,0,0,1,293.632,196.67Z" transform="translate(-283.287 -163.039)" fill="aqua"/>
        <g id="Group_8390" data-name="Group 8390" transform="translate(8.368)">
          <path id="Path_27358" data-name="Path 27358" d="M306.8,159.458a5.957,5.957,0,1,1-.362-8.417A5.957,5.957,0,0,1,306.8,159.458Z" transform="translate(-296.456 -149.474)" fill="aqua"/>
          <path id="Path_27359" data-name="Path 27359" d="M329.578,180.357a5.957,5.957,0,1,1-.362-8.416A5.958,5.958,0,0,1,329.578,180.357Z" transform="translate(-304.758 -157.092)" fill="aqua"/>
        </g>
      </g>
      <g id="Group_8404" data-name="Group 8404" transform="translate(245.565 208.089)">
        <g id="Group_8395" data-name="Group 8395" transform="translate(7.671)">
          <g id="Group_8393" data-name="Group 8393">
            <g id="Group_8392" data-name="Group 8392">
              <path id="Path_27360" data-name="Path 27360" d="M387.343,299.06a19.255,19.255,0,0,1,2.2.5l-1.79,6.163a12.953,12.953,0,0,0-3.719-.512l-.062-6.419A19.287,19.287,0,0,1,387.343,299.06Zm8.982,4.073a19.244,19.244,0,0,1,3.781,4.171l-5.334,3.57a12.858,12.858,0,0,0-2.519-2.778Zm-19.84-2.727,2.581,5.878a12.725,12.725,0,0,0-3.175,2l-4.173-4.88A19.254,19.254,0,0,1,376.485,300.406Zm26.526,13.982a19.171,19.171,0,0,1,.223,5.63l-6.383-.693a12.642,12.642,0,0,0-.146-3.739Zm-36-4.948,5.659,2.836a12.8,12.8,0,0,0-1.245,3.549l-.022.126-6.244-.993.076-.168A19.232,19.232,0,0,1,367.007,309.44Zm28.3,14.741,5.6,3.132a19.114,19.114,0,0,1-3.444,4.459l-4.448-4.629A12.655,12.655,0,0,0,395.308,324.181Zm-23.5-3.118a12.759,12.759,0,0,0,1.438,3.459l-5.5,3.306a19.158,19.158,0,0,1-2.163-5.2Zm16.9,8.812,2.292,6a19.021,19.021,0,0,1-5.505,1.211l-.439-6.4A12.648,12.648,0,0,0,388.714,329.876Zm-12.022-1.594a12.613,12.613,0,0,0,3.316,1.727l-2.09,6.068a19.045,19.045,0,0,1-5-2.6Z" transform="translate(-365.154 -298.795)" fill="#e2f0fe"/>
            </g>
          </g>
          <g id="Group_8394" data-name="Group 8394" transform="translate(1.435 1.478)">
            <path id="Path_27361" data-name="Path 27361" d="M387.858,301.363a17.547,17.547,0,1,1-20.2,14.409A17.565,17.565,0,0,1,387.858,301.363Zm-4.991,29.815a12.683,12.683,0,1,0-10.414-14.6A12.7,12.7,0,0,0,382.867,331.178Z" transform="translate(-367.412 -301.12)" fill="#e2f0fe"/>
          </g>
        </g>
        <g id="Group_8399" data-name="Group 8399" transform="translate(0 35.721)">
          <g id="Group_8397" data-name="Group 8397">
            <g id="Group_8396" data-name="Group 8396">
              <path id="Path_27362" data-name="Path 27362" d="M367.091,355.176a12.555,12.555,0,0,1,1.4.318l-1.136,3.916a8.275,8.275,0,0,0-2.361-.326l-.039-4.076A12.4,12.4,0,0,1,367.091,355.176Zm5.7,2.588a12.191,12.191,0,0,1,2.4,2.647l-3.386,2.267a8.211,8.211,0,0,0-1.6-1.763Zm-12.6-1.732,1.639,3.732a8.179,8.179,0,0,0-2.016,1.266l-2.649-3.1A12.183,12.183,0,0,1,360.2,356.031Zm16.846,8.879a12.144,12.144,0,0,1,.14,3.575l-4.052-.44a8.077,8.077,0,0,0-.093-2.374Zm-22.864-3.142,3.674,1.814a8.1,8.1,0,0,0-.71,2.269l-.014.079-4.047-.644.007-.115A12.134,12.134,0,0,1,354.178,361.769Zm17.972,9.36,3.559,1.99a12.152,12.152,0,0,1-2.189,2.831l-2.824-2.938A8.086,8.086,0,0,0,372.15,371.129Zm-14.923-1.98a8.086,8.086,0,0,0,.916,2.2l-3.494,2.1a12.139,12.139,0,0,1-1.373-3.3Zm10.736,5.6,1.456,3.809a12.159,12.159,0,0,1-3.5.769l-.278-4.066A8.014,8.014,0,0,0,367.963,374.744Zm-7.635-1.01a8.028,8.028,0,0,0,2.107,1.095l-1.329,3.855a12.11,12.11,0,0,1-3.176-1.655Z" transform="translate(-353.082 -355.007)" fill="#e2f0fe"/>
            </g>
          </g>
          <g id="Group_8398" data-name="Group 8398" transform="translate(1.813 1.922)">
            <path id="Path_27363" data-name="Path 27363" d="M367.774,358.172a10.16,10.16,0,1,1-11.7,8.344A10.171,10.171,0,0,1,367.774,358.172Zm-2.889,17.264a7.344,7.344,0,1,0-6.031-8.456A7.353,7.353,0,0,0,364.885,375.436Z" transform="translate(-355.934 -358.031)" fill="#e2f0fe"/>
          </g>
        </g>
        <g id="Group_8403" data-name="Group 8403" transform="translate(27.1 39.748)">
          <g id="Group_8401" data-name="Group 8401">
            <g id="Group_8400" data-name="Group 8400">
              <path id="Path_27364" data-name="Path 27364" d="M405.808,361.467a8.921,8.921,0,0,1,1.012.229L406,364.528a5.952,5.952,0,0,0-1.709-.235l-.029-2.949A8.806,8.806,0,0,1,405.808,361.467Zm4.125,1.87a8.831,8.831,0,0,1,1.737,1.916l-2.45,1.64a5.957,5.957,0,0,0-1.157-1.276Zm-9.115-1.252,1.187,2.7a5.922,5.922,0,0,0-1.46.914l-1.916-2.239A8.838,8.838,0,0,1,400.818,362.085Zm12.188,6.423a8.761,8.761,0,0,1,.1,2.588l-2.931-.32a5.8,5.8,0,0,0-.067-1.717Zm-16.54-2.272,2.76,1.328a5.822,5.822,0,0,0-.411,1.658l-.01.058-3.029-.484-.048-.091A8.811,8.811,0,0,1,396.466,366.236Zm13,6.771,2.574,1.439a8.816,8.816,0,0,1-1.582,2.048l-2.043-2.126A5.817,5.817,0,0,0,409.466,373.007Zm-10.793-1.433a5.926,5.926,0,0,0,.66,1.589l-2.527,1.52a8.759,8.759,0,0,1-.991-2.389Zm7.765,4.049,1.053,2.755a8.72,8.72,0,0,1-2.53.556l-.2-2.94A5.806,5.806,0,0,0,406.438,375.622Zm-5.523-.732a5.873,5.873,0,0,0,1.523.794l-.96,2.787a8.744,8.744,0,0,1-2.3-1.2Z" transform="translate(-395.728 -361.344)" fill="#e2f0fe"/>
            </g>
          </g>
          <g id="Group_8402" data-name="Group 8402" transform="translate(1.118 1.252)">
            <path id="Path_27365" data-name="Path 27365" d="M406.214,363.418a7.487,7.487,0,1,1-8.622,6.148A7.494,7.494,0,0,1,406.214,363.418Zm-2.13,12.722a5.412,5.412,0,1,0-4.445-6.231A5.417,5.417,0,0,0,404.083,376.141Z" transform="translate(-397.488 -363.315)" fill="#e2f0fe"/>
          </g>
        </g>
      </g>
      <g id="Group_8408" data-name="Group 8408" transform="translate(73.05 146.966)">
        <g id="Group_8405" data-name="Group 8405" transform="translate(0 18.103)">
          <path id="Path_27366" data-name="Path 27366" d="M124.526,252.558A21.461,21.461,0,1,1,103.065,231.1,21.461,21.461,0,0,1,124.526,252.558Z" transform="translate(-81.605 -231.096)" fill="#fdc267"/>
          <path id="Path_27367" data-name="Path 27367" d="M122.3,255.56a16.227,16.227,0,1,1-16.227-16.227A16.226,16.226,0,0,1,122.3,255.56Z" transform="translate(-84.608 -234.099)" fill="#fc9a02"/>
        </g>
        <g id="Group_8406" data-name="Group 8406" transform="translate(37.759 6.346)">
          <circle id="Ellipse_491" data-name="Ellipse 491" cx="19.884" cy="19.884" r="19.884" transform="translate(0 0.603) rotate(-0.869)" fill="#fdc267"/>
          <path id="Path_27368" data-name="Path 27368" d="M179.194,235.732A15.034,15.034,0,1,1,164.161,220.7,15.034,15.034,0,0,1,179.194,235.732Z" transform="translate(-143.978 -215.55)" fill="#fc9a02"/>
          <path id="Path_29673" data-name="Path 29673" d="M-654-124.438c.034-.011.042-.046.059-.071q.4-.6.8-1.2a.124.124,0,0,1,.12-.062q2.469,0,4.938-.009l3.434,0h.077c.007.033-.017.051-.03.072-.254.4-.51.8-.762,1.2a.119.119,0,0,1-.117.065c-.719,0-1.439,0-2.159,0h-.1c0,.036.024.047.039.065a2.866,2.866,0,0,1,.639,1.05.821.821,0,0,1,.045.239c0,.059.021.071.077.07q1-.015,2.01-.026c.118,0,.237,0,.356,0,0,.028-.02.046-.033.067-.254.4-.51.792-.763,1.19a.116.116,0,0,1-.112.06c-.492.008-.984.019-1.476.027-.05,0-.084,0-.094.068a3.312,3.312,0,0,1-1.163,2.077,5.234,5.234,0,0,1-2.2,1.074,7.339,7.339,0,0,1-.849.158c-.022,0-.053-.006-.064.016s.019.045.033.064q.721.928,1.443,1.854l3.521,4.52.037.051h-.089q-1.027,0-2.054,0a.148.148,0,0,1-.132-.062q-2.316-2.918-4.634-5.834c-.1-.125-.2-.252-.3-.376a.155.155,0,0,1-.037-.111c.01-.373.019-.745.023-1.118,0-.074.025-.083.091-.078a9.943,9.943,0,0,0,1.988-.025,3.291,3.291,0,0,0,1.557-.565,2.529,2.529,0,0,0,.925-1.43c.023-.084.036-.171.061-.254.017-.056,0-.062-.052-.062q-.8,0-1.6-.007l-2.77-.015h-.591a.074.074,0,0,1,.019-.064c.249-.42.5-.839.747-1.261a.108.108,0,0,1,.11-.061q1.961.032,3.923.06c.017-.03-.008-.05-.019-.07a2.021,2.021,0,0,0-1.113-.943,5.108,5.108,0,0,0-1.4-.3,18.741,18.741,0,0,0-2.279-.033h-.1Z" transform="translate(670.075 137.37)" fill="#7e4d01"/>
        </g>
        <g id="Group_8407" data-name="Group 8407" transform="translate(22.829)">
          <path id="Path_27369" data-name="Path 27369" d="M147.454,217.571a14.962,14.962,0,1,1-14.962-14.962A14.962,14.962,0,0,1,147.454,217.571Z" transform="translate(-117.53 -202.609)" fill="#fdc267"/>
          <path id="Path_27370" data-name="Path 27370" d="M145.9,219.665a11.312,11.312,0,1,1-11.313-11.313A11.312,11.312,0,0,1,145.9,219.665Z" transform="translate(-119.624 -204.702)" fill="#fc9a02"/>
        </g>
      </g>
      <g id="Group_8411" data-name="Group 8411" transform="translate(247.877 169.316)">
        <g id="Group_8409" data-name="Group 8409" transform="translate(0 0)">
          <path id="Path_27371" data-name="Path 27371" d="M361.743,299.724a.677.677,0,0,1-.954-.074l-3.906-4.566a.676.676,0,0,1,.074-.954l22.642-19.37a.677.677,0,0,1,.954.075l3.907,4.566a.677.677,0,0,1-.075.954Z" transform="translate(-356.72 -251.201)" fill="#111581"/>
          <path id="Path_27372" data-name="Path 27372" d="M416.349,267.072a16.644,16.644,0,1,1,1.827-23.468A16.644,16.644,0,0,1,416.349,267.072Z" transform="translate(-368.446 -237.78)" fill="#f6feff" stroke="aqua" stroke-miterlimit="10" stroke-width="5"/>
        </g>
        <g id="Group_8410" data-name="Group 8410" transform="translate(29.058 12.141)" opacity="0.3">
          <line id="Line_418" data-name="Line 418" x2="9.718" y2="0.757" transform="translate(3.706)" fill="none" stroke="#333" stroke-miterlimit="10" stroke-width="3"/>
          <line id="Line_419" data-name="Line 419" x2="9.718" y2="0.756" transform="translate(3.437 8.898)" fill="none" stroke="#333" stroke-miterlimit="10" stroke-width="3"/>
          <line id="Line_420" data-name="Line 420" x2="15.942" y2="1.446" transform="translate(0 3.959)" fill="none" stroke="#333" stroke-miterlimit="10" stroke-width="3"/>
        </g>
      </g>
      <g id="Group_8413" data-name="Group 8413" transform="translate(162.074 49.968)">
        <path id="Path_27373" data-name="Path 27373" d="M230.82,129.015s-10.6,6.419-8.947,11.944,13.645,22.214,13.645,22.214L235.5,141.7Z" transform="translate(-221.697 -78.783)" fill="#111581"/>
        <path id="Path_27374" data-name="Path 27374" d="M268.653,129.015s10.378,6.419,8.72,11.944-13.645,22.214-13.645,22.214l.017-21.478Z" transform="translate(-237.019 -78.783)" fill="#111581"/>
        <path id="Path_27375" data-name="Path 27375" d="M252.323,123.494c3.86-6.814,7.047-19.537,7.047-34.12,0-21.763-13.507-39.406-13.507-39.406s-13.507,17.643-13.507,39.406c0,14.583,3.187,27.305,7.047,34.12Z" transform="translate(-225.583 -49.968)" fill="aqua"/>
        <path id="Path_27376" data-name="Path 27376" d="M257.51,67.117a74.66,74.66,0,0,0-9.146-17.149,74.688,74.688,0,0,0-9.146,17.149Z" transform="translate(-228.084 -49.968)" fill="#111581"/>
        <g id="Group_8412" data-name="Group 8412" transform="translate(14.311 77.186)">
          <path id="Path_27377" data-name="Path 27377" d="M256.071,182.579c0,6.154-5.927,12.207-5.927,12.207s-5.926-6.052-5.926-12.207,2.653-11.147,5.926-11.147S256.071,176.422,256.071,182.579Z" transform="translate(-244.218 -171.432)" fill="#002a98"/>
          <path id="Path_27378" data-name="Path 27378" d="M254.789,183.823c0,3.614-2.919,7.169-2.919,7.169s-2.919-3.555-2.919-7.169,1.307-6.544,2.919-6.544S254.789,180.209,254.789,183.823Z" transform="translate(-245.943 -173.563)" fill="#2eccfc"/>
        </g>
        <path id="Path_27379" data-name="Path 27379" d="M256.019,94.648A5.646,5.646,0,1,1,250.372,89,5.646,5.646,0,0,1,256.019,94.648Z" transform="translate(-230.092 -64.197)" fill="#fdfdfd"/>
      </g>
      <g id="Group_8415" data-name="Group 8415" transform="translate(119.373 116.363)">
        <g id="Group_8414" data-name="Group 8414">
          <path id="Path_27380" data-name="Path 27380" d="M173.18,191.613a18.865,18.865,0,0,1-2.2-.129l.731-6.224a12.681,12.681,0,0,0,3.663-.106l1.095,6.17A18.856,18.856,0,0,1,173.18,191.613Zm-9.306-2.476a18.76,18.76,0,0,1-4.312-3.4l4.56-4.3a12.459,12.459,0,0,0,2.874,2.269Zm19.544-.572-3.432-5.243a12.55,12.55,0,0,0,2.737-2.433l4.8,4.024A18.736,18.736,0,0,1,183.417,188.565Zm-27.8-9.186a18.629,18.629,0,0,1-1.122-5.386l6.257-.36a12.34,12.34,0,0,0,.744,3.576Zm35.465-1.039-5.515-1.818a13.158,13.158,0,0,0,1.019-3.62v-.124l5.782-.051-.241.175A19.025,19.025,0,0,1,191.087,178.34Zm-29.627-9.632-5.9-2.113a18.679,18.679,0,0,1,2.6-4.848l5.029,3.739A12.42,12.42,0,0,0,161.46,168.707Zm23.128-.785a12.466,12.466,0,0,0-1.943-3.1l4.765-4.071a18.722,18.722,0,0,1,2.919,4.659Zm-17.7-5.76-3.174-5.4a18.594,18.594,0,0,1,5.106-2.056l1.455,6.1A12.358,12.358,0,0,0,166.891,162.162Zm11.834-.4a12.332,12.332,0,0,0-3.472-1.129l1.035-6.18a18.577,18.577,0,0,1,5.234,1.7Z" transform="translate(-154.5 -154.45)" fill="#111581"/>
        </g>
        <text id="_2" data-name="?" transform="translate(18.824 25.687)" fill="aqua" font-size="21" font-family="Raleway-Regular, Raleway"><tspan x="-4.998" y="0">?</tspan></text>
      </g>
      <g id="Group_8417" data-name="Group 8417" transform="translate(147.992 136.901)">
        <path id="Path_27381" data-name="Path 27381" d="M260.935,221.213a12.357,12.357,0,0,0-7.991-17.493,12.361,12.361,0,0,0-16.964-9.977,12.363,12.363,0,0,0-22.691,9.761,12.575,12.575,0,0,0-1.392-.079,12.362,12.362,0,0,0-11.105,17.787Z" transform="translate(-199.537 -186.769)" fill="#111581"/>
        <g id="Group_8416" data-name="Group 8416" transform="translate(25.383 14.891)">
          <rect id="Rectangle_1664" data-name="Rectangle 1664" width="5.411" height="9.698" transform="translate(3.26 9.855)" fill="aqua"/>
          <path id="Path_27382" data-name="Path 27382" d="M245.447,210.2l-5.966,10.333h11.931L245.447,210.2l-5.966,10.333h11.931Z" transform="translate(-239.48 -210.202)" fill="aqua"/>
        </g>
      </g>
      <g id="Group_8419" data-name="Group 8419" transform="translate(58.515 209.548)">
        <g id="Group_8418" data-name="Group 8418" transform="translate(8.639)">
          <path id="Path_27383" data-name="Path 27383" d="M124.753,327.3A26.213,26.213,0,1,1,98.54,301.09,26.214,26.214,0,0,1,124.753,327.3Z" transform="translate(-72.326 -301.09)" fill="aqua"/>
          <path id="Path_27384" data-name="Path 27384" d="M122.448,330.4A20.808,20.808,0,1,1,101.64,309.6,20.808,20.808,0,0,1,122.448,330.4Z" transform="translate(-75.427 -304.191)" fill="#f6feff"/>
          <circle id="Ellipse_492" data-name="Ellipse 492" cx="14.863" cy="14.863" r="14.863" transform="translate(5.216 27.177) rotate(-47.628)" fill="aqua"/>
          <path id="Path_27385" data-name="Path 27385" d="M117.752,336.721a9.8,9.8,0,1,1-9.8-9.8A9.8,9.8,0,0,1,117.752,336.721Z" transform="translate(-81.744 -310.508)" fill="#fffffc"/>
          <path id="Path_27386" data-name="Path 27386" d="M114.6,340.965a2.4,2.4,0,1,1-2.4-2.4A2.4,2.4,0,0,1,114.6,340.965Z" transform="translate(-85.988 -314.752)" fill="aqua"/>
        </g>
        <path id="Path_29666" data-name="Path 29666" d="M27.338,13.794,0,0" transform="translate(5.397 11.35)" fill="none" stroke="#111581" stroke-linecap="round" stroke-width="2"/>
        <path id="Path_27387" data-name="Path 27387" d="M107.614,335.092l4.235,5.331-6.751-.168Z" transform="translate(-75.634 -313.485)" fill="#111581"/>
        <path id="Path_27388" data-name="Path 27388" d="M66.346,313.4,69,318.736l-5.838.783Z" transform="translate(-60.345 -305.579)" fill="#111581"/>
        <path id="Path_27389" data-name="Path 27389" d="M62.336,310.1l3,6.163-6.6.9Z" transform="translate(-58.731 -304.375)" fill="#111581"/>
      </g>
      <g id="Group_8423" data-name="Group 8423" transform="translate(99.199 170.316)">
        <g id="Group_8421" data-name="Group 8421" transform="translate(0 0)">
          <g id="Group_8420" data-name="Group 8420">
            <path id="Path_27390" data-name="Path 27390" d="M261.1,435.49H219.384l2.386-17.949h37.282Z" transform="translate(-157.979 -304.308)" fill="#83a7fd"/>
            <path id="Path_27391" data-name="Path 27391" d="M122.754,393.887V404.97a4.1,4.1,0,0,0,4.092,4.092H283.188a4.1,4.1,0,0,0,4.09-4.092V393.887Z" transform="translate(-122.754 -295.686)" fill="#475de6"/>
            <path id="Path_27392" data-name="Path 27392" d="M287.278,243.444a4.1,4.1,0,0,0-4.09-4.091H126.846a4.1,4.1,0,0,0-4.092,4.091v94.11H287.278Z" transform="translate(-122.754 -239.353)" fill="#6275f1"/>
            <rect id="Rectangle_1665" data-name="Rectangle 1665" width="152.932" height="87.291" transform="translate(5.796 5.455)" fill="#fdfdfd"/>
            <path id="Path_27393" data-name="Path 27393" d="M215.174,445.786h41.715l7.336,1.735-56.389.042Z" transform="translate(-153.769 -314.604)" fill="#475de6"/>
            <path id="Path_27394" data-name="Path 27394" d="M263.85,449.479H208.227l-.369-.922,56.375-.042Z" transform="translate(-153.777 -315.599)" fill="#111581"/>
            <path id="Path_27395" data-name="Path 27395" d="M253.453,404.907a2.927,2.927,0,1,1-2.928-2.928A2.927,2.927,0,0,1,253.453,404.907Z" transform="translate(-168.264 -298.635)" fill="#83a7fd"/>
          </g>
          <text id="SEM" transform="translate(20.182 64.282)" fill="#475de6" font-size="53" font-family="Raleway-Black, Raleway" font-weight="800" letter-spacing="0.12em"><tspan x="0" y="0">SEM</tspan></text>
        </g>
        <g id="Group_8422" data-name="Group 8422" transform="translate(41.462 76.032)">
          <path id="Rectangle_1666" data-name="Rectangle 1666" d="M2.541,0H78.8A2.542,2.542,0,0,1,81.34,2.542v0A2.542,2.542,0,0,1,78.8,5.084H2.542A2.542,2.542,0,0,1,0,2.542v0A2.541,2.541,0,0,1,2.541,0Z" fill="#111581"/>
          <path id="Path_27396" data-name="Path 27396" d="M303.913,359.352H288.781v4.864h15.132a2.432,2.432,0,1,0,0-4.864Z" transform="translate(-224.738 -359.128)" fill="#475de6"/>
        </g>
      </g>
    </g>
  </g>
</svg>
