<svg xmlns="http://www.w3.org/2000/svg" xmlns:xlink="http://www.w3.org/1999/xlink" width="370" height="300" viewBox="0 0 370 300">
  <defs>
    <radialGradient id="radial-gradient" cx="0.5" cy="0.5" r="0.5" gradientUnits="objectBoundingBox">
      <stop offset="0" stop-color="#0094d6"/>
      <stop offset="1" stop-color="#002c9a"/>
    </radialGradient>
    <linearGradient id="linear-gradient" x1="0.773" y1="0.799" x2="1.896" y2="0.331" gradientUnits="objectBoundingBox">
      <stop offset="0" stop-color="#00dfff"/>
      <stop offset="0.652" stop-color="#00baff"/>
      <stop offset="1" stop-color="#00acff"/>
    </linearGradient>
    <linearGradient id="linear-gradient-2" x1="0.662" y1="1.027" x2="0.319" y2="-0.091" gradientUnits="objectBoundingBox">
      <stop offset="0" stop-color="#59bdef"/>
      <stop offset="1" stop-color="#7bdaff"/>
    </linearGradient>
    <linearGradient id="linear-gradient-3" x1="4.293" y1="-15.604" x2="5.434" y2="-15.604" gradientUnits="objectBoundingBox">
      <stop offset="0" stop-color="#7bdaff"/>
      <stop offset="1" stop-color="#59bdef"/>
    </linearGradient>
    <linearGradient id="linear-gradient-4" x1="0.125" y1="0.221" x2="0.831" y2="0.746" gradientUnits="objectBoundingBox">
      <stop offset="0" stop-color="#3a9bd5"/>
      <stop offset="1" stop-color="#2573ba"/>
    </linearGradient>
  </defs>
  <g id="Group_14533" data-name="Group 14533" transform="translate(-775 -3676)">
    <g id="Group_8207" data-name="Group 8207" transform="translate(0 2460)">
      <path id="Rectangle_646" data-name="Rectangle 646" d="M10,0H360a10,10,0,0,1,10,10V300a0,0,0,0,1,0,0H0a0,0,0,0,1,0,0V10A10,10,0,0,1,10,0Z" transform="translate(775 1216)" fill="url(#radial-gradient)"/>
    </g>
    <g id="Group_10931" data-name="Group 10931" transform="translate(661.483 3575.951)">
      <g id="Group_10926" data-name="Group 10926" transform="translate(167.979 122.508)">
        <g id="Group_10922" data-name="Group 10922" transform="translate(0 7.32)">
          <path id="Path_30633" data-name="Path 30633" d="M415.527,211.678,273.017,129.4a2.694,2.694,0,0,0-2.7-.2l-3.061,1.775,1.8.743-18.749,99.844a5.333,5.333,0,0,0,2.561,5.152l142.3,82.159-.244,2.144,3.042-1.768h-.006a2.307,2.307,0,0,0,1.218-1.734l18.906-100.684A5.334,5.334,0,0,0,415.527,211.678Z" transform="translate(-156.413 -128.925)" fill="#3032bd"/>
          <path id="Path_30634" data-name="Path 30634" d="M404.211,308.056l-7.193,3.561L260.843,233a6.933,6.933,0,0,0-6.237.258l-79.08,45.658-7.493-4.086,2.684,8.562h0a2.118,2.118,0,0,0,.989,1.071l139.738,80.678a6.934,6.934,0,0,0,6.237-.259l82.451-47.6a2.994,2.994,0,0,0,1.446-1.561h0Z" transform="translate(-167.971 -114.381)" fill="#3032bd"/>
          <path id="Path_30635" data-name="Path 30635" d="M415.527,211.678l-1.767-1.02L273.017,129.4a2.694,2.694,0,0,0-2.7-.2l-3.061,1.775,1.8.743-18.749,99.844a5.333,5.333,0,0,0,2.561,5.152l71.569,41.32,92.88-64.578A5.266,5.266,0,0,0,415.527,211.678Z" transform="translate(-156.413 -128.925)" fill="#111581"/>
          <path id="Path_30636" data-name="Path 30636" d="M392.622,320.586l-142.51-82.278a5.335,5.335,0,0,1-2.56-5.152l18.906-100.684c.343-1.831,2.046-2.493,3.8-1.478l142.509,82.278a5.334,5.334,0,0,1,2.561,5.152L396.426,319.108C396.083,320.939,394.38,321.6,392.622,320.586Z" transform="translate(-156.8 -128.701)" fill="#6275f1"/>
          <path id="Path_30637" data-name="Path 30637" d="M391.587,316.395,251.432,235.477a1.878,1.878,0,0,1-.9-1.815l18.58-98.943a.826.826,0,0,1,1.34-.52l140.155,80.918a1.878,1.878,0,0,1,.9,1.815l-18.58,98.943A.826.826,0,0,1,391.587,316.395Z" transform="translate(-156.376 -128.207)" fill="url(#linear-gradient)"/>
          <path id="Path_30638" data-name="Path 30638" d="M312.035,359.726,169.083,277.193c-1.636-.944-1.43-2.594.458-3.684l84.347-48.7a7.091,7.091,0,0,1,6.381-.265L403.221,307.08c1.636.944,1.43,2.594-.458,3.683l-84.347,48.7A7.094,7.094,0,0,1,312.035,359.726Z" transform="translate(-167.979 -115.571)" fill="url(#linear-gradient-2)"/>
          <path id="Path_30639" data-name="Path 30639" d="M312.035,359.726,169.083,277.193c-1.636-.944-1.43-2.594.458-3.684l84.347-48.7a7.091,7.091,0,0,1,6.381-.265L403.221,307.08c1.636.944,1.43,2.594-.458,3.683l-84.347,48.7A7.094,7.094,0,0,1,312.035,359.726Z" transform="translate(-167.979 -115.571)" fill="#83a7fd"/>
          <path id="Path_30640" data-name="Path 30640" d="M169.541,275.006l84.347-48.7a7.089,7.089,0,0,1,6.379-.265L403.22,308.578a2.348,2.348,0,0,1,.907.867,1.717,1.717,0,0,0-.907-2.364L260.267,224.547a7.088,7.088,0,0,0-6.379.265l-84.347,48.7c-1.393.8-1.867,1.912-1.365,2.817A3.356,3.356,0,0,1,169.541,275.006Z" transform="translate(-167.979 -115.571)" fill="#a9ebff"/>
          <path id="Path_30671" data-name="Path 30671" d="M274.727,320.652,160,254.629c-1.1-.637-.964-1.748.309-2.483l56.845-32.82a4.779,4.779,0,0,1,4.3-.178L336.18,285.171c1.1.637.964,1.748-.309,2.482l-56.845,32.82A4.781,4.781,0,0,1,274.727,320.652Z" transform="translate(-129.448 -93.325)" fill="#3032bd"/>
        </g>
        <path id="Path_30641" data-name="Path 30641" d="M318.407,222.707l6.82-36.091-6.221-1.176L309.5,235.746a17.964,17.964,0,0,1-8.677,12.232L254.013,275l3.165,5.483,42.148-24.333,23.327,12.168s14.168-13.038,14.244-13.339,2.939-21.63,2.939-21.63Z" transform="translate(-155.883 -113.66)" fill="#73a1d4"/>
        <g id="Group_10923" data-name="Group 10923" transform="translate(122.972 86.109)">
          <path id="Path_30642" data-name="Path 30642" d="M278.958,293.047l-3.165-5.483,46.81-27.025a17.958,17.958,0,0,0,8.676-12.232l9.507-50.3,6.221,1.175L337.5,249.484a24.287,24.287,0,0,1-11.732,16.539Z" transform="translate(-275.793 -198.003)" fill="#e2f0fe"/>
        </g>
        <g id="Group_10925" data-name="Group 10925" transform="translate(117.724)">
          <path id="Path_30643" data-name="Path 30643" d="M397.241,183.846h0c-.026-.065-.052-.13-.08-.194-.018-.047-.038-.092-.057-.139s-.04-.1-.062-.143a8.265,8.265,0,0,0-3.269-4.013l-.4-.229h0L345.109,151.25l-48.266-27.877h0l-.4-.229a3.97,3.97,0,0,0-3.993-.181c-.032.015-.063.033-.1.049s-.064.034-.095.054l-6.372,3.674,3.674,1.559-12.746,67.581a9.563,9.563,0,0,0,.692,5.4c.019.049.04.1.059.146s.039.091.059.136a8.263,8.263,0,0,0,3.27,4.014l96.267,55.6-.886,4.24,6.036-3.5c.031-.018.063-.034.094-.052a4.959,4.959,0,0,0,2.394-3.616l13.052-69.2A9.492,9.492,0,0,0,397.241,183.846Z" transform="translate(-270.42 -122.508)" fill="#fff"/>
          <g id="Group_10924" data-name="Group 10924" transform="translate(0 3.618)">
            <path id="Path_30644" data-name="Path 30644" d="M372.73,264.961,275.4,208.747c-2.944-1.7-4.729-6.26-3.989-10.185L284.28,130.35c.74-3.926,3.726-5.73,6.669-4.031l97.328,56.214c2.944,1.7,4.729,6.26,3.989,10.186L379.4,260.932C378.659,264.856,375.673,266.661,372.73,264.961Z" transform="translate(-271.185 -125.679)" fill="url(#linear-gradient-3)"/>
            <path id="Path_30645" data-name="Path 30645" d="M381.317,178.759,333.05,150.882l-15.124,80.187,47.843,30.12c3.163,1.826,6.286.346,6.975-3.308l13.052-69.2A10.069,10.069,0,0,0,381.317,178.759Z" transform="translate(-264.622 -122.136)" fill="#83a7fd"/>
            <path id="Path_30646" data-name="Path 30646" d="M291.354,126.537l48.266,27.877L324.591,234.1l-48.784-25.132a10.069,10.069,0,0,1-4.479-9.923l13.052-69.2C285.068,126.192,288.191,124.711,291.354,126.537Z" transform="translate(-271.192 -125.669)" fill="#83a7fd"/>
            <path id="Path_30647" data-name="Path 30647" d="M271.849,196.912a9.518,9.518,0,0,0,3.865,4.719l96.533,55.754a4.591,4.591,0,0,0,4.712.235l-43.251-79.685Z" transform="translate(-271.1 -118.333)" fill="#475de6"/>
            <path id="Path_30648" data-name="Path 30648" d="M389.848,187.01a9.518,9.518,0,0,0-3.866-4.719L289.45,126.537a4.591,4.591,0,0,0-4.712-.235l43.251,79.685Z" transform="translate(-269.288 -125.668)" fill="#83a7fd"/>
          </g>
        </g>
      </g>
      <path id="Path_30649" data-name="Path 30649" d="M280.535,316.687,233.2,289.36l47.331-27.327,47.333,27.328Z" transform="translate(9.17 19.616)" fill="url(#linear-gradient-4)"/>
      <g id="Group_10930" data-name="Group 10930" transform="translate(242.372 225.409)">
        <path id="Path_30650" data-name="Path 30650" d="M280.535,304.719,233.2,277.391V256.4l47.333,27.327Z" transform="translate(-233.202 -206.584)" fill="#3032bd"/>
        <path id="Path_30651" data-name="Path 30651" d="M280.535,287.1,233.2,259.769l47.331-27.327,47.333,27.327Z" transform="translate(-233.202 -209.953)" fill="#475de6"/>
        <path id="Path_30652" data-name="Path 30652" d="M280.535,282.742l-46.422-26.8-.91.526,47.333,27.328,47.331-27.327-.91-.525Z" transform="translate(-233.202 -206.649)" fill="#83a7fd"/>
        <path id="Path_30653" data-name="Path 30653" d="M278.788,241.607,245.62,260.759l33.169,19.15,33.169-19.15Z" transform="translate(-231.457 -208.664)" fill="#e2f0fe"/>
        <path id="Path_30654" data-name="Path 30654" d="M279.274,242.169l33.171,19.151,3.944-2.277-37.115-21.428-37.114,21.428,3.944,2.277Z" transform="translate(-231.943 -209.226)" fill="#111581"/>
        <path id="Path_30655" data-name="Path 30655" d="M322.033,277.391,274.7,304.719v-20.99L322.033,256.4Z" transform="translate(-227.368 -206.584)" fill="#111581"/>
        <g id="Group_10927" data-name="Group 10927">
          <path id="Path_30656" data-name="Path 30656" d="M280.535,272.574,233.2,245.246v-8.563l47.333,27.328Z" transform="translate(-233.202 -209.356)" fill="#3032bd"/>
          <path id="Path_30657" data-name="Path 30657" d="M280.535,267.379,233.2,240.052l47.331-27.327,47.333,27.328Z" transform="translate(-233.202 -212.725)" fill="#475de6"/>
          <path id="Path_30658" data-name="Path 30658" d="M280.535,263.024l-46.422-26.8-.91.525,47.333,27.328,47.331-27.327-.91-.525Z" transform="translate(-233.202 -209.421)" fill="#83a7fd"/>
          <path id="Path_30659" data-name="Path 30659" d="M322.033,245.246,274.7,272.574v-8.563l47.333-27.328Z" transform="translate(-227.368 -209.356)" fill="#111581"/>
        </g>
        <path id="Path_30660" data-name="Path 30660" d="M233.2,274.8v12.76l47.333,27.327v-12.76Z" transform="translate(-233.202 -203.997)" fill="#e2f0fe" opacity="0.5"/>
        <path id="Path_30661" data-name="Path 30661" d="M322.033,274.8v12.761L274.7,314.892v-12.76Z" transform="translate(-227.368 -203.997)" fill="#fff" opacity="0.5"/>
        <path id="Path_30662" data-name="Path 30662" d="M322.033,274.8v12.761L274.7,314.892v-12.76Z" transform="translate(-227.368 -203.997)" fill="#e2f0fe" opacity="0.5"/>
        <g id="Group_10928" data-name="Group 10928" transform="translate(57.721 63.487)">
          <path id="Path_30663" data-name="Path 30663" d="M287.031,288.978l20.109-11.61a7.719,7.719,0,0,0,3.223-6.159h0c0-2.374-1.443-3.464-3.223-2.436l-20.109,11.61a7.717,7.717,0,0,0-3.223,6.158h0C283.808,288.914,285.251,290.006,287.031,288.978Z" transform="translate(-283.808 -268.386)" fill="#e2f0fe"/>
          <path id="Path_30664" data-name="Path 30664" d="M303.711,275.182a7.717,7.717,0,0,0,3.223-6.158c0-.044,0-.086,0-.13l.21-.121c1.78-1.028,3.223.063,3.223,2.436h0a7.719,7.719,0,0,1-3.223,6.159l-20.109,11.61c-1.746,1.008-3.165-.026-3.219-2.307Z" transform="translate(-283.807 -268.386)" fill="#6275f1"/>
        </g>
        <g id="Group_10929" data-name="Group 10929" transform="translate(13.107 65.793)">
          <path id="Path_30665" data-name="Path 30665" d="M260.219,281.439a5.98,5.98,0,0,0,2.705,4.686c1.494.863,2.706.163,2.706-1.561a5.98,5.98,0,0,0-2.706-4.687C261.43,279.014,260.219,279.713,260.219,281.439Z" transform="translate(-240.511 -268.129)" fill="#e2f0fe"/>
          <path id="Path_30666" data-name="Path 30666" d="M251.579,276.451a5.98,5.98,0,0,0,2.706,4.686c1.494.862,2.707.163,2.707-1.561a5.983,5.983,0,0,0-2.707-4.687C252.79,274.026,251.579,274.725,251.579,276.451Z" transform="translate(-241.725 -268.83)" fill="#e2f0fe"/>
          <path id="Path_30667" data-name="Path 30667" d="M242.94,271.463a5.98,5.98,0,0,0,2.705,4.686c1.494.863,2.706.163,2.706-1.561a5.98,5.98,0,0,0-2.706-4.687C244.151,269.038,242.94,269.737,242.94,271.463Z" transform="translate(-242.94 -269.531)" fill="#e2f0fe"/>
          <path id="Path_30668" data-name="Path 30668" d="M261.59,279.525a2.6,2.6,0,0,0-.2,1.064,5.982,5.982,0,0,0,2.705,4.687,2.288,2.288,0,0,0,1.335.348c-.4.907-1.371,1.152-2.5.5a5.98,5.98,0,0,1-2.705-4.686C260.219,280.274,260.774,279.593,261.59,279.525Z" transform="translate(-240.511 -268.126)" fill="#6275f1"/>
          <path id="Path_30669" data-name="Path 30669" d="M252.95,274.537a2.615,2.615,0,0,0-.2,1.064,5.982,5.982,0,0,0,2.705,4.687,2.3,2.3,0,0,0,1.335.349c-.4.906-1.37,1.151-2.5.5a5.98,5.98,0,0,1-2.706-4.687C251.579,275.286,252.136,274.6,252.95,274.537Z" transform="translate(-241.725 -268.828)" fill="#6275f1"/>
          <path id="Path_30670" data-name="Path 30670" d="M244.311,269.549a2.6,2.6,0,0,0-.2,1.064,5.982,5.982,0,0,0,2.705,4.687,2.288,2.288,0,0,0,1.335.348c-.4.907-1.371,1.152-2.5.5a5.98,5.98,0,0,1-2.705-4.686C242.94,270.3,243.5,269.616,244.311,269.549Z" transform="translate(-242.94 -269.529)" fill="#6275f1"/>
        </g>
      </g>
    </g>
  </g>
</svg>
