<svg xmlns="http://www.w3.org/2000/svg" xmlns:xlink="http://www.w3.org/1999/xlink" width="370" height="300" viewBox="0 0 370 300">
  <defs>
    <radialGradient id="radial-gradient" cx="0.5" cy="0.5" r="0.5" gradientUnits="objectBoundingBox">
      <stop offset="0" stop-color="#0094d6"/>
      <stop offset="1" stop-color="#002c9a"/>
    </radialGradient>
    <clipPath id="clip-path">
      <circle id="Ellipse_533" data-name="Ellipse 533" cx="61.477" cy="61.477" r="61.477" transform="matrix(0.163, -0.987, 0.987, 0.163, 0, 121.307)" fill="none"/>
    </clipPath>
    <clipPath id="clip-path-2">
      <path id="Path_29675" data-name="Path 29675" d="M.016,10.551,1.5,0l5.985,1.58L6,12.132Z" fill="#ffff3f"/>
    </clipPath>
  </defs>
  <g id="Group_14536" data-name="Group 14536" transform="translate(-775 -4291)">
    <g id="Group_8207" data-name="Group 8207" transform="translate(0 3075)">
      <path id="Rectangle_646" data-name="Rectangle 646" d="M10,0H360a10,10,0,0,1,10,10V300a0,0,0,0,1,0,0H0a0,0,0,0,1,0,0V10A10,10,0,0,1,10,0Z" transform="translate(775 1216)" fill="url(#radial-gradient)"/>
    </g>
    <g id="Group_10972" data-name="Group 10972" transform="translate(222.78 4186.669)">
      <ellipse id="Ellipse_528" data-name="Ellipse 528" cx="11.845" cy="20.517" rx="11.845" ry="20.517" transform="translate(782.966 285.418) rotate(-89.689)" fill="#002a98" opacity="0.5"/>
      <ellipse id="Ellipse_529" data-name="Ellipse 529" cx="11.845" cy="20.517" rx="11.845" ry="20.517" transform="matrix(0.005, -1, 1, 0.005, 665.86, 372.588)" fill="#002a98" opacity="0.5"/>
      <ellipse id="Ellipse_530" data-name="Ellipse 530" cx="15.158" cy="26.256" rx="15.158" ry="26.256" transform="translate(750.258 378.008) rotate(-89.689)" fill="#002a98" opacity="0.5"/>
      <ellipse id="Ellipse_531" data-name="Ellipse 531" cx="13.099" cy="22.689" rx="13.099" ry="22.689" transform="translate(644.146 306.316) rotate(-89.689)" fill="#002a98" opacity="0.5"/>
      <g id="Group_10971" data-name="Group 10971" transform="translate(615.296 127.96)">
        <path id="Path_30672" data-name="Path 30672" d="M719.223,181.138l-29.931-17.281a4.694,4.694,0,0,1-2.346-4.064V130.325a2.361,2.361,0,0,1,3.541-2.045l29.932,17.281a4.7,4.7,0,0,1,2.345,4.064v29.469A2.361,2.361,0,0,1,719.223,181.138Z" transform="translate(-609.613 -127.96)" fill="#5c8fd8" fill-rule="evenodd"/>
        <path id="Path_30673" data-name="Path 30673" d="M680.058,173.648l-13.869-8.009a2.171,2.171,0,0,1-1.088-1.882V150.1a1.1,1.1,0,0,1,1.642-.948l13.869,8.007a2.175,2.175,0,0,1,1.087,1.883V172.7A1.094,1.094,0,0,1,680.058,173.648Z" transform="translate(-611.346 -126.291)" fill="#5c8fd8" fill-rule="evenodd"/>
        <path id="Path_30674" data-name="Path 30674" d="M814.027,254.45l-21.66-12.5a3.4,3.4,0,0,1-1.7-2.94V217.679a1.708,1.708,0,0,1,2.562-1.479l21.66,12.5a3.4,3.4,0,0,1,1.7,2.94V252.97A1.709,1.709,0,0,1,814.027,254.45Z" transform="translate(-601.386 -120.98)" fill="#5c8fd8" fill-rule="evenodd"/>
        <path id="Path_30675" data-name="Path 30675" d="M788.443,194.542l29.22-16.87a4.579,4.579,0,0,0,2.289-3.966v-28.77a2.3,2.3,0,0,0-3.456-2l-29.22,16.871a4.58,4.58,0,0,0-2.29,3.966v28.769A2.3,2.3,0,0,0,788.443,194.542Z" transform="translate(-601.837 -126.797)" fill="#5c8fd8" fill-rule="evenodd"/>
        <g id="Group_10934" data-name="Group 10934" transform="translate(0 82.963)">
          <path id="Path_30676" data-name="Path 30676" d="M620.248,279.209l41.868-24.171a6.561,6.561,0,0,0,3.28-5.684v-41.22a3.3,3.3,0,0,0-4.952-2.86l-41.868,24.172a6.561,6.561,0,0,0-3.28,5.683V276.35A3.3,3.3,0,0,0,620.248,279.209Z" transform="translate(-615.296 -204.827)" fill="#5c8fd8" fill-rule="evenodd" opacity="0.5"/>
          <g id="Group_10932" data-name="Group 10932" transform="translate(7.475 27.999)">
            <path id="Path_30677" data-name="Path 30677" d="M635.348,254.951a16.758,16.758,0,0,1-2.247,1.561c-3.837,2.216-7.214,1.917-9.184-.361l9.184-12.272Z" transform="translate(-622.088 -229.729)" fill="#5c8fd8" fill-rule="evenodd"/>
            <path id="Path_30678" data-name="Path 30678" d="M643.435,238.563c0,6.091-3.76,13.347-8.762,17.428l-2.247-11.072V232.28C638.506,228.77,643.435,231.581,643.435,238.563Z" transform="translate(-621.413 -230.769)" fill="#5c8fd8" fill-rule="evenodd"/>
            <path id="Path_30679" data-name="Path 30679" d="M633.235,232.169v12.639l-9.184,12.272a8.853,8.853,0,0,1-1.829-5.914C622.222,244.185,627.151,235.682,633.235,232.169Z" transform="translate(-622.222 -230.658)" fill="#5c8fd8" fill-rule="evenodd"/>
          </g>
          <g id="Group_10933" data-name="Group 10933" transform="translate(32.361 18.245)">
            <path id="Path_30680" data-name="Path 30680" d="M660.058,223.838l-14.78,8.274V230l14.78-8.274Z" transform="translate(-645.279 -221.731)" fill="#5c8fd8" fill-rule="evenodd"/>
            <path id="Path_30681" data-name="Path 30681" d="M660.058,231.46l-14.78,8.274v-2.107l14.78-8.274Z" transform="translate(-645.279 -221.126)" fill="#5c8fd8" fill-rule="evenodd"/>
            <path id="Path_30682" data-name="Path 30682" d="M660.058,239.083l-14.78,8.274v-2.107l14.78-8.274Z" transform="translate(-645.279 -220.521)" fill="#5c8fd8" fill-rule="evenodd"/>
          </g>
        </g>
        <g id="Group_10968" data-name="Group 10968" transform="translate(30.82 13.548)">
          <g id="Group_10935" data-name="Group 10935" transform="translate(73.413 160.512)">
            <ellipse id="Ellipse_532" data-name="Ellipse 532" cx="10.628" cy="18.41" rx="10.628" ry="18.41" transform="translate(0 28.817) rotate(-89.689)" fill="#5f8bff"/>
            <path id="Path_30683" data-name="Path 30683" d="M718.1,293.95l-5.551,10.275,35.667.59-5.533-10.333Z" transform="translate(-711.815 -288.855)" fill="#5f8bff"/>
            <path id="Path_30684" data-name="Path 30684" d="M738.988,301.848c-4.978,2.874-13.074,2.859-18.083-.032s-5.035-7.567-.057-10.441,13.075-2.859,18.084.033S743.966,298.974,738.988,301.848Z" transform="translate(-711.451 -289.229)" fill="#2d2ebc"/>
            <path id="Path_30685" data-name="Path 30685" d="M736.453,300.384a14.921,14.921,0,0,1-13.5-.024c-3.741-2.16-3.76-5.65-.043-7.8a14.927,14.927,0,0,1,13.5.025C740.151,294.748,740.171,298.239,736.453,300.384Z" transform="translate(-711.213 -289.092)" fill="#bee1f4"/>
          </g>
          <path id="Path_30686" data-name="Path 30686" d="M722.929,299.756c.092-.757-38.066-50.175-38.066-50.175H784.946l-42.94,50.453Z" transform="translate(-640.598 -131.862)" fill="#bee1f4" opacity="0.5"/>
          <g id="Group_10938" data-name="Group 10938" transform="translate(122.456)">
            <g id="Group_10937" data-name="Group 10937">
              <g id="Group_10936" data-name="Group 10936">
                <path id="Path_30687" data-name="Path 30687" d="M782.471,251.932s-7.326,8.56-9.28,9.134-.191,2.588,1.309,2.741,6.269-.05,7.658-1.416,5.32-2.828,5.32-2.828a22.148,22.148,0,0,0-1.062-7.228Z" transform="translate(-756.117 -131.675)" fill="#606bf1" fill-rule="evenodd"/>
                <path id="Path_30688" data-name="Path 30688" d="M779.4,196.014s-.949,18.944-.6,25.156,1.861,37.049,1.861,37.049a13.4,13.4,0,0,0,6.561,0c1.319-23.646,1.28-30.445,1.659-33.971s.846-13.719.846-13.719c2.827-5.851-.131-13.466-1.525-15.3S779.4,196.014,779.4,196.014Z" transform="translate(-755.61 -136.225)" fill="#112b46" fill-rule="evenodd"/>
                <path id="Path_30689" data-name="Path 30689" d="M792.96,259.5c-.246,3.462-1.5,7.541-1.813,9.617a4.921,4.921,0,0,0,.907,3.92c.479.667,6.333-1.268,7.134-3.525s-.84-4.231-.966-8.461A3.82,3.82,0,0,0,792.96,259.5Z" transform="translate(-754.63 -131.115)" fill="#606bf1" fill-rule="evenodd"/>
                <path id="Path_30690" data-name="Path 30690" d="M784.986,197.379s1.008,17.242,2.6,22.986,3.017,22.586,3.694,25.524,1.5,21.083,1.5,21.083a12.926,12.926,0,0,0,6.506,0c-.077-16.994.335-30.806,0-35.467s.133-18.472.133-18.472c1.508-6.431,1.6-7.252,0-11.523S790.95,193.854,784.986,197.379Z" transform="translate(-755.113 -136.119)" fill="#112b46" fill-rule="evenodd"/>
                <path id="Path_30691" data-name="Path 30691" d="M783.861,159.358c-5.951,1.674-9.147,16.63-10.814,19.989s-15.562,4.2-15.562,4.2c-.833,2.914,1.528,5.971,1.528,5.971,13.383-.556,18.1-1.668,20.584-6.946S790.785,161.156,783.861,159.358Z" transform="translate(-757.308 -139.018)" fill="#112b46" fill-rule="evenodd"/>
                <path id="Path_30692" data-name="Path 30692" d="M782.223,159.359c5.285-.234,17.538,2.514,21.573,7.66s-1.823,14.24-3.226,19.721.648,19.24.644,20.56c-6.262,4.152-21.346,4.678-23.038-1.515-.7-6.74.844-14.742.927-18.685C778.9,178.63,775.225,161.866,782.223,159.359Z" transform="translate(-755.67 -139.019)" fill="#fff" fill-rule="evenodd"/>
                <path id="Path_30693" data-name="Path 30693" d="M786.791,160.615c-3.4,11.948-4.2,25.356-3.874,30.427s.469,21.465.469,21.465c-3.96-2.084-5.7-5.9-5.7-7.642s1.492-16.574,1.443-17.768-2-14.813-1.443-20.926,4.562-6.815,4.562-6.815h5.094Z" transform="translate(-755.699 -139.018)" fill="#112b46" fill-rule="evenodd"/>
                <path id="Path_30694" data-name="Path 30694" d="M783.15,147.158c-2.327.734,0,6.028,0,6.028Z" transform="translate(-755.34 -139.986)" fill="#56548c" fill-rule="evenodd"/>
                <path id="Path_30695" data-name="Path 30695" d="M783.008,148.153a16.293,16.293,0,0,0-.547,5.507c.33,2.408.548,7.2,2.682,8.739s5.193-.246,7.218-1.967a12.032,12.032,0,0,0,4.221-8.729c.047-3.837-1.453-8.538-6.986-8.3S783.008,148.153,783.008,148.153Z" transform="translate(-755.319 -140.284)" fill="#ffc8af" fill-rule="evenodd"/>
                <path id="Path_30696" data-name="Path 30696" d="M793.489,156.025s-.432,4.94.863,6.763c.093,1.215-3.391,6.368-6.859,5.469-2.021-.525-1.778-2.879-1.778-2.879a55.729,55.729,0,0,0,0-6.139Z" transform="translate(-755.056 -139.282)" fill="#ffc8af" fill-rule="evenodd"/>
                <path id="Path_30697" data-name="Path 30697" d="M781.724,144.244c-.789,2.845.111,3.867,2.509,4.683s8.777-1.033,8.777-1.033a7.408,7.408,0,0,0,.528,4.625c1.056-2.993,2.015-1.469,2.111.925s-1.248,2.34-1.248,2.34a4.411,4.411,0,0,0,.744,2.7c2.567-1.773,6.059-13.631,1.434-13.9C796.513,140.439,783.413,138.151,781.724,144.244Z" transform="translate(-755.393 -140.513)" fill="#56548c" fill-rule="evenodd"/>
                <path id="Path_30698" data-name="Path 30698" d="M794.368,161.562c-4.114,8.673-6.268,16.593-6.128,23.748s1.617,28,1.617,28c7.136-1.737,12-3.751,13.388-6.182-3.057-8.058-4.168-13.476-3.542-15.769s6.016-19.771,3.216-24.96C800.258,163.5,794.368,161.562,794.368,161.562Z" transform="translate(-754.855 -138.843)" fill="#112b46" fill-rule="evenodd"/>
                <path id="Path_30699" data-name="Path 30699" d="M800.37,164.722c4.92,2.449,8.473,14.212,12.224,17.85,2.126,2.061,12.627,4.752,15.544,4.826,1.13,2.574-.9,5.437-.9,5.437-17.923-1.682-18.714-2.669-24.228-9.7C796.163,174.4,793.783,163.039,800.37,164.722Z" transform="translate(-754.201 -138.606)" fill="#112b46" fill-rule="evenodd"/>
              </g>
              <path id="Path_30700" data-name="Path 30700" d="M793.519,160.49a10.139,10.139,0,0,0,.917,1.157s-1.785,3.9-2.428,5.62a9.122,9.122,0,0,1-2.334,3.158l-2.312-2.522C790.549,166.215,793.519,160.49,793.519,160.49Z" transform="translate(-754.924 -138.928)" fill="#fff" fill-rule="evenodd"/>
              <path id="Path_30701" data-name="Path 30701" d="M825.521,186.54a17.984,17.984,0,0,1,4.359-.656,28.726,28.726,0,0,0,4.124-.516c.376.047.234,1.453-2.343,1.781,2.156.562,3.984.938,5.25.516s1.125,1.312,0,2.485-2.953,1.359-4.219,1.5a29.686,29.686,0,0,1-7.733-1.406C824.442,187.337,825.521,186.54,825.521,186.54Z" transform="translate(-751.953 -136.955)" fill="#ffc8af" fill-rule="evenodd"/>
            </g>
            <path id="Path_30702" data-name="Path 30702" d="M786.065,161.644c.212-.263.719,4.868,1.487,6.168a9.441,9.441,0,0,1-2.364,1.768S784.305,163.838,786.065,161.644Z" transform="translate(-755.114 -138.837)" fill="#fff" fill-rule="evenodd"/>
            <path id="Path_30703" data-name="Path 30703" d="M787.693,167.26l-1.975,1.211a11.809,11.809,0,0,1,.481,2.625h1.847l1.375-1.962Z" transform="translate(-755.055 -138.391)" fill="#fbd15b" fill-rule="evenodd"/>
            <path id="Path_30704" data-name="Path 30704" d="M786.346,170.838c-2.747,14.248-2.465,23.06-2.465,23.06l1.394,3.92,3.011-4.389s-2.181-16.741-.094-22.591A1.4,1.4,0,0,0,786.346,170.838Z" transform="translate(-755.201 -138.134)" fill="#fbd15b" fill-rule="evenodd"/>
          </g>
          <g id="Group_10940" data-name="Group 10940" transform="translate(0 18.553)">
            <path id="Path_30705" data-name="Path 30705" d="M666.7,179.044s9.205,6.51,13.061,8.67,18.915-6.316,18.915-6.316,2.046,1.05,1.147,4.318c-9.858,6.641-17.13,9.784-20.062,9.12s-11.777-5.85-14.774-7.445S662.6,178.665,666.7,179.044Z" transform="translate(-642.323 -156.011)" fill="#7278ff" fill-rule="evenodd"/>
            <g id="Group_10939" data-name="Group 10939" transform="translate(4.476 59.631)">
              <path id="Path_30706" data-name="Path 30706" d="M664.877,276.253c.187,2.664.433,5.325.433,5.325h.591s0-4.027.629-3.179C666.443,276.206,664.877,276.253,664.877,276.253Z" transform="translate(-646.659 -207.931)" fill="#191728" fill-rule="evenodd"/>
              <path id="Path_30707" data-name="Path 30707" d="M673.213,283.706c.284,0,.67-.311,1.011-.777-.6-.721-1.2-1.427-1.6-1.981-1.282-1.778-3.352-5.721-3.45-7.5s.985-20.308,1.281-22.576,1.145-10.844,1.066-11.337-7.968,3.046-7.968,3.046c.1.7,1.166,5.136.731,8s-1.126,4.748-.731,9.422,2.663,12.168,1.874,15.717c-.014.064-.026.12-.039.182C667.7,279.082,668.521,285.27,673.213,283.706Z" transform="translate(-646.774 -210.846)" fill="#ffc8af" fill-rule="evenodd"/>
              <path id="Path_30708" data-name="Path 30708" d="M674.112,280.253c-.341.466-.727.777-1.011.777-4.692,1.564-5.508-4.624-7.827-7.8-.735,3.374-.408,3.77.2,4.254a12.636,12.636,0,0,1,3.187,5.029c.394,1.873,6.309,1.675,7.393,1.281C676.8,283.518,675.448,281.849,674.112,280.253Z" transform="translate(-646.661 -208.171)" fill="#242329" fill-rule="evenodd"/>
              <path id="Path_30709" data-name="Path 30709" d="M657.889,258.335c-.229,2.074-1.443,18.045-1.247,20.711a51.569,51.569,0,0,0,1.373,6.231,6.92,6.92,0,0,1,.308,2.934c-.474,1.364-.5,5.426-2.7,4.512s-3.668-3.746-3.219-6.877-.086-4.638.04-6.507-1.128-13.51-1.325-17.643c-.2-4.149,1.183-6.121,1.285-8.881a69.357,69.357,0,0,0-.733-8.518s9.5-4.984,8.722,1.025S658.117,256.268,657.889,258.335Z" transform="translate(-647.752 -210.619)" fill="#ffc8af" fill-rule="evenodd"/>
              <path id="Path_30710" data-name="Path 30710" d="M648.312,215.127c-1.293,6.507,1.786,10.844,2.354,12.321s-1.239,19.914-1.239,19.914c5,7.689,22.45,2.957,25.307-1.874-.391-11.361-1.372-29.97-1.278-31.941S648.312,215.127,648.312,215.127Z" transform="translate(-647.998 -212.952)" fill="#6f33c6" fill-rule="evenodd"/>
              <path id="Path_30711" data-name="Path 30711" d="M658.622,285.2c-.148,2.776-.887,5.278-3.087,4.364s-3.668-3.746-3.219-6.877c1.183,3.454,5.7,3.3,5.608-.568A19.4,19.4,0,0,1,658.622,285.2Z" transform="translate(-647.662 -207.465)" fill="#242329" fill-rule="evenodd"/>
            </g>
            <path id="Path_30712" data-name="Path 30712" d="M664.4,159.206c3.007,2.866,4.006,5.365,3.569,8.178s-.937,6.374.5,7.436c-3.062,2.374-8.859-1.062-8.741-1.687s3.225-9.687,3.515-9.749Z" transform="translate(-642.591 -157.583)" fill="#2d0d60" fill-rule="evenodd"/>
            <path id="Path_30713" data-name="Path 30713" d="M668.126,179.161c-6.437-3.225-17.5-1.358-21.816,3.384s4.76,13.514,6.262,18.563-8.856,19.213-5.44,23.554c6.707,3.826,26.037,1.216,27.85-4.49-.067-8.466-5.121-15.876-3.917-19.391.063-2.258,3.3-9.624,2-12.469C670.425,182.505,671,180.933,668.126,179.161Z" transform="translate(-643.747 -156.128)" fill="#b6b9fe" fill-rule="evenodd"/>
            <path id="Path_30714" data-name="Path 30714" d="M666.73,163.1a16.293,16.293,0,0,1,.547,5.507c-.33,2.409-.548,7.2-2.682,8.74s-5.193-.247-7.219-1.968a12.032,12.032,0,0,1-4.221-8.729c-.048-3.837,1.453-8.538,6.986-8.3S666.73,163.1,666.73,163.1Z" transform="translate(-643.113 -157.651)" fill="#ffc8af" fill-rule="evenodd"/>
            <path id="Path_30715" data-name="Path 30715" d="M657.055,172.909s.358,4.941-.717,6.764c-.077,1.214,2.815,6.368,5.694,5.468,1.676-.525,1.475-2.879,1.475-2.879-.179-1.8,0-6.139,0-6.139Z" transform="translate(-642.86 -156.496)" fill="#ffc8af" fill-rule="evenodd"/>
            <path id="Path_30716" data-name="Path 30716" d="M661.887,163.229a7.112,7.112,0,0,1-4.594,4.873c-.562,5.251.678,8.973,2.376,9.794-4.583,1.664-7.243.39-8.494-2.073s-2.223-12.969,2.931-16.156S661.887,163.229,661.887,163.229Z" transform="translate(-643.349 -157.614)" fill="#2d0d60" fill-rule="evenodd"/>
            <path id="Path_30717" data-name="Path 30717" d="M661.4,163.317c1.593,2.155,5.119,2.249,5.7,2.155-.076-8.342-8.137-9.186-10.762-6.187C658.493,163.41,661.4,163.317,661.4,163.317Z" transform="translate(-642.86 -157.702)" fill="#2d0d60" fill-rule="evenodd"/>
            <path id="Path_30718" data-name="Path 30718" d="M647.114,181.871" transform="translate(-643.592 -155.785)" fill="#ec827d" fill-rule="evenodd"/>
            <path id="Path_30719" data-name="Path 30719" d="M655.354,200.08c.314-.14-1.562-14.995-1.562-14.995l13.087-2.589.562,22.938-11.87,2.777Z" transform="translate(-643.062 -155.736)" fill="#fff" fill-rule="evenodd"/>
            <path id="Path_30720" data-name="Path 30720" d="M661.714,195.665s4.174-4.068,5.1-5,.913.321-.285,2.5c1.88.441,3.085,2.962,3.219,3.843s-2.253,3.158-2.934,3.426a14.7,14.7,0,0,1-3.468,0Z" transform="translate(-642.434 -155.113)" fill="#ffc8af" fill-rule="evenodd"/>
            <path id="Path_30721" data-name="Path 30721" d="M648.529,181.232c3.573.255,4.147,19.585,4.147,19.585s9.776-4.545,10.455-4.428c3.624.787,1.631,4.767,1.631,4.767-7.652,5.812-10.745,9.152-14.481,8.433s-6.559-14.079-6.425-20.1S646.268,181.07,648.529,181.232Z" transform="translate(-643.851 -155.837)" fill="#7278ff" fill-rule="evenodd"/>
          </g>
          <g id="Group_10958" data-name="Group 10958" transform="translate(21.201 8.154)">
            <g id="Group_10941" data-name="Group 10941" transform="translate(9.205 9.204)">
              <path id="Path_30722" data-name="Path 30722" d="M794.974,218.068a61.41,61.41,0,0,1-60.213,61.466c-.422.006-.844.013-1.266.013s-.844,0-1.266-.013a61.476,61.476,0,1,1,62.745-61.466Z" transform="translate(-672.022 -156.595)" fill="#85cded"/>
            </g>
            <g id="Group_10942" data-name="Group 10942" transform="translate(12.469 69.147)">
              <path id="Path_30723" data-name="Path 30723" d="M791.472,233.482a61.511,61.511,0,0,1-56.95,41.648c-.422.006-.844.013-1.266.013s-.844,0-1.266-.013a61.494,61.494,0,0,1-56.944-41.648c8.248-12.422,31.191-21.349,58.21-21.349S783.224,221.06,791.472,233.482Z" transform="translate(-675.046 -212.133)" fill="#8fd7ef"/>
            </g>
            <g id="Group_10957" data-name="Group 10957">
              <g id="Group_10956" data-name="Group 10956" clip-path="url(#clip-path)">
                <g id="Group_10948" data-name="Group 10948" transform="translate(7.404 15.689)">
                  <g id="Group_10943" data-name="Group 10943" transform="translate(0 18.342)">
                    <path id="Path_30724" data-name="Path 30724" d="M670.355,216.251c-.108-9.875,6.448-19.133,18.461-26.068,24.556-14.177,64.637-14.106,89.347.161,11.977,6.915,18.632,16.112,18.739,25.9l-.658.006c-.1-9.541-6.642-18.538-18.409-25.333-24.53-14.162-64.315-14.234-88.69-.161-11.8,6.81-18.237,15.864-18.131,25.491Z" transform="translate(-670.354 -179.597)" fill="#bee1f4"/>
                  </g>
                  <g id="Group_10944" data-name="Group 10944" transform="translate(31.983)">
                    <path id="Path_30725" data-name="Path 30725" d="M711.412,274.8a23.157,23.157,0,0,1-11.426-2.847l.321-.575c8.235,4.6,19.176,3.43,30.806-3.283,24.315-14.039,44.1-48.157,44.1-76.056,0-14.045-5.152-24.557-14.135-28.841l.283-.594c9.221,4.4,14.51,15.127,14.51,29.435,0,28.109-19.928,62.483-44.425,76.625C724.383,272.74,717.559,274.8,711.412,274.8Z" transform="translate(-699.986 -162.603)" fill="#bee1f4"/>
                  </g>
                  <g id="Group_10946" data-name="Group 10946" transform="translate(18.685)">
                    <g id="Group_10945" data-name="Group 10945">
                      <path id="Path_30726" data-name="Path 30726" d="M752.12,274.8c-6.149,0-12.97-2.06-20.031-6.137-24.5-14.142-44.424-48.516-44.424-76.625,0-14.309,5.289-25.037,14.51-29.435l.284.594c-8.984,4.285-14.136,14.8-14.136,28.841,0,27.9,19.781,62.017,44.094,76.056,11.632,6.714,22.573,7.881,30.807,3.283l.322.575A23.164,23.164,0,0,1,752.12,274.8Z" transform="translate(-687.666 -162.603)" fill="#bee1f4"/>
                    </g>
                  </g>
                  <g id="Group_10947" data-name="Group 10947" transform="translate(0.191 54.99)">
                    <path id="Path_30727" data-name="Path 30727" d="M733.614,264.671c-34.784,0-63.083-22.932-63.083-51.119h.657c0,27.824,28,50.46,62.425,50.46s62.427-22.636,62.427-50.46h.657C796.7,241.738,768.4,264.671,733.614,264.671Z" transform="translate(-670.531 -213.552)" fill="#bee1f4"/>
                  </g>
                </g>
                <g id="Group_10949" data-name="Group 10949" transform="translate(14.044 7.234)">
                  <path id="Path_30728" data-name="Path 30728" d="M714.061,276.655c.9-.179-.09-1.7,1.524-1.524s5.556,1.405,7.169.344-1.075-2.316.807-2.854,3.662-1.511,3.943-2.689.359-1.972-1.075-2.241-2.868-1.793-4.123-2.151-3.495-.179-4.84-.985-4.571-3.5-5.825-3.585-3.944,0-2.6-.448,2.33-.358,1.7-.985-2.151-3.585-3.227-4.392-4.032-1.524-5.377-3.226A38.233,38.233,0,0,1,699,246.362s-3.854-1.075-5.2-2.778-2.689-3.405-3.5-3.584-1.523-.806-2.062-.9-.9.806-1.523,1.165-1.255-1.165-1.614-2.33-1.612-.717-2.151-1.7a9.04,9.04,0,0,1-.985-3.584c.09-.627,1.075-2.689.806-3.675s-1.792-2.06-2.241-3.047.628-2.778,1.255-3.674,1.344-1.076.448-1.882-2.005-.9-1.809,0-.79,1.142-1.507-.639-.987-5.993.448-7.606.537-3.675,2.151-3.317,1.972,1.614,2.33,2.868,1.075,1.524.985-.269a10.514,10.514,0,0,1,1.882,3.5c.269.269.627.269.627.806a37.117,37.117,0,0,0-.358,4.123c.09,1.254,0,2.42.537,2.241s.987-2.6.987-4.123.358-3.137,1.165-3.226,1.614-.9,2.6-.718a2.346,2.346,0,0,0,2.6-1.344c.269-.986,3.406-3.936,4.3-3.9s1.7,1.3,2.509,1.117-.15-2.241,1.314-2.42,2.9-.628,3.168,0-1.793.985-1.166,1.433,1.793-.358,2.6-.269,3.048.807,3.138-.09.269-1.99-.449-1.4-.627,1.4-1.165.682-1.166-.834-.985-1.9,1.523-2.137,1.165-2.406-2.33-.358-2.6-.717.806-1.434,2.33-1.076,2.42,1.614,3.405,1.524,2.42-1.524,2.42-.538-1.792,2.392-2.061,3.212.179,1.269,1.434,1.628,1.165,1.613,1.882,1.254,1.165-3.047.358-3.495-1.793,1.075-1.166-.806,1.972-2.151,1.434-3.854-1.614-3.675-1.614-4.392.807-4.481.807-4.481-1.166,1.345-1.972,1.076-1.345-.806-.9-1.434,1.523-1.7,1.254-1.792a1.046,1.046,0,0,1-.627-.986,3.132,3.132,0,0,0-.807-1.523c-.269-.359-.269-.9-.717-.807s-1.165,1.255-1.433,1.972-1.793.9-1.793,1.524.179,2.42-1.345,2.689-2.33,0-2.6.448-1.4,3.137-2,2.957-.3-1.254,0-2.42,1.375-.9,1.2-2.061-.806-.627-.627-1.7-.778-2.6-.569-3.048,1.106-.538,1.017-1.254.179-2.868,1.972-2.957a26.974,26.974,0,0,0,6-1.076,1.627,1.627,0,0,1,1.7,0c.358.269.358.244,1.165-.236s3.406-1.915,3.765-1.556,0,2.42-.807,3.227-1.344,1.882-1.971,1.7-2.241-1.165-1.793-.448,1.614.986,1.614,1.524-.449,2.778.179,3.136.717-1.254.985-1.344.09,1.881.717,1.254.9-2.42.987-3.137-.358-.9.09-.717,0,1.971.806,1.971,2.6-.269,1.882-1.254-1.076-2.6-.806-2.778a1.23,1.23,0,0,0,.717-.986c0-.538.9-3.047-.358-3.405s-1.972.448-1.255-.358a5.062,5.062,0,0,0,.987-1.882,3.489,3.489,0,0,0-2.869.9c-.985,1.166-.717,1.524-.985,1.7s-2.151,1.434-2.42.986,1.524-1.434,1.7-1.7a17.519,17.519,0,0,1,1.254-2.6,42.183,42.183,0,0,0-3.764,2.241c-.807.717-2.33.985-2.151.717s4.661-2.151,3.584-2.509-3.047,1.254-3.405.537.627-.276.269-.99-1.614.363-1.345-.893-.269-1.523.539-1.613.9-.807,1.523-1.882.718-3.944,1.435-4.033,5.646-2.6,6.094-3.674,2.061-2.061.269-1.7-3.405.986-3.136.627.09-1.315-1.433-.7-6.543,2.046-6.812,2.942.627.986-2.509,3.048-5.826,4.929-7.259,5.825-1.255,1.882-2.509,2.42-1.524.179-2.6,1.524-5.288,4.3-6.095,5.556-5.108,6.452-7.618,13.443-3.943,13.623-3.853,15.236-.179,7.618.538,8.694a10.575,10.575,0,0,1,1.524,4.571c.179,1.792,1.613,2.778,2.06,3.853s.179,3.5.27,4.213,2.24,4.66,2.42,5.288.537-.717.9,0a10.484,10.484,0,0,1,1.165,4.392c0,1.882-2.42,1.972-1.792,3.674s6.631,11.651,9.141,15.237a56.466,56.466,0,0,0,11.114,10.575Z" transform="translate(-676.505 -154.251)" fill="#bee1f4"/>
                  <path id="Path_30729" data-name="Path 30729" d="M692.985,230.214c.189,1.07-4.706-1.882-4.975-2.755s2.151,1.277,1.882.336-1.075-1.747-.537-1.882S692.783,229.071,692.985,230.214Z" transform="translate(-675.594 -149.127)" fill="#bee1f4"/>
                  <path id="Path_30730" data-name="Path 30730" d="M688.712,225.562c-.779-.322-2.42-.6-2.151-1.68s-1.479-4.1-1.949-4.7-1.614-1.412-1.076-1.547,1.278.807,2.218,1.882,3.025,4.84,3.429,5.377S690.266,226.2,688.712,225.562Z" transform="translate(-675.959 -149.785)" fill="#bee1f4"/>
                  <path id="Path_30731" data-name="Path 30731" d="M723.172,194.773c.036-.7.606-1.546-.4-1.612s-1.881,2.755-1.814-1.748.314-6.318,1.166-6.789.747-1.075,1.169-1.881-.52-1.076.287-2.757a5.5,5.5,0,0,0,0-4.167c-.269-.941.537-1.882,2.083-2.353a38.61,38.61,0,0,1,4.033-.671c1.21-.27,1.008-1.278,2.084-.739s1.546,2.419,2.487,1.679,1.344-.269,1.075.4-.71,1.479.082,2.286.523,2.016.725,3.36-1.278.2-1.412,1.076,1.075,1.256,1.412,2.476.336,2.364-1.009,2.7-3.495-.672-3.965.269a10.236,10.236,0,0,1-2.53,2.689c-.831.672-.831-.2-1.5.874s-2.627,4.3-2.994,4.638S723.135,195.5,723.172,194.773Z" transform="translate(-672.98 -153.411)" fill="#bee1f4"/>
                  <path id="Path_30732" data-name="Path 30732" d="M711.438,174.551c-.522.794-1.949.067-1.68-1.009s-.941-2.285.672-2.554,1.612.739,2.218-.336a3.575,3.575,0,0,1,1.681-1.48s2.016-1.612,1.546-.2S712.057,173.609,711.438,174.551Z" transform="translate(-673.883 -153.689)" fill="#bee1f4"/>
                  <path id="Path_30733" data-name="Path 30733" d="M720.353,174.207c-.757-.126-2.151-.672,0-1.345s5.042-3.091,6.318-2.622.537,1.794.537,1.794S722.369,174.543,720.353,174.207Z" transform="translate(-673.118 -153.547)" fill="#bee1f4"/>
                  <path id="Path_30734" data-name="Path 30734" d="M737.536,190.178c-2.513,1.047-3.391-3.361-2.3-3.092s2.031-1.075,3.241-.134S739.148,189.506,737.536,190.178Z" transform="translate(-671.884 -152.244)" fill="#bee1f4"/>
                  <path id="Path_30735" data-name="Path 30735" d="M743.114,175.441c-2.481-1.019-3.428-1.613-3.226-2.083s-.4-2.853,1.076-1.258S743.493,175.6,743.114,175.441Z" transform="translate(-671.48 -153.438)" fill="#bee1f4"/>
                  <path id="Path_30736" data-name="Path 30736" d="M794.147,218.112c0-.334-.876-.6-1.21,1.01s.6,3.829-1.011,3.356-2.35-1.881-2.957-2.689a23.59,23.59,0,0,0-1.543-1.812c-.876-1-2.887-2.887-2.35-3.425s.269-.947,1.543-.14,3.361,2.29,3.495,3.1.753,3.834,1.748,3.226.537-5.517.4-6.722.135-6.791-.2-8.2-1.011-2.818-1.414-2.888-.608.4-.4,1.479,1.075,3.222.065,2.049-2.689-2.855-2.081-2.99.806,1.275.941,0-.27-2.554.473-2.15-1.484-7.19-1.549-8.6-7.485-21.44-32.915-32.264-31.14-2.823-31.14-2.823c-.338.539-3.9,1.549-4.173,2.286s-.537.608-1.612.736-3.561.539-1.543.678,8.469-1.484,11.362-1.753,4.232.269,6.114.473,6.441.269,6.441.269-.715,1.689,1.13,1.516a3.66,3.66,0,0,1,2.914.77c.608.339-.806.608-.538.941s2.016.4,4.769,2.215,3.9,1.011,4.775,1.215-2.753.2-1.21,1.41,5.108,2.032,5.179,3.033-.409,2.635.2,3.43a23.6,23.6,0,0,1,1.812,3.42c.743,1.473,3.5,3.022,1.215,2.818s-3.764-.334-2.828-.807,1.484-2.011.139-1.742-5.985.334-6.522.806.269,1.614.736,3.829.339,2.893.07,5.511-.2,2.474.468,4.2,2.086,2.725,2.355,2.123-.4-2.839,1.011-2.123,2.35,2.393,2.817,2.8,1.28.737,1.484,0-1.344-3.565-1.145-4.1-.737-1.345-.737-1.345a4.118,4.118,0,0,1-1.548-2.011,6.1,6.1,0,0,0-.6-2.086c-.539-1.14-1.146-2.42-.608-2.42s.876.334,1.344,1.946a3.924,3.924,0,0,0,1.21,2.221,3.788,3.788,0,0,0,2.355.806c.667-.134.6-1.881,1.543-1.612s-1.21,1.2-.736,2.081,2.42,1.818,2.35,2.221-1.747-.608-1.614.069a10.788,10.788,0,0,0,1.614,2.485c.339.473.2,2.016-.468,1.747s-.677-1.747-1.145-.4-.2,1.881-.941,2.215-.134,0-.742.339-1.543.737-2.012,0,0-1.075-.607-1.747-1.21-1.818-1.275-1.011a2.206,2.206,0,0,0,.537,1.952c.6.806,1.344,1.275,1.2,1.951s-1.409.737-1.614,2.216.269,1.409-.269,2.151-.537.741-.537,1.409a2.6,2.6,0,0,1-.737,1.715c-.338.307-1.21-.774-1,0s.806,1.044.128,1.242-2.28.205-1.881.608a3.5,3.5,0,0,0,1.951.737c.537,0,1.21,1.011,1.614,1.614a4.211,4.211,0,0,1,.537,2.42c-.135.473-3.092,1.279-4.033,1.548s-1.479.27-1.543.743a5.415,5.415,0,0,0,.667,2.618c.538,1.076-.4,1.684-.065,2.35s1.076,1.28.807,1.882.806-.128,1.946.339.743,1.414,1.684.876.2-1.075,1-1.28,1.684.27,1.754-.473,1.2-2.753,1.075-2.957-1.075-.2-.608-1.076a24.807,24.807,0,0,0,1.614-3.624c0-.338-1.21-1.683,0-1.818s1.145.27,1.613-.269.608-2.893,1.812-2.624,1.882,1.28,3.027,1.414,2.958.468,3.5,1.345-.468,2.49-.468,2.49-1.075.467-.742.736,2.086.537,2.086.269-1.011-.671-.537-1.145a3.216,3.216,0,0,0,.537-2.35c-.205-.339-1.414-.737-.743-1.006s1.479.13,1.28-.408-1.614-.936-2.29-1.006a5.81,5.81,0,0,1-2.351-.538c-.608-.4-1.344-.672-1.479-1.146s-1.21-1.683-.269-1.511,1.678.974,2.555,1.044,3.893.608,3.861.941-.436.741.575,1.28a5.381,5.381,0,0,1,2.151,1.677c.269.537.742,1.614,1.011.743a9.42,9.42,0,0,0,.128-2.291c.07-.537-2.618-1.14-1.882-1.543s1.011-.4.947-.876-.339-1.951.737-.974,1.747,2.726,2.759,2.726.871-.139,1.075-.806.2-.806,1.006-.876.4-2.618,1.075-1.882a17.19,17.19,0,0,1,2.151,5.512c.07,1.075-1.275,1.28-1.614,2.086s-.608,2.216-2.22,2.35-2.216,0-2.689,1.076.339,1.7-.065,2.866-.4,1.57-1.549,1.167-1.947.539-2.081-.2-1.812,1.14-2.689.936-.468-.538-1.21-.737-.2-.451-.333-1.167-1.215-1.591-.876-1.861-.135-1-.672-.538.135.608-1.14,1.215-2.022.618-2.689,1.183-.205.629-1.345,1.033-1.683.065-1.683.741-.538,1.141-1.479,1.743-.539.876-1.41,1.075a9.517,9.517,0,0,1-2.022,0c-.4.07-1.344.07-1.275.743s-.134,2.215-.736,2.624-.807,0-1.076,1.344.13,1.2.2,2.216a3.716,3.716,0,0,1-1.614,3.162c-1.075.6-1.839-.339-1.861.806a3.515,3.515,0,0,1-.963,2.216c-.4.6-.473.671-.334,1.881s-1.548,1.41-1.818,2.689-.6,1.345-.2,2.151,1.076,1.28.806,2.753a21.265,21.265,0,0,1-.935,2.894c-.205.806.6,1.818.666,2.822s1.28.941,1.953,1.812,1.747.743,2.081,1.549,1.215.743,2.022,1.21,1.006,1.414,3.157,1.006,2.016-1.275,3.63-1.543,1.612-.672,3.63-1.345,2.42-2.35,3.834-2.822,1.812-.743,2.549-.4-1.2,1.614.339.941,1.613-1.818,2.887-1.678.678.333.409,1.614-1.684,2.957-1.215,3.291,2.086.538,2.489,1.28-.941,1.14-.467,2.011.871.947.2,1.345-2.479,3.538-3.092,4.371-.473,1.747.6,1.952,19.564-26.489,21.176-33.34S794.147,218.445,794.147,218.112Zm-15.255-16.939c-1.484.4-.339,2.5-.876,2.823-.786.473-2.49,1.344-2.823-.941s-2.216-5.916-.871-5.045,1,2.56,1.607,1.28,1.549-1.818.878-1.882-.883,1.21-.878-.269-.543-2.893,0-2.086-.134,1.952,1.549,1.952,2.689-.608,2.888.806S780.365,200.769,778.892,201.173Zm5.442-4.436c-1.055,0-1.141-1.882-2.555-2.221s-2.823-.4-3.156-2.28-1.076-4.3-.409-3.765,1.28,2.506,1.484,2.528,1.538.763,1.441.494.909-.871,1.178-.2.135,1.2.4,1.576,1.677,1.521,2.086,1.957S785.274,196.737,784.333,196.737Z" transform="translate(-673.377 -154.769)" fill="#bee1f4"/>
                  <path id="Path_30737" data-name="Path 30737" d="M749.41,203.708c.076.2.539-1.479,1.949-1.815s1.794-.538,1.434-1.142-.627-.337-.493-.941-1.411-1.076-1.68-1.546-1.008-1.076-1.21-1.412-1.008-.337-1.075-.807.739-1.613,0-1.613-1.345.4-1.345,0,.27-1.894-.469-1.015-.337,1.619-.337,2.09.874,1.547.806,1.747.2-1.008.4-.6-.134,1.008.269.941,1.278-.068,1.345.269.577.873.49,1.075-.759.4-.692.605.269.336.269.672-.537.94-.269,1.008,1.115-.672.692.134A3.1,3.1,0,0,0,749.41,203.708Z" transform="translate(-670.987 -151.726)" fill="#bee1f4"/>
                  <path id="Path_30738" data-name="Path 30738" d="M745.685,202.177c-.587-.131-.2-1.277-.135-1.747s-.806-.336-.806-1.143,1.075-.134.941-.739.336-.464.873-.5.672.971.874,1.375.6.6,0,1.143S746.29,202.312,745.685,202.177Z" transform="translate(-671.093 -151.337)" fill="#bee1f4"/>
                  <path id="Path_30739" data-name="Path 30739" d="M762.622,210.887c-.735-.271-1.008-1.68-.874-1.949s1.345-.807,1.48.336S763.9,211.358,762.622,210.887Z" transform="translate(-669.747 -150.502)" fill="#bee1f4"/>
                  <path id="Path_30740" data-name="Path 30740" d="M718.967,175.087c-.627-.314-2.218-1.186-1.679-1.669s1.747-1.289,1.679-.348S719.913,175.561,718.967,175.087Z" transform="translate(-673.279 -153.352)" fill="#bee1f4"/>
                  <path id="Path_30741" data-name="Path 30741" d="M715.621,173.441c-.84.24-1.886.416-1.954,0s.606-1.087,1.143-1.087S716.384,173.224,715.621,173.441Z" transform="translate(-673.558 -153.375)" fill="#bee1f4"/>
                  <path id="Path_30742" data-name="Path 30742" d="M753.567,172.676a1.144,1.144,0,0,1-1.814,0c-.471-.4-3.361-2.016-4.369-2.622s-2.084-1.494-2.016-1.655a1.337,1.337,0,0,1,1.546.378c.4.6,3.159,2.016,4.3,2.487S754.306,171.937,753.567,172.676Z" transform="translate(-671.044 -153.697)" fill="#bee1f4"/>
                </g>
                <g id="Group_10955" data-name="Group 10955" transform="translate(7.405 7.924)">
                  <g id="Group_10950" data-name="Group 10950" transform="translate(0 62.749)">
                    <path id="Path_30743" data-name="Path 30743" d="M734.025,250.2c-16.246,0-32.524-3.583-44.931-10.747-11.977-6.915-18.632-16.111-18.739-25.9l.658-.007c.1,9.542,6.642,18.538,18.41,25.333,24.529,14.163,64.313,14.234,88.688.161,11.8-6.811,18.237-15.864,18.131-25.491l.658-.006c.108,9.875-6.448,19.133-18.461,26.068C766.214,246.674,750.136,250.2,734.025,250.2Z" transform="translate(-670.355 -213.547)" fill="#fff"/>
                  </g>
                  <g id="Group_10951" data-name="Group 10951" transform="translate(18.684 5.559)">
                    <path id="Path_30744" data-name="Path 30744" d="M700.963,272.115c-8.575-4.787-13.3-15.018-13.3-28.808,0-28.11,19.928-62.484,44.424-76.626,11.218-6.477,21.958-7.868,30.243-3.916l-.283.594c-8.085-3.855-18.606-2.473-29.632,3.892-24.314,14.038-44.094,48.157-44.094,76.056,0,13.541,4.6,23.568,12.959,28.233Z" transform="translate(-687.666 -160.559)" fill="#fff"/>
                  </g>
                  <g id="Group_10952" data-name="Group 10952" transform="translate(33.194 5.56)">
                    <path id="Path_30745" data-name="Path 30745" d="M762.481,272.115l-.322-.575c8.357-4.665,12.959-14.692,12.959-28.233,0-27.9-19.781-62.019-44.1-76.056-11.024-6.365-21.547-7.746-29.629-3.892l-.284-.594c8.286-3.951,19.025-2.56,30.242,3.916,24.5,14.142,44.425,48.516,44.425,76.626C775.777,257.1,771.055,267.328,762.481,272.115Z" transform="translate(-701.11 -160.56)" fill="#fff"/>
                  </g>
                  <g id="Group_10953" data-name="Group 10953" transform="translate(62.944)">
                    <rect id="Rectangle_1894" data-name="Rectangle 1894" width="0.658" height="125.51" fill="#fff"/>
                  </g>
                  <g id="Group_10954" data-name="Group 10954" transform="translate(0.19 11.636)">
                    <path id="Path_30746" data-name="Path 30746" d="M796.7,217.309h-.657c0-27.824-28-50.46-62.427-50.46s-62.425,22.636-62.425,50.46h-.657c0-28.186,28.3-51.119,63.083-51.119S796.7,189.122,796.7,217.309Z" transform="translate(-670.531 -166.19)" fill="#fff"/>
                  </g>
                </g>
              </g>
            </g>
          </g>
          <g id="Group_10960" data-name="Group 10960" transform="translate(19.273 94.478)">
            <g id="Group_10959" data-name="Group 10959">
              <path id="Path_30747" data-name="Path 30747" d="M681.149,352.417v.839c1.676.982,5.432.462,6.414,0,.645-.978,2.4-.719,3.38-.33,3.756.33,5.131-.226,6.386-1.143a3.744,3.744,0,0,0,1.638-2.962C694.5,349.846,681.149,352.417,681.149,352.417Z" transform="translate(-660.166 -218.468)" fill="#191728" fill-rule="evenodd"/>
              <path id="Path_30748" data-name="Path 30748" d="M687.6,346.13s4.1,1.156,6.53,1.5,4.161-.057,4.739.81-.694,3.12-2.832,3.871-6.53-.115-8.148.231-5.721,1.1-6.7.086,0-5.922,0-5.922Z" transform="translate(-660.198 -218.682)" fill="#242329" fill-rule="evenodd"/>
              <path id="Path_30749" data-name="Path 30749" d="M666.019,341.765l7.34-8.22c2.927-.836,6.008-1.011,5.616,1.691-.347,2.4-4.165,3.446-6.79,5.778l-2.42,2.149c-1.739,1.544-3.961.193-3.746-1.4" transform="translate(-661.367 -219.723)" fill="#242329" fill-rule="evenodd"/>
              <path id="Path_30750" data-name="Path 30750" d="M709.831,244.381a12.537,12.537,0,0,0,4.412-4.909,14.794,14.794,0,0,0,1.3-4.666,7.431,7.431,0,0,0-1.018-4.134.764.764,0,0,0-.229-.274c-.365-.235-.793.183-1.024.55a44.882,44.882,0,0,1-4.125,6.231,8.367,8.367,0,0,1,.689-2.185c.529-1.081-.392-1.044-.392-1.044a13.136,13.136,0,0,0-2.657,4.357c-.253,1.077-.9,3.832-.9,3.832l.337.3c-.269.38-.444.613-.444.613S708.731,245.051,709.831,244.381Z" transform="translate(-658.212 -227.866)" fill="#fcc4b7" fill-rule="evenodd"/>
              <path id="Path_30751" data-name="Path 30751" d="M666.96,249.581s-10.141,3.687-2.241,14.141Z" transform="translate(-661.708 -226.339)" fill="#0382ff" fill-rule="evenodd"/>
              <path id="Path_30752" data-name="Path 30752" d="M672.835,230.6a18.114,18.114,0,0,1,7.256.2,8.623,8.623,0,0,1,6.332,6.669c.861,3.387,1.115,9.033-.824,12.179-1.213,1.968-3.911,1.6-5.84,1.086a22.789,22.789,0,0,1-7.293-3.066c-2.663-2.014-4.072-6.418-4.234-9.6-.141-2.744,1.277-6.917,4.6-7.462" transform="translate(-661.191 -227.866)" fill="#ffc2b0" fill-rule="evenodd"/>
              <path id="Path_30753" data-name="Path 30753" d="M672.593,245.72a7.2,7.2,0,0,0,.908.83,16.566,16.566,0,0,0,6.061,2.96c.37.1.774.186,1.187.258l-.187,2.124c-2.478.68-4.885-.367-6.6-.842-1.275-.353-3.252-.679-3.252-2.021l1.874-3.311Z" transform="translate(-660.993 -226.646)" fill="#ffc8af" fill-rule="evenodd"/>
              <path id="Path_30754" data-name="Path 30754" d="M670.09,231.406c-2.123,1.409-2.02,4.812-1.907,7.036.162,3.184,1.629,7.389,4.291,9.4a7.933,7.933,0,0,0,3.509,1.851,11.327,11.327,0,0,0,1.138-.77,3.223,3.223,0,0,0,1.219-3.523c-.4-1.284-.436-2.822.289-3.219,1.187-.649,1.979,1.655,1.979,1.655a1.758,1.758,0,0,0,1.151-2.41,4.082,4.082,0,0,1,0-2.805c2.1.041,3.081-2.822,3.747-3.2,1.42-.8,1.9-1.117,1.669-2.466a4.167,4.167,0,0,0-1.169-2.375,14.2,14.2,0,0,0-4.223-1.887C675.935,227.235,671.43,228.278,670.09,231.406Z" transform="translate(-661.198 -228.047)" fill="#b25e02" fill-rule="evenodd"/>
              <path id="Path_30755" data-name="Path 30755" d="M669.769,343l2.42-2.149c2.625-2.331,6.442-3.379,6.79-5.778h0l0-.012h0v0h0v0h0a2.615,2.615,0,0,1,0,.811c-.347,2.4-4.165,3.446-6.79,5.778l-2.42,2.149c-2.051,1.822-4.216.522-3.746-2.176-.215,1.591,2.008,2.942,3.746,1.4" transform="translate(-661.37 -219.561)" fill="#191728" fill-rule="evenodd"/>
              <path id="Path_30756" data-name="Path 30756" d="M666.129,288.464c-2.535,3.588,3.8,13.522,2.069,25.888-1.175,8.387-3.467,22.467-2.92,30.412.1,1.448,5.759,2.483,7.293-4.522,2.609-11.911,5.877-19.346,7.026-28.588l-.61-26.807Z" transform="translate(-661.431 -223.542)" fill="#293677" fill-rule="evenodd"/>
              <path id="Path_30757" data-name="Path 30757" d="M673.574,286.988c-.7,11.139,7.28,24.768,6.752,33.76-.545,9.273.464,20.55.489,30.586,0,0,8.2,3.882,8.565-2.118,1.206-19.661,4.97-25.787-.111-61.762Z" transform="translate(-660.77 -223.372)" fill="#3a55ca" fill-rule="evenodd"/>
              <path id="Path_30758" data-name="Path 30758" d="M689.284,279.281a114.479,114.479,0,0,0-1.716-21.307,14.636,14.636,0,0,0-3.5-3.568l-2.624-3.175a93.872,93.872,0,0,1-9.809-2.98l-4.755,1.435c-3.869,1.639-5.144,6.645-3.422,11.642-.042.224,3.935,11.568,4.38,15.767.042.412-2.932,11.545-3.583,16.087,0,0,2.828,2.584,3.609,3.236,5.751,7.138,24.548-1.518,25.256-5.317C693.385,289.679,691.076,285.264,689.284,279.281Z" transform="translate(-661.628 -226.445)" fill="#68b2fb" fill-rule="evenodd"/>
            </g>
            <path id="Path_30759" data-name="Path 30759" d="M681.886,266.037c-3.8.094-7.108-4.969-5.033-8.154a4.932,4.932,0,0,1,2.7-2.445c3.139-.9,12.481,1.271,18.439,1.42,4.766-5.809,10.04-16.143,10.04-16.143a5.3,5.3,0,0,1,4.766,2.929c-8.044,20.7-10.687,21.02-11.134,21.5S681.927,266.036,681.886,266.037Z" transform="translate(-660.557 -227.043)" fill="#0382ff"/>
          </g>
          <g id="Group_10962" data-name="Group 10962" transform="translate(85.775 67.868)">
            <path id="Path_30760" data-name="Path 30760" d="M766.855,351.385v.839c-1.675.982-5.432.462-6.414,0-.645-.978-2.4-.719-3.38-.33-3.756.33-5.131-.226-6.385-1.143a3.746,3.746,0,0,1-1.64-2.963C753.506,348.814,766.855,351.385,766.855,351.385Z" transform="translate(-721.284 -191.941)" fill="#191728" fill-rule="evenodd"/>
            <path id="Path_30761" data-name="Path 30761" d="M760.44,345.1s-4.1,1.156-6.53,1.5-4.161-.057-4.739.809.694,3.12,2.832,3.872,6.53-.115,8.148.231,5.721,1.1,6.7.086,0-5.923,0-5.923Z" transform="translate(-721.284 -192.154)" fill="#242329" fill-rule="evenodd"/>
            <path id="Path_30762" data-name="Path 30762" d="M781.631,340.733l-7.34-8.22c-2.927-.836-6.006-1.011-5.616,1.691.348,2.4,4.165,3.446,6.79,5.778l2.42,2.149c1.739,1.544,3.961.193,3.746-1.4" transform="translate(-719.728 -193.196)" fill="#242329" fill-rule="evenodd"/>
            <path id="Path_30763" data-name="Path 30763" d="M777.884,341.969l-2.42-2.149c-2.625-2.331-6.442-3.379-6.79-5.778h0l0-.013h0v0h0v0h0a2.65,2.65,0,0,0,0,.811c.348,2.4,4.165,3.446,6.79,5.778l2.42,2.149c2.052,1.821,4.216.521,3.746-2.176.215,1.591-2.008,2.942-3.746,1.4" transform="translate(-719.728 -193.034)" fill="#191728" fill-rule="evenodd"/>
            <path id="Path_30764" data-name="Path 30764" d="M781.624,287.431c2.535,3.589-3.8,13.523-2.069,25.89,1.175,8.387,3.467,22.466,2.92,30.412-.1,1.448-5.758,2.483-7.293-4.522-2.609-11.912-5.876-19.346-7.026-28.588l.611-26.807Z" transform="translate(-719.767 -197.015)" fill="#1b2953" fill-rule="evenodd"/>
            <path id="Path_30765" data-name="Path 30765" d="M774.466,285.956c.7,11.139-7.28,24.768-6.751,33.76.545,9.273-.464,20.549-.49,30.586,0,0-8.2,3.882-8.565-2.118-1.2-19.662-4.97-25.787.111-61.762Z" transform="translate(-720.716 -196.845)" fill="#263364" fill-rule="evenodd"/>
            <path id="Path_30766" data-name="Path 30766" d="M783.292,216.18a12.532,12.532,0,0,0-.605-6.573,14.76,14.76,0,0,0-2.544-4.119,7.43,7.43,0,0,0-3.725-2.061.772.772,0,0,0-.357-.018c-.421.107-.4.706-.291,1.126a44.909,44.909,0,0,1,1.77,7.261,8.459,8.459,0,0,1-1.135-1.99c-.434-1.122-1.032-.421-1.032-.421a13.141,13.141,0,0,0,1.393,4.91c.618.917,2.653,3.22,2.653,3.22.1.454.148.741.148.741S783.037,217.442,783.292,216.18Z" transform="translate(-719.195 -203.394)" fill="#ffc8af" fill-rule="evenodd"/>
            <path id="Path_30767" data-name="Path 30767" d="M776.367,249.723s5.154-13.073,5.509-17.2-2.788-15.382-2.788-15.382,2.727-4.057,4.582-4.436c4.5,9.468,5.712,17.178,5.712,22.243s-5.495,23.656-5.429,23.52S771.844,259.733,776.367,249.723Z" transform="translate(-719.196 -202.655)" fill="#2a4997"/>
            <path id="Path_30768" data-name="Path 30768" d="M759.56,278.193a114.488,114.488,0,0,1,1.716-21.307,14.674,14.674,0,0,1,3.5-3.568l4.825-2.724c1.864-.458,1.5-1.42,3.323-1.985a15.444,15.444,0,0,1,9.04-.011h0c3.869,1.639,4.611,4.248,2.889,9.244.041.224-.955,13.192-1.4,17.391-.042.412.487,15.531,1.138,20.072,0,0-2.828,2.585-3.609,3.237-7.5,4.163-23.355.1-24.063-3.7C756.651,293.422,757.768,284.175,759.56,278.193Z" transform="translate(-720.661 -199.861)" fill="#497fc1" fill-rule="evenodd"/>
            <g id="Group_10961" data-name="Group 10961" transform="translate(43.268 27.313)">
              <path id="Path_30769" data-name="Path 30769" d="M765.346,234.408s-1.025,3.778-1.217,4.546a7.321,7.321,0,0,0,0,2.37c.064.513-.832,1.921-.7,2.561s.7,4.483,1.922,5.573,3.458.7,3.458.7a25.467,25.467,0,0,0,0,3.843c.192.448,5.443.064,7.621-1.217s1.409-4.739,1.409-4.739l-5.571-13.64Z" transform="translate(-763.411 -228.247)" fill="#ffc8af"/>
              <path id="Path_30770" data-name="Path 30770" d="M765.223,234.861a11.232,11.232,0,0,1,0-4.612c.576-1.921,5.764-1.729,7.589-1.153s8.261,2.69,8.645,4.227a6.154,6.154,0,0,1,0,2.883s1.249,2.113,1.057,3.362-4.8,8.934-4.8,8.934-2.926.384-3.96-.48-2-4.227-3.34-4.611-1.825,2.113-1.825,2.113l-.865-.672s.48-2.786-.1-3.746a8.515,8.515,0,0,0-1.441-1.729l.768-2.978Z" transform="translate(-763.288 -228.7)" fill="#aa3927"/>
            </g>
            <path id="Path_30771" data-name="Path 30771" d="M737.38,273.633a12.539,12.539,0,0,1-6.543.868,14.83,14.83,0,0,1-4.581-1.566,7.45,7.45,0,0,1-2.838-3.175.786.786,0,0,1-.1-.344c.011-.434.6-.55,1.033-.534a44.91,44.91,0,0,0,7.472.115,8.446,8.446,0,0,0-2.193-.666c-1.191-.174-.639-.912-.639-.912a13.1,13.1,0,0,1,5.1.269l3.669,1.423.059.449c.464-.007.757-.019.757-.019S738.555,273.1,737.38,273.633Z" transform="translate(-723.323 -198.327)" fill="#ffc8af" fill-rule="evenodd"/>
            <path id="Path_30772" data-name="Path 30772" d="M772.075,262.416c2.224-3.085-.085-8.673-3.887-8.76a4.935,4.935,0,0,0-3.539.843c-2.515,2.082-6,11.018-9.243,16.018-7.485.652-18.992-.834-18.992-.834a5.3,5.3,0,0,0-.276,5.588c21.628,5.058,23.382,3.054,24.031,2.956S772.052,262.45,772.075,262.416Z" transform="translate(-722.358 -199.408)" fill="#2a4997"/>
          </g>
          <g id="Group_10963" data-name="Group 10963" transform="translate(138.775 52.95)">
            <path id="Path_30773" data-name="Path 30773" d="M781.283,194a4.427,4.427,0,1,0-7.81,2.854h0l3.384,4.05,3.4-4.05-.012-.01A4.408,4.408,0,0,0,781.283,194Z" transform="translate(-772.428 -189.572)" fill="aqua" fill-rule="evenodd"/>
            <circle id="Ellipse_534" data-name="Ellipse 534" cx="2.339" cy="2.339" r="2.339" transform="translate(2.088 2.089)" fill="#06baba"/>
          </g>
          <g id="Group_10964" data-name="Group 10964" transform="translate(110.275 51.906)">
            <path id="Path_30774" data-name="Path 30774" d="M754.878,193.032a4.428,4.428,0,1,0-7.81,2.854h0l3.384,4.05,3.4-4.05-.012-.01A4.408,4.408,0,0,0,754.878,193.032Z" transform="translate(-746.022 -188.604)" fill="aqua" fill-rule="evenodd"/>
            <path id="Path_30775" data-name="Path 30775" d="M752.636,192.879a2.339,2.339,0,1,1-2.339-2.34A2.339,2.339,0,0,1,752.636,192.879Z" transform="translate(-745.868 -188.451)" fill="#06baba" fill-rule="evenodd"/>
          </g>
          <g id="Group_10965" data-name="Group 10965" transform="translate(51.606 34.469)">
            <path id="Path_30776" data-name="Path 30776" d="M759.42,230.252c-.185-16.021-22.976-38.278-42.786-41.78-8.159-1.443-19-.2-24.341,13.907l-.629-.181c3.809-18.64,19.51-28.292,33.38-29.59,13.317-1.247,24.588,4.966,29.64,16.263,2.365-8.605,7.607-13.484,14.206-13.093,7.266.428,13.722,7.067,14.7,15.115l-.653.079c-.938-7.741-7.123-14.127-14.083-14.537-6.553-.385-11.586,4.544-13.77,13.53l-.24.988-.384-.94c-4.737-11.582-15.983-18-29.352-16.749-12.666,1.185-26.885,9.459-31.834,25.319,5.866-11.17,15.821-12.112,23.478-10.756,20.059,3.547,43.141,26.144,43.329,42.419Z" transform="translate(-691.664 -172.449)" fill="#475de6"/>
          </g>
          <g id="Group_10966" data-name="Group 10966" transform="translate(47.5 63.268)">
            <path id="Path_30777" data-name="Path 30777" d="M696.715,203.559a4.427,4.427,0,1,0-7.81,2.854h0l3.384,4.05,3.4-4.05-.012-.01A4.408,4.408,0,0,0,696.715,203.559Z" transform="translate(-687.86 -199.131)" fill="aqua" fill-rule="evenodd"/>
            <path id="Path_30778" data-name="Path 30778" d="M694.474,203.406a2.339,2.339,0,1,1-2.34-2.34A2.34,2.34,0,0,1,694.474,203.406Z" transform="translate(-687.706 -198.978)" fill="#06baba" fill-rule="evenodd"/>
          </g>
          <g id="Group_10967" data-name="Group 10967" transform="translate(115.264 92.268)">
            <path id="Path_30779" data-name="Path 30779" d="M759.5,230.427a4.427,4.427,0,1,0-7.81,2.854h0l3.384,4.05,3.4-4.05-.012-.01A4.4,4.4,0,0,0,759.5,230.427Z" transform="translate(-750.644 -226)" fill="aqua" fill-rule="evenodd"/>
            <path id="Path_30780" data-name="Path 30780" d="M757.258,230.274a2.339,2.339,0,1,1-2.34-2.339A2.34,2.34,0,0,1,757.258,230.274Z" transform="translate(-750.49 -225.847)" fill="#06baba" fill-rule="evenodd"/>
          </g>
        </g>
        <g id="Group_10969" data-name="Group 10969" transform="translate(222.391 34.018)">
          <path id="Path_30781" data-name="Path 30781" d="M841.834,178.556c0,6.493-4.587,9.108-10.245,5.841s-10.245-11.178-10.245-17.671,4.586-9.108,10.245-5.841S841.834,172.064,841.834,178.556Z" transform="translate(-821.344 -159.478)" fill="#bee1f4" fill-rule="evenodd"/>
          <path id="Path_30782" data-name="Path 30782" d="M839.475,177.08c0,5.1-3.6,7.154-8.047,4.588s-8.047-8.78-8.047-13.881,3.6-7.154,8.047-4.588S839.475,171.98,839.475,177.08Z" transform="translate(-821.182 -159.271)" fill="#ffe500" fill-rule="evenodd"/>
          <g id="Group_11594" data-name="Group 11594" transform="translate(-0.757 -4.364)">
            <g id="Group_9901" data-name="Group 9901" transform="translate(5.613 12.035) rotate(-10)">
              <g id="Group_9900" data-name="Group 9900" transform="translate(0 0)">
                <g id="Group_9903" data-name="Group 9903" transform="translate(0 0)">
                  <g id="Group_9898" data-name="Group 9898" transform="translate(0 0)">
                    <g id="Group_9902" data-name="Group 9902" transform="translate(0 0)">
                      <g id="Group_9900-2" data-name="Group 9900" transform="translate(0 0)">
                        <g id="Group_9899" data-name="Group 9899" clip-path="url(#clip-path-2)">
                          <g id="Group_9898-2" data-name="Group 9898" transform="translate(0.98 0.171)">
                            <path id="Path_29674" data-name="Path 29674" d="M6.5,1.411,6.456,1.4,4.276.826Q2.709.417,1.142.006A.067.067,0,0,0,1.06.032Q.742.419.422.8C.41.818.4.842.379.845l0,.013.06.016c.224.051.447.1.67.162a7.562,7.562,0,0,1,.773.244,3.259,3.259,0,0,1,.854.457,1.662,1.662,0,0,1,.606.9c.005.017.018.036.005.056Q2.1,2.343.861,1.99a.061.061,0,0,0-.077.028q-.3.416-.608.828a.055.055,0,0,0-.019.045l.376.1,1.756.476c.338.091.676.183,1.014.273.031.008.042.016.026.057-.025.059-.042.122-.066.181a1.708,1.708,0,0,1-.74.925,1.752,1.752,0,0,1-1.048.167,4.315,4.315,0,0,1-.652-.124C.618,4.889.414,4.823.21,4.752l-.013,0c-.031-.008-.045,0-.052.049-.042.281-.088.562-.134.841a.141.141,0,0,0,.012.09c.051.11.1.222.15.333l2.321,5.184a.106.106,0,0,0,.078.069l1.3.344.056.015c-.009-.021-.012-.033-.017-.045l-1.754-4Q1.8,6.8,1.441,5.98c-.007-.016-.025-.035-.013-.053s.012-.008.021-.006l.01,0a.03.03,0,0,0,.012,0,3.957,3.957,0,0,0,.556.023,2.822,2.822,0,0,0,1.509-.442A2.327,2.327,0,0,0,4.492,4.13c.013-.049.036-.043.068-.035q.469.112.94.227a.067.067,0,0,0,.077-.028q.3-.385.61-.771c.011-.013.027-.024.028-.045l-.226-.06Q5.351,3.258,4.711,3.1L4.7,3.1c-.03-.008-.041-.022-.035-.064a.769.769,0,0,0,0-.189,2.634,2.634,0,0,0-.293-.9c-.008-.016-.026-.03-.018-.056l.06.016,1.37.363a.067.067,0,0,0,.081-.03c.2-.261.408-.52.611-.78.01-.013.027-.022.026-.049" transform="translate(0 0)" fill="#ffff3f"/>
                          </g>
                        </g>
                      </g>
                    </g>
                  </g>
                </g>
              </g>
            </g>
            <path id="Path_29676" data-name="Path 29676" d="M6.589,1.435l-.05-.013L4.331.84Q2.744.424,1.156.006a.068.068,0,0,0-.083.027Q.751.425.427.813C.414.83.406.855.383.858l0,.014L.442.888c.227.052.453.1.679.165A7.645,7.645,0,0,1,1.9,1.3a3.3,3.3,0,0,1,.865.464,1.689,1.689,0,0,1,.614.914c.005.017.019.036.005.057Q2.129,2.381.872,2.021a.062.062,0,0,0-.078.028q-.307.422-.616.84a.056.056,0,0,0-.02.045l.381.1,1.779.484c.342.092.685.186,1.028.277.032.008.043.016.026.057-.025.059-.042.124-.067.184a1.733,1.733,0,0,1-.75.939,1.771,1.771,0,0,1-1.061.169,4.364,4.364,0,0,1-.66-.126C.626,4.966.419,4.9.213,4.826l-.014,0c-.032-.008-.045,0-.052.05-.043.285-.089.57-.136.854a.144.144,0,0,0,.012.091c.052.111.1.225.152.338l2.352,5.266a.107.107,0,0,0,.079.07l1.32.35.057.015c-.009-.021-.013-.033-.017-.046L2.188,7.743q-.364-.834-.728-1.669c-.007-.016-.025-.035-.013-.054s.012-.009.021-.006l.01,0a.03.03,0,0,0,.012,0,4,4,0,0,0,.563.023A2.852,2.852,0,0,0,3.58,5.593,2.363,2.363,0,0,0,4.55,4.2c.014-.05.037-.044.069-.035q.475.114.952.23a.067.067,0,0,0,.078-.028q.308-.391.618-.783c.011-.013.027-.024.029-.046l-.229-.061Q5.42,3.31,4.772,3.15l-.007,0c-.031-.008-.041-.022-.035-.065a.784.784,0,0,0,0-.192,2.681,2.681,0,0,0-.3-.914c-.008-.016-.026-.031-.018-.057l.061.016q.695.184,1.388.369a.067.067,0,0,0,.082-.03c.2-.266.413-.529.619-.792.01-.013.027-.023.027-.05" transform="translate(6.666 11.984) rotate(-10)" fill="#ff9400"/>
          </g>
        </g>
        <path id="Path_30783" data-name="Path 30783" d="M833.243,333.667l-41.867-24.172a6.562,6.562,0,0,1-3.281-5.683V262.591a3.3,3.3,0,0,1,4.953-2.859L834.915,283.9a6.562,6.562,0,0,1,3.281,5.683v41.221A3.3,3.3,0,0,1,833.243,333.667Z" transform="translate(-601.59 -117.544)" fill="#5c8fd8" fill-rule="evenodd"/>
        <g id="Group_10970" data-name="Group 10970" transform="translate(196.129 162.331)">
          <path id="Path_30784" data-name="Path 30784" d="M812.049,309.5l-6.115-3.53V289.339l6.115,3.53Z" transform="translate(-796.304 -277.491)" fill="#2ab7f6" fill-rule="evenodd"/>
          <path id="Path_30785" data-name="Path 30785" d="M803.127,304.815l-6.115-3.531V278.362l6.115,3.53Z" transform="translate(-797.012 -278.362)" fill="#0094d6" fill-rule="evenodd"/>
          <path id="Path_30786" data-name="Path 30786" d="M820.971,315.907l-6.115-3.53V278.7l6.115,3.53Z" transform="translate(-795.597 -278.335)" fill="aqua" fill-rule="evenodd"/>
        </g>
        <path id="Path_30787" data-name="Path 30787" d="M735.816,367.876l-29.932-17.281a4.692,4.692,0,0,1-2.345-4.063v-29.47a2.361,2.361,0,0,1,3.541-2.044L737.011,332.3a4.691,4.691,0,0,1,2.346,4.063v29.47A2.361,2.361,0,0,1,735.816,367.876Z" transform="translate(-608.297 -113.149)" fill="#5c8fd8" fill-rule="evenodd"/>
      </g>
    </g>
  </g>
</svg>
