<svg id="Group_2341" data-name="Group 2341" xmlns="http://www.w3.org/2000/svg" xmlns:xlink="http://www.w3.org/1999/xlink" width="496.623" height="492.763" viewBox="0 0 496.623 492.763">
  <defs>
    <linearGradient id="linear-gradient" x1="0.077" y1="-0.154" x2="0.799" y2="0.964" gradientUnits="objectBoundingBox">
      <stop offset="0" stop-color="#dff2fc"/>
      <stop offset="0.189" stop-color="#d7eaf8" stop-opacity="0.792"/>
      <stop offset="0.591" stop-color="#c7daf0" stop-opacity="0.369"/>
      <stop offset="0.869" stop-color="#bccfea" stop-opacity="0.102"/>
      <stop offset="0.999" stop-color="#b9cce9" stop-opacity="0"/>
    </linearGradient>
    <linearGradient id="linear-gradient-2" x1="0.644" y1="0.077" x2="0.387" y2="0.832" gradientUnits="objectBoundingBox">
      <stop offset="0" stop-color="#d3e3fd"/>
      <stop offset="0.189" stop-color="#d7e9f8" stop-opacity="0.792"/>
      <stop offset="0.591" stop-color="#c7daf0" stop-opacity="0.369"/>
      <stop offset="0.869" stop-color="#bccfea" stop-opacity="0.102"/>
      <stop offset="0.999" stop-color="#b9cce9" stop-opacity="0"/>
      <stop offset="1" stop-color="#b9cce9" stop-opacity="0"/>
    </linearGradient>
    <linearGradient id="linear-gradient-3" x1="0.478" y1="-0.316" x2="0.506" y2="0.715" xlink:href="#linear-gradient"/>
    <linearGradient id="linear-gradient-4" x1="0.327" y1="-0.424" x2="0.576" y2="0.907" xlink:href="#linear-gradient"/>
    <linearGradient id="linear-gradient-5" x1="-0.367" y1="0.439" x2="0.988" y2="0.514" gradientUnits="objectBoundingBox">
      <stop offset="0" stop-color="#dff2fc"/>
      <stop offset="0.037" stop-color="#ddf0fb"/>
      <stop offset="0.641" stop-color="#c2d5ed"/>
      <stop offset="0.999" stop-color="#b9cce9"/>
    </linearGradient>
    <linearGradient id="linear-gradient-6" x1="-0.008" y1="0.892" x2="0.886" y2="0.08" xlink:href="#linear-gradient-5"/>
    <linearGradient id="linear-gradient-7" x1="0.5" x2="0.5" y2="1" gradientUnits="objectBoundingBox">
      <stop offset="0" stop-color="#1951de"/>
      <stop offset="1" stop-color="#002c9a"/>
    </linearGradient>
    <linearGradient id="linear-gradient-8" x1="0.092" y1="-0.062" x2="1.09" y2="0.803" xlink:href="#linear-gradient-5"/>
    <linearGradient id="linear-gradient-9" x1="-941.577" y1="-2244.577" x2="942.337" y2="2244.744" xlink:href="#linear-gradient-5"/>
    <linearGradient id="linear-gradient-10" x1="-0.153" y1="0.291" x2="0.782" y2="0.617" xlink:href="#linear-gradient-5"/>
    <linearGradient id="linear-gradient-11" x1="1" y1="0.5" x2="0" y2="0.5" gradientUnits="objectBoundingBox">
      <stop offset="0" stop-color="#fafdff" stop-opacity="0"/>
      <stop offset="0.053" stop-color="#f8fbee" stop-opacity="0.071"/>
      <stop offset="0.317" stop-color="#f2f3a1" stop-opacity="0.396"/>
      <stop offset="0.553" stop-color="#eded64" stop-opacity="0.655"/>
      <stop offset="0.753" stop-color="#e9e838" stop-opacity="0.843"/>
      <stop offset="0.908" stop-color="#e7e61d" stop-opacity="0.957"/>
      <stop offset="0.999" stop-color="#e7e513"/>
    </linearGradient>
    <linearGradient id="linear-gradient-14" x1="7.078" y1="3.189" x2="-2.034" y2="-0.536" gradientUnits="objectBoundingBox">
      <stop offset="0" stop-color="#fafdff" stop-opacity="0"/>
      <stop offset="0.071" stop-color="#f8eaf2" stop-opacity="0.094"/>
      <stop offset="0.33" stop-color="#f4a9c6" stop-opacity="0.412"/>
      <stop offset="0.562" stop-color="#f176a4" stop-opacity="0.663"/>
      <stop offset="0.757" stop-color="#ee518b" stop-opacity="0.847"/>
      <stop offset="0.909" stop-color="#ed3a7b" stop-opacity="0.957"/>
      <stop offset="0.999" stop-color="#ed3276"/>
    </linearGradient>
    <linearGradient id="linear-gradient-15" x1="7.854" y1="3.506" x2="-1.258" y2="-0.219" xlink:href="#linear-gradient-14"/>
    <linearGradient id="linear-gradient-16" x1="8.63" y1="3.823" x2="-0.482" y2="0.099" xlink:href="#linear-gradient-14"/>
    <linearGradient id="linear-gradient-17" x1="1.093" y1="0.982" x2="-0.668" y2="-0.449" xlink:href="#linear-gradient-14"/>
    <linearGradient id="linear-gradient-18" x1="1.243" y1="1.104" x2="-0.518" y2="-0.327" xlink:href="#linear-gradient-14"/>
    <linearGradient id="linear-gradient-19" x1="1.393" y1="1.225" x2="-0.368" y2="-0.206" xlink:href="#linear-gradient-14"/>
    <linearGradient id="linear-gradient-20" x1="-6.666" y1="-2.731" x2="3.64" y2="1.916" xlink:href="#linear-gradient-11"/>
    <linearGradient id="linear-gradient-21" x1="-7.474" y1="-3.096" x2="2.832" y2="1.552" xlink:href="#linear-gradient-11"/>
    <linearGradient id="linear-gradient-22" x1="-8.282" y1="-3.46" x2="2.024" y2="1.187" xlink:href="#linear-gradient-11"/>
    <linearGradient id="linear-gradient-23" x1="-0.227" y1="-0.152" x2="1.765" y2="1.634" xlink:href="#linear-gradient-11"/>
    <linearGradient id="linear-gradient-24" x1="-0.384" y1="-0.292" x2="1.608" y2="1.494" xlink:href="#linear-gradient-11"/>
    <linearGradient id="linear-gradient-25" x1="-0.54" y1="-0.432" x2="1.452" y2="1.354" xlink:href="#linear-gradient-11"/>
    <linearGradient id="linear-gradient-35" x1="-0.128" y1="0.677" x2="1.101" y2="0.331" gradientUnits="objectBoundingBox">
      <stop offset="0" stop-color="#e7e7f3"/>
      <stop offset="1" stop-color="#c2bfdf"/>
    </linearGradient>
  </defs>
  <g id="Group_576" data-name="Group 576" transform="translate(30.48 240.32)" opacity="0.15">
    <path id="Path_4923" data-name="Path 4923" d="M1472.925,745.439l76.865,43.055c3.4,1.965,9.407,1.717,13.338-.554l25.568-15.251c3.932-2.27,4.363-5.735.958-7.7l-76.572-43.919c-3.4-1.966-9.407-1.717-13.338.552l-25.862,16.118C1469.952,740.009,1469.521,743.475,1472.925,745.439Z" transform="translate(-1470.629 -537.377)" fill="#b9cce9"/>
    <path id="Path_4924" data-name="Path 4924" d="M1437.492,703.788l76.866,43.053c3.4,1.966,9.406,1.718,13.338-.553l25.569-15.251c3.931-2.27,4.361-5.735.957-7.7l-76.572-43.919c-3.4-1.966-9.407-1.718-13.339.552l-25.861,16.117C1434.518,698.357,1434.087,701.822,1437.492,703.788Z" transform="translate(-1403.196 -533.339)" fill="#b9cce9"/>
    <path id="Path_4925" data-name="Path 4925" d="M1132.383,624.728l231.939,129.381c10.272,5.931,28.385,5.181,40.248-1.669L1539.7,674.422c11.863-6.85,13.164-17.306,2.89-23.238L1310.653,521.8c-10.274-5.932-28.385-5.181-40.25,1.668l-135.13,78.019C1123.409,608.339,1122.109,618.8,1132.383,624.728Z" transform="translate(-1116.484 -517.802)" fill="#b9cce9"/>
  </g>
  <g id="Group_585" data-name="Group 585" transform="translate(212.968)">
    <g id="Group_577" data-name="Group 577" transform="translate(47.219)">
      <path id="Path_4926" data-name="Path 4926" d="M1161.227,432.617a2.748,2.748,0,0,0,2.742-2.742V371.887a2.745,2.745,0,0,0-1.367-2.369l-69.7-40.243a2.7,2.7,0,0,0-1.362-.373,2.747,2.747,0,0,0-2.741,2.741v57.989a2.742,2.742,0,0,0,1.368,2.369l69.7,40.244A2.693,2.693,0,0,0,1161.227,432.617Z" transform="translate(-927.531 -259.17)" fill="url(#linear-gradient)"/>
      <path id="Path_4927" data-name="Path 4927" d="M1297.929,513.16a5.875,5.875,0,0,0,5.863-5.862V383.268a5.861,5.861,0,0,0-2.924-5.065l-149.085-86.075a5.764,5.764,0,0,0-2.912-.8,5.875,5.875,0,0,0-5.862,5.863V421.223a5.865,5.865,0,0,0,2.926,5.066l149.083,86.075A5.758,5.758,0,0,0,1297.929,513.16Z" transform="translate(-1116.314 -255.528)" fill="url(#linear-gradient-2)"/>
      <path id="Path_4928" data-name="Path 4928" d="M1341.03,343.6a2.435,2.435,0,0,0,2.429-2.429v-51.39a2.428,2.428,0,0,0-1.212-2.1l-61.771-35.664a2.386,2.386,0,0,0-1.207-.33,2.435,2.435,0,0,0-2.429,2.429V305.5a2.429,2.429,0,0,0,1.213,2.1l61.77,35.664A2.384,2.384,0,0,0,1341.03,343.6Z" transform="translate(-1276.84 -251.685)" fill="url(#linear-gradient-3)"/>
      <path id="Path_4929" data-name="Path 4929" d="M1181.485,569.758a2.434,2.434,0,0,0,2.428-2.429v-51.39a2.427,2.427,0,0,0-1.212-2.1l-61.772-35.664a2.385,2.385,0,0,0-1.206-.331,2.434,2.434,0,0,0-2.429,2.429v51.39a2.428,2.428,0,0,0,1.213,2.1l61.77,35.664A2.383,2.383,0,0,0,1181.485,569.758Z" transform="translate(-973.215 -273.608)" fill="url(#linear-gradient-4)"/>
    </g>
    <g id="Group_581" data-name="Group 581" transform="translate(56.033 74.648)">
      <g id="Group_578" data-name="Group 578" transform="translate(0 6.497)">
        <path id="Path_4930" data-name="Path 4930" d="M1301.253,362.081a8.663,8.663,0,0,0,3.961,6.763c2.186,1.263,3.959.282,3.959-2.191a8.668,8.668,0,0,0-3.959-6.764C1303.027,358.626,1301.253,359.607,1301.253,362.081Z" transform="translate(-1273.415 -343.266)" fill="#b9cce9"/>
        <path id="Path_4931" data-name="Path 4931" d="M1316.666,353.182a8.663,8.663,0,0,0,3.961,6.763c2.187,1.263,3.959.283,3.959-2.19a8.661,8.661,0,0,0-3.959-6.764C1318.44,349.727,1316.666,350.709,1316.666,353.182Z" transform="translate(-1302.747 -342.404)" fill="#b9cce9"/>
        <path id="Path_4932" data-name="Path 4932" d="M1332.079,344.283a8.663,8.663,0,0,0,3.961,6.764c2.187,1.263,3.96.282,3.96-2.191a8.663,8.663,0,0,0-3.96-6.764C1333.852,340.829,1332.079,341.81,1332.079,344.283Z" transform="translate(-1332.079 -341.541)" fill="#b9cce9"/>
      </g>
      <g id="Group_579" data-name="Group 579" transform="translate(120.481 55.73)">
        <path id="Path_4933" data-name="Path 4933" d="M1179.666,432.237a34.522,34.522,0,0,0,8.954,7.2c8.122,4.689,15.266,2.091,15.266-8.984,0-11.526-7.242-25.707-18.3-32.091-8.612-4.972-14.777-1.7-14.777,7.8,0,8.249,4.013,15.763,9.3,18.813,2.3,1.328,3.963.933,4.208-1.921l.1.057c1.517,3.757,3.719,6.5,6.313,7.994,3.181,1.837,5.48.452,5.48-4.18,0-6.893-4.4-15.707-11.449-19.774-2.153-1.244-4.6-2.035-5.823-1.95l1.468,11.3c.489,3.616.146,4.943-1.224,4.209-2.1-1.159-4.746-5.791-4.746-12.289,0-7.345,4.11-10.678,11.695-6.3,7.485,4.322,14.043,14.887,14.043,25.679,0,9.435-5.236,11.78-12.527,7.57a28.094,28.094,0,0,1-7.094-5.9Zm4.354-20.82a6.5,6.5,0,0,1,1.518.65c3.229,1.864,5.773,7.006,5.773,11.356,0,2.147-.832,3.023-2.446,2.091-1.811-1.046-3.719-4.8-4.16-8.333Z" transform="translate(-1170.809 -396.059)" fill="#b9cce9"/>
      </g>
      <g id="Group_580" data-name="Group 580" transform="translate(71.989)">
        <path id="Path_4934" data-name="Path 4934" d="M1257.176,355.116l-17.1,4.738c-.528.146-1.343-.323-1.872-1.079l-17.1-24.429Z" transform="translate(-1221.029 -334.346)" fill="#b9cce9"/>
        <path id="Path_4935" data-name="Path 4935" d="M1221.021,362.566l11.9,19.685a1.767,1.767,0,0,0,.322-1.071V359.207Z" transform="translate(-1197.016 -336.756)" fill="#b9cce9"/>
        <path id="Path_4936" data-name="Path 4936" d="M1234.6,357.121l-11.978,6a4.459,4.459,0,0,0,1.12.939l31.273,18.055a2.412,2.412,0,0,0,1.031.352l-11.963-19.814-4.705,1.308Z" transform="translate(-1221.266 -336.554)" fill="#b9cce9"/>
        <path id="Path_4937" data-name="Path 4937" d="M1247.707,336.046v21.975a4.073,4.073,0,0,0,.3,1.335l11.829-5.958Z" transform="translate(-1247.707 -334.511)" fill="#b9cce9"/>
      </g>
    </g>
    <g id="Group_584" data-name="Group 584" transform="translate(0 19.505)">
      <path id="Path_4938" data-name="Path 4938" d="M1265.058,359.553a.289.289,0,0,0,.289-.289V274.286l115.7,66.9a.289.289,0,0,0,.291-.5l-116.564-67.4v85.98A.289.289,0,0,0,1265.058,359.553Z" transform="translate(-1256.738 -273.284)" fill="#b9cce9"/>
      <g id="Group_583" data-name="Group 583" transform="translate(0 49.67)">
        <g id="Group_582" data-name="Group 582" transform="translate(0)">
          <path id="Path_4939" data-name="Path 4939" d="M1402.2,369.08a.555.555,0,0,0,.578-.549v-.059a.578.578,0,0,0-1.156,0A.6.6,0,0,0,1402.2,369.08Z" transform="translate(-1401.618 -332.125)" fill="#b9cce9"/>
          <path id="Path_4940" data-name="Path 4940" d="M1402.2,361.258a.534.534,0,0,0,.578-.524v-.109a.578.578,0,0,0-1.156,0A.627.627,0,0,0,1402.2,361.258Zm0-4.48a.534.534,0,0,0,.578-.524v-.109a.578.578,0,0,0-1.156,0A.627.627,0,0,0,1402.2,356.778Zm0-4.48a.534.534,0,0,0,.578-.524v-.109a.578.578,0,1,0-1.156,0A.627.627,0,0,0,1402.2,352.3Zm0-4.481a.533.533,0,0,0,.578-.523v-.11a.578.578,0,1,0-1.156,0A.627.627,0,0,0,1402.2,347.817Zm0-4.48a.534.534,0,0,0,.578-.524V342.7a.578.578,0,0,0-1.156,0A.627.627,0,0,0,1402.2,343.337Zm0-4.48a.534.534,0,0,0,.578-.524v-.109a.578.578,0,0,0-1.156,0A.626.626,0,0,0,1402.2,338.857Zm0-4.48a.534.534,0,0,0,.578-.524v-.109a.578.578,0,0,0-1.156,0A.627.627,0,0,0,1402.2,334.377Z" transform="translate(-1401.618 -328.759)" fill="#b9cce9"/>
          <path id="Path_4941" data-name="Path 4941" d="M1402.16,329.449a.577.577,0,0,0,.483-.242.357.357,0,0,0,.047-.07.553.553,0,0,0-.2-.771.631.631,0,0,0-.6-.007.578.578,0,0,0-.309.484A.6.6,0,0,0,1402.16,329.449Z" transform="translate(-1401.583 -328.286)" fill="#b9cce9"/>
          <path id="Path_4942" data-name="Path 4942" d="M1380.317,422.023a.578.578,0,0,0,.282-1.083l-.1-.056a.578.578,0,1,0-.563,1.01l.1.056A.569.569,0,0,0,1380.317,422.023Zm-4.135-2.307a.579.579,0,0,0,.282-1.084l-.1-.056a.578.578,0,0,0-.563,1.009l.1.056A.582.582,0,0,0,1376.182,419.715Zm-4.135-2.308a.578.578,0,0,0,.284-1.083.63.63,0,0,0-.838.192.532.532,0,0,0,.17.759l.1.057A.585.585,0,0,0,1372.047,417.407Zm-4.134-2.308a.578.578,0,0,0,.283-1.083l-.1-.057a.578.578,0,0,0-.563,1.01l.1.056A.57.57,0,0,0,1367.913,415.1Zm-4.135-2.308a.579.579,0,0,0,.283-1.084l-.1-.056a.578.578,0,1,0-.564,1.01l.1.056A.576.576,0,0,0,1363.778,412.79Zm-4.135-2.308a.579.579,0,0,0,.284-1.083.629.629,0,0,0-.838.192.532.532,0,0,0,.171.759l.1.057A.583.583,0,0,0,1359.643,410.482Zm-4.135-2.308a.579.579,0,0,0,.285-1.083.63.63,0,0,0-.838.192.53.53,0,0,0,.171.759l.1.057A.584.584,0,0,0,1355.508,408.174Zm-4.134-2.308a.578.578,0,0,0,.283-1.083l-.1-.057a.578.578,0,0,0-.563,1.01l.1.057A.594.594,0,0,0,1351.375,405.866Zm-4.135-2.308a.578.578,0,0,0,.282-1.083l-.1-.057a.578.578,0,1,0-.563,1.01l.1.057A.577.577,0,0,0,1347.24,403.557Zm-4.135-2.308a.578.578,0,0,0,.282-1.084.631.631,0,0,0-.837.2.531.531,0,0,0,.175.758l.1.056A.577.577,0,0,0,1343.1,401.249Zm-4.134-2.308a.578.578,0,0,0,.281-1.085.632.632,0,0,0-.837.2.532.532,0,0,0,.176.758l.1.056A.582.582,0,0,0,1338.971,398.941Zm-4.135-2.308a.578.578,0,0,0,.281-1.084.629.629,0,0,0-.836.2.531.531,0,0,0,.175.758l.1.056A.577.577,0,0,0,1334.836,396.633Zm-4.134-2.308a.578.578,0,0,0,.282-1.084.631.631,0,0,0-.837.2.531.531,0,0,0,.175.758l.1.056A.579.579,0,0,0,1330.7,394.325Zm-4.135-2.308a.578.578,0,0,0,.282-1.084.629.629,0,0,0-.836.2.53.53,0,0,0,.173.758l.1.056A.576.576,0,0,0,1326.566,392.016Zm-4.134-2.308a.578.578,0,0,0,.281-1.084.631.631,0,0,0-.837.2.533.533,0,0,0,.176.758l.1.056A.575.575,0,0,0,1322.432,389.708ZM1318.3,387.4a.579.579,0,0,0,.282-1.084l-.1-.056a.578.578,0,0,0-.563,1.01l.1.056A.566.566,0,0,0,1318.3,387.4Zm-4.136-2.308a.579.579,0,0,0,.285-1.083.63.63,0,0,0-.838.192.533.533,0,0,0,.171.759l.1.057A.573.573,0,0,0,1314.162,385.093Zm-4.134-2.308a.578.578,0,0,0,.282-1.083l-.1-.057a.578.578,0,1,0-.563,1.01l.1.057A.572.572,0,0,0,1310.029,382.784Zm-4.134-2.308a.578.578,0,0,0,.282-1.083l-.1-.057a.578.578,0,0,0-.563,1.01l.1.057A.579.579,0,0,0,1305.894,380.476Zm-4.135-2.308a.579.579,0,0,0,.284-1.083.63.63,0,0,0-.838.193.531.531,0,0,0,.17.759l.1.057A.576.576,0,0,0,1301.759,378.168Zm-4.135-2.308a.578.578,0,0,0,.284-1.083.629.629,0,0,0-.838.193.532.532,0,0,0,.171.759l.1.057A.573.573,0,0,0,1297.624,375.86Zm-4.135-2.308a.578.578,0,0,0,.283-1.083l-.1-.057a.578.578,0,0,0-.564,1.01l.1.057A.575.575,0,0,0,1293.49,373.551Zm-4.134-2.308a.578.578,0,0,0,.281-1.083l-.1-.057a.578.578,0,0,0-.565,1.01l.1.057A.579.579,0,0,0,1289.356,371.243Zm-4.135-2.308a.578.578,0,0,0,.284-1.082.63.63,0,0,0-.838.192.532.532,0,0,0,.171.76l.1.056A.572.572,0,0,0,1285.22,368.935Zm-4.134-2.308a.578.578,0,0,0,.283-1.082.628.628,0,0,0-.838.192.532.532,0,0,0,.171.759l.1.056A.575.575,0,0,0,1281.086,366.627Zm-4.134-2.308a.578.578,0,0,0,.281-1.083l-.1-.057a.578.578,0,1,0-.563,1.01l.1.057A.577.577,0,0,0,1276.952,364.319Zm-4.135-2.308a.578.578,0,0,0,.282-1.083l-.1-.057a.578.578,0,1,0-.563,1.01l.1.057A.577.577,0,0,0,1272.817,362.01Zm-4.135-2.308a.578.578,0,0,0,.284-1.082.629.629,0,0,0-.838.192.532.532,0,0,0,.171.76l.1.056A.575.575,0,0,0,1268.682,359.7Zm-4.134-2.308a.578.578,0,0,0,.283-1.082.631.631,0,0,0-.837.192.533.533,0,0,0,.17.759l.1.056A.579.579,0,0,0,1264.548,357.394Zm-4.134-2.308a.578.578,0,0,0,.281-1.083.63.63,0,0,0-.837.2.533.533,0,0,0,.174.759l.1.056A.573.573,0,0,0,1260.414,355.086Zm-4.134-2.307a.579.579,0,0,0,.279-1.085l-.1-.056a.579.579,0,0,0-.559,1.013l.1.056A.574.574,0,0,0,1256.28,352.778Zm-4.136-2.309a.578.578,0,0,0,.281-1.083.63.63,0,0,0-.837.2.533.533,0,0,0,.174.759l.1.056A.573.573,0,0,0,1252.144,350.469Zm-4.134-2.308a.578.578,0,0,0,.282-1.083.632.632,0,0,0-.837.2.533.533,0,0,0,.174.759l.1.056A.576.576,0,0,0,1248.01,348.161Zm-4.135-2.307a.579.579,0,0,0,.282-1.084.631.631,0,0,0-.837.2.533.533,0,0,0,.174.759l.1.056A.579.579,0,0,0,1243.874,345.854Zm-4.134-2.308a.579.579,0,0,0,.282-1.084.632.632,0,0,0-.837.2.533.533,0,0,0,.174.759l.1.056A.575.575,0,0,0,1239.74,343.545Zm-4.134-2.308a.578.578,0,0,0,.282-1.083l-.1-.057a.578.578,0,0,0-.563,1.01l.1.057A.57.57,0,0,0,1235.606,341.237Zm-4.135-2.308a.578.578,0,0,0,.284-1.082.633.633,0,0,0-.838.192.532.532,0,0,0,.171.759l.1.056A.578.578,0,0,0,1231.471,338.929Zm-4.134-2.308a.578.578,0,0,0,.284-1.082.632.632,0,0,0-.838.192.533.533,0,0,0,.17.759l.1.056A.581.581,0,0,0,1227.337,336.621Zm-4.134-2.308a.578.578,0,0,0,.281-1.083l-.1-.057a.578.578,0,1,0-.563,1.01l.1.057A.57.57,0,0,0,1223.2,334.313ZM1219.068,332a.578.578,0,0,0,.283-1.082.631.631,0,0,0-.838.192.533.533,0,0,0,.171.759l.1.056A.579.579,0,0,0,1219.068,332Z" transform="translate(-1214.304 -328.534)" fill="#b9cce9"/>
          <path id="Path_4943" data-name="Path 4943" d="M1214.513,434.239a.553.553,0,0,0,.578-.549.675.675,0,0,0-.294-.562.6.6,0,0,0-.813.206.628.628,0,0,0,.53.9Z" transform="translate(-1044.416 -338.441)" fill="#b9cce9"/>
          <path id="Path_4944" data-name="Path 4944" d="M1214.482,469.178a.577.577,0,0,0,.578-.578v-.12a.578.578,0,0,0-1.156,0v.12A.578.578,0,0,0,1214.482,469.178Zm0-4.913a.577.577,0,0,0,.578-.578v-.12a.578.578,0,1,0-1.156,0v.12A.578.578,0,0,0,1214.482,464.265Zm0-4.913a.577.577,0,0,0,.578-.578v-.12a.578.578,0,1,0-1.156,0v.12A.578.578,0,0,0,1214.482,459.353Zm0-4.913a.577.577,0,0,0,.578-.578v-.12a.578.578,0,1,0-1.156,0v.12A.578.578,0,0,0,1214.482,454.44Zm0-4.913a.577.577,0,0,0,.578-.578v-.12a.578.578,0,1,0-1.156,0v.12A.578.578,0,0,0,1214.482,449.527Zm0-4.913a.577.577,0,0,0,.578-.578v-.12a.578.578,0,0,0-1.156,0v.12A.577.577,0,0,0,1214.482,444.615Zm0-4.913a.577.577,0,0,0,.578-.578V439a.578.578,0,0,0-1.156,0v.12A.577.577,0,0,0,1214.482,439.7Z" transform="translate(-1044.385 -338.962)" fill="#b9cce9"/>
          <path id="Path_4945" data-name="Path 4945" d="M1214.482,477.723a.577.577,0,0,0,.578-.578.6.6,0,0,0-.578-.607.554.554,0,0,0-.578.549v.058A.578.578,0,0,0,1214.482,477.723Z" transform="translate(-1044.385 -342.657)" fill="#b9cce9"/>
        </g>
        <path id="Path_4946" data-name="Path 4946" d="M1161.44,496.586a.289.289,0,0,0,.29-.289V450.08l-.154-.081-27.141-14.368a.29.29,0,0,0-.272.511l26.988,14.286V496.3A.29.29,0,0,0,1161.44,496.586Z" transform="translate(-918.907 -338.688)" fill="#b9cce9"/>
        <path id="Path_4947" data-name="Path 4947" d="M1207.633,563.612a.532.532,0,0,0,.579-.52v-.116a.578.578,0,0,0-1.157,0A.63.63,0,0,0,1207.633,563.612Zm0-4.683a.578.578,0,0,0,.579-.578v-.117a.578.578,0,0,0-1.157,0v.117A.578.578,0,0,0,1207.633,558.929Zm0-4.8a.533.533,0,0,0,.579-.521v-.115a.578.578,0,0,0-1.157,0A.63.63,0,0,0,1207.633,554.131Zm0-4.683a.578.578,0,0,0,.579-.578v-.117a.578.578,0,0,0-1.157,0v.117A.578.578,0,0,0,1207.633,549.447Zm0-4.8a.532.532,0,0,0,.579-.521v-.115a.578.578,0,1,0-1.157,0A.631.631,0,0,0,1207.633,544.648Zm0-4.741a.532.532,0,0,0,.579-.52v-.116a.578.578,0,0,0-1.157,0A.63.63,0,0,0,1207.633,539.907Zm0-4.683a.579.579,0,0,0,.579-.579v-.117a.578.578,0,0,0-1.157,0v.117A.579.579,0,0,0,1207.633,535.225Zm0-4.8a.532.532,0,0,0,.579-.52v-.115a.578.578,0,0,0-1.157,0A.63.63,0,0,0,1207.633,530.425Zm0-4.683a.578.578,0,0,0,.579-.578v-.117a.578.578,0,0,0-1.157,0v.117A.578.578,0,0,0,1207.633,525.742Zm0-4.8a.532.532,0,0,0,.579-.521v-.115a.578.578,0,0,0-1.157,0A.63.63,0,0,0,1207.633,520.943Zm0-4.683a.578.578,0,0,0,.579-.578v-.116a.578.578,0,1,0-1.157,0v.116A.578.578,0,0,0,1207.633,516.26Zm0-4.741a.578.578,0,0,0,.579-.578v-.116a.578.578,0,1,0-1.157,0v.116A.578.578,0,0,0,1207.633,511.518Zm0-4.8a.532.532,0,0,0,.579-.52v-.116a.578.578,0,0,0-1.157,0A.63.63,0,0,0,1207.633,506.72Zm0-4.682a.579.579,0,0,0,.579-.579v-.116a.578.578,0,0,0-1.157,0v.116A.579.579,0,0,0,1207.633,502.037Zm0-4.742a.578.578,0,0,0,.579-.578V496.6a.578.578,0,0,0-1.157,0v.116A.578.578,0,0,0,1207.633,497.3Zm0-4.741a.578.578,0,0,0,.579-.578v-.115a.578.578,0,0,0-1.157,0v.115A.578.578,0,0,0,1207.633,492.554Zm0-4.741a.578.578,0,0,0,.579-.578v-.116a.578.578,0,1,0-1.157,0v.116A.578.578,0,0,0,1207.633,487.813Zm0-4.8a.532.532,0,0,0,.579-.52v-.116a.578.578,0,0,0-1.157,0A.63.63,0,0,0,1207.633,483.014Zm0-4.682a.579.579,0,0,0,.579-.579v-.116a.578.578,0,0,0-1.157,0v.116A.579.579,0,0,0,1207.633,478.332Zm0-4.741a.579.579,0,0,0,.579-.579V472.9a.578.578,0,0,0-1.157,0v.116A.579.579,0,0,0,1207.633,473.591Zm0-4.741a.579.579,0,0,0,.579-.579v-.116a.578.578,0,0,0-1.157,0v.116A.579.579,0,0,0,1207.633,468.85Zm0-4.742a.578.578,0,0,0,.579-.578v-.116a.578.578,0,0,0-1.157,0v.116A.578.578,0,0,0,1207.633,464.108Zm0-4.8a.532.532,0,0,0,.579-.521v-.115a.578.578,0,1,0-1.157,0A.631.631,0,0,0,1207.633,459.31Zm0-4.683a.579.579,0,0,0,.579-.578v-.117a.578.578,0,0,0-1.157,0v.117A.579.579,0,0,0,1207.633,454.626Zm0-4.741a.579.579,0,0,0,.579-.578v-.116a.578.578,0,0,0-1.157,0v.116A.579.579,0,0,0,1207.633,449.885Zm0-4.741a.579.579,0,0,0,.579-.579v-.116a.578.578,0,0,0-1.157,0v.116A.579.579,0,0,0,1207.633,445.144Zm0-4.741a.579.579,0,0,0,.579-.579v-.115a.578.578,0,0,0-1.157,0v.115A.579.579,0,0,0,1207.633,440.4Zm0-4.8a.532.532,0,0,0,.579-.521v-.115a.578.578,0,1,0-1.157,0A.63.63,0,0,0,1207.633,435.6Zm0-4.683a.578.578,0,0,0,.579-.578v-.116a.578.578,0,1,0-1.157,0v.116A.578.578,0,0,0,1207.633,430.921Zm0-4.741a.578.578,0,0,0,.579-.578v-.116a.578.578,0,0,0-1.157,0v.116A.578.578,0,0,0,1207.633,426.18Zm0-4.741a.579.579,0,0,0,.579-.578v-.117a.578.578,0,0,0-1.157,0v.117A.579.579,0,0,0,1207.633,421.439Zm0-4.741a.579.579,0,0,0,.579-.579V416a.578.578,0,0,0-1.157,0v.116A.579.579,0,0,0,1207.633,416.7Zm0-4.8a.532.532,0,0,0,.579-.521v-.115a.578.578,0,0,0-1.157,0A.63.63,0,0,0,1207.633,411.9Zm0-4.683a.578.578,0,0,0,.579-.578v-.116a.578.578,0,1,0-1.157,0v.116A.578.578,0,0,0,1207.633,407.215Zm0-4.741a.578.578,0,0,0,.579-.578v-.116a.578.578,0,0,0-1.157,0v.116A.578.578,0,0,0,1207.633,402.474Zm0-4.741a.578.578,0,0,0,.579-.578v-.115a.578.578,0,1,0-1.157,0v.115A.578.578,0,0,0,1207.633,397.733Zm0-4.741a.579.579,0,0,0,.579-.578V392.3a.578.578,0,0,0-1.157,0v.117A.579.579,0,0,0,1207.633,392.992Zm-2.232-3.445a.578.578,0,0,0,.288-1.079l-.1-.058a.578.578,0,1,0-.576,1l.1.057A.573.573,0,0,0,1205.4,389.547Zm-4.178-2.4a.581.581,0,0,0,.513-.271.532.532,0,0,0-.166-.76l-.1-.058a.578.578,0,0,0-.573,1A.653.653,0,0,0,1201.223,387.148ZM1197.1,384.8a.58.58,0,0,0,.515-.272.532.532,0,0,0-.168-.76l-.1-.057a.578.578,0,0,0-.571,1.006A.659.659,0,0,0,1197.1,384.8Zm-4.057-2.3a.578.578,0,0,0,.288-1.08l-.1-.057a.578.578,0,0,0-.575,1l.1.058A.575.575,0,0,0,1193.047,382.5Zm-4.179-2.4a.582.582,0,0,0,.515-.272.532.532,0,0,0-.168-.76l-.1-.057a.578.578,0,1,0-.571,1.006A.664.664,0,0,0,1188.867,380.1Zm-4.118-2.349a.583.583,0,0,0,.515-.272.533.533,0,0,0-.168-.76l-.1-.057a.578.578,0,0,0-.571,1.006A.668.668,0,0,0,1184.749,377.753Zm-4.056-2.3a.578.578,0,0,0,.287-1.079l-.1-.058a.578.578,0,1,0-.574,1l.1.058A.564.564,0,0,0,1180.693,375.453Zm-4.18-2.4a.581.581,0,0,0,.515-.272.532.532,0,0,0-.168-.76l-.1-.057a.578.578,0,1,0-.57,1.006A.651.651,0,0,0,1176.513,373.054Zm-4.117-2.349a.58.58,0,0,0,.514-.272.532.532,0,0,0-.168-.76l-.1-.057a.578.578,0,1,0-.57,1.006A.655.655,0,0,0,1172.4,370.705Zm-4.057-2.3a.578.578,0,0,0,.288-1.08l-.1-.058a.578.578,0,0,0-.574,1l.1.058A.576.576,0,0,0,1168.338,368.406Zm-4.18-2.4a.581.581,0,0,0,.514-.273.532.532,0,0,0-.167-.76l-.1-.057a.578.578,0,0,0-.572,1.006A.667.667,0,0,0,1164.158,366.008Zm-4.118-2.349a.585.585,0,0,0,.515-.273.531.531,0,0,0-.168-.759l-.1-.057a.578.578,0,0,0-.57,1.006A.667.667,0,0,0,1160.041,363.659Zm-4.057-2.3a.578.578,0,0,0,.288-1.079l-.1-.058a.578.578,0,1,0-.575,1l.1.058A.567.567,0,0,0,1155.983,361.359Z" transform="translate(-984.619 -331.374)" fill="#b9cce9"/>
        <path id="Path_4948" data-name="Path 4948" d="M1290.309,395.955a.584.584,0,0,0,.512-.269.532.532,0,0,0-.164-.76l-.1-.058a.578.578,0,0,0-.576,1A.658.658,0,0,0,1290.309,395.955Zm1.9-1.394a.578.578,0,0,0,.578-.578v-.116a.578.578,0,0,0-1.157,0v.116A.578.578,0,0,0,1292.2,394.561Zm-6-.979a.58.58,0,0,0,.512-.269.53.53,0,0,0-.162-.76l-.1-.058a.578.578,0,1,0-.577,1A.66.66,0,0,0,1286.2,393.582Zm-4.1-2.374a.583.583,0,0,0,.512-.268.532.532,0,0,0-.163-.761l-.1-.057a.578.578,0,1,0-.578,1A.658.658,0,0,0,1282.1,391.208Zm10.1-1.388a.578.578,0,0,0,.578-.578v-.115a.578.578,0,0,0-1.157,0v.115A.578.578,0,0,0,1292.2,389.82ZM1278,388.835a.582.582,0,0,0,.512-.269.532.532,0,0,0-.162-.76l-.1-.058a.578.578,0,1,0-.578,1A.659.659,0,0,0,1278,388.835Zm-4.044-2.324a.578.578,0,0,0,.291-1.078l-.1-.059a.578.578,0,1,0-.578,1l.1.059A.576.576,0,0,0,1273.952,386.511Zm18.253-1.432a.578.578,0,0,0,.578-.578.63.63,0,0,0-.578-.636.532.532,0,0,0-.579.52v.116A.578.578,0,0,0,1292.2,385.079Zm-22.415-.991a.578.578,0,0,0,.509-.266.531.531,0,0,0-.16-.761l-.1-.059a.578.578,0,0,0-.582,1A.652.652,0,0,0,1269.789,384.087Zm-4.1-2.374a.58.58,0,0,0,.51-.266.532.532,0,0,0-.16-.762l-.1-.058a.578.578,0,1,0-.581,1A.659.659,0,0,0,1265.684,381.713Zm26.52-1.374a.579.579,0,0,0,.578-.578v-.117a.578.578,0,0,0-1.157,0v.117A.579.579,0,0,0,1292.2,380.339Zm-30.565-.949a.578.578,0,0,0,.291-1.078l-.1-.058a.578.578,0,1,0-.58,1l.1.058A.575.575,0,0,0,1261.64,379.389Zm-4.164-2.424a.579.579,0,0,0,.51-.265.533.533,0,0,0-.159-.762l-.1-.058a.578.578,0,1,0-.582,1A.657.657,0,0,0,1257.475,376.966ZM1292.2,375.6a.579.579,0,0,0,.578-.579V374.9a.578.578,0,0,0-1.157,0v.116A.579.579,0,0,0,1292.2,375.6Zm-38.832-1.005a.579.579,0,0,0,.511-.268.532.532,0,0,0-.163-.76l-.1-.058a.578.578,0,1,0-.577,1A.662.662,0,0,0,1253.372,374.592Zm-4.045-2.323a.578.578,0,0,0,.288-1.079l-.1-.058a.577.577,0,1,0-.574,1l.1.058A.578.578,0,0,0,1249.328,372.269Zm-4.163-2.424a.579.579,0,0,0,.511-.268.532.532,0,0,0-.163-.76l-.1-.058a.578.578,0,1,0-.577,1A.661.661,0,0,0,1245.164,369.845Z" transform="translate(-1149.78 -332.201)" fill="#b9cce9"/>
      </g>
    </g>
  </g>
  <g id="Group_592" data-name="Group 592" transform="translate(63.204 44.177)">
    <g id="Group_587" data-name="Group 587" transform="translate(0 30.246)">
      <path id="Path_4949" data-name="Path 4949" d="M1460.963,365.944l41.968,24.23c3.061,1.766,8.455,1.543,11.989-.5l40.246-23.237c3.533-2.04,3.921-5.155.86-6.921l-41.968-24.23c-3.059-1.766-8.453-1.543-11.987.5l-40.247,23.237C1458.291,361.063,1457.9,364.177,1460.963,365.944Z" transform="translate(-1458.899 -334.097)" fill="#c9d9fe"/>
      <g id="Group_586" data-name="Group 586" transform="translate(0.009 28.953)">
        <path id="Path_4950" data-name="Path 4950" d="M1513.863,518.03V366.651h0a3.813,3.813,0,0,0,2.007,2.449l41.968,24.23a10.882,10.882,0,0,0,5.567,1.176V546.967a10.877,10.877,0,0,1-5.567-1.175l-41.968-24.231C1514.27,520.637,1513.621,519.345,1513.863,518.03Z" transform="translate(-1513.814 -366.206)" fill="#ecf2fe"/>
        <path id="Path_4951" data-name="Path 4951" d="M1465.322,392.785l40.247-23.237a5.35,5.35,0,0,0,2.866-3.39V517.537c.311,1.518-.668,3.2-2.866,4.474l-40.247,23.236a13.828,13.828,0,0,1-6.421,1.672V394.457A13.825,13.825,0,0,0,1465.322,392.785Z" transform="translate(-1409.31 -366.158)" fill="#dededd"/>
        <path id="Path_4952" data-name="Path 4952" d="M1465.322,392.785l40.247-23.237a5.35,5.35,0,0,0,2.866-3.39V517.537c.311,1.518-.668,3.2-2.866,4.474l-40.247,23.236a13.828,13.828,0,0,1-6.421,1.672V394.457A13.825,13.825,0,0,0,1465.322,392.785Z" transform="translate(-1409.31 -366.158)" fill="#b9cbf0"/>
      </g>
    </g>
    <g id="Group_591" data-name="Group 591" transform="translate(3.119)">
      <g id="Group_589" data-name="Group 589">
        <path id="Path_4953" data-name="Path 4953" d="M1456.075,377.573c0,8.6,4.549,13.34,11.015,12.723a8.189,8.189,0,0,0,4.97-1.283l53.634-30.965a14.293,14.293,0,0,0,1.312-.861c9.037-6.266,16.09-19.148,16.09-29.855,0-10.43-6.686-15.188-15.376-11.585-1.3-7.408-7.488-10.018-14.928-5.723a27.155,27.155,0,0,0-6.888,5.884c-3.95-3.352-9.981-3.473-16.743.432-10.158,5.864-18.669,18.906-20.929,31.143a14.23,14.23,0,0,0-5.569,10.272C1458.643,363.864,1456.075,371.109,1456.075,377.573Z" transform="translate(-1444.474 -301.316)" fill="#1951de"/>
        <g id="Group_588" data-name="Group 588" transform="translate(0)">
          <path id="Path_4954" data-name="Path 4954" d="M1468.806,350.406a14.226,14.226,0,0,1,5.568-10.271c2.26-12.238,10.771-25.279,20.929-31.144,5.948-3.434,11.329-3.752,15.227-1.5l1.638.936a27.1,27.1,0,0,1,6.766-5.752c4.213-2.433,8.023-2.647,10.772-1.033l9.763,5.585a9.237,9.237,0,0,1,4.335,1.069l11.487,6.57c-2.638-1.382-6.043-1.4-9.828.168-1.3-7.408-7.488-10.018-14.927-5.723a27.154,27.154,0,0,0-6.888,5.884c-3.95-3.352-9.98-3.473-16.744.432-10.157,5.864-18.668,18.906-20.929,31.143a14.235,14.235,0,0,0-5.568,10.272c-4.019,6.11-6.588,13.356-6.588,19.819,0,5.852,2.112,9.913,5.5,11.718l-11.485-6.568c-3.455-1.774-5.613-5.865-5.613-11.786C1462.219,363.762,1464.786,356.516,1468.806,350.406Z" transform="translate(-1462.219 -300.605)" fill="#2764ff"/>
        </g>
      </g>
      <g id="Group_590" data-name="Group 590" transform="translate(32.797 42.909)">
        <path id="Path_4955" data-name="Path 4955" d="M1475.769,354.316c0,2.115,1.485,2.972,3.316,1.915a7.327,7.327,0,0,0,3.316-5.744c0-2.115-1.484-2.972-3.316-1.914A7.331,7.331,0,0,0,1475.769,354.316Z" transform="translate(-1434.361 -348.119)" fill="#fff"/>
        <ellipse id="Ellipse_130" data-name="Ellipse 130" cx="2.708" cy="4.69" rx="2.708" ry="4.69" transform="translate(34.372 15.674) rotate(-149.999)" fill="#fff"/>
        <path id="Path_4956" data-name="Path 4956" d="M1498.7,367.553c0,2.115,1.484,2.972,3.315,1.914a7.328,7.328,0,0,0,3.317-5.743c0-2.115-1.485-2.972-3.317-1.915A7.329,7.329,0,0,0,1498.7,367.553Z" transform="translate(-1477.992 -349.403)" fill="#fff"/>
        <path id="Path_4957" data-name="Path 4957" d="M1510.159,374.172c0,2.114,1.484,2.972,3.317,1.914a7.33,7.33,0,0,0,3.316-5.743c0-2.114-1.486-2.972-3.316-1.915A7.33,7.33,0,0,0,1510.159,374.172Z" transform="translate(-1499.807 -350.044)" fill="#fff"/>
        <path id="Path_4958" data-name="Path 4958" d="M1521.622,380.79c0,2.115,1.484,2.972,3.315,1.914a7.33,7.33,0,0,0,3.318-5.743c0-2.115-1.485-2.972-3.318-1.914A7.328,7.328,0,0,0,1521.622,380.79Z" transform="translate(-1521.622 -350.686)" fill="#fff"/>
      </g>
    </g>
  </g>
  <g id="Group_594" data-name="Group 594" transform="translate(62.479 341.99)">
    <path id="Path_4959" data-name="Path 4959" d="M1437.492,656.082l76.866,43.054c3.4,1.966,9.406,1.717,13.338-.553l25.569-15.251c3.931-2.27,4.361-5.736.957-7.7l-76.572-43.92c-3.4-1.966-9.407-1.717-13.339.553l-25.861,16.118C1434.518,650.651,1434.087,654.115,1437.492,656.082Z" transform="translate(-1435.195 -630.384)" fill="#ecf2fe"/>
    <g id="Group_593" data-name="Group 593" transform="translate(0.01 22.972)">
      <path id="Path_4960" data-name="Path 4960" d="M1475.078,663.356v-7.532h0a4.241,4.241,0,0,0,2.233,2.726l76.865,43.053a12.083,12.083,0,0,0,6.193,1.308v8.736a12.085,12.085,0,0,1-6.193-1.308l-76.865-43.054C1475.529,666.257,1474.807,664.818,1475.078,663.356Z" transform="translate(-1475.023 -655.822)" fill="#c9d9fe"/>
      <path id="Path_4961" data-name="Path 4961" d="M1442.341,703.861l25.568-15.251a5.955,5.955,0,0,0,3.19-3.772v7.532c.346,1.689-.743,3.564-3.19,4.977L1442.341,712.6a15.377,15.377,0,0,1-7.145,1.86v-8.736A15.374,15.374,0,0,0,1442.341,703.861Z" transform="translate(-1349.851 -658.635)" fill="#b9cbf0"/>
    </g>
  </g>
  <g id="Group_596" data-name="Group 596" transform="translate(30.48 389.353)">
    <path id="Path_4962" data-name="Path 4962" d="M1472.925,708.529l76.865,43.054c3.4,1.965,9.407,1.717,13.338-.554l25.568-15.251c3.932-2.271,4.363-5.735.958-7.7l-76.572-43.92c-3.4-1.966-9.407-1.717-13.338.553l-25.862,16.118C1469.952,703.1,1469.521,706.564,1472.925,708.529Z" transform="translate(-1470.629 -682.831)" fill="#ecf2fe"/>
    <g id="Group_595" data-name="Group 595" transform="translate(0.009 22.973)">
      <path id="Path_4963" data-name="Path 4963" d="M1510.511,715.8v-7.531h0a4.238,4.238,0,0,0,2.232,2.724l76.866,43.055a12.1,12.1,0,0,0,6.194,1.308v8.737a12.1,12.1,0,0,1-6.194-1.309l-76.866-43.054C1510.963,718.7,1510.241,717.266,1510.511,715.8Z" transform="translate(-1510.456 -708.27)" fill="#c9d9fe"/>
      <path id="Path_4964" data-name="Path 4964" d="M1477.775,756.308l25.568-15.251a5.956,5.956,0,0,0,3.191-3.772v7.532c.346,1.69-.743,3.564-3.191,4.978l-25.568,15.251a15.388,15.388,0,0,1-7.144,1.861v-8.737A15.375,15.375,0,0,0,1477.775,756.308Z" transform="translate(-1385.283 -711.083)" fill="#b9cbf0"/>
    </g>
  </g>
  <g id="Group_618" data-name="Group 618" transform="translate(39.449 185.329)">
    <g id="Group_598" data-name="Group 598" transform="translate(0 0.938)">
      <path id="Path_4965" data-name="Path 4965" d="M1132.383,564.873l228,131.348c10.273,5.931,28.386,5.181,40.249-1.669L1539.7,614.566c11.863-6.849,13.164-17.306,2.89-23.237l-231.939-129.38c-10.274-5.932-28.385-5.181-40.25,1.668l-135.13,78.018C1123.409,548.484,1122.109,558.941,1132.383,564.873Z" transform="translate(-1125.452 -457.947)" fill="#ecf2fe"/>
      <g id="Group_597" data-name="Group 597" transform="translate(0.029 98.703)">
        <path id="Path_4966" data-name="Path 4966" d="M1314.357,573.527v-6.283c.632,3.095,2.855,5.983,6.738,8.223l228,131.347c4.937,2.851,11.695,4.119,18.69,3.948v9.916c-6.995.172-13.753-1.1-18.69-3.947l-228-131.347C1315.721,582.282,1313.544,577.941,1314.357,573.527Z" transform="translate(-1314.192 -567.244)" fill="#c9d9fe"/>
        <path id="Path_4967" data-name="Path 4967" d="M1147.017,710.141l139.064-79.985c5.658-3.267,8.885-7.355,9.627-11.381v6.279c1.043,5.1-2.244,10.756-9.627,15.019l-139.064,79.985a46.439,46.439,0,0,1-21.559,5.616v-9.917A46.43,46.43,0,0,0,1147.017,710.141Z" transform="translate(-871.86 -572.239)" fill="#c9d9fe"/>
        <path id="Path_4968" data-name="Path 4968" d="M1147.017,710.141l139.064-79.985c5.658-3.267,8.885-7.355,9.627-11.381v6.279c1.043,5.1-2.244,10.756-9.627,15.019l-139.064,79.985a46.439,46.439,0,0,1-21.559,5.616v-9.917A46.43,46.43,0,0,0,1147.017,710.141Z" transform="translate(-871.86 -572.239)" fill="#b9cbf0"/>
      </g>
    </g>
    <g id="Group_607" data-name="Group 607" transform="translate(221.096 110.217)">
      <g id="Group_599" data-name="Group 599">
        <path id="Path_4969" data-name="Path 4969" d="M1163.379,648.953l47.61,27.487,121.113-70-47.611-27.488Z" transform="translate(-1163.379 -578.955)" fill="#fff"/>
        <path id="Path_4970" data-name="Path 4970" d="M1297.493,656.467v19.762l47.61,27.488V683.954Z" transform="translate(-1297.492 -586.469)" fill="#c9d9fe"/>
        <path id="Path_4971" data-name="Path 4971" d="M1284.492,609.393v19.762l-121.113,70V679.391Z" transform="translate(-1115.769 -581.906)" fill="#b9cbf0"/>
      </g>
      <g id="Group_606" data-name="Group 606" transform="translate(23.374 5.347)">
        <g id="Group_601" data-name="Group 601" transform="translate(74.458)">
          <path id="Path_4972" data-name="Path 4972" d="M1188.233,600.728l20.891,12.062a6.654,6.654,0,0,0,5.966-.247l20.034-11.567c1.758-1.015,1.951-2.565.428-3.445l-20.891-12.061a6.659,6.659,0,0,0-5.968.247l-20.033,11.567C1186.9,598.3,1186.71,599.849,1188.233,600.728Z" transform="translate(-1187.205 -584.876)" fill="#82d1e4"/>
          <g id="Group_600" data-name="Group 600" transform="translate(0.004 14.413)">
            <path id="Path_4973" data-name="Path 4973" d="M1214.565,610.279v-9.2h0a1.9,1.9,0,0,0,1,1.219l20.891,12.061a5.406,5.406,0,0,0,2.771.585v9.739a5.411,5.411,0,0,1-2.771-.585l-20.891-12.062A1.679,1.679,0,0,1,1214.565,610.279Z" transform="translate(-1214.541 -600.859)" fill="#00b2c8"/>
            <path id="Path_4974" data-name="Path 4974" d="M1190.4,614.089l20.034-11.567a2.664,2.664,0,0,0,1.427-1.687v9.2c.154.756-.333,1.595-1.427,2.227L1190.4,623.828a6.885,6.885,0,0,1-3.2.833v-9.739A6.878,6.878,0,0,0,1190.4,614.089Z" transform="translate(-1162.52 -600.836)" fill="#00a4b0"/>
          </g>
        </g>
        <g id="Group_603" data-name="Group 603" transform="translate(37.613 21.345)">
          <path id="Path_4975" data-name="Path 4975" d="M1229.033,624.364l20.891,12.061a6.656,6.656,0,0,0,5.966-.248l20.035-11.566c1.759-1.016,1.951-2.566.428-3.445l-20.891-12.061a6.656,6.656,0,0,0-5.967.247l-20.033,11.566C1227.7,621.935,1227.51,623.485,1229.033,624.364Z" transform="translate(-1228.005 -608.512)" fill="#faad18"/>
          <g id="Group_602" data-name="Group 602" transform="translate(0.004 14.412)">
            <path id="Path_4976" data-name="Path 4976" d="M1255.365,633.915v-9.2h0a1.9,1.9,0,0,0,1,1.219L1277.255,638a5.406,5.406,0,0,0,2.771.585v9.738a5.411,5.411,0,0,1-2.771-.585l-20.891-12.061A1.679,1.679,0,0,1,1255.365,633.915Z" transform="translate(-1255.341 -624.495)" fill="#ec9422"/>
            <path id="Path_4977" data-name="Path 4977" d="M1231.2,637.725l20.033-11.566a2.665,2.665,0,0,0,1.428-1.688v9.2c.154.755-.333,1.594-1.428,2.226L1231.2,647.463a6.878,6.878,0,0,1-3.2.833v-9.738A6.882,6.882,0,0,0,1231.2,637.725Z" transform="translate(-1203.321 -624.471)" fill="#cd7d29"/>
          </g>
        </g>
        <g id="Group_605" data-name="Group 605" transform="translate(0 42.992)">
          <path id="Path_4978" data-name="Path 4978" d="M1270.683,648.334l20.891,12.062a6.656,6.656,0,0,0,5.967-.247l20.033-11.567c1.759-1.015,1.951-2.565.428-3.445l-20.891-12.061a6.66,6.66,0,0,0-5.967.247l-20.035,11.567C1269.353,645.905,1269.16,647.455,1270.683,648.334Z" transform="translate(-1269.656 -632.483)" fill="#e7e513"/>
          <g id="Group_604" data-name="Group 604" transform="translate(0.004 14.412)">
            <path id="Path_4979" data-name="Path 4979" d="M1297.016,657.886v-9.2h0a1.9,1.9,0,0,0,1,1.219l20.891,12.062a5.419,5.419,0,0,0,2.772.585v9.738a5.407,5.407,0,0,1-2.772-.584l-20.891-12.062A1.679,1.679,0,0,1,1297.016,657.886Z" transform="translate(-1296.991 -648.466)" fill="#cfd628"/>
            <path id="Path_4980" data-name="Path 4980" d="M1272.852,661.7l20.034-11.567a2.659,2.659,0,0,0,1.427-1.687v9.2c.156.756-.332,1.595-1.427,2.227l-20.034,11.566a6.875,6.875,0,0,1-3.2.832v-9.738A6.877,6.877,0,0,0,1272.852,661.7Z" transform="translate(-1244.971 -648.442)" fill="#929336"/>
          </g>
        </g>
      </g>
    </g>
    <g id="Group_612" data-name="Group 612" transform="translate(15.907 31.688)">
      <g id="Group_609" data-name="Group 609" transform="translate(0 23.267)">
        <ellipse id="Ellipse_131" data-name="Ellipse 131" cx="32.214" cy="18.599" rx="32.214" ry="18.599" fill="#fff"/>
        <g id="Group_608" data-name="Group 608" transform="translate(0.007 18.699)">
          <path id="Path_4981" data-name="Path 4981" d="M1515.521,551.518c12.58,7.263,32.976,7.263,45.557,0,6.246-3.606,9.383-8.324,9.427-13.051v19.987c.044,4.794-3.093,9.594-9.427,13.252-12.581,7.264-32.976,7.264-45.557,0-6.335-3.657-9.472-8.458-9.428-13.252V538.467C1506.137,543.193,1509.275,547.912,1515.521,551.518Z" transform="translate(-1506.093 -538.467)" fill="url(#linear-gradient-5)"/>
        </g>
      </g>
      <g id="Group_611" data-name="Group 611" transform="translate(4.449)">
        <path id="Path_4982" data-name="Path 4982" d="M1530.683,520.953l-19.671,11.357c10.791,6.23,28.55,6.23,39.342,0s10.79-16.485,0-22.715c-6.027-3.479-14.5-5.173-22.963-4.591Z" transform="translate(-1502.918 -493.247)" fill="#4cb3cf"/>
        <g id="Group_610" data-name="Group 610" transform="translate(8.094 27.763)">
          <path id="Path_4983" data-name="Path 4983" d="M1550.357,534.039c5.371-3.1,8.066-7.2,8.091-11.3v11.431c.025,4.139-2.671,8.285-8.091,11.414-10.792,6.23-28.551,6.23-39.342,0V534.04C1521.806,540.27,1539.565,540.27,1550.357,534.039Z" transform="translate(-1511.015 -522.74)" fill="#00a4b0"/>
        </g>
        <path id="Path_4984" data-name="Path 4984" d="M1530.683,520.953l-19.671,11.357c10.791,6.23,28.55,6.23,39.342,0s10.79-16.485,0-22.715c-6.027-3.479-14.5-5.173-22.963-4.591Z" transform="translate(-1502.918 -493.247)" fill="#82d1e4"/>
        <path id="Path_4985" data-name="Path 4985" d="M1569.521,507.945,1566.23,492a38.592,38.592,0,0,0-16.38,4.591c-10.792,6.23-10.792,16.484,0,22.714Z" transform="translate(-1541.757 -491.997)" fill="#faad18"/>
        <path id="Path_4986" data-name="Path 4986" d="M1561.428,509.657v11.758l-19.671,11.357V521.014Z" transform="translate(-1533.663 -493.709)" fill="#cd7d29"/>
        <path id="Path_4987" data-name="Path 4987" d="M1563.54,532.857V509.785c.05,4.082,2.743,8.156,8.089,11.242v23.3C1566.182,541.185,1563.489,537.016,1563.54,532.857Z" transform="translate(-1563.535 -493.721)" fill="#ec9422"/>
      </g>
    </g>
    <g id="Group_617" data-name="Group 617" transform="translate(88.092)">
      <g id="Group_615" data-name="Group 615">
        <g id="Group_613" data-name="Group 613">
          <path id="Path_4988" data-name="Path 4988" d="M1439.926,498.517l45.788-26.436c5.411-3.125,4.733-8.581-1.516-12.189h0c-6.247-3.607-15.7-4-21.11-.875L1417.3,485.453c-5.411,3.124-4.733,8.581,1.516,12.189h0C1425.062,501.248,1434.514,501.64,1439.926,498.517Z" transform="translate(-1413.646 -456.908)" fill="#fff"/>
        </g>
        <g id="Group_614" data-name="Group 614" transform="translate(0.003 10.112)">
          <path id="Path_4989" data-name="Path 4989" d="M1418.82,498.727c6.249,3.607,15.7,4,21.111.875l45.789-26.436c2.355-1.36,3.554-3.163,3.645-5.061h0v13.5c0,.039,0,.078,0,.116-.046,1.941-1.241,3.79-3.645,5.178l-45.789,26.437c-5.411,3.123-14.863,2.732-21.111-.875-3.528-2.037-5.279-4.664-5.16-7.128V491.717C1413.6,494.146,1415.348,496.721,1418.82,498.727Z" transform="translate(-1413.654 -468.105)" fill="url(#linear-gradient-6)"/>
        </g>
      </g>
      <g id="Group_616" data-name="Group 616" transform="translate(10.985 5.267)">
        <path id="Path_4990" data-name="Path 4990" d="M1429.7,468.665a9.4,9.4,0,0,0,8.5,0c2.348-1.355,2.348-3.553,0-4.907a9.394,9.394,0,0,0-8.5,0C1427.352,465.112,1427.352,467.31,1429.7,468.665Z" transform="translate(-1388.132 -462.74)" fill="#c9d9fe"/>
        <path id="Path_4991" data-name="Path 4991" d="M1444.393,477.148a9.394,9.394,0,0,0,8.5,0c2.348-1.356,2.348-3.553,0-4.908a9.393,9.393,0,0,0-8.5,0C1442.045,473.6,1442.045,475.792,1444.393,477.148Z" transform="translate(-1416.094 -463.563)" fill="#c9d9fe"/>
        <path id="Path_4992" data-name="Path 4992" d="M1459.087,485.631a9.394,9.394,0,0,0,8.5,0c2.347-1.356,2.347-3.553,0-4.908a9.4,9.4,0,0,0-8.5,0C1456.739,482.078,1456.739,484.275,1459.087,485.631Z" transform="translate(-1444.057 -464.385)" fill="#c9d9fe"/>
        <path id="Path_4993" data-name="Path 4993" d="M1473.779,494.114a9.4,9.4,0,0,0,8.5,0c2.347-1.355,2.347-3.553,0-4.908a9.4,9.4,0,0,0-8.5,0C1471.432,490.561,1471.432,492.759,1473.779,494.114Z" transform="translate(-1472.019 -465.207)" fill="#c9d9fe"/>
      </g>
    </g>
  </g>
  <g id="Group_627" data-name="Group 627" transform="translate(148.994 159.203)">
    <g id="Group_619" data-name="Group 619" transform="translate(17.673 21.707)">
      <path id="Path_4994" data-name="Path 4994" d="M1450.813,474.2h0a2.945,2.945,0,0,1-3.405-2.373l-2.888-16.363a2.942,2.942,0,0,1,2.372-3.4h0a2.943,2.943,0,0,1,3.406,2.371l2.888,16.363A2.945,2.945,0,0,1,1450.813,474.2Z" transform="translate(-1444.474 -452.014)" fill="#fab884"/>
      <path id="Path_4995" data-name="Path 4995" d="M1449.021,477h0a2.942,2.942,0,0,1-3.68,1.918l-10.125-2.952a2.943,2.943,0,0,1-2.74-3.117h0a2.943,2.943,0,0,1,3.117-2.739l11.509,3.211A2.943,2.943,0,0,1,1449.021,477Z" transform="translate(-1429.559 -453.768)" fill="#fab884"/>
    </g>
    <g id="Group_622" data-name="Group 622" transform="translate(3.827 62.409)">
      <g id="Group_621" data-name="Group 621" transform="translate(2.855 25.662)">
        <g id="Group_620" data-name="Group 620">
          <path id="Path_4996" data-name="Path 4996" d="M1451.9,530.882c-.038.39.275.727.793,1.057.149.095-.019-2.106.493-1.739.147.106,7.216,5.61,11.162,4.594a.838.838,0,0,0,.591-.849v-.888c.054-1-1.434-2.528-3.7-4.731-2.492-2.428-4.08-3.944-7.8-1.793-1.064.614-1.492,1.074-1.5,1.467Z" transform="translate(-1451.898 -525.502)" fill="#010101"/>
          <path id="Path_4997" data-name="Path 4997" d="M1461.2,528.326c3.01,2.933,4.653,4.666,3.106,5.56s-4.634-.451-7.8-2.847c-2.776-2.1-6.831-2.356-3.107-4.506S1458.708,525.9,1461.2,528.326Z" transform="translate(-1451.854 -525.502)" fill="#46486a"/>
        </g>
      </g>
      <path id="Path_4998" data-name="Path 4998" d="M1468.517,524.172l-.221-27.086-8.954,2.9,1.535,4.413a32.616,32.616,0,0,0,1.132,11.871s1.277,2.607,1.025,8.676C1463.035,524.947,1466.323,526.816,1468.517,524.172Z" transform="translate(-1459.343 -497.085)" fill="#fab983"/>
    </g>
    <g id="Group_625" data-name="Group 625" transform="translate(12.468 55.308)">
      <g id="Group_624" data-name="Group 624" transform="translate(2.855 25.663)">
        <g id="Group_623" data-name="Group 623">
          <path id="Path_4999" data-name="Path 4999" d="M1442.332,523.019c-.04.39.274.726.793,1.056.148.095-.019-2.106.492-1.739.148.106,7.217,5.611,11.164,4.594a.836.836,0,0,0,.59-.848V525.2c.054-1-1.434-2.528-3.7-4.731-2.491-2.429-4.081-3.945-7.8-1.794-1.064.615-1.491,1.074-1.5,1.467Z" transform="translate(-1442.328 -517.639)" fill="#010101"/>
          <path id="Path_5000" data-name="Path 5000" d="M1451.631,520.464c3.011,2.933,4.653,4.666,3.108,5.558s-4.636-.452-7.806-2.846c-2.775-2.1-6.83-2.356-3.106-4.506S1449.14,518.035,1451.631,520.464Z" transform="translate(-1442.286 -517.639)" fill="#46486a"/>
        </g>
      </g>
      <path id="Path_5001" data-name="Path 5001" d="M1458.949,516.309l-.22-27.086-8.955,2.9,1.536,4.414a32.625,32.625,0,0,0,1.132,11.871s1.277,2.606,1.024,8.676C1453.466,517.085,1456.754,518.954,1458.949,516.309Z" transform="translate(-1449.774 -489.222)" fill="#f79e64"/>
    </g>
    <path id="Path_5002" data-name="Path 5002" d="M1447.826,489.044v10s11.721,3.957,22.738-10v-9.68Z" transform="translate(-1447.162 -432.958)" fill="#82d1e4"/>
    <path id="Path_5003" data-name="Path 5003" d="M1453.369,489.948a.816.816,0,0,0,.375.125c1.965.152,9.027-1.386,16.093-9.349a3.7,3.7,0,0,0,.957-2.29v-22.6a3.713,3.713,0,0,0-1.587-3.448l-5.312-3.1a3.708,3.708,0,0,0-3.786.346l-7.245,4.183a11.8,11.8,0,0,0-5.32,9.214v22.728a1.153,1.153,0,0,0,.513,1.087Z" transform="translate(-1447.136 -430.007)" fill="#339cd7"/>
    <path id="Path_5004" data-name="Path 5004" d="M1456.27,455.137a1.846,1.846,0,0,0,1.1,1.554,5.857,5.857,0,0,0,5.3,0,1.844,1.844,0,0,0,1.094-1.554v-4.923a1.844,1.844,0,0,0-1.094-1.554,5.859,5.859,0,0,0-5.3,0,1.845,1.845,0,0,0-1.1,1.554Z" transform="translate(-1447.982 -429.92)" fill="#efa36d"/>
    <path id="Path_5005" data-name="Path 5005" d="M1468.09,447.781c0,1.231-.863,1.729-1.929,1.114a4.265,4.265,0,0,1-1.929-3.34c0-1.23.865-1.729,1.929-1.114A4.262,4.262,0,0,1,1468.09,447.781Z" transform="translate(-1459.504 -429.547)" fill="#fab884"/>
    <path id="Path_5006" data-name="Path 5006" d="M1447.4,460.154s9.974-9.069,3.891-25.2l-4.674,16.747Z" transform="translate(-1428.759 -428.653)" fill="#384796"/>
    <ellipse id="Ellipse_132" data-name="Ellipse 132" cx="10.315" cy="10.315" rx="10.315" ry="10.315" transform="translate(1.665 2.05)" fill="#fab983"/>
    <path id="Path_5007" data-name="Path 5007" d="M1462.708,459.478s-7.671-8.456-2.348-24.113l9.551,3.288s3.288-8.141-7.517-10.49c0,0-7.2-1.566-9.707,4.383,0,0-5.793.47-3.6,12.37C1449.087,444.917,1449.4,456.19,1462.708,459.478Z" transform="translate(-1447.672 -427.977)" fill="#384796"/>
    <g id="Group_626" data-name="Group 626" transform="translate(0 27.827)">
      <path id="Path_5008" data-name="Path 5008" d="M1470.477,481.463h0a2.943,2.943,0,0,1-3.614-2.039l-4.54-16.912a2.941,2.941,0,0,1,2.039-3.614h0a2.942,2.942,0,0,1,3.613,2.039l4.542,16.912A2.944,2.944,0,0,1,1470.477,481.463Z" transform="translate(-1462.214 -458.791)" fill="#fab884"/>
      <path id="Path_5009" data-name="Path 5009" d="M1466.454,483.865h0a2.943,2.943,0,0,1-3.481,2.259l-13.661-2.773a2.943,2.943,0,0,1-3.022-2.844h0a2.943,2.943,0,0,1,2.843-3.021l15.064,2.9A2.942,2.942,0,0,1,1466.454,483.865Z" transform="translate(-1441.728 -460.603)" fill="#fab884"/>
    </g>
  </g>
  <g id="Group_635" data-name="Group 635" transform="translate(128.155 98.103)">
    <g id="Group_629" data-name="Group 629" transform="translate(94.872)">
      <path id="Path_5010" data-name="Path 5010" d="M1377.153,541.791V440.542a7.185,7.185,0,0,0-3.594-6.224l-121.7-70.265a7.185,7.185,0,0,0-10.779,6.223V471.525a7.186,7.186,0,0,0,3.593,6.224l121.7,70.266A7.186,7.186,0,0,0,1377.153,541.791Z" transform="translate(-1241.078 -360.586)" fill="#fff"/>
      <path id="Path_5011" data-name="Path 5011" d="M1370.216,546.836A4.8,4.8,0,0,0,1375,542.05V440.8a4.785,4.785,0,0,0-2.387-4.135l-121.7-70.266a4.71,4.71,0,0,0-2.377-.651,4.8,4.8,0,0,0-4.787,4.786V471.784a4.792,4.792,0,0,0,2.389,4.136l121.7,70.266A4.692,4.692,0,0,0,1370.216,546.836Z" transform="translate(-1241.338 -360.844)" fill="url(#linear-gradient-7)"/>
      <g id="Group_628" data-name="Group 628" transform="translate(4.632)">
        <path id="Path_5012" data-name="Path 5012" d="M1367.391,541.523V440.274a7.188,7.188,0,0,0-3.592-6.224l-121.7-70.265a7.081,7.081,0,0,0-6.143-.486l0,0,2.88-1.532a7.14,7.14,0,0,1,7.9-.473l121.7,70.266a7.185,7.185,0,0,1,3.593,6.224V539.029a7.092,7.092,0,0,1-2.96,5.8v.008l-.071.04a7.37,7.37,0,0,1-1.542.835l-3.215,1.741A7.09,7.09,0,0,0,1367.391,541.523Z" transform="translate(-1235.948 -360.318)" fill="url(#linear-gradient-8)"/>
        <path id="Path_5013" data-name="Path 5013" d="M1246.086,568.348l-.028.015,0,0C1246.065,568.354,1246.076,568.353,1246.086,568.348Z" transform="translate(-1119.137 -380.484)" fill="url(#linear-gradient-9)"/>
      </g>
    </g>
    <g id="Group_630" data-name="Group 630" transform="translate(0 116.201)">
      <path id="Path_5014" data-name="Path 5014" d="M1469.2,572.667l-87.684,50.625a7.189,7.189,0,0,1-7.186,0l-121.7-70.266a7.186,7.186,0,0,1,0-12.447l87.684-50.625a7.189,7.189,0,0,1,7.187,0l121.7,70.266A7.186,7.186,0,0,1,1469.2,572.667Z" transform="translate(-1249.036 -488.992)" fill="#fff"/>
      <path id="Path_5015" data-name="Path 5015" d="M1252.617,559.2l121.7,70.265a7.185,7.185,0,0,0,7.185,0l87.684-50.625a7.119,7.119,0,0,0,3.593-6.224v6.575a7.12,7.12,0,0,1-3.593,6.223l-87.684,50.625a7.186,7.186,0,0,1-7.185,0l-121.7-70.266a7.1,7.1,0,0,1-3.572-5.9l0,0V559.8c-.006-.169-.006-.337,0-.506v-6.068A7.1,7.1,0,0,0,1252.617,559.2Zm-3.572-6.554c0,.025,0,.052,0,.077v-.078Z" transform="translate(-1249.023 -495.162)" fill="url(#linear-gradient-10)"/>
      <path id="Path_5016" data-name="Path 5016" d="M1272.86,534.733l104.505,60.336c4.077,2.353,11.2,2.058,15.908-.66l31.459-18.162c4.708-2.718,5.22-6.83,1.142-9.184l-104.505-60.336c-4.078-2.353-11.2-2.059-15.907.659L1274,525.549C1269.3,528.267,1268.783,532.379,1272.86,534.733Z" transform="translate(-1223.896 -490.557)" fill="#b9cbf0"/>
      <path id="Path_5017" data-name="Path 5017" d="M1425.886,568.51,1321.38,508.173c-4.077-2.354-11.2-2.059-15.907.659L1274.014,527c-2.243,1.295-3.522,2.9-3.816,4.492-.418-2.013.884-4.246,3.816-5.939l31.459-18.163c4.708-2.718,11.83-3.013,15.907-.659l104.505,60.336c2.135,1.233,3,2.947,2.674,4.692A5.083,5.083,0,0,0,1425.886,568.51Z" transform="translate(-1223.908 -490.557)" fill="#8db5e0"/>
      <path id="Path_5018" data-name="Path 5018" d="M1352.751,535.5l5.542-3.2,5.542,3.2-5.542,3.2Zm10.894,6.29,5.542-3.2,5.542,3.2-5.542,3.2Zm-21.788-12.58,5.542-3.2,5.542,3.2-5.542,3.2Zm-31.648,3.349-11.541-6.663,5.542-3.2,11.541,6.663Zm-2.178-12.068,5.541-3.2,5.543,3.2-5.543,3.2Zm22.933,2.429,5.54-3.2,5.542,3.2-5.542,3.2Zm43.576,25.159,5.542-3.2,5.542,3.2-5.542,3.2Zm-56.894-17.626,95.507,55.14-5.543,3.2L1312.1,533.65Zm67.789,23.916,5.542-3.2,5.542,3.2-5.542,3.2Zm-63.418-32.2,100.5,58.023-5.542,3.2-100.5-58.023Zm-27.168,5.936L1403.789,591l-5.542,3.2-108.942-62.9Zm112.374,38.847,5.542-3.2,5.542,3.2-5.542,3.2Zm-10.894-6.29,5.542-3.2,5.542,3.2-5.542,3.2Z" transform="translate(-1235.119 -491.735)" fill="#8db5e0"/>
      <path id="Path_5019" data-name="Path 5019" d="M1352.751,534.43l5.542-3.2,5.542,3.2-5.542,3.2Zm10.894,6.29,5.542-3.2,5.542,3.2-5.542,3.2Zm-21.788-12.58,5.542-3.2,5.542,3.2-5.542,3.2Zm-31.648,3.349-11.541-6.664,5.542-3.2,11.541,6.664Zm-2.178-12.068,5.541-3.2,5.543,3.2-5.543,3.2Zm22.933,2.429,5.54-3.2,5.542,3.2-5.542,3.2Zm43.576,25.159,5.542-3.2,5.542,3.2-5.542,3.2Zm-56.894-17.626,95.507,55.141-5.543,3.2L1312.1,532.583Zm67.789,23.916,5.542-3.2,5.542,3.2-5.542,3.2Zm-63.418-32.2,100.5,58.023-5.542,3.2-100.5-58.022Zm-27.168,5.936,108.942,62.9-5.542,3.2-108.942-62.9Zm112.374,38.847,5.542-3.2,5.542,3.2-5.542,3.2Zm-10.894-6.29,5.542-3.2,5.542,3.2-5.542,3.2Z" transform="translate(-1235.119 -491.632)" fill="#ecf2fe"/>
      <path id="Path_5020" data-name="Path 5020" d="M1347.4,525.423l-5.124,2.958-.418-.241,5.542-3.2,5.542,3.2-.417.241Zm-10.9-6.29-5.124,2.959-.417-.241,5.54-3.2,5.542,3.2-.417.241Zm21.789,12.58-5.125,2.958-.417-.241,5.542-3.2,5.542,3.2-.418.241Zm-42.96-3.182-11.123-6.422-5.123,2.959-.418-.241,5.542-3.2,11.541,6.664ZM1369.186,538l-5.124,2.958-.418-.241,5.542-3.2,5.542,3.2-.417.241Zm-55.615-21.3-5.124,2.958-.417-.241,5.541-3.2,5.543,3.2-.418.241Zm-18.724,10.328,108.942,62.9-.417.241-108.525-62.657-5.124,2.959-.418-.241Zm22.044-2.5-.417-.24,5.542-3.2,100.5,58.023-.418.241-100.081-57.782Zm95.873,38.625-5.125,2.958-.418-.241,5.542-3.2,5.542,3.2-.418.241Zm-100.243-30.338-.418-.241,5.542-3.2,95.507,55.141-.418.24-95.089-54.9Zm89.349,24.047-5.124,2.959-.418-.241,5.542-3.2,5.542,3.2-.417.241Zm-21.788-12.579-5.125,2.958-.417-.241,5.542-3.2,5.542,3.2-.418.241Zm10.895,6.29-5.125,2.959-.417-.241,5.542-3.2,5.542,3.2-.417.241Z" transform="translate(-1235.119 -491.632)" fill="#fff"/>
      <path id="Path_5021" data-name="Path 5021" d="M1379.6,576.092l32.565,18.8c2.022,1.167,5.585,1.02,7.918-.328l7.154-4.131c2.333-1.347,2.59-3.4.567-4.571l-32.565-18.8c-2.021-1.167-5.584-1.019-7.918.329l-7.154,4.13C1377.835,572.867,1377.579,574.924,1379.6,576.092Z" transform="translate(-1322.086 -496.484)" fill="#b1cdeb"/>
      <path id="Path_5022" data-name="Path 5022" d="M1427.815,586.828l-32.565-18.8c-2.021-1.167-5.584-1.019-7.918.328l-7.155,4.131a3.61,3.61,0,0,0-1.848,2.114c-.289-1.035.334-2.2,1.848-3.079l7.155-4.13c2.333-1.348,5.9-1.5,7.918-.329l32.565,18.8a2.184,2.184,0,0,1,1.281,2.457A2.569,2.569,0,0,0,1427.815,586.828Z" transform="translate(-1322.095 -496.484)" fill="#8db5e0"/>
    </g>
    <g id="Group_634" data-name="Group 634" transform="translate(114.522 32.985)">
      <g id="Group_633" data-name="Group 633">
        <path id="Path_5023" data-name="Path 5023" d="M1262.838,404.19v-3.741c0-3.22,2.26-4.525,5.049-2.915l86.675,50.042a11.162,11.162,0,0,1,5.05,8.746v3.741Z" transform="translate(-1262.838 -396.844)" fill="#fff"/>
        <g id="Group_631" data-name="Group 631" transform="translate(73.564 43.581)">
          <path id="Path_5024" data-name="Path 5024" d="M1268.217,455.689a4.493,4.493,0,0,0,2.033,3.52c1.123.648,2.032.123,2.032-1.173a4.493,4.493,0,0,0-2.032-3.521C1269.127,453.868,1268.217,454.392,1268.217,455.689Z" transform="translate(-1253.929 -445.989)" fill="#fff"/>
          <path id="Path_5025" data-name="Path 5025" d="M1276.128,451.121a4.494,4.494,0,0,0,2.032,3.521c1.123.648,2.033.123,2.033-1.174a4.491,4.491,0,0,0-2.033-3.52C1277.038,449.3,1276.128,449.825,1276.128,451.121Z" transform="translate(-1268.984 -445.546)" fill="#fff"/>
          <path id="Path_5026" data-name="Path 5026" d="M1284.039,446.554a4.493,4.493,0,0,0,2.033,3.52c1.122.648,2.032.123,2.032-1.173a4.491,4.491,0,0,0-2.032-3.52C1284.95,444.733,1284.039,445.258,1284.039,446.554Z" transform="translate(-1284.039 -445.103)" fill="#fff"/>
        </g>
        <path id="Path_5027" data-name="Path 5027" d="M1262.838,475.6l15.326,8.848V470.507l-15.326-8.849Z" transform="translate(-1181.39 -403.127)" fill="#e7e513"/>
        <path id="Path_5028" data-name="Path 5028" d="M1284.038,463.355l15.327,8.849V458.267l-15.327-8.849Z" transform="translate(-1221.736 -401.94)" fill="#faad18"/>
        <path id="Path_5029" data-name="Path 5029" d="M1305.24,451.115l15.326,8.849V446.026l-15.326-8.849Z" transform="translate(-1262.082 -400.754)" fill="#82d1e4"/>
        <path id="Path_5030" data-name="Path 5030" d="M1365.934,446.579l-37.886-21.873v-2.931l37.886,21.873Z" transform="translate(-1328.048 -399.261)" fill="url(#linear-gradient-11)"/>
        <path id="Path_5031" data-name="Path 5031" d="M1365.934,440.485l-37.886-21.873v-2.931l37.886,21.873Z" transform="translate(-1328.048 -398.67)" fill="url(#linear-gradient-11)"/>
        <path id="Path_5032" data-name="Path 5032" d="M1365.934,434.39l-37.886-21.873v-2.93l37.886,21.873Z" transform="translate(-1328.048 -398.079)" fill="url(#linear-gradient-11)"/>
        <path id="Path_5033" data-name="Path 5033" d="M1266.164,457.506l90.123,52.033c1.829,1.056,3.325-.076,3.325-2.514V490.289a8,8,0,0,0-3.325-6.354L1266.164,431.9c-1.829-1.056-3.325.076-3.325,2.514v16.736A7.994,7.994,0,0,0,1266.164,457.506Z" transform="translate(-1262.838 -400.204)" fill="#fff"/>
        <g id="Group_632" data-name="Group 632" transform="translate(27.783 49.81)">
          <path id="Path_5034" data-name="Path 5034" d="M1293.6,489.031l11.78,6.8V481.3l-11.78-6.8Z" transform="translate(-1264.174 -454.181)" fill="#e7e513"/>
          <path id="Path_5035" data-name="Path 5035" d="M1309.9,479.87l11.779,6.8V474.427l-11.779-6.8Z" transform="translate(-1295.183 -453.515)" fill="#82d1e4"/>
          <path id="Path_5036" data-name="Path 5036" d="M1326.192,469.86l11.779,6.8V458.8l-11.779-6.8Z" transform="translate(-1326.192 -452.001)" fill="#faad18"/>
        </g>
        <path id="Path_5037" data-name="Path 5037" d="M1365.9,455.8l-3.163-1.827v-2.931l3.163,1.827Z" transform="translate(-1359.339 -402.098)" fill="url(#linear-gradient-14)"/>
        <path id="Path_5038" data-name="Path 5038" d="M1365.9,449.7l-3.163-1.827v-2.931l3.163,1.827Z" transform="translate(-1359.339 -401.507)" fill="url(#linear-gradient-15)"/>
        <path id="Path_5039" data-name="Path 5039" d="M1365.9,443.607l-3.163-1.827V438.85l3.163,1.827Z" transform="translate(-1359.339 -400.916)" fill="url(#linear-gradient-16)"/>
        <path id="Path_5040" data-name="Path 5040" d="M1359.287,466.42l-16.371-9.452v-2.93l16.371,9.451Z" transform="translate(-1334.829 -402.388)" fill="url(#linear-gradient-17)"/>
        <path id="Path_5041" data-name="Path 5041" d="M1359.287,460.326l-16.371-9.452v-2.93l16.371,9.452Z" transform="translate(-1334.829 -401.798)" fill="url(#linear-gradient-18)"/>
        <path id="Path_5042" data-name="Path 5042" d="M1359.287,454.232l-16.371-9.452v-2.93l16.371,9.452Z" transform="translate(-1334.829 -401.207)" fill="url(#linear-gradient-19)"/>
        <path id="Path_5043" data-name="Path 5043" d="M1266.717,494.286l3.164,1.827v2.931l-3.164-1.827Z" transform="translate(-1176.61 -406.29)" fill="url(#linear-gradient-20)"/>
        <path id="Path_5044" data-name="Path 5044" d="M1266.717,500.381l3.164,1.827v2.93l-3.164-1.827Z" transform="translate(-1176.61 -406.881)" fill="url(#linear-gradient-21)"/>
        <path id="Path_5045" data-name="Path 5045" d="M1266.717,506.475l3.164,1.827v2.93l-3.164-1.827Z" transform="translate(-1176.61 -407.471)" fill="url(#linear-gradient-22)"/>
        <path id="Path_5046" data-name="Path 5046" d="M1271.912,482.844l16.371,9.452v2.93l-16.371-9.452Z" transform="translate(-1199.703 -405.181)" fill="url(#linear-gradient-23)"/>
        <path id="Path_5047" data-name="Path 5047" d="M1271.912,488.938l16.371,9.452v2.931l-16.371-9.452Z" transform="translate(-1199.703 -405.771)" fill="url(#linear-gradient-24)"/>
        <path id="Path_5048" data-name="Path 5048" d="M1271.912,495.033l16.371,9.452v2.93l-16.371-9.452Z" transform="translate(-1199.703 -406.362)" fill="url(#linear-gradient-25)"/>
      </g>
      <path id="Path_5049" data-name="Path 5049" d="M1271.259,477.115l82.422,47.587c1.71.987,3.108-.07,3.108-2.35h0a7.471,7.471,0,0,0-3.108-5.94l-82.422-47.587c-1.711-.987-3.11.07-3.11,2.35h0A7.471,7.471,0,0,0,1271.259,477.115Z" transform="translate(-1264.812 -403.786)" fill="#fff"/>
    </g>
  </g>
  <g id="Group_641" data-name="Group 641" transform="translate(170.046 82.483)">
    <g id="Group_637" data-name="Group 637" transform="translate(160.564 97.076)">
      <path id="Path_5050" data-name="Path 5050" d="M1180.691,536.7l78.2,45.148c2.42,1.4,4.4-.1,4.4-3.327V504.6c0-3.228-1.98-7.011-4.4-8.408l-78.2-45.147c-2.42-1.4-4.4.1-4.4,3.327v73.924C1176.291,531.52,1178.272,535.3,1180.691,536.7Z" transform="translate(-1176.291 -450.519)" fill="url(#linear-gradient-2)"/>
      <g id="Group_636" data-name="Group 636" transform="translate(6.808 21.218)">
        <path id="Path_5051" data-name="Path 5051" d="M1183.83,536.964l73.383,42.367v-5.5L1183.83,531.46Z" transform="translate(-1183.83 -479.583)" fill="url(#linear-gradient-2)"/>
        <ellipse id="Ellipse_133" data-name="Ellipse 133" cx="32.089" cy="18.527" rx="32.089" ry="18.527" transform="matrix(-0.5, -0.866, 0.866, -0.5, 36.692, 74.107)" fill="url(#linear-gradient-2)"/>
      </g>
    </g>
    <g id="Group_640" data-name="Group 640" transform="translate(0)">
      <path id="Path_5052" data-name="Path 5052" d="M1358.491,412.948l78.2,45.148c2.42,1.4,4.4-.1,4.4-3.327V397.1c0-3.227-1.981-7.011-4.4-8.408l-78.2-45.147c-2.42-1.4-4.4.1-4.4,3.327v57.668C1354.09,407.767,1356.071,411.551,1358.491,412.948Z" transform="translate(-1354.09 -343.022)" fill="url(#linear-gradient-2)"/>
      <g id="Group_639" data-name="Group 639" transform="translate(6.809 13.855)">
        <path id="Path_5053" data-name="Path 5053" d="M1361.628,409.083l73.382,42.367v-5.5l-73.382-42.367Z" transform="translate(-1361.628 -362.747)" fill="url(#linear-gradient-2)"/>
        <path id="Path_5054" data-name="Path 5054" d="M1361.628,396.6l73.382,42.368v-5.5L1361.628,391.1Z" transform="translate(-1361.628 -361.537)" fill="url(#linear-gradient-2)"/>
        <g id="Group_638" data-name="Group 638" transform="translate(1.484)">
          <path id="Path_5055" data-name="Path 5055" d="M1363.273,413.537l19.708,11.379V402.158l-19.708-11.379Z" transform="translate(-1312.57 -361.506)" fill="url(#linear-gradient-2)"/>
          <path id="Path_5056" data-name="Path 5056" d="M1391.346,397.329l19.708,11.379V385.951l-19.708-11.379Z" transform="translate(-1365.994 -359.935)" fill="url(#linear-gradient-2)"/>
          <path id="Path_5057" data-name="Path 5057" d="M1419.419,381.121l19.709,11.379V369.743l-19.709-11.379Z" transform="translate(-1419.419 -358.364)" fill="url(#linear-gradient-2)"/>
        </g>
      </g>
    </g>
  </g>
  <g id="Group_647" data-name="Group 647" transform="translate(412.335 295.65)">
    <g id="Group_643" data-name="Group 643" transform="translate(0 33.636)">
      <path id="Path_5058" data-name="Path 5058" d="M1096.165,691.216l35.091,20.26c2.557,1.477,7.068,1.29,10.022-.416l33.652-19.428c2.953-1.706,3.277-4.31.719-5.787l-35.091-20.26c-2.558-1.477-7.068-1.29-10.023.415l-33.651,19.428C1093.93,687.135,1093.606,689.739,1096.165,691.216Z" transform="translate(-1094.439 -664.589)" fill="#c9d9fe"/>
      <g id="Group_642" data-name="Group 642" transform="translate(0.008 24.208)">
        <path id="Path_5059" data-name="Path 5059" d="M1149.4,761.007V697.142h0a3.185,3.185,0,0,0,1.677,2.048l35.091,20.26a9.08,9.08,0,0,0,4.654.982V785.2a9.084,9.084,0,0,1-4.654-.983l-35.091-20.259A2.818,2.818,0,0,1,1149.4,761.007Z" transform="translate(-1149.354 -696.77)" fill="#ecf2fe"/>
        <path id="Path_5060" data-name="Path 5060" d="M1099.808,718.913l33.651-19.428a4.479,4.479,0,0,0,2.4-2.835v63.865c.259,1.269-.56,2.679-2.4,3.741l-33.651,19.428a11.558,11.558,0,0,1-5.368,1.4V720.311A11.556,11.556,0,0,0,1099.808,718.913Z" transform="translate(-1052.976 -696.65)" fill="#b9cbf0"/>
      </g>
    </g>
    <g id="Group_646" data-name="Group 646" transform="translate(15.087 0)">
      <ellipse id="Ellipse_134" data-name="Ellipse 134" cx="19.234" cy="33.314" rx="19.234" ry="33.314" transform="matrix(-0.866, -0.5, 0.5, -0.866, 35.802, 76.934)" fill="#1951de"/>
      <ellipse id="Ellipse_135" data-name="Ellipse 135" cx="17.316" cy="29.992" rx="17.316" ry="29.992" transform="matrix(-0.866, -0.5, 0.5, -0.866, 35.802, 73.099)" fill="#1951de"/>
      <g id="Group_644" data-name="Group 644" transform="translate(0 0.981)">
        <path id="Path_5061" data-name="Path 5061" d="M1138.459,624.556c6.536-3.773,12.448-4.112,16.717-1.612l12.125,7h0c-4.258-2.423-10.121-2.056-16.595,1.682-13.01,7.512-23.557,25.778-23.557,40.8,0,7.476,2.614,12.737,6.841,15.213h0l-12.126-7c-4.3-2.446-6.96-7.736-6.96-15.282C1114.9,650.334,1125.449,632.067,1138.459,624.556Z" transform="translate(-1114.903 -621.34)" fill="#2764ff"/>
      </g>
      <g id="Group_645" data-name="Group 645" transform="translate(22.194 20.882)">
        <path id="Path_5062" data-name="Path 5062" d="M1133.182,674.492a11.612,11.612,0,0,0-3.134.628c-.115.038-.217.073-.31.107a15.061,15.061,0,0,0-1.978.865v-5.924l6.353-3.669A40.878,40.878,0,0,1,1133.182,674.492Z" transform="translate(-1113.615 -652.302)" fill="#fff"/>
        <path id="Path_5063" data-name="Path 5063" d="M1144.617,661.215c-.128,0-.257,0-.384-.008-.083,0-.17-.009-.265-.017a7.238,7.238,0,0,1-2.158-.5,30.507,30.507,0,0,1,5.594-6.9,26.419,26.419,0,0,0-1.8,4.094C1145.229,658.952,1144.9,660.068,1144.617,661.215Z" transform="translate(-1137.519 -649.19)" fill="#fff"/>
        <path id="Path_5064" data-name="Path 5064" d="M1130.547,649.024c1.171.019,2.251.81,3.141,2.338a11.178,11.178,0,0,1,.825,1.8,27.411,27.411,0,0,1-3,2.917c-.095.079-.191.157-.295.24a21.144,21.144,0,0,1-1.821,1.316v-8.053c.092-.051.07-.039.1-.056C1129.847,649.342,1130.2,649.175,1130.547,649.024Z" transform="translate(-1115.249 -648.022)" fill="#fff"/>
        <path id="Path_5065" data-name="Path 5065" d="M1131.509,679.358a10.619,10.619,0,0,1,3-.551c-.242.946-.516,1.868-.825,2.752a18.867,18.867,0,0,1-3.141,5.964c-.347.251-.7.489-1.047.709-.035.022-.015.011-.107.066v-8.053a14.594,14.594,0,0,1,1.821-.787C1131.316,679.422,1131.414,679.388,1131.509,679.358Z" transform="translate(-1115.249 -655.317)" fill="#fff"/>
        <path id="Path_5066" data-name="Path 5066" d="M1130.048,658.745a29.036,29.036,0,0,0,3.133-3.013,26.632,26.632,0,0,1,.931,6.959l-6.354,3.669v-5.943a21.6,21.6,0,0,0,1.98-1.421C1129.83,658.922,1129.933,658.839,1130.048,658.745Z" transform="translate(-1113.615 -649.665)" fill="#fff"/>
        <path id="Path_5067" data-name="Path 5067" d="M1118.859,653.194c.17-.2.339-.412.506-.621.088-.11.178-.225.274-.349a36.051,36.051,0,0,0,2.23-3.234c2.384,1.439,3.748,4.3,3.871,8.169l-5.886,3.4A27.4,27.4,0,0,0,1118.859,653.194Z" transform="translate(-1098.524 -648.014)" fill="#fff"/>
        <path id="Path_5068" data-name="Path 5068" d="M1127.618,678.823c.117.007.233.016.349.028l.261.032a7.049,7.049,0,0,1,2,.588,30.331,30.331,0,0,1-5.311,6.41,26.494,26.494,0,0,0,1.805-4.1C1127.058,680.831,1127.356,679.84,1127.618,678.823Z" transform="translate(-1107.591 -655.321)" fill="#fff"/>
        <path id="Path_5069" data-name="Path 5069" d="M1119.367,673.28c-.166-.017-.334-.04-.505-.047a42.24,42.24,0,0,0,.994-8.473l5.885-3.4a28.125,28.125,0,0,1-3.854,12.6,7.492,7.492,0,0,0-2.245-.645C1119.548,673.305,1119.456,673.289,1119.367,673.28Z" transform="translate(-1098.527 -651.044)" fill="#fff"/>
        <path id="Path_5070" data-name="Path 5070" d="M1127.981,651.512q-.173.218-.348.43a11.882,11.882,0,0,0-.892-1.93,5.876,5.876,0,0,0-1.8-2.011,8.047,8.047,0,0,1,5.294.3,33.6,33.6,0,0,1-1.991,2.88C1128.155,651.291,1128.068,651.4,1127.981,651.512Z" transform="translate(-1107.605 -647.697)" fill="#fff"/>
        <path id="Path_5071" data-name="Path 5071" d="M1152.694,684.725c-.176.2-.353.429-.526.636-.1.12-.193.231-.281.339a35.012,35.012,0,0,0-2.419,3.34c-2.123-1.441-3.442-4.11-3.576-7.972l5.885-3.4A27.777,27.777,0,0,0,1152.694,684.725Z" transform="translate(-1145.89 -655.038)" fill="#fff"/>
        <path id="Path_5072" data-name="Path 5072" d="M1140.577,659.655a11.462,11.462,0,0,1-3.061.729c.262-1.059.564-2.089.907-3.075a18.873,18.873,0,0,1,3.149-5.969c.348-.251.708-.495,1.057-.714.041-.026.143-.086.143-.087v8.079a16.525,16.525,0,0,1-1.882.913C1140.785,659.573,1140.669,659.621,1140.577,659.655Z" transform="translate(-1129.644 -648.393)" fill="#fff"/>
        <path id="Path_5073" data-name="Path 5073" d="M1144.247,688.742q.19-.229.385-.451a12.127,12.127,0,0,0,.985,2.193,5.874,5.874,0,0,0,1.8,2.013,7.927,7.927,0,0,1-5.61-.419,33.091,33.091,0,0,1,2.172-3.012C1144.078,688.946,1144.165,688.841,1144.247,688.742Z" transform="translate(-1137.533 -657.64)" fill="#fff"/>
        <path id="Path_5074" data-name="Path 5074" d="M1151.891,665.109c.088.007.18.012.279.016.174.007.35.009.526.006a43.043,43.043,0,0,0-.917,8.153l-5.887,3.4a27.911,27.911,0,0,1,3.592-12.137A7.72,7.72,0,0,0,1151.891,665.109Z" transform="translate(-1145.893 -651.824)" fill="#fff"/>
        <path id="Path_5075" data-name="Path 5075" d="M1138.383,664.641a12.436,12.436,0,0,0,3.21-.79c.09-.033.2-.079.319-.127a18.766,18.766,0,0,0,2.012-.98v5.919l-6.409,3.7A40.786,40.786,0,0,1,1138.383,664.641Z" transform="translate(-1130.795 -651.383)" fill="#fff"/>
        <path id="Path_5076" data-name="Path 5076" d="M1141.58,679.614a27.77,27.77,0,0,0-3.2,2.9,26.98,26.98,0,0,1-.862-6.683l6.408-3.7v5.9a23.359,23.359,0,0,0-2.012,1.337C1141.79,679.462,1141.672,679.543,1141.58,679.614Z" transform="translate(-1130.795 -653.682)" fill="#fff"/>
        <path id="Path_5077" data-name="Path 5077" d="M1137.516,685.753a26.359,26.359,0,0,1,3.064-2.807c.095-.075.2-.153.3-.231a21.1,21.1,0,0,1,1.884-1.262v8.08s-.1.055-.141.076c-.351.184-.71.356-1.058.506-1.171-.018-2.26-.805-3.149-2.332A11.55,11.55,0,0,1,1137.516,685.753Z" transform="translate(-1129.639 -655.965)" fill="#fff"/>
      </g>
    </g>
  </g>
  <g id="Group_660" data-name="Group 660" transform="translate(92.835 286.251)">
    <g id="Group_651" data-name="Group 651" transform="translate(11.711 55.336)">
      <g id="Group_650" data-name="Group 650">
        <g id="Group_649" data-name="Group 649" transform="translate(23.477 17.591)">
          <g id="Group_648" data-name="Group 648" transform="translate(0)">
            <path id="Path_5078" data-name="Path 5078" d="M1495.577,650.873c.357.157.5.594.528,1.206.009.176-1.817-1.049-1.75-.425.019.181,1.331,9.012-1.485,11.938a.837.837,0,0,1-1.026.1l-.769-.435c-.9-.444-1.49-2.484-2.294-5.527-.886-3.352-1.422-5.473,2.268-7.651,1.055-.622,1.664-.767,2.007-.58Z" transform="translate(-1488.133 -649.419)" fill="#010101"/>
            <path id="Path_5079" data-name="Path 5079" d="M1491.482,657.726c1.069,4.05,1.768,6.325,3.3,5.421s1.88-4.243,1.356-8.168c-.46-3.436,1.3-7.081-2.388-4.9S1490.6,654.374,1491.482,657.726Z" transform="translate(-1490.835 -649.418)" fill="#46486a"/>
          </g>
        </g>
        <path id="Path_5080" data-name="Path 5080" d="M1492.552,629.939l7.578,2.773,3.078,3.5a32.505,32.505,0,0,1,9.746,6.8s1.635,2.385,7.025,5.141c0,0,.011,3.769-3.36,4.377l-21.6-12.433a5.446,5.446,0,0,1-2.7-4.141A24.293,24.293,0,0,1,1492.552,629.939Z" transform="translate(-1492.226 -629.939)" fill="#f79e64"/>
      </g>
    </g>
    <g id="Group_654" data-name="Group 654" transform="translate(14.978 62.575)">
      <g id="Group_653" data-name="Group 653" transform="translate(0 25.574)">
        <g id="Group_652" data-name="Group 652">
          <path id="Path_5081" data-name="Path 5081" d="M1517.941,671.635c.038.388-.274.724-.79,1.053-.148.095.019-2.1-.491-1.733-.147.106-7.193,5.591-11.126,4.578a.836.836,0,0,1-.588-.846V673.8c-.056-1,1.429-2.52,3.682-4.715,2.484-2.42,4.067-3.931,7.778-1.788,1.06.613,1.487,1.071,1.491,1.462Z" transform="translate(-1504.945 -666.274)" fill="#301f5f"/>
          <path id="Path_5082" data-name="Path 5082" d="M1508.679,669.089c-3,2.922-4.637,4.65-3.1,5.539s4.62-.45,7.778-2.837c2.766-2.091,6.807-2.348,3.1-4.491S1511.162,666.669,1508.679,669.089Z" transform="translate(-1504.993 -666.274)" fill="#46486a"/>
        </g>
      </g>
      <path id="Path_5083" data-name="Path 5083" d="M1503.348,664.948l.22-26.993,7.32,2.373.073,4.918a32.509,32.509,0,0,1-1.127,11.829s-1.272,2.6-1.02,8.646C1508.813,665.722,1505.535,667.585,1503.348,664.948Z" transform="translate(-1496.647 -637.955)" fill="#fab983"/>
    </g>
    <g id="Group_655" data-name="Group 655" transform="translate(0 20.567)">
      <path id="Path_5084" data-name="Path 5084" d="M1518.339,622.622h0a2.933,2.933,0,0,0,3.87-1.455l11.586-25.6a2.934,2.934,0,0,0-1.455-3.872h0a2.933,2.933,0,0,0-3.871,1.455l-11.585,25.6A2.933,2.933,0,0,0,1518.339,622.622Z" transform="translate(-1516.624 -591.438)" fill="#f79e64"/>
    </g>
    <g id="Group_657" data-name="Group 657" transform="translate(0.587 23.737)">
      <path id="Path_5085" data-name="Path 5085" d="M1515.187,620.052l18.142-10.474v-14.63l-18.142,10.474Z" transform="translate(-1515.187 -594.948)" fill="url(#linear-gradient-35)"/>
      <g id="Group_656" data-name="Group 656" transform="translate(4.079 8.028)">
        <path id="Path_5086" data-name="Path 5086" d="M1530.718,617.179v-11.1l-.389.224v11.1Z" transform="translate(-1530.329 -604.055)" fill="#9e98ca"/>
        <path id="Path_5087" data-name="Path 5087" d="M1529.746,613.332V605.52l-.388.224v7.811Z" transform="translate(-1528.481 -604.001)" fill="#9e98ca"/>
        <path id="Path_5088" data-name="Path 5088" d="M1528.775,615.2V604.959l-.388.224v10.243Z" transform="translate(-1526.632 -603.946)" fill="#9e98ca"/>
        <path id="Path_5089" data-name="Path 5089" d="M1527.8,615.5V604.4l-.389.224v11.1Z" transform="translate(-1524.785 -603.892)" fill="#9e98ca"/>
        <path id="Path_5090" data-name="Path 5090" d="M1526.833,607.9v-4.067l-.388.224v4.066Z" transform="translate(-1522.937 -603.838)" fill="#9e98ca"/>
      </g>
    </g>
    <path id="Path_5091" data-name="Path 5091" d="M1520.965,629.943v9.968s-11.681,3.943-22.66-9.968v-9.648Z" transform="translate(-1486.992 -573.668)" fill="#faad18"/>
    <path id="Path_5092" data-name="Path 5092" d="M1515.1,630.009a.819.819,0,0,1-.374.124c-1.958.151-9-1.382-16.037-9.317a3.688,3.688,0,0,1-.954-2.282V596.017a3.7,3.7,0,0,1,1.581-3.437l5.295-3.089a3.7,3.7,0,0,1,3.773.345l7.221,4.168a11.764,11.764,0,0,1,5.3,9.183v22.65a1.149,1.149,0,0,1-.511,1.084Z" transform="translate(-1486.425 -570.646)" fill="#fafaea"/>
    <path id="Path_5093" data-name="Path 5093" d="M1513.9,595.316a1.841,1.841,0,0,1-1.092,1.549,5.829,5.829,0,0,1-5.279,0,1.833,1.833,0,0,1-1.092-1.548v-4.906a1.835,1.835,0,0,1,1.092-1.548,5.834,5.834,0,0,1,5.279,0,1.841,1.841,0,0,1,1.092,1.548Z" transform="translate(-1487.268 -570.56)" fill="#efa36d"/>
    <g id="Group_658" data-name="Group 658" transform="translate(29.582 26.216)">
      <path id="Path_5094" data-name="Path 5094" d="M1499.571,628.452h0a2.932,2.932,0,0,0,1.29-3.928L1488.132,599.3a2.934,2.934,0,0,0-3.929-1.291h0a2.933,2.933,0,0,0-1.29,3.929l12.73,25.228A2.931,2.931,0,0,0,1499.571,628.452Z" transform="translate(-1482.6 -597.693)" fill="#fab884"/>
    </g>
    <g id="Group_659" data-name="Group 659" transform="translate(9.658 0)">
      <path id="Path_5095" data-name="Path 5095" d="M1515.867,578.39l-3.69,14.324a1.672,1.672,0,0,0,2.261,1.96l8.494-3.534a1.672,1.672,0,0,0,1-1.867l-2.783-14.091a1.672,1.672,0,0,0-3.066-.548l-2.019,3.3A1.682,1.682,0,0,0,1515.867,578.39Z" transform="translate(-1512.122 -569.164)" fill="#934c9c"/>
      <path id="Path_5096" data-name="Path 5096" d="M1502.515,587.988c0,1.225.86,1.722,1.921,1.11a4.251,4.251,0,0,0,1.923-3.33c0-1.226-.861-1.723-1.923-1.11A4.249,4.249,0,0,0,1502.515,587.988Z" transform="translate(-1485.845 -570.188)" fill="#fab884"/>
      <ellipse id="Ellipse_136" data-name="Ellipse 136" cx="10.279" cy="10.279" rx="10.279" ry="10.279" transform="translate(3.008 1.671)" fill="#fab884"/>
      <path id="Path_5097" data-name="Path 5097" d="M1519.984,581.985s-8.687,4.765-12.92-7.627c0,0-2.265,5.233-7.913,4.077,0,0,0-8.149,8.41-9.731C1507.56,568.7,1522.428,567.221,1519.984,581.985Z" transform="translate(-1496.702 -568.663)" fill="#934c9c"/>
      <path id="Path_5098" data-name="Path 5098" d="M1499.536,583.377l-3.691,14.324a1.671,1.671,0,0,0,2.26,1.96l8.494-3.534a1.67,1.67,0,0,0,1-1.867l-2.783-14.09a1.671,1.671,0,0,0-3.065-.549l-2.021,3.3A1.634,1.634,0,0,0,1499.536,583.377Z" transform="translate(-1481.04 -569.648)" fill="#934c9c"/>
    </g>
  </g>
  <g id="Group_667" data-name="Group 667" transform="translate(176.093 252.385)">
    <g id="Group_661" data-name="Group 661" transform="translate(11.104 87.294)">
      <path id="Path_5099" data-name="Path 5099" d="M1429.732,632.093c.068,1.2-1.74,2.88-4.494,4.47-3.663,2.114-4.961,4.795-9.487,2.18-1.3-.747-1.838-1.343-1.87-1.861v-2.816c-.127-1.309,3.013-2.124,5.646-3.644,3.662-2.115,7.609-3.266,9.489-2.181a1.239,1.239,0,0,1,.717,1.037Z" transform="translate(-1413.877 -627.826)"/>
      <path id="Path_5100" data-name="Path 5100" d="M1425.237,633.719c3.664-2.115,5.657-4.393,3.777-5.478s-5.824.066-9.487,2.181-8.3,2.864-3.777,5.477S1421.574,635.835,1425.237,633.719Z" transform="translate(-1413.876 -627.826)" fill="#301f5f"/>
    </g>
    <g id="Group_662" data-name="Group 662" transform="translate(0.923 80.281)">
      <path id="Path_5101" data-name="Path 5101" d="M1441.005,624.327c.07,1.2-1.74,2.88-4.493,4.47-3.663,2.115-4.961,4.795-9.489,2.18-1.3-.748-1.837-1.343-1.869-1.861V626.3c-.128-1.309,3.012-2.123,5.646-3.644,3.663-2.115,7.609-3.265,9.489-2.181a1.237,1.237,0,0,1,.716,1.037Z" transform="translate(-1425.15 -620.06)"/>
      <path id="Path_5102" data-name="Path 5102" d="M1436.511,625.953c3.663-2.115,5.656-4.392,3.777-5.478s-5.826.066-9.489,2.181-8.3,2.864-3.776,5.478S1432.849,628.068,1436.511,625.953Z" transform="translate(-1425.149 -620.06)" fill="#301f5f"/>
    </g>
    <g id="Group_663" data-name="Group 663" transform="translate(0 0)">
      <path id="Path_5103" data-name="Path 5103" d="M1436.24,531.62h0a3.016,3.016,0,0,0-4.145.945l-12.5,19.876a3.016,3.016,0,0,0,.945,4.145h0a3.016,3.016,0,0,0,4.145-.945l12.5-19.877A3.016,3.016,0,0,0,1436.24,531.62Z" transform="translate(-1415.435 -531.162)" fill="#f8b9b8"/>
      <path id="Path_5104" data-name="Path 5104" d="M1442.378,555.211l-4.032,6.414a4.662,4.662,0,0,1-6.41,1.461h0a4.664,4.664,0,0,1-1.461-6.411l4.032-6.412S1439.561,548.36,1442.378,555.211Z" transform="translate(-1429.765 -532.99)" fill="#283678"/>
    </g>
    <g id="Group_664" data-name="Group 664" transform="translate(11.027 56.318)">
      <path id="Path_5105" data-name="Path 5105" d="M1421.65,629.458a1.964,1.964,0,0,1-.21-.91V597.136c0-1.985,2.048-3.611,4.551-3.611h0c2.5,0,4.552,1.626,4.552,3.611v34.156a1.143,1.143,0,0,1-.809,1.1C1427.988,632.918,1423.848,633.673,1421.65,629.458Z" transform="translate(-1421.44 -593.525)" fill="#00bdec"/>
    </g>
    <g id="Group_665" data-name="Group 665" transform="translate(0.838 49.057)">
      <path id="Path_5106" data-name="Path 5106" d="M1432.153,621.315a1.974,1.974,0,0,1-.191-.915l.688-31.4c.045-1.985,2.127-3.565,4.63-3.51h0c2.5.055,4.515,1.724,4.471,3.71L1441,623.343a1.146,1.146,0,0,1-.833,1.08C1438.413,624.913,1434.257,625.578,1432.153,621.315Z" transform="translate(-1431.961 -585.485)" fill="#00bdec"/>
    </g>
    <path id="Path_5107" data-name="Path 5107" d="M1434.345,599.265a.838.838,0,0,1-.385.128c-2.013.155-9.247-1.421-16.485-9.577a3.787,3.787,0,0,1-.981-2.346V564.321a3.8,3.8,0,0,1,1.625-3.533l5.443-3.175a3.8,3.8,0,0,1,3.877.355l7.422,4.286a12.088,12.088,0,0,1,5.45,9.438v23.284a1.181,1.181,0,0,1-.524,1.114Z" transform="translate(-1415.715 -533.689)" fill="#4f58a6"/>
    <path id="Path_5108" data-name="Path 5108" d="M1433.105,563.6a1.892,1.892,0,0,1-1.123,1.592,6,6,0,0,1-5.427,0,1.888,1.888,0,0,1-1.121-1.592v-5.043a1.887,1.887,0,0,1,1.121-1.592,6,6,0,0,1,5.427,0,1.891,1.891,0,0,1,1.123,1.592Z" transform="translate(-1416.581 -533.6)" fill="#fab983"/>
    <path id="Path_5109" data-name="Path 5109" d="M1417.98,548.756a10.567,10.567,0,1,0,10.567-10.567A10.566,10.566,0,0,0,1417.98,548.756Z" transform="translate(-1415.859 -531.843)" fill="#f8b9b8"/>
    <g id="Group_666" data-name="Group 666" transform="translate(16.171 30.994)">
      <path id="Path_5110" data-name="Path 5110" d="M1419.087,598.7h0a3.014,3.014,0,0,0,1.874-3.815l-7.948-21.486a3.014,3.014,0,0,0-3.815-1.875h0a3.016,3.016,0,0,0-1.875,3.815l7.947,21.486A3.015,3.015,0,0,0,1419.087,598.7Z" transform="translate(-1404.27 -566.053)" fill="#f8b9b8"/>
      <path id="Path_5111" data-name="Path 5111" d="M1415.79,578.8l-2.445-7.169a4.663,4.663,0,0,1,2.9-5.9h0a4.663,4.663,0,0,1,5.9,2.9l2.446,7.169S1422.886,580.923,1415.79,578.8Z" transform="translate(-1413.097 -565.482)" fill="#283678"/>
    </g>
    <path id="Path_5112" data-name="Path 5112" d="M1423.253,558.066c3.332,1.941,5.88.466,6.785-.94,2.281-3.536,2.659-1.177,4.017-2.841,1.781-2.926,1.382-6.915,3.852-8.757,3.544-2.645,2.574-7.912-6.671-10.269-12.421-3.167-17.315,12.484-9.563,21.529A4.9,4.9,0,0,0,1423.253,558.066Z" transform="translate(-1416.521 -531.518)" fill="#f6a71b" fill-rule="evenodd"/>
    <path id="Path_5113" data-name="Path 5113" d="M1424.166,556.328a1.2,1.2,0,0,0,2.2-.591,4.367,4.367,0,0,0-1.023-3.818,1.2,1.2,0,0,0-2.2.591A4.365,4.365,0,0,0,1424.166,556.328Z" transform="translate(-1407.787 -533.123)" fill="#f8b9b8"/>
  </g>
  <g id="Group_679" data-name="Group 679" transform="translate(241.419 354.477)">
    <g id="Group_677" data-name="Group 677" transform="translate(0)">
      <g id="Group_675" data-name="Group 675">
        <g id="Group_668" data-name="Group 668" transform="translate(3.767 19.686)">
          <path id="Path_5114" data-name="Path 5114" d="M1349.156,692.569h0a2.673,2.673,0,0,0,3.714-.639l12.006-17a2.673,2.673,0,0,0-.64-3.714h0a2.672,2.672,0,0,0-3.714.64l-12.007,17A2.673,2.673,0,0,0,1349.156,692.569Z" transform="translate(-1348.032 -666.468)" fill="#f8b9b8"/>
          <path id="Path_5115" data-name="Path 5115" d="M1344.226,673.236l3.873-5.485a4.133,4.133,0,0,1,5.743-.989h0a4.133,4.133,0,0,1,.99,5.744l-3.874,5.485S1346.394,679.433,1344.226,673.236Z" transform="translate(-1334.816 -666.011)" fill="#b9cce9"/>
        </g>
        <g id="Group_669" data-name="Group 669" transform="translate(6.641 40.908)">
          <path id="Path_5116" data-name="Path 5116" d="M1360.844,697.293a1.745,1.745,0,0,1-.606.564l-14.023,8.022c-1.528.876-3.68.019-4.785-1.906h0c-1.1-1.924-.759-4.216.768-5.092l16.133-9.233a1.013,1.013,0,0,1,1.2.138C1360.708,690.894,1363.115,693.744,1360.844,697.293Z" transform="translate(-1340.784 -689.511)" fill="#4f58a6"/>
        </g>
        <g id="Group_670" data-name="Group 670" transform="translate(15.927 45.663)">
          <path id="Path_5117" data-name="Path 5117" d="M1350.562,702.559a1.74,1.74,0,0,1-.607.564l-14.023,8.022c-1.526.877-3.68.019-4.784-1.906h0c-1.1-1.924-.759-4.216.768-5.092l16.132-9.233a1.013,1.013,0,0,1,1.2.137C1350.426,696.16,1352.833,699.01,1350.562,702.559Z" transform="translate(-1330.502 -694.777)" fill="#4f58a6"/>
        </g>
        <g id="Group_672" data-name="Group 672" transform="translate(0 49.769)">
          <g id="Group_671" data-name="Group 671" transform="translate(0 22.016)">
            <path id="Path_5118" data-name="Path 5118" d="M1369.879,729.5c.117,1.162-2.668,1.885-5,3.234-3.247,1.875-6.745,2.894-8.411,1.933a1.1,1.1,0,0,1-.635-.915v-1.906c-.059-1.079,1.546-2.724,3.982-5.1,2.686-2.617,4.4-4.251,8.412-1.933,1.146.663,1.607,1.158,1.612,1.581Z" transform="translate(-1355.825 -723.703)" fill="#010101"/>
            <path id="Path_5119" data-name="Path 5119" d="M1359.863,726.746c-3.244,3.16-5.014,5.028-3.348,5.991s5-.487,8.411-3.067c2.992-2.26,7.361-2.54,3.348-4.857S1362.549,724.129,1359.863,726.746Z" transform="translate(-1355.878 -723.703)" fill="#151535"/>
          </g>
          <path id="Path_5120" data-name="Path 5120" d="M1355.563,722.089a1.744,1.744,0,0,1-.186-.808V702.524c0-1.761,1.816-3.2,4.035-3.2h0c2.219,0,4.034,1.44,4.034,3.2v21.19a1.014,1.014,0,0,1-.716.973C1361.182,725.156,1357.512,725.826,1355.563,722.089Z" transform="translate(-1348.983 -699.323)" fill="#4f58a6"/>
        </g>
        <path id="Path_5121" data-name="Path 5121" d="M1343.054,701.209a.735.735,0,0,1-.34.113c-1.785.138-8.2-1.259-14.614-8.49a3.353,3.353,0,0,1-.87-2.079v-20.52a3.375,3.375,0,0,1,1.441-3.132l4.825-2.815a3.369,3.369,0,0,1,3.438.315l6.58,3.8a10.718,10.718,0,0,1,4.831,8.368v20.639a1.048,1.048,0,0,1-.465.988Z" transform="translate(-1308.462 -646.125)" fill="#fafdff"/>
        <g id="Group_674" data-name="Group 674" transform="translate(9.615 54.02)">
          <g id="Group_673" data-name="Group 673" transform="translate(0 22.016)">
            <path id="Path_5122" data-name="Path 5122" d="M1359.232,734.207c.117,1.162-2.668,1.885-5,3.233-3.247,1.874-6.745,2.9-8.411,1.934a1.1,1.1,0,0,1-.635-.915v-1.906c-.058-1.079,1.546-2.725,3.983-5.1,2.686-2.617,4.4-4.251,8.411-1.934,1.147.663,1.607,1.158,1.612,1.581Z" transform="translate(-1345.179 -728.41)" fill="#010101"/>
            <path id="Path_5123" data-name="Path 5123" d="M1349.215,731.453c-3.243,3.161-5.014,5.028-3.348,5.991s4.995-.487,8.411-3.068c2.992-2.259,7.361-2.538,3.348-4.856S1351.9,728.836,1349.215,731.453Z" transform="translate(-1345.231 -728.41)" fill="#151535"/>
          </g>
          <path id="Path_5124" data-name="Path 5124" d="M1344.915,726.8a1.738,1.738,0,0,1-.186-.807V707.231c0-1.76,1.815-3.2,4.035-3.2h0c2.219,0,4.035,1.441,4.035,3.2v21.19a1.016,1.016,0,0,1-.717.974C1350.533,729.864,1346.864,730.533,1344.915,726.8Z" transform="translate(-1338.334 -704.03)" fill="#4f58a6"/>
        </g>
        <path id="Path_5125" data-name="Path 5125" d="M1340.7,669.595a1.677,1.677,0,0,1-.995,1.412,5.32,5.32,0,0,1-4.812,0,1.677,1.677,0,0,1-1-1.412v-4.471a1.677,1.677,0,0,1,1-1.411,5.32,5.32,0,0,1,4.812,0,1.678,1.678,0,0,1,.995,1.411Z" transform="translate(-1306.833 -646.046)" fill="#fab983"/>
        <path id="Path_5126" data-name="Path 5126" d="M1327.287,656.435a9.367,9.367,0,1,0,9.368-9.367A9.368,9.368,0,0,0,1327.287,656.435Z" transform="translate(-1306.191 -644.489)" fill="#f8b9b8"/>
        <path id="Path_5127" data-name="Path 5127" d="M1340.2,663.5a7.49,7.49,0,0,1-1.931-3.122.872.872,0,0,1-.029-.228v-4.484a4.8,4.8,0,0,0-.685-2.539,2.066,2.066,0,0,0-1.827-1.163s-7.517,3.276-10.331-2.843a.824.824,0,0,1,.537-1.15c.538-.127,1.248-.59,2.033-1.867a.825.825,0,0,1,.891-.385,3.309,3.309,0,0,0,3.371-1.244.8.8,0,0,1,.619-.263c1.431.028,6.378.267,9.071,2.213.019.015.036.027.056.044.578.475,9.879,8.4-.66,17.076A.829.829,0,0,1,1340.2,663.5Z" transform="translate(-1304.709 -644.212)" fill="#1279be"/>
        <path id="Path_5128" data-name="Path 5128" d="M1330.315,662.916c0,1.117.784,1.569,1.751,1.011a3.873,3.873,0,0,0,1.752-3.034c0-1.117-.784-1.57-1.752-1.011A3.872,3.872,0,0,0,1330.315,662.916Z" transform="translate(-1296.722 -645.708)" fill="#f8b9b8"/>
      </g>
      <g id="Group_676" data-name="Group 676" transform="translate(4.383 32.489)">
        <path id="Path_5129" data-name="Path 5129" d="M1330.961,697.959l16.7,9.607,12.807-6.983-17.089-9.778Z" transform="translate(-1328.335 -681.217)" fill="#b9bfb5"/>
        <path id="Path_5130" data-name="Path 5130" d="M1347.769,696.93l-2.626-16.742,18.535,10.688.787,15.661Z" transform="translate(-1345.143 -680.188)" fill="#e9edf0"/>
      </g>
    </g>
    <g id="Group_678" data-name="Group 678" transform="translate(20.505 26.123)">
      <path id="Path_5131" data-name="Path 5131" d="M1330.534,699.554h0a2.673,2.673,0,0,0,3.716-.624l12.077-16.951a2.672,2.672,0,0,0-.624-3.716h0a2.673,2.673,0,0,0-3.716.624l-12.077,16.951A2.671,2.671,0,0,0,1330.534,699.554Z" transform="translate(-1329.418 -673.588)" fill="#f8b9b8"/>
      <path id="Path_5132" data-name="Path 5132" d="M1325.4,681l3.365-5.812a4.133,4.133,0,0,1,5.632-1.5h0a4.134,4.134,0,0,1,1.5,5.631l-3.365,5.811S1328.115,686.981,1325.4,681Z" transform="translate(-1315.416 -673.139)" fill="#b9cce9"/>
    </g>
  </g>
  <g id="Group_686" data-name="Group 686" transform="translate(0 303.068)">
    <g id="Group_680" data-name="Group 680" transform="translate(17.016 22.524)">
      <path id="Path_5133" data-name="Path 5133" d="M1614.322,634.975h0a2.827,2.827,0,0,1-3.27-2.279L1609,621.209a2.826,2.826,0,0,1,2.279-3.271h0a2.827,2.827,0,0,1,3.27,2.279L1616.6,631.7A2.828,2.828,0,0,1,1614.322,634.975Z" transform="translate(-1606.773 -612.777)" fill="#fab884"/>
      <path id="Path_5134" data-name="Path 5134" d="M1618.822,622.813l-1.249-6.993a4.372,4.372,0,0,0-5.059-3.523h0a4.372,4.372,0,0,0-3.524,5.058l1.249,6.993S1613.964,627.777,1618.822,622.813Z" transform="translate(-1608.921 -612.228)" fill="#ed3a91"/>
      <path id="Path_5135" data-name="Path 5135" d="M1613.322,637.208h0a2.828,2.828,0,0,1-3.535,1.843l-9.727-2.836a2.827,2.827,0,0,1-2.631-2.994h0a2.827,2.827,0,0,1,2.994-2.631l11.057,3.084A2.827,2.827,0,0,1,1613.322,637.208Z" transform="translate(-1593.167 -614.007)" fill="#fab884"/>
    </g>
    <g id="Group_682" data-name="Group 682" transform="translate(6.438 51.457)">
      <g id="Group_681" data-name="Group 681" transform="translate(0.431 32.902)">
        <path id="Path_5136" data-name="Path 5136" d="M1614.658,686.833c-.122,1.229,2.823,1.993,5.294,3.42,3.436,1.983,7.135,3.062,8.9,2.045a1.161,1.161,0,0,0,.671-.967v-2.018c.062-1.141-1.635-2.881-4.213-5.393-2.841-2.768-4.652-4.5-8.9-2.044-1.214.7-1.7,1.224-1.706,1.672Z" transform="translate(-1614.654 -680.7)" fill="#010101"/>
        <path id="Path_5137" data-name="Path 5137" d="M1625.259,683.919c3.432,3.343,5.3,5.319,3.542,6.337s-5.285-.515-8.9-3.245c-3.164-2.391-7.786-2.686-3.541-5.137S1622.419,681.152,1625.259,683.919Z" transform="translate(-1614.606 -680.7)" fill="#151535"/>
      </g>
      <path id="Path_5138" data-name="Path 5138" d="M1630.483,677.961a1.851,1.851,0,0,0,.2-.853V647.653c0-1.863-1.921-3.387-4.269-3.387h0c-2.347,0-4.268,1.524-4.268,3.387v32.029a1.073,1.073,0,0,0,.758,1.029C1624.539,681.206,1628.421,681.914,1630.483,677.961Z" transform="translate(-1622.143 -644.266)" fill="#45456e"/>
    </g>
    <g id="Group_684" data-name="Group 684" transform="translate(15.678 44.646)">
      <g id="Group_683" data-name="Group 683" transform="translate(0.431 32.902)">
        <path id="Path_5139" data-name="Path 5139" d="M1604.429,679.29c-.123,1.229,2.821,1.993,5.293,3.42,3.435,1.983,7.135,3.062,8.9,2.044a1.161,1.161,0,0,0,.672-.968v-2.017c.062-1.141-1.635-2.882-4.213-5.394-2.841-2.768-4.652-4.5-8.9-2.044-1.214.7-1.7,1.224-1.707,1.672Z" transform="translate(-1604.425 -673.156)" fill="#010101"/>
        <path id="Path_5140" data-name="Path 5140" d="M1615.03,676.375c3.431,3.344,5.3,5.32,3.541,6.338s-5.284-.515-8.9-3.246c-3.164-2.391-7.788-2.685-3.541-5.137S1612.189,673.608,1615.03,676.375Z" transform="translate(-1604.377 -673.156)" fill="#151535"/>
      </g>
      <path id="Path_5141" data-name="Path 5141" d="M1620.252,670.418a1.83,1.83,0,0,0,.2-.854V640.11c0-1.863-1.921-3.387-4.268-3.387h0c-2.348,0-4.268,1.524-4.268,3.387v32.028a1.072,1.072,0,0,0,.758,1.029C1614.309,673.663,1618.191,674.371,1620.252,670.418Z" transform="translate(-1611.914 -636.723)" fill="#29294f"/>
    </g>
    <path id="Path_5142" data-name="Path 5142" d="M1617.1,649.648a.779.779,0,0,0,.36.12c1.888.146,8.672-1.332,15.459-8.981a3.556,3.556,0,0,0,.92-2.2V616.881a3.568,3.568,0,0,0-1.525-3.313l-5.1-2.977a3.567,3.567,0,0,0-3.637.332l-6.96,4.019a11.337,11.337,0,0,0-5.109,8.851v21.834a1.107,1.107,0,0,0,.492,1.045Z" transform="translate(-1609.251 -589.51)" fill="#ee589f"/>
    <path id="Path_5143" data-name="Path 5143" d="M1619.885,616.207a1.77,1.77,0,0,0,1.052,1.493,5.626,5.626,0,0,0,5.089,0,1.773,1.773,0,0,0,1.052-1.493v-4.729a1.773,1.773,0,0,0-1.052-1.494,5.627,5.627,0,0,0-5.089,0,1.771,1.771,0,0,0-1.052,1.494Z" transform="translate(-1610.064 -589.427)" fill="#f6a19d"/>
    <ellipse id="Ellipse_137" data-name="Ellipse 137" cx="9.909" cy="9.909" rx="9.909" ry="9.909" transform="translate(3.509 4.597)" fill="#f8b9b8"/>
    <path id="Path_5144" data-name="Path 5144" d="M1616.256,590.074c-8.467,2.907-4.258,15.275,1.9,19.736,3.012-1.645-.65-4.591,3.458-2.541.818-3.984-1.019-2.77.095-7.778,4.305,2.246,12.686-.477,13.988-4.627-1.5-.666-3.071-4.925-6.579-6.487C1624.6,586.365,1618.825,587.252,1616.256,590.074Z" transform="translate(-1611.106 -587.285)" fill="#2e9ad6" fill-rule="evenodd"/>
    <path id="Path_5145" data-name="Path 5145" d="M1631.239,609.14c0,1.182-.83,1.661-1.853,1.07a4.092,4.092,0,0,1-1.853-3.21c0-1.181.828-1.661,1.853-1.07A4.1,4.1,0,0,1,1631.239,609.14Z" transform="translate(-1621.13 -589.068)" fill="#f8b9b8"/>
    <path id="Path_5146" data-name="Path 5146" d="M1597.223,636.244l15.514,8.957,15.514-8.957v-6.821l-15.514-8.957-15.514,8.957Z" transform="translate(-1590.771 -590.502)" fill="#b9bfb5" fill-rule="evenodd"/>
    <path id="Path_5147" data-name="Path 5147" d="M1612.737,620.466l-15.514,8.957,15.514,8.777,15.514-8.777Z" transform="translate(-1590.771 -590.502)" fill="#e9edf0" fill-rule="evenodd"/>
    <g id="Group_685" data-name="Group 685" transform="translate(0 29.319)">
      <path id="Path_5148" data-name="Path 5148" d="M1633.248,642.6h0a2.827,2.827,0,0,1-3.189-2.392l-1.65-11.551a2.826,2.826,0,0,1,2.391-3.189h0a2.826,2.826,0,0,1,3.188,2.391l1.651,11.551A2.826,2.826,0,0,1,1633.248,642.6Z" transform="translate(-1626.326 -620.303)" fill="#fab884"/>
      <path id="Path_5149" data-name="Path 5149" d="M1637.687,630.526l-1-7.032a4.372,4.372,0,0,0-4.933-3.7h0a4.373,4.373,0,0,0-3.7,4.933l1.006,7.032S1632.659,635.318,1637.687,630.526Z" transform="translate(-1628.007 -619.751)" fill="#ed3a91"/>
      <path id="Path_5150" data-name="Path 5150" d="M1632.4,646.446h0a2.826,2.826,0,0,1-3.6,1.719l-12.67-4.339a2.827,2.827,0,0,1-2.526-3.084h0a2.827,2.827,0,0,1,3.084-2.525l13.989,4.633A2.827,2.827,0,0,1,1632.4,646.446Z" transform="translate(-1609.867 -621.54)" fill="#fab884"/>
    </g>
  </g>
</svg>
