<svg xmlns="http://www.w3.org/2000/svg" xmlns:xlink="http://www.w3.org/1999/xlink" width="518.812" height="416.326" viewBox="0 0 518.812 416.326">
  <defs>
    <linearGradient id="linear-gradient" x1="0.312" y1="0.721" x2="1.189" y2="-0.347" gradientUnits="objectBoundingBox">
      <stop offset="0.015" stop-color="#2c0072" stop-opacity="0.302"/>
      <stop offset="0.412" stop-color="#100040" stop-opacity="0.757"/>
      <stop offset="0.997" stop-color="#020126"/>
    </linearGradient>
    <linearGradient id="linear-gradient-2" x1="0.836" y1="0.059" x2="-0.025" y2="1.29" gradientUnits="objectBoundingBox">
      <stop offset="0.003" stop-color="#020126"/>
      <stop offset="0.588" stop-color="#100040" stop-opacity="0.757"/>
      <stop offset="0.985" stop-color="#2c0072" stop-opacity="0.302"/>
    </linearGradient>
    <linearGradient id="linear-gradient-3" x1="0" y1="0.5" x2="1" y2="0.5" xlink:href="#linear-gradient"/>
    <linearGradient id="linear-gradient-4" x1="-6.346" y1="0.5" x2="-5.346" y2="0.5" gradientUnits="objectBoundingBox">
      <stop offset="0" stop-color="#d74cff"/>
      <stop offset="1" stop-color="#8919ff"/>
    </linearGradient>
    <linearGradient id="linear-gradient-5" x1="-6.346" y1="0.5" x2="-5.346" y2="0.5" gradientUnits="objectBoundingBox">
      <stop offset="0" stop-color="#2ab7f6"/>
      <stop offset="1" stop-color="#2ab7f6"/>
    </linearGradient>
    <linearGradient id="linear-gradient-6" x1="1.098" y1="1.01" x2="0.347" y2="0.373" gradientUnits="objectBoundingBox">
      <stop offset="0.003" stop-color="#020126" stop-opacity="0.702"/>
      <stop offset="0.997" stop-color="#2c0072" stop-opacity="0.102"/>
    </linearGradient>
    <linearGradient id="linear-gradient-8" x1="1" y1="0.5" x2="0" y2="0.419" gradientUnits="objectBoundingBox">
      <stop offset="0" stop-color="#00c278"/>
      <stop offset="1" stop-color="#00623c"/>
    </linearGradient>
    <linearGradient id="linear-gradient-9" x1="1" y1="0.428" x2="0" y2="0.418" xlink:href="#linear-gradient-8"/>
    <linearGradient id="linear-gradient-10" x1="1" y1="0.5" x2="0" y2="0.436" xlink:href="#linear-gradient-8"/>
    <linearGradient id="linear-gradient-11" x1="1.064" y1="0.5" x2="-0.449" y2="0.5" gradientUnits="objectBoundingBox">
      <stop offset="0" stop-color="#00623c"/>
      <stop offset="1" stop-color="#00c278"/>
    </linearGradient>
    <linearGradient id="linear-gradient-13" y1="0.5" x2="1" y2="0.5" gradientUnits="objectBoundingBox">
      <stop offset="0" stop-color="#2b2ce0"/>
      <stop offset="1" stop-color="#2d0273"/>
    </linearGradient>
    <linearGradient id="linear-gradient-14" x1="1.173" y1="0.5" x2="-0.045" y2="0.5" gradientUnits="objectBoundingBox">
      <stop offset="0" stop-color="#7b2aff"/>
      <stop offset="1" stop-color="#7b2aff"/>
    </linearGradient>
    <linearGradient id="linear-gradient-15" x1="0.898" y1="0.5" x2="-0.477" y2="0.5" gradientUnits="objectBoundingBox">
      <stop offset="0" stop-color="#ff40ff"/>
      <stop offset="1" stop-color="#9169ff"/>
    </linearGradient>
    <linearGradient id="linear-gradient-16" x1="1.269" y1="0.5" x2="-0.048" y2="0.5" gradientUnits="objectBoundingBox">
      <stop offset="0" stop-color="#2b2ce0"/>
      <stop offset="1" stop-color="#f903ff"/>
    </linearGradient>
    <linearGradient id="linear-gradient-18" x1="1.173" y1="0.5" x2="-0.045" y2="0.5" gradientUnits="objectBoundingBox">
      <stop offset="0" stop-color="#7b2aff"/>
      <stop offset="1" stop-color="#9169ff"/>
    </linearGradient>
    <linearGradient id="linear-gradient-31" x1="0.898" y1="0.5" x2="-0.477" y2="0.5" gradientUnits="objectBoundingBox">
      <stop offset="0" stop-color="#4705b4"/>
      <stop offset="1" stop-color="#9169ff"/>
    </linearGradient>
    <linearGradient id="linear-gradient-32" x1="1.269" y1="0.5" x2="-0.048" y2="0.5" gradientUnits="objectBoundingBox">
      <stop offset="0" stop-color="#7b2aff"/>
      <stop offset="1" stop-color="#2d0273"/>
    </linearGradient>
    <linearGradient id="linear-gradient-54" x1="0.5" y1="-0.289" x2="0.5" y2="1.35" gradientUnits="objectBoundingBox">
      <stop offset="0.003" stop-color="#f6a4ff" stop-opacity="0"/>
      <stop offset="0.109" stop-color="#e9a9ff" stop-opacity="0.078"/>
      <stop offset="0.327" stop-color="#cab8ff" stop-opacity="0.275"/>
      <stop offset="0.637" stop-color="#97cfff" stop-opacity="0.596"/>
      <stop offset="0.996" stop-color="#57edff"/>
    </linearGradient>
    <linearGradient id="linear-gradient-56" x1="-121.059" y1="-0.353" x2="-121.059" y2="1.764" xlink:href="#linear-gradient-54"/>
    <linearGradient id="linear-gradient-57" x1="-65.427" y1="0.5" x2="-64.427" y2="0.5" gradientUnits="objectBoundingBox">
      <stop offset="0" stop-color="#ac19e0"/>
      <stop offset="1" stop-color="#002c9a"/>
    </linearGradient>
    <linearGradient id="linear-gradient-58" x1="-65.427" y1="0.5" x2="-64.214" y2="0.5" gradientUnits="objectBoundingBox">
      <stop offset="0" stop-color="#d74cff"/>
      <stop offset="1" stop-color="#2ab7f6"/>
    </linearGradient>
    <linearGradient id="linear-gradient-59" x1="-64.962" y1="0.5" x2="-63.962" y2="0.5" xlink:href="#linear-gradient-57"/>
    <linearGradient id="linear-gradient-60" x1="-64.962" y1="0.5" x2="-63.749" y2="0.5" xlink:href="#linear-gradient-58"/>
    <linearGradient id="linear-gradient-61" x1="-64.494" y1="0.5" x2="-63.494" y2="0.5" xlink:href="#linear-gradient-57"/>
    <linearGradient id="linear-gradient-62" x1="-64.496" y1="0.5" x2="-63.283" y2="0.5" xlink:href="#linear-gradient-58"/>
    <linearGradient id="linear-gradient-63" x1="-64.029" y1="0.5" x2="-63.029" y2="0.5" xlink:href="#linear-gradient-57"/>
    <linearGradient id="linear-gradient-64" x1="-64.031" y1="0.5" x2="-62.818" y2="0.5" gradientUnits="objectBoundingBox">
      <stop offset="0" stop-color="#7b2aff"/>
      <stop offset="1" stop-color="#2ab7f6"/>
    </linearGradient>
    <linearGradient id="linear-gradient-65" x1="-63.564" y1="0.5" x2="-62.564" y2="0.5" gradientUnits="objectBoundingBox">
      <stop offset="0" stop-color="#2d0273"/>
      <stop offset="1" stop-color="#002c9a"/>
    </linearGradient>
    <linearGradient id="linear-gradient-66" x1="-63.565" y1="0.5" x2="-62.352" y2="0.5" xlink:href="#linear-gradient-5"/>
    <linearGradient id="linear-gradient-67" x1="0.979" y1="-0.061" x2="-0.084" y2="1.119" gradientUnits="objectBoundingBox">
      <stop offset="0.005" stop-color="#020126" stop-opacity="0.702"/>
      <stop offset="0.997" stop-color="#2c0072" stop-opacity="0.102"/>
    </linearGradient>
    <linearGradient id="linear-gradient-68" x1="0.994" y1="0.078" x2="-0.074" y2="1.085" xlink:href="#linear-gradient-67"/>
    <linearGradient id="linear-gradient-69" x1="-0.466" y1="0.5" x2="0.534" y2="0.5" gradientUnits="objectBoundingBox">
      <stop offset="0" stop-color="#b200bf"/>
      <stop offset="1" stop-color="#0000a0"/>
    </linearGradient>
    <linearGradient id="linear-gradient-70" x1="0.5" y1="1.199" x2="0.5" y2="0.19" gradientUnits="objectBoundingBox">
      <stop offset="0" stop-color="#6028c4"/>
      <stop offset="0.994" stop-color="#c455ff"/>
    </linearGradient>
    <linearGradient id="linear-gradient-71" x1="1.919" y1="0.51" x2="0.704" y2="0.5" gradientUnits="objectBoundingBox">
      <stop offset="0" stop-color="#6028c4"/>
      <stop offset="0.972" stop-color="#c455ff"/>
    </linearGradient>
    <linearGradient id="linear-gradient-72" x1="-0.597" y1="0.5" x2="0.852" y2="0.5" xlink:href="#linear-gradient-69"/>
    <linearGradient id="linear-gradient-73" x1="1.002" y1="-0.039" x2="0.309" y2="0.692" gradientUnits="objectBoundingBox">
      <stop offset="0" stop-color="#020126" stop-opacity="0.702"/>
      <stop offset="0.995" stop-color="#2c0072" stop-opacity="0"/>
    </linearGradient>
    <linearGradient id="linear-gradient-74" x1="-26.283" y1="0.5" x2="-25.389" y2="0.5" gradientUnits="objectBoundingBox">
      <stop offset="0" stop-color="#0f0bcc"/>
      <stop offset="1" stop-color="#504bf9"/>
    </linearGradient>
    <linearGradient id="linear-gradient-75" x1="-25.244" y1="0.5" x2="-26.204" y2="0.5" gradientUnits="objectBoundingBox">
      <stop offset="0" stop-color="#7afffd"/>
      <stop offset="1" stop-color="#e2feff"/>
    </linearGradient>
    <linearGradient id="linear-gradient-76" x1="-28.607" y1="0.5" x2="-27.713" y2="0.5" xlink:href="#linear-gradient-74"/>
    <linearGradient id="linear-gradient-77" x1="-27.568" y1="0.5" x2="-28.528" y2="0.5" xlink:href="#linear-gradient-75"/>
    <linearGradient id="linear-gradient-78" x1="-28.052" y1="0.081" x2="-28.052" y2="1.094" xlink:href="#linear-gradient-54"/>
    <linearGradient id="linear-gradient-79" x1="0.5" y1="-0.064" x2="0.5" y2="2.617" xlink:href="#linear-gradient-54"/>
    <linearGradient id="linear-gradient-80" x1="-176.136" y1="-0.284" x2="-176.136" y2="1.229" xlink:href="#linear-gradient-54"/>
    <linearGradient id="linear-gradient-81" x1="-95.32" y1="-0.21" x2="-95.32" y2="1.051" gradientUnits="objectBoundingBox">
      <stop offset="0.008" stop-color="#f6a4ff" stop-opacity="0.502"/>
      <stop offset="0.171" stop-color="#e1adff" stop-opacity="0.565"/>
      <stop offset="0.504" stop-color="#aec5ff" stop-opacity="0.725"/>
      <stop offset="0.973" stop-color="#5bebff" stop-opacity="0.988"/>
      <stop offset="0.996" stop-color="#57edff"/>
    </linearGradient>
    <linearGradient id="linear-gradient-82" x1="-90.767" y1="-0.35" x2="-90.767" y2="1.23" xlink:href="#linear-gradient-54"/>
    <linearGradient id="linear-gradient-83" x1="-166.114" y1="-0.19" x2="-166.114" y2="1.195" gradientUnits="objectBoundingBox">
      <stop offset="0.013" stop-color="#f6a4ff" stop-opacity="0.902"/>
      <stop offset="0.196" stop-color="#deaeff" stop-opacity="0.914"/>
      <stop offset="0.571" stop-color="#a3caff" stop-opacity="0.953"/>
      <stop offset="0.996" stop-color="#57edff"/>
    </linearGradient>
    <linearGradient id="linear-gradient-84" x1="-2.266" y1="-0.114" x2="-2.266" y2="1.599" xlink:href="#linear-gradient-54"/>
    <linearGradient id="linear-gradient-85" x1="0.5" y1="-1.419" x2="0.5" y2="2.084" xlink:href="#linear-gradient-81"/>
    <linearGradient id="linear-gradient-86" x1="-790.991" y1="1" x2="-790.991" gradientUnits="objectBoundingBox">
      <stop offset="0" stop-color="#504bf9" stop-opacity="0"/>
      <stop offset="1" stop-color="#1951de"/>
    </linearGradient>
    <linearGradient id="linear-gradient-87" x1="-857.024" y1="1" x2="-857.024" y2="0" xlink:href="#linear-gradient-86"/>
    <linearGradient id="linear-gradient-88" x1="-707.669" y1="0.934" x2="-707.669" y2="-0.097" gradientUnits="objectBoundingBox">
      <stop offset="0" stop-color="#504bf9" stop-opacity="0"/>
      <stop offset="1" stop-color="#0094d6"/>
    </linearGradient>
    <linearGradient id="linear-gradient-89" x1="-686.481" y1="1" x2="-686.481" gradientUnits="objectBoundingBox">
      <stop offset="0" stop-color="#504bf9" stop-opacity="0"/>
      <stop offset="1" stop-color="#2eccfc"/>
    </linearGradient>
    <linearGradient id="linear-gradient-90" x1="-695.185" y1="1" x2="-695.185" gradientUnits="objectBoundingBox">
      <stop offset="0" stop-color="#504bf9" stop-opacity="0"/>
      <stop offset="1" stop-color="#2ab7f6"/>
    </linearGradient>
    <linearGradient id="linear-gradient-91" x1="-658.96" y1="1" x2="-658.96" y2="0" xlink:href="#linear-gradient-90"/>
    <linearGradient id="linear-gradient-92" x1="-787.884" y1="1" x2="-787.884" gradientUnits="objectBoundingBox">
      <stop offset="0" stop-color="#504bf9" stop-opacity="0"/>
      <stop offset="1" stop-color="#002c9a"/>
      <stop offset="1" stop-color="#9400d5"/>
    </linearGradient>
    <linearGradient id="linear-gradient-93" x1="-36.388" y1="0.826" x2="-36.388" y2="-0.06" gradientUnits="objectBoundingBox">
      <stop offset="0.001" stop-color="#fff"/>
      <stop offset="0.996" stop-color="#57edff" stop-opacity="0"/>
    </linearGradient>
    <linearGradient id="linear-gradient-94" x1="0.65" y1="-0.02" x2="0.194" y2="0.962" gradientUnits="objectBoundingBox">
      <stop offset="0" stop-color="aqua"/>
      <stop offset="1" stop-color="#09f"/>
    </linearGradient>
    <linearGradient id="linear-gradient-95" x1="1.476" y1="-0.12" x2="-0.134" y2="0.975" xlink:href="#linear-gradient-69"/>
    <linearGradient id="linear-gradient-96" x1="0.5" y1="0.179" x2="0.5" y2="1.088" xlink:href="#linear-gradient-94"/>
    <linearGradient id="linear-gradient-97" x1="0.987" y1="-0.097" x2="0.117" y2="0.889" gradientUnits="objectBoundingBox">
      <stop offset="0" stop-color="#020126" stop-opacity="0.702"/>
      <stop offset="0.997" stop-color="#2c0072" stop-opacity="0"/>
    </linearGradient>
    <linearGradient id="linear-gradient-98" x1="0.99" y1="-0.11" x2="0.075" y2="0.927" xlink:href="#linear-gradient-97"/>
    <linearGradient id="linear-gradient-99" x1="-184.42" y1="-0.671" x2="-184.42" y2="1.446" xlink:href="#linear-gradient-54"/>
    <linearGradient id="linear-gradient-100" x1="0.5" y1="-0.89" x2="0.5" y2="1.164" xlink:href="#linear-gradient-54"/>
    <linearGradient id="linear-gradient-101" x1="0.5" y1="-0.642" x2="0.5" y2="1.987" xlink:href="#linear-gradient-54"/>
    <linearGradient id="linear-gradient-102" x1="0.5" y1="-0.817" x2="0.5" y2="1.811" xlink:href="#linear-gradient-54"/>
    <linearGradient id="linear-gradient-103" y1="0.5" x2="1.344" y2="0.5" gradientUnits="objectBoundingBox">
      <stop offset="0" stop-color="#3e1978"/>
      <stop offset="0.002" stop-color="#002a98"/>
      <stop offset="1" stop-color="#2ab7f6"/>
    </linearGradient>
    <linearGradient id="linear-gradient-104" x1="-19.314" y1="0.5" x2="-18.314" y2="0.5" gradientUnits="objectBoundingBox">
      <stop offset="0" stop-color="#c887f5"/>
      <stop offset="1" stop-color="#2ab7f6"/>
    </linearGradient>
    <linearGradient id="linear-gradient-105" x1="0" y1="0.5" x2="1" y2="0.5" xlink:href="#linear-gradient-75"/>
    <linearGradient id="linear-gradient-106" x1="0.5" y1="0.105" x2="0.5" y2="1.079" xlink:href="#linear-gradient-54"/>
    <linearGradient id="linear-gradient-107" x1="-818.189" y1="1" x2="-818.189" gradientUnits="objectBoundingBox">
      <stop offset="0" stop-color="#504bf9" stop-opacity="0"/>
      <stop offset="1" stop-color="#002c9a"/>
    </linearGradient>
    <linearGradient id="linear-gradient-108" x1="-886.703" y1="1" x2="-886.703" gradientUnits="objectBoundingBox">
      <stop offset="0" stop-color="#504bf9" stop-opacity="0"/>
      <stop offset="1" stop-color="#2d0273"/>
    </linearGradient>
    <linearGradient id="linear-gradient-109" x1="-732.3" y1="0.934" x2="-732.3" y2="-0.097" gradientUnits="objectBoundingBox">
      <stop offset="0" stop-color="#504bf9" stop-opacity="0"/>
      <stop offset="1" stop-color="#416fff"/>
    </linearGradient>
    <linearGradient id="linear-gradient-110" x1="-709.622" y1="1" x2="-709.622" y2="0" xlink:href="#linear-gradient-88"/>
    <linearGradient id="linear-gradient-111" x1="-719.373" y1="1" x2="-719.373" y2="0" xlink:href="#linear-gradient-90"/>
    <linearGradient id="linear-gradient-112" x1="-683.12" y1="1" x2="-683.12" y2="0" xlink:href="#linear-gradient-90"/>
    <linearGradient id="linear-gradient-113" x1="-815.161" y1="1" x2="-815.161" gradientUnits="objectBoundingBox">
      <stop offset="0" stop-color="#504bf9" stop-opacity="0"/>
      <stop offset="0.998" stop-color="#0094d6"/>
      <stop offset="1" stop-color="#9400d5"/>
    </linearGradient>
    <linearGradient id="linear-gradient-114" x1="0.5" y1="0.826" x2="0.5" y2="-0.454" xlink:href="#linear-gradient-93"/>
    <linearGradient id="linear-gradient-115" y1="0.5" x2="1" y2="0.5" gradientUnits="objectBoundingBox">
      <stop offset="0" stop-color="#2c0072" stop-opacity="0.302"/>
      <stop offset="0.015" stop-color="#2c0072" stop-opacity="0.302"/>
      <stop offset="1" stop-color="#1a1e50"/>
    </linearGradient>
  </defs>
  <g id="Group_2281" data-name="Group 2281" transform="translate(-653.255 -336.718)">
    <path id="Path_6316" data-name="Path 6316" d="M722.157,533.3l27.151-11.805,46.813,20.881L768.8,554.722Z" transform="translate(72.631 194.777)" opacity="0.56" fill="url(#linear-gradient)"/>
    <path id="Path_6317" data-name="Path 6317" d="M1142.133,487.613l-92.793-41.43a19.022,19.022,0,0,0-15.585.033L890.361,510.979l-63.431-28.32a15.251,15.251,0,0,0-12.493.027L656.291,554.111a5.156,5.156,0,0,0,.035,9.416l71.229,31.521a23.866,23.866,0,0,0,19.687,0L844.964,550.8l80.409,35.582a29.761,29.761,0,0,0,24.559,0l192.231-87.035A6.433,6.433,0,0,0,1142.133,487.613Z" transform="translate(0 113.648)" opacity="0.56" fill="url(#linear-gradient-2)"/>
    <g id="Group_2222" data-name="Group 2222" transform="translate(955.423 702.27)">
      <ellipse id="Ellipse_153" data-name="Ellipse 153" cx="29.268" cy="10.989" rx="29.268" ry="10.989" transform="translate(0 12.536)" opacity="0.56" fill="url(#linear-gradient-3)"/>
    </g>
    <g id="Group_2223" data-name="Group 2223" transform="translate(653.255 512.409)">
      <path id="Path_6325" data-name="Path 6325" d="M904.386,441.411v10.716h0a5.145,5.145,0,0,1-3.061,4.755L749.392,525.671a29.064,29.064,0,0,1-23.986,0l-69.09-31.438a5.138,5.138,0,0,1-3.059-4.727h0V479.423Z" transform="translate(-653.255 -402.049)" fill="#002c9a"/>
      <path id="Path_6326" data-name="Path 6326" d="M901.315,456.783a5.159,5.159,0,0,1,.025,9.41l-154.1,69.768a23.865,23.865,0,0,1-19.687,0l-71.229-31.518a5.158,5.158,0,0,1-.035-9.418L814.436,423.6a15.251,15.251,0,0,1,12.493-.029Z" transform="translate(-653.255 -422.249)" fill="#2ab7f6"/>
    </g>
    <g id="Group_2224" data-name="Group 2224" transform="translate(832.685 525.687)">
      <path id="Path_6327" data-name="Path 6327" d="M1053.885,452.9v11.07h0a6.412,6.412,0,0,1-3.817,5.93L860.534,555.718a36.27,36.27,0,0,1-29.92,0L744.427,516.5a6.409,6.409,0,0,1-3.817-5.9h0V500.127Z" transform="translate(-740.606 -403.211)" fill="#002c9a"/>
      <path id="Path_6328" data-name="Path 6328" d="M1050.053,471.8a6.433,6.433,0,0,1,.031,11.735L857.853,570.567a29.761,29.761,0,0,1-24.559,0l-88.855-39.32a6.433,6.433,0,0,1-.045-11.748l197.282-89.1a19.023,19.023,0,0,1,15.585-.035Z" transform="translate(-740.605 -428.713)" fill="url(#linear-gradient-4)"/>
      <path id="Path_6329" data-name="Path 6329" d="M1050.053,471.8a6.433,6.433,0,0,1,.031,11.735L857.853,570.567a29.761,29.761,0,0,1-24.559,0l-88.855-39.32a6.433,6.433,0,0,1-.045-11.748l197.282-89.1a19.023,19.023,0,0,1,15.585-.035Z" transform="translate(-740.605 -428.713)" fill="url(#linear-gradient-5)"/>
    </g>
    <path id="Path_6330" data-name="Path 6330" d="M855.668,509.166l-50.388-22.2,3.975-1.8a5.157,5.157,0,0,0-.025-9.408l-25.7-11.474L744.4,481.959a6.434,6.434,0,0,0,.045,11.748l23.238,10.283,6.933-3.139,50.529,22.224a4.183,4.183,0,0,0,3.459,0l27.071-12.255A.907.907,0,0,0,855.668,509.166Z" transform="translate(92.085 134.47)" fill="url(#linear-gradient-6)"/>
    <g id="Group_2229" data-name="Group 2229" transform="translate(788.529 514.835)">
      <path id="Path_6331" data-name="Path 6331" d="M777.646,444.023c0,5.521-13.1,10-29.267,10s-29.269-4.478-29.269-10,13.105-10,29.269-10S777.646,438.5,777.646,444.023Z" transform="translate(-719.11 -412.263)" opacity="0.56" fill="url(#linear-gradient-3)"/>
      <g id="Group_2228" data-name="Group 2228" transform="translate(18.187)">
        <g id="Group_2225" data-name="Group 2225" transform="translate(0 17.602)">
          <path id="Path_6332" data-name="Path 6332" d="M727.964,435.687v6.442c0,4.184,9.032,7.576,20.176,7.576s20.174-3.391,20.174-7.576v-6.442Z" transform="translate(-727.964 -428.111)" fill="url(#linear-gradient-8)"/>
          <path id="Path_6333" data-name="Path 6333" d="M768.313,439.575c0,4.182-9.032,7.573-20.174,7.573s-20.176-3.391-20.176-7.573S737,432,748.14,432,768.313,435.39,768.313,439.575Z" transform="translate(-727.964 -431.999)" fill="#05ee95"/>
          <path id="Path_6334" data-name="Path 6334" d="M760.269,438.55c0,3.081-6.651,5.579-14.857,5.579s-14.859-2.5-14.859-5.579,6.653-5.579,14.859-5.579S760.269,435.469,760.269,438.55Z" transform="translate(-725.236 -430.974)" fill="#00c278"/>
          <path id="Path_6335" data-name="Path 6335" d="M745.411,433.754c7.853,0,14.268,2.29,14.806,5.187a2.285,2.285,0,0,0,.051-.39c0-3.081-6.651-5.579-14.857-5.579s-14.859,2.5-14.859,5.579a2.109,2.109,0,0,0,.053.39C731.144,436.044,737.557,433.754,745.411,433.754Z" transform="translate(-725.236 -430.974)" fill="#f69e3e"/>
        </g>
        <g id="Group_2226" data-name="Group 2226" transform="translate(0 8.801)">
          <path id="Path_6336" data-name="Path 6336" d="M727.964,431.4v6.444c0,4.184,9.032,7.576,20.176,7.576s20.174-3.391,20.174-7.576V431.4Z" transform="translate(-727.964 -423.827)" fill="url(#linear-gradient-9)"/>
          <ellipse id="Ellipse_155" data-name="Ellipse 155" cx="20.174" cy="7.575" rx="20.174" ry="7.575" transform="translate(0.001)" fill="#05ee95"/>
          <path id="Path_6337" data-name="Path 6337" d="M760.269,434.265c0,3.081-6.651,5.579-14.857,5.579s-14.859-2.5-14.859-5.579,6.653-5.579,14.859-5.579S760.269,431.184,760.269,434.265Z" transform="translate(-725.236 -426.69)" fill="#00c278"/>
          <path id="Path_6338" data-name="Path 6338" d="M745.411,429.471c7.853,0,14.268,2.29,14.806,5.187a2.28,2.28,0,0,0,.051-.392c0-3.081-6.651-5.579-14.857-5.579s-14.859,2.5-14.859,5.579a2.106,2.106,0,0,0,.053.392C731.144,431.761,737.557,429.471,745.411,429.471Z" transform="translate(-725.236 -426.69)" fill="#f69e3e"/>
        </g>
        <g id="Group_2227" data-name="Group 2227">
          <path id="Path_6339" data-name="Path 6339" d="M727.964,427.118v6.444c0,4.182,9.032,7.574,20.176,7.574s20.174-3.391,20.174-7.574v-6.444Z" transform="translate(-727.964 -419.542)" fill="url(#linear-gradient-10)"/>
          <path id="Path_6340" data-name="Path 6340" d="M768.313,431.006c0,4.182-9.032,7.574-20.174,7.574s-20.176-3.391-20.176-7.574S737,423.43,748.14,423.43,768.313,426.821,768.313,431.006Z" transform="translate(-727.964 -423.43)" fill="#05ee95"/>
          <path id="Path_6341" data-name="Path 6341" d="M760.269,429.981c0,3.081-6.651,5.579-14.857,5.579s-14.859-2.5-14.859-5.579,6.653-5.579,14.859-5.579S760.269,426.9,760.269,429.981Z" transform="translate(-725.236 -422.405)" fill="#00c278"/>
          <path id="Path_6342" data-name="Path 6342" d="M745.411,425.187c7.853,0,14.268,2.288,14.806,5.187a2.334,2.334,0,0,0,.051-.392c0-3.081-6.651-5.579-14.857-5.579s-14.859,2.5-14.859,5.579a2.154,2.154,0,0,0,.053.392C731.144,427.475,737.557,425.187,745.411,425.187Z" transform="translate(-725.236 -422.405)" fill="url(#linear-gradient-11)"/>
        </g>
      </g>
    </g>
    <g id="Group_2259" data-name="Group 2259" transform="translate(891.723 695.697)">
      <path id="Path_6382" data-name="Path 6382" d="M827.883,539.686c0,6.07-13.1,10.989-29.267,10.989s-29.269-4.92-29.269-10.989,13.105-10.99,29.269-10.99S827.883,533.616,827.883,539.686Z" transform="translate(-769.347 -493.328)" opacity="0.56" fill="url(#linear-gradient-3)"/>
      <g id="Group_2250" data-name="Group 2250" transform="translate(18.187 31.773)">
        <g id="Group_2249" data-name="Group 2249">
          <path id="Path_6383" data-name="Path 6383" d="M778.2,530.634v6.444c0,4.182,9.032,7.574,20.176,7.574s20.174-3.391,20.174-7.574v-6.444Z" transform="translate(-778.201 -523.058)" fill="url(#linear-gradient-13)"/>
          <path id="Path_6384" data-name="Path 6384" d="M818.55,534.522c0,4.182-9.032,7.574-20.174,7.574S778.2,538.7,778.2,534.522s9.032-7.576,20.176-7.576S818.55,530.337,818.55,534.522Z" transform="translate(-778.201 -526.946)" fill="url(#linear-gradient-14)"/>
          <path id="Path_6385" data-name="Path 6385" d="M810.506,533.5c0,3.081-6.651,5.579-14.857,5.579s-14.86-2.5-14.86-5.579,6.653-5.579,14.86-5.579S810.506,530.416,810.506,533.5Z" transform="translate(-775.473 -525.921)" fill="url(#linear-gradient-15)"/>
          <path id="Path_6386" data-name="Path 6386" d="M795.649,528.7c7.853,0,14.266,2.288,14.8,5.187a2.155,2.155,0,0,0,.053-.392c0-3.081-6.651-5.579-14.857-5.579s-14.86,2.5-14.86,5.579a2.134,2.134,0,0,0,.054.392C781.38,530.991,787.794,528.7,795.649,528.7Z" transform="translate(-775.473 -525.921)" fill="url(#linear-gradient-16)"/>
        </g>
      </g>
      <g id="Group_2252" data-name="Group 2252" transform="translate(18.187 23.83)">
        <g id="Group_2251" data-name="Group 2251">
          <path id="Path_6387" data-name="Path 6387" d="M778.2,526.767v6.444c0,4.182,9.032,7.574,20.176,7.574s20.174-3.391,20.174-7.574v-6.444Z" transform="translate(-778.201 -519.191)" fill="url(#linear-gradient-13)"/>
          <path id="Path_6388" data-name="Path 6388" d="M818.55,530.655c0,4.182-9.032,7.573-20.174,7.573s-20.176-3.391-20.176-7.573,9.032-7.576,20.176-7.576S818.55,526.47,818.55,530.655Z" transform="translate(-778.201 -523.079)" fill="url(#linear-gradient-18)"/>
          <path id="Path_6389" data-name="Path 6389" d="M810.506,529.63c0,3.081-6.651,5.579-14.857,5.579s-14.86-2.5-14.86-5.579,6.653-5.579,14.86-5.579S810.506,526.549,810.506,529.63Z" transform="translate(-775.473 -522.054)" fill="url(#linear-gradient-15)"/>
          <path id="Path_6390" data-name="Path 6390" d="M795.649,524.836c7.853,0,14.266,2.288,14.8,5.187a2.154,2.154,0,0,0,.053-.392c0-3.081-6.651-5.579-14.857-5.579s-14.86,2.5-14.86,5.579a2.133,2.133,0,0,0,.054.392C781.38,527.124,787.794,524.836,795.649,524.836Z" transform="translate(-775.473 -522.054)" fill="url(#linear-gradient-16)"/>
        </g>
      </g>
      <g id="Group_2254" data-name="Group 2254" transform="translate(18.187 15.887)">
        <g id="Group_2253" data-name="Group 2253">
          <path id="Path_6391" data-name="Path 6391" d="M778.2,522.9v6.444c0,4.182,9.032,7.574,20.176,7.574s20.174-3.391,20.174-7.574V522.9Z" transform="translate(-778.201 -515.324)" fill="url(#linear-gradient-13)"/>
          <path id="Path_6392" data-name="Path 6392" d="M818.55,526.788c0,4.182-9.032,7.573-20.174,7.573S778.2,530.97,778.2,526.788s9.032-7.576,20.176-7.576S818.55,522.6,818.55,526.788Z" transform="translate(-778.201 -519.212)" fill="url(#linear-gradient-18)"/>
          <path id="Path_6393" data-name="Path 6393" d="M810.506,525.763c0,3.081-6.651,5.579-14.857,5.579s-14.86-2.5-14.86-5.579,6.653-5.579,14.86-5.579S810.506,522.682,810.506,525.763Z" transform="translate(-775.473 -518.187)" fill="url(#linear-gradient-15)"/>
          <path id="Path_6394" data-name="Path 6394" d="M795.649,520.969c7.853,0,14.266,2.288,14.8,5.187a2.153,2.153,0,0,0,.053-.392c0-3.081-6.651-5.579-14.857-5.579s-14.86,2.5-14.86,5.579a2.132,2.132,0,0,0,.054.392C781.38,523.257,787.794,520.969,795.649,520.969Z" transform="translate(-775.473 -518.187)" fill="url(#linear-gradient-16)"/>
        </g>
      </g>
      <g id="Group_2256" data-name="Group 2256" transform="translate(18.187 7.943)">
        <g id="Group_2255" data-name="Group 2255">
          <path id="Path_6395" data-name="Path 6395" d="M778.2,519.033v6.444c0,4.182,9.032,7.574,20.176,7.574s20.174-3.391,20.174-7.574v-6.444Z" transform="translate(-778.201 -511.457)" fill="url(#linear-gradient-13)"/>
          <path id="Path_6396" data-name="Path 6396" d="M818.55,522.921c0,4.184-9.032,7.576-20.174,7.576S778.2,527.1,778.2,522.921s9.032-7.576,20.176-7.576S818.55,518.736,818.55,522.921Z" transform="translate(-778.201 -515.345)" fill="url(#linear-gradient-18)"/>
          <path id="Path_6397" data-name="Path 6397" d="M810.506,521.9c0,3.081-6.651,5.579-14.857,5.579s-14.86-2.5-14.86-5.579,6.653-5.579,14.86-5.579S810.506,518.815,810.506,521.9Z" transform="translate(-775.473 -514.32)" fill="url(#linear-gradient-15)"/>
          <path id="Path_6398" data-name="Path 6398" d="M795.649,517.1c7.853,0,14.266,2.288,14.8,5.187a2.155,2.155,0,0,0,.053-.392c0-3.081-6.651-5.579-14.857-5.579s-14.86,2.5-14.86,5.579a2.135,2.135,0,0,0,.054.392C781.38,519.39,787.794,517.1,795.649,517.1Z" transform="translate(-775.473 -514.32)" fill="url(#linear-gradient-16)"/>
        </g>
      </g>
      <g id="Group_2258" data-name="Group 2258" transform="translate(18.187)">
        <g id="Group_2257" data-name="Group 2257">
          <path id="Path_6399" data-name="Path 6399" d="M778.2,515.166v6.444c0,4.182,9.032,7.574,20.176,7.574s20.174-3.391,20.174-7.574v-6.444Z" transform="translate(-778.201 -507.59)" fill="url(#linear-gradient-13)"/>
          <path id="Path_6400" data-name="Path 6400" d="M818.55,519.054c0,4.184-9.032,7.576-20.174,7.576s-20.176-3.391-20.176-7.576,9.032-7.576,20.176-7.576S818.55,514.869,818.55,519.054Z" transform="translate(-778.201 -511.478)" fill="url(#linear-gradient-18)"/>
          <path id="Path_6401" data-name="Path 6401" d="M810.506,518.029c0,3.081-6.651,5.579-14.857,5.579s-14.86-2.5-14.86-5.579,6.653-5.579,14.86-5.579S810.506,514.948,810.506,518.029Z" transform="translate(-775.473 -510.453)" fill="url(#linear-gradient-31)"/>
          <path id="Path_6402" data-name="Path 6402" d="M795.649,513.235c7.853,0,14.266,2.288,14.8,5.187a2.132,2.132,0,0,0,.053-.392c0-3.081-6.651-5.579-14.857-5.579s-14.86,2.5-14.86,5.579a2.111,2.111,0,0,0,.054.392C781.38,515.523,787.794,513.235,795.649,513.235Z" transform="translate(-775.473 -510.453)" fill="url(#linear-gradient-32)"/>
        </g>
      </g>
    </g>
    <g id="Group_2322" data-name="Group 2322" transform="translate(1063.723 611.697)">
      <path id="Path_6382-2" data-name="Path 6382" d="M827.883,539.686c0,6.07-13.1,10.989-29.267,10.989s-29.269-4.92-29.269-10.989,13.105-10.99,29.269-10.99S827.883,533.616,827.883,539.686Z" transform="translate(-769.347 -493.328)" opacity="0.56" fill="url(#linear-gradient-3)"/>
      <g id="Group_2250-2" data-name="Group 2250" transform="translate(18.187 31.773)">
        <g id="Group_2249-2" data-name="Group 2249">
          <path id="Path_6383-2" data-name="Path 6383" d="M778.2,530.634v6.444c0,4.182,9.032,7.574,20.176,7.574s20.174-3.391,20.174-7.574v-6.444Z" transform="translate(-778.201 -523.058)" fill="url(#linear-gradient-13)"/>
          <path id="Path_6384-2" data-name="Path 6384" d="M818.55,534.522c0,4.182-9.032,7.574-20.174,7.574S778.2,538.7,778.2,534.522s9.032-7.576,20.176-7.576S818.55,530.337,818.55,534.522Z" transform="translate(-778.201 -526.946)" fill="url(#linear-gradient-14)"/>
          <path id="Path_6385-2" data-name="Path 6385" d="M810.506,533.5c0,3.081-6.651,5.579-14.857,5.579s-14.86-2.5-14.86-5.579,6.653-5.579,14.86-5.579S810.506,530.416,810.506,533.5Z" transform="translate(-775.473 -525.921)" fill="url(#linear-gradient-15)"/>
          <path id="Path_6386-2" data-name="Path 6386" d="M795.649,528.7c7.853,0,14.266,2.288,14.8,5.187a2.155,2.155,0,0,0,.053-.392c0-3.081-6.651-5.579-14.857-5.579s-14.86,2.5-14.86,5.579a2.134,2.134,0,0,0,.054.392C781.38,530.991,787.794,528.7,795.649,528.7Z" transform="translate(-775.473 -525.921)" fill="url(#linear-gradient-16)"/>
        </g>
      </g>
      <g id="Group_2252-2" data-name="Group 2252" transform="translate(18.187 23.83)">
        <g id="Group_2251-2" data-name="Group 2251">
          <path id="Path_6387-2" data-name="Path 6387" d="M778.2,526.767v6.444c0,4.182,9.032,7.574,20.176,7.574s20.174-3.391,20.174-7.574v-6.444Z" transform="translate(-778.201 -519.191)" fill="url(#linear-gradient-13)"/>
          <path id="Path_6388-2" data-name="Path 6388" d="M818.55,530.655c0,4.182-9.032,7.573-20.174,7.573s-20.176-3.391-20.176-7.573,9.032-7.576,20.176-7.576S818.55,526.47,818.55,530.655Z" transform="translate(-778.201 -523.079)" fill="url(#linear-gradient-18)"/>
          <path id="Path_6389-2" data-name="Path 6389" d="M810.506,529.63c0,3.081-6.651,5.579-14.857,5.579s-14.86-2.5-14.86-5.579,6.653-5.579,14.86-5.579S810.506,526.549,810.506,529.63Z" transform="translate(-775.473 -522.054)" fill="url(#linear-gradient-15)"/>
          <path id="Path_6390-2" data-name="Path 6390" d="M795.649,524.836c7.853,0,14.266,2.288,14.8,5.187a2.154,2.154,0,0,0,.053-.392c0-3.081-6.651-5.579-14.857-5.579s-14.86,2.5-14.86,5.579a2.133,2.133,0,0,0,.054.392C781.38,527.124,787.794,524.836,795.649,524.836Z" transform="translate(-775.473 -522.054)" fill="url(#linear-gradient-16)"/>
        </g>
      </g>
      <g id="Group_2254-2" data-name="Group 2254" transform="translate(18.187 15.887)">
        <g id="Group_2253-2" data-name="Group 2253">
          <path id="Path_6391-2" data-name="Path 6391" d="M778.2,522.9v6.444c0,4.182,9.032,7.574,20.176,7.574s20.174-3.391,20.174-7.574V522.9Z" transform="translate(-778.201 -515.324)" fill="url(#linear-gradient-13)"/>
          <path id="Path_6392-2" data-name="Path 6392" d="M818.55,526.788c0,4.182-9.032,7.573-20.174,7.573S778.2,530.97,778.2,526.788s9.032-7.576,20.176-7.576S818.55,522.6,818.55,526.788Z" transform="translate(-778.201 -519.212)" fill="url(#linear-gradient-18)"/>
          <path id="Path_6393-2" data-name="Path 6393" d="M810.506,525.763c0,3.081-6.651,5.579-14.857,5.579s-14.86-2.5-14.86-5.579,6.653-5.579,14.86-5.579S810.506,522.682,810.506,525.763Z" transform="translate(-775.473 -518.187)" fill="url(#linear-gradient-15)"/>
          <path id="Path_6394-2" data-name="Path 6394" d="M795.649,520.969c7.853,0,14.266,2.288,14.8,5.187a2.153,2.153,0,0,0,.053-.392c0-3.081-6.651-5.579-14.857-5.579s-14.86,2.5-14.86,5.579a2.132,2.132,0,0,0,.054.392C781.38,523.257,787.794,520.969,795.649,520.969Z" transform="translate(-775.473 -518.187)" fill="url(#linear-gradient-16)"/>
        </g>
      </g>
      <g id="Group_2256-2" data-name="Group 2256" transform="translate(18.187 7.943)">
        <g id="Group_2255-2" data-name="Group 2255">
          <path id="Path_6395-2" data-name="Path 6395" d="M778.2,519.033v6.444c0,4.182,9.032,7.574,20.176,7.574s20.174-3.391,20.174-7.574v-6.444Z" transform="translate(-778.201 -511.457)" fill="url(#linear-gradient-13)"/>
          <path id="Path_6396-2" data-name="Path 6396" d="M818.55,522.921c0,4.184-9.032,7.576-20.174,7.576S778.2,527.1,778.2,522.921s9.032-7.576,20.176-7.576S818.55,518.736,818.55,522.921Z" transform="translate(-778.201 -515.345)" fill="url(#linear-gradient-18)"/>
          <path id="Path_6397-2" data-name="Path 6397" d="M810.506,521.9c0,3.081-6.651,5.579-14.857,5.579s-14.86-2.5-14.86-5.579,6.653-5.579,14.86-5.579S810.506,518.815,810.506,521.9Z" transform="translate(-775.473 -514.32)" fill="url(#linear-gradient-15)"/>
          <path id="Path_6398-2" data-name="Path 6398" d="M795.649,517.1c7.853,0,14.266,2.288,14.8,5.187a2.155,2.155,0,0,0,.053-.392c0-3.081-6.651-5.579-14.857-5.579s-14.86,2.5-14.86,5.579a2.135,2.135,0,0,0,.054.392C781.38,519.39,787.794,517.1,795.649,517.1Z" transform="translate(-775.473 -514.32)" fill="url(#linear-gradient-16)"/>
        </g>
      </g>
      <g id="Group_2258-2" data-name="Group 2258" transform="translate(18.187)">
        <g id="Group_2257-2" data-name="Group 2257">
          <path id="Path_6399-2" data-name="Path 6399" d="M778.2,515.166v6.444c0,4.182,9.032,7.574,20.176,7.574s20.174-3.391,20.174-7.574v-6.444Z" transform="translate(-778.201 -507.59)" fill="url(#linear-gradient-13)"/>
          <path id="Path_6400-2" data-name="Path 6400" d="M818.55,519.054c0,4.184-9.032,7.576-20.174,7.576s-20.176-3.391-20.176-7.576,9.032-7.576,20.176-7.576S818.55,514.869,818.55,519.054Z" transform="translate(-778.201 -511.478)" fill="url(#linear-gradient-18)"/>
          <path id="Path_6401-2" data-name="Path 6401" d="M810.506,518.029c0,3.081-6.651,5.579-14.857,5.579s-14.86-2.5-14.86-5.579,6.653-5.579,14.86-5.579S810.506,514.948,810.506,518.029Z" transform="translate(-775.473 -510.453)" fill="url(#linear-gradient-31)"/>
          <path id="Path_6402-2" data-name="Path 6402" d="M795.649,513.235c7.853,0,14.266,2.288,14.8,5.187a2.132,2.132,0,0,0,.053-.392c0-3.081-6.651-5.579-14.857-5.579s-14.86,2.5-14.86,5.579a2.111,2.111,0,0,0,.054.392C781.38,515.523,787.794,513.235,795.649,513.235Z" transform="translate(-775.473 -510.453)" fill="url(#linear-gradient-32)"/>
        </g>
      </g>
    </g>
    <g id="Group_2260" data-name="Group 2260" transform="translate(941.511 415.927)">
      <path id="Path_6403" data-name="Path 6403" d="M795.662,407.77l32.685-14.8a3.534,3.534,0,0,1,4.991,3.235l-.064,14.017a3.533,3.533,0,0,1-2.07,3.2l-32.622,14.845a3.535,3.535,0,0,1-5-3.217V410.989A3.537,3.537,0,0,1,795.662,407.77Z" transform="translate(-793.585 -356.963)" fill="url(#linear-gradient-54)"/>
      <path id="Path_6404" data-name="Path 6404" d="M818.148,405.584l32.685-14.8a3.534,3.534,0,0,1,4.991,3.235l-.066,14.019a3.531,3.531,0,0,1-2.068,3.2l-32.622,14.845a3.535,3.535,0,0,1-5-3.217V408.8A3.532,3.532,0,0,1,818.148,405.584Z" transform="translate(-769.882 -359.271)" fill="url(#linear-gradient-54)"/>
      <path id="Path_6405" data-name="Path 6405" d="M816.705,382.612l15.819-7.025a3.534,3.534,0,0,1,4.969,3.246l-.066,14.046a3.532,3.532,0,0,1-2.089,3.209l-15.753,7.06a3.534,3.534,0,0,1-4.979-3.225V385.842A3.535,3.535,0,0,1,816.705,382.612Z" transform="translate(-771.426 -375.279)" fill="url(#linear-gradient-56)"/>
    </g>
    <g id="Group_2266" data-name="Group 2266" transform="translate(866.613 571.134)">
      <g id="Group_2261" data-name="Group 2261" transform="translate(41.041 57.545)">
        <path id="Path_6406" data-name="Path 6406" d="M821.219,482.2v3.823h0a.906.906,0,0,1-.538.836l-26.689,12.084a5.113,5.113,0,0,1-4.215,0l-12.136-5.523a.9.9,0,0,1-.538-.83h0v-3.771Z" transform="translate(-777.103 -475.326)" fill="url(#linear-gradient-57)"/>
        <path id="Path_6407" data-name="Path 6407" d="M820.681,484.92a.906.906,0,0,1,0,1.651l-27.071,12.257a4.2,4.2,0,0,1-3.459,0l-12.514-5.538a.906.906,0,0,1-.006-1.654l27.784-12.547a2.67,2.67,0,0,1,2.194-.006Z" transform="translate(-777.103 -478.852)" fill="url(#linear-gradient-58)"/>
      </g>
      <g id="Group_2262" data-name="Group 2262" transform="translate(30.781 43.159)">
        <path id="Path_6408" data-name="Path 6408" d="M816.224,475.192v3.823h0a.9.9,0,0,1-.536.836L789,491.935a5.109,5.109,0,0,1-4.213,0l-12.138-5.524a.9.9,0,0,1-.538-.83h0V481.81Z" transform="translate(-772.108 -468.324)" fill="url(#linear-gradient-59)"/>
        <path id="Path_6409" data-name="Path 6409" d="M815.686,477.915a.907.907,0,0,1,0,1.654l-27.071,12.255a4.182,4.182,0,0,1-3.459,0l-12.512-5.536a.907.907,0,0,1-.008-1.656l27.784-12.547a2.678,2.678,0,0,1,2.194,0Z" transform="translate(-772.108 -471.849)" fill="url(#linear-gradient-60)"/>
      </g>
      <g id="Group_2263" data-name="Group 2263" transform="translate(20.521 28.772)">
        <path id="Path_6410" data-name="Path 6410" d="M811.231,468.189v3.823h0a.9.9,0,0,1-.536.834L784,484.93a5.094,5.094,0,0,1-4.213,0l-12.138-5.522a.907.907,0,0,1-.538-.832h0v-3.769Z" transform="translate(-767.113 -461.319)" fill="url(#linear-gradient-61)"/>
        <path id="Path_6411" data-name="Path 6411" d="M810.691,470.911a.907.907,0,0,1,0,1.653l-27.072,12.257a4.2,4.2,0,0,1-3.459,0l-12.512-5.538a.905.905,0,0,1-.006-1.654l27.782-12.549a2.679,2.679,0,0,1,2.194,0Z" transform="translate(-767.113 -464.845)" fill="url(#linear-gradient-62)"/>
      </g>
      <g id="Group_2264" data-name="Group 2264" transform="translate(10.26 14.385)">
        <path id="Path_6412" data-name="Path 6412" d="M806.236,461.185v3.823h0a.9.9,0,0,1-.538.836l-26.691,12.084a5.109,5.109,0,0,1-4.213,0L762.656,472.4a.9.9,0,0,1-.538-.83h0V467.8Z" transform="translate(-762.118 -454.315)" fill="url(#linear-gradient-63)"/>
        <path id="Path_6413" data-name="Path 6413" d="M805.7,463.909a.905.905,0,0,1,0,1.651l-27.072,12.257a4.2,4.2,0,0,1-3.459,0l-12.512-5.536a.907.907,0,0,1-.006-1.656l27.782-12.547a2.67,2.67,0,0,1,2.194-.006Z" transform="translate(-762.118 -457.841)" fill="url(#linear-gradient-64)"/>
      </g>
      <g id="Group_2265" data-name="Group 2265">
        <path id="Path_6414" data-name="Path 6414" d="M801.241,454.181V458h0a.9.9,0,0,1-.538.836l-26.691,12.084a5.108,5.108,0,0,1-4.213,0L757.661,465.4a.9.9,0,0,1-.538-.83h0V460.8Z" transform="translate(-757.123 -447.313)" fill="url(#linear-gradient-65)"/>
        <path id="Path_6415" data-name="Path 6415" d="M800.7,456.9a.906.906,0,0,1,0,1.654l-27.071,12.257a4.193,4.193,0,0,1-3.457,0l-12.514-5.538a.907.907,0,0,1-.006-1.656l27.782-12.547a2.678,2.678,0,0,1,2.194,0Z" transform="translate(-757.123 -450.838)" fill="url(#linear-gradient-66)"/>
      </g>
    </g>
    <g id="Group_2267" data-name="Group 2267" transform="translate(679.073 451.617)">
      <path id="Path_6416" data-name="Path 6416" d="M717.131,459.773l-43.089,21.206-8.217-3.636,45.3-19.838Z" transform="translate(-665.824 -324.293)" fill="url(#linear-gradient-67)"/>
      <path id="Path_6417" data-name="Path 6417" d="M721.151,465.764,686.12,486.347l-10.375-4.541,42.629-19.917Z" transform="translate(-655.364 -319.671)" fill="url(#linear-gradient-68)"/>
      <path id="Path_6418" data-name="Path 6418" d="M693,457.619s-8.8,6.929-8.5,7.689,11.791-2.8,12.659-3.823.208-5.8.208-5.8Z" transform="translate(-646.147 -326.208)" fill="#07042d"/>
      <path id="Path_6419" data-name="Path 6419" d="M697.056,393.709a3.651,3.651,0,0,1,3.5,2.262,8.336,8.336,0,0,1,.549,4.663,10.284,10.284,0,0,1-2.931,6.269c-1.672,1.532-3.441.916-5.4-.1-2.336-1.214-4.139-3.108-4.219-5.977a8,8,0,0,1,1.551-5.443c1.66-1.906,4.318-2.048,6.7-2.066" transform="translate(-641.873 -391.959)" fill="url(#linear-gradient-69)"/>
      <path id="Path_6420" data-name="Path 6420" d="M682.783,408.437a27.277,27.277,0,0,0-.668-6.374,1.613,1.613,0,0,0-.226-.606.577.577,0,0,0-.557-.261.478.478,0,0,0-.275.185c-.877-2.214-2-4.071-3.1-3.669-2.087.766,1.311,6.978,1.485,11.234.117,2.828,1.8.7,2.687-.639Z" transform="translate(-653.743 -387.38)" fill="#ffe1e1"/>
      <path id="Path_6421" data-name="Path 6421" d="M698.835,461.273s-5.561,10.172-2.342,10.043c.922-.039,6.146-2.553,7.516-6.885.707-2.241-.4-5.92-.4-5.92Z" transform="translate(-634.551 -323.233)" fill="#07042d"/>
      <path id="Path_6422" data-name="Path 6422" d="M711.783,499.459c0-2.126-5.193-68.711-5.339-74.99l-13.5-3.572,1.224,7.169-6.047.236.914,65.921c.045,1.06,5.109,1.28,5.534-.487,0,0,1.1-36.225,2.457-57.09l9.587,64.276C706.688,501.8,710.68,501.838,711.783,499.459Z" transform="translate(-642.324 -362.882)" fill="#00009e"/>
      <path id="Path_6423" data-name="Path 6423" d="M715.16,415.078c-1.183-7.631-1.547-9.278-4.005-11.52-2.557-2.329-9.494-1.426-11.747.815a75.072,75.072,0,0,0-9.213,11.937l-8.387-13.6-3.745.594s8.175,20.948,11.515,20.843,8.623-10.092,8.623-10.092l-1.559,40.5c4.484,4.5,19.181,5.31,23.53-1.8C720.172,452.763,716.656,424.726,715.16,415.078Z" transform="translate(-652.922 -382.598)" fill="url(#linear-gradient-70)"/>
      <path id="Path_6424" data-name="Path 6424" d="M698.567,413.535c1.684,6.335,4.114,12.931,4.114,12.931l-13.391-2.377V428.3s11.7,4.866,18.177,4.827c3.083-.018-2.545-27.942-9.09-30.574" transform="translate(-641.086 -382.22)" fill="url(#linear-gradient-71)"/>
      <path id="Path_6425" data-name="Path 6425" d="M689.139,419.941c-1.011-2.574-2.077-4.19-1.8-4.626s2.13.961,2.13.961c.61-.536-1.565-5.378-1.524-5.795.1-1.011,5.125,3.658,4.412,7.452S689.139,419.941,689.139,419.941Z" transform="translate(-643.19 -374.009)" fill="#ffe1e1"/>
      <path id="Path_6426" data-name="Path 6426" d="M693.531,400.2c1.8,5.006.01,6.349-1.393,6.351-1.621,0-1.621-6.351-1.621-6.351Z" transform="translate(-639.793 -384.696)" fill="#ffe1e1"/>
      <path id="Path_6427" data-name="Path 6427" d="M699.627,400.066a1.182,1.182,0,0,0-1.152-.259c-.039-.353-.076-.707-.14-1.068-.809-4.6-8.746-10.265-8.82,1.426a2,2,0,0,0-1.315,2.153,2.072,2.072,0,0,0,1.565,1.693,6.5,6.5,0,0,0,1.413,3.313c1.027,1.14,2.726,1.9,4.006,1.22a6.571,6.571,0,0,0,3.245-5.014,3.427,3.427,0,0,0,1.261-1A1.957,1.957,0,0,0,699.627,400.066Z" transform="translate(-642.256 -392.032)" fill="#ffe1e1"/>
      <path id="Path_6428" data-name="Path 6428" d="M689.917,393.722c-2.993-.815-3.048.489-2.993,1.467a3.506,3.506,0,0,0,1.662,2.494,1.6,1.6,0,0,0,2.235-.852c-.643-.049-1.058.906-.744,1.518a1.487,1.487,0,0,0,1.7.657,4.437,4.437,0,0,0,1.674-1.027,1.779,1.779,0,0,0,2.966.212A2.653,2.653,0,0,1,699,400.166c.127.468.3,1.115.752,1.058.236-.033.4-.275.511-.5a6.1,6.1,0,0,0,.349-4.459,5.523,5.523,0,0,0-2.781-3.309C695.4,391.771,692.912,394.538,689.917,393.722Z" transform="translate(-643.592 -392.654)" fill="url(#linear-gradient-72)"/>
    </g>
    <path id="Path_6429" data-name="Path 6429" d="M925.526,465.633,877.29,445.907l-68.63,31.088,45.807,20.676Z" transform="translate(163.817 115.099)" fill="url(#linear-gradient-73)"/>
    <g id="Group_2274" data-name="Group 2274" transform="translate(1025.982 336.718)">
      <path id="Path_6430" data-name="Path 6430" d="M906.674,448.82v4.985c0,7.461-16.11,13.51-35.984,13.51s-35.982-6.049-35.982-13.51V448.82Z" transform="translate(-834.708 -218.548)" fill="url(#linear-gradient-74)"/>
      <path id="Path_6431" data-name="Path 6431" d="M834.708,455.005c0,7.461,16.111,13.51,35.982,13.51s35.984-6.049,35.984-13.51-16.11-13.512-35.984-13.512S834.708,447.542,834.708,455.005Z" transform="translate(-834.708 -226.272)" fill="url(#linear-gradient-75)"/>
      <path id="Path_6432" data-name="Path 6432" d="M902.242,428.706v38.408c0,6.855-14.8,12.411-33.055,12.411s-33.053-5.556-33.053-12.411V428.706Z" transform="translate(-833.205 -239.751)" fill="url(#linear-gradient-76)"/>
      <path id="Path_6433" data-name="Path 6433" d="M836.134,435.588c0,6.855,14.8,12.411,33.053,12.411s33.055-5.556,33.055-12.411-14.8-12.411-33.055-12.411S836.134,428.733,836.134,435.588Z" transform="translate(-833.205 -245.579)" fill="url(#linear-gradient-77)"/>
      <ellipse id="Ellipse_163" data-name="Ellipse 163" cx="28.551" cy="9.767" rx="28.551" ry="9.767" transform="translate(7.432 180.241)" fill="#fff"/>
      <path id="Path_6434" data-name="Path 6434" d="M836.134,336.718h66.108V526.727c0,6.855-14.8,12.411-33.055,12.411s-33.053-5.556-33.053-12.411Z" transform="translate(-833.205 -336.718)" fill="url(#linear-gradient-78)"/>
      <g id="Group_2273" data-name="Group 2273" transform="translate(2.929 44.914)">
        <path id="Path_6435" data-name="Path 6435" d="M844.085,396.385a2.162,2.162,0,0,0,2.58,2.124,80.33,80.33,0,0,1,15.081-1.368,82.335,82.335,0,0,1,13.264,1.039,2.161,2.161,0,0,0,2.518-2.134V384.911a2.177,2.177,0,0,0-1.81-2.14,81.642,81.642,0,0,0-13.972-1.159,79.548,79.548,0,0,0-15.915,1.532,2.178,2.178,0,0,0-1.746,2.13Z" transform="translate(-827.753 -334.307)" fill="url(#linear-gradient-79)"/>
        <g id="Group_2270" data-name="Group 2270" transform="translate(45.93 86.366)">
          <g id="Group_2268" data-name="Group 2268" transform="translate(9.18)">
            <path id="Path_6436" data-name="Path 6436" d="M862.963,403.013v18.214a2.385,2.385,0,0,0,1.53,2.223c5.858,2.245,9.468,5.308,9.468,8.7V408.764c0-3.015-2.855-5.772-7.606-7.919A2.393,2.393,0,0,0,862.963,403.013Z" transform="translate(-862.963 -400.628)" fill="url(#linear-gradient-80)"/>
          </g>
          <g id="Group_2269" data-name="Group 2269" transform="translate(0 8.165)">
            <path id="Path_6437" data-name="Path 6437" d="M858.494,418.889V435.3a3.4,3.4,0,0,0,4.125,3.33c9.615-2.169,16.053-6.121,16.053-10.64V404.6c0,4.731-7.052,8.847-17.417,10.942A3.422,3.422,0,0,0,858.494,418.889Z" transform="translate(-858.494 -404.603)" fill="url(#linear-gradient-81)"/>
          </g>
        </g>
        <g id="Group_2271" data-name="Group 2271" transform="translate(0 74.525)">
          <path id="Path_6438" data-name="Path 6438" d="M856.312,397.491v9.852a2.627,2.627,0,0,1-2.136,2.578c-10.7,2.054-18.041,6.23-18.041,11.057V405.767c0-4.667,6.859-8.726,16.992-10.846A2.635,2.635,0,0,1,856.312,397.491Z" transform="translate(-836.134 -394.864)" fill="url(#linear-gradient-82)"/>
          <path id="Path_6439" data-name="Path 6439" d="M847.132,411.465v8.866a2.917,2.917,0,0,1-4.232,2.592c-4.246-2.089-6.766-4.694-6.766-7.526V400.186c0,3.326,3.474,6.337,9.133,8.568A2.922,2.922,0,0,1,847.132,411.465Z" transform="translate(-836.134 -389.254)" fill="url(#linear-gradient-83)"/>
        </g>
        <path id="Path_6440" data-name="Path 6440" d="M861.628,400.314c-1.434-.4-2.958-.756-4.556-1.066a1.89,1.89,0,0,0-2.247,1.853v11.372a1.875,1.875,0,0,0,1.528,1.851q2.249.41,4.3.941a1.887,1.887,0,0,0,2.37-1.82V402.136A1.9,1.9,0,0,0,861.628,400.314Z" transform="translate(-816.431 -315.754)" fill="url(#linear-gradient-84)"/>
        <path id="Path_6441" data-name="Path 6441" d="M852.863,434.173q-2.613,0-5.115-.152a2.33,2.33,0,0,1-2.2-2.323V420.821A2.317,2.317,0,0,1,848,418.5q2.382.136,4.866.138c2.126,0,4.2-.078,6.216-.224a2.312,2.312,0,0,1,2.469,2.315v10.875a2.335,2.335,0,0,1-2.173,2.319C857.269,434.087,855.093,434.173,852.863,434.173Z" transform="translate(-826.206 -295.516)" fill="url(#linear-gradient-85)"/>
        <g id="Group_2272" data-name="Group 2272" transform="translate(4.332)">
          <path id="Path_6442" data-name="Path 6442" d="M847.711,434.495h0a1.181,1.181,0,0,0,1.179-1.181v-70.12a1.179,1.179,0,0,0-1.179-1.179h0a1.179,1.179,0,0,0-1.179,1.179v70.12A1.181,1.181,0,0,0,847.711,434.495Z" transform="translate(-829.505 -354.965)" fill="url(#linear-gradient-86)"/>
          <path id="Path_6443" data-name="Path 6443" d="M855.981,384.939h0a1.106,1.106,0,0,0,1.107-1.107v-24.14a1.108,1.108,0,0,0-1.107-1.109h0a1.11,1.11,0,0,0-1.109,1.109v24.14A1.108,1.108,0,0,0,855.981,384.939Z" transform="translate(-820.714 -358.583)" fill="url(#linear-gradient-87)"/>
          <path id="Path_6444" data-name="Path 6444" d="M864.771,467.444h0a1.367,1.367,0,0,0,1.368-1.366V365.126a1.367,1.367,0,0,0-1.368-1.366h0a1.367,1.367,0,0,0-1.366,1.366V466.078A1.367,1.367,0,0,0,864.771,467.444Z" transform="translate(-811.719 -353.126)" fill="url(#linear-gradient-88)"/>
          <path id="Path_6445" data-name="Path 6445" d="M857.894,438.225h0a1.388,1.388,0,0,0,1.389-1.389v-43.6a1.39,1.39,0,0,0-1.389-1.391h0a1.389,1.389,0,0,0-1.389,1.391v43.6A1.387,1.387,0,0,0,857.894,438.225Z" transform="translate(-818.991 -323.521)" fill="url(#linear-gradient-89)"/>
          <path id="Path_6446" data-name="Path 6446" d="M864.118,446.9h0a1.39,1.39,0,0,0,1.39-1.391V416.933a1.39,1.39,0,0,0-1.39-1.389h0a1.389,1.389,0,0,0-1.389,1.389v28.579A1.39,1.39,0,0,0,864.118,446.9Z" transform="translate(-812.432 -298.539)" fill="url(#linear-gradient-90)"/>
          <path id="Path_6447" data-name="Path 6447" d="M839.633,443.3h0a1.39,1.39,0,0,0,1.389-1.391V413.333a1.39,1.39,0,0,0-1.389-1.389h0a1.39,1.39,0,0,0-1.391,1.389v28.579A1.39,1.39,0,0,0,839.633,443.3Z" transform="translate(-838.243 -302.334)" fill="url(#linear-gradient-91)"/>
          <path id="Path_6448" data-name="Path 6448" d="M843.929,465.926h0a1.174,1.174,0,0,0,1.173-1.175v-85.78a1.173,1.173,0,0,0-1.173-1.173h0a1.173,1.173,0,0,0-1.175,1.173v85.78A1.175,1.175,0,0,0,843.929,465.926Z" transform="translate(-833.488 -338.328)" fill="url(#linear-gradient-92)"/>
        </g>
      </g>
      <path id="Path_6449" data-name="Path 6449" d="M882.132,399.395a1.622,1.622,0,1,1-1.623,1.621A1.622,1.622,0,0,1,882.132,399.395Zm-15.223,13.666a.745.745,0,1,0,.746-.744A.745.745,0,0,0,866.909,413.061Zm-17.651-20.4a1.345,1.345,0,1,0,1.346-1.345A1.347,1.347,0,0,0,849.258,392.659Zm-1.541,30.027a.77.77,0,1,0,.77-.77A.771.771,0,0,0,847.717,422.687Zm29.051,14.677a.919.919,0,1,0,.918-.92A.918.918,0,0,0,876.768,437.363ZM864.7,466.7a1.85,1.85,0,1,0,1.849-1.851A1.851,1.851,0,0,0,864.7,466.7Zm-6.415-12.4a.69.69,0,1,0,.69-.69A.69.69,0,0,0,858.284,454.3Zm27.827,23.388a.839.839,0,1,0,.84-.84A.84.84,0,0,0,886.111,477.684Zm-43.539-5.07a.867.867,0,1,0,.867-.869A.867.867,0,0,0,842.572,472.614Zm24.592-87.746a.617.617,0,1,0,.618-.616A.617.617,0,0,0,867.163,384.868Zm-9.295-17.376a.617.617,0,1,0,.618-.616A.619.619,0,0,0,857.869,367.492Zm26.623,12.639a.477.477,0,1,0,.477-.477A.477.477,0,0,0,884.492,380.131Zm6.483,43.589a.262.262,0,1,0,.261-.263A.261.261,0,0,0,890.975,423.72Zm-50.7,58.206a.6.6,0,1,0,.6-.6A.6.6,0,0,0,840.273,481.926Zm45.256-29.984a.435.435,0,1,0,.435-.436A.436.436,0,0,0,885.529,451.941Z" transform="translate(-828.842 -304.928)" opacity="0.76" fill="url(#linear-gradient-93)"/>
      <path id="Path_6450" data-name="Path 6450" d="M863.7,408.323a5.861,5.861,0,0,0-1.325-2.05,7.229,7.229,0,0,0-2.229-1.465,23.617,23.617,0,0,0-2.929-.863V395.5a3.977,3.977,0,0,1,2.253,1.212,5.01,5.01,0,0,1,1.083,2.644l3.026-.456a6.66,6.66,0,0,0-2.311-4.377,7.234,7.234,0,0,0-4.051-1.5v-1.4h-1.725v1.4a7.682,7.682,0,0,0-4.392,1.594,6.893,6.893,0,0,0-1.456,8.2,5.4,5.4,0,0,0,2.157,2.165,12.235,12.235,0,0,0,3.691,1.4v9.322a4.269,4.269,0,0,1-2.96-1.74,7.423,7.423,0,0,1-1.2-3.465l-2.946.553a8.2,8.2,0,0,0,1.163,3.856,6.243,6.243,0,0,0,2.377,2.286,10.812,10.812,0,0,0,3.57.984v2.929h1.725v-2.962a7.029,7.029,0,0,0,6.947-7.255A6.974,6.974,0,0,0,863.7,408.323Zm-8.208-4.751a5.758,5.758,0,0,1-2.837-1.61,4.067,4.067,0,0,1,.146-5.125,4.332,4.332,0,0,1,2.691-1.366Zm4.548,10.657a4.34,4.34,0,0,1-2.822,1.479v-8.915a6.811,6.811,0,0,1,3.149,1.734,3.929,3.929,0,0,1,.789,2.561A4.589,4.589,0,0,1,860.041,414.228Z" transform="translate(-820.292 -278.833)" fill="#00c278"/>
    </g>
    <g id="Group_2275" data-name="Group 2275" transform="translate(951.771 452.992)">
      <path id="Path_6451" data-name="Path 6451" d="M832.731,456.132s9.038.183,8.609,2.572c-.209,1.165-11.364,6.32-13.261,5.573s.06-4.9.06-4.9Z" transform="translate(-768.359 -327.114)" fill="#07042d"/>
      <path id="Path_6452" data-name="Path 6452" d="M841.246,407.043c.744-1.931,2.009-4.842,1.725-5.267s-1.547,1.649-1.547,1.649c-.61-.518.854-5.3.805-5.713-.119-.992-4.969,3.7-4.19,7.422S841.246,407.043,841.246,407.043Z" transform="translate(-757.074 -388.837)" fill="#ffe1e1"/>
      <path id="Path_6453" data-name="Path 6453" d="M832.182,407.841c3.841-.45,7.67,10.308,7.67,10.308l5.935-17.218c1.224-.5,2.691.205,4.281,1.543,0,0-6.524,22.5-9.344,23.62s-10.431-7.148-10.431-7.148Z" transform="translate(-765.152 -385.474)" fill="url(#linear-gradient-94)"/>
      <path id="Path_6454" data-name="Path 6454" d="M833.937,401.568c-.84,1.608-2.389,7.463-1.011,7.541a18.547,18.547,0,0,1,2.948.468l1.027-8.071Z" transform="translate(-762.955 -384.697)" fill="#ffe1e1"/>
      <path id="Path_6455" data-name="Path 6455" d="M833.86,406.978a4.333,4.333,0,0,0,7.588.616,7.314,7.314,0,0,0,.659-5.164,13.2,13.2,0,0,0-3.537-7.5l-6.549,4.141-1.479,4.344Z" transform="translate(-764.887 -391.63)" fill="#ffe1e1"/>
      <path id="Path_6456" data-name="Path 6456" d="M840.2,399.51c1.027-.668,4-3.556,3.12-5.3-.752-1.487-1.814-.723-3.426-.444a32.608,32.608,0,0,0-4.051.68,7.609,7.609,0,0,0-2.524,1.341c-1.306,1.05-2.282,2.8-1.723,4.382a3.736,3.736,0,0,0-2.779,3.184,6.426,6.426,0,0,0,2.251,5.959c1.721,1.413,4.879,4.153,7.428,2.654.2-.119,2.65-2.736,1.7-7.307C839.825,402.85,838.5,400.611,840.2,399.51Z" transform="translate(-766.807 -393.323)" fill="url(#linear-gradient-95)"/>
      <path id="Path_6457" data-name="Path 6457" d="M829.938,422.055c-1.019,5.587-2.434,73.472-2.434,73.472.263,1.247,5.9-1.278,6.511-4.1l6.339-67.447Z" transform="translate(-768.091 -363.036)" fill="#00007a"/>
      <path id="Path_6458" data-name="Path 6458" d="M839.371,458.208s11.177,1.062,10.749,3.451c-.209,1.165-13.5,5.439-15.4,4.692s.06-4.9.06-4.9Z" transform="translate(-761.359 -324.926)" fill="#07042d"/>
      <path id="Path_6459" data-name="Path 6459" d="M831.153,424.993c0,.544,5.807,71.182,5.807,71.182.924,1.586,6.255-.265,6.337-2.5l-.536-68.292Z" transform="translate(-764.244 -359.939)" fill="#00009e"/>
      <path id="Path_6460" data-name="Path 6460" d="M846.509,410.836c-.83-7.085,2.414-10.184,3.348-9.856,1.078.378.641,2.336.438,4.751-.187,2.2.322,4.813-.356,5.842C847.85,414.745,846.509,410.836,846.509,410.836Z" transform="translate(-748.199 -385.276)" fill="#ffe1e1"/>
      <path id="Path_6461" data-name="Path 6461" d="M831.31,416.408c2.309-17.218,9.991-13.637,14.013-9.8,4.9,4.675,10.911,14.765,10.911,14.765l9.926-13.563c1.228-1,2.705.012,4.285,1.855,0,0-11.3,19.229-14.582,19.192s-9.157-9.835-9.157-9.835l3.726,37.6c-8.962,2.736-18.75,3.346-23.173-3.556C827.259,453.068,830.034,425.933,831.31,416.408Z" transform="translate(-768.349 -382.667)" fill="url(#linear-gradient-96)"/>
      <path id="Path_6462" data-name="Path 6462" d="M865.753,459.526,806.8,488.7l-8.218-3.636L857.993,458.6Z" transform="translate(-798.58 -324.517)" fill="url(#linear-gradient-97)"/>
      <path id="Path_6463" data-name="Path 6463" d="M874.67,461.323l-61.536,31.008-8.218-3.636L865.8,461.1Z" transform="translate(-791.901 -321.873)" fill="url(#linear-gradient-98)"/>
    </g>
    <g id="Group_2276" data-name="Group 2276" transform="translate(659.594 442.543)">
      <path id="Path_6464" data-name="Path 6464" d="M722.488,395.569l-15.819-7.025a3.535,3.535,0,0,0-4.969,3.246l.066,14.048a3.534,3.534,0,0,0,2.089,3.209l15.753,7.058a3.534,3.534,0,0,0,4.979-3.225V398.8A3.535,3.535,0,0,0,722.488,395.569Z" transform="translate(-608.527 -388.236)" fill="url(#linear-gradient-99)"/>
      <path id="Path_6465" data-name="Path 6465" d="M736.3,418.323l-64.875-29.037a3,3,0,0,0-4.223,2.742l.086,41.087a3,3,0,0,0,1.771,2.728l64.791,29.08a3,3,0,0,0,4.223-2.734v-41.13A3,3,0,0,0,736.3,418.323Z" transform="translate(-644.896 -387.409)" fill="url(#linear-gradient-100)"/>
      <path id="Path_6466" data-name="Path 6466" d="M682.1,398.515l-21.87-9.9a2.756,2.756,0,0,0-3.893,2.522l.041,8.95a2.755,2.755,0,0,0,1.614,2.5l21.829,9.934a2.757,2.757,0,0,0,3.9-2.51v-8.979A2.757,2.757,0,0,0,682.1,398.515Z" transform="translate(-656.341 -388.099)" fill="url(#linear-gradient-101)"/>
      <path id="Path_6467" data-name="Path 6467" d="M720.993,418.9l-17.306-7.837a2.182,2.182,0,0,0-3.081,2l.033,7.083a2.183,2.183,0,0,0,1.278,1.976l17.275,7.861a2.181,2.181,0,0,0,3.083-1.986v-7.107A2.18,2.18,0,0,0,720.993,418.9Z" transform="translate(-609.68 -364.38)" fill="url(#linear-gradient-102)"/>
    </g>
    <g id="Group_2280" data-name="Group 2280" transform="translate(814.068 529.473)">
      <g id="Group_2278" data-name="Group 2278" transform="translate(0 158.775)">
        <g id="Group_2277" data-name="Group 2277" transform="translate(0 19.199)">
          <path id="Path_6468" data-name="Path 6468" d="M818.391,518.648l-86.848-1.45v11.536h0a2.764,2.764,0,0,0,1.645,2.541l37.134,16.9a15.624,15.624,0,0,0,12.89,0l33.168-15.016a3.425,3.425,0,0,0,2.011-3.12Z" transform="translate(-731.543 -517.198)" fill="url(#linear-gradient-103)"/>
        </g>
        <path id="Path_6469" data-name="Path 6469" d="M816.744,526.151a2.771,2.771,0,0,1,.012,5.055l-34.7,15.7a12.827,12.827,0,0,1-10.581,0l-38.277-16.938a2.77,2.77,0,0,1-.016-5.059l35.744-16.088a10.967,10.967,0,0,1,8.97-.014Z" transform="translate(-731.541 -507.852)" fill="url(#linear-gradient-104)"/>
        <path id="Path_6470" data-name="Path 6470" d="M805.138,524.608a2.269,2.269,0,0,1,.01,4.139L776.731,541.6a10.5,10.5,0,0,1-8.664,0l-31.342-13.869a2.269,2.269,0,0,1-.012-4.143l29.267-13.173a8.985,8.985,0,0,1,7.346-.01Z" transform="translate(-727.504 -505.983)" fill="url(#linear-gradient-105)"/>
      </g>
      <path id="Path_6471" data-name="Path 6471" d="M806.4,609.427h0V430.556H735.375V609.427h.057a2.2,2.2,0,0,0,1.292,1.652l31.342,13.869a10.5,10.5,0,0,0,8.664,0L805.147,612.1A2.261,2.261,0,0,0,806.4,609.427Z" transform="translate(-727.504 -430.556)" fill="url(#linear-gradient-106)"/>
      <g id="Group_2279" data-name="Group 2279" transform="translate(13.089 30.021)">
        <path id="Path_6472" data-name="Path 6472" d="M747.382,521.083h0a1.181,1.181,0,0,0,1.181-1.181v-70.12a1.18,1.18,0,0,0-1.181-1.179h0a1.179,1.179,0,0,0-1.179,1.179V519.9A1.181,1.181,0,0,0,747.382,521.083Z" transform="translate(-729.178 -441.553)" fill="url(#linear-gradient-107)"/>
        <path id="Path_6473" data-name="Path 6473" d="M755.651,471.528h0a1.108,1.108,0,0,0,1.109-1.107V446.28a1.11,1.11,0,0,0-1.109-1.109h0a1.108,1.108,0,0,0-1.107,1.109v24.14A1.106,1.106,0,0,0,755.651,471.528Z" transform="translate(-720.386 -445.171)" fill="url(#linear-gradient-108)"/>
        <path id="Path_6474" data-name="Path 6474" d="M764.443,554.032h0a1.367,1.367,0,0,0,1.366-1.366V451.714a1.367,1.367,0,0,0-1.366-1.366h0a1.367,1.367,0,0,0-1.366,1.366V552.666A1.367,1.367,0,0,0,764.443,554.032Z" transform="translate(-711.391 -439.714)" fill="url(#linear-gradient-109)"/>
        <path id="Path_6475" data-name="Path 6475" d="M757.566,524.813h0a1.39,1.39,0,0,0,1.391-1.389v-43.6a1.39,1.39,0,0,0-1.391-1.391h0a1.39,1.39,0,0,0-1.389,1.391v43.6A1.389,1.389,0,0,0,757.566,524.813Z" transform="translate(-718.664 -410.109)" fill="url(#linear-gradient-110)"/>
        <path id="Path_6476" data-name="Path 6476" d="M763.789,533.488h0a1.388,1.388,0,0,0,1.389-1.389V503.521a1.39,1.39,0,0,0-1.389-1.389h0a1.388,1.388,0,0,0-1.389,1.389V532.1A1.387,1.387,0,0,0,763.789,533.488Z" transform="translate(-712.104 -385.127)" fill="url(#linear-gradient-111)"/>
        <path id="Path_6477" data-name="Path 6477" d="M739.3,529.89h0a1.39,1.39,0,0,0,1.389-1.391V499.921a1.39,1.39,0,0,0-1.389-1.389h0a1.39,1.39,0,0,0-1.389,1.389V528.5A1.39,1.39,0,0,0,739.3,529.89Z" transform="translate(-737.915 -388.922)" fill="url(#linear-gradient-112)"/>
        <path id="Path_6478" data-name="Path 6478" d="M743.6,552.515h0a1.175,1.175,0,0,0,1.175-1.175V465.56a1.175,1.175,0,0,0-1.175-1.175h0a1.175,1.175,0,0,0-1.175,1.175v85.78A1.175,1.175,0,0,0,743.6,552.515Z" transform="translate(-733.161 -424.917)" fill="url(#linear-gradient-113)"/>
      </g>
      <path id="Path_6479" data-name="Path 6479" d="M764.159,496.982a5.891,5.891,0,0,0-1.325-2.05,7.233,7.233,0,0,0-2.229-1.465,23.6,23.6,0,0,0-2.929-.863v-8.443a3.987,3.987,0,0,1,2.253,1.21,5.039,5.039,0,0,1,1.083,2.646l3.026-.456a6.661,6.661,0,0,0-2.311-4.377,7.236,7.236,0,0,0-4.051-1.5v-1.4H755.95v1.4a7.683,7.683,0,0,0-4.392,1.594,6.9,6.9,0,0,0-1.456,8.2,5.408,5.408,0,0,0,2.157,2.163,12.227,12.227,0,0,0,3.691,1.4v9.322a4.264,4.264,0,0,1-2.96-1.74,7.4,7.4,0,0,1-1.2-3.465l-2.946.553A8.2,8.2,0,0,0,750,503.569a6.239,6.239,0,0,0,2.377,2.286,10.809,10.809,0,0,0,3.57.984v2.929h1.726v-2.962a7.029,7.029,0,0,0,6.947-7.255A7.018,7.018,0,0,0,764.159,496.982Zm-8.208-4.751a5.778,5.778,0,0,1-2.839-1.61,4.073,4.073,0,0,1,.146-5.125,4.342,4.342,0,0,1,2.693-1.366Zm4.548,10.657a4.345,4.345,0,0,1-2.822,1.479v-8.915a6.814,6.814,0,0,1,3.149,1.734,3.929,3.929,0,0,1,.789,2.561A4.589,4.589,0,0,1,760.5,502.887Z" transform="translate(-713.309 -378.13)" fill="#00c278"/>
      <path id="Path_6480" data-name="Path 6480" d="M751.2,484.525a1.622,1.622,0,1,1-1.621-1.623A1.62,1.62,0,0,1,751.2,484.525Zm12.857,11.3a.745.745,0,1,0,.744.744A.743.743,0,0,0,764.058,495.824Zm17.049-21a1.345,1.345,0,1,0,1.345,1.345A1.346,1.346,0,0,0,781.107,474.821Zm2.116,30.6a.77.77,0,1,0,.77.77A.771.771,0,0,0,783.223,505.423Zm-29.2,14.527a.92.92,0,1,0,.92.92A.921.921,0,0,0,754.024,519.95Zm11.139,28.407a1.85,1.85,0,1,0,1.851,1.849A1.849,1.849,0,0,0,765.163,548.357Zm7.576-11.244a.69.69,0,1,0,.688.69A.69.69,0,0,0,772.739,537.112Zm-27.977,23.238a.84.84,0,1,0,.84.84A.84.84,0,0,0,744.762,560.351Zm43.513-5.1a.867.867,0,1,0,.867.867A.867.867,0,0,0,788.274,555.254Zm-24.344-87.5a.616.616,0,1,0,.616.616A.615.615,0,0,0,763.931,467.759Zm9.295-17.374a.616.616,0,1,0,.616.616A.615.615,0,0,0,773.226,450.385Zm-26.484,12.779a.477.477,0,1,0,.477.477A.475.475,0,0,0,746.742,463.164Zm-6.267,43.8a.262.262,0,1,0,.263.263A.263.263,0,0,0,740.475,506.964Zm50.365,57.871a.6.6,0,1,0,.6.6A.6.6,0,0,0,790.84,564.835Zm-45.092-29.822a.436.436,0,1,0,.435.435A.436.436,0,0,0,745.748,535.013Z" transform="translate(-722.403 -409.654)" opacity="0.76" fill="url(#linear-gradient-114)"/>
    </g>
    <g id="Group_2329" data-name="Group 2329" transform="translate(1112.943 610.417)">
      <path id="Path_6331-2" data-name="Path 6331" d="M778.233,444.124c0,5.577-13.234,10.1-29.561,10.1s-29.563-4.523-29.563-10.1,13.237-10.1,29.563-10.1S778.233,438.547,778.233,444.124Z" transform="translate(-719.11 -412.044)" opacity="0.56" fill="url(#linear-gradient-115)"/>
      <g id="Group_2331" data-name="Group 2331">
        <g id="Group_2228-2" data-name="Group 2228" transform="translate(18.37)">
          <g id="Group_2225-2" data-name="Group 2225" transform="translate(0 17.778)">
            <path id="Path_6332-2" data-name="Path 6332" d="M727.964,435.687v6.506c0,4.226,9.123,7.652,20.378,7.652s20.376-3.425,20.376-7.652v-6.506Z" transform="translate(-727.964 -428.035)" fill="url(#linear-gradient-8)"/>
            <path id="Path_6333-2" data-name="Path 6333" d="M768.718,439.651c0,4.224-9.123,7.649-20.376,7.649s-20.378-3.425-20.378-7.649S737.086,432,748.342,432,768.718,435.424,768.718,439.651Z" transform="translate(-727.964 -431.999)" fill="#05ee95"/>
            <path id="Path_6334-2" data-name="Path 6334" d="M760.567,438.606c0,3.112-6.718,5.635-15.006,5.635s-15.008-2.523-15.008-5.635,6.72-5.635,15.008-5.635S760.567,435.494,760.567,438.606Z" transform="translate(-725.183 -430.954)" fill="#00c278"/>
            <path id="Path_6335-2" data-name="Path 6335" d="M745.56,433.761c7.932,0,14.411,2.313,14.955,5.239a2.311,2.311,0,0,0,.052-.394c0-3.112-6.718-5.635-15.006-5.635s-15.008,2.523-15.008,5.635a2.125,2.125,0,0,0,.054.394C731.15,436.075,737.627,433.761,745.56,433.761Z" transform="translate(-725.183 -430.954)" fill="#f69e3e"/>
          </g>
          <g id="Group_2226-2" data-name="Group 2226" transform="translate(0 8.889)">
            <path id="Path_6336-2" data-name="Path 6336" d="M727.964,431.4v6.508c0,4.226,9.123,7.652,20.378,7.652s20.376-3.425,20.376-7.652V431.4Z" transform="translate(-727.964 -423.751)" fill="url(#linear-gradient-9)"/>
            <ellipse id="Ellipse_155-2" data-name="Ellipse 155" cx="20.377" cy="7.651" rx="20.377" ry="7.651" transform="translate(0.001)" fill="#05ee95"/>
            <path id="Path_6337-2" data-name="Path 6337" d="M760.567,434.321c0,3.112-6.718,5.635-15.006,5.635s-15.008-2.523-15.008-5.635,6.72-5.635,15.008-5.635S760.567,431.209,760.567,434.321Z" transform="translate(-725.183 -426.67)" fill="#00c278"/>
            <path id="Path_6338-2" data-name="Path 6338" d="M745.56,429.479c7.932,0,14.411,2.313,14.955,5.239a2.308,2.308,0,0,0,.052-.4c0-3.112-6.718-5.635-15.006-5.635s-15.008,2.523-15.008,5.635a2.122,2.122,0,0,0,.054.4C731.15,431.792,737.627,429.479,745.56,429.479Z" transform="translate(-725.183 -426.67)" fill="#f69e3e"/>
          </g>
          <g id="Group_2227-2" data-name="Group 2227">
            <path id="Path_6339-2" data-name="Path 6339" d="M727.964,427.118v6.508c0,4.224,9.123,7.649,20.378,7.649s20.376-3.425,20.376-7.649v-6.508Z" transform="translate(-727.964 -419.466)" fill="url(#linear-gradient-10)"/>
            <path id="Path_6340-2" data-name="Path 6340" d="M768.718,431.082c0,4.224-9.123,7.649-20.376,7.649s-20.378-3.425-20.378-7.649,9.123-7.652,20.378-7.652S768.718,426.855,768.718,431.082Z" transform="translate(-727.964 -423.43)" fill="#05ee95"/>
            <path id="Path_6341-2" data-name="Path 6341" d="M760.567,430.037c0,3.112-6.718,5.635-15.006,5.635s-15.008-2.523-15.008-5.635,6.72-5.635,15.008-5.635S760.567,426.925,760.567,430.037Z" transform="translate(-725.183 -422.385)" fill="#00c278"/>
            <path id="Path_6342-2" data-name="Path 6342" d="M745.56,425.195c7.932,0,14.411,2.311,14.955,5.239a2.361,2.361,0,0,0,.052-.4c0-3.112-6.718-5.635-15.006-5.635s-15.008,2.523-15.008,5.635a2.169,2.169,0,0,0,.054.4C731.15,427.506,737.627,425.195,745.56,425.195Z" transform="translate(-725.183 -422.385)" fill="url(#linear-gradient-11)"/>
          </g>
        </g>
        <g id="Group_2330" data-name="Group 2330" transform="translate(18.37 -27)">
          <g id="Group_2225-3" data-name="Group 2225" transform="translate(0 17.778)">
            <path id="Path_6332-3" data-name="Path 6332" d="M727.964,435.687v6.506c0,4.226,9.123,7.652,20.378,7.652s20.376-3.425,20.376-7.652v-6.506Z" transform="translate(-727.964 -428.035)" fill="url(#linear-gradient-8)"/>
            <path id="Path_6333-3" data-name="Path 6333" d="M768.718,439.651c0,4.224-9.123,7.649-20.376,7.649s-20.378-3.425-20.378-7.649S737.086,432,748.342,432,768.718,435.424,768.718,439.651Z" transform="translate(-727.964 -431.999)" fill="#05ee95"/>
            <path id="Path_6334-3" data-name="Path 6334" d="M760.567,438.606c0,3.112-6.718,5.635-15.006,5.635s-15.008-2.523-15.008-5.635,6.72-5.635,15.008-5.635S760.567,435.494,760.567,438.606Z" transform="translate(-725.183 -430.954)" fill="#00c278"/>
            <path id="Path_6335-3" data-name="Path 6335" d="M745.56,433.761c7.932,0,14.411,2.313,14.955,5.239a2.311,2.311,0,0,0,.052-.394c0-3.112-6.718-5.635-15.006-5.635s-15.008,2.523-15.008,5.635a2.125,2.125,0,0,0,.054.394C731.15,436.075,737.627,433.761,745.56,433.761Z" transform="translate(-725.183 -430.954)" fill="#f69e3e"/>
          </g>
          <g id="Group_2226-3" data-name="Group 2226" transform="translate(0 8.889)">
            <path id="Path_6336-3" data-name="Path 6336" d="M727.964,431.4v6.508c0,4.226,9.123,7.652,20.378,7.652s20.376-3.425,20.376-7.652V431.4Z" transform="translate(-727.964 -423.751)" fill="url(#linear-gradient-9)"/>
            <ellipse id="Ellipse_155-3" data-name="Ellipse 155" cx="20.377" cy="7.651" rx="20.377" ry="7.651" transform="translate(0.001)" fill="#05ee95"/>
            <path id="Path_6337-3" data-name="Path 6337" d="M760.567,434.321c0,3.112-6.718,5.635-15.006,5.635s-15.008-2.523-15.008-5.635,6.72-5.635,15.008-5.635S760.567,431.209,760.567,434.321Z" transform="translate(-725.183 -426.67)" fill="#00c278"/>
            <path id="Path_6338-3" data-name="Path 6338" d="M745.56,429.479c7.932,0,14.411,2.313,14.955,5.239a2.308,2.308,0,0,0,.052-.4c0-3.112-6.718-5.635-15.006-5.635s-15.008,2.523-15.008,5.635a2.122,2.122,0,0,0,.054.4C731.15,431.792,737.627,429.479,745.56,429.479Z" transform="translate(-725.183 -426.67)" fill="#f69e3e"/>
          </g>
          <g id="Group_2227-3" data-name="Group 2227">
            <path id="Path_6339-3" data-name="Path 6339" d="M727.964,427.118v6.508c0,4.224,9.123,7.649,20.378,7.649s20.376-3.425,20.376-7.649v-6.508Z" transform="translate(-727.964 -419.466)" fill="url(#linear-gradient-10)"/>
            <path id="Path_6340-3" data-name="Path 6340" d="M768.718,431.082c0,4.224-9.123,7.649-20.376,7.649s-20.378-3.425-20.378-7.649,9.123-7.652,20.378-7.652S768.718,426.855,768.718,431.082Z" transform="translate(-727.964 -423.43)" fill="#05ee95"/>
            <path id="Path_6341-3" data-name="Path 6341" d="M760.567,430.037c0,3.112-6.718,5.635-15.006,5.635s-15.008-2.523-15.008-5.635,6.72-5.635,15.008-5.635S760.567,426.925,760.567,430.037Z" transform="translate(-725.183 -422.385)" fill="#00c278"/>
            <path id="Path_6342-3" data-name="Path 6342" d="M745.56,425.195c7.932,0,14.411,2.311,14.955,5.239a2.361,2.361,0,0,0,.052-.4c0-3.112-6.718-5.635-15.006-5.635s-15.008,2.523-15.008,5.635a2.169,2.169,0,0,0,.054.4C731.15,427.506,737.627,425.195,745.56,425.195Z" transform="translate(-725.183 -422.385)" fill="url(#linear-gradient-11)"/>
          </g>
        </g>
        <g id="Group_2332" data-name="Group 2332" transform="translate(-139.63 83)">
          <g id="Group_2225-4" data-name="Group 2225" transform="translate(0 17.778)">
            <path id="Path_6332-4" data-name="Path 6332" d="M727.964,435.687v6.506c0,4.226,9.123,7.652,20.378,7.652s20.376-3.425,20.376-7.652v-6.506Z" transform="translate(-727.964 -428.035)" fill="url(#linear-gradient-8)"/>
            <path id="Path_6333-4" data-name="Path 6333" d="M768.718,439.651c0,4.224-9.123,7.649-20.376,7.649s-20.378-3.425-20.378-7.649S737.086,432,748.342,432,768.718,435.424,768.718,439.651Z" transform="translate(-727.964 -431.999)" fill="#05ee95"/>
            <path id="Path_6334-4" data-name="Path 6334" d="M760.567,438.606c0,3.112-6.718,5.635-15.006,5.635s-15.008-2.523-15.008-5.635,6.72-5.635,15.008-5.635S760.567,435.494,760.567,438.606Z" transform="translate(-725.183 -430.954)" fill="#00c278"/>
            <path id="Path_6335-4" data-name="Path 6335" d="M745.56,433.761c7.932,0,14.411,2.313,14.955,5.239a2.311,2.311,0,0,0,.052-.394c0-3.112-6.718-5.635-15.006-5.635s-15.008,2.523-15.008,5.635a2.125,2.125,0,0,0,.054.394C731.15,436.075,737.627,433.761,745.56,433.761Z" transform="translate(-725.183 -430.954)" fill="#f69e3e"/>
          </g>
          <g id="Group_2226-4" data-name="Group 2226" transform="translate(0 8.889)">
            <path id="Path_6336-4" data-name="Path 6336" d="M727.964,431.4v6.508c0,4.226,9.123,7.652,20.378,7.652s20.376-3.425,20.376-7.652V431.4Z" transform="translate(-727.964 -423.751)" fill="url(#linear-gradient-9)"/>
            <ellipse id="Ellipse_155-4" data-name="Ellipse 155" cx="20.377" cy="7.651" rx="20.377" ry="7.651" transform="translate(0.001)" fill="#05ee95"/>
            <path id="Path_6337-4" data-name="Path 6337" d="M760.567,434.321c0,3.112-6.718,5.635-15.006,5.635s-15.008-2.523-15.008-5.635,6.72-5.635,15.008-5.635S760.567,431.209,760.567,434.321Z" transform="translate(-725.183 -426.67)" fill="#00c278"/>
            <path id="Path_6338-4" data-name="Path 6338" d="M745.56,429.479c7.932,0,14.411,2.313,14.955,5.239a2.308,2.308,0,0,0,.052-.4c0-3.112-6.718-5.635-15.006-5.635s-15.008,2.523-15.008,5.635a2.122,2.122,0,0,0,.054.4C731.15,431.792,737.627,429.479,745.56,429.479Z" transform="translate(-725.183 -426.67)" fill="#00623c"/>
          </g>
        </g>
      </g>
    </g>
  </g>
</svg>
