<svg xmlns="http://www.w3.org/2000/svg" xmlns:xlink="http://www.w3.org/1999/xlink" width="487.132" height="497.899" viewBox="0 0 487.132 497.899">
  <defs>
    <linearGradient id="linear-gradient" x1="0.923" y1="-0.154" x2="0.201" y2="0.964" gradientUnits="objectBoundingBox">
      <stop offset="0" stop-color="#dff2fc"/>
      <stop offset="0.189" stop-color="#d7eaf8" stop-opacity="0.792"/>
      <stop offset="0.591" stop-color="#c7daf0" stop-opacity="0.369"/>
      <stop offset="0.869" stop-color="#bccfea" stop-opacity="0.102"/>
      <stop offset="0.999" stop-color="#b9cce9" stop-opacity="0"/>
    </linearGradient>
    <linearGradient id="linear-gradient-2" x1="0.356" y1="0.077" x2="0.613" y2="0.832" xlink:href="#linear-gradient"/>
    <linearGradient id="linear-gradient-3" x1="0.522" y1="-0.316" x2="0.494" y2="0.715" xlink:href="#linear-gradient"/>
    <linearGradient id="linear-gradient-4" x1="0.673" y1="-0.424" x2="0.424" y2="0.907" xlink:href="#linear-gradient"/>
    <linearGradient id="linear-gradient-5" x1="1.266" y1="0.082" x2="-0.389" y2="0.986" gradientUnits="objectBoundingBox">
      <stop offset="0" stop-color="#dff2fc"/>
      <stop offset="0.037" stop-color="#ddf0fb"/>
      <stop offset="0.641" stop-color="#c2d5ed"/>
      <stop offset="0.999" stop-color="#b9cce9"/>
    </linearGradient>
    <linearGradient id="linear-gradient-6" x1="2.615" y1="-0.364" x2="-0.058" y2="0.728" xlink:href="#linear-gradient-5"/>
    <linearGradient id="linear-gradient-7" x1="0.999" y1="-0.079" x2="-1.053" y2="2.34" xlink:href="#linear-gradient-5"/>
    <linearGradient id="linear-gradient-8" x1="1.928" y1="-1.071" x2="0.204" y2="0.827" xlink:href="#linear-gradient-5"/>
    <linearGradient id="linear-gradient-9" x1="0.949" y1="0.026" x2="-0.975" y2="2.102" xlink:href="#linear-gradient-5"/>
    <linearGradient id="linear-gradient-10" x1="2.523" y1="-1.053" x2="0.374" y2="0.597" xlink:href="#linear-gradient-5"/>
    <linearGradient id="linear-gradient-11" x1="1.086" y1="-0.235" x2="-0.069" y2="1.234" xlink:href="#linear-gradient-5"/>
    <linearGradient id="linear-gradient-12" x1="1.628" y1="0.756" x2="0.947" y2="0.602" xlink:href="#linear-gradient-5"/>
    <linearGradient id="linear-gradient-13" x1="0.963" y1="0.039" x2="-2.037" y2="3.025" xlink:href="#linear-gradient-5"/>
    <linearGradient id="linear-gradient-14" x1="1.973" y1="1.077" x2="0.197" y2="0.381" xlink:href="#linear-gradient-5"/>
    <linearGradient id="linear-gradient-15" x1="1.367" y1="0.439" x2="0.012" y2="0.514" xlink:href="#linear-gradient-5"/>
    <linearGradient id="linear-gradient-16" x1="1.008" y1="0.892" x2="0.114" y2="0.08" xlink:href="#linear-gradient-5"/>
    <linearGradient id="linear-gradient-17" x1="0.5" x2="0.5" y2="1" gradientUnits="objectBoundingBox">
      <stop offset="0" stop-color="#1951de"/>
      <stop offset="1" stop-color="#002c9a"/>
    </linearGradient>
    <linearGradient id="linear-gradient-18" x1="0.908" y1="-0.062" x2="-0.09" y2="0.803" xlink:href="#linear-gradient-5"/>
    <linearGradient id="linear-gradient-19" x1="942.577" y1="-2244.577" x2="-941.337" y2="2244.744" xlink:href="#linear-gradient-5"/>
    <linearGradient id="linear-gradient-20" x1="1.153" y1="0.291" x2="0.218" y2="0.617" xlink:href="#linear-gradient-5"/>
    <linearGradient id="linear-gradient-21" y1="0.5" x2="1" y2="0.5" gradientUnits="objectBoundingBox">
      <stop offset="0" stop-color="#fafdff" stop-opacity="0"/>
      <stop offset="0.053" stop-color="#f8fbee" stop-opacity="0.071"/>
      <stop offset="0.317" stop-color="#f2f3a1" stop-opacity="0.396"/>
      <stop offset="0.553" stop-color="#eded64" stop-opacity="0.655"/>
      <stop offset="0.753" stop-color="#e9e838" stop-opacity="0.843"/>
      <stop offset="0.908" stop-color="#e7e61d" stop-opacity="0.957"/>
      <stop offset="0.999" stop-color="#e7e513"/>
    </linearGradient>
    <linearGradient id="linear-gradient-24" x1="-6.078" y1="3.189" x2="3.034" y2="-0.536" gradientUnits="objectBoundingBox">
      <stop offset="0" stop-color="#fafdff" stop-opacity="0"/>
      <stop offset="0.071" stop-color="#f8eaf2" stop-opacity="0.094"/>
      <stop offset="0.33" stop-color="#f4a9c6" stop-opacity="0.412"/>
      <stop offset="0.562" stop-color="#f176a4" stop-opacity="0.663"/>
      <stop offset="0.757" stop-color="#ee518b" stop-opacity="0.847"/>
      <stop offset="0.909" stop-color="#ed3a7b" stop-opacity="0.957"/>
      <stop offset="0.999" stop-color="#ed3276"/>
    </linearGradient>
    <linearGradient id="linear-gradient-25" x1="-6.854" y1="3.506" x2="2.258" y2="-0.219" xlink:href="#linear-gradient-24"/>
    <linearGradient id="linear-gradient-26" x1="-7.63" y1="3.823" x2="1.482" y2="0.099" xlink:href="#linear-gradient-24"/>
    <linearGradient id="linear-gradient-27" x1="-0.093" y1="0.982" x2="1.668" y2="-0.449" xlink:href="#linear-gradient-24"/>
    <linearGradient id="linear-gradient-28" x1="-0.243" y1="1.104" x2="1.518" y2="-0.327" xlink:href="#linear-gradient-24"/>
    <linearGradient id="linear-gradient-29" x1="-0.393" y1="1.225" x2="1.368" y2="-0.206" xlink:href="#linear-gradient-24"/>
    <linearGradient id="linear-gradient-30" x1="7.666" y1="-2.731" x2="-2.64" y2="1.916" xlink:href="#linear-gradient-21"/>
    <linearGradient id="linear-gradient-31" x1="8.474" y1="-3.096" x2="-1.832" y2="1.552" xlink:href="#linear-gradient-21"/>
    <linearGradient id="linear-gradient-32" x1="9.282" y1="-3.46" x2="-1.024" y2="1.187" xlink:href="#linear-gradient-21"/>
    <linearGradient id="linear-gradient-33" x1="1.227" y1="-0.152" x2="-0.765" y2="1.634" xlink:href="#linear-gradient-21"/>
    <linearGradient id="linear-gradient-34" x1="1.384" y1="-0.292" x2="-0.608" y2="1.494" xlink:href="#linear-gradient-21"/>
    <linearGradient id="linear-gradient-35" x1="1.54" y1="-0.432" x2="-0.452" y2="1.354" xlink:href="#linear-gradient-21"/>
    <linearGradient id="linear-gradient-36" x1="1.039" y1="-0.125" x2="0.027" y2="1.049" xlink:href="#linear-gradient"/>
    <linearGradient id="linear-gradient-37" x1="1.231" y1="-1.423" x2="0.382" y2="0.809" xlink:href="#linear-gradient-5"/>
    <linearGradient id="linear-gradient-38" x1="1.073" y1="-1.204" x2="0.103" y2="1.68" xlink:href="#linear-gradient-5"/>
    <linearGradient id="linear-gradient-39" x1="0.969" y1="-0.234" x2="0.147" y2="1.052" xlink:href="#linear-gradient"/>
    <linearGradient id="linear-gradient-40" x1="1.25" y1="-0.515" x2="-0.048" y2="1.242" xlink:href="#linear-gradient-5"/>
    <linearGradient id="linear-gradient-41" x1="1.174" y1="-0.412" x2="-0.125" y2="1.345" xlink:href="#linear-gradient-5"/>
    <linearGradient id="linear-gradient-42" x1="3.552" y1="-1.056" x2="-1.283" y2="1.409" xlink:href="#linear-gradient-5"/>
    <linearGradient id="linear-gradient-43" x1="2.461" y1="-0.5" x2="-2.374" y2="1.965" xlink:href="#linear-gradient-5"/>
    <linearGradient id="linear-gradient-44" x1="1.37" y1="0.057" x2="-3.465" y2="2.521" xlink:href="#linear-gradient-5"/>
    <linearGradient id="linear-gradient-45" x1="1.047" y1="-0.019" x2="-0.898" y2="1.827" xlink:href="#linear-gradient-5"/>
    <linearGradient id="linear-gradient-46" x1="1.81" y1="-0.37" x2="0.049" y2="0.8" xlink:href="#linear-gradient-5"/>
    <linearGradient id="linear-gradient-47" x1="1.128" y1="0.677" x2="-0.101" y2="0.331" gradientUnits="objectBoundingBox">
      <stop offset="0" stop-color="#e7e7f3"/>
      <stop offset="1" stop-color="#c2bfdf"/>
    </linearGradient>
  </defs>
  <g id="Group_2341" data-name="Group 2341" transform="translate(-1088.794 -251.685)">
    <g id="Group_576" data-name="Group 576" transform="translate(1121.266 487.412)" opacity="0.15">
      <path id="Path_4923" data-name="Path 4923" d="M1587.38,744.948l-75.4,42.232c-3.34,1.927-9.228,1.684-13.083-.543l-25.079-14.96c-3.857-2.227-4.279-5.626-.94-7.554l75.108-43.08c3.34-1.929,9.228-1.684,13.083.542l25.368,15.81C1590.3,739.621,1590.719,743.021,1587.38,744.948Z" transform="translate(-1164.87 -540.862)" fill="#b9cce9"/>
      <path id="Path_4924" data-name="Path 4924" d="M1551.946,703.3l-75.4,42.23c-3.339,1.928-9.226,1.685-13.083-.542l-25.08-14.959c-3.856-2.227-4.278-5.626-.939-7.554l75.108-43.08c3.339-1.928,9.227-1.685,13.084.542l25.367,15.809C1554.862,697.969,1555.285,701.368,1551.946,703.3Z" transform="translate(-1160.823 -536.106)" fill="#b9cce9"/>
      <path id="Path_4925" data-name="Path 4925" d="M1534.619,622.684,1307.113,749.592c-10.076,5.818-27.843,5.082-39.479-1.637l-132.549-76.526c-11.637-6.719-12.913-16.976-2.835-22.794l227.506-126.907c10.078-5.819,27.843-5.082,39.48,1.636l132.548,76.528C1543.421,606.608,1544.7,616.866,1534.619,622.684Z" transform="translate(-1125.452 -517.802)" fill="#b9cce9"/>
    </g>
    <g id="Group_585" data-name="Group 585" transform="translate(1088.794 251.685)">
      <g id="Group_577" data-name="Group 577">
        <path id="Path_4926" data-name="Path 4926" d="M1091.483,430.635a2.7,2.7,0,0,1-2.689-2.689v-56.88a2.692,2.692,0,0,1,1.341-2.323l68.372-39.474a2.644,2.644,0,0,1,1.336-.366,2.694,2.694,0,0,1,2.689,2.688v56.881a2.69,2.69,0,0,1-1.342,2.324l-68.371,39.475A2.642,2.642,0,0,1,1091.483,430.635Z" transform="translate(-1088.794 -260.503)" fill="url(#linear-gradient)"/>
        <path id="Path_4927" data-name="Path 4927" d="M1148.759,508.92a5.763,5.763,0,0,1-5.751-5.75V381.511a5.749,5.749,0,0,1,2.868-4.968l146.235-84.429a5.655,5.655,0,0,1,2.857-.782,5.763,5.763,0,0,1,5.75,5.751V418.74a5.753,5.753,0,0,1-2.87,4.969l-146.234,84.43A5.648,5.648,0,0,1,1148.759,508.92Z" transform="translate(-1094.985 -256.212)" fill="url(#linear-gradient-2)"/>
        <path id="Path_4928" data-name="Path 4928" d="M1279.223,341.84a2.389,2.389,0,0,1-2.383-2.383V289.05a2.381,2.381,0,0,1,1.189-2.059l60.591-34.982a2.34,2.34,0,0,1,1.183-.324,2.388,2.388,0,0,1,2.383,2.383v50.408a2.382,2.382,0,0,1-1.19,2.059l-60.59,34.982A2.338,2.338,0,0,1,1279.223,341.84Z" transform="translate(-1110.268 -251.685)" fill="url(#linear-gradient-3)"/>
        <path id="Path_4929" data-name="Path 4929" d="M1119.677,568a2.388,2.388,0,0,1-2.382-2.383V515.211a2.381,2.381,0,0,1,1.189-2.059l60.591-34.982a2.339,2.339,0,0,1,1.183-.324,2.388,2.388,0,0,1,2.383,2.383v50.408a2.382,2.382,0,0,1-1.19,2.059l-60.59,34.982A2.337,2.337,0,0,1,1119.677,568Z" transform="translate(-1092.048 -277.512)" fill="url(#linear-gradient-4)"/>
      </g>
      <g id="Group_581" data-name="Group 581" transform="translate(72.649 73.221)">
        <g id="Group_578" data-name="Group 578" transform="translate(115.548 6.373)">
          <path id="Path_4930" data-name="Path 4930" d="M1309.022,362.028a8.5,8.5,0,0,1-3.885,6.634c-2.144,1.239-3.883.276-3.883-2.149a8.5,8.5,0,0,1,3.883-6.635C1307.282,358.64,1309.022,359.6,1309.022,362.028Z" transform="translate(-1301.253 -343.573)" fill="#b9cce9"/>
          <path id="Path_4931" data-name="Path 4931" d="M1324.435,353.129a8.5,8.5,0,0,1-3.886,6.634c-2.145,1.239-3.884.277-3.884-2.148a8.5,8.5,0,0,1,3.884-6.635C1322.7,349.741,1324.435,350.7,1324.435,353.129Z" transform="translate(-1303.013 -342.557)" fill="#b9cce9"/>
          <path id="Path_4932" data-name="Path 4932" d="M1339.848,344.23a8.5,8.5,0,0,1-3.885,6.635c-2.145,1.238-3.884.276-3.884-2.149a8.5,8.5,0,0,1,3.884-6.635C1338.109,340.843,1339.848,341.8,1339.848,344.23Z" transform="translate(-1304.773 -341.541)" fill="#b9cce9"/>
        </g>
        <g id="Group_579" data-name="Group 579" transform="translate(0 54.665)">
          <path id="Path_4933" data-name="Path 4933" d="M1194.566,431.545a33.864,33.864,0,0,1-8.783,7.066c-7.967,4.6-14.974,2.051-14.974-8.812,0-11.306,7.1-25.215,17.949-31.478,8.447-4.877,14.495-1.663,14.495,7.648,0,8.091-3.936,15.462-9.119,18.454-2.257,1.3-3.888.915-4.128-1.884l-.1.056a15.423,15.423,0,0,1-6.192,7.841c-3.12,1.8-5.375.444-5.375-4.1,0-6.761,4.319-15.407,11.23-19.4a12.65,12.65,0,0,1,5.711-1.913l-1.44,11.084c-.479,3.547-.144,4.849,1.2,4.129,2.064-1.137,4.656-5.681,4.656-12.054,0-7.2-4.032-10.474-11.471-6.178-7.342,4.24-13.774,14.6-13.774,25.188,0,9.255,5.136,11.554,12.287,7.426a27.556,27.556,0,0,0,6.959-5.791Zm-4.271-20.422a6.377,6.377,0,0,0-1.489.638c-3.167,1.828-5.662,6.872-5.662,11.139,0,2.106.816,2.965,2.4,2.051,1.776-1.026,3.648-4.711,4.08-8.174Z" transform="translate(-1170.809 -396.059)" fill="#b9cce9"/>
        </g>
        <g id="Group_580" data-name="Group 580" transform="translate(44.478)">
          <path id="Path_4934" data-name="Path 4934" d="M1221.107,354.719l16.769,4.648c.518.143,1.318-.317,1.836-1.059l16.774-23.962Z" transform="translate(-1221.031 -334.346)" fill="#b9cce9"/>
          <path id="Path_4935" data-name="Path 4935" d="M1233.007,362.5l-11.669,19.309a1.733,1.733,0,0,1-.316-1.051V359.207Z" transform="translate(-1221.021 -337.185)" fill="#b9cce9"/>
          <path id="Path_4936" data-name="Path 4936" d="M1243.657,357.121l11.749,5.888a4.373,4.373,0,0,1-1.1.921l-30.675,17.71a2.366,2.366,0,0,1-1.011.345l11.734-19.435,4.615,1.283Z" transform="translate(-1221.204 -336.947)" fill="#b9cce9"/>
          <path id="Path_4937" data-name="Path 4937" d="M1259.6,336.046V357.6a4,4,0,0,1-.29,1.309l-11.6-5.844Z" transform="translate(-1224.068 -334.54)" fill="#b9cce9"/>
        </g>
      </g>
      <g id="Group_584" data-name="Group 584" transform="translate(40.053 19.132)">
        <path id="Path_4938" data-name="Path 4938" d="M1378.963,357.9a.284.284,0,0,1-.283-.283V274.267L1265.2,339.888a.284.284,0,0,1-.285-.491l114.336-66.114v84.336A.284.284,0,0,1,1378.963,357.9Z" transform="translate(-1148.942 -273.284)" fill="#b9cce9"/>
        <g id="Group_583" data-name="Group 583" transform="translate(0 48.721)">
          <g id="Group_582" data-name="Group 582" transform="translate(70.769)">
            <path id="Path_4939" data-name="Path 4939" d="M1402.185,369.057a.544.544,0,0,1-.567-.539v-.058a.567.567,0,0,1,1.134,0A.592.592,0,0,1,1402.185,369.057Z" transform="translate(-1235.339 -332.809)" fill="#b9cce9"/>
            <path id="Path_4940" data-name="Path 4940" d="M1402.185,360.721a.524.524,0,0,1-.567-.514V360.1a.567.567,0,0,1,1.134,0A.615.615,0,0,1,1402.185,360.721Zm0-4.395a.524.524,0,0,1-.567-.514v-.107a.567.567,0,0,1,1.134,0A.615.615,0,0,1,1402.185,356.327Zm0-4.394a.524.524,0,0,1-.567-.514v-.107a.567.567,0,1,1,1.134,0A.615.615,0,0,1,1402.185,351.933Zm0-4.4a.523.523,0,0,1-.567-.513v-.108a.567.567,0,1,1,1.134,0A.615.615,0,0,1,1402.185,347.537Zm0-4.394a.524.524,0,0,1-.567-.514v-.107a.567.567,0,0,1,1.134,0A.615.615,0,0,1,1402.185,343.143Zm0-4.395a.524.524,0,0,1-.567-.514v-.107a.567.567,0,0,1,1.134,0A.614.614,0,0,1,1402.185,338.748Zm0-4.394a.524.524,0,0,1-.567-.514v-.107a.567.567,0,0,1,1.134,0A.615.615,0,0,1,1402.185,334.354Z" transform="translate(-1235.339 -328.843)" fill="#b9cce9"/>
            <path id="Path_4941" data-name="Path 4941" d="M1402.181,329.427a.566.566,0,0,1-.474-.238.347.347,0,0,1-.046-.069.542.542,0,0,1,.195-.756.619.619,0,0,1,.588-.007.567.567,0,0,1,.3.475A.591.591,0,0,1,1402.181,329.427Z" transform="translate(-1235.335 -328.286)" fill="#b9cce9"/>
            <path id="Path_4942" data-name="Path 4942" d="M1218.993,420.28a.567.567,0,0,1-.277-1.062l.1-.055a.567.567,0,1,1,.553.99l-.1.055A.558.558,0,0,1,1218.993,420.28Zm4.055-2.263a.568.568,0,0,1-.276-1.063l.1-.055a.567.567,0,0,1,.553.99l-.1.055A.572.572,0,0,1,1223.048,418.016Zm4.056-2.264a.567.567,0,0,1-.278-1.062.618.618,0,0,1,.822.189.522.522,0,0,1-.167.745l-.1.056A.574.574,0,0,1,1227.1,415.752Zm4.055-2.264a.567.567,0,0,1-.277-1.062l.1-.056a.567.567,0,0,1,.553.99l-.1.055A.559.559,0,0,1,1231.159,413.488Zm4.056-2.264a.567.567,0,0,1-.277-1.063l.1-.055a.567.567,0,1,1,.553.99l-.1.055A.566.566,0,0,1,1235.215,411.224Zm4.056-2.264a.568.568,0,0,1-.279-1.062.617.617,0,0,1,.822.189.522.522,0,0,1-.167.745l-.1.056A.572.572,0,0,1,1239.271,408.96Zm4.056-2.264a.568.568,0,0,1-.279-1.062.618.618,0,0,1,.822.189.52.52,0,0,1-.167.745l-.1.056A.572.572,0,0,1,1243.327,406.7Zm4.055-2.264a.567.567,0,0,1-.277-1.062l.1-.056a.567.567,0,0,1,.553.99l-.1.056A.584.584,0,0,1,1247.382,404.432Zm4.056-2.264a.567.567,0,0,1-.277-1.062l.1-.056a.567.567,0,1,1,.553.99l-.1.056A.567.567,0,0,1,1251.437,402.168Zm4.056-2.264a.567.567,0,0,1-.277-1.063.619.619,0,0,1,.821.193.521.521,0,0,1-.171.743l-.1.055A.566.566,0,0,1,1255.493,399.9Zm4.055-2.264a.567.567,0,0,1-.276-1.064.62.62,0,0,1,.821.195.522.522,0,0,1-.173.743l-.1.055A.572.572,0,0,1,1259.548,397.639Zm4.056-2.264a.567.567,0,0,1-.276-1.063.617.617,0,0,1,.82.194.521.521,0,0,1-.172.743l-.1.055A.566.566,0,0,1,1263.6,395.375Zm4.055-2.264a.567.567,0,0,1-.276-1.063.618.618,0,0,1,.821.193.521.521,0,0,1-.171.743l-.1.055A.568.568,0,0,1,1267.66,393.111Zm4.056-2.264a.567.567,0,0,1-.277-1.063.617.617,0,0,1,.82.193.52.52,0,0,1-.17.743l-.1.055A.564.564,0,0,1,1271.716,390.847Zm4.055-2.264a.567.567,0,0,1-.276-1.063.619.619,0,0,1,.821.194.522.522,0,0,1-.173.743l-.1.055A.564.564,0,0,1,1275.771,388.583Zm4.055-2.263a.568.568,0,0,1-.276-1.063l.1-.055a.567.567,0,0,1,.553.99l-.1.055A.555.555,0,0,1,1279.826,386.32Zm4.057-2.264a.568.568,0,0,1-.28-1.062.618.618,0,0,1,.822.189.522.522,0,0,1-.168.745l-.1.056A.562.562,0,0,1,1283.883,384.056Zm4.055-2.264a.567.567,0,0,1-.277-1.062l.1-.056a.567.567,0,1,1,.553.99l-.1.056A.561.561,0,0,1,1287.937,381.792Zm4.055-2.264a.567.567,0,0,1-.276-1.062l.1-.056a.567.567,0,0,1,.552.99l-.1.056A.568.568,0,0,1,1291.993,379.527Zm4.056-2.264a.568.568,0,0,1-.279-1.062.618.618,0,0,1,.822.19.521.521,0,0,1-.167.744l-.1.056A.565.565,0,0,1,1296.049,377.263ZM1300.1,375a.567.567,0,0,1-.279-1.062.617.617,0,0,1,.822.189.522.522,0,0,1-.168.744l-.1.056A.563.563,0,0,1,1300.1,375Zm4.055-2.264a.567.567,0,0,1-.277-1.062l.1-.056a.567.567,0,0,1,.553.99l-.1.056A.565.565,0,0,1,1304.16,372.735Zm4.055-2.264a.567.567,0,0,1-.276-1.062l.1-.056a.567.567,0,0,1,.554.99l-.1.056A.568.568,0,0,1,1308.215,370.471Zm4.056-2.264a.567.567,0,0,1-.279-1.061.618.618,0,0,1,.822.189.522.522,0,0,1-.167.745l-.1.055A.562.562,0,0,1,1312.271,368.207Zm4.055-2.264a.567.567,0,0,1-.278-1.061.616.616,0,0,1,.822.189.522.522,0,0,1-.167.745l-.1.055A.564.564,0,0,1,1316.327,365.943Zm4.055-2.264a.567.567,0,0,1-.276-1.062l.1-.056a.567.567,0,1,1,.552.99l-.1.056A.566.566,0,0,1,1320.382,363.679Zm4.056-2.264a.567.567,0,0,1-.277-1.062l.1-.056a.567.567,0,1,1,.553.99l-.1.056A.566.566,0,0,1,1324.438,361.415Zm4.056-2.264a.567.567,0,0,1-.278-1.061.617.617,0,0,1,.822.189.522.522,0,0,1-.168.745l-.1.055A.564.564,0,0,1,1328.493,359.15Zm4.055-2.264a.567.567,0,0,1-.277-1.061.619.619,0,0,1,.821.189.523.523,0,0,1-.167.745l-.1.055A.568.568,0,0,1,1332.548,356.886Zm4.055-2.264a.567.567,0,0,1-.276-1.062.618.618,0,0,1,.821.192.523.523,0,0,1-.171.744l-.1.055A.563.563,0,0,1,1336.6,354.622Zm4.055-2.263a.568.568,0,0,1-.274-1.065l.1-.055a.568.568,0,0,1,.548.994l-.1.055A.564.564,0,0,1,1340.659,352.359Zm4.057-2.265a.567.567,0,0,1-.276-1.062.618.618,0,0,1,.821.192.523.523,0,0,1-.171.744l-.1.055A.562.562,0,0,1,1344.716,350.094Zm4.055-2.264a.567.567,0,0,1-.276-1.062.62.62,0,0,1,.821.192.523.523,0,0,1-.171.744l-.1.055A.566.566,0,0,1,1348.771,347.83Zm4.056-2.263a.568.568,0,0,1-.276-1.063.618.618,0,0,1,.821.192.523.523,0,0,1-.171.744l-.1.055A.568.568,0,0,1,1352.827,345.567Zm4.055-2.264a.568.568,0,0,1-.276-1.063.62.62,0,0,1,.821.192.523.523,0,0,1-.171.744l-.1.055A.564.564,0,0,1,1356.882,343.3Zm4.055-2.264a.567.567,0,0,1-.276-1.062l.1-.056a.567.567,0,0,1,.552.991l-.1.056A.56.56,0,0,1,1360.938,341.038Zm4.056-2.264a.567.567,0,0,1-.279-1.061.621.621,0,0,1,.822.189.522.522,0,0,1-.168.745l-.1.055A.566.566,0,0,1,1364.994,338.774Zm4.055-2.264a.567.567,0,0,1-.278-1.061.62.62,0,0,1,.822.189.523.523,0,0,1-.167.745l-.1.055A.569.569,0,0,1,1369.049,336.51Zm4.055-2.264a.567.567,0,0,1-.276-1.062l.1-.056a.567.567,0,1,1,.552.991l-.1.056A.56.56,0,0,1,1373.1,334.246Zm4.056-2.264a.567.567,0,0,1-.278-1.061.619.619,0,0,1,.822.189.523.523,0,0,1-.168.745l-.1.055A.567.567,0,0,1,1377.16,331.982Z" transform="translate(-1214.42 -328.578)" fill="#b9cce9"/>
            <path id="Path_4943" data-name="Path 4943" d="M1214.47,434.216a.543.543,0,0,1-.567-.538.663.663,0,0,1,.289-.551.592.592,0,0,1,.8.2.616.616,0,0,1-.519.888Z" transform="translate(-1213.903 -340.25)" fill="#b9cce9"/>
            <path id="Path_4944" data-name="Path 4944" d="M1214.47,468.59a.566.566,0,0,1-.567-.567v-.118a.567.567,0,0,1,1.134,0v.118A.567.567,0,0,1,1214.47,468.59Zm0-4.819a.566.566,0,0,1-.567-.567v-.118a.567.567,0,0,1,1.134,0v.118A.567.567,0,0,1,1214.47,463.771Zm0-4.819a.566.566,0,0,1-.567-.567v-.118a.567.567,0,0,1,1.134,0v.118A.567.567,0,0,1,1214.47,458.953Zm0-4.819a.566.566,0,0,1-.567-.567v-.118a.567.567,0,1,1,1.134,0v.118A.567.567,0,0,1,1214.47,454.134Zm0-4.819a.566.566,0,0,1-.567-.567v-.118a.567.567,0,0,1,1.134,0v.118A.567.567,0,0,1,1214.47,449.315Zm0-4.819a.566.566,0,0,1-.567-.567v-.118a.567.567,0,0,1,1.134,0v.118A.566.566,0,0,1,1214.47,444.5Zm0-4.819a.566.566,0,0,1-.567-.567v-.118a.567.567,0,0,1,1.134,0v.118A.566.566,0,0,1,1214.47,439.677Z" transform="translate(-1213.903 -340.863)" fill="#b9cce9"/>
            <path id="Path_4945" data-name="Path 4945" d="M1214.47,477.7a.566.566,0,0,1-.567-.567.591.591,0,0,1,.567-.6.543.543,0,0,1,.567.539v.057A.567.567,0,0,1,1214.47,477.7Z" transform="translate(-1213.903 -345.216)" fill="#b9cce9"/>
          </g>
          <path id="Path_4946" data-name="Path 4946" d="M1134.294,495.42a.284.284,0,0,1-.284-.284V449.8l.151-.08,26.623-14.093a.284.284,0,0,1,.267.5l-26.472,14.013v44.991A.284.284,0,0,1,1134.294,495.42Z" transform="translate(-1134.01 -340.54)" fill="#b9cce9"/>
          <path id="Path_4947" data-name="Path 4947" d="M1155.872,559.723a.522.522,0,0,1-.568-.51V559.1a.567.567,0,0,1,1.135,0A.618.618,0,0,1,1155.872,559.723Zm0-4.594a.567.567,0,0,1-.568-.567v-.114a.567.567,0,0,1,1.135,0v.114A.567.567,0,0,1,1155.872,555.13Zm0-4.707a.522.522,0,0,1-.568-.511V549.8a.567.567,0,0,1,1.135,0A.618.618,0,0,1,1155.872,550.423Zm0-4.594a.567.567,0,0,1-.568-.567v-.114a.567.567,0,0,1,1.135,0v.114A.567.567,0,0,1,1155.872,545.829Zm0-4.707a.522.522,0,0,1-.568-.511V540.5a.567.567,0,1,1,1.135,0A.619.619,0,0,1,1155.872,541.122Zm0-4.651a.521.521,0,0,1-.568-.51v-.113a.567.567,0,0,1,1.135,0A.618.618,0,0,1,1155.872,536.471Zm0-4.593a.568.568,0,0,1-.568-.568V531.2a.567.567,0,0,1,1.135,0v.114A.568.568,0,0,1,1155.872,531.878Zm0-4.708a.522.522,0,0,1-.568-.51v-.113a.567.567,0,0,1,1.135,0A.618.618,0,0,1,1155.872,527.17Zm0-4.594a.567.567,0,0,1-.568-.567V521.9a.567.567,0,0,1,1.135,0v.114A.567.567,0,0,1,1155.872,522.576Zm0-4.707a.522.522,0,0,1-.568-.511v-.112a.567.567,0,0,1,1.135,0A.618.618,0,0,1,1155.872,517.869Zm0-4.594a.567.567,0,0,1-.568-.567V512.6a.567.567,0,1,1,1.135,0v.113A.567.567,0,0,1,1155.872,513.276Zm0-4.65a.567.567,0,0,1-.568-.567v-.113a.567.567,0,1,1,1.135,0v.113A.567.567,0,0,1,1155.872,508.625Zm0-4.707a.521.521,0,0,1-.568-.51v-.113a.567.567,0,0,1,1.135,0A.618.618,0,0,1,1155.872,503.918Zm0-4.593a.568.568,0,0,1-.568-.568v-.113a.567.567,0,0,1,1.135,0v.113A.568.568,0,0,1,1155.872,499.325Zm0-4.651a.567.567,0,0,1-.568-.567v-.113a.567.567,0,0,1,1.135,0v.113A.567.567,0,0,1,1155.872,494.674Zm0-4.65a.567.567,0,0,1-.568-.567v-.113a.567.567,0,0,1,1.135,0v.113A.567.567,0,0,1,1155.872,490.023Zm0-4.651a.567.567,0,0,1-.568-.567v-.113a.567.567,0,1,1,1.135,0v.113A.567.567,0,0,1,1155.872,485.373Zm0-4.707a.522.522,0,0,1-.568-.51v-.113a.567.567,0,0,1,1.135,0A.618.618,0,0,1,1155.872,480.666Zm0-4.593a.568.568,0,0,1-.568-.568v-.113a.567.567,0,0,1,1.135,0v.113A.568.568,0,0,1,1155.872,476.073Zm0-4.651a.568.568,0,0,1-.568-.568v-.113a.567.567,0,0,1,1.135,0v.113A.568.568,0,0,1,1155.872,471.422Zm0-4.65a.568.568,0,0,1-.568-.568v-.113a.567.567,0,0,1,1.135,0v.113A.568.568,0,0,1,1155.872,466.772Zm0-4.651a.567.567,0,0,1-.568-.567v-.113a.567.567,0,0,1,1.135,0v.113A.567.567,0,0,1,1155.872,462.12Zm0-4.706a.522.522,0,0,1-.568-.511v-.113a.567.567,0,1,1,1.135,0A.619.619,0,0,1,1155.872,457.414Zm0-4.594a.568.568,0,0,1-.568-.567v-.114a.567.567,0,0,1,1.135,0v.114A.567.567,0,0,1,1155.872,452.82Zm0-4.65a.568.568,0,0,1-.568-.567v-.114a.567.567,0,0,1,1.135,0v.114A.568.568,0,0,1,1155.872,448.17Zm0-4.651a.568.568,0,0,1-.568-.568v-.113a.567.567,0,0,1,1.135,0v.113A.568.568,0,0,1,1155.872,443.519Zm0-4.65a.568.568,0,0,1-.568-.568v-.113a.567.567,0,0,1,1.135,0v.113A.568.568,0,0,1,1155.872,438.869Zm0-4.707a.522.522,0,0,1-.568-.511v-.112a.567.567,0,1,1,1.135,0A.618.618,0,0,1,1155.872,434.162Zm0-4.594a.567.567,0,0,1-.568-.567v-.113a.567.567,0,1,1,1.135,0V429A.567.567,0,0,1,1155.872,429.568Zm0-4.65a.567.567,0,0,1-.568-.567v-.114a.567.567,0,0,1,1.135,0v.114A.567.567,0,0,1,1155.872,424.918Zm0-4.651a.568.568,0,0,1-.568-.567v-.114a.567.567,0,0,1,1.135,0v.114A.568.568,0,0,1,1155.872,420.267Zm0-4.65a.568.568,0,0,1-.568-.568v-.114a.567.567,0,0,1,1.135,0v.114A.568.568,0,0,1,1155.872,415.617Zm0-4.707a.522.522,0,0,1-.568-.511v-.113a.567.567,0,0,1,1.135,0A.618.618,0,0,1,1155.872,410.909Zm0-4.594a.567.567,0,0,1-.568-.567v-.113a.567.567,0,1,1,1.135,0v.113A.567.567,0,0,1,1155.872,406.316Zm0-4.65a.567.567,0,0,1-.568-.567v-.113a.567.567,0,0,1,1.135,0v.113A.567.567,0,0,1,1155.872,401.665Zm0-4.65a.567.567,0,0,1-.568-.567v-.113a.567.567,0,1,1,1.135,0v.113A.567.567,0,0,1,1155.872,397.015Zm0-4.65a.568.568,0,0,1-.568-.567v-.114a.567.567,0,0,1,1.135,0v.114A.568.568,0,0,1,1155.872,392.364Zm2.189-3.379a.567.567,0,0,1-.283-1.059l.1-.057a.567.567,0,1,1,.565.984l-.1.056A.562.562,0,0,1,1158.062,388.985Zm4.1-2.353a.57.57,0,0,1-.5-.266.522.522,0,0,1,.163-.745l.1-.057a.567.567,0,0,1,.562.985A.641.641,0,0,1,1162.16,386.632Zm4.04-2.3a.569.569,0,0,1-.5-.267.522.522,0,0,1,.164-.746l.1-.056a.567.567,0,0,1,.56.987A.646.646,0,0,1,1166.2,384.328Zm3.98-2.255a.567.567,0,0,1-.283-1.059l.1-.056a.567.567,0,0,1,.564.983l-.1.057A.565.565,0,0,1,1170.18,382.073Zm4.1-2.353a.571.571,0,0,1-.5-.267.522.522,0,0,1,.165-.746l.1-.056a.567.567,0,1,1,.56.987A.651.651,0,0,1,1174.28,379.72Zm4.039-2.3a.572.572,0,0,1-.505-.267.523.523,0,0,1,.165-.746l.1-.056a.567.567,0,1,1,.56.987A.655.655,0,0,1,1178.319,377.416Zm3.979-2.256a.567.567,0,0,1-.282-1.058l.1-.057a.567.567,0,1,1,.564.983l-.1.057A.554.554,0,0,1,1182.3,375.16Zm4.1-2.353a.57.57,0,0,1-.5-.267.522.522,0,0,1,.165-.746l.1-.056a.567.567,0,1,1,.559.987A.638.638,0,0,1,1186.4,372.808Zm4.038-2.3a.569.569,0,0,1-.5-.267.522.522,0,0,1,.165-.746l.1-.056a.567.567,0,1,1,.559.987A.642.642,0,0,1,1190.437,370.5Zm3.98-2.255a.567.567,0,0,1-.282-1.059l.1-.057a.567.567,0,0,1,.563.984l-.1.057A.565.565,0,0,1,1194.416,368.248Zm4.1-2.353a.57.57,0,0,1-.5-.267.521.521,0,0,1,.163-.745l.1-.056a.567.567,0,0,1,.561.987A.654.654,0,0,1,1198.516,365.9Zm4.039-2.3a.574.574,0,0,1-.5-.267.521.521,0,0,1,.165-.745l.1-.056a.567.567,0,0,1,.559.987A.653.653,0,0,1,1202.555,363.592Zm3.98-2.256a.567.567,0,0,1-.282-1.059l.1-.057a.567.567,0,1,1,.564.983l-.1.057A.558.558,0,0,1,1206.535,361.336Z" transform="translate(-1136.442 -331.924)" fill="#b9cce9"/>
          <path id="Path_4948" data-name="Path 4948" d="M1246.972,395.434a.572.572,0,0,1-.5-.264.522.522,0,0,1,.161-.746l.1-.057a.567.567,0,0,1,.565.983A.645.645,0,0,1,1246.972,395.434Zm-1.86-1.368a.567.567,0,0,1-.567-.567v-.113a.567.567,0,0,1,1.135,0v.113A.567.567,0,0,1,1245.113,394.066Zm5.885-.96a.569.569,0,0,1-.5-.264.52.52,0,0,1,.159-.746l.1-.057a.567.567,0,1,1,.565.982A.647.647,0,0,1,1251,393.106Zm4.026-2.329a.572.572,0,0,1-.5-.263.522.522,0,0,1,.16-.747l.1-.056a.567.567,0,0,1,.567.982A.645.645,0,0,1,1255.024,390.777Zm-9.912-1.362a.567.567,0,0,1-.567-.567v-.113a.567.567,0,0,1,1.135,0v.113A.567.567,0,0,1,1245.113,389.416Zm13.938-.966a.571.571,0,0,1-.5-.264.522.522,0,0,1,.159-.746l.1-.057a.567.567,0,1,1,.567.982A.646.646,0,0,1,1259.05,388.449Zm3.966-2.279a.567.567,0,0,1-.285-1.058l.1-.057a.567.567,0,1,1,.567.981l-.1.058A.565.565,0,0,1,1263.016,386.17Zm-17.9-1.4a.567.567,0,0,1-.567-.567.618.618,0,0,1,.567-.624.522.522,0,0,1,.568.51v.113A.567.567,0,0,1,1245.113,384.765Zm21.987-.973a.567.567,0,0,1-.5-.261.521.521,0,0,1,.156-.747l.1-.058a.567.567,0,0,1,.571.981A.639.639,0,0,1,1267.1,383.793Zm4.026-2.329a.569.569,0,0,1-.5-.26.522.522,0,0,1,.156-.748l.1-.057a.567.567,0,1,1,.57.981A.647.647,0,0,1,1271.126,381.464Zm-26.013-1.348a.567.567,0,0,1-.567-.567v-.114a.567.567,0,0,1,1.135,0v.114A.568.568,0,0,1,1245.113,380.116Zm29.981-.931a.567.567,0,0,1-.285-1.058l.1-.057a.567.567,0,1,1,.569.981l-.1.057A.564.564,0,0,1,1275.094,379.185Zm4.084-2.378a.568.568,0,0,1-.5-.26.523.523,0,0,1,.156-.748l.1-.057a.567.567,0,1,1,.571.981A.644.644,0,0,1,1279.178,376.807Zm-34.065-1.342a.568.568,0,0,1-.567-.568v-.113a.567.567,0,0,1,1.135,0v.113A.568.568,0,0,1,1245.113,375.465Zm38.09-.986a.568.568,0,0,1-.5-.263.522.522,0,0,1,.16-.746l.1-.057a.567.567,0,1,1,.566.982A.649.649,0,0,1,1283.2,374.479Zm3.967-2.279a.567.567,0,0,1-.283-1.059l.1-.057a.566.566,0,1,1,.563.983l-.1.057A.567.567,0,0,1,1287.17,372.2Zm4.084-2.378a.568.568,0,0,1-.5-.263.521.521,0,0,1,.16-.746l.1-.057a.567.567,0,1,1,.566.982A.649.649,0,0,1,1291.254,369.823Z" transform="translate(-1146.633 -332.899)" fill="#b9cce9"/>
        </g>
      </g>
    </g>
    <g id="Group_592" data-name="Group 592" transform="translate(1414.133 295.018)">
      <g id="Group_587" data-name="Group 587" transform="translate(2.501 29.668)">
        <path id="Path_4949" data-name="Path 4949" d="M1554.17,365.335,1513,389.1c-3,1.733-8.293,1.514-11.759-.487l-39.477-22.793c-3.465-2-3.846-5.056-.844-6.789l41.166-23.767c3-1.733,8.292-1.514,11.758.487l39.478,22.793C1556.791,360.547,1557.171,363.6,1554.17,365.335Z" transform="translate(-1458.898 -334.097)" fill="#e5f1fa"/>
        <g id="Group_586" data-name="Group 586" transform="translate(0.002 28.4)">
          <path id="Path_4950" data-name="Path 4950" d="M1562.409,515.136V366.651h0a3.74,3.74,0,0,1-1.969,2.4l-41.165,23.767a10.674,10.674,0,0,1-5.461,1.153V543.52a10.669,10.669,0,0,0,5.461-1.152L1560.44,518.6C1562.01,517.694,1562.646,516.426,1562.409,515.136Z" transform="translate(-1465.171 -366.214)" fill="url(#linear-gradient-5)"/>
          <path id="Path_4951" data-name="Path 4951" d="M1501.245,392.276l-39.477-22.793a5.248,5.248,0,0,1-2.812-3.325V514.644c-.3,1.489.656,3.143,2.812,4.388l39.477,22.792a13.563,13.563,0,0,0,6.3,1.641V393.916A13.56,13.56,0,0,1,1501.245,392.276Z" transform="translate(-1458.901 -366.158)" fill="#dededd"/>
          <path id="Path_4952" data-name="Path 4952" d="M1501.245,392.276l-39.477-22.793a5.248,5.248,0,0,1-2.812-3.325V514.644c-.3,1.489.656,3.143,2.812,4.388l39.477,22.792a13.563,13.563,0,0,0,6.3,1.641V393.916A13.56,13.56,0,0,1,1501.245,392.276Z" transform="translate(-1458.901 -366.158)" fill="url(#linear-gradient-6)"/>
        </g>
      </g>
      <g id="Group_591" data-name="Group 591" transform="translate(0)">
        <g id="Group_589" data-name="Group 589">
          <path id="Path_4953" data-name="Path 4953" d="M1541.432,376.242c0,8.433-4.462,13.085-10.8,12.48a8.033,8.033,0,0,1-4.875-1.259l-52.608-30.373a14.015,14.015,0,0,1-1.287-.845c-8.864-6.146-15.782-18.782-15.782-29.285,0-10.231,6.558-14.9,15.082-11.364,1.275-7.266,7.345-9.826,14.642-5.613a26.634,26.634,0,0,1,6.756,5.772c3.874-3.288,9.79-3.407,16.423.423,9.964,5.752,18.312,18.544,20.529,30.548a13.958,13.958,0,0,1,5.462,10.076C1538.913,362.8,1541.432,369.9,1541.432,376.242Z" transform="translate(-1456.075 -301.443)" fill="#1951de"/>
          <g id="Group_588" data-name="Group 588" transform="translate(5.442)">
            <path id="Path_4954" data-name="Path 4954" d="M1547.052,349.454a13.955,13.955,0,0,0-5.462-10.075c-2.217-12-10.565-24.8-20.529-30.549-5.834-3.369-11.112-3.681-14.936-1.47l-1.607.918a26.58,26.58,0,0,0-6.637-5.643c-4.132-2.386-7.869-2.6-10.566-1.013l-9.577,5.478a9.061,9.061,0,0,0-4.252,1.049l-11.267,6.444c2.587-1.355,5.927-1.375,9.64.165,1.275-7.266,7.345-9.826,14.642-5.613a26.633,26.633,0,0,1,6.756,5.772c3.874-3.288,9.79-3.407,16.424.423,9.963,5.752,18.311,18.544,20.529,30.548a13.963,13.963,0,0,1,5.462,10.076c3.943,5.993,6.462,13.1,6.462,19.44,0,5.74-2.071,9.723-5.392,11.494l11.266-6.442c3.389-1.74,5.506-5.753,5.506-11.561C1553.514,362.554,1551,355.448,1547.052,349.454Z" transform="translate(-1462.219 -300.604)" fill="#2764ff"/>
          </g>
        </g>
        <g id="Group_590" data-name="Group 590" transform="translate(17.445 42.089)">
          <path id="Path_4955" data-name="Path 4955" d="M1482.274,354.2c0,2.075-1.456,2.915-3.253,1.878a7.187,7.187,0,0,1-3.253-5.634c0-2.075,1.456-2.915,3.253-1.878A7.191,7.191,0,0,1,1482.274,354.2Z" transform="translate(-1475.769 -348.119)" fill="#fff"/>
          <ellipse id="Ellipse_130" data-name="Ellipse 130" cx="2.656" cy="4.6" rx="2.656" ry="4.6" transform="translate(8.807 7.407) rotate(-30.001)" fill="#fff"/>
          <path id="Path_4956" data-name="Path 4956" d="M1505.2,367.434c0,2.075-1.456,2.915-3.252,1.878a7.188,7.188,0,0,1-3.253-5.634c0-2.074,1.456-2.915,3.253-1.878A7.189,7.189,0,0,1,1505.2,367.434Z" transform="translate(-1478.387 -349.631)" fill="#fff"/>
          <path id="Path_4957" data-name="Path 4957" d="M1516.664,374.053c0,2.074-1.456,2.915-3.253,1.877a7.19,7.19,0,0,1-3.253-5.634c0-2.074,1.457-2.915,3.253-1.878A7.19,7.19,0,0,1,1516.664,374.053Z" transform="translate(-1479.696 -350.387)" fill="#fff"/>
          <path id="Path_4958" data-name="Path 4958" d="M1528.127,380.671c0,2.075-1.455,2.915-3.251,1.878a7.19,7.19,0,0,1-3.254-5.634c0-2.075,1.457-2.915,3.254-1.878A7.188,7.188,0,0,1,1528.127,380.671Z" transform="translate(-1481.005 -351.143)" fill="#fff"/>
        </g>
      </g>
    </g>
    <g id="Group_594" data-name="Group 594" transform="translate(1395.637 587.138)">
      <path id="Path_4959" data-name="Path 4959" d="M1551.946,655.59l-75.4,42.231c-3.339,1.928-9.226,1.685-13.083-.542l-25.08-14.959c-3.856-2.227-4.278-5.626-.939-7.554l75.108-43.08c3.339-1.928,9.227-1.684,13.084.542l25.367,15.81C1554.862,650.263,1555.285,653.662,1551.946,655.59Z" transform="translate(-1435.195 -630.384)" fill="#e5f1fa"/>
      <g id="Group_593" data-name="Group 593" transform="translate(0.002 22.533)">
        <path id="Path_4960" data-name="Path 4960" d="M1558.683,663.211v-7.388h0a4.16,4.16,0,0,1-2.19,2.674l-75.4,42.231a11.853,11.853,0,0,1-6.075,1.283v8.569a11.854,11.854,0,0,0,6.075-1.283l75.4-42.231C1558.24,666.057,1558.948,664.646,1558.683,663.211Z" transform="translate(-1439.745 -655.822)" fill="url(#linear-gradient-7)"/>
        <path id="Path_4961" data-name="Path 4961" d="M1463.467,703.5l-25.08-14.959a5.842,5.842,0,0,1-3.129-3.7v7.388c-.34,1.656.729,3.5,3.129,4.882l25.08,14.96a15.084,15.084,0,0,0,7.008,1.825v-8.569A15.081,15.081,0,0,1,1463.467,703.5Z" transform="translate(-1435.197 -659.136)" fill="url(#linear-gradient-8)"/>
      </g>
    </g>
    <g id="Group_596" data-name="Group 596" transform="translate(1427.025 633.596)">
      <path id="Path_4962" data-name="Path 4962" d="M1587.38,708.037l-75.4,42.232c-3.34,1.928-9.228,1.684-13.083-.543l-25.079-14.959c-3.857-2.227-4.279-5.626-.94-7.554l75.108-43.08c3.34-1.928,9.228-1.684,13.083.542l25.368,15.81C1590.3,702.71,1590.719,706.11,1587.38,708.037Z" transform="translate(-1470.629 -682.831)" fill="#e5f1fa"/>
      <g id="Group_595" data-name="Group 595" transform="translate(0.002 22.534)">
        <path id="Path_4963" data-name="Path 4963" d="M1594.118,715.658v-7.388h0a4.156,4.156,0,0,1-2.19,2.672l-75.4,42.232a11.865,11.865,0,0,1-6.076,1.283v8.57a11.866,11.866,0,0,0,6.076-1.284l75.4-42.231C1593.674,718.5,1594.382,717.093,1594.118,715.658Z" transform="translate(-1475.178 -708.27)" fill="url(#linear-gradient-9)"/>
        <path id="Path_4964" data-name="Path 4964" d="M1498.9,755.944l-25.079-14.959a5.842,5.842,0,0,1-3.13-3.7v7.388c-.339,1.657.729,3.5,3.13,4.883l25.079,14.96a15.094,15.094,0,0,0,7.008,1.825v-8.57A15.082,15.082,0,0,1,1498.9,755.944Z" transform="translate(-1470.63 -711.583)" fill="url(#linear-gradient-10)"/>
      </g>
    </g>
    <g id="Group_618" data-name="Group 618" transform="translate(1121.266 433.472)">
      <g id="Group_598" data-name="Group 598" transform="translate(0 0.92)">
        <path id="Path_4965" data-name="Path 4965" d="M1534.619,562.829,1310.972,691.666c-10.077,5.818-27.844,5.082-39.48-1.637l-136.407-78.456c-11.637-6.718-12.913-16.976-2.835-22.793l227.506-126.907c10.078-5.819,27.843-5.082,39.48,1.636l132.548,76.527C1543.421,546.753,1544.7,557.011,1534.619,562.829Z" transform="translate(-1125.452 -457.947)" fill="#e5f1fa"/>
        <g id="Group_597" data-name="Group 597" transform="translate(0.005 96.816)">
          <path id="Path_4966" data-name="Path 4966" d="M1562.78,573.406v-6.163c-.62,3.036-2.8,5.869-6.609,8.066L1332.524,704.147c-4.843,2.8-11.471,4.04-18.333,3.872v9.727c6.861.168,13.49-1.075,18.333-3.872l223.647-128.837C1561.443,581.994,1563.578,577.736,1562.78,573.406Z" transform="translate(-1147.01 -567.244)" fill="url(#linear-gradient-11)"/>
          <path id="Path_4967" data-name="Path 4967" d="M1271.492,708.4l-136.406-78.456c-5.55-3.2-8.715-7.215-9.443-11.164v6.159c-1.023,5,2.2,10.551,9.443,14.732l136.406,78.456a45.552,45.552,0,0,0,21.147,5.509V713.9A45.545,45.545,0,0,1,1271.492,708.4Z" transform="translate(-1125.458 -573.129)" fill="#cac9c9"/>
          <path id="Path_4968" data-name="Path 4968" d="M1271.492,708.4l-136.406-78.456c-5.55-3.2-8.715-7.215-9.443-11.164v6.159c-1.023,5,2.2,10.551,9.443,14.732l136.406,78.456a45.552,45.552,0,0,0,21.147,5.509V713.9A45.545,45.545,0,0,1,1271.492,708.4Z" transform="translate(-1125.458 -573.129)" fill="url(#linear-gradient-12)"/>
        </g>
      </g>
      <g id="Group_607" data-name="Group 607" transform="translate(33.596 108.11)">
        <g id="Group_599" data-name="Group 599">
          <path id="Path_4969" data-name="Path 4969" d="M1328.878,647.615l-46.7,26.962-118.8-68.66,46.7-26.962Z" transform="translate(-1163.379 -578.955)" fill="#fff"/>
          <path id="Path_4970" data-name="Path 4970" d="M1344.193,656.467v19.384l-46.7,26.962V683.429Z" transform="translate(-1178.695 -587.807)" fill="url(#linear-gradient-13)"/>
          <path id="Path_4971" data-name="Path 4971" d="M1163.379,609.393v19.384l118.8,68.66V678.053Z" transform="translate(-1163.379 -582.431)" fill="url(#linear-gradient-14)"/>
        </g>
        <g id="Group_606" data-name="Group 606" transform="translate(21.105 5.245)">
          <g id="Group_601" data-name="Group 601">
            <path id="Path_4972" data-name="Path 4972" d="M1234.629,600.425l-20.492,11.831a6.526,6.526,0,0,1-5.852-.243l-19.651-11.346c-1.725-1-1.914-2.516-.42-3.379l20.491-11.831a6.531,6.531,0,0,1,5.853.243l19.65,11.346C1235.934,598.043,1236.123,599.562,1234.629,600.425Z" transform="translate(-1187.205 -584.876)" fill="#82d1e4"/>
            <g id="Group_600" data-name="Group 600" transform="translate(0.001 14.137)">
              <path id="Path_4973" data-name="Path 4973" d="M1238.73,610.1v-9.023h0a1.863,1.863,0,0,1-.98,1.2l-20.492,11.831a5.3,5.3,0,0,1-2.718.574v9.552a5.307,5.307,0,0,0,2.718-.574l20.492-11.832A1.647,1.647,0,0,0,1238.73,610.1Z" transform="translate(-1190.327 -600.864)" fill="#00b2c8"/>
              <path id="Path_4974" data-name="Path 4974" d="M1208.285,613.836l-19.651-11.345a2.614,2.614,0,0,1-1.4-1.655v9.023c-.151.741.327,1.564,1.4,2.184l19.651,11.345a6.754,6.754,0,0,0,3.134.817v-9.552A6.746,6.746,0,0,1,1208.285,613.836Z" transform="translate(-1187.206 -600.836)" fill="#00a4b0"/>
            </g>
          </g>
          <g id="Group_603" data-name="Group 603" transform="translate(36.141 20.937)">
            <path id="Path_4975" data-name="Path 4975" d="M1275.429,624.061l-20.492,11.831a6.529,6.529,0,0,1-5.852-.243L1229.433,624.3c-1.725-1-1.914-2.517-.42-3.379l20.492-11.831a6.529,6.529,0,0,1,5.853.243l19.651,11.345C1276.734,621.679,1276.923,623.2,1275.429,624.061Z" transform="translate(-1228.005 -608.512)" fill="#faad18"/>
            <g id="Group_602" data-name="Group 602" transform="translate(0.001 14.136)">
              <path id="Path_4976" data-name="Path 4976" d="M1279.53,633.739v-9.023h0a1.863,1.863,0,0,1-.98,1.2l-20.492,11.83a5.3,5.3,0,0,1-2.718.574v9.552a5.309,5.309,0,0,0,2.718-.574l20.492-11.831A1.647,1.647,0,0,0,1279.53,633.739Z" transform="translate(-1231.127 -624.499)" fill="#ec9422"/>
              <path id="Path_4977" data-name="Path 4977" d="M1249.084,637.472l-19.65-11.345a2.613,2.613,0,0,1-1.4-1.656v9.024c-.151.74.327,1.563,1.4,2.183l19.65,11.346a6.746,6.746,0,0,0,3.135.817v-9.552A6.751,6.751,0,0,1,1249.084,637.472Z" transform="translate(-1228.006 -624.471)" fill="#cd7d29"/>
            </g>
          </g>
          <g id="Group_605" data-name="Group 605" transform="translate(73.035 42.17)">
            <path id="Path_4978" data-name="Path 4978" d="M1317.079,648.031l-20.492,11.831a6.529,6.529,0,0,1-5.853-.243l-19.651-11.345c-1.725-1-1.914-2.516-.42-3.379l20.491-11.831a6.533,6.533,0,0,1,5.853.243l19.652,11.345C1318.384,645.649,1318.573,647.168,1317.079,648.031Z" transform="translate(-1269.656 -632.483)" fill="#e7e513"/>
            <g id="Group_604" data-name="Group 604" transform="translate(0.001 14.137)">
              <path id="Path_4979" data-name="Path 4979" d="M1321.181,657.71v-9.023h0a1.859,1.859,0,0,1-.979,1.2l-20.491,11.831a5.314,5.314,0,0,1-2.719.574v9.552a5.3,5.3,0,0,0,2.719-.573l20.491-11.831A1.647,1.647,0,0,0,1321.181,657.71Z" transform="translate(-1272.778 -648.47)" fill="#cfd628"/>
              <path id="Path_4980" data-name="Path 4980" d="M1290.735,661.442,1271.084,650.1a2.608,2.608,0,0,1-1.4-1.654v9.023c-.153.742.326,1.564,1.4,2.184l19.651,11.345a6.744,6.744,0,0,0,3.134.816v-9.552A6.745,6.745,0,0,1,1290.735,661.442Z" transform="translate(-1269.657 -648.442)" fill="#929336"/>
            </g>
          </g>
        </g>
      </g>
      <g id="Group_612" data-name="Group 612" transform="translate(337.166 31.082)">
        <g id="Group_609" data-name="Group 609" transform="translate(0 22.822)">
          <ellipse id="Ellipse_131" data-name="Ellipse 131" cx="31.598" cy="18.243" rx="31.598" ry="18.243" fill="#fff"/>
          <g id="Group_608" data-name="Group 608" transform="translate(0.007 18.341)">
            <path id="Path_4981" data-name="Path 4981" d="M1560.027,551.268c-12.34,7.125-32.346,7.125-44.686,0-6.126-3.537-9.2-8.165-9.247-12.8v19.605c-.043,4.7,3.034,9.411,9.247,13,12.34,7.125,32.346,7.125,44.686,0,6.213-3.587,9.291-8.3,9.247-13V538.467C1569.231,543.1,1566.154,547.732,1560.027,551.268Z" transform="translate(-1506.093 -538.467)" fill="url(#linear-gradient-15)"/>
          </g>
        </g>
        <g id="Group_611" data-name="Group 611" transform="translate(4.364)">
          <path id="Path_4982" data-name="Path 4982" d="M1538.245,520.646l19.295,11.14c-10.585,6.111-28,6.111-38.59,0s-10.584-16.169,0-22.281c5.911-3.412,14.222-5.074,22.524-4.5Z" transform="translate(-1511.012 -493.469)" fill="#4cb3cf"/>
          <g id="Group_610" data-name="Group 610" transform="translate(0.002 27.232)">
            <path id="Path_4983" data-name="Path 4983" d="M1518.951,533.823c-5.268-3.041-7.912-7.06-7.936-11.083v11.213c-.024,4.06,2.62,8.126,7.936,11.2,10.585,6.111,28.005,6.111,38.59,0V533.824C1546.956,539.935,1529.536,539.935,1518.951,533.823Z" transform="translate(-1511.015 -522.74)" fill="#00a4b0"/>
          </g>
          <path id="Path_4984" data-name="Path 4984" d="M1538.245,520.646l19.295,11.14c-10.585,6.111-28,6.111-38.59,0s-10.584-16.169,0-22.281c5.911-3.412,14.222-5.074,22.524-4.5Z" transform="translate(-1511.012 -493.469)" fill="#82d1e4"/>
          <path id="Path_4985" data-name="Path 4985" d="M1541.757,507.64,1544.985,492a37.855,37.855,0,0,1,16.067,4.5c10.585,6.111,10.585,16.169,0,22.28Z" transform="translate(-1514.523 -491.997)" fill="#faad18"/>
          <path id="Path_4986" data-name="Path 4986" d="M1541.757,509.657V521.19l19.295,11.14V520.8Z" transform="translate(-1514.523 -494.014)" fill="#cd7d29"/>
          <path id="Path_4987" data-name="Path 4987" d="M1571.473,532.416V509.785c-.049,4-2.691,8-7.934,11.027v22.857C1568.881,540.585,1571.523,536.5,1571.473,532.416Z" transform="translate(-1517.01 -494.028)" fill="#ec9422"/>
        </g>
      </g>
      <g id="Group_617" data-name="Group 617" transform="translate(255.283)">
        <g id="Group_615" data-name="Group 615">
          <g id="Group_613" data-name="Group 613">
            <path id="Path_4988" data-name="Path 4988" d="M1462.142,497.721l-44.913-25.931c-5.308-3.065-4.643-8.417,1.487-11.956h0c6.128-3.538,15.4-3.922,20.707-.858l44.914,25.931c5.308,3.064,4.643,8.417-1.487,11.956h0C1476.722,500.4,1467.45,500.785,1462.142,497.721Z" transform="translate(-1413.646 -456.908)" fill="#fff"/>
          </g>
          <g id="Group_614" data-name="Group 614" transform="translate(0.007 9.918)">
            <path id="Path_4989" data-name="Path 4989" d="M1482.851,498.142c-6.129,3.538-15.4,3.922-20.708.858l-44.914-25.931c-2.31-1.334-3.486-3.1-3.575-4.964h0v13.239c0,.038,0,.076,0,.114.045,1.9,1.217,3.718,3.575,5.079l44.914,25.931c5.308,3.064,14.578,2.679,20.708-.858,3.46-2,5.178-4.575,5.062-6.992V491.265C1487.97,493.648,1486.257,496.174,1482.851,498.142Z" transform="translate(-1413.654 -468.105)" fill="url(#linear-gradient-16)"/>
          </g>
        </g>
        <g id="Group_616" data-name="Group 616" transform="translate(12.661 5.166)">
          <path id="Path_4990" data-name="Path 4990" d="M1438,468.552a9.217,9.217,0,0,1-8.338,0c-2.3-1.329-2.3-3.485,0-4.814a9.215,9.215,0,0,1,8.338,0C1440.307,465.066,1440.307,467.222,1438,468.552Z" transform="translate(-1427.939 -462.74)" fill="#b9cce9"/>
          <path id="Path_4991" data-name="Path 4991" d="M1452.7,477.035a9.214,9.214,0,0,1-8.338,0c-2.3-1.33-2.3-3.485,0-4.815a9.214,9.214,0,0,1,8.338,0C1455,473.55,1455,475.705,1452.7,477.035Z" transform="translate(-1429.617 -463.709)" fill="#b9cce9"/>
          <path id="Path_4992" data-name="Path 4992" d="M1467.391,485.518a9.215,9.215,0,0,1-8.339,0c-2.3-1.33-2.3-3.485,0-4.814a9.215,9.215,0,0,1,8.339,0C1469.694,482.033,1469.694,484.188,1467.391,485.518Z" transform="translate(-1431.294 -464.678)" fill="#b9cce9"/>
          <path id="Path_4993" data-name="Path 4993" d="M1482.084,494a9.216,9.216,0,0,1-8.339,0c-2.3-1.33-2.3-3.485,0-4.814a9.216,9.216,0,0,1,8.339,0C1484.386,490.516,1484.386,492.671,1482.084,494Z" transform="translate(-1432.972 -465.646)" fill="#b9cce9"/>
        </g>
      </g>
    </g>
    <g id="Group_627" data-name="Group 627" transform="translate(1393.223 407.845)">
      <g id="Group_619" data-name="Group 619" transform="translate(0 21.292)">
        <path id="Path_4994" data-name="Path 4994" d="M1446.845,473.776h0a2.888,2.888,0,0,0,3.34-2.327l2.833-16.051a2.885,2.885,0,0,0-2.326-3.339h0a2.887,2.887,0,0,0-3.34,2.326l-2.832,16.051A2.888,2.888,0,0,0,1446.845,473.776Z" transform="translate(-1433.841 -452.014)" fill="#fab884"/>
        <path id="Path_4995" data-name="Path 4995" d="M1432.6,476.867h0a2.886,2.886,0,0,0,3.609,1.881l9.932-2.9a2.887,2.887,0,0,0,2.688-3.057h0a2.887,2.887,0,0,0-3.057-2.687l-11.289,3.149A2.887,2.887,0,0,0,1432.6,476.867Z" transform="translate(-1432.47 -454.08)" fill="#fab884"/>
      </g>
      <g id="Group_622" data-name="Group 622" transform="translate(17.208 61.216)">
        <g id="Group_621" data-name="Group 621" transform="translate(0 25.172)">
          <g id="Group_620" data-name="Group 620">
            <path id="Path_4996" data-name="Path 4996" d="M1464.688,530.779c.037.383-.27.713-.778,1.037-.146.093.019-2.066-.484-1.705-.145.1-7.078,5.5-10.949,4.506a.822.822,0,0,1-.58-.833v-.871c-.053-.982,1.406-2.479,3.625-4.641,2.445-2.382,4-3.868,7.656-1.759,1.044.6,1.463,1.053,1.467,1.439Z" transform="translate(-1451.897 -525.502)" fill="#010101"/>
            <path id="Path_4997" data-name="Path 4997" d="M1455.524,528.272c-2.952,2.877-4.564,4.577-3.047,5.453s4.546-.443,7.655-2.792c2.723-2.058,6.7-2.311,3.047-4.42S1457.968,525.89,1455.524,528.272Z" transform="translate(-1451.897 -525.502)" fill="#46486a"/>
          </g>
        </g>
        <path id="Path_4998" data-name="Path 4998" d="M1459.343,523.654l.217-26.569,8.783,2.847-1.506,4.329a31.991,31.991,0,0,1-1.11,11.644s-1.252,2.557-1.005,8.51C1464.721,524.415,1461.5,526.248,1459.343,523.654Z" transform="translate(-1452.747 -497.085)" fill="#fab983"/>
      </g>
      <g id="Group_625" data-name="Group 625" transform="translate(8.732 54.251)">
        <g id="Group_624" data-name="Group 624" transform="translate(0 25.172)">
          <g id="Group_623" data-name="Group 623">
            <path id="Path_4999" data-name="Path 4999" d="M1455.119,522.917c.039.383-.269.712-.778,1.036-.145.093.019-2.066-.483-1.706-.145.1-7.079,5.5-10.95,4.506a.82.82,0,0,1-.578-.832v-.871c-.053-.983,1.407-2.479,3.626-4.641,2.444-2.382,4-3.869,7.656-1.76,1.043.6,1.462,1.054,1.468,1.439Z" transform="translate(-1442.328 -517.639)" fill="#010101"/>
            <path id="Path_5000" data-name="Path 5000" d="M1445.956,520.41c-2.953,2.877-4.564,4.577-3.048,5.452s4.547-.443,7.656-2.792c2.722-2.057,6.7-2.311,3.046-4.42S1448.4,518.028,1445.956,520.41Z" transform="translate(-1442.328 -517.639)" fill="#46486a"/>
          </g>
        </g>
        <path id="Path_5001" data-name="Path 5001" d="M1449.774,515.791l.216-26.569,8.784,2.847-1.507,4.33a32,32,0,0,1-1.11,11.644s-1.252,2.557-1,8.51C1455.153,516.552,1451.927,518.386,1449.774,515.791Z" transform="translate(-1443.179 -489.222)" fill="#f79e64"/>
      </g>
      <path id="Path_5002" data-name="Path 5002" d="M1470.129,488.859v9.811s-11.5,3.882-22.3-9.811v-9.495Z" transform="translate(-1434.223 -433.845)" fill="#82d1e4"/>
      <path id="Path_5003" data-name="Path 5003" d="M1464.634,489.164a.8.8,0,0,1-.368.122c-1.927.149-8.854-1.36-15.785-9.17a3.631,3.631,0,0,1-.939-2.246V455.706a3.642,3.642,0,0,1,1.557-3.382l5.21-3.04a3.637,3.637,0,0,1,3.714.339l7.107,4.1a11.577,11.577,0,0,1,5.218,9.038v22.294a1.131,1.131,0,0,1-.5,1.066Z" transform="translate(-1434.192 -430.368)" fill="#339cd7"/>
      <path id="Path_5004" data-name="Path 5004" d="M1463.615,455a1.81,1.81,0,0,1-1.075,1.525,5.745,5.745,0,0,1-5.2,0A1.808,1.808,0,0,1,1456.27,455v-4.829a1.808,1.808,0,0,1,1.073-1.524,5.747,5.747,0,0,1,5.2,0,1.81,1.81,0,0,1,1.075,1.524Z" transform="translate(-1435.187 -430.266)" fill="#efa36d"/>
      <path id="Path_5005" data-name="Path 5005" d="M1464.232,447.712c0,1.207.847,1.7,1.892,1.092a4.184,4.184,0,0,0,1.892-3.277c0-1.207-.848-1.7-1.892-1.092A4.18,4.18,0,0,0,1464.232,447.712Z" transform="translate(-1436.097 -429.827)" fill="#fab884"/>
      <path id="Path_5006" data-name="Path 5006" d="M1452.36,459.672s-9.783-8.9-3.817-24.72l4.585,16.427Z" transform="translate(-1434.085 -428.773)" fill="#384796"/>
      <circle id="Ellipse_132" data-name="Ellipse 132" cx="10.118" cy="10.118" r="10.118" transform="translate(14.688 2.011)" fill="#fab983"/>
      <path id="Path_5007" data-name="Path 5007" d="M1456.119,458.876s7.525-8.294,2.3-23.652l-9.369,3.225s-3.225-7.986,7.373-10.29c0,0,7.064-1.536,9.521,4.3,0,0,5.682.461,3.532,12.134C1469.48,444.593,1469.173,455.65,1456.119,458.876Z" transform="translate(-1434.311 -427.977)" fill="#384796"/>
      <g id="Group_626" data-name="Group 626" transform="translate(12.24 27.295)">
        <path id="Path_5008" data-name="Path 5008" d="M1464.319,481.03h0a2.887,2.887,0,0,0,3.545-2l4.453-16.588a2.885,2.885,0,0,0-2-3.545h0a2.886,2.886,0,0,0-3.544,2l-4.455,16.588A2.888,2.888,0,0,0,1464.319,481.03Z" transform="translate(-1448.106 -458.791)" fill="#fab884"/>
        <path id="Path_5009" data-name="Path 5009" d="M1446.351,483.743h0a2.887,2.887,0,0,0,3.415,2.215l13.4-2.72a2.887,2.887,0,0,0,2.965-2.79h0a2.886,2.886,0,0,0-2.789-2.964l-14.776,2.843A2.886,2.886,0,0,0,1446.351,483.743Z" transform="translate(-1446.287 -460.926)" fill="#fab884"/>
      </g>
    </g>
    <g id="Group_635" data-name="Group 635" transform="translate(1219.144 347.913)">
      <g id="Group_629" data-name="Group 629">
        <path id="Path_5010" data-name="Path 5010" d="M1241.078,538.375V439.062a7.048,7.048,0,0,1,3.525-6.105l119.377-68.922a7.048,7.048,0,0,1,10.573,6.1v99.314a7.048,7.048,0,0,1-3.525,6.105L1251.651,544.48A7.049,7.049,0,0,1,1241.078,538.375Z" transform="translate(-1236.534 -360.633)" fill="#fff"/>
        <path id="Path_5011" data-name="Path 5011" d="M1248.443,543.375a4.705,4.705,0,0,1-4.695-4.695V439.366a4.693,4.693,0,0,1,2.341-4.056l119.377-68.923a4.62,4.62,0,0,1,2.332-.639,4.705,4.705,0,0,1,4.7,4.695v99.314a4.7,4.7,0,0,1-2.343,4.057l-119.377,68.923A4.6,4.6,0,0,1,1248.443,543.375Z" transform="translate(-1236.839 -360.938)" fill="url(#linear-gradient-17)"/>
        <g id="Group_628" data-name="Group 628">
          <path id="Path_5012" data-name="Path 5012" d="M1240.492,538.06V438.746a7.05,7.05,0,0,1,3.523-6.1l119.378-68.922a6.946,6.946,0,0,1,6.025-.477l0,0-2.825-1.5a7,7,0,0,0-7.748-.463l-119.377,68.923a7.048,7.048,0,0,0-3.525,6.105v99.314a6.957,6.957,0,0,0,2.9,5.693v.008l.07.039a7.236,7.236,0,0,0,1.513.819l3.154,1.708A6.954,6.954,0,0,1,1240.492,538.06Z" transform="translate(-1235.948 -360.318)" fill="url(#linear-gradient-18)"/>
          <path id="Path_5013" data-name="Path 5013" d="M1246.055,568.348l.028.015,0,0C1246.076,568.354,1246.065,568.352,1246.055,568.348Z" transform="translate(-1237.102 -384.074)" fill="url(#linear-gradient-19)"/>
        </g>
      </g>
      <g id="Group_630" data-name="Group 630" transform="translate(11.593 113.98)">
        <path id="Path_5014" data-name="Path 5014" d="M1252.56,571.068l86.009,49.657a7.052,7.052,0,0,0,7.049,0L1464.995,551.8a7.049,7.049,0,0,0,0-12.209l-86.009-49.657a7.051,7.051,0,0,0-7.05,0L1252.56,558.859A7.049,7.049,0,0,0,1252.56,571.068Z" transform="translate(-1249.035 -488.992)" fill="#fff"/>
        <path id="Path_5015" data-name="Path 5015" d="M1464.995,559.071l-119.378,68.922a7.048,7.048,0,0,1-7.048,0l-86.009-49.657a6.983,6.983,0,0,1-3.525-6.105v6.449a6.984,6.984,0,0,0,3.525,6.1l86.009,49.657a7.048,7.048,0,0,0,7.048,0l119.378-68.923a6.961,6.961,0,0,0,3.5-5.789l0,0v-.066c.005-.166.005-.331,0-.5v-5.953A6.968,6.968,0,0,1,1464.995,559.071Zm3.5-6.429c0,.025,0,.051,0,.075v-.076Z" transform="translate(-1249.035 -496.261)" fill="url(#linear-gradient-20)"/>
        <path id="Path_5016" data-name="Path 5016" d="M1422.9,534.167,1320.39,593.351c-4,2.308-10.985,2.019-15.6-.648l-30.858-17.815c-4.618-2.666-5.12-6.7-1.12-9.009L1375.315,506.7c4-2.308,10.985-2.02,15.6.647l30.858,17.816C1426.394,527.825,1426.9,531.858,1422.9,534.167Z" transform="translate(-1251.441 -490.836)" fill="#b1cdeb"/>
        <path id="Path_5017" data-name="Path 5017" d="M1272.809,567.3l102.508-59.183c4-2.309,10.985-2.02,15.6.647l30.858,17.816c2.2,1.27,3.454,2.849,3.743,4.406.41-1.975-.867-4.165-3.743-5.825l-30.858-17.816c-4.618-2.666-11.6-2.955-15.6-.647l-102.508,59.183c-2.094,1.209-2.943,2.891-2.623,4.6A4.986,4.986,0,0,1,1272.809,567.3Z" transform="translate(-1251.442 -490.836)" fill="#8db5e0"/>
        <path id="Path_5018" data-name="Path 5018" d="M1357.735,535.149l-5.436-3.139-5.437,3.139,5.437,3.138Zm-10.685,6.17-5.436-3.138-5.437,3.138,5.437,3.138Zm21.372-12.339-5.436-3.138-5.436,3.138,5.436,3.138Zm31.043,3.285,11.32-6.535-5.436-3.139-11.321,6.536Zm2.136-11.837-5.435-3.138-5.437,3.138,5.437,3.138Zm-22.495,2.383-5.434-3.139-5.437,3.139,5.437,3.14Zm-42.743,24.678-5.436-3.138-5.436,3.138,5.436,3.139ZM1392.17,530.2l-93.682,54.086,5.437,3.139,93.681-54.087Zm-66.493,23.459-5.436-3.139-5.436,3.139,5.436,3.138Zm62.206-31.588L1289.3,578.984l5.436,3.138,98.578-56.914Zm26.649,5.822-106.86,61.7,5.436,3.138,106.86-61.7ZM1304.305,566l-5.436-3.138L1293.433,566l5.436,3.138Zm10.686-6.169-5.436-3.138-5.436,3.138,5.436,3.138Z" transform="translate(-1253.633 -492.224)" fill="#8db5e0"/>
        <path id="Path_5019" data-name="Path 5019" d="M1357.735,534.081l-5.436-3.138-5.437,3.138,5.437,3.138Zm-10.685,6.169-5.436-3.138-5.437,3.138,5.437,3.139Zm21.372-12.339-5.436-3.138-5.436,3.138,5.436,3.139Zm31.043,3.285,11.32-6.536-5.436-3.139-11.321,6.536Zm2.136-11.838-5.435-3.138-5.437,3.138,5.437,3.139Zm-22.495,2.383-5.434-3.138-5.437,3.138,5.437,3.139Zm-42.743,24.678-5.436-3.138-5.436,3.138,5.436,3.138Zm55.807-17.289-93.682,54.087,5.437,3.138,93.681-54.087Zm-66.493,23.459-5.436-3.138-5.436,3.138,5.436,3.139ZM1387.883,521,1289.3,577.916l5.436,3.138,98.578-56.913Zm26.649,5.822-106.86,61.7,5.436,3.139,106.86-61.7Zm-110.227,38.1-5.436-3.138-5.436,3.138,5.436,3.138Zm10.686-6.169-5.436-3.138-5.436,3.138,5.436,3.138Z" transform="translate(-1253.633 -492.102)" fill="#dff2fc"/>
        <path id="Path_5020" data-name="Path 5020" d="M1362.985,525.247l5.026,2.9.41-.237-5.436-3.138-5.436,3.138.409.237Zm10.687-6.17,5.026,2.9.408-.236-5.434-3.138-5.437,3.138.409.236ZM1352.3,531.416l5.026,2.9.409-.237-5.436-3.138-5.437,3.138.41.237Zm42.139-3.121,10.911-6.3,5.026,2.9.41-.236-5.436-3.139-11.321,6.536Zm-52.824,9.291,5.026,2.9.41-.237-5.436-3.138-5.437,3.138.409.237Zm54.552-20.892,5.026,2.9.41-.236-5.435-3.138-5.437,3.138.41.236Zm18.366,10.131-106.86,61.7.409.237L1414.532,527.3l5.026,2.9.41-.236Zm-21.623-2.447.41-.236L1387.883,521,1289.3,577.916l.41.237,98.168-56.677Zm-94.04,37.887,5.026,2.9.41-.237-5.436-3.138-5.436,3.138.41.237Zm98.327-29.758.41-.236-5.436-3.138-93.682,54.087.41.236L1392.17,529.6Zm-87.641,23.588,5.026,2.9.41-.237-5.436-3.138-5.436,3.138.409.237Zm21.372-12.339,5.027,2.9.409-.236-5.436-3.138-5.436,3.138.41.236Zm-10.686,6.17,5.027,2.9.409-.237-5.436-3.138-5.436,3.138.409.237Z" transform="translate(-1253.633 -492.102)" fill="#fff"/>
        <path id="Path_5021" data-name="Path 5021" d="M1426.858,575.9l-31.942,18.442c-1.983,1.144-5.478,1-7.767-.322l-7.018-4.052c-2.288-1.321-2.54-3.339-.557-4.484l31.943-18.443c1.982-1.144,5.477-1,7.767.323l7.017,4.051C1428.591,572.741,1428.841,574.759,1426.858,575.9Z" transform="translate(-1263.789 -497.818)" fill="#b1cdeb"/>
        <path id="Path_5022" data-name="Path 5022" d="M1379.577,586.435l31.943-18.443c1.983-1.144,5.478-1,7.766.322l7.018,4.052a3.542,3.542,0,0,1,1.813,2.074c.283-1.015-.328-2.162-1.813-3.02l-7.018-4.051c-2.289-1.323-5.784-1.467-7.766-.323l-31.943,18.443a2.142,2.142,0,0,0-1.256,2.41A2.519,2.519,0,0,1,1379.577,586.435Z" transform="translate(-1263.792 -497.818)" fill="#8db5e0"/>
      </g>
      <g id="Group_634" data-name="Group 634" transform="translate(23.819 32.355)">
        <g id="Group_633" data-name="Group 633">
          <path id="Path_5023" data-name="Path 5023" d="M1357.762,404.05v-3.67c0-3.159-2.217-4.439-4.952-2.859l-85.019,49.085a10.949,10.949,0,0,0-4.953,8.579v3.67Z" transform="translate(-1262.838 -396.844)" fill="#fff"/>
          <g id="Group_631" data-name="Group 631" transform="translate(4.765 42.748)">
            <path id="Path_5024" data-name="Path 5024" d="M1272.2,455.661a4.407,4.407,0,0,1-1.994,3.453c-1.1.636-1.994.12-1.994-1.151a4.408,4.408,0,0,1,1.994-3.454C1271.312,453.875,1272.2,454.389,1272.2,455.661Z" transform="translate(-1268.217 -446.146)" fill="#fff"/>
            <path id="Path_5025" data-name="Path 5025" d="M1280.115,451.094a4.408,4.408,0,0,1-1.993,3.454c-1.1.635-1.994.121-1.994-1.152a4.406,4.406,0,0,1,1.994-3.453C1279.223,449.307,1280.115,449.822,1280.115,451.094Z" transform="translate(-1269.121 -445.625)" fill="#fff"/>
            <path id="Path_5026" data-name="Path 5026" d="M1288.026,446.527a4.406,4.406,0,0,1-1.994,3.453c-1.1.636-1.993.121-1.993-1.151a4.406,4.406,0,0,1,1.993-3.453C1287.133,444.74,1288.026,445.255,1288.026,446.527Z" transform="translate(-1270.024 -445.103)" fill="#fff"/>
          </g>
          <path id="Path_5027" data-name="Path 5027" d="M1277.871,475.329l-15.033,8.679V470.338l15.033-8.68Z" transform="translate(-1262.838 -404.246)" fill="#e7e513"/>
          <path id="Path_5028" data-name="Path 5028" d="M1299.072,463.089l-15.034,8.68V458.1l15.034-8.68Z" transform="translate(-1265.259 -402.848)" fill="#faad18"/>
          <path id="Path_5029" data-name="Path 5029" d="M1320.272,450.849l-15.033,8.68V445.857l15.033-8.68Z" transform="translate(-1267.68 -401.45)" fill="#82d1e4"/>
          <path id="Path_5030" data-name="Path 5030" d="M1328.048,446.1l37.161-21.455v-2.875l-37.161,21.455Z" transform="translate(-1270.285 -399.691)" fill="url(#linear-gradient-21)"/>
          <path id="Path_5031" data-name="Path 5031" d="M1328.048,440.01l37.161-21.455v-2.875l-37.161,21.455Z" transform="translate(-1270.285 -398.995)" fill="url(#linear-gradient-21)"/>
          <path id="Path_5032" data-name="Path 5032" d="M1328.048,433.916l37.161-21.455v-2.874l-37.161,21.455Z" transform="translate(-1270.285 -398.299)" fill="url(#linear-gradient-21)"/>
          <path id="Path_5033" data-name="Path 5033" d="M1354.5,457.009l-88.4,51.038c-1.794,1.035-3.262-.074-3.262-2.466V489.166a7.843,7.843,0,0,1,3.262-6.233l88.4-51.038c1.794-1.035,3.262.074,3.262,2.466v16.416A7.841,7.841,0,0,1,1354.5,457.009Z" transform="translate(-1262.838 -400.802)" fill="#fff"/>
          <g id="Group_632" data-name="Group 632" transform="translate(27.252 48.858)">
            <path id="Path_5034" data-name="Path 5034" d="M1305.157,488.754l-11.555,6.671V481.166l11.555-6.671Z" transform="translate(-1293.603 -454.57)" fill="#e7e513"/>
            <path id="Path_5035" data-name="Path 5035" d="M1321.451,479.636l-11.554,6.671V474.3l11.554-6.671Z" transform="translate(-1295.463 -453.785)" fill="#82d1e4"/>
            <path id="Path_5036" data-name="Path 5036" d="M1337.746,469.519l-11.554,6.671V458.672L1337.746,452Z" transform="translate(-1297.325 -452.001)" fill="#faad18"/>
          </g>
          <path id="Path_5037" data-name="Path 5037" d="M1362.736,455.705l3.1-1.792v-2.875l-3.1,1.792Z" transform="translate(-1274.246 -403.033)" fill="url(#linear-gradient-24)"/>
          <path id="Path_5038" data-name="Path 5038" d="M1362.736,449.611l3.1-1.792v-2.875l-3.1,1.792Z" transform="translate(-1274.246 -402.337)" fill="url(#linear-gradient-25)"/>
          <path id="Path_5039" data-name="Path 5039" d="M1362.736,443.516l3.1-1.792V438.85l-3.1,1.792Z" transform="translate(-1274.246 -401.641)" fill="url(#linear-gradient-26)"/>
          <path id="Path_5040" data-name="Path 5040" d="M1342.916,466.184l16.058-9.271v-2.874l-16.058,9.271Z" transform="translate(-1271.983 -403.375)" fill="url(#linear-gradient-27)"/>
          <path id="Path_5041" data-name="Path 5041" d="M1342.916,460.089l16.058-9.271v-2.874l-16.058,9.271Z" transform="translate(-1271.983 -402.68)" fill="url(#linear-gradient-28)"/>
          <path id="Path_5042" data-name="Path 5042" d="M1342.916,453.995l16.058-9.271v-2.874l-16.058,9.271Z" transform="translate(-1271.983 -401.984)" fill="url(#linear-gradient-29)"/>
          <path id="Path_5043" data-name="Path 5043" d="M1269.821,494.286l-3.1,1.792v2.875l3.1-1.792Z" transform="translate(-1263.281 -407.972)" fill="url(#linear-gradient-30)"/>
          <path id="Path_5044" data-name="Path 5044" d="M1269.821,500.381l-3.1,1.792v2.874l3.1-1.792Z" transform="translate(-1263.281 -408.668)" fill="url(#linear-gradient-31)"/>
          <path id="Path_5045" data-name="Path 5045" d="M1269.821,506.475l-3.1,1.792v2.874l3.1-1.792Z" transform="translate(-1263.281 -409.364)" fill="url(#linear-gradient-32)"/>
          <path id="Path_5046" data-name="Path 5046" d="M1287.97,482.844l-16.058,9.271v2.874l16.058-9.271Z" transform="translate(-1263.874 -406.665)" fill="url(#linear-gradient-33)"/>
          <path id="Path_5047" data-name="Path 5047" d="M1287.97,488.938l-16.058,9.271v2.874l16.058-9.271Z" transform="translate(-1263.874 -407.361)" fill="url(#linear-gradient-34)"/>
          <path id="Path_5048" data-name="Path 5048" d="M1287.97,495.033l-16.058,9.271v2.874l16.058-9.271Z" transform="translate(-1263.874 -408.057)" fill="url(#linear-gradient-35)"/>
        </g>
        <path id="Path_5049" data-name="Path 5049" d="M1352.045,476.95,1271.2,523.627c-1.678.968-3.049-.069-3.049-2.306h0a7.329,7.329,0,0,1,3.049-5.826l80.847-46.677c1.679-.968,3.051.069,3.051,2.3h0A7.328,7.328,0,0,1,1352.045,476.95Z" transform="translate(-1263.444 -405.022)" fill="#fff"/>
      </g>
    </g>
    <g id="Group_641" data-name="Group 641" transform="translate(1166.299 332.592)">
      <g id="Group_637" data-name="Group 637" transform="translate(0 95.221)">
        <path id="Path_5050" data-name="Path 5050" d="M1257.31,535.054l-76.7,44.285c-2.374,1.37-4.317-.1-4.317-3.263V503.564c0-3.166,1.943-6.877,4.317-8.248l76.7-44.284c2.373-1.371,4.316.1,4.316,3.263v72.511C1261.627,529.972,1259.684,533.683,1257.31,535.054Z" transform="translate(-1176.291 -450.519)" fill="url(#linear-gradient-36)"/>
        <g id="Group_636" data-name="Group 636" transform="translate(6.678 20.813)">
          <path id="Path_5051" data-name="Path 5051" d="M1255.809,536.859l-71.98,41.557v-5.4l71.98-41.558Z" transform="translate(-1183.829 -480.574)" fill="url(#linear-gradient-37)"/>
          <ellipse id="Ellipse_133" data-name="Ellipse 133" cx="31.476" cy="18.173" rx="31.476" ry="18.173" transform="matrix(0.5, -0.866, 0.866, 0.5, 4.514, 54.518)" fill="url(#linear-gradient-38)"/>
        </g>
      </g>
      <g id="Group_640" data-name="Group 640" transform="translate(157.495)">
        <path id="Path_5052" data-name="Path 5052" d="M1435.109,411.611l-76.7,44.285c-2.374,1.37-4.317-.1-4.317-3.263V396.067c0-3.165,1.943-6.877,4.317-8.248l76.7-44.284c2.374-1.37,4.317.1,4.317,3.263v56.566C1439.426,406.53,1437.483,410.241,1435.109,411.611Z" transform="translate(-1354.09 -343.022)" fill="url(#linear-gradient-39)"/>
        <g id="Group_639" data-name="Group 639" transform="translate(6.678 13.59)">
          <path id="Path_5053" data-name="Path 5053" d="M1433.608,408.978l-71.979,41.557v-5.4l71.979-41.558Z" transform="translate(-1361.628 -363.528)" fill="url(#linear-gradient-40)"/>
          <path id="Path_5054" data-name="Path 5054" d="M1433.608,396.494l-71.979,41.558v-5.4l71.979-41.557Z" transform="translate(-1361.628 -362.102)" fill="url(#linear-gradient-41)"/>
          <g id="Group_638" data-name="Group 638" transform="translate(1.457)">
            <path id="Path_5055" data-name="Path 5055" d="M1382.6,413.1l-19.332,11.161V401.941L1382.6,390.78Z" transform="translate(-1363.273 -362.066)" fill="url(#linear-gradient-42)"/>
            <path id="Path_5056" data-name="Path 5056" d="M1410.678,396.894l-19.332,11.161V385.733l19.332-11.161Z" transform="translate(-1366.479 -360.215)" fill="url(#linear-gradient-43)"/>
            <path id="Path_5057" data-name="Path 5057" d="M1438.751,380.686l-19.332,11.161V369.525l19.332-11.161Z" transform="translate(-1369.684 -358.364)" fill="url(#linear-gradient-44)"/>
          </g>
        </g>
      </g>
    </g>
    <g id="Group_647" data-name="Group 647" transform="translate(1092.308 577.976)">
      <g id="Group_643" data-name="Group 643" transform="translate(1.486 39.46)">
        <path id="Path_5058" data-name="Path 5058" d="M1189.709,695.826l-41.167,23.768c-3,1.733-8.291,1.513-11.758-.488l-39.478-22.791c-3.464-2-3.844-5.056-.844-6.789l41.167-23.767c3-1.733,8.292-1.514,11.759.487l39.477,22.792C1192.331,691.038,1192.711,694.093,1189.709,695.826Z" transform="translate(-1094.438 -664.589)" fill="#e5f1fa"/>
        <g id="Group_642" data-name="Group 642" transform="translate(0.001 28.4)">
          <path id="Path_5059" data-name="Path 5059" d="M1197.948,772.065V697.142h0a3.736,3.736,0,0,1-1.967,2.4l-41.167,23.768a10.652,10.652,0,0,1-5.46,1.152v75.986a10.657,10.657,0,0,0,5.46-1.154l41.167-23.767C1197.55,774.622,1198.187,773.354,1197.948,772.065Z" transform="translate(-1100.711 -696.706)" fill="url(#linear-gradient-45)"/>
          <path id="Path_5060" data-name="Path 5060" d="M1136.785,722.767l-39.478-22.792a5.255,5.255,0,0,1-2.813-3.325v74.922c-.3,1.489.656,3.143,2.813,4.388l39.478,22.792a13.559,13.559,0,0,0,6.3,1.641V724.408A13.555,13.555,0,0,1,1136.785,722.767Z" transform="translate(-1094.44 -696.65)" fill="url(#linear-gradient-46)"/>
        </g>
      </g>
      <g id="Group_646" data-name="Group 646" transform="translate(0 0)">
        <ellipse id="Ellipse_134" data-name="Ellipse 134" cx="22.564" cy="39.081" rx="22.564" ry="39.081" transform="translate(0 22.564) rotate(-30)" fill="#1951de"/>
        <ellipse id="Ellipse_135" data-name="Ellipse 135" cx="20.314" cy="35.185" rx="20.314" ry="35.185" transform="matrix(0.866, -0.5, 0.5, 0.866, 3.897, 24.814)" fill="#1951de"/>
        <g id="Group_644" data-name="Group 644" transform="translate(19.613 1.15)">
          <path id="Path_5061" data-name="Path 5061" d="M1148.738,625.113c-7.667-4.427-14.6-4.824-19.611-1.891l-14.224,8.212h0c5-2.843,11.873-2.411,19.468,1.973,15.263,8.812,27.635,30.241,27.635,47.864,0,8.77-3.066,14.942-8.026,17.847h0l14.225-8.213c5.042-2.869,8.166-9.075,8.166-17.928C1176.372,655.354,1164,633.924,1148.738,625.113Z" transform="translate(-1114.903 -621.34)" fill="#2764ff"/>
        </g>
        <g id="Group_645" data-name="Group 645" transform="translate(23.117 24.498)">
          <path id="Path_5062" data-name="Path 5062" d="M1128.85,675.876a13.619,13.619,0,0,1,3.677.737c.134.044.254.086.364.126a17.652,17.652,0,0,1,2.321,1.014V670.8l-7.453-4.3A47.926,47.926,0,0,0,1128.85,675.876Z" transform="translate(-1119.876 -649.844)" fill="#fff"/>
          <path id="Path_5063" data-name="Path 5063" d="M1145.082,662.5c.151,0,.3,0,.45-.009.1,0,.2-.01.311-.019a8.493,8.493,0,0,0,2.531-.584,35.788,35.788,0,0,0-6.563-8.1,30.981,30.981,0,0,1,2.116,4.8C1144.365,659.845,1144.751,661.155,1145.082,662.5Z" transform="translate(-1121.48 -648.393)" fill="#fff"/>
          <path id="Path_5064" data-name="Path 5064" d="M1134.045,649.024c-1.374.023-2.641.951-3.684,2.743a13.1,13.1,0,0,0-.968,2.112,32.149,32.149,0,0,0,3.524,3.422c.111.092.224.184.346.281a24.79,24.79,0,0,0,2.136,1.544v-9.447c-.108-.06-.082-.045-.122-.066C1134.865,649.4,1134.452,649.2,1134.045,649.024Z" transform="translate(-1120.062 -647.849)" fill="#fff"/>
          <path id="Path_5065" data-name="Path 5065" d="M1132.916,679.454a12.466,12.466,0,0,0-3.524-.647c.284,1.109.606,2.191.968,3.229a22.132,22.132,0,0,0,3.684,7c.407.294.82.573,1.229.832.041.026.017.013.125.077v-9.447a17.117,17.117,0,0,0-2.136-.924C1133.141,679.529,1133.027,679.489,1132.916,679.454Z" transform="translate(-1120.062 -651.25)" fill="#fff"/>
          <path id="Path_5066" data-name="Path 5066" d="M1132.525,659.266a34.054,34.054,0,0,1-3.675-3.534,31.241,31.241,0,0,0-1.092,8.164l7.454,4.3v-6.972a25.371,25.371,0,0,1-2.322-1.667C1132.781,659.474,1132.66,659.377,1132.525,659.266Z" transform="translate(-1119.875 -648.615)" fill="#fff"/>
          <path id="Path_5067" data-name="Path 5067" d="M1126.932,653.922c-.2-.239-.4-.483-.594-.728-.1-.129-.209-.264-.322-.409a42.336,42.336,0,0,1-2.616-3.794c-2.8,1.688-4.4,5.044-4.541,9.584l6.906,3.988A32.146,32.146,0,0,1,1126.932,653.922Z" transform="translate(-1118.859 -647.845)" fill="#fff"/>
          <path id="Path_5068" data-name="Path 5068" d="M1127.985,678.823c-.137.008-.273.018-.409.033l-.306.037a8.27,8.27,0,0,0-2.351.69,35.575,35.575,0,0,0,6.23,7.519,31.063,31.063,0,0,1-2.118-4.805C1128.642,681.179,1128.292,680.016,1127.985,678.823Z" transform="translate(-1119.551 -651.252)" fill="#fff"/>
          <path id="Path_5069" data-name="Path 5069" d="M1126.34,675.344c.2-.02.392-.047.593-.055a49.549,49.549,0,0,1-1.166-9.94l-6.9-3.986a33,33,0,0,0,4.522,14.781,8.785,8.785,0,0,1,2.634-.756C1126.127,675.373,1126.236,675.353,1126.34,675.344Z" transform="translate(-1118.859 -649.258)" fill="#fff"/>
          <path id="Path_5070" data-name="Path 5070" d="M1127.578,652.172q.2.255.409.5a13.949,13.949,0,0,1,1.047-2.264,6.9,6.9,0,0,1,2.114-2.36,9.44,9.44,0,0,0-6.21.351,39.425,39.425,0,0,0,2.335,3.378Q1127.424,651.978,1127.578,652.172Z" transform="translate(-1119.553 -647.697)" fill="#fff"/>
          <path id="Path_5071" data-name="Path 5071" d="M1145.893,685.946c.207.235.414.5.617.746.119.141.227.271.329.4a41.047,41.047,0,0,1,2.838,3.918c2.491-1.69,4.039-4.821,4.195-9.352l-6.9-3.987A32.57,32.57,0,0,1,1145.893,685.946Z" transform="translate(-1121.946 -651.12)" fill="#fff"/>
          <path id="Path_5072" data-name="Path 5072" d="M1140.092,661.234a13.447,13.447,0,0,0,3.591.855c-.307-1.243-.662-2.451-1.064-3.608a22.136,22.136,0,0,0-3.694-7c-.408-.294-.831-.58-1.24-.838-.048-.031-.168-.1-.168-.1v9.478a19.4,19.4,0,0,0,2.208,1.071C1139.849,661.137,1139.984,661.194,1140.092,661.234Z" transform="translate(-1120.989 -648.022)" fill="#fff"/>
          <path id="Path_5073" data-name="Path 5073" d="M1145.533,688.821q-.224-.268-.451-.53a14.239,14.239,0,0,1-1.155,2.572,6.892,6.892,0,0,1-2.116,2.361,9.3,9.3,0,0,0,6.581-.492,38.809,38.809,0,0,0-2.547-3.534C1145.73,689.06,1145.629,688.936,1145.533,688.821Z" transform="translate(-1121.48 -652.333)" fill="#fff"/>
          <path id="Path_5074" data-name="Path 5074" d="M1146.838,665.207c-.1.008-.211.014-.328.019-.2.008-.411.01-.618.007a50.475,50.475,0,0,1,1.076,9.565l6.906,3.988a32.744,32.744,0,0,0-4.214-14.238A9.056,9.056,0,0,1,1146.838,665.207Z" transform="translate(-1121.946 -649.622)" fill="#fff"/>
          <path id="Path_5075" data-name="Path 5075" d="M1144.017,664.969a14.592,14.592,0,0,1-3.766-.927c-.1-.039-.232-.092-.375-.15a22.006,22.006,0,0,1-2.361-1.15v6.944l7.518,4.341A47.835,47.835,0,0,0,1144.017,664.969Z" transform="translate(-1120.989 -649.416)" fill="#fff"/>
          <path id="Path_5076" data-name="Path 5076" d="M1140.266,680.909a32.565,32.565,0,0,1,3.756,3.4,31.647,31.647,0,0,0,1.012-7.84l-7.518-4.34v6.922a27.411,27.411,0,0,1,2.361,1.569C1140.019,680.731,1140.158,680.826,1140.266,680.909Z" transform="translate(-1120.989 -650.488)" fill="#fff"/>
          <path id="Path_5077" data-name="Path 5077" d="M1143.678,686.5a30.946,30.946,0,0,0-3.595-3.293c-.112-.088-.235-.18-.357-.271a24.766,24.766,0,0,0-2.21-1.48v9.479s.119.065.166.089c.412.215.833.417,1.241.594,1.374-.021,2.651-.945,3.694-2.736A13.567,13.567,0,0,0,1143.678,686.5Z" transform="translate(-1120.989 -651.552)" fill="#fff"/>
        </g>
      </g>
    </g>
    <g id="Group_660" data-name="Group 660" transform="translate(1437.629 532.465)">
      <g id="Group_651" data-name="Group 651" transform="translate(4.901 54.279)">
        <g id="Group_650" data-name="Group 650">
          <g id="Group_649" data-name="Group 649" transform="translate(0 17.255)">
            <g id="Group_648" data-name="Group 648">
              <path id="Path_5078" data-name="Path 5078" d="M1488.651,650.845c-.351.154-.486.583-.518,1.183-.009.173,1.782-1.029,1.717-.417-.019.177-1.306,8.839,1.456,11.71a.821.821,0,0,0,1.006.094l.755-.427c.879-.436,1.462-2.437,2.25-5.421.869-3.288,1.4-5.369-2.225-7.5-1.035-.61-1.632-.753-1.968-.569Z" transform="translate(-1488.133 -649.418)" fill="#010101"/>
              <path id="Path_5079" data-name="Path 5079" d="M1495.626,657.567c-1.048,3.973-1.734,6.2-3.238,5.317s-1.844-4.162-1.33-8.012c.451-3.37-1.279-6.945,2.342-4.81S1496.5,654.279,1495.626,657.567Z" transform="translate(-1488.442 -649.418)" fill="#46486a"/>
            </g>
          </g>
          <path id="Path_5080" data-name="Path 5080" d="M1519.128,629.939l-7.433,2.72-3.019,3.429a31.882,31.882,0,0,0-9.559,6.67s-1.6,2.34-6.89,5.043c0,0-.011,3.7,3.3,4.293l21.188-12.2a5.342,5.342,0,0,0,2.647-4.061A23.83,23.83,0,0,0,1519.128,629.939Z" transform="translate(-1488.601 -629.939)" fill="#f79e64"/>
        </g>
      </g>
      <g id="Group_654" data-name="Group 654" transform="translate(18.378 61.379)">
        <g id="Group_653" data-name="Group 653" transform="translate(1.416 25.085)">
          <g id="Group_652" data-name="Group 652">
            <path id="Path_5081" data-name="Path 5081" d="M1504.949,671.533c-.038.381.269.71.775,1.033.145.093-.019-2.058.481-1.7.145.1,7.055,5.484,10.913,4.491a.819.819,0,0,0,.576-.83v-.867c.055-.98-1.4-2.471-3.612-4.625-2.436-2.374-3.989-3.856-7.629-1.754-1.04.6-1.458,1.051-1.462,1.434Z" transform="translate(-1504.946 -666.274)" fill="#301f5f"/>
            <path id="Path_5082" data-name="Path 5082" d="M1514.087,669.035c2.942,2.866,4.548,4.561,3.037,5.434s-4.531-.441-7.63-2.782c-2.713-2.051-6.677-2.3-3.037-4.405S1511.651,666.661,1514.087,669.035Z" transform="translate(-1504.952 -666.274)" fill="#46486a"/>
          </g>
        </g>
        <path id="Path_5083" data-name="Path 5083" d="M1510.941,664.432l-.215-26.477-7.18,2.328-.071,4.824a31.888,31.888,0,0,0,1.106,11.6s1.248,2.549,1,8.481C1505.581,665.191,1508.8,667.018,1510.941,664.432Z" transform="translate(-1503.347 -637.955)" fill="#fab983"/>
      </g>
      <g id="Group_655" data-name="Group 655" transform="translate(30.139 20.174)">
        <path id="Path_5084" data-name="Path 5084" d="M1532.04,622.026h0a2.876,2.876,0,0,1-3.8-1.427l-11.364-25.108a2.877,2.877,0,0,1,1.427-3.8h0a2.877,2.877,0,0,1,3.8,1.427l11.364,25.108A2.877,2.877,0,0,1,1532.04,622.026Z" transform="translate(-1516.624 -591.438)" fill="#f79e64"/>
      </g>
      <g id="Group_657" data-name="Group 657" transform="translate(28.866 23.284)">
        <path id="Path_5085" data-name="Path 5085" d="M1532.982,619.572,1515.187,609.3v-14.35l17.795,10.274Z" transform="translate(-1515.187 -594.948)" fill="url(#linear-gradient-47)"/>
        <g id="Group_656" data-name="Group 656" transform="translate(9.972 7.875)">
          <path id="Path_5086" data-name="Path 5086" d="M1530.329,616.967V606.081l.381.22v10.887Z" transform="translate(-1526.888 -604.094)" fill="#9e98ca"/>
          <path id="Path_5087" data-name="Path 5087" d="M1529.358,613.182V605.52l.381.22V613.4Z" transform="translate(-1526.777 -604.03)" fill="#9e98ca"/>
          <path id="Path_5088" data-name="Path 5088" d="M1528.387,615.006V604.959l.381.22v10.047Z" transform="translate(-1526.667 -603.966)" fill="#9e98ca"/>
          <path id="Path_5089" data-name="Path 5089" d="M1527.416,615.285V604.4l.381.22v10.887Z" transform="translate(-1526.555 -603.902)" fill="#9e98ca"/>
          <path id="Path_5090" data-name="Path 5090" d="M1526.444,607.827v-3.989l.381.22v3.989Z" transform="translate(-1526.444 -603.838)" fill="#9e98ca"/>
        </g>
      </g>
      <path id="Path_5091" data-name="Path 5091" d="M1498.3,629.758v9.777s11.457,3.867,22.227-9.777v-9.463Z" transform="translate(-1484.393 -574.559)" fill="#faad18"/>
      <path id="Path_5092" data-name="Path 5092" d="M1503.433,629.227a.8.8,0,0,0,.367.122c1.92.148,8.824-1.355,15.73-9.139a3.618,3.618,0,0,0,.936-2.238V595.885a3.632,3.632,0,0,0-1.551-3.371l-5.193-3.03a3.628,3.628,0,0,0-3.7.338l-7.083,4.089a11.54,11.54,0,0,0-5.2,9.007v22.217a1.127,1.127,0,0,0,.5,1.063Z" transform="translate(-1484.328 -570.999)" fill="#fafaea"/>
      <path id="Path_5093" data-name="Path 5093" d="M1506.436,595.181a1.806,1.806,0,0,0,1.071,1.519,5.718,5.718,0,0,0,5.178,0,1.8,1.8,0,0,0,1.071-1.518v-4.813a1.8,1.8,0,0,0-1.071-1.519,5.723,5.723,0,0,0-5.178,0,1.805,1.805,0,0,0-1.071,1.519Z" transform="translate(-1485.321 -570.898)" fill="#efa36d"/>
      <g id="Group_658" data-name="Group 658" transform="translate(0 25.715)">
        <path id="Path_5094" data-name="Path 5094" d="M1484.172,627.864h0a2.875,2.875,0,0,1-1.266-3.853l12.486-24.746a2.878,2.878,0,0,1,3.854-1.266h0a2.877,2.877,0,0,1,1.265,3.854L1488.026,626.6A2.875,2.875,0,0,1,1484.172,627.864Z" transform="translate(-1482.6 -597.693)" fill="#fab884"/>
      </g>
      <g id="Group_659" data-name="Group 659" transform="translate(11.684 0)">
        <path id="Path_5095" data-name="Path 5095" d="M1520.061,578.3l3.62,14.05a1.64,1.64,0,0,1-2.218,1.923l-8.331-3.466a1.64,1.64,0,0,1-.979-1.831l2.73-13.821a1.64,1.64,0,0,1,3.007-.537l1.981,3.236A1.646,1.646,0,0,1,1520.061,578.3Z" transform="translate(-1497.655 -569.253)" fill="#934c9c"/>
        <path id="Path_5096" data-name="Path 5096" d="M1506.286,587.919c0,1.2-.844,1.689-1.885,1.088a4.169,4.169,0,0,1-1.886-3.266c0-1.2.844-1.69,1.886-1.089A4.168,4.168,0,0,1,1506.286,587.919Z" transform="translate(-1496.558 -570.459)" fill="#fab884"/>
        <circle id="Ellipse_136" data-name="Ellipse 136" cx="10.083" cy="10.083" r="10.083" transform="translate(2.963 1.639)" fill="#fab884"/>
        <path id="Path_5097" data-name="Path 5097" d="M1499.416,581.73s8.521,4.674,12.673-7.481c0,0,2.221,5.133,7.762,4,0,0,0-7.994-8.249-9.545C1511.6,568.7,1497.018,567.248,1499.416,581.73Z" transform="translate(-1496.173 -568.663)" fill="#934c9c"/>
        <path id="Path_5098" data-name="Path 5098" d="M1503.727,583.29l3.62,14.05a1.639,1.639,0,0,1-2.217,1.923L1496.8,595.8a1.638,1.638,0,0,1-.979-1.831l2.729-13.82a1.639,1.639,0,0,1,3.006-.538l1.982,3.236A1.6,1.6,0,0,1,1503.727,583.29Z" transform="translate(-1495.789 -569.823)" fill="#934c9c"/>
      </g>
    </g>
    <g id="Group_667" data-name="Group 667" transform="translate(1370.806 499.246)">
      <g id="Group_661" data-name="Group 661" transform="translate(5.946 85.626)">
        <path id="Path_5099" data-name="Path 5099" d="M1413.878,632.011c-.067,1.176,1.707,2.825,4.408,4.385,3.593,2.074,4.866,4.7,9.306,2.138,1.271-.733,1.8-1.317,1.834-1.826v-2.762c.125-1.284-2.955-2.083-5.538-3.574-3.592-2.075-7.463-3.2-9.307-2.139a1.216,1.216,0,0,0-.7,1.017Z" transform="translate(-1413.876 -627.826)"/>
        <path id="Path_5100" data-name="Path 5100" d="M1418.287,633.607c-3.594-2.074-5.549-4.309-3.7-5.373s5.713.065,9.306,2.139,8.146,2.809,3.7,5.373S1421.879,635.681,1418.287,633.607Z" transform="translate(-1413.876 -627.826)" fill="#301f5f"/>
      </g>
      <g id="Group_662" data-name="Group 662" transform="translate(15.932 78.747)">
        <path id="Path_5101" data-name="Path 5101" d="M1425.152,624.245c-.068,1.176,1.706,2.825,4.407,4.385,3.593,2.075,4.866,4.7,9.307,2.139,1.271-.733,1.8-1.317,1.833-1.826v-2.762c.125-1.284-2.954-2.082-5.538-3.574-3.593-2.074-7.463-3.2-9.307-2.139a1.213,1.213,0,0,0-.7,1.017Z" transform="translate(-1425.149 -620.06)"/>
        <path id="Path_5102" data-name="Path 5102" d="M1429.559,625.841c-3.593-2.075-5.547-4.308-3.7-5.373s5.715.065,9.308,2.139,8.145,2.809,3.7,5.373S1433.152,627.915,1429.559,625.841Z" transform="translate(-1425.149 -620.06)" fill="#301f5f"/>
      </g>
      <g id="Group_663" data-name="Group 663" transform="translate(10.608 0)">
        <path id="Path_5103" data-name="Path 5103" d="M1420.515,531.611h0a2.958,2.958,0,0,1,4.066.927l12.259,19.5a2.959,2.959,0,0,1-.927,4.066h0a2.959,2.959,0,0,1-4.066-.927l-12.258-19.5A2.958,2.958,0,0,1,1420.515,531.611Z" transform="translate(-1419.139 -531.162)" fill="#f8b9b8"/>
        <path id="Path_5104" data-name="Path 5104" d="M1429.765,555.111l3.955,6.291a4.573,4.573,0,0,0,6.287,1.433h0a4.575,4.575,0,0,0,1.433-6.288l-3.955-6.29S1432.528,548.392,1429.765,555.111Z" transform="translate(-1420.353 -533.315)" fill="#283678"/>
      </g>
      <g id="Group_664" data-name="Group 664" transform="translate(12.646 55.242)">
        <path id="Path_5105" data-name="Path 5105" d="M1430.163,628.771a1.926,1.926,0,0,0,.206-.893V597.067c0-1.948-2.009-3.542-4.464-3.542h0c-2.455,0-4.465,1.595-4.465,3.542v33.5a1.122,1.122,0,0,0,.794,1.076C1423.947,632.165,1428.007,632.905,1430.163,628.771Z" transform="translate(-1421.44 -593.525)" fill="#00bdec"/>
      </g>
      <g id="Group_665" data-name="Group 665" transform="translate(21.966 48.119)">
        <path id="Path_5106" data-name="Path 5106" d="M1441.377,620.63a1.935,1.935,0,0,0,.187-.9l-.675-30.8c-.044-1.947-2.086-3.5-4.542-3.443h0c-2.454.054-4.428,1.691-4.386,3.639l.734,33.495a1.124,1.124,0,0,0,.817,1.06C1435.236,624.159,1439.312,624.811,1441.377,620.63Z" transform="translate(-1431.961 -585.485)" fill="#00bdec"/>
      </g>
      <path id="Path_5107" data-name="Path 5107" d="M1422.347,598.461a.821.821,0,0,0,.377.125c1.975.152,9.071-1.394,16.17-9.394a3.715,3.715,0,0,0,.962-2.3V564.185a3.732,3.732,0,0,0-1.594-3.465l-5.339-3.115a3.727,3.727,0,0,0-3.8.348l-7.28,4.2a11.857,11.857,0,0,0-5.346,9.257v22.839a1.158,1.158,0,0,0,.514,1.093Z" transform="translate(-1408.229 -534.138)" fill="#4f58a6"/>
      <path id="Path_5108" data-name="Path 5108" d="M1425.434,563.463a1.855,1.855,0,0,0,1.1,1.562,5.884,5.884,0,0,0,5.323,0,1.852,1.852,0,0,0,1.1-1.562v-4.947a1.851,1.851,0,0,0-1.1-1.562,5.885,5.885,0,0,0-5.323,0,1.855,1.855,0,0,0-1.1,1.562Z" transform="translate(-1409.25 -534.034)" fill="#fab983"/>
      <path id="Path_5109" data-name="Path 5109" d="M1438.71,548.554a10.365,10.365,0,1,1-10.365-10.365A10.364,10.364,0,0,1,1438.71,548.554Z" transform="translate(-1408.398 -531.964)" fill="#f8b9b8"/>
      <g id="Group_666" data-name="Group 666" transform="translate(0 30.402)">
        <path id="Path_5110" data-name="Path 5110" d="M1409.159,598.176h0a2.956,2.956,0,0,1-1.839-3.742l7.8-21.076a2.957,2.957,0,0,1,3.743-1.839h0a2.958,2.958,0,0,1,1.839,3.743l-7.8,21.076A2.958,2.958,0,0,1,1409.159,598.176Z" transform="translate(-1407.163 -566.154)" fill="#f8b9b8"/>
        <path id="Path_5111" data-name="Path 5111" d="M1421.729,578.547l2.4-7.032a4.574,4.574,0,0,0-2.843-5.789h0a4.574,4.574,0,0,0-5.789,2.844l-2.4,7.032S1414.769,580.628,1421.729,578.547Z" transform="translate(-1407.841 -565.482)" fill="#283678"/>
      </g>
      <path id="Path_5112" data-name="Path 5112" d="M1434.183,557.622c-3.269,1.9-5.767.457-6.655-.922-2.237-3.468-2.608-1.154-3.94-2.787-1.747-2.87-1.355-6.782-3.778-8.589-3.476-2.595-2.525-7.761,6.543-10.073,12.183-3.107,16.984,12.245,9.38,21.118A4.81,4.81,0,0,1,1434.183,557.622Z" transform="translate(-1408.394 -531.582)" fill="#f6a71b" fill-rule="evenodd"/>
      <path id="Path_5113" data-name="Path 5113" d="M1425.3,556.234a1.181,1.181,0,0,1-2.161-.579,4.283,4.283,0,0,1,1-3.745,1.181,1.181,0,0,1,2.162.579A4.281,4.281,0,0,1,1425.3,556.234Z" transform="translate(-1408.976 -533.472)" fill="#f8b9b8"/>
    </g>
    <g id="Group_679" data-name="Group 679" transform="translate(1298.31 599.386)">
      <g id="Group_677" data-name="Group 677">
        <g id="Group_675" data-name="Group 675">
          <g id="Group_668" data-name="Group 668" transform="translate(16.746 19.31)">
            <path id="Path_5114" data-name="Path 5114" d="M1363.928,692.151h0a2.622,2.622,0,0,1-3.643-.627l-11.777-16.676a2.622,2.622,0,0,1,.627-3.643h0a2.621,2.621,0,0,1,3.643.627l11.777,16.676A2.622,2.622,0,0,1,1363.928,692.151Z" transform="translate(-1344.661 -666.549)" fill="#f8b9b8"/>
            <path id="Path_5115" data-name="Path 5115" d="M1355.366,673.1l-3.8-5.38a4.054,4.054,0,0,0-5.634-.97h0a4.054,4.054,0,0,0-.971,5.634l3.8,5.38S1353.239,679.177,1355.366,673.1Z" transform="translate(-1344.225 -666.011)" fill="#b9cce9"/>
          </g>
          <g id="Group_669" data-name="Group 669" transform="translate(13.697 40.126)">
            <path id="Path_5116" data-name="Path 5116" d="M1341.706,697.145a1.712,1.712,0,0,0,.595.553l13.755,7.869c1.5.859,3.61.019,4.693-1.87h0c1.084-1.888.744-4.136-.753-5l-15.825-9.056a.993.993,0,0,0-1.178.135C1341.84,690.867,1339.479,693.663,1341.706,697.145Z" transform="translate(-1340.784 -689.511)" fill="#4f58a6"/>
          </g>
          <g id="Group_670" data-name="Group 670" transform="translate(4.589 44.791)">
            <path id="Path_5117" data-name="Path 5117" d="M1331.424,702.411a1.709,1.709,0,0,0,.6.553l13.755,7.869c1.5.86,3.61.018,4.693-1.87h0c1.084-1.888.744-4.136-.753-5l-15.824-9.056a.993.993,0,0,0-1.178.135C1331.557,696.133,1329.2,698.929,1331.424,702.411Z" transform="translate(-1330.501 -694.777)" fill="#4f58a6"/>
          </g>
          <g id="Group_672" data-name="Group 672" transform="translate(26.624 48.818)">
            <g id="Group_671" data-name="Group 671" transform="translate(0.399 21.596)">
              <path id="Path_5118" data-name="Path 5118" d="M1355.831,729.389c-.115,1.14,2.617,1.849,4.909,3.172,3.185,1.839,6.616,2.839,8.25,1.9a1.078,1.078,0,0,0,.623-.9v-1.87c.058-1.059-1.516-2.672-3.906-5-2.635-2.567-4.314-4.17-8.251-1.9-1.125.65-1.577,1.136-1.582,1.551Z" transform="translate(-1355.827 -723.703)" fill="#010101"/>
              <path id="Path_5119" data-name="Path 5119" d="M1365.713,726.688c3.182,3.1,4.918,4.932,3.284,5.876s-4.9-.477-8.251-3.009c-2.935-2.217-7.22-2.491-3.284-4.764S1363.078,724.121,1365.713,726.688Z" transform="translate(-1355.833 -723.703)" fill="#151535"/>
            </g>
            <path id="Path_5120" data-name="Path 5120" d="M1363.109,721.654a1.712,1.712,0,0,0,.183-.792v-18.4c0-1.727-1.781-3.14-3.958-3.14h0c-2.176,0-3.957,1.413-3.957,3.14v20.786a.994.994,0,0,0,.7.955C1357.6,724.662,1361.2,725.319,1363.109,721.654Z" transform="translate(-1355.377 -699.323)" fill="#4f58a6"/>
          </g>
          <path id="Path_5121" data-name="Path 5121" d="M1332.419,700.5a.72.72,0,0,0,.333.111c1.751.136,8.042-1.235,14.334-8.328a3.289,3.289,0,0,0,.854-2.04V670.112a3.31,3.31,0,0,0-1.414-3.072l-4.733-2.761a3.3,3.3,0,0,0-3.372.309l-6.454,3.726a10.513,10.513,0,0,0-4.739,8.208v20.245a1.028,1.028,0,0,0,.456.969Z" transform="translate(-1325.539 -646.465)" fill="#fafdff"/>
          <g id="Group_674" data-name="Group 674" transform="translate(17.192 52.987)">
            <g id="Group_673" data-name="Group 673" transform="translate(0.4 21.596)">
              <path id="Path_5122" data-name="Path 5122" d="M1345.184,734.1c-.115,1.14,2.617,1.849,4.909,3.171,3.185,1.839,6.616,2.84,8.25,1.9a1.077,1.077,0,0,0,.623-.9V736.4c.057-1.059-1.517-2.672-3.906-5-2.635-2.567-4.314-4.17-8.25-1.9-1.125.65-1.577,1.136-1.582,1.551Z" transform="translate(-1345.18 -728.41)" fill="#010101"/>
              <path id="Path_5123" data-name="Path 5123" d="M1355.065,731.4c3.181,3.1,4.918,4.932,3.284,5.876s-4.9-.477-8.25-3.01c-2.935-2.216-7.22-2.49-3.284-4.763S1352.431,728.828,1355.065,731.4Z" transform="translate(-1345.186 -728.41)" fill="#151535"/>
            </g>
            <path id="Path_5124" data-name="Path 5124" d="M1352.461,726.361a1.7,1.7,0,0,0,.183-.792v-18.4c0-1.727-1.78-3.14-3.958-3.14h0c-2.176,0-3.958,1.413-3.958,3.14v20.785a1,1,0,0,0,.7.955C1346.951,729.37,1350.55,730.026,1352.461,726.361Z" transform="translate(-1344.729 -704.03)" fill="#4f58a6"/>
          </g>
          <path id="Path_5125" data-name="Path 5125" d="M1333.895,669.471a1.645,1.645,0,0,0,.976,1.385,5.218,5.218,0,0,0,4.719,0,1.644,1.644,0,0,0,.976-1.385v-4.386a1.645,1.645,0,0,0-.976-1.385,5.218,5.218,0,0,0-4.719,0,1.646,1.646,0,0,0-.976,1.385Z" transform="translate(-1326.299 -646.373)" fill="#fab983"/>
          <path id="Path_5126" data-name="Path 5126" d="M1345.664,656.255a9.188,9.188,0,1,1-9.189-9.188A9.189,9.189,0,0,1,1345.664,656.255Z" transform="translate(-1325.545 -644.538)" fill="#f8b9b8"/>
          <path id="Path_5127" data-name="Path 5127" d="M1331.319,663.13a7.348,7.348,0,0,0,1.895-3.062.854.854,0,0,0,.028-.223v-4.4a4.71,4.71,0,0,1,.672-2.49,2.027,2.027,0,0,1,1.792-1.141s7.374,3.214,10.133-2.788a.809.809,0,0,0-.526-1.128c-.527-.125-1.224-.579-1.994-1.832a.809.809,0,0,0-.874-.377,3.245,3.245,0,0,1-3.307-1.22.787.787,0,0,0-.608-.258c-1.4.027-6.256.262-8.9,2.171-.019.014-.036.027-.055.043-.567.466-9.691,8.242.648,16.749A.813.813,0,0,0,1331.319,663.13Z" transform="translate(-1325.321 -644.212)" fill="#1279be"/>
          <path id="Path_5128" data-name="Path 5128" d="M1333.751,662.853c0,1.1-.769,1.539-1.718.992a3.8,3.8,0,0,1-1.719-2.976c0-1.1.769-1.54,1.719-.992A3.8,3.8,0,0,1,1333.751,662.853Z" transform="translate(-1325.891 -645.974)" fill="#f8b9b8"/>
        </g>
        <g id="Group_676" data-name="Group 676" transform="translate(4.996 31.868)">
          <path id="Path_5129" data-name="Path 5129" d="M1359.9,697.822l-16.378,9.424-12.562-6.849,16.762-9.591Z" transform="translate(-1330.961 -681.401)" fill="#b9bfb5"/>
          <path id="Path_5130" data-name="Path 5130" d="M1361.52,696.61l2.576-16.422-18.181,10.483-.772,15.362Z" transform="translate(-1332.58 -680.188)" fill="#e9edf0"/>
        </g>
      </g>
      <g id="Group_678" data-name="Group 678" transform="translate(0.068 25.624)">
        <path id="Path_5131" data-name="Path 5131" d="M1345.391,699.137h0a2.621,2.621,0,0,1-3.645-.612L1329.9,681.9a2.621,2.621,0,0,1,.612-3.645h0a2.622,2.622,0,0,1,3.645.612L1346,695.492A2.62,2.62,0,0,1,1345.391,699.137Z" transform="translate(-1325.857 -673.668)" fill="#f8b9b8"/>
        <path id="Path_5132" data-name="Path 5132" d="M1336.236,680.853l-3.3-5.7a4.054,4.054,0,0,0-5.524-1.472h0a4.055,4.055,0,0,0-1.473,5.524l3.3,5.7S1333.571,686.717,1336.236,680.853Z" transform="translate(-1325.398 -673.139)" fill="#b9cce9"/>
      </g>
    </g>
    <g id="Group_686" data-name="Group 686" transform="translate(1539.163 548.961)">
      <g id="Group_680" data-name="Group 680" transform="translate(0.176 22.094)">
        <path id="Path_5133" data-name="Path 5133" d="M1611.231,634.648h0a2.774,2.774,0,0,0,3.208-2.236l2.015-11.267a2.772,2.772,0,0,0-2.235-3.208h0a2.773,2.773,0,0,0-3.208,2.235L1609,631.44A2.774,2.774,0,0,0,1611.231,634.648Z" transform="translate(-1598.739 -612.874)" fill="#fab884"/>
        <path id="Path_5134" data-name="Path 5134" d="M1608.921,622.61l1.225-6.86a4.288,4.288,0,0,1,4.963-3.456h0a4.288,4.288,0,0,1,3.456,4.961l-1.226,6.859S1613.686,627.479,1608.921,622.61Z" transform="translate(-1598.736 -612.228)" fill="#ed3a91"/>
        <path id="Path_5135" data-name="Path 5135" d="M1597.549,637.081h0a2.773,2.773,0,0,0,3.467,1.808l9.541-2.782a2.773,2.773,0,0,0,2.581-2.937h0a2.773,2.773,0,0,0-2.937-2.581l-10.845,3.025A2.773,2.773,0,0,0,1597.549,637.081Z" transform="translate(-1597.423 -614.324)" fill="#fab884"/>
      </g>
      <g id="Group_682" data-name="Group 682" transform="translate(15.44 50.474)">
        <g id="Group_681" data-name="Group 681" transform="translate(0 32.273)">
          <path id="Path_5136" data-name="Path 5136" d="M1629.235,686.715c.12,1.206-2.769,1.955-5.193,3.355-3.37,1.945-7,3-8.729,2.006a1.139,1.139,0,0,1-.658-.949v-1.979c-.061-1.119,1.6-2.826,4.133-5.29,2.786-2.715,4.563-4.41,8.727-2.005,1.19.687,1.668,1.2,1.673,1.64Z" transform="translate(-1614.654 -680.7)" fill="#010101"/>
          <path id="Path_5137" data-name="Path 5137" d="M1618.789,683.858c-3.366,3.279-5.2,5.217-3.474,6.216s5.184-.505,8.729-3.183c3.1-2.346,7.637-2.634,3.473-5.039S1621.575,681.143,1618.789,683.858Z" transform="translate(-1614.654 -680.7)" fill="#151535"/>
        </g>
        <path id="Path_5138" data-name="Path 5138" d="M1622.336,677.317a1.814,1.814,0,0,1-.193-.837V647.588c0-1.827,1.884-3.322,4.188-3.322h0c2.3,0,4.186,1.494,4.186,3.322V679a1.052,1.052,0,0,1-.744,1.009C1628.167,680.5,1624.358,681.194,1622.336,677.317Z" transform="translate(-1615.508 -644.266)" fill="#45456e"/>
      </g>
      <g id="Group_684" data-name="Group 684" transform="translate(6.378 43.792)">
        <g id="Group_683" data-name="Group 683" transform="translate(0 32.273)">
          <path id="Path_5139" data-name="Path 5139" d="M1619,679.172c.121,1.206-2.767,1.955-5.192,3.354-3.37,1.945-7,3-8.727,2.005a1.139,1.139,0,0,1-.66-.949V681.6c-.061-1.12,1.6-2.827,4.132-5.291,2.787-2.715,4.563-4.409,8.727-2.005,1.191.687,1.668,1.2,1.674,1.641Z" transform="translate(-1604.424 -673.156)" fill="#010101"/>
          <path id="Path_5140" data-name="Path 5140" d="M1608.559,676.314c-3.366,3.28-5.2,5.218-3.473,6.217s5.183-.505,8.727-3.184c3.1-2.345,7.639-2.634,3.474-5.038S1611.346,673.6,1608.559,676.314Z" transform="translate(-1604.424 -673.156)" fill="#151535"/>
        </g>
        <path id="Path_5141" data-name="Path 5141" d="M1612.107,669.774a1.794,1.794,0,0,1-.193-.838V640.045c0-1.828,1.884-3.322,4.186-3.322h0c2.3,0,4.186,1.495,4.186,3.322v31.416a1.051,1.051,0,0,1-.744,1.01C1617.937,672.957,1614.13,673.651,1612.107,669.774Z" transform="translate(-1605.279 -636.723)" fill="#29294f"/>
      </g>
      <path id="Path_5142" data-name="Path 5142" d="M1627.921,648.894a.763.763,0,0,1-.354.118c-1.852.143-8.506-1.307-15.164-8.809a3.488,3.488,0,0,1-.9-2.158V616.753a3.5,3.5,0,0,1,1.5-3.249l5.005-2.921a3.5,3.5,0,0,1,3.568.326l6.827,3.942a11.121,11.121,0,0,1,5.012,8.682V644.95a1.086,1.086,0,0,1-.483,1.025Z" transform="translate(-1598.854 -589.906)" fill="#ee589f"/>
      <path id="Path_5143" data-name="Path 5143" d="M1626.941,616.076a1.736,1.736,0,0,1-1.032,1.464,5.519,5.519,0,0,1-4.992,0,1.738,1.738,0,0,1-1.032-1.464v-4.639a1.739,1.739,0,0,1,1.032-1.465,5.52,5.52,0,0,1,4.992,0,1.737,1.737,0,0,1,1.032,1.465Z" transform="translate(-1599.811 -589.808)" fill="#f6a19d"/>
      <circle id="Ellipse_137" data-name="Ellipse 137" cx="9.72" cy="9.72" r="9.72" transform="translate(13.882 4.509)" fill="#f8b9b8"/>
      <path id="Path_5144" data-name="Path 5144" d="M1630.564,590.02c8.305,2.852,4.176,14.984-1.865,19.358-2.954-1.614.638-4.5-3.391-2.492-.8-3.908,1-2.717-.093-7.63-4.223,2.2-12.444-.468-13.721-4.538,1.472-.653,3.013-4.831,6.453-6.363C1622.376,586.382,1628.044,587.253,1630.564,590.02Z" transform="translate(-1598.853 -587.285)" fill="#2e9ad6" fill-rule="evenodd"/>
      <path id="Path_5145" data-name="Path 5145" d="M1627.533,609.074c0,1.159.814,1.629,1.818,1.05a4.014,4.014,0,0,0,1.818-3.148c0-1.159-.812-1.629-1.818-1.05A4.02,4.02,0,0,0,1627.533,609.074Z" transform="translate(-1600.685 -589.386)" fill="#f8b9b8"/>
      <path id="Path_5146" data-name="Path 5146" d="M1627.658,635.942l-15.217,8.786-15.217-8.786v-6.69l15.217-8.786,15.217,8.786Z" transform="translate(-1597.223 -591.074)" fill="#b9bfb5" fill-rule="evenodd"/>
      <path id="Path_5147" data-name="Path 5147" d="M1612.44,620.466l15.217,8.786-15.217,8.609-15.217-8.609Z" transform="translate(-1597.223 -591.074)" fill="#e9edf0" fill-rule="evenodd"/>
      <g id="Group_685" data-name="Group 685" transform="translate(14.502 28.759)">
        <path id="Path_5148" data-name="Path 5148" d="M1630.754,642.273h0a2.773,2.773,0,0,0,3.128-2.346l1.619-11.33a2.772,2.772,0,0,0-2.346-3.128h0a2.772,2.772,0,0,0-3.128,2.346l-1.619,11.33A2.772,2.772,0,0,0,1630.754,642.273Z" transform="translate(-1615.283 -620.401)" fill="#fab884"/>
        <path id="Path_5149" data-name="Path 5149" d="M1628.007,630.32l.985-6.9a4.288,4.288,0,0,1,4.838-3.628h0a4.29,4.29,0,0,1,3.629,4.839l-.986,6.9S1632.939,635.02,1628.007,630.32Z" transform="translate(-1615.241 -619.751)" fill="#ed3a91"/>
        <path id="Path_5150" data-name="Path 5150" d="M1613.753,646.288h0a2.772,2.772,0,0,0,3.528,1.686l12.428-4.256a2.773,2.773,0,0,0,2.477-3.025h0a2.773,2.773,0,0,0-3.025-2.477l-13.722,4.544A2.773,2.773,0,0,0,1613.753,646.288Z" transform="translate(-1613.595 -621.858)" fill="#fab884"/>
      </g>
    </g>
  </g>
</svg>
