<svg xmlns="http://www.w3.org/2000/svg" xmlns:xlink="http://www.w3.org/1999/xlink" width="330" height="239" viewBox="0 0 330 239">
  <defs>
    <radialGradient id="radial-gradient" cx="0.5" cy="0.5" r="0.69" gradientTransform="translate(0.138 0.138) scale(0.724 0.724)" gradientUnits="objectBoundingBox">
      <stop offset="0" stop-color="#0094d6"/>
      <stop offset="1" stop-color="#002c9a"/>
    </radialGradient>
  </defs>
  <g id="Group_6597" data-name="Group 6597" transform="translate(-395 -1653)">
    <rect id="Rectangle_451" data-name="Rectangle 451" width="330" height="239" rx="8" transform="translate(395 1653)" fill="url(#radial-gradient)"/>
    <g id="Group_1784" data-name="Group 1784" transform="translate(373.725 1542.597)">
      <path id="Path_5173" data-name="Path 5173" d="M314.021,406.506c0-6.053-47.432-10.959-105.942-10.959s-105.942,4.906-105.942,10.959c0,3.759,18.3,7.076,46.178,9.05-2.7.814-4.167,1.687-4.167,2.595,0,4.414,34.586,7.991,77.249,7.991s77.249-3.578,77.249-7.991c0-1.577-4.421-3.048-12.048-4.287C303.638,411.918,314.021,409.338,314.021,406.506Z" transform="translate(-25.507 -97.992)" fill="#240852"/>
      <g id="Group_1763" data-name="Group 1763" transform="translate(90.056 139.874)">
        <rect id="Rectangle_514" data-name="Rectangle 514" width="84.308" height="24.111" transform="translate(65.431 138.776)" fill="#003a47"/>
        <path id="Rectangle_515" data-name="Rectangle 515" d="M5.35,0H176.242a5.35,5.35,0,0,1,5.35,5.35v0a5.351,5.351,0,0,1-5.351,5.351H5.35A5.35,5.35,0,0,1,0,5.351v0A5.35,5.35,0,0,1,5.35,0Z" transform="translate(11.952 157.036)" fill="#00556d"/>
        <g id="Group_1762" data-name="Group 1762">
          <path id="Path_5302" data-name="Path 5302" d="M26.343,0H179.751a26.342,26.342,0,0,1,26.342,26.342v93.583a26.342,26.342,0,0,1-26.342,26.342H26.343A26.343,26.343,0,0,1,0,119.925V26.343A26.343,26.343,0,0,1,26.343,0Z" fill="#07748e"/>
          <path id="Path_5303" data-name="Path 5303" d="M25.341,0H154.178c14,0,26.31.55,25.341,25.341v76.725a25.341,25.341,0,0,1-25.341,25.341H25.341A25.341,25.341,0,0,1,0,102.066V25.341A25.341,25.341,0,0,1,25.341,0Z" transform="translate(16.055 7.474)" fill="#fff"/>
          <path id="Path_5214" data-name="Path 5214" d="M134.7,206.812a4.29,4.29,0,1,1-4.29-4.291A4.29,4.29,0,0,1,134.7,206.812Z" transform="translate(-122.375 -183.035)" fill="#003a47"/>
          <path id="Path_5215" data-name="Path 5215" d="M134.891,230.591A4.291,4.291,0,1,1,130.6,226.3,4.29,4.29,0,0,1,134.891,230.591Z" transform="translate(-122.43 -189.789)" fill="#003a47"/>
          <path id="Path_5216" data-name="Path 5216" d="M135.664,346.971a4.291,4.291,0,1,1-4.291-4.291A4.291,4.291,0,0,1,135.664,346.971Z" transform="translate(-122.649 -222.848)" fill="#003a47"/>
          <path id="Path_5217" data-name="Path 5217" d="M134.891,321.839a4.291,4.291,0,1,1-4.291-4.291A4.29,4.29,0,0,1,134.891,321.839Z" transform="translate(-122.43 -215.709)" fill="#003a47"/>
          <path id="Rectangle_518" data-name="Rectangle 518" d="M4.014,0h0A4.014,4.014,0,0,1,8.027,4.014V40a4.013,4.013,0,0,1-4.013,4.013h0A4.014,4.014,0,0,1,0,40V4.014A4.014,4.014,0,0,1,4.014,0Z" transform="translate(4.296 50.767)" fill="#003a47"/>
          <g id="Group_1758" data-name="Group 1758" transform="translate(16.055 7.474)">
            <path id="Path_5218" data-name="Path 5218" d="M359.655,219.825v57.537H331.914v45.469h27.135a17.357,17.357,0,0,0,17.358-17.358V219.825Z" transform="translate(-196.888 -195.424)" fill="#35efea"/>
            <path id="Path_5219" data-name="Path 5219" d="M155.389,204.664H322.833V203.1a17.358,17.358,0,0,0-17.358-17.358h-144.8A17.358,17.358,0,0,0,143.315,203.1v92.691a17.364,17.364,0,0,0,12.074,16.537Z" transform="translate(-143.315 -185.742)" fill="#35efea"/>
          </g>
          <rect id="Rectangle_519" data-name="Rectangle 519" width="11.131" height="11.131" transform="translate(181.39 36.499)" fill="#0fbcbc"/>
          <rect id="Rectangle_520" data-name="Rectangle 520" width="156.173" height="6.507" transform="translate(28.471 18.29)" fill="#0fbcbc"/>
          <rect id="Rectangle_521" data-name="Rectangle 521" width="9.589" height="3.767" transform="translate(16.998 27.765)" fill="#00556d"/>
          <rect id="Rectangle_522" data-name="Rectangle 522" width="9.589" height="3.767" transform="translate(17.169 34.786)" fill="#0fbcbc"/>
          <rect id="Rectangle_523" data-name="Rectangle 523" width="9.59" height="3.767" transform="translate(17.283 51.111)" fill="#0fbcbc"/>
          <rect id="Rectangle_524" data-name="Rectangle 524" width="9.589" height="3.768" transform="translate(17.169 58.589)" fill="#0fbcbc"/>
          <rect id="Rectangle_525" data-name="Rectangle 525" width="9.59" height="3.767" transform="translate(17.512 67.151)" fill="#0fbcbc"/>
          <rect id="Rectangle_526" data-name="Rectangle 526" width="9.589" height="3.767" transform="translate(16.998 76.227)" fill="#0fbcbc"/>
          <rect id="Rectangle_527" data-name="Rectangle 527" width="9.589" height="3.767" transform="translate(17.169 42.549)" fill="#0fbcbc"/>
          <rect id="Rectangle_528" data-name="Rectangle 528" width="156.173" height="6.507" transform="translate(28.357 10.184)" fill="#0fbcbc"/>
          <rect id="Rectangle_529" data-name="Rectangle 529" width="8.733" height="8.733" transform="translate(17.854 85.131)" fill="#fff"/>
          <g id="Group_1759" data-name="Group 1759" transform="translate(154.36 99.443)">
            <rect id="Rectangle_530" data-name="Rectangle 530" width="28.626" height="9.542" transform="matrix(1, 0.009, -0.009, 1, 0.087, 0)" fill="#fff"/>
            <rect id="Rectangle_531" data-name="Rectangle 531" width="7.267" height="7.267" transform="matrix(1, 0.009, -0.009, 1, 3.011, 1.293)" fill="#fff200"/>
            <rect id="Rectangle_532" data-name="Rectangle 532" width="7.266" height="7.267" transform="translate(18.572 1.435) rotate(0.524)" fill="#00323d"/>
            <rect id="Rectangle_533" data-name="Rectangle 533" width="7.267" height="7.267" transform="matrix(1, 0.009, -0.009, 1, 10.773, 1.364)" fill="#ff5d31"/>
          </g>
          <g id="Group_1760" data-name="Group 1760" transform="translate(154.132 110.517)">
            <rect id="Rectangle_534" data-name="Rectangle 534" width="28.626" height="9.542" transform="translate(0.087 0) rotate(0.523)" fill="#fff"/>
            <rect id="Rectangle_535" data-name="Rectangle 535" width="7.267" height="7.267" transform="translate(3.011 1.293) rotate(0.524)" fill="#fff200"/>
            <rect id="Rectangle_536" data-name="Rectangle 536" width="7.267" height="7.266" transform="translate(18.571 1.435) rotate(0.524)" fill="#00323d"/>
            <rect id="Rectangle_537" data-name="Rectangle 537" width="7.267" height="7.266" transform="matrix(1, 0.009, -0.009, 1, 10.773, 1.364)" fill="#ff5d31"/>
          </g>
          <g id="Group_1761" data-name="Group 1761" transform="translate(153.675 121.363)">
            <rect id="Rectangle_538" data-name="Rectangle 538" width="28.626" height="9.542" transform="translate(0.087 0) rotate(0.523)" fill="#fff"/>
            <rect id="Rectangle_539" data-name="Rectangle 539" width="7.266" height="7.267" transform="translate(3.012 1.293) rotate(0.524)" fill="#fff200"/>
            <rect id="Rectangle_540" data-name="Rectangle 540" width="7.267" height="7.266" transform="translate(18.572 1.435) rotate(0.524)" fill="#00323d"/>
            <rect id="Rectangle_541" data-name="Rectangle 541" width="7.267" height="7.266" transform="translate(10.773 1.364) rotate(0.523)" fill="#ff5d31"/>
          </g>
          <path id="Path_5220" data-name="Path 5220" d="M369.441,309.27h-30.6a2.625,2.625,0,0,1-2.625-2.626h0a2.624,2.624,0,0,1,2.625-2.625h30.6a2.625,2.625,0,0,1,2.625,2.625h0A2.625,2.625,0,0,1,369.441,309.27Z" transform="translate(-182.057 -211.866)" fill="#0fbcbc"/>
          <rect id="Rectangle_542" data-name="Rectangle 542" width="14.612" height="3.197" transform="translate(180.192 65.21)" fill="#003a47"/>
          <rect id="Rectangle_543" data-name="Rectangle 543" width="10.86" height="18.05" transform="translate(181.79 71.603)" fill="#fff"/>
          <rect id="Rectangle_544" data-name="Rectangle 544" width="11.644" height="5.48" transform="translate(181.562 57.447)" fill="#fff"/>
        </g>
      </g>
      <path id="Path_5225" data-name="Path 5225" d="M219.916,222.935s-.288,2.271-.55,6.254c-.132,1.99-.242,4.411-.243,7.177a46.562,46.562,0,0,0,.794,9.155,9.874,9.874,0,0,0,.294,1.213l.181.6.091.3.045.152.011.037c.007.022-.024-.062,0-.009l.033.077.265.617.284.493a4.894,4.894,0,0,0,.337.5,4.137,4.137,0,0,0,.384.494,17.89,17.89,0,0,0,4.15,3.447c3.219,2.059,7,3.719,10.8,5.822a30.383,30.383,0,0,1,5.64,3.79,10.322,10.322,0,0,1,2.352,2.97l.2.474.1.24.047.12s.067.231.046.157l.012.051.1.407c.016.072.034.126.049.213l.035.316c.02.211.034.424.043.635l-.056.571a5.47,5.47,0,0,1-.266,1.1,8.582,8.582,0,0,1-2.39,3.2,26.717,26.717,0,0,1-2.862,2.158c-1.934,1.3-3.877,2.461-5.678,3.75a21.588,21.588,0,0,0-4.747,4.3,9.338,9.338,0,0,0-2.031,5.473,4.317,4.317,0,0,0,.056.563l.069.276.094.259a2.522,2.522,0,0,0,.649.889,5.977,5.977,0,0,0,2.413,1.19,25.314,25.314,0,0,0,6.145.674c4.195.024,8.325-.293,12.263-.46,1.971-.084,3.9-.155,5.779-.106a24.766,24.766,0,0,1,5.492.643,7.567,7.567,0,0,1,2.542,1.13l.285.225s.093.083.068.062l.027.027.054.054.107.108a3.979,3.979,0,0,1,.433.471,5.668,5.668,0,0,1,.423.6c.1.209.217.414.3.627a4.327,4.327,0,0,1,.135,2.611,7.871,7.871,0,0,1-.913,2.133,16.159,16.159,0,0,1-2.553,3.089,32.662,32.662,0,0,1-2.535,2.185,43.493,43.493,0,0,1-3.828,2.655c-.913.566-1.413.841-1.413.841s.474-.32,1.33-.964,2.086-1.618,3.56-2.949a31.831,31.831,0,0,0,2.314-2.319,16.259,16.259,0,0,0,2.214-3.056,4.3,4.3,0,0,0,.466-3.723c-.07-.143-.162-.277-.237-.418s-.194-.238-.283-.362a3.134,3.134,0,0,0-.4-.4l-.112-.1-.057-.052-.028-.025c-.043-.04.027.024.011.011l-.2-.145a6.145,6.145,0,0,0-2.076-.786,23.317,23.317,0,0,0-5.127-.339c-1.813.039-3.7.158-5.647.315-3.9.3-8.019.785-12.393.83a27.586,27.586,0,0,1-6.8-.621,8.482,8.482,0,0,1-3.505-1.7,5.167,5.167,0,0,1-1.314-1.793c-.068-.175-.137-.351-.2-.528l-.139-.538a6.579,6.579,0,0,1-.112-1.111,12,12,0,0,1,2.529-7.068,24.01,24.01,0,0,1,5.312-4.906c1.924-1.355,3.913-2.527,5.766-3.752a24.07,24.07,0,0,0,2.587-1.917,6.126,6.126,0,0,0,1.685-2.127,2.86,2.86,0,0,0,.127-.533l.035-.265a1.134,1.134,0,0,1-.014-.2l.006-.1c-.006-.051-.029-.131-.043-.2l-.1-.408-.2-.517a7.812,7.812,0,0,0-1.723-2.235,28.224,28.224,0,0,0-5.1-3.562c-3.656-2.1-7.415-3.93-10.747-6.219a25.549,25.549,0,0,1-2.39-1.839,13.817,13.817,0,0,1-2.065-2.175,5.509,5.509,0,0,1-.432-.616,6.272,6.272,0,0,1-.394-.655c-.12-.235-.246-.478-.349-.7l-.234-.629-.029-.078c.01.029-.031-.083-.03-.087l-.011-.042-.043-.17-.085-.338-.168-.672a11.14,11.14,0,0,1-.254-1.322,43.541,43.541,0,0,1-.3-9.475c.16-2.8.467-5.219.747-7.2s.569-3.532.765-4.587C219.8,223.5,219.916,222.935,219.916,222.935Z" transform="translate(-58.407 -48.959)" fill="#ff5d31"/>
      <g id="Group_1775" data-name="Group 1775" transform="translate(124.943 197.782)">
        <g id="Group_1767" data-name="Group 1767" transform="translate(12.286 13.107)">
          <path id="Path_5226" data-name="Path 5226" d="M199.74,280.976a6.48,6.48,0,1,0-10.278,5.249V287.7a2.807,2.807,0,0,0,2.807,2.807H194.5A2.807,2.807,0,0,0,197.3,287.7v-1.667A6.465,6.465,0,0,0,199.74,280.976Z" transform="translate(-186.779 -274.495)" fill="#fff200"/>
          <path id="Path_5227" data-name="Path 5227" d="M198.074,298.947c0,2.559-6.625,2.559-6.625,0V295.48h6.625Z" transform="translate(-188.106 -280.456)" fill="#bcbec0"/>
          <g id="Group_1766" data-name="Group 1766" transform="translate(3.343 15.561)">
            <rect id="Rectangle_545" data-name="Rectangle 545" width="6.625" height="0.743" fill="#808285"/>
            <path id="Path_5228" data-name="Path 5228" d="M198.074,300v-.825h-6.625V300a1.37,1.37,0,0,0,.044.33h6.537A1.369,1.369,0,0,0,198.074,300Z" transform="translate(-191.449 -297.066)" fill="#808285"/>
          </g>
        </g>
        <g id="Group_1768" data-name="Group 1768" transform="translate(0 9.837)">
          <rect id="Rectangle_546" data-name="Rectangle 546" width="1.219" height="11.593" transform="translate(0 1.125) rotate(-67.328)" fill="#fff200"/>
        </g>
        <g id="Group_1769" data-name="Group 1769" transform="translate(14.259 0)">
          <rect id="Rectangle_547" data-name="Rectangle 547" width="1.218" height="11.42" transform="translate(0 0.217) rotate(-10.244)" fill="#fff200"/>
        </g>
        <g id="Group_1770" data-name="Group 1770" transform="translate(22.71 1.866)">
          <rect id="Rectangle_548" data-name="Rectangle 548" width="11.505" height="1.219" transform="matrix(0.447, -0.895, 0.895, 0.447, 0, 10.292)" fill="#fff200"/>
        </g>
        <g id="Group_1771" data-name="Group 1771" transform="translate(26.581 11.864)">
          <path id="Path_5229" data-name="Path 5229" d="M207.131,277.694l-.385-1.156c.308-.1,5.9-2.317,9.581-3.779l.45,1.132C215.833,274.266,207.541,277.557,207.131,277.694Z" transform="translate(-206.746 -272.759)" fill="#fff200"/>
        </g>
        <g id="Group_1772" data-name="Group 1772" transform="translate(0.488 19.587)">
          <path id="Path_5230" data-name="Path 5230" d="M170.335,285.257l-.035-1.218c4.283-.122,9.127-.336,9.672-.493a.411.411,0,0,0-.108.054l.676,1.015C180.375,284.724,179.988,284.982,170.335,285.257Z" transform="translate(-170.3 -283.546)" fill="#fff200"/>
        </g>
        <g id="Group_1773" data-name="Group 1773" transform="translate(7.426 24.014)">
          <rect id="Rectangle_549" data-name="Rectangle 549" width="5.478" height="1.219" transform="matrix(0.766, -0.642, 0.642, 0.766, 0, 3.519)" fill="#fff200"/>
        </g>
        <g id="Group_1774" data-name="Group 1774" transform="translate(26.751 21.646)">
          <rect id="Rectangle_550" data-name="Rectangle 550" width="1.219" height="7.575" transform="translate(0 1.067) rotate(-61.147)" fill="#fff200"/>
        </g>
      </g>
      <g id="Group_1781" data-name="Group 1781" transform="translate(161.471 165.894)">
        <path id="Path_5231" data-name="Path 5231" d="M297.036,392.943s-.277,2.7-.9,3.53-9.411.554-9.273,2.215,14.187.485,14.187.485l-.623-6.091-3.114-.069Z" transform="translate(-239.451 -263.146)" fill="#04044c"/>
        <g id="Group_1776" data-name="Group 1776" transform="translate(51.475 129.797)">
          <path id="Path_5232" data-name="Path 5232" d="M300.979,397.984a6.256,6.256,0,0,0,3.28-1.1l-.388-3.8-3.114-.069-.277-.07s-.277,2.7-.9,3.53a1.131,1.131,0,0,1-.6.268A2.681,2.681,0,0,0,300.979,397.984Z" transform="translate(-294.369 -392.943)" fill="#edb49f"/>
          <path id="Path_5233" data-name="Path 5233" d="M292.538,402.185c.488.013,1,.017,1.521.015Z" transform="translate(-292.538 -395.568)" fill="#edb49f"/>
        </g>
        <path id="Path_5234" data-name="Path 5234" d="M317.271,398.743s-.277,2.7-.9,3.53-9.412.553-9.273,2.215,14.186.484,14.186.484l-.623-6.09-3.114-.069Z" transform="translate(-245.199 -264.793)" fill="#04044c"/>
        <g id="Group_1777" data-name="Group 1777" transform="translate(65.961 133.95)">
          <path id="Path_5235" data-name="Path 5235" d="M321.214,403.784a6.268,6.268,0,0,0,3.28-1.1l-.389-3.8-3.114-.069-.276-.069s-.277,2.7-.9,3.53a1.154,1.154,0,0,1-.595.268A2.68,2.68,0,0,0,321.214,403.784Z" transform="translate(-314.604 -398.743)" fill="#edb49f"/>
          <path id="Path_5236" data-name="Path 5236" d="M312.772,407.985c.488.013,1,.017,1.521.015Z" transform="translate(-312.772 -401.368)" fill="#edb49f"/>
        </g>
        <path id="Path_5237" data-name="Path 5237" d="M302.575,246.7,284.811,261.93c-2.338,1.995-6.507-2.892-4.168-4.886l15.648-17.061C299.659,236.832,305.943,243.548,302.575,246.7Z" transform="translate(-237.488 -219.463)" fill="#018b8f"/>
        <g id="Group_1778" data-name="Group 1778" transform="translate(22.563 25.436)">
          <path id="Path_5238" data-name="Path 5238" d="M264.441,253.143l-4.263-2.076a22.9,22.9,0,0,1-1.167-3.578c-.391-1.456-1.675,2.62-1.675,2.62s-2.406-1.62-3.919-.278-1.776,3.731-.184,4.388,4.112,1.666,5.049,1.479l.936-.187,4.106,1.214Z" transform="translate(-252.155 -247.174)" fill="#edb49f"/>
          <path id="Path_5239" data-name="Path 5239" d="M253.417,250.718a2.048,2.048,0,0,1,.744-.417,6.45,6.45,0,0,0-1.15,2.559c-.089,1.428,1.375,1.992,3.356,2.4a4.262,4.262,0,0,0,3.1-.337l4.261,1.4-.4,1.287-4.106-1.214-.936.187c-.938.187-3.456-.823-5.049-1.479S251.9,252.062,253.417,250.718Z" transform="translate(-252.155 -248.062)" opacity="0.76"/>
          <path id="Path_5240" data-name="Path 5240" d="M280.009,261.064,266,253.173l-2.607,5.007,14.305,7.855C280.761,267.461,283.074,262.491,280.009,261.064Z" transform="translate(-255.346 -248.878)" fill="#018b8f"/>
        </g>
        <path id="Path_5241" data-name="Path 5241" d="M304.222,284.974c.059.567-.57,46.605-.57,46.605-.44,4.193,7.273,5,7.714.81,0,0,11.676-41.124,10.143-45.115C322.2,282.061,304.916,279.759,304.222,284.974Z" transform="translate(-244.215 -231.639)" fill="#04044c"/>
        <path id="Path_5242" data-name="Path 5242" d="M299.609,380.85c-.133,1.475,5.387,1.975,5.521.5,0,0,6.171-32.816,6.229-33.227.465-3.288-7.758-4.45-8.223-1.161Z" transform="translate(-243.071 -249.527)" fill="#04044c"/>
        <path id="Path_5243" data-name="Path 5243" d="M309.792,291.209c.138.553,5.952,46.228,5.952,46.228.15,4.213,7.9,3.936,7.751-.277,0,0,5.813-42.352,3.736-46.089C327.19,285.81,309.75,285.948,309.792,291.209Z" transform="translate(-245.964 -233.106)" fill="#0c0c75"/>
        <path id="Path_5244" data-name="Path 5244" d="M318.964,386.951c.074,1.48,5.611,1.2,5.536-.276,0,0,1.522-33.356,1.522-33.772,0-3.322-8.3-3.322-8.3,0Z" transform="translate(-248.216 -251.064)" fill="#0c0c75"/>
        <path id="Path_5245" data-name="Path 5245" d="M301,237.931s-1.292.969-2.262,4.982,5.814,24.775,4.014,28.789a35.321,35.321,0,0,0-2.076,5.26s10.242,3.875,17.162,3.183,8.166-3.6,8.166-3.6-5.259-31.834-8.166-35.986-9.688-4.983-9.688-4.983Z" transform="translate(-242.796 -218.445)" fill="#0fbcbc"/>
        <path id="Path_5246" data-name="Path 5246" d="M304.8,226.243c.277-.092,1.754-.092,1.754-1.476s1.475-5.444,1.2-7.566a3.617,3.617,0,0,0-2.491-2.769s.092-1.753-2.768-2.583-8.028,1.107-9.6,2.03a7.41,7.41,0,0,1-2.953,1.015l2.03,1.476-1.015.369a3.106,3.106,0,0,0,2.4.923c1.661,0,1.384,3.968,2.86,4.429s2.861,4.43,4.8,4.8A6.352,6.352,0,0,0,304.8,226.243Z" transform="translate(-240.326 -211.647)" fill="#ff5d31"/>
        <path id="Path_5247" data-name="Path 5247" d="M307.752,217.2a3.617,3.617,0,0,0-2.491-2.769s.092-1.753-2.768-2.583-8.028,1.107-9.6,2.03a7.41,7.41,0,0,1-2.953,1.015l2.03,1.476-1.015.369a3.106,3.106,0,0,0,2.4.923.892.892,0,0,1,.444.123,2.229,2.229,0,0,0,.165-1.6c-.553-1.038-2.353-1.038-2.353-1.038l.83-.069c.831-.069,7.612-2.906,10.657-1.937s.9,2.63.9,2.63a2.53,2.53,0,0,1,2.423.692c1.176,1.107-.139,5.121-1.108,7.266a8.977,8.977,0,0,1-3.091,3.227,6.832,6.832,0,0,0,2.574-.714c.277-.092,1.754-.092,1.754-1.476S308.029,219.322,307.752,217.2Z" transform="translate(-240.326 -211.647)" opacity="0.36"/>
        <path id="Path_5248" data-name="Path 5248" d="M294.643,217.928s-2.03,9.227.276,10.519a3.883,3.883,0,0,0,3.968.184l1.754,5.536c.393,1.476,7.313-.369,6.92-1.846l-1.015-5.075s-2.953,1.384-4.522.277a4.509,4.509,0,0,1-1.845-2.584s1.845-1.108,2.03-2.122a1.622,1.622,0,0,0-2.4-1.385,4.1,4.1,0,0,0-1.2,1.385,1.657,1.657,0,0,1-.923-2.4C298.611,218.758,297.319,216.451,294.643,217.928Z" transform="translate(-241.427 -213.297)" fill="#edb49f"/>
        <g id="Group_1779" data-name="Group 1779" transform="translate(0 7.893)">
          <path id="Path_5249" data-name="Path 5249" d="M228.393,238.528l6.348-5.83a3.286,3.286,0,0,1,4.742.311l59.79,71.47a3.285,3.285,0,0,1-.3,4.528h0a3.285,3.285,0,0,1-4.537-.088L228.3,243.281A3.286,3.286,0,0,1,228.393,238.528Z" transform="translate(-222.54 -225.274)" fill="#00556d"/>
          <path id="Path_5250" data-name="Path 5250" d="M226.556,239.839l10.194-9.363a.509.509,0,0,0-.133-.838l-15.255-6.919a.51.51,0,0,0-.7.616l5.062,16.282A.509.509,0,0,0,226.556,239.839Z" transform="translate(-220.64 -222.672)" fill="#07748e"/>
          <path id="Path_5251" data-name="Path 5251" d="M223.619,223.742l-2.257-1.024a.51.51,0,0,0-.7.616l.76,2.444C222.07,225.188,222.934,224.382,223.619,223.742Z" transform="translate(-220.64 -222.672)" fill="#003a47"/>
          <rect id="Rectangle_551" data-name="Rectangle 551" width="6.274" height="22.329" transform="translate(29.989 28.798) rotate(137.434)" fill="#003a47"/>
          <path id="Rectangle_552" data-name="Rectangle 552" d="M1.108,0h0A1.106,1.106,0,0,1,2.214,1.106V15.5a1.107,1.107,0,0,1-1.107,1.107h0A1.107,1.107,0,0,1,0,15.5V1.108A1.108,1.108,0,0,1,1.108,0Z" transform="matrix(-0.736, 0.677, -0.677, -0.736, 26.188, 27.652)" fill="#07748e"/>
          <path id="Path_5252" data-name="Path 5252" d="M280.218,296.1l29.244,29.024a3.286,3.286,0,0,0,4.835-4.44l-26.615-31.816C285.28,291.288,282.513,294.015,280.218,296.1Z" transform="translate(-237.563 -241.475)" fill="#07748e"/>
        </g>
        <path id="Path_5253" data-name="Path 5253" d="M301.479,280.477a64.79,64.79,0,0,0,7.74,2.274l3.734-2.55s-7.059.277-8.582-.969.554-4.152,1.662-7.059S317.8,247.952,317.8,247.952l-14.257,15.363s-.447.11-1.1.238c1.086,5.2,1.879,9.954,1.112,11.663A35.316,35.316,0,0,0,301.479,280.477Z" transform="translate(-243.603 -221.96)" opacity="0.36"/>
        <path id="Path_5254" data-name="Path 5254" d="M316.187,247.3l-13.564,20.207c-1.788,2.65-7.325-1.087-5.536-3.737l10.934-21.453C310.52,238.222,318.686,243.2,316.187,247.3Z" transform="translate(-242.256 -219.925)" fill="#018b8f"/>
        <g id="Group_1780" data-name="Group 1780" transform="translate(32.467 42.908)">
          <path id="Path_5255" data-name="Path 5255" d="M276.78,277.052l-4.725,1.414a23.885,23.885,0,0,1-3.413-1.917c-1.325-.839.561,3.185.561,3.185s-2.982.454-3.194,2.548,1.267,4.105,2.949,3.487,4.321-1.62,4.906-2.423l.586-.8,4-1.962Z" transform="translate(-265.989 -272.958)" fill="#edb49f"/>
          <path id="Path_5256" data-name="Path 5256" d="M266.009,283.423a2.089,2.089,0,0,1,.275-.843,6.718,6.718,0,0,0,.922,2.769c.938,1.155,2.456.556,4.261-.525a4.438,4.438,0,0,0,2.133-2.439l4.248-1.93.6,1.269-4,1.962-.586.8c-.586.8-3.225,1.8-4.906,2.423S265.8,285.516,266.009,283.423Z" transform="translate(-265.989 -274.1)" opacity="0.76"/>
          <path id="Path_5257" data-name="Path 5257" d="M293.948,271.717l-16.281,3.825,1.53,5.669,16.481-4.062C299.029,276.083,297.3,270.65,293.948,271.717Z" transform="translate(-269.306 -271.579)" fill="#018b8f"/>
        </g>
        <path id="Path_5258" data-name="Path 5258" d="M299.427,227.384s-2.583,1.015-3.783.185c-1.057-.732-.323-8.195-.133-9.959a4.1,4.1,0,0,0-.868.362s-2.03,9.227.276,10.519a3.883,3.883,0,0,0,3.968.184l1.754,5.536c.119.448.841.589,1.776.528Z" transform="translate(-241.427 -213.341)" opacity="0.36"/>
      </g>
      <g id="Group_1783" data-name="Group 1783" transform="translate(109.05 233.596)">
        <path id="Path_5259" data-name="Path 5259" d="M202.563,378.573s19.515-3.737,24.083-.692,6.367,11.9-6.92,16.056a63.923,63.923,0,0,1-26.159,2.076l-5.952,5.4s-1.661,0-1.523-2.907,3.46-4.706,3.46-4.706l1.661-1.661,12.18-1.384-9.551.138s-.415-10.934,0-11.073S202.563,378.573,202.563,378.573Z" transform="translate(-158.403 -326.23)" fill="#0c0c75"/>
        <path id="Path_5260" data-name="Path 5260" d="M189.552,396.745l1.661-1.661,12.18-1.384-9.551.138s-.032-.836-.069-2.046c.4.027.773.054,1.12.08,3.691.277,12.549-1.383,16.24-3.506a10.9,10.9,0,0,1,7.658-1.015c-4.336.461-7.935,4.245-12.272,6s-13.748,3.137-14.856,3.229-3.691,3.045-3.691,4.8a5.589,5.589,0,0,0,.477,2.222l-.836.759s-1.661,0-1.523-2.907S189.552,396.745,189.552,396.745Z" transform="translate(-158.403 -329.178)" opacity="0.34"/>
        <path id="Path_5261" data-name="Path 5261" d="M247.807,333.77l3.026-3.894A23.853,23.853,0,0,0,250.28,326c-.3-1.539,2.766,1.675,2.766,1.675s1.5-2.616,3.53-2.057,3.37,2.666,2.185,4.011-3.073,3.443-4.032,3.7l-.961.256-3.274,3.018Z" transform="translate(-175.936 -311.701)" fill="#edb49f"/>
        <path id="Path_5262" data-name="Path 5262" d="M257.259,325.62a2.108,2.108,0,0,0-.886-.048,6.717,6.717,0,0,1,2.248,1.861c.738,1.292-.369,2.491-2.03,3.783a4.433,4.433,0,0,1-3.045,1.107l-3.335,3.262.966,1.017,3.274-3.018.961-.256c.959-.256,2.848-2.355,4.032-3.7S259.288,326.179,257.259,325.62Z" transform="translate(-176.619 -311.703)" opacity="0.76"/>
        <path id="Path_5263" data-name="Path 5263" d="M174.881,378.573s-19.516-3.737-24.083-.692-6.367,11.9,6.92,16.056a63.92,63.92,0,0,0,26.158,2.076l5.952,5.4s1.661,0,1.523-2.907-3.46-4.706-3.46-4.706l-1.661-1.661-12.18-1.384,9.55.138s.415-10.934,0-11.073S174.881,378.573,174.881,378.573Z" transform="translate(-147.42 -326.23)" fill="#0c0c75"/>
        <path id="Path_5264" data-name="Path 5264" d="M200.765,343.543l22.954,8.089c3.018,1.055,5.222-5.251,2.2-6.306l-21.591-10.659C199.879,332.878,196.312,341.754,200.765,343.543Z" transform="translate(-161.992 -314.227)" fill="#fc4c4e"/>
        <path id="Path_5265" data-name="Path 5265" d="M231.883,346.237l11.464-12.177,4.141,4.162-11.769,12.232C233.118,352.821,229.281,348.6,231.883,346.237Z" transform="translate(-171.166 -314.122)" fill="#fc4c4e"/>
        <path id="Path_5266" data-name="Path 5266" d="M199.463,364.745l-4.417-28.468a2.362,2.362,0,0,0-2.334-2H182.7c-.644,0-5.512.091-6.554,1.8l-10.934,21.453c-1.788,2.65,3.748,6.387,5.536,3.737l7.98-11.889-1.924,15.393a2.352,2.352,0,0,0,1.275,2.4,21.365,21.365,0,0,0,20.137.034A2.352,2.352,0,0,0,199.463,364.745Z" transform="translate(-152.374 -314.184)" fill="#fc4c4e"/>
        <path id="Path_5267" data-name="Path 5267" d="M197.856,313.851c.2-.039,3.8-5.109.138-7.64,0,0-.336,1.9-1.384,2.313,0,0-.63-1.428-1.47-1.759a4.981,4.981,0,0,1-3.376,1.854c-2.091.124-3.753-1.174-5.4-.22a2.269,2.269,0,0,0-1.4,2.244s-2.338.666-2.24,2.621,2.684,5.471,2.684,5.471a4.411,4.411,0,0,0,3.351.2c1.483-.712.3-3.514,1.014-4.215S197.856,313.851,197.856,313.851Z" transform="translate(-157.448 -306.211)" fill="#0c0c75"/>
        <path id="Path_5268" data-name="Path 5268" d="M191.344,325.8l-.9,6.643c-.153,3.455,7.667,3.8,7.82.346l-1.038-5.675-5.606-1.246" transform="translate(-159.641 -311.777)" fill="#edb49f"/>
        <path id="Path_5269" data-name="Path 5269" d="M198.246,306.478c.306,1.01.639,2.953-.825,4.119l-.692-.865a5.218,5.218,0,0,1-3.668,2.491c-2.837.658-5.71.035-6.055,1.211a1.426,1.426,0,0,0,.657,1.7s-1.8-.45-2.353.484a2.108,2.108,0,0,0-.276,1.7s-1.834-2.041-1.765-3.633a4.948,4.948,0,0,1,1.7-2.957s-2.338.666-2.24,2.621,2.684,5.47,2.684,5.47a4.411,4.411,0,0,0,3.351.2c1.483-.712.3-3.514,1.014-4.215s8.08-.864,8.08-.864C198.055,313.888,201.481,309.064,198.246,306.478Z" transform="translate(-157.448 -306.287)" opacity="0.32"/>
        <path id="Path_5270" data-name="Path 5270" d="M198.094,330.677l-.651-3.558-5.606-1.246-.276-.069-.356,2.629A10.544,10.544,0,0,0,198.094,330.677Z" transform="translate(-159.857 -311.777)" opacity="0.76"/>
        <path id="Path_5271" data-name="Path 5271" d="M198.419,314.285s2.806,7.915,1.356,9.889-1.982,2.5-4.614,2.376-5.236-3-5.236-3a6.2,6.2,0,0,1-2.907-1.9c-.807-1.253-.4-3.164.667-2.738a3.52,3.52,0,0,1,1.581,1.244s1.41.361,1.2-1.078-1.171-1.676-.554-2.854S197.685,317.036,198.419,314.285Z" transform="translate(-158.547 -308.505)" fill="#edb49f"/>
        <path id="Path_5272" data-name="Path 5272" d="M189.4,322.861s-1.246-1.523-1.7-1.177,0,1.418,0,1.418-.035-.76.519-.449.692,1.038.45,1.038a2.572,2.572,0,0,1-.589-.1.962.962,0,0,0,1.038.762C190.026,324.314,189.818,323.31,189.4,322.861Z" transform="translate(-158.807 -310.592)" opacity="0.76"/>
        <path id="Path_5273" data-name="Path 5273" d="M202.571,314.285a1.725,1.725,0,0,1-1.083,1.131c.89,2.441,2.38,6.89,1.911,8.125a8.21,8.21,0,0,1-2.19,2.918c1.141-.24,1.708-.911,2.718-2.286C205.377,322.2,202.571,314.285,202.571,314.285Z" transform="translate(-162.699 -308.505)" opacity="0.76"/>
        <path id="Path_5274" data-name="Path 5274" d="M190.143,371.477c2.307-.646,1.292-5.259,1.2-6.458s-5.629-1.846-6.829-2.952-.461-11.073-.461-11.073c-1.936,2.17-3.684,5.9-4.7,8.339l3.494-5.206-1.924,15.393a2.352,2.352,0,0,0,1.275,2.4,22.569,22.569,0,0,0,10.653,2.522C191.217,373.581,188.468,371.946,190.143,371.477Z" transform="translate(-156.49 -318.932)" opacity="0.34"/>
        <path id="Path_5275" data-name="Path 5275" d="M187.258,369.934l5,1.019s-.382-1.181,1.183-1.292,1.693,1.867,1.693,1.867,3.016.032,3.52,2.076-.681,4.243-2.432,3.865-4.505-1-5.2-1.712l-.692-.713L186.1,373.66Z" transform="translate(-158.407 -324.233)" fill="#edb49f"/>
        <path id="Path_5276" data-name="Path 5276" d="M167.932,370.573l16.285,3.813,1.15-5.758-16.568-3.69C165.323,364.4,164.457,370.038,167.932,370.573Z" transform="translate(-152.618 -322.883)" fill="#fc4c4e"/>
        <path id="Path_5277" data-name="Path 5277" d="M196.488,401.838a5.1,5.1,0,0,0,.377-1.257,7.852,7.852,0,0,0-.356-2.9l-4.536-.515a29.8,29.8,0,0,1,.005,5.087C194.551,402.121,196.209,401.88,196.488,401.838Z" transform="translate(-160.076 -332.049)" fill="#edb49f"/>
        <path id="Path_5278" data-name="Path 5278" d="M192.346,396.745l-1.661-1.661-12.18-1.384,9.55.138s.031-.836.069-2.046c-.4.027-.773.054-1.12.08-3.691.277-12.549-1.383-16.24-3.506a10.9,10.9,0,0,0-7.658-1.015c4.336.461,7.935,4.245,12.272,6s13.749,3.137,14.856,3.229,3.691,3.045,3.691,4.8a5.589,5.589,0,0,1-.477,2.222l.836.759s1.661,0,1.523-2.907S192.346,396.745,192.346,396.745Z" transform="translate(-151.876 -329.178)" opacity="0.34"/>
        <g id="Group_1782" data-name="Group 1782" transform="translate(21.296 46.402)">
          <path id="Path_5279" data-name="Path 5279" d="M206.487,373.435,203.8,387.509a2.03,2.03,0,0,1-1.977,1.65c-4.317.034-15.837.117-20.179.059a2.028,2.028,0,0,1-1.97-1.677L177.2,373.525a2.031,2.031,0,0,1,1.99-2.385l25.3-.116A2.031,2.031,0,0,1,206.487,373.435Z" transform="translate(-177.165 -371.024)" fill="#018b8f"/>
          <path id="Rectangle_553" data-name="Rectangle 553" d="M.968,0H23.806a.969.969,0,0,1,.969.969v0a.969.969,0,0,1-.969.969H.968A.968.968,0,0,1,0,.969v0A.968.968,0,0,1,.968,0Z" transform="translate(2.241 17.982)" fill="#01686b"/>
          <path id="Path_5280" data-name="Path 5280" d="M196.233,381.667a3.44,3.44,0,0,0-1.765.47,1.425,1.425,0,0,1,.981,1.236c0,.714-.712,1.3-1.64,1.408a3.085,3.085,0,0,0,2.423,1.037c1.554,0,2.814-.929,2.814-2.076S197.788,381.667,196.233,381.667Z" transform="translate(-181.893 -374.047)" fill="#fff"/>
        </g>
      </g>
    </g>
  </g>
</svg>
