<svg xmlns="http://www.w3.org/2000/svg" xmlns:xlink="http://www.w3.org/1999/xlink" width="113.027" height="45.521" viewBox="0 0 113.027 45.521">
  <defs>
    <linearGradient id="linear-gradient" y1="0.5" x2="1" y2="0.5" gradientUnits="objectBoundingBox">
      <stop offset="0" stop-color="#1951de"/>
      <stop offset="0.197" stop-color="#1a5ae0"/>
      <stop offset="0.759" stop-color="#2cc0f9"/>
      <stop offset="1" stop-color="#2eccfc"/>
    </linearGradient>
    <linearGradient id="linear-gradient-2" x1="1" y1="0.5" x2="0" y2="0.5" xlink:href="#linear-gradient"/>
    <linearGradient id="linear-gradient-3" y1="0.5" x2="1" y2="0.5" gradientUnits="objectBoundingBox">
      <stop offset="0" stop-color="#1954df"/>
      <stop offset="0.119" stop-color="#1954df"/>
      <stop offset="0.199" stop-color="#1c69e4"/>
      <stop offset="0.309" stop-color="#2081e9"/>
      <stop offset="0.412" stop-color="#238fec"/>
      <stop offset="0.5" stop-color="#2494ee"/>
      <stop offset="0.616" stop-color="#2390ed"/>
      <stop offset="0.705" stop-color="#2187ea"/>
      <stop offset="0.783" stop-color="#1e77e7"/>
      <stop offset="0.856" stop-color="#1a60e1"/>
      <stop offset="0.885" stop-color="#1955df"/>
      <stop offset="1" stop-color="#1955df"/>
    </linearGradient>
    <linearGradient id="linear-gradient-4" x1="0.5" y1="1" x2="0.5" gradientUnits="objectBoundingBox">
      <stop offset="0" stop-color="#2289ec" stop-opacity="0"/>
      <stop offset="0.4" stop-color="#2493ee"/>
      <stop offset="0.6" stop-color="#2494ee"/>
      <stop offset="1" stop-color="#228aec" stop-opacity="0"/>
    </linearGradient>
  </defs>
  <g id="Group_6603" data-name="Group 6603" transform="translate(-16.45 -106.756)">
    <g id="Group_6599" data-name="Group 6599" transform="translate(51.073 134.312)">
      <path id="Path_20632" data-name="Path 20632" d="M45.437,139.112v-8.783a.15.15,0,0,1,.17-.17h.586a.15.15,0,0,1,.169.17v8.783a.149.149,0,0,1-.169.169h-.586A.15.15,0,0,1,45.437,139.112Z" transform="translate(-45.437 -130.055)" fill="#1a1e50"/>
      <path id="Path_20633" data-name="Path 20633" d="M50.939,139.112v-8.783a.15.15,0,0,1,.169-.17H51.7a.228.228,0,0,1,.2.118l4.379,7.088c.017.026.034.038.051.033s.026-.024.026-.059v-7.01a.15.15,0,0,1,.17-.17H57.1a.15.15,0,0,1,.169.17v8.783a.149.149,0,0,1-.169.169h-.586a.232.232,0,0,1-.2-.117l-4.391-7.115c-.018-.026-.035-.037-.052-.033s-.026.025-.026.059l.013,7.037a.15.15,0,0,1-.169.169h-.587A.15.15,0,0,1,50.939,139.112Z" transform="translate(-44.436 -130.055)" fill="#1a1e50"/>
      <path id="Path_20634" data-name="Path 20634" d="M66.571,130.967h-4.73a.057.057,0,0,0-.065.065v3.192a.057.057,0,0,0,.065.065h3.3a.15.15,0,0,1,.169.17v.468a.15.15,0,0,1-.169.17h-3.3a.057.057,0,0,0-.065.065v3.949a.151.151,0,0,1-.17.169H61.02a.149.149,0,0,1-.169-.169v-8.783a.15.15,0,0,1,.169-.17h5.551a.15.15,0,0,1,.169.17v.469A.15.15,0,0,1,66.571,130.967Z" transform="translate(-42.633 -130.055)" fill="#1a1e50"/>
      <path id="Path_20635" data-name="Path 20635" d="M70.945,139.023a2.657,2.657,0,0,1-1.087-1.061,3.178,3.178,0,0,1-.385-1.584v-3.283a3.178,3.178,0,0,1,.385-1.584,2.665,2.665,0,0,1,1.087-1.061,3.391,3.391,0,0,1,1.629-.378,3.433,3.433,0,0,1,1.636.378,2.669,2.669,0,0,1,1.094,1.061,3.19,3.19,0,0,1,.384,1.584v3.283a3.19,3.19,0,0,1-.384,1.584,2.661,2.661,0,0,1-1.094,1.061,3.42,3.42,0,0,1-1.636.378A3.378,3.378,0,0,1,70.945,139.023Zm3.218-1.016a2.148,2.148,0,0,0,.6-1.59v-3.335a2.172,2.172,0,0,0-.6-1.6,2.373,2.373,0,0,0-3.166,0,2.172,2.172,0,0,0-.6,1.6v3.335a2.239,2.239,0,0,0,3.766,1.59Z" transform="translate(-41.065 -130.071)" fill="#1a1e50"/>
      <path id="Path_20636" data-name="Path 20636" d="M84.763,130.329v.481a.15.15,0,0,1-.17.17h-2.5a.058.058,0,0,0-.065.065v8.066a.149.149,0,0,1-.169.169H81.27a.149.149,0,0,1-.169-.169v-8.066a.058.058,0,0,0-.066-.065h-2.4a.15.15,0,0,1-.169-.17v-.481a.15.15,0,0,1,.169-.17h5.954A.15.15,0,0,1,84.763,130.329Z" transform="translate(-39.429 -130.055)" fill="#1a1e50"/>
      <path id="Path_20637" data-name="Path 20637" d="M93.683,130.967H88.94a.057.057,0,0,0-.065.065v3.192a.057.057,0,0,0,.065.065H92.25a.151.151,0,0,1,.17.17v.468a.151.151,0,0,1-.17.17H88.94a.057.057,0,0,0-.065.065v3.244a.057.057,0,0,0,.065.065h4.743a.15.15,0,0,1,.169.17v.469a.149.149,0,0,1-.169.169H88.119a.15.15,0,0,1-.169-.169v-8.783a.15.15,0,0,1,.169-.17h5.564a.15.15,0,0,1,.169.17v.469A.149.149,0,0,1,93.683,130.967Z" transform="translate(-37.704 -130.055)" fill="#1a1e50"/>
      <path id="Path_20638" data-name="Path 20638" d="M98.482,139.056a2.613,2.613,0,0,1-1.074-1.016,2.95,2.95,0,0,1-.384-1.518v-3.584a2.889,2.889,0,0,1,.384-1.5,2.622,2.622,0,0,1,1.074-1.011,3.437,3.437,0,0,1,1.6-.358,3.481,3.481,0,0,1,1.6.352,2.6,2.6,0,0,1,1.074.99,2.8,2.8,0,0,1,.385,1.473c0,.078-.057.125-.17.143l-.586.039h-.039a.156.156,0,0,1-.091-.026c-.026-.018-.039-.035-.039-.052v-.078a1.94,1.94,0,0,0-.586-1.48,2.438,2.438,0,0,0-3.1.007,1.941,1.941,0,0,0-.586,1.473v3.648a1.939,1.939,0,0,0,.586,1.471,2.144,2.144,0,0,0,1.549.56,2.169,2.169,0,0,0,1.552-.553,1.935,1.935,0,0,0,.586-1.479c0-.1.056-.152.169-.144l.586.026c.113,0,.17.022.17.065v.066a2.858,2.858,0,0,1-.385,1.492,2.583,2.583,0,0,1-1.074,1,3.481,3.481,0,0,1-1.6.352A3.437,3.437,0,0,1,98.482,139.056Z" transform="translate(-36.054 -130.071)" fill="#1a1e50"/>
      <path id="Path_20639" data-name="Path 20639" d="M111.96,130.159h.586a.15.15,0,0,1,.169.17v8.783a.149.149,0,0,1-.169.169h-.586a.15.15,0,0,1-.17-.169v-3.949a.057.057,0,0,0-.065-.065h-4.131a.058.058,0,0,0-.065.065v3.949a.149.149,0,0,1-.169.169h-.586a.15.15,0,0,1-.17-.169v-8.783a.15.15,0,0,1,.17-.17h.586a.15.15,0,0,1,.169.17v3.9a.058.058,0,0,0,.065.065h4.131a.057.057,0,0,0,.065-.065v-3.9A.15.15,0,0,1,111.96,130.159Z" transform="translate(-34.311 -130.055)" fill="#1a1e50"/>
    </g>
    <g id="Group_6600" data-name="Group 6600" transform="translate(51.079 118.011)">
      <path id="Path_20640" data-name="Path 20640" d="M47.085,126.312a2.726,2.726,0,0,1-1.216-.948,2.437,2.437,0,0,1-.427-1.427v-.405a.166.166,0,0,1,.188-.188h.623a.166.166,0,0,1,.188.188v.347a1.612,1.612,0,0,0,.695,1.347,3.043,3.043,0,0,0,1.869.52,2.632,2.632,0,0,0,1.694-.47,1.534,1.534,0,0,0,.579-1.252,1.42,1.42,0,0,0-.268-.869,2.664,2.664,0,0,0-.818-.681,13.566,13.566,0,0,0-1.578-.739,16.542,16.542,0,0,1-1.687-.76,2.813,2.813,0,0,1-.97-.84,2.156,2.156,0,0,1-.37-1.3,2.277,2.277,0,0,1,.847-1.89,3.668,3.668,0,0,1,2.338-.673,3.88,3.88,0,0,1,2.52.753,2.446,2.446,0,0,1,.927,2v.275a.167.167,0,0,1-.188.188h-.637a.166.166,0,0,1-.188-.188v-.217a1.706,1.706,0,0,0-.652-1.376,2.821,2.821,0,0,0-1.839-.535,2.525,2.525,0,0,0-1.571.421,1.445,1.445,0,0,0-.542,1.215,1.349,1.349,0,0,0,.267.862,2.26,2.26,0,0,0,.767.594q.5.253,1.528.658a14.719,14.719,0,0,1,1.709.811,3.293,3.293,0,0,1,1.041.92,2.2,2.2,0,0,1,.391,1.325,2.376,2.376,0,0,1-.89,1.932,3.8,3.8,0,0,1-2.483.732A4.719,4.719,0,0,1,47.085,126.312Z" transform="translate(-45.442 -116.279)" fill="#1951de"/>
      <path id="Path_20641" data-name="Path 20641" d="M58.18,126.369l-2.114-4.459a.094.094,0,0,0-.086-.058H53.561a.065.065,0,0,0-.073.073v4.4a.166.166,0,0,1-.188.188h-.651a.166.166,0,0,1-.188-.188v-9.773a.166.166,0,0,1,.188-.188h3.706a2.829,2.829,0,0,1,2.237,4.495,2.529,2.529,0,0,1-1.484.92c-.048.009-.063.039-.044.087l2.158,4.43a.225.225,0,0,1,.028.087c0,.086-.057.13-.174.13h-.665A.241.241,0,0,1,58.18,126.369Zm-4.692-9.034v3.62a.064.064,0,0,0,.073.072H56.24a1.855,1.855,0,0,0,1.362-.514,1.817,1.817,0,0,0,.521-1.353,1.866,1.866,0,0,0-.521-1.369,1.828,1.828,0,0,0-1.362-.528H53.561A.065.065,0,0,0,53.488,117.334Z" transform="translate(-44.165 -116.263)" fill="#1951de"/>
      <path id="Path_20642" data-name="Path 20642" d="M65.717,117.274h-5.27a.064.064,0,0,0-.073.072v3.548a.064.064,0,0,0,.073.072h3.677a.166.166,0,0,1,.188.188v.521a.166.166,0,0,1-.188.189H60.447a.064.064,0,0,0-.073.072v3.6a.064.064,0,0,0,.073.072h5.27a.166.166,0,0,1,.188.189v.521a.166.166,0,0,1-.188.188H59.534a.167.167,0,0,1-.189-.188v-9.759a.167.167,0,0,1,.189-.188h6.182a.166.166,0,0,1,.188.188v.521A.166.166,0,0,1,65.717,117.274Z" transform="translate(-42.913 -116.261)" fill="#1951de"/>
      <path id="Path_20643" data-name="Path 20643" d="M72.515,117.274H67.244a.064.064,0,0,0-.072.072v3.548a.064.064,0,0,0,.072.072h3.678a.167.167,0,0,1,.189.188v.521a.167.167,0,0,1-.189.189H67.244a.064.064,0,0,0-.072.072v3.6a.064.064,0,0,0,.072.072h5.271a.167.167,0,0,1,.188.189v.521a.167.167,0,0,1-.188.188H66.333a.166.166,0,0,1-.188-.188v-9.759a.166.166,0,0,1,.188-.188h6.182a.167.167,0,0,1,.188.188v.521A.167.167,0,0,1,72.515,117.274Z" transform="translate(-41.676 -116.261)" fill="#1951de"/>
      <path id="Path_20644" data-name="Path 20644" d="M72.943,126.324v-9.759a.166.166,0,0,1,.188-.188h.652a.256.256,0,0,1,.216.13l4.865,7.876c.019.03.039.041.058.037s.03-.027.03-.065v-7.79a.166.166,0,0,1,.188-.188h.652a.167.167,0,0,1,.188.188v9.759a.167.167,0,0,1-.188.188H79.14a.256.256,0,0,1-.217-.13l-4.879-7.906c-.019-.03-.038-.041-.058-.035s-.03.026-.03.065l.015,7.818a.166.166,0,0,1-.188.188h-.652A.166.166,0,0,1,72.943,126.324Z" transform="translate(-40.44 -116.261)" fill="#1951de"/>
      <path id="Path_20645" data-name="Path 20645" d="M86.775,117.274H81.5a.064.064,0,0,0-.073.072v3.548a.064.064,0,0,0,.073.072h3.677a.166.166,0,0,1,.188.188v.521a.166.166,0,0,1-.188.189H81.5a.064.064,0,0,0-.073.072v3.6a.064.064,0,0,0,.073.072h5.27a.166.166,0,0,1,.188.189v.521a.166.166,0,0,1-.188.188H80.592a.167.167,0,0,1-.189-.188v-9.759a.167.167,0,0,1,.189-.188h6.182a.166.166,0,0,1,.188.188v.521A.166.166,0,0,1,86.775,117.274Z" transform="translate(-39.083 -116.261)" fill="#1951de"/>
      <path id="Path_20646" data-name="Path 20646" d="M89.82,126.352l-3.141-9.759a.145.145,0,0,1-.014-.072.126.126,0,0,1,.05-.1.18.18,0,0,1,.123-.044h.695a.194.194,0,0,1,.2.16l2.634,8.412c.009.039.024.058.044.058s.034-.019.044-.058l2.636-8.412a.192.192,0,0,1,.2-.16h.681a.167.167,0,0,1,.144.058.174.174,0,0,1,.014.158l-3.17,9.759a.194.194,0,0,1-.2.16h-.739A.192.192,0,0,1,89.82,126.352Z" transform="translate(-37.944 -116.261)" fill="#1951de"/>
      <path id="Path_20647" data-name="Path 20647" d="M98.96,126.352l-.579-1.766c-.019-.039-.044-.059-.072-.059H93.993c-.028,0-.053.02-.072.059l-.565,1.766a.193.193,0,0,1-.2.16h-.695a.171.171,0,0,1-.145-.058.176.176,0,0,1-.014-.16l3.185-9.758a.194.194,0,0,1,.2-.16h.927a.193.193,0,0,1,.2.16l3.2,9.758a.186.186,0,0,1,.014.072.132.132,0,0,1-.051.1.18.18,0,0,1-.123.044h-.695A.194.194,0,0,1,98.96,126.352ZM94.3,123.688h3.721c.058,0,.077-.028.058-.086l-1.883-5.922c-.009-.038-.024-.058-.043-.058s-.034.02-.044.058L94.241,123.6C94.231,123.66,94.25,123.688,94.3,123.688Z" transform="translate(-36.921 -116.261)" fill="#1951de"/>
      <path id="Path_20648" data-name="Path 20648" d="M100.569,126.312a2.719,2.719,0,0,1-1.216-.948,2.437,2.437,0,0,1-.427-1.427v-.405a.166.166,0,0,1,.188-.188h.622a.166.166,0,0,1,.189.188v.347a1.609,1.609,0,0,0,.695,1.347,3.042,3.042,0,0,0,1.867.52,2.627,2.627,0,0,0,1.694-.47,1.531,1.531,0,0,0,.579-1.252,1.419,1.419,0,0,0-.267-.869,2.67,2.67,0,0,0-.819-.681,13.381,13.381,0,0,0-1.578-.739,16.785,16.785,0,0,1-1.687-.76,2.82,2.82,0,0,1-.969-.84,2.156,2.156,0,0,1-.37-1.3,2.28,2.28,0,0,1,.846-1.89,3.672,3.672,0,0,1,2.339-.673,3.882,3.882,0,0,1,2.52.753,2.445,2.445,0,0,1,.925,2v.275a.166.166,0,0,1-.188.188h-.637a.166.166,0,0,1-.188-.188v-.217a1.705,1.705,0,0,0-.651-1.376,2.825,2.825,0,0,0-1.839-.535,2.525,2.525,0,0,0-1.571.421,1.446,1.446,0,0,0-.544,1.215,1.349,1.349,0,0,0,.268.862,2.249,2.249,0,0,0,.767.594q.5.253,1.528.658a14.719,14.719,0,0,1,1.709.811,3.293,3.293,0,0,1,1.041.92,2.2,2.2,0,0,1,.391,1.325,2.376,2.376,0,0,1-.89,1.932,3.806,3.806,0,0,1-2.483.732A4.715,4.715,0,0,1,100.569,126.312Z" transform="translate(-35.714 -116.279)" fill="#1951de"/>
      <path id="Path_20649" data-name="Path 20649" d="M111.9,126.352l-.579-1.766c-.019-.039-.044-.059-.072-.059H106.93c-.028,0-.053.02-.072.059l-.565,1.766a.193.193,0,0,1-.2.16H105.4a.168.168,0,0,1-.145-.058.173.173,0,0,1-.014-.16l3.185-9.758a.192.192,0,0,1,.2-.16h.928a.194.194,0,0,1,.2.16l3.2,9.758a.167.167,0,0,1,.014.072.128.128,0,0,1-.051.1.178.178,0,0,1-.123.044H112.1A.193.193,0,0,1,111.9,126.352Zm-4.663-2.664h3.721c.059,0,.078-.028.059-.086l-1.883-5.922c-.009-.038-.025-.058-.044-.058s-.034.02-.043.058l-1.869,5.922C107.166,123.66,107.185,123.688,107.233,123.688Z" transform="translate(-34.568 -116.261)" fill="#1951de"/>
    </g>
    <g id="Group_6602" data-name="Group 6602" transform="translate(51.074 145.655)">
      <g id="Group_6601" data-name="Group 6601" transform="translate(1.128 0.122)">
        <path id="Path_20651" data-name="Path 20651" d="M49.728,139.843v.109a.063.063,0,0,1-.072.072H48.2c-.02,0-.028.009-.028.03v4.712a.064.064,0,0,1-.073.072h-.137a.064.064,0,0,1-.073-.072v-4.712c0-.02-.008-.03-.028-.03h-1.4a.063.063,0,0,1-.072-.072v-.109a.063.063,0,0,1,.072-.072h3.192A.063.063,0,0,1,49.728,139.843Z" transform="translate(-46.392 -139.771)" fill="#1a1e50"/>
        <path id="Path_20652" data-name="Path 20652" d="M53.786,144.257a1.055,1.055,0,0,0,.4-.47.06.06,0,0,1,.086-.044l.095.028a.067.067,0,0,1,.05.095,1.231,1.231,0,0,1-.485.593,1.424,1.424,0,0,1-.8.225,1.352,1.352,0,0,1-.832-.253,1.3,1.3,0,0,1-.472-.681,4.088,4.088,0,0,1-.079-.948q0-.333.011-.532a2.071,2.071,0,0,1,.047-.359,1.234,1.234,0,0,1,.46-.709,1.517,1.517,0,0,1,1.748.018,1.262,1.262,0,0,1,.449.765,1.982,1.982,0,0,1,.037.325q.007.188.007.493c0,.052-.025.079-.072.079H52.057c-.02,0-.03.009-.03.028,0,.155,0,.3.007.421a1.48,1.48,0,0,0,.03.274.962.962,0,0,0,.358.6,1.126,1.126,0,0,0,.72.225A1.156,1.156,0,0,0,53.786,144.257Zm-1.371-2.845a.963.963,0,0,0-.351.586,4.116,4.116,0,0,0-.037.622.026.026,0,0,0,.03.03h2.136c.019,0,.028-.009.028-.03a3.214,3.214,0,0,0-.035-.607,1.027,1.027,0,0,0-.363-.6,1.207,1.207,0,0,0-1.408,0Z" transform="translate(-45.418 -139.559)" fill="#1a1e50"/>
        <path id="Path_20653" data-name="Path 20653" d="M61.628,141.255a1.158,1.158,0,0,1,.319.865v2.432a.064.064,0,0,1-.073.072h-.137a.064.064,0,0,1-.073-.072v-2.382a.975.975,0,0,0-.26-.714.923.923,0,0,0-.688-.264,1,1,0,0,0-.723.256.928.928,0,0,0-.268.706v2.4a.063.063,0,0,1-.072.072h-.138a.064.064,0,0,1-.072-.072v-2.382a.975.975,0,0,0-.26-.714.914.914,0,0,0-.681-.264,1,1,0,0,0-.723.256.928.928,0,0,0-.268.706v2.4a.064.064,0,0,1-.073.072H57.3a.063.063,0,0,1-.072-.072v-3.489a.064.064,0,0,1,.072-.073h.137a.065.065,0,0,1,.073.073v.362q0,.021.011.021a.044.044,0,0,0,.026-.014.97.97,0,0,1,.416-.365,1.37,1.37,0,0,1,.6-.126,1.228,1.228,0,0,1,.655.169,1.008,1.008,0,0,1,.41.482c0,.009.009.014.013.014s.011,0,.015-.014a1,1,0,0,1,.43-.486,1.392,1.392,0,0,1,.691-.165A1.152,1.152,0,0,1,61.628,141.255Z" transform="translate(-44.421 -139.558)" fill="#1a1e50"/>
        <path id="Path_20654" data-name="Path 20654" d="M67.15,142.241c.007.128.011.314.011.561s0,.428-.011.56a2.193,2.193,0,0,1-.047.359,1.244,1.244,0,0,1-.444.7,1.308,1.308,0,0,1-.837.265,1.233,1.233,0,0,1-.593-.141,1.085,1.085,0,0,1-.412-.388.039.039,0,0,0-.025-.014c-.008,0-.012.007-.012.021v1.825a.063.063,0,0,1-.072.072h-.138a.064.064,0,0,1-.072-.072v-4.923a.065.065,0,0,1,.072-.073h.138a.064.064,0,0,1,.072.073v.39c0,.015,0,.022.012.022a.037.037,0,0,0,.025-.015,1.088,1.088,0,0,1,.416-.39,1.224,1.224,0,0,1,.59-.138,1.31,1.31,0,0,1,.829.261,1.22,1.22,0,0,1,.446.695A1.655,1.655,0,0,1,67.15,142.241Zm-.286,1.141c.009-.106.014-.294.014-.565s0-.45-.014-.554a1.918,1.918,0,0,0-.051-.3.906.906,0,0,0-.344-.558,1.058,1.058,0,0,0-.669-.216.928.928,0,0,0-.641.221,1,1,0,0,0-.323.553,1.336,1.336,0,0,0-.046.275c-.008.1-.012.29-.012.565s0,.472.012.576a1.117,1.117,0,0,0,.054.285.931.931,0,0,0,.948.768,1.038,1.038,0,0,0,.658-.214.953.953,0,0,0,.355-.546A1.244,1.244,0,0,0,66.864,143.382Z" transform="translate(-43.099 -139.559)" fill="#1a1e50"/>
        <path id="Path_20655" data-name="Path 20655" d="M69.918,144.766v-4.923a.064.064,0,0,1,.072-.072h.138a.063.063,0,0,1,.072.072v4.923a.063.063,0,0,1-.072.072H69.99A.064.064,0,0,1,69.918,144.766Z" transform="translate(-42.113 -139.771)" fill="#1a1e50"/>
        <path id="Path_20656" data-name="Path 20656" d="M75.365,144.257a1.06,1.06,0,0,0,.4-.47.06.06,0,0,1,.086-.044l.095.028a.066.066,0,0,1,.05.095,1.231,1.231,0,0,1-.485.593,1.422,1.422,0,0,1-.8.225,1.353,1.353,0,0,1-.833-.253,1.291,1.291,0,0,1-.47-.681,4.088,4.088,0,0,1-.079-.948q0-.333.011-.532a2.07,2.07,0,0,1,.047-.359,1.233,1.233,0,0,1,.459-.709,1.519,1.519,0,0,1,1.749.018,1.273,1.273,0,0,1,.449.765,1.992,1.992,0,0,1,.035.325q.007.188.007.493c0,.052-.024.079-.072.079H73.635a.026.026,0,0,0-.03.028c0,.155,0,.3.007.421a1.481,1.481,0,0,0,.03.274.967.967,0,0,0,.358.6,1.13,1.13,0,0,0,.721.225A1.158,1.158,0,0,0,75.365,144.257Zm-1.372-2.845a.969.969,0,0,0-.351.586,4.116,4.116,0,0,0-.037.622.026.026,0,0,0,.03.03h2.136c.019,0,.028-.009.028-.03a3.214,3.214,0,0,0-.035-.607,1.025,1.025,0,0,0-.362-.6,1.209,1.209,0,0,0-1.409,0Z" transform="translate(-41.493 -139.559)" fill="#1a1e50"/>
        <path id="Path_20657" data-name="Path 20657" d="M82.607,144.419a1.264,1.264,0,0,1-.464-.7,2.215,2.215,0,0,1-.058-.373c-.009-.137-.014-.318-.014-.539s0-.409.011-.544a1.766,1.766,0,0,1,.054-.362,1.246,1.246,0,0,1,.472-.7,1.389,1.389,0,0,1,.853-.265,1.423,1.423,0,0,1,.866.265,1.176,1.176,0,0,1,.459.7,2.061,2.061,0,0,1,.047.355c.007.13.011.314.011.551s0,.433-.011.56a2.048,2.048,0,0,1-.047.352,1.21,1.21,0,0,1-.463.7,1.394,1.394,0,0,1-.862.265A1.358,1.358,0,0,1,82.607,144.419Zm1.555-.216a1.024,1.024,0,0,0,.363-.6,2.231,2.231,0,0,0,.028-.329c0-.148.007-.3.007-.467s0-.339-.007-.481a2.006,2.006,0,0,0-.028-.316.971.971,0,0,0-.363-.6,1.107,1.107,0,0,0-.709-.228,1.069,1.069,0,0,0-.695.228,1.019,1.019,0,0,0-.362.6,4.535,4.535,0,0,0-.044.8,4.443,4.443,0,0,0,.044.8,1.01,1.01,0,0,0,.362.6,1.2,1.2,0,0,0,1.4,0Z" transform="translate(-39.902 -139.559)" fill="#1a1e50"/>
        <path id="Path_20658" data-name="Path 20658" d="M88.259,140.245a1.233,1.233,0,0,0-.158.706v.225a.025.025,0,0,0,.028.028H89a.064.064,0,0,1,.072.073v.116a.064.064,0,0,1-.072.072h-.876a.025.025,0,0,0-.028.028v3.273a.064.064,0,0,1-.073.072H87.89a.063.063,0,0,1-.072-.072v-3.273c0-.019-.009-.028-.03-.028h-.47a.064.064,0,0,1-.072-.072v-.116a.064.064,0,0,1,.072-.073h.47c.02,0,.03-.009.03-.028v-.232a1.427,1.427,0,0,1,.225-.895,1,1,0,0,1,.818-.278h.174a.063.063,0,0,1,.072.072v.109a.063.063,0,0,1-.072.072h-.16A.717.717,0,0,0,88.259,140.245Z" transform="translate(-38.961 -139.771)" fill="#1a1e50"/>
        <path id="Path_20659" data-name="Path 20659" d="M97.328,141.257a1.213,1.213,0,0,1,.314.886v2.411a.063.063,0,0,1-.072.072h-.137a.063.063,0,0,1-.072-.072v-.347a.023.023,0,0,0-.011-.021c-.007-.006-.015,0-.026.007a1.189,1.189,0,0,1-.5.365,1.82,1.82,0,0,1-.683.126,1.4,1.4,0,0,1-.837-.246.871.871,0,0,1-.344-.76.992.992,0,0,1,.4-.833,1.767,1.767,0,0,1,1.093-.3h.883a.026.026,0,0,0,.03-.028v-.377a.868.868,0,0,0-.986-.948,1.167,1.167,0,0,0-.643.163.67.67,0,0,0-.312.437.076.076,0,0,1-.086.065l-.152-.021a.1.1,0,0,1-.054-.026.045.045,0,0,1-.011-.046.931.931,0,0,1,.42-.6,1.527,1.527,0,0,1,.855-.225A1.252,1.252,0,0,1,97.328,141.257Zm-.319,2.943a.738.738,0,0,0,.352-.652v-.738a.026.026,0,0,0-.03-.03h-.876a1.51,1.51,0,0,0-.879.235.749.749,0,0,0-.337.648.672.672,0,0,0,.26.572,1.09,1.09,0,0,0,.674.2A1.477,1.477,0,0,0,97.009,144.2Z" transform="translate(-37.558 -139.559)" fill="#1a1e50"/>
        <path id="Path_20660" data-name="Path 20660" d="M102.132,141.038c.039.014.051.046.037.095l-.051.144c-.014.048-.044.06-.086.037a.974.974,0,0,0-.363-.051.877.877,0,0,0-.506.152,1.04,1.04,0,0,0-.352.405,1.235,1.235,0,0,0-.126.557v2.172a.063.063,0,0,1-.072.072h-.137a.063.063,0,0,1-.072-.072v-3.489a.064.064,0,0,1,.072-.073h.137a.064.064,0,0,1,.072.073v.542c0,.014,0,.022.012.026s.013,0,.018-.019a1.239,1.239,0,0,1,.405-.477,1.008,1.008,0,0,1,.586-.174A1.019,1.019,0,0,1,102.132,141.038Z" transform="translate(-36.568 -139.555)" fill="#1a1e50"/>
        <path id="Path_20661" data-name="Path 20661" d="M106.253,141.372h-.876a.026.026,0,0,0-.03.028v2.4a.681.681,0,0,0,.182.542.864.864,0,0,0,.564.152h.16a.064.064,0,0,1,.073.072v.109a.072.072,0,0,1-.073.079h-.181a1.213,1.213,0,0,1-.742-.2.843.843,0,0,1-.256-.709V141.4c0-.019-.009-.028-.03-.028H104.6a.065.065,0,0,1-.073-.073v-.1a.065.065,0,0,1,.073-.073h.441c.02,0,.03-.009.03-.028v-.818a.064.064,0,0,1,.072-.073h.13a.064.064,0,0,1,.072.073v.818a.026.026,0,0,0,.03.028h.876a.065.065,0,0,1,.073.073v.1A.065.065,0,0,1,106.253,141.372Z" transform="translate(-35.817 -139.692)" fill="#1a1e50"/>
        <path id="Path_20662" data-name="Path 20662" d="M109.612,144.528a1.089,1.089,0,0,1-.453-.337.754.754,0,0,1-.163-.468v-.1a.063.063,0,0,1,.072-.072h.13a.063.063,0,0,1,.072.072v.095a.536.536,0,0,0,.128.34.889.889,0,0,0,.355.256,1.3,1.3,0,0,0,.518.1,1.137,1.137,0,0,0,.706-.206.64.64,0,0,0,.272-.532.49.49,0,0,0-.138-.363.906.906,0,0,0-.314-.206c-.118-.046-.311-.112-.576-.2a5.979,5.979,0,0,1-.633-.23,1.163,1.163,0,0,1-.405-.3.7.7,0,0,1-.163-.477.815.815,0,0,1,.34-.684,1.695,1.695,0,0,1,1.806.008.808.808,0,0,1,.344.669v.021a.065.065,0,0,1-.072.073h-.123c-.048,0-.072-.018-.072-.051v-.044a.6.6,0,0,0-.272-.5,1.191,1.191,0,0,0-.72-.2,1.145,1.145,0,0,0-.695.191.589.589,0,0,0-.261.5.484.484,0,0,0,.126.344.969.969,0,0,0,.323.217q.2.083.535.191c.285.086.507.163.665.228a1.127,1.127,0,0,1,.414.29.724.724,0,0,1,.173.5.877.877,0,0,1-.343.717,1.415,1.415,0,0,1-.909.275A1.7,1.7,0,0,1,109.612,144.528Z" transform="translate(-35.005 -139.555)" fill="#1a1e50"/>
      </g>
      <rect id="Rectangle_1332" data-name="Rectangle 1332" width="78.401" height="0.394" transform="translate(0 0)" fill="#1a1e50"/>
    </g>
    <g id="Group_14660" data-name="Group 14660" transform="translate(-3.184 148.576)">
      <g id="Group_14658" data-name="Group 14658" transform="translate(19.634 -41.82)">
        <path id="Path_37475" data-name="Path 37475" d="M47.367-16.395V-28.522l-17.23-13.3-10.5,13.58L32.3-18.471v6.491L19.634-21.729V-9.6L36.865,3.7l10.5-13.58L34.709-19.644v-6.5ZM43.993-9.449h0L36.432.327,22.039-10.78l.018-6.061L34.709-7.093v-9.522ZM32.3-31.03V-21.5l-9.29-7.172,7.56-9.776,14.4,11.107v6.06Z" transform="translate(-19.634 41.82)" fill="url(#linear-gradient)"/>
        <path id="Path_37476" data-name="Path 37476" d="M32.3-18.466v6.491L19.634-21.728V-9.6L36.865,3.7l10.5-13.58L32.3-21.5M43.993-9.448h0L36.432.327,22.039-10.779l.018-6.061L34.709-7.092v-9.522Z" transform="translate(-19.634 41.819)" fill="url(#linear-gradient-2)"/>
      </g>
      <path id="Path_37477" data-name="Path 37477" d="M23.009-28.673,47.367-9.883l-3.374.434L19.634-28.239Z" transform="translate(0 0)" fill="url(#linear-gradient-3)"/>
      <rect id="Rectangle_1918" data-name="Rectangle 1918" width="2.405" height="13.768" transform="translate(32.3 -25.989)" fill="url(#linear-gradient-4)"/>
    </g>
  </g>
</svg>
