<svg xmlns="http://www.w3.org/2000/svg" xmlns:xlink="http://www.w3.org/1999/xlink" width="370" height="300" viewBox="0 0 370 300">
  <defs>
    <radialGradient id="radial-gradient" cx="0.5" cy="0.5" r="0.5" gradientUnits="objectBoundingBox">
      <stop offset="0" stop-color="#0094d6"/>
      <stop offset="1" stop-color="#002c9a"/>
    </radialGradient>
  </defs>
  <g id="Group_8217" data-name="Group 8217" transform="translate(-1175 -1216)">
    <path id="Rectangle_1462" data-name="Rectangle 1462" d="M10,0H360a10,10,0,0,1,10,10V300a0,0,0,0,1,0,0H0a0,0,0,0,1,0,0V10A10,10,0,0,1,10,0Z" transform="translate(1175 1216)" fill="url(#radial-gradient)"/>
    <g id="Group_8215" data-name="Group 8215" transform="translate(1198.767 1216.58)">
      <g id="Group_8216" data-name="Group 8216" transform="translate(36.205 -0.58)">
        <g id="Group_8209" data-name="Group 8209" transform="translate(10.769 69.907)">
          <path id="Path_27112" data-name="Path 27112" d="M0,0H195.1V121.454H0Z" transform="translate(13.532 6.556)" fill="#1363a1"/>
          <ellipse id="Ellipse_452" data-name="Ellipse 452" cx="111.164" cy="4.292" rx="111.164" ry="4.292" transform="translate(0 184.465)" fill="#1a1e51" opacity="0.5"/>
          <path id="Path_26980" data-name="Path 26980" d="M200.606,420.071c8-5.616,16.018-13.468,13.632-31.522h29.076c-2.385,18.055,5.634,25.906,13.632,31.522Z" transform="translate(-117.613 -236.527)" fill="#b6b8b9" fill-rule="evenodd"/>
          <path id="Path_26981" data-name="Path 26981" d="M224.789,398.066a43.025,43.025,0,0,0-.28-9.517h29.076a43.023,43.023,0,0,0-.28,9.517,88.376,88.376,0,0,0-28.516,0Z" transform="translate(-127.884 -236.527)" fill="#8e8e8e" fill-rule="evenodd"/>
          <rect id="Rectangle_1523" data-name="Rectangle 1523" width="66.585" height="5.503" transform="translate(77.871 183.398)" fill="#dbd9d7"/>
          <path id="Path_26982" data-name="Path 26982" d="M77.01,244.465H263.735V132.733H77.01ZM275.1,255.2H65.642V132.776A10.786,10.786,0,0,1,76.423,122h187.9A10.786,10.786,0,0,1,275.1,132.776Z" transform="translate(-59.622 -121.995)" fill="#e3eaff" fill-rule="evenodd"/>
          <path id="Path_26983" data-name="Path 26983" d="M252.423,288.683a3.849,3.849,0,1,1-2.852,4.637A3.851,3.851,0,0,1,252.423,288.683Zm-.047-3.124a6.922,6.922,0,0,0-1.321.315l.05,1.091a5.885,5.885,0,0,0-1.151.623l-.886-.639a6.92,6.92,0,0,0-.987.934l.589.92a5.909,5.909,0,0,0-.686,1.114l-1.086-.111a6.907,6.907,0,0,0-.388,1.3l.97.5a5.906,5.906,0,0,0-.037,1.308l-1,.447a6.917,6.917,0,0,0,.315,1.322l1.091-.05a5.889,5.889,0,0,0,.623,1.151l-.639.886a6.893,6.893,0,0,0,.934.987l.92-.589a5.881,5.881,0,0,0,1.114.686l-.111,1.087a6.91,6.91,0,0,0,1.3.388l.5-.97a5.905,5.905,0,0,0,1.308.036l.447,1a6.915,6.915,0,0,0,1.322-.315l-.05-1.091a5.887,5.887,0,0,0,1.151-.623l.886.639a6.925,6.925,0,0,0,.987-.934l-.589-.92a5.9,5.9,0,0,0,.686-1.114l1.087.111a6.907,6.907,0,0,0,.388-1.3l-.97-.5a5.875,5.875,0,0,0,.036-1.308l1-.448a6.929,6.929,0,0,0-.315-1.322l-1.091.051a5.878,5.878,0,0,0-.623-1.151l.639-.886a6.954,6.954,0,0,0-.934-.987l-.92.589a5.866,5.866,0,0,0-1.114-.685l.111-1.087a6.912,6.912,0,0,0-1.3-.388l-.5.97a5.9,5.9,0,0,0-1.308-.037Z" transform="translate(-137.31 -192.274)" fill="#2ab7f6" fill-rule="evenodd"/>
          <path id="Path_26984" data-name="Path 26984" d="M300.538,288.518a4.019,4.019,0,1,1-2.977,4.841A4.02,4.02,0,0,1,300.538,288.518Zm-.007-2.959a6.919,6.919,0,0,0-1.322.315l.05,1.091a5.888,5.888,0,0,0-1.151.623l-.886-.639a6.884,6.884,0,0,0-.987.934l.589.92a5.886,5.886,0,0,0-.686,1.114l-1.087-.111a6.907,6.907,0,0,0-.388,1.3l.97.5a5.939,5.939,0,0,0-.037,1.308l-1,.447a6.915,6.915,0,0,0,.315,1.322l1.091-.05a5.89,5.89,0,0,0,.623,1.151l-.639.886a6.921,6.921,0,0,0,.934.987l.92-.589a5.9,5.9,0,0,0,1.114.686l-.111,1.087a6.909,6.909,0,0,0,1.3.388l.5-.97a5.905,5.905,0,0,0,1.308.036l.448,1a6.919,6.919,0,0,0,1.321-.315l-.05-1.091a5.887,5.887,0,0,0,1.151-.623l.886.639a6.954,6.954,0,0,0,.987-.934l-.59-.92a5.871,5.871,0,0,0,.686-1.114l1.087.111a6.909,6.909,0,0,0,.388-1.3l-.97-.5a5.9,5.9,0,0,0,.036-1.308l1-.448a6.934,6.934,0,0,0-.315-1.322l-1.091.051a5.875,5.875,0,0,0-.623-1.151l.639-.886a6.921,6.921,0,0,0-.934-.987l-.92.589a5.848,5.848,0,0,0-1.114-.685l.111-1.087a6.911,6.911,0,0,0-1.3-.388l-.5.97a5.9,5.9,0,0,0-1.308-.037Z" transform="translate(-158 -192.274)" fill="#2ab7f6" fill-rule="evenodd"/>
          <path id="Path_26985" data-name="Path 26985" d="M348.878,289.3a3.215,3.215,0,1,1-2.382,3.873A3.216,3.216,0,0,1,348.878,289.3Zm-.193-3.741a6.926,6.926,0,0,0-1.322.315l.05,1.091a5.889,5.889,0,0,0-1.151.623l-.886-.639a6.923,6.923,0,0,0-.987.934l.589.92a5.882,5.882,0,0,0-.686,1.114l-1.087-.111a6.95,6.95,0,0,0-.388,1.3l.97.5a5.9,5.9,0,0,0-.036,1.308l-1,.447a6.915,6.915,0,0,0,.315,1.322l1.092-.05a5.881,5.881,0,0,0,.622,1.151l-.639.886a6.925,6.925,0,0,0,.934.987l.92-.589a5.9,5.9,0,0,0,1.114.686L347,298.846a6.922,6.922,0,0,0,1.3.388l.5-.97a5.906,5.906,0,0,0,1.308.036l.448,1a6.927,6.927,0,0,0,1.322-.315l-.051-1.091a5.877,5.877,0,0,0,1.152-.623l.886.639a6.955,6.955,0,0,0,.987-.934l-.589-.92a5.9,5.9,0,0,0,.685-1.114l1.087.111a6.915,6.915,0,0,0,.388-1.3l-.97-.5a5.868,5.868,0,0,0,.037-1.308l1-.448a6.927,6.927,0,0,0-.315-1.322l-1.091.051a5.873,5.873,0,0,0-.623-1.151l.639-.886a6.95,6.95,0,0,0-.934-.987l-.92.589a5.868,5.868,0,0,0-1.115-.685l.111-1.087a6.91,6.91,0,0,0-1.3-.388l-.5.97a5.9,5.9,0,0,0-1.308-.037Z" transform="translate(-178.691 -192.274)" fill="#2ab7f6" fill-rule="evenodd"/>
          <path id="Path_26986" data-name="Path 26986" d="M277.294,290.994a1.386,1.386,0,1,1-1.335,1.436A1.387,1.387,0,0,1,277.294,290.994Zm.479-5.534a6.921,6.921,0,0,0-1.358.05l-.165,1.08a5.92,5.92,0,0,0-1.251.384l-.743-.8a6.9,6.9,0,0,0-1.151.721l.4,1.018a5.91,5.91,0,0,0-.891.958l-1.044-.322a6.9,6.9,0,0,0-.636,1.2l.853.683a5.854,5.854,0,0,0-.293,1.276l-1.065.243a6.932,6.932,0,0,0,.05,1.358l1.08.165a5.929,5.929,0,0,0,.384,1.251l-.8.743a7,7,0,0,0,.721,1.151l1.018-.4a5.91,5.91,0,0,0,.958.891l-.322,1.044a6.929,6.929,0,0,0,1.2.636l.683-.853a5.867,5.867,0,0,0,1.276.293l.243,1.065a6.928,6.928,0,0,0,1.358-.05l.165-1.08a5.919,5.919,0,0,0,1.251-.384l.743.8a6.961,6.961,0,0,0,1.151-.722l-.4-1.017a5.91,5.91,0,0,0,.891-.958l1.044.322a6.911,6.911,0,0,0,.637-1.2l-.853-.683a5.856,5.856,0,0,0,.293-1.275l1.065-.243a6.93,6.93,0,0,0-.05-1.358l-1.08-.165a5.918,5.918,0,0,0-.384-1.251l.8-.743a6.936,6.936,0,0,0-.721-1.152l-1.018.4a5.885,5.885,0,0,0-.958-.891l.322-1.044a6.933,6.933,0,0,0-1.2-.636l-.683.853a5.875,5.875,0,0,0-1.276-.293Z" transform="translate(-147.607 -192.226)" fill="#2ab7f6" fill-rule="evenodd"/>
          <path id="Path_26987" data-name="Path 26987" d="M325.448,290.994a1.386,1.386,0,1,1-1.335,1.436A1.387,1.387,0,0,1,325.448,290.994Zm.479-5.534a6.922,6.922,0,0,0-1.358.05l-.165,1.08a5.928,5.928,0,0,0-1.251.384l-.743-.8a6.908,6.908,0,0,0-1.152.721l.4,1.018a5.911,5.911,0,0,0-.891.958l-1.044-.322a6.934,6.934,0,0,0-.636,1.2l.853.683a5.859,5.859,0,0,0-.293,1.276l-1.065.243a6.887,6.887,0,0,0,.049,1.358l1.08.165a5.933,5.933,0,0,0,.384,1.251l-.8.743a6.967,6.967,0,0,0,.722,1.151l1.018-.4a5.91,5.91,0,0,0,.958.891l-.322,1.044a6.9,6.9,0,0,0,1.2.636l.683-.853a5.862,5.862,0,0,0,1.275.293l.243,1.065a6.928,6.928,0,0,0,1.358-.05l.165-1.08a5.92,5.92,0,0,0,1.251-.384l.743.8a6.94,6.94,0,0,0,1.151-.722l-.4-1.017a5.883,5.883,0,0,0,.891-.958l1.044.322a6.9,6.9,0,0,0,.636-1.2l-.853-.683a5.862,5.862,0,0,0,.293-1.275l1.065-.243a6.925,6.925,0,0,0-.05-1.358l-1.08-.165a5.922,5.922,0,0,0-.384-1.251l.8-.743a6.9,6.9,0,0,0-.722-1.152l-1.018.4a5.885,5.885,0,0,0-.958-.891l.322-1.044a6.933,6.933,0,0,0-1.2-.636l-.683.853a5.859,5.859,0,0,0-1.276-.293Z" transform="translate(-168.298 -192.226)" fill="#2ab7f6" fill-rule="evenodd"/>
          <path id="Path_26988" data-name="Path 26988" d="M373.6,290.994a1.386,1.386,0,1,1-1.336,1.436A1.386,1.386,0,0,1,373.6,290.994Zm.479-5.534a6.927,6.927,0,0,0-1.359.05l-.165,1.08a5.924,5.924,0,0,0-1.251.384l-.743-.8a6.9,6.9,0,0,0-1.152.721l.4,1.018a5.889,5.889,0,0,0-.891.958l-1.044-.322a6.932,6.932,0,0,0-.636,1.2l.853.683a5.924,5.924,0,0,0-.293,1.276l-1.065.243a6.894,6.894,0,0,0,.049,1.358l1.08.165a5.894,5.894,0,0,0,.384,1.251l-.8.743a6.963,6.963,0,0,0,.722,1.151l1.017-.4a5.914,5.914,0,0,0,.959.891l-.322,1.044a6.923,6.923,0,0,0,1.2.636l.683-.853a5.863,5.863,0,0,0,1.275.293l.243,1.065a6.934,6.934,0,0,0,1.358-.05l.165-1.08a5.909,5.909,0,0,0,1.251-.384l.743.8a6.937,6.937,0,0,0,1.151-.722l-.4-1.017a5.89,5.89,0,0,0,.891-.958l1.044.322a6.908,6.908,0,0,0,.636-1.2l-.853-.683a5.924,5.924,0,0,0,.293-1.275l1.065-.243a6.975,6.975,0,0,0-.049-1.358l-1.08-.165a5.855,5.855,0,0,0-.384-1.251l.8-.743a6.9,6.9,0,0,0-.721-1.152l-1.018.4a5.861,5.861,0,0,0-.958-.891l.322-1.044a6.937,6.937,0,0,0-1.2-.636l-.683.853a5.862,5.862,0,0,0-1.275-.293Z" transform="translate(-188.988 -192.226)" fill="#f96a46" fill-rule="evenodd"/>
          <path id="Path_26989" data-name="Path 26989" d="M328.849,200.334a1.142,1.142,0,0,1,.57.414,1.189,1.189,0,0,1-.253,1.593,1.14,1.14,0,0,1-.67.218H240.111a1.14,1.14,0,0,1-.67-.218,1.187,1.187,0,0,1,0-1.846,1.14,1.14,0,0,1,.67-.218H328.5Z" transform="translate(-134.11 -155.631)" fill="#9570ee"/>
          <path id="Path_26990" data-name="Path 26990" d="M315.934,209.948a1.14,1.14,0,0,1,.57.415,1.182,1.182,0,0,1-.252,1.593,1.139,1.139,0,0,1-.671.218H240.113a1.136,1.136,0,0,1-.67-.218,1.191,1.191,0,0,1,0-1.846,1.141,1.141,0,0,1,.67-.218h75.469Z" transform="translate(-134.112 -159.762)" fill="#9570ee"/>
          <path id="Path_26991" data-name="Path 26991" d="M328.85,219.562a1.139,1.139,0,0,1,.57.415,1.182,1.182,0,0,1-.253,1.593,1.136,1.136,0,0,1-.67.218H240.112a1.136,1.136,0,0,1-.67-.218,1.188,1.188,0,0,1,0-1.846,1.144,1.144,0,0,1,.67-.218H328.5Z" transform="translate(-134.111 -163.893)" fill="#9570ee"/>
          <path id="Path_26992" data-name="Path 26992" d="M297.716,229.176a1.141,1.141,0,0,1,.57.415,1.188,1.188,0,0,1-.252,1.593,1.146,1.146,0,0,1-.671.218h-57.25a1.144,1.144,0,0,1-.67-.218,1.193,1.193,0,0,1,0-1.846,1.14,1.14,0,0,1,.67-.217h57.25Z" transform="translate(-134.113 -168.024)" fill="#9570ee"/>
          <path id="Path_26993" data-name="Path 26993" d="M328.85,238.791a1.142,1.142,0,0,1,.57.414,1.189,1.189,0,0,1-.253,1.593,1.14,1.14,0,0,1-.67.218H240.112a1.14,1.14,0,0,1-.67-.218,1.188,1.188,0,0,1,0-1.846,1.136,1.136,0,0,1,.67-.218H328.5Z" transform="translate(-134.111 -172.155)" fill="#9570ee"/>
          <path id="Path_26994" data-name="Path 26994" d="M316.349,248.4a1.142,1.142,0,0,1,.57.414,1.182,1.182,0,0,1-.252,1.593,1.143,1.143,0,0,1-.671.218H240.114a1.14,1.14,0,0,1-.67-.218,1.192,1.192,0,0,1,0-1.846,1.136,1.136,0,0,1,.67-.218H316Z" transform="translate(-134.113 -176.286)" fill="#9570ee"/>
          <path id="Path_26995" data-name="Path 26995" d="M328.851,258.019a1.142,1.142,0,0,1,.57.414,1.189,1.189,0,0,1-.253,1.593,1.14,1.14,0,0,1-.67.218H240.113a1.14,1.14,0,0,1-.67-.218,1.191,1.191,0,0,1,0-1.846,1.14,1.14,0,0,1,.67-.218H328.5Z" transform="translate(-134.112 -180.417)" fill="#9570ee"/>
          <path id="Path_26996" data-name="Path 26996" d="M328.849,267.633a1.14,1.14,0,0,1,.57.415,1.188,1.188,0,0,1-.253,1.593,1.136,1.136,0,0,1-.67.218H240.111a1.136,1.136,0,0,1-.67-.218,1.187,1.187,0,0,1,0-1.846,1.14,1.14,0,0,1,.67-.218H328.5Z" transform="translate(-134.11 -184.548)" fill="#9570ee"/>
          <path id="Path_26997" data-name="Path 26997" d="M275.828,355.318v7.733a10.786,10.786,0,0,1-10.781,10.781H77.148a10.786,10.786,0,0,1-10.781-10.781v-7.733Z" transform="translate(-59.934 -222.248)" fill="#bbcee1" fill-rule="evenodd"/>
          <text id="WEBdevelopment" transform="translate(38.39 27.702)" fill="#2ab7f6" font-size="11" font-family="SegoeUI, Segoe UI"><tspan x="0" y="0">WE</tspan><tspan y="0" letter-spacing="0.4em">B</tspan><tspan y="0">d</tspan><tspan y="0" letter-spacing="-0.019em">e</tspan><tspan y="0">ve</tspan><tspan y="0" letter-spacing="-0.059em">l</tspan><tspan y="0">opment</tspan></text>
          <path id="Path_27113" data-name="Path 27113" d="M0,0H63.649V62.1H0Z" transform="matrix(0.134, -0.991, 0.991, 0.134, 25.927, 103.516)" fill="#2eccfc"/>
          <path id="Path_26998" data-name="Path 26998" d="M133.588,219.08a4.03,4.03,0,1,1-4.03,4.03A4.033,4.033,0,0,1,133.588,219.08Zm1.975-16.025a20.14,20.14,0,0,0-3.951,0l-.593,3.12a17.111,17.111,0,0,0-3.675.984l-2.074-2.4a20.126,20.126,0,0,0-3.421,1.975l1.045,3a17.137,17.137,0,0,0-2.69,2.69l-3-1.046a20.11,20.11,0,0,0-1.976,3.421l2.405,2.074a17.147,17.147,0,0,0-.985,3.675l-3.12.594a20.229,20.229,0,0,0,0,3.951l3.12.593a17.148,17.148,0,0,0,.985,3.675l-2.405,2.074a20.09,20.09,0,0,0,1.976,3.421l3-1.045a17.139,17.139,0,0,0,2.69,2.69l-1.045,3a20.09,20.09,0,0,0,3.421,1.976l2.074-2.405a17.147,17.147,0,0,0,3.675.985l.593,3.119a20.142,20.142,0,0,0,3.951,0l.594-3.119a17.147,17.147,0,0,0,3.675-.985l2.074,2.405a20.112,20.112,0,0,0,3.421-1.976l-1.046-3a17.118,17.118,0,0,0,2.69-2.69l3,1.045a20.167,20.167,0,0,0,1.976-3.421l-2.405-2.074a17.114,17.114,0,0,0,.984-3.675l3.12-.593a20.147,20.147,0,0,0,0-3.951l-3.12-.594a17.113,17.113,0,0,0-.984-3.675l2.405-2.074a20.188,20.188,0,0,0-1.976-3.421l-3,1.046a17.117,17.117,0,0,0-2.69-2.69l1.046-3a20.148,20.148,0,0,0-3.421-1.975l-2.074,2.4a17.111,17.111,0,0,0-3.675-.984Z" transform="translate(-80.158 -156.783)" fill="#fff" fill-rule="evenodd"/>
          <path id="Path_26999" data-name="Path 26999" d="M176.51,263.106a6.329,6.329,0,1,1-4.689,7.625A6.332,6.332,0,0,1,176.51,263.106Zm-.411-7.581a13.9,13.9,0,0,0-2.644.63l.1,2.183a11.811,11.811,0,0,0-2.3,1.245l-1.771-1.278a13.908,13.908,0,0,0-1.974,1.868l1.178,1.84a11.8,11.8,0,0,0-1.371,2.229l-2.174-.221a13.872,13.872,0,0,0-.776,2.6l1.94,1a11.773,11.773,0,0,0-.072,2.616l-1.993.9a13.852,13.852,0,0,0,.631,2.643l2.183-.1a11.777,11.777,0,0,0,1.245,2.3l-1.279,1.772a13.873,13.873,0,0,0,1.868,1.974l1.839-1.179a11.776,11.776,0,0,0,2.229,1.371l-.221,2.173a13.878,13.878,0,0,0,2.605.776l1-1.94a11.808,11.808,0,0,0,2.617.072l.895,1.993a13.89,13.89,0,0,0,2.644-.63l-.1-2.183a11.794,11.794,0,0,0,2.3-1.245l1.771,1.278a13.844,13.844,0,0,0,1.974-1.868l-1.178-1.84a11.8,11.8,0,0,0,1.371-2.229l2.174.221a13.872,13.872,0,0,0,.776-2.6l-1.94-1a11.771,11.771,0,0,0,.072-2.616l1.993-.895a13.847,13.847,0,0,0-.631-2.644l-2.182.1a11.779,11.779,0,0,0-1.246-2.3l1.279-1.772a13.876,13.876,0,0,0-1.868-1.974l-1.84,1.178A11.8,11.8,0,0,0,183,258.6l.221-2.174a13.877,13.877,0,0,0-2.605-.776l-1,1.941a11.767,11.767,0,0,0-2.616-.073Z" transform="translate(-101.988 -179.37)" fill="#fff" fill-rule="evenodd"/>
          <path id="Path_27000" data-name="Path 27000" d="M144.459,281.926a1.386,1.386,0,1,1-1.027,1.67A1.386,1.386,0,0,1,144.459,281.926Zm-.618-5.52a6.921,6.921,0,0,0-1.322.315l.05,1.091a5.891,5.891,0,0,0-1.151.623l-.886-.639a6.893,6.893,0,0,0-.987.934l.589.92a5.881,5.881,0,0,0-.686,1.114l-1.087-.111a6.911,6.911,0,0,0-.388,1.3l.97.5a5.9,5.9,0,0,0-.036,1.308l-1,.447a6.918,6.918,0,0,0,.315,1.322l1.091-.05a5.888,5.888,0,0,0,.623,1.151l-.639.886a6.922,6.922,0,0,0,.934.987l.92-.589a5.9,5.9,0,0,0,1.114.686l-.111,1.087a6.909,6.909,0,0,0,1.3.388l.5-.97a5.905,5.905,0,0,0,1.308.036l.448,1a6.94,6.94,0,0,0,1.322-.315l-.051-1.091a5.888,5.888,0,0,0,1.151-.623l.886.639a6.957,6.957,0,0,0,.987-.934l-.589-.92a5.867,5.867,0,0,0,.685-1.114l1.087.111a6.909,6.909,0,0,0,.388-1.3l-.97-.5a5.905,5.905,0,0,0,.037-1.308l1-.448a6.926,6.926,0,0,0-.315-1.322l-1.091.051a5.875,5.875,0,0,0-.623-1.151l.639-.886a6.922,6.922,0,0,0-.934-.987l-.92.589a5.846,5.846,0,0,0-1.114-.685l.111-1.087a6.912,6.912,0,0,0-1.3-.388l-.5.97a5.9,5.9,0,0,0-1.308-.037Z" transform="translate(-90.675 -188.342)" fill="#fff" fill-rule="evenodd"/>
        </g>
        <g id="Group_8210" data-name="Group 8210" transform="translate(166.2 124.825)">
          <path id="Path_27001" data-name="Path 27001" d="M404.4,456.576,391.969,453.9a1.17,1.17,0,0,1-.2-.063,1.186,1.186,0,0,1-.039-2.087,1.238,1.238,0,0,1,.617-.1l.1.018,23.3,5.018c8.651.39,14.864,1.453,14.864,2.7,0,1.579-9.93,2.861-22.162,2.861s-22.163-1.282-22.163-2.861c0-.519,1.074-1.006,2.95-1.426l-13.88-2.99a1.191,1.191,0,0,1-.5-1.978,1.144,1.144,0,0,1,.566-.263.889.889,0,0,1,.315-.006l.1.018,19.954,4.3C398.322,456.813,401.242,456.652,404.4,456.576Z" transform="translate(-347.761 -318.556)" fill="#1a1e51" fill-rule="evenodd" opacity="0.5"/>
          <path id="Path_27002" data-name="Path 27002" d="M345.248,242.36v0ZM364.8,232.62v8.533H362.37v-2.3l-5.134.081a15.516,15.516,0,0,1,.8,2.285l-.018-.066H345.226c-.03-.964-.08-2.374-.134-3.783q.014.368.027.733h8.952a1.22,1.22,0,0,0,.715-.232,1.261,1.261,0,0,0,.269-1.7,1.217,1.217,0,0,0-.609-.442l-.376-.059H350.4l-.022-.177a7.1,7.1,0,0,1-3.048-.826v1h-2.3c-.054-1.385-.1-2.57-.122-3.05h13.638l-.011-.11a6.934,6.934,0,0,1-.076,2.8,5.682,5.682,0,0,1-.76,1.179l4.675-.074v-3.8Zm-19.909,12.839a9.792,9.792,0,0,1-4.756-1.913l.05.04H364.8v3.05H362.37v-1.264l-3.175.05.335,1.215H348.354c-.185-.581-.322-.994-.322-.994s-.622.033-.7.03v.963h-2.433Zm3.222-26.19a9.234,9.234,0,0,1,2.606-.242,9.838,9.838,0,0,1,1.8.229l-.162-.035h-4.038C348.253,219.236,348.184,219.251,348.117,219.269Zm4.41-.012.156.037-.077-.019Zm-4.479.029-.067.018.134-.034Zm-.068.018-.064.018.029-.008Zm4.708-.008.152.04-.076-.021Zm.157.041.075.021Zm-5,0-.064.019.129-.037Zm-.068.02-.06.018.03-.009Zm5.181.009.035.01-.075-.022Zm.038.011.073.022Zm-5.347.02-.062.02.125-.04Zm-.068.022-.057.019.031-.011Zm5.493-.018.143.046-.071-.023Zm-5.617.059-.059.021.12-.042Zm5.767-.011.138.048-.068-.024Zm-5.834.035-.055.02.033-.012Zm-.059.022-.061.022Zm6.039-.006.135.05-.067-.025Zm-6.1.029-.055.021.017-.007Zm-.065.025-.054.021.035-.014Zm6.309,0,.066.026Zm-6.365.024-.058.023Zm6.468.017.031.013-.063-.025Zm-6.531.009-.05.021.018-.008Zm6.568.006.064.027Zm-6.629.02-.052.023.038-.017Zm6.725.021.038.017-.063-.027Zm-6.779,0-.056.025Zm6.819.014.063.027Zm-6.883.014-.046.021.019-.009Zm6.955.018.123.056-.061-.029Zm-7.065.032-.053.026.106-.05Zm-.064.03-.043.021.021-.01Zm7.261,0,.06.029Zm.1.047.023.011-.056-.028Zm-7.464.006-.051.026.1-.052Zm7.5.01.058.03Zm-7.559.021-.041.022.021-.011Zm7.65.026.028.015-.054-.028Zm-7.7,0-.051.027Zm7.736.018.056.031Zm-7.789.01-.047.026.011-.006Zm-.059.033-.039.022.023-.013Zm7.934,0,.034.019-.054-.03Zm-7.984.023-.048.028Zm8.02,0,.056.032Zm-8.075.034-.042.025.012-.007Zm-.054.032-.039.023.025-.015Zm8.2-.027.109.065-.054-.033Zm-8.243.056-.047.029Zm8.363.015.053.033Zm-8.418.018-.038.023.013-.008Zm8.5.037.021.013-.048-.031Zm-8.555-.005-.038.025.026-.017Zm8.585.025.051.034Zm-8.631.005-.046.029Zm-.056.036-.035.023.014-.01Zm8.768.013.025.017-.046-.031Zm-8.815.018-.039.027.029-.02Zm8.847,0,.05.035Zm-8.892.027-.044.03Zm8.969.027.031.022-.047-.034Zm-9.024.011-.033.023.015-.011Zm9.057.013.049.036Zm-9.1.019-.041.029.033-.023Zm9.163.025.048.036Zm-9.206.006-.042.031Zm-.054.039-.032.024.016-.012Zm9.341.016.015.012-.046-.035Zm-9.384.017-.042.031Zm9.409,0,.047.036Zm-9.453.03-.038.03.007-.006Zm9.53.031.019.015-.042-.034Zm-9.58.009-.031.025.017-.014Zm9.608.014.046.038Zm-9.649.019-.04.032Zm9.722.041.023.019-.041-.034Zm-9.767,0-.034.028.009-.007Zm-.046.038-.03.025.018-.015Zm9.842-.009.044.039Zm-9.882.042-.038.033Zm9.95.017.029.026-.043-.038Zm-10,.022-.031.027.01-.009Zm10.026.006.044.039Zm-10.069.031-.03.027.019-.018Zm10.123.017.043.04Zm-10.161.017-.037.034Zm10.233.051.014.013-.039-.038Zm-10.279-.01-.029.026.01-.01Zm-.04.036-.03.029.022-.021Zm10.342,0,.041.04Zm-10.379.039-.036.034Zm10.446.027.017.017-.036-.036ZM345.1,220.9l-.027.026.011-.011Zm10.516.009.04.042Zm-10.554.027-.031.031.024-.024Zm10.618.039.021.022-.037-.038Zm-10.653,0-.034.035Zm-.044.044-.026.027.012-.013ZM355.7,221l.039.042Zm-10.759.05-.034.035Zm10.818.014.027.03-.038-.042Zm.028.031.039.044Zm.048.054.038.043Zm.063.074.013.015-.035-.041Zm.021.025.037.044Zm.059.072.016.02-.033-.04Zm.023.028.035.045Zm.056.071.019.025-.033-.042Zm.023.031.035.046Zm.052.07.025.034-.035-.047Zm-13.51.035-.009,0Zm-.026.013-.012.006Zm-.027.013-.014.007Zm13.608,0,.007.01-.008-.01Zm-13.635.015-.016.009Zm-.027.014-.019.01Zm13.682,0,.01.014-.012-.015Zm-13.708.018-.022.012.018-.01Zm15.818,8.34c-.066-.22-.134-.44-.2-.659.03.21.062.432.095.66Zm-2.093-8.335a5.417,5.417,0,0,1,.489.8,25.07,25.07,0,0,1,2.195,7.523l3.468-.054V227.11a1.617,1.617,0,0,1,.233-.715,1.438,1.438,0,0,1,.984-.5l.376.06a1.437,1.437,0,0,1,.781.781,2.447,2.447,0,0,1,.06.376v3.077H344.083l.019.127c-.192-1.239-.382-3.162-.382-3.162q-.012-.093-.021-.186-.172-.494-.321-.992l-2.367.528a4.349,4.349,0,0,1,.026-2.939,2.31,2.31,0,0,0-.625,1.624c0,.077.028.241-.009.137-.5-1.486.946-3.063,2.064-3.683l-.026.014h13.795Zm-12.115,8.7.019.123C344.117,230.41,344.111,230.369,344.1,230.327Zm.03.189,0,.03,0-.023Zm.012.073.006.031,0-.015Zm.013.075,0,.025v-.006Zm.016.089,0,.02,0-.015Zm.013.065,0,.022,0-.01Zm.013.067,0,.017v0Zm.015.072,0,.015,0-.011Zm.012.054.006.025,0-.015Zm.007.032.009.036Zm.01.041.008.03,0-.012Zm.01.037.009.031Zm.01.036.007.025,0-.01Zm.009.031.008.026Zm.01.03.007.021,0-.007Zm.01.028,0,0v0Zm.006.015v0h0Zm.007.016v0Zm.005.011,0,0v0Zm.006.011v0h0Zm.006.011v0Zm.057.007h0l0-.006Zm-.052,0,0,0v0Zm.05,0,0,0,0,0Zm-.047,0,0,0Zm.044,0,0,0Zm-.039,0,0,0h0Zm.034,0,0,0,0,0Zm-.03,0,0,0Zm.028,0,0,0Zm-.024,0,0,0h0Zm.019,0h0Zm0,0h0Zm-.011,0h0Zm.009,0h0Zm0,0h0Zm14.886,1.174a4.688,4.688,0,0,1-.006,1.866A5.123,5.123,0,0,0,359,232.56l.014.06h.245l-.031-.236Zm-25.659,3.656.036.015-.067-.027Zm-.757.212-2.529-1.236a.811.811,0,0,1-1.013.29,2.378,2.378,0,0,1-.562-.419h0l-.025-.024h0l-.025-.024h0l-.025-.024h0l-.025-.025h0l-.025-.025h0l-.025-.025h0l-.025-.025h0l-.018-.019-.007-.007,0,0,0,0,0,0,0,0-.006-.006,0,0h0l-.014-.015,0,0,0,0-.006-.006,0,0,0,0,0,0,0,0-.007-.007,0,0h0l-.014-.015,0,0,0,0-.006-.006,0,0,0,0,0,0,0,0-.008-.009,0,0h0l-.012-.013,0,0,0,0,0,0-.005-.006,0,0,0,0,0,0,0,0-.009-.01,0,0,0,0-.01-.01,0,0,0,0,0,0,0-.005-.005-.005,0,0,0,0,0,0-.011-.013h0l0,0-.008-.009,0,0,0,0,0,0,0,0-.006-.006,0,0,0,0-.014-.015h0l0,0-.007-.008,0,0,0,0,0,0,0,0-.006-.006,0,0,0,0-.013-.015h0l0,0-.006-.007,0,0,0,0,0,0,0,0-.007-.007,0,0h0l-.013-.015h0l0,0-.006-.006,0,0,0,0,0,0,0,0-.007-.009,0,0h0l-.013-.015,0,0,0,0-.005-.005,0,0,0,0,0,0,0,0-.009-.01,0,0v0l-.01-.011,0,0,0,0,0,0,0-.005,0-.005,0,0,0,0,0,0,0,0-.009-.01-.007-.009,0,0,0,0-.018-.022h0l0,0-.009-.01-.007-.008,0,0,0,0-.018-.021h0l0,0-.009-.011-.006-.007,0,0,0,0-.017-.02h0v0l-.01-.011-.005-.006,0,0,0,0-.017-.019h0l-.01-.013,0-.006,0,0,0,0-.015-.019h0l-.011-.013,0-.005,0,0,0,0,0,0-.01-.013h0l-.015-.018,0,0,0,0,0,0-.006-.007-.007-.009,0,0,0,0-.017-.021h0l0,0-.01-.013,0,0,0,0,0,0,0-.006-.007-.009,0,0h0l-.014-.017h0l0,0-.007-.009,0,0,0,0,0,0,0,0-.006-.007,0,0h0l0,0-.009-.011-.005-.006,0,0,0,0-.012-.016h0l-.006-.008,0,0h0v0l0,0,0,0,0,0,0,0-.005-.006h.027l.056,0,.036,0,.047,0h1.263l.018,0h.055l.017,0h.056l.017,0h.019l.017,0h0l.033,0h0l.033,0h0l.033,0h0l.017,0a2.159,2.159,0,0,1,.583.139.811.811,0,0,1,.448.939l1.591.636.341.136h-.962Zm1.55.1.088.035-.2-.08Zm.4.159.234.094-.379-.152Zm-1.485-.038.3.145-.216-.1Zm1.839.18.487.2Zm9.948.088.007.184-.019-.5Zm-11.081.076.317.154-.172-.084Zm1.969.172.156.063-.39-.157Zm.4.16.042.017-.1-.038Zm-1.661.011.327.159-.119-.058Zm3.542.338,0,0,0,0Zm.014.014,0,0-.005-.005Zm.013.014,0,0-.005-.006Zm.013.014,0,0-.005-.006Zm.012.015,0,0-.005-.006Zm.011.014,0,0-.005-.006Zm.011.015,0,0,0-.006Zm.011.015,0,0,0-.006Zm.011.015v0l0-.006Zm.01.016h0l0-.006Zm.01.015h0l0,0Zm.01.017,0,0,0,0Zm-2.958-.156.33.16-.062-.03Zm2.967.172,0,.006,0-.006Zm.009.017,0,.006,0-.007Zm.009.017,0,.006,0-.007Zm.008.017,0,.005,0-.008Zm.007.017,0,0,0-.008Zm.007.017,0,0,0-.008Zm.007.018v0l0-.009Zm.007.018v0l0-.009Zm.007.018v0l0-.01Zm.006.018v0l0-.011Zm0,.005c.005.015.01.031.015.047C338.451,238,338.446,237.984,338.441,237.969Zm.015.05,0,.013,0-.015Zm0,.015.009.034Zm.009.034c.007.027.014.055.019.083,1.019.421,4.139,1.5,4.139,1.5-.036.57-.6,1.569-2.823-.051-.423-.309-.316.548.438,1.538l.011.015h-2a12.859,12.859,0,0,1-1.2-1.933,1.087,1.087,0,0,1-.61-1.06c0-.007,0-.014,0-.021l-.074-.036h2.11Zm-.15,3.182h0l0-.006Zm2.029.022,0,.006,0,0Zm17.7.009,0,.017-.013-.046Zm-17.677.024,0,.005,0,0Zm17.7.072,0,.007-.009-.033Zm-17.628.016.006.007,0,0Zm-2.032,0,.016.023-.041-.062Zm2.059.028.009.011,0-.006Zm4.755-.026v.055l0-.07Zm-4.725.06.009.01-.007-.007Zm-2.061-.021.046.07Zm2.139.106.012.014,0,0Zm.031.034.014.015-.007-.009Zm-2.114-.054.047.073Zm2.147.088.015.015-.013-.013Zm.047.049.017.017,0,0Zm-2.086.031.006.011-.008-.014Zm2.122,0,.017.017-.006-.006Zm.035.035.018.018-.011-.011Zm-2.126.01.007.011-.011-.017Zm2.161.025.023.022-.02-.019Zm-2.131.026.006.009-.011-.019Zm2.179.019.023.022,0,0Zm-2.148.031,0,.006-.011-.018Zm2.188.007.021.019-.009-.008Zm-2.157.044,0,0-.009-.015Zm2.2-.009.022.021-.015-.014Zm.039.035.036.032Zm.05.044.026.023-.006,0Zm-2.235.014.006.011-.005-.009Zm6.464.01v0Zm-4.186.014.025.021-.011-.01Zm-2.258.01.007.013,0-.008Zm.021.034.008.013,0-.006Zm2.278-.009.027.023-.02-.017Zm-2.257.043.007.012,0,0Zm6.4-.017v0Zm-4.1.009.04.033Zm-2.276.045.005.009h0Zm2.33,0,.029.023-.007-.006Zm-2.3.043,0,.007,0-.006Zm2.349-.006.027.022-.014-.011Zm4.007-.025c0,.023,0,.046,0,.066Zm-6.335.064.007.011-.005-.008Zm2.371,0,.032.026-.026-.021Zm-2.35.037.008.013,0-.007Zm6.313.019v0Zm-3.92-.023.043.033Zm-2.372.037.008.012,0-.005Zm2.43.007.031.023-.01-.007Zm3.862.023v0Zm-6.269,0,.007.011,0,0Zm2.454.009.031.022-.018-.013Zm3.814.023v0Zm-6.242.007,0,0h0Zm6.24.02v0Zm-3.767-.017.041.029-.035-.025Zm.047.033.046.032Zm-2.5,0,.035.05Zm2.558.045.033.022-.013-.008Zm.05.034.034.023-.022-.014Zm-2.565-.019.035.048Zm2.614.051.048.031Zm-2.572.005.036.049-.022-.03Zm2.626.03.043.027-.007,0Zm.06.038.035.022-.015-.009Zm-2.648-.017.038.049Zm2.7.05.037.022-.026-.015Zm-2.656.009.038.047Zm2.707.022.051.03Zm.062.036.042.024-.01-.005Zm-2.724,0,.039.048Zm2.784.037.036.021-.018-.01Zm.054.03.042.023-.031-.017Zm-2.8-.018.039.047-.015-.018Zm2.852.047.054.029Zm-2.807.007.039.046Zm2.874.029.041.022-.011-.006Zm.06.031.039.019-.021-.011Zm-2.888-.006.04.046Zm2.945.034.048.024-.039-.019Zm.056.028.056.027Zm-2.958-.012.039.044-.019-.021Zm3.031.046.042.019-.014-.006Zm.062.028.041.018-.025-.011Zm-3.048-.026.04.044Zm3.107.052.059.026-.051-.022Zm-3.059,0,.041.044Zm.046.049.042.044-.023-.025Zm.044.046.042.043Zm.049.05.042.043Zm.092.092.045.043-.09-.086Zm.05.048.044.042Zm.1.089.047.042-.094-.084Zm.05.045.046.041Zm.051.045.047.041Zm.1.084.049.04-.1-.083Zm8.355,3.411.006.018-.007-.023Zm.046.145.009.027-.011-.036Zm.047.15.01.033-.013-.042Zm.048.153.011.037-.014-.044Zm.048.156.011.037-.013-.042Zm.048.157.007.023-.007-.024Zm.145.477h0l-.008-.029Zm.047.159,0,.005-.017-.055Zm.046.157,0,.009-.018-.062Zm.044.155,0,.013-.019-.064Zm.044.152,0,.016-.018-.065Zm.042.149.005.019-.018-.064Zm-1.72.145v.624l1.911-.03c-.04-.174-.092-.376-.151-.594H360.2l-.113-.411.229.83,2.052-.032v-.388H364.8v36.994H362.37v-1.552l-.527.008c.027.473.056,1.085.088,1.544H357.78c-.094-.443-.184-1.032-.272-1.475l-3.408.054c.313.466.611,1.044.874,1.422h-4.48c-.389-.4-.774-.942-1.145-1.347l-2.022.031v1.316h-2.433V249.069Zm13.66,2.842,1.123,4.068.259,0V251.89Zm-11.283.177-2.377.038v4.085l2.751-.043A34.18,34.18,0,0,0,349.7,252.089Zm.374,6.513-2.751.043v4.085l2.48-.039c.044-.526.1-1.108.143-1.74C350,260.232,350.053,259.447,350.078,258.6Zm12.194,6.327c-.092,1.189-.19,2.575-.279,4.09l.377-.006v-4.085Zm-6.767,4.192c-.013-.184-.025-.368-.036-.552q-.144.28-.291.557Zm-5.863-3.993-2.314.036v4.085l.848-.013C348.658,267.78,349.171,266.37,349.642,265.127Zm-2.241,6.582h-.074v.254Zm14.461-.228c-.061,1.306-.112,2.671-.146,4.06l.654-.01v-4.058Zm-6.171.1-1.885.029c-.656,1.163-1.31,2.315-1.9,3.47a6.645,6.645,0,0,0-.266.622l4.459-.07q-.093-.784-.175-1.551l-.014-.133Q355.79,272.762,355.691,271.579ZM361.676,278l0,.216c-.007,1.289.014,2.578.057,3.841l.639-.01v-4.058Zm-5.261.083-5.552.087a11.527,11.527,0,0,0,1.691,4.031l4.5-.071C356.812,280.772,356.6,279.417,356.415,278.086Zm-9.087,4.2.122,0c-.042-.066-.082-.133-.122-.2Z" transform="translate(-327.618 -218.6)" fill="rgba(210,210,210,0.3)"/>
          <path id="Path_27003" data-name="Path 27003" d="M374.6,355.423a2.06,2.06,0,0,1-.3.034,3.463,3.463,0,0,1-.5-.021Zm-14.258.224v4.085l15.042-.236V355.41Zm0,6.518v4.085l15.042-.237v-4.085Zm0,6.519v4.085l15.042-.236v-4.085Zm17.476,4.872H357.911V355.041H377.82Z" transform="translate(-340.634 -277.047)" fill="rgba(178,175,174,0.3)"/>
          <path id="Path_27004" data-name="Path 27004" d="M372.042,341.4l-11.7.184v4.085l13.285-.209.1-.116-.012-.051c-.288.007-.5-.043-.547-.181C372.767,343.911,372.392,342.669,372.042,341.4Zm3.344-4.941h2.434v10.592H357.911V336.456h2.433v2.691l5.415-.085c.1-.125.217-.257.341-.388a1.3,1.3,0,0,1-.418-.189c-.666-.735-1.385-1.306-2.094-2.029h4.458c.453.651.792.986.9,1.185a2.845,2.845,0,0,1-.21.327,4.037,4.037,0,0,1,.2,1.044l2.481-.039c-.213-.88-.415-1.623-.6-2.517h4.14c.063.9.135,1.629.211,2.458l.223,0Z" transform="translate(-340.634 -269.061)" fill="rgba(0,0,0,0.3)"/>
          <path id="Path_27005" data-name="Path 27005" d="M360.619,287.184l.062-.04.043.038Zm9.2,3.81a1.386,1.386,0,1,1-1.336,1.436A1.386,1.386,0,0,1,369.818,290.994Zm-1.3,6.67c-.013-.184-.025-.368-.037-.552q-.144.28-.291.557Zm-10.61-11.986a7.007,7.007,0,0,1,.846.283l-.111,1.087a5.867,5.867,0,0,1,1.115.685l.583-.374v3.914l2.48-.039c.014-.166.029-.337.043-.513a6.817,6.817,0,0,1,.137.719l-1,.448a5.872,5.872,0,0,1-.036,1.308l.97.5a6.91,6.91,0,0,1-.388,1.3l-.377-.039c.163-.446.325-.878.481-1.291l-2.314.036v4.085l.126,0-.086.068-.886-.639a5.88,5.88,0,0,1-1.151.623l.051,1.091q-.24.083-.487.148v-4.02a3.215,3.215,0,0,0,0-5.362ZM375.1,296.043l-.5-.155a5.89,5.89,0,0,1-.891.958l.4,1.017a6.937,6.937,0,0,1-1.151.722l-.743-.8a5.909,5.909,0,0,1-1.251.384l-.165,1.08a6.934,6.934,0,0,1-1.359.05l-.243-1.065a5.862,5.862,0,0,1-1.275-.293l-.683.853a6.924,6.924,0,0,1-1.2-.636l.322-1.044a5.914,5.914,0,0,1-.959-.891l-1.017.4a6.967,6.967,0,0,1-.722-1.151l.8-.743a5.9,5.9,0,0,1-.384-1.251l-1.08-.165a6.884,6.884,0,0,1-.049-1.358l1.065-.243a5.922,5.922,0,0,1,.293-1.276l-.853-.683a6.936,6.936,0,0,1,.637-1.2l1.044.322a5.887,5.887,0,0,1,.891-.958l-.4-1.018a6.9,6.9,0,0,1,1.151-.721l.743.8a5.923,5.923,0,0,1,1.251-.384l.165-1.08a6.927,6.927,0,0,1,1.358-.05l.243,1.065a5.861,5.861,0,0,1,1.275.293l.683-.853a6.929,6.929,0,0,1,1.2.636l-.322,1.044a5.863,5.863,0,0,1,.958.891l1.018-.4a6.9,6.9,0,0,1,.721,1.152l-.8.743a5.855,5.855,0,0,1,.384,1.251l1.08.165a6.965,6.965,0,0,1,.049,1.358l-1.065.243a5.924,5.924,0,0,1-.293,1.275l.853.683a6.906,6.906,0,0,1-.636,1.2l-.26-.08v-2.659h-.1C375.228,294.251,375.166,295.115,375.1,296.043Z" transform="translate(-340.634 -247.144)" fill="#2ab7f6" fill-rule="evenodd"/>
          <path id="Path_27006" data-name="Path 27006" d="M355.19,219.373a6.009,6.009,0,0,1,3.8,2.335c.026.033.051.065.075.1h-13.8c.072-.04.143-.077.211-.109.163-.077.33-.147.5-.208a3.285,3.285,0,0,1,.624-.177,3.99,3.99,0,0,1,.853-.086c.094,0,.187.006.279.015a6.523,6.523,0,0,1,3.413-1.867Zm-8.278,10.967h20.721v2.433H365.2v-.286l-3.147.05.031.236h-.245l-.014-.06-.039-.172-.436.007c.007.075.015.15.022.225H347.733l-.009-.229a5.788,5.788,0,0,1-.512-1.078C347.134,231.613,347.022,231.074,346.912,230.34Zm6.315,5.483H356.9l.376.059a1.217,1.217,0,0,1,.608.442,1.261,1.261,0,0,1-.269,1.7,1.216,1.216,0,0,1-.715.232h-8.952c-.03-.815-.063-1.656-.093-2.433h2.3v.986l1.779-.028.228-.322a4.488,4.488,0,0,1,1.084-.469Zm-18.063,0c1.474.587,2.944,1.172,4.419,1.771.013-.042.025-.08.034-.1a.662.662,0,0,1,.163-.172.648.648,0,0,1,.235.005.543.543,0,0,1,.193.176c.06.082.206.233.243.216a1.617,1.617,0,0,1,.248-.059.65.65,0,0,1,.111.022l.01,0,.233.095a.933.933,0,0,1,.254.487H339.2q-2.5-1.211-4.995-2.433Zm30.035,5.483h2.434v2.433H343.018a5.925,5.925,0,0,1-1.425-1.64c-.158-.272-.332-.534-.51-.793h2a5.943,5.943,0,0,0,2.373,1.827c1.989.851,2.539.095,2.62-.61.009-.073,0-.532-.022-1.217h12.792c.029.1.059.212.088.322l.421,1.523,3.844-.06Zm2.434,7.916H365.2v-2.433h2.434Zm-16.449-2.433H362.36l.672,2.433H351.917C351.71,248.462,351.411,247.5,351.184,246.789Zm-1.027,2.433h-2.433v-2.433h2.433Z" transform="translate(-330.447 -218.753)" fill="rgba(0,0,0,0.3)"/>
          <path id="Path_27007" data-name="Path 27007" d="M360.661,230.85a2.48,2.48,0,0,1,.327.194,1.221,1.221,0,0,1,.4.636l33.568,131.97a1.215,1.215,0,0,1-.048.75,1.271,1.271,0,0,1-1.908.485,1.214,1.214,0,0,1-.4-.636L359.032,232.28a1.464,1.464,0,0,1,.243-1.078,1.442,1.442,0,0,1,1.015-.436Z" transform="translate(-341.111 -223.649)" fill="#2ab7f6"/>
          <path id="Path_27008" data-name="Path 27008" d="M389.827,229.44a2.508,2.508,0,0,1,.327.194,1.216,1.216,0,0,1,.4.636l33.568,131.97a1.211,1.211,0,0,1-.049.75,1.271,1.271,0,0,1-1.908.485,1.217,1.217,0,0,1-.4-.636L388.2,230.871a1.62,1.62,0,0,1,.049-.751,1.238,1.238,0,0,1,.83-.729A1.626,1.626,0,0,1,389.827,229.44Z" transform="translate(-353.639 -223.046)" fill="#2ab7f6"/>
          <path id="Path_27009" data-name="Path 27009" d="M382.21,251.724a1.043,1.043,0,0,1,.571.19,1.259,1.259,0,0,1,.139,1.943,1.284,1.284,0,0,1-.8.3H366.247a1.266,1.266,0,0,1-.919-2.013,1.231,1.231,0,0,1,.747-.408,1.176,1.176,0,0,1,.173-.012h15.876Z" transform="translate(-343.707 -232.652)" fill="#2ab7f6"/>
          <path id="Path_27010" data-name="Path 27010" d="M386.043,264.606a1.265,1.265,0,0,1,.833,2.01,1.232,1.232,0,0,1-.746.408,1.187,1.187,0,0,1-.173.012H370.08a1.257,1.257,0,0,1-.919-2.013,1.23,1.23,0,0,1,.746-.407,1.264,1.264,0,0,1,.173-.013h15.876Z" transform="translate(-345.351 -238.187)" fill="#2ab7f6"/>
          <path id="Path_27011" data-name="Path 27011" d="M387.837,277.489a1.248,1.248,0,0,1,.5,2.281,1.04,1.04,0,0,1-.583.149H371.874a1.04,1.04,0,0,1-.583-.149,1.216,1.216,0,0,1,.583-2.284H387.75Z" transform="translate(-346.123 -243.723)" fill="#2ab7f6"/>
          <path id="Path_27012" data-name="Path 27012" d="M395.383,303.254a1.265,1.265,0,0,1,.833,2.01,1.227,1.227,0,0,1-.746.407,1.166,1.166,0,0,1-.173.013H379.421a1.044,1.044,0,0,1-.583-.149,1.217,1.217,0,0,1,.583-2.284H395.3Z" transform="translate(-349.367 -254.794)" fill="#2ab7f6"/>
          <path id="Path_27013" data-name="Path 27013" d="M398.825,316.136a1.279,1.279,0,0,1,1.053,1.639,1.241,1.241,0,0,1-.967.779,1.268,1.268,0,0,1-.173.013H382.862a1.276,1.276,0,0,1-1.14-1.642,1.218,1.218,0,0,1,1.14-.792h15.876Z" transform="translate(-350.837 -260.329)" fill="#2ab7f6"/>
          <path id="Path_27014" data-name="Path 27014" d="M401.739,329.019a1.271,1.271,0,0,1,.937,1.871,1.233,1.233,0,0,1-.85.547,1.262,1.262,0,0,1-.173.012H385.776a1.271,1.271,0,0,1-1.167-1.559,1.218,1.218,0,0,1,1.167-.874h15.876Z" transform="translate(-352.087 -265.864)" fill="#2ab7f6"/>
          <path id="Path_27015" data-name="Path 27015" d="M404.6,341.9a1.275,1.275,0,0,1,.833,2.01,1.231,1.231,0,0,1-.747.407,1.255,1.255,0,0,1-.173.013H388.639a1.256,1.256,0,0,1-.919-2.013,1.228,1.228,0,0,1,.746-.408,1.167,1.167,0,0,1,.173-.012h15.876Z" transform="translate(-353.325 -271.4)" fill="#2ab7f6"/>
          <path id="Path_27016" data-name="Path 27016" d="M408.475,354.784a1.271,1.271,0,0,1,.936,1.871,1.234,1.234,0,0,1-.85.546,1.158,1.158,0,0,1-.173.012H392.512a1.04,1.04,0,0,1-.583-.148,1.217,1.217,0,0,1,.583-2.285h15.876Z" transform="translate(-354.99 -276.935)" fill="#2ab7f6"/>
          <path id="Path_27017" data-name="Path 27017" d="M411.676,367.667a1.279,1.279,0,0,1,1.053,1.639,1.243,1.243,0,0,1-.967.779,1.265,1.265,0,0,1-.173.013H395.714a1.255,1.255,0,0,1-.919-2.013,1.227,1.227,0,0,1,.746-.407,1.175,1.175,0,0,1,.173-.013H411.59Z" transform="translate(-356.364 -282.47)" fill="#2ab7f6"/>
          <path id="Path_27018" data-name="Path 27018" d="M415.67,380.549a1.274,1.274,0,0,1,1.08,1.556,1.212,1.212,0,0,1-1.167.874H399.708a1.255,1.255,0,0,1-.919-2.013,1.225,1.225,0,0,1,.746-.407,1.262,1.262,0,0,1,.173-.013h15.876Z" transform="translate(-358.08 -288.005)" fill="#2ab7f6"/>
          <path id="Path_27019" data-name="Path 27019" d="M418.518,393.432a1.265,1.265,0,0,1,.833,2.01,1.226,1.226,0,0,1-.746.407,1.262,1.262,0,0,1-.173.013H402.556a1.255,1.255,0,0,1-.919-2.013,1.231,1.231,0,0,1,.747-.408,1.174,1.174,0,0,1,.173-.012h15.876Z" transform="translate(-359.304 -293.541)" fill="#2ab7f6"/>
          <path id="Path_27020" data-name="Path 27020" d="M422.665,406.314a1.257,1.257,0,0,1,.832,2.01,1.228,1.228,0,0,1-.746.408,1.174,1.174,0,0,1-.173.012H406.7a1.271,1.271,0,0,1-1.167-1.559,1.218,1.218,0,0,1,1.167-.874h15.876Z" transform="translate(-361.078 -299.076)" fill="#2ab7f6"/>
          <path id="Path_27021" data-name="Path 27021" d="M425.589,419.2a1.268,1.268,0,0,1,.833,2.01,1.227,1.227,0,0,1-.747.407,1.177,1.177,0,0,1-.173.013H409.626a1.041,1.041,0,0,1-.583-.149,1.216,1.216,0,0,1,.583-2.284H425.5Z" transform="translate(-362.344 -304.612)" fill="#2ab7f6"/>
          <path id="Path_27022" data-name="Path 27022" d="M428.894,432.079a1.038,1.038,0,0,1,.571.19,1.26,1.26,0,0,1,.139,1.943,1.287,1.287,0,0,1-.8.3H412.931a1.044,1.044,0,0,1-.583-.149,1.266,1.266,0,0,1-.277-1.928,1.28,1.28,0,0,1,.861-.357h15.876Z" transform="translate(-363.764 -310.147)" fill="#2ab7f6"/>
          <path id="Path_27023" data-name="Path 27023" d="M432.06,444.962a1.274,1.274,0,0,1,1.08,1.556,1.242,1.242,0,0,1-.994.861,1.17,1.17,0,0,1-.173.013H416.1a1.044,1.044,0,0,1-.583-.149,1.217,1.217,0,0,1,.583-2.284h15.876Z" transform="translate(-365.124 -315.682)" fill="#2ab7f6"/>
          <path id="Path_27024" data-name="Path 27024" d="M393.471,290.371a1.274,1.274,0,0,1,.833,2.01,1.227,1.227,0,0,1-.746.408,1.258,1.258,0,0,1-.173.013H377.508a1.044,1.044,0,0,1-.583-.149,1.217,1.217,0,0,1,.583-2.285h15.876Z" transform="translate(-348.545 -249.258)" fill="#2ab7f6"/>
          <path id="Path_27025" data-name="Path 27025" d="M378.515,238.841a1.257,1.257,0,0,1,.833,2.01,1.225,1.225,0,0,1-.746.407,1.18,1.18,0,0,1-.173.013H362.552a1.268,1.268,0,0,1-1.023-1.874,1.23,1.23,0,0,1,.85-.546,1.166,1.166,0,0,1,.173-.013h15.876Z" transform="translate(-342.114 -227.117)" fill="#2ab7f6"/>
          <path id="Path_27026" data-name="Path 27026" d="M386.91,235.543a6.555,6.555,0,0,1-5.992-4.18c-.212.4-.663-4.162-.663-4.162-.437-3.4,2.233-6.558,5.959-7.036s7.106,1.9,7.543,5.3l.242,1.883c.231-.275.468,2.668.163,2.374a6.563,6.563,0,0,1-4.736,5.5l.255,1.994-.042.458a1.625,1.625,0,0,1-.591.7l-.477.153-.5-.028a1.625,1.625,0,0,1-.748-.526l-.157-.432Z" transform="translate(-350.215 -219.067)" fill="#f9ab83"/>
          <path id="Path_27027" data-name="Path 27027" d="M410.707,349.744c.817-.024,1.185,2.18,1.027,2.848a3.686,3.686,0,0,1-1.9.755c-.816.024-1.8-.238-1.645-.906S409.89,349.768,410.707,349.744Z" transform="translate(-362.229 -274.77)" fill="#2d0d60" fill-rule="evenodd"/>
          <path id="Path_27028" data-name="Path 27028" d="M398.155,337.508c.814.071.925,2.3.691,2.948a3.688,3.688,0,0,1-1.977.53c-.813-.071-1.764-.445-1.53-1.09S397.342,337.438,398.155,337.508Z" transform="translate(-356.701 -269.512)" fill="#2d0d60" fill-rule="evenodd"/>
          <path id="Path_27029" data-name="Path 27029" d="M410.351,346.145a1.017,1.017,0,0,1,.9.862,7.386,7.386,0,0,1,.5,1.955c-.017.167-1.873.76-1.986.279-.253-1.08-.907-2.56.151-3.011A.905.905,0,0,1,410.351,346.145Z" transform="translate(-362.728 -273.224)" fill="#c8c8c8"/>
          <path id="Path_27030" data-name="Path 27030" d="M389.374,292.452s11.7-1.209,11.69-1.1c-.015.207-.917,8.843-.968,17.531a104.5,104.5,0,0,0,1.179,16.063c.049.292-2.523,1.034-2.7.512a101.927,101.927,0,0,1-4.233-20.714l-.014-.133q-.267-2.688-.439-5.376c-1.146,2.22-2.463,4.358-3.565,6.509a26.822,26.822,0,0,0-1.047,3.008c.146,2.629,4.607,8.4,5.076,9.24a2.442,2.442,0,0,1-1.329,1.164,3.123,3.123,0,0,1-1.939-.319c-2.534-2.8-5.854-5.33-6.421-8.99C384.038,305.788,388.02,295.8,389.374,292.452Z" transform="translate(-352.101 -249.676)" fill="#52169d"/>
          <path id="Path_27031" data-name="Path 27031" d="M329.02,244.161a7.764,7.764,0,0,0,1.664,1.651.81.81,0,1,0,.674-1.474A7.753,7.753,0,0,0,329.02,244.161Z" transform="translate(-328.22 -229.397)" fill="#b7680d" fill-rule="evenodd"/>
          <path id="Path_27032" data-name="Path 27032" d="M330.147,245.418a12.149,12.149,0,0,1-1.128-1.256,11.774,11.774,0,0,1,1.754.038A.92.92,0,0,1,330.147,245.418Z" transform="translate(-328.22 -229.397)" fill-rule="evenodd"/>
          <path id="Path_27033" data-name="Path 27033" d="M344.731,250.571c.018-.028.069-.228.1-.3a.663.663,0,0,1,.163-.172.632.632,0,0,1,.234.006.553.553,0,0,1,.194.176c.06.082.206.233.242.216a1.673,1.673,0,0,1,.249-.059.63.63,0,0,1,.52.4.976.976,0,0,1,.04.52c.52.633.3.867.549,1.183a7.7,7.7,0,0,0,4.231,2.783c3.333.907,6.945-.133,9.948-1.283a42.768,42.768,0,0,0,4.876-2.253c.412-.221.656,4.527-.253,4.868a27.407,27.407,0,0,1-10.208,1.957,10.795,10.795,0,0,1-10.525-6.459,1.09,1.09,0,0,1-.61-1.061c0-.028.01-.055.017-.083A1.408,1.408,0,0,1,344.731,250.571Z" transform="translate(-334.86 -231.952)" fill="#efc9a7"/>
          <path id="Path_27034" data-name="Path 27034" d="M333.491,246.017c3.771,1.515,7.487,2.956,11.3,4.612l.268.281-.011.391-.282.267-.388-.011-.431-.2c-.193-.09-.386-.18-.578-.271-1.266-.6-2.008-.957-3.3-1.583q-3.345-1.618-6.68-3.256l-.109-.189.168-.063Z" transform="translate(-330.05 -230.194)" fill="#61250e"/>
          <path id="Path_27035" data-name="Path 27035" d="M347.54,251.9m.01.039s-.025-.083,0,.006C347.549,251.943,347.555,251.969,347.549,251.937Zm-.517.613c-.02-.19-.322-.165-.257-.968a1.046,1.046,0,0,0-.043-.309l-.076-.242s.08-.208.091-.218l.226-.082.233.095a1.578,1.578,0,0,1,.329,1.019,1.471,1.471,0,0,1,.408,1.006l-.154.313-.331.113-.312-.154-.113-.329A1.214,1.214,0,0,0,347.032,252.549Z" transform="translate(-335.798 -232.227)" fill="#f1c9a7"/>
          <path id="Path_27036" data-name="Path 27036" d="M393.774,247.49a6.434,6.434,0,0,0-4.429.569l-1.05,1.479,6.594-.991Z" transform="translate(-353.689 -230.769)" fill="#fff" fill-rule="evenodd"/>
          <path id="Path_27037" data-name="Path 27037" d="M375.115,252.5a31.055,31.055,0,0,1,7.35-3.152,37.4,37.4,0,0,1,5.163-.725c2.207.066,3.6.555,4.824,5.154l5.533,20.037c-3.819,2.684-8.51,3.168-13.843,1.334.307-3.725,1.074-10.341-2.192-18.3l-4.127,1.4Z" transform="translate(-348.026 -231.322)" fill="#b6b9fe" fill-rule="evenodd"/>
          <path id="Path_27038" data-name="Path 27038" d="M378.329,253.3c.574-.279,3.1,6.017,2.878,6.123l-1.282.434q-.061-.2-.125-.387a36.194,36.194,0,0,0-2.472-5.663C377.642,253.645,377.978,253.474,378.329,253.3Zm19.213,17.474.825,2.988a11.15,11.15,0,0,1-6.166,2.494,17.73,17.73,0,0,1-6.953-1c.064-.858.121-1.811.14-2.847,3.012,1.089,6.337,1.739,9.292.452A8.578,8.578,0,0,0,397.542,270.777Z" transform="translate(-348.977 -233.328)" fill="#767cfb"/>
          <path id="Path_27039" data-name="Path 27039" d="M379.352,227.157a12.941,12.941,0,0,0,2.292,4.726,4.334,4.334,0,0,0,2.648,1.643,8.542,8.542,0,0,0-.48-1.043,27.114,27.114,0,0,0-4.239-5.074C379.5,227.338,379.43,227.253,379.352,227.157Zm-.447-6.8a7.273,7.273,0,0,1,5.812-2.062,6.6,6.6,0,0,1,5.439,2.529,5.192,5.192,0,0,1,.546.878,28.833,28.833,0,0,1,2.475,9.627,6.12,6.12,0,0,1,.052,2.317,5.1,5.1,0,0,0-.239-1.817c-.249-1.1-.545-2.184-.887-3.253.289,2.03.776,5.063.346,6.007-.958,2.1-4.775,5.02-6.879,4.657-.624-.107-.25-2.824-1.2-5.505a3.71,3.71,0,0,1-1.507-.277c-2.714-1.12-4.062-4.268-4.929-6.568-.205-.544-.393-1.094-.559-1.648l-2.367.528a4.349,4.349,0,0,1,.026-2.939,2.309,2.309,0,0,0-.624,1.624c0,.077.027.241-.009.137-.53-1.57,1.114-3.242,2.249-3.778q.245-.116.5-.208a3.322,3.322,0,0,1,.624-.177,3.99,3.99,0,0,1,.853-.086C378.719,220.343,378.812,220.348,378.905,220.357Z" transform="translate(-347.675 -218.286)" fill="#2d0d60"/>
          <path id="Path_27040" data-name="Path 27040" d="M386.744,235.359a1.315,1.315,0,0,0-1.619-.911c-.379.106.24,1.284.557,2.29.266.847.179,1.566.5,1.477a1.314,1.314,0,0,0,.911-1.619Z" transform="translate(-352.276 -225.21)" fill="#f9ab83" fill-rule="evenodd"/>
        </g>
        <g id="Group_8211" data-name="Group 8211" transform="translate(43.798 173.032)">
          <path id="Path_27041" data-name="Path 27041" d="M161.026,336.489c-1.292,3.589-3.621,6.4-6.5,7.408,0,0-.1-.092,0,.016a17.484,17.484,0,0,1-.049,3.177H136.4l.025-3.177q0-.033,0-.067a12.311,12.311,0,0,1-1.025-.684l-.009-.006h0l-.009-.006h0l0,0,0,0h0l-.008-.006h0l0,0,0,0h0l-.008-.006h0l0,0,0,0h0l-.008-.006h0l0,0-.006,0h0l-.009-.006h0l-.008-.006h0l0,0,0,0h0l-.008-.006h0l0,0,0,0h0l-.008-.006h0l0,0,0,0h0l-.008-.006h0l0,0-.005,0h0l-.008-.006h0l-.008-.006h0l-.005,0,0,0h0l-.008-.006h0l0,0,0,0h0l-.008-.006h0l0,0,0,0h0l-.008-.006h0l0,0-.005,0h0l-.008-.006h0l-.008-.006h0l-.005,0,0,0h0l-.007-.006h0l0,0,0,0h0l-.008-.006h0l0,0,0,0h0l-.008-.006h0l0,0,0,0h0l-.007-.006h0l-.006,0h0l-.005,0,0,0h0l-.007-.006h0l0,0,0,0h0l-.008-.006h0l0,0,0,0h0l-.007-.006h0l0,0,0,0h0l-.008-.006h0l0,0-.005,0h0l-.005,0,0,0h0l-.007-.006h0l0,0,0,0h0l-.007-.006h0l0,0,0,0,0,0h0l-.007-.006h0l0,0,0,0,0,0h0l-.007-.006h0l0,0h0l0,0h0l0,0,0,0h0l-.006,0h0l0,0,0,0h0l-.007-.006h0l0,0,0,0,0,0,0,0h0l-.007-.005h0l0,0,0,0,0,0,0,0h0l-.005,0h0l0,0h0l0,0,0,0,0,0,0,0h0l0,0h0l0,0,0,0,0,0,0,0h0l0,0h0l-.005,0,0,0,0,0,0,0h0l0,0h0l-.006-.005h0l0,0v0h0l0,0,0,0,0,0h0l0,0,0,0h0l0,0,0,0,0,0,0,0h0l0,0,0,0h0l0,0,0,0,0,0h0l0,0,0,0h0l0,0,0,0h0l-.015-.013h0l-.015-.013h0l0,0-.006,0h0l0,0,0,0h0l-.005,0-.005,0h0l-.017-.014h0l-.017-.014h0c-3.329.028-5.715-2.562-7.11-6.029h5.4a12.811,12.811,0,0,0,4.732,3.115h0a7.224,7.224,0,0,0,2.048.9,2.882,2.882,0,0,0,.548.106,20.45,20.45,0,0,1,2.332-.7l.4-.43a4.468,4.468,0,0,1,1.136-.327V338.8a6.929,6.929,0,0,1-4.122-2.314h10.778a6.93,6.93,0,0,1-4.121,2.314v.449a7.054,7.054,0,0,1,.794.225l.265.325a22.407,22.407,0,0,1,2.976.828c.25-.034.5-.094.736-.145a12.332,12.332,0,0,0,1.767-.524h0a14.463,14.463,0,0,0,2.767-1.415h0a16.917,16.917,0,0,0,2.56-2.057Z" transform="translate(-119.223 -317.282)" fill="rgba(0,0,0,0.3)" fill-rule="evenodd"/>
          <path id="Path_27042" data-name="Path 27042" d="M159.927,322.019h-2.554l.046-.045h0c.671-.659-1.736-1.359-1.207-2.075h0c.181-.246.353-.494.516-.742a12.884,12.884,0,0,0,.883-1.587h0a12.7,12.7,0,0,0,.883-2.578h0a12.461,12.461,0,0,0,.242-4.038h0v-.007h0v-.007h0v-.068h0l0-.041v-.431l0-.009v0c0-.052.06-.094.155-.125-.007-.109-.014-.216-.021-.313a6.727,6.727,0,0,1-.826-.266c-.114-.057-.266-.13-.263-.277s.168-.2.283-.257a3.5,3.5,0,0,1,.556-.14c-.151-.521-.341-1.117-.384-1.413-.019-.127-.033-.3.124-.364s.26.046.354.129a3.339,3.339,0,0,1,.353.5,5.629,5.629,0,0,1,.157-.771c.05-.119.091-.261.277-.268.22-.007.216.158.255.277a5.477,5.477,0,0,1,.1.778,3.208,3.208,0,0,1,.366-.45c.1-.079.224-.178.368-.114s.12.238.1.362a5.485,5.485,0,0,1-.248.735.87.87,0,0,1,.255-.091c.106,0,.288-.084.376.076a.451.451,0,0,1-.087.374,12.616,12.616,0,0,1-.934.931c.044.155.087.31.13.465h0a.691.691,0,0,1,.163.015c.02.071.039.141.058.211l0,.012,0,.015.005.021,0,.018,0,.016,0,.016,0,.01,0,.014,0,.007,0,.011,0,.015,0,.017,0,.01,0,.011,0,.01,0,.011,0,.015,0,.02,0,.006,0,.011,0,.016,0,.016,0,.01,0,.011.005.021,0,.016,0,.016.005.022.005.021h0l.007.031h0A19.327,19.327,0,0,1,159.927,322.019Zm-10.3,0H138.85a5.964,5.964,0,0,1-1.29-2.595,1.493,1.493,0,0,1-1.222.607,1.4,1.4,0,0,1-1.457-1.332v-.651a1.4,1.4,0,0,1,1.457-1.332,1.534,1.534,0,0,1,.93.307h0a17.743,17.743,0,0,0,.164-1.812,5.678,5.678,0,0,1,.044-.714l0-.025c0-.023.006-.047.01-.07l0-.017q.025-.167.058-.33l.015-.074,0-.016c.023-.1.048-.2.076-.3.01-.038.021-.075.033-.112v0c.007-.023.014-.046.022-.069l.016-.051.006-.018c.027-.082.056-.163.087-.244s.063-.159.1-.238l.007-.017a6.022,6.022,0,0,1,.542-.979l0,0a6.41,6.41,0,0,1,1.192-1.308l0,0,.035-.028.009-.007.042-.034.014-.011.026-.021.022-.017.039-.03.036-.029q.088-.067.178-.132l.018-.013.027-.019c.055-.039.112-.077.168-.114l.014-.009c.107-.07.216-.137.327-.2l.02-.011.035-.02,0,0c.055-.031.109-.061.165-.09l.019-.01.056-.029.031-.016.01-.005.124-.062.006,0,.072-.034.02-.01.036-.017.041-.018.025-.011.1-.044.022-.009a7.314,7.314,0,0,1,2.845-.569c3.757,0,6.806,2.787,6.806,6.221v1.9a1.526,1.526,0,0,1,1.035-.394,1.4,1.4,0,0,1,1.457,1.332v.651a1.4,1.4,0,0,1-1.457,1.332,1.5,1.5,0,0,1-1.175-.545A5.968,5.968,0,0,1,149.628,322.019Zm-17.848,0h-5.4c-2.189-5.439-1.941-13.034.926-16.044h0a.18.18,0,0,1,.107-.049q.14-.235.282-.47a12.526,12.526,0,0,1-.652-1.146.451.451,0,0,1,.015-.383c.128-.132.282,0,.383.026a.881.881,0,0,1,.222.156,5.435,5.435,0,0,1-.043-.774c.017-.124.05-.3.2-.322s.247.1.325.207a3.2,3.2,0,0,1,.233.532,5.453,5.453,0,0,1,.3-.723c.071-.1.11-.265.32-.2.179.056.18.2.2.332a5.781,5.781,0,0,1-.053.785,3.348,3.348,0,0,1,.472-.387c.112-.055.249-.133.375-.031s.075.267.023.384c-.12.274-.462.8-.746,1.26a3.531,3.531,0,0,1,.5.283c.1.083.241.18.2.323s-.2.172-.328.2a6.534,6.534,0,0,1-.866.038l-.084.243c.08.049.128.1.126.136a3.758,3.758,0,0,1-.42,1.169c-.062.162-.121.324-.179.488h0C126.628,310.861,127.537,317.642,131.78,322.019Zm3.382,29.214.077-10.042.065-8.57h18.079l-.133,9.2v9.417Z" transform="translate(-118.124 -302.812)" fill="rgba(180,175,174,0.3)" fill-rule="evenodd"/>
          <path id="Path_27043" data-name="Path 27043" d="M129.04,305.842q.116-.194.233-.388a12.516,12.516,0,0,1-.652-1.146.451.451,0,0,1,.015-.383c.128-.132.282,0,.383.026a.881.881,0,0,1,.222.156,5.438,5.438,0,0,1-.043-.774c.017-.124.05-.3.2-.322s.247.1.324.207a3.2,3.2,0,0,1,.233.532,5.452,5.452,0,0,1,.3-.723c.071-.1.11-.265.32-.2.179.056.18.2.2.332a5.776,5.776,0,0,1-.053.785,3.348,3.348,0,0,1,.472-.387c.112-.055.249-.133.375-.031s.075.267.023.384c-.12.274-.462.8-.746,1.26a3.531,3.531,0,0,1,.5.283c.1.083.241.18.2.323s-.2.172-.328.2a6.534,6.534,0,0,1-.866.038l0,.009Zm31.34,4.252-.01-.149a6.727,6.727,0,0,1-.826-.266c-.114-.057-.266-.13-.263-.277s.168-.2.283-.257a3.5,3.5,0,0,1,.556-.14c-.151-.521-.341-1.117-.384-1.413-.019-.127-.033-.3.124-.364s.26.046.354.129a3.339,3.339,0,0,1,.353.5,5.632,5.632,0,0,1,.157-.771c.05-.119.091-.261.277-.268.22-.007.216.158.256.277a5.479,5.479,0,0,1,.1.778,3.208,3.208,0,0,1,.366-.45c.1-.079.224-.178.368-.114s.12.238.1.362a5.481,5.481,0,0,1-.248.735.871.871,0,0,1,.255-.091c.106,0,.288-.084.376.076a.451.451,0,0,1-.087.374,12.62,12.62,0,0,1-.934.931c.044.155.087.31.13.465h0a.692.692,0,0,1,.163.015l.034.124Z" transform="translate(-119.697 -302.812)" fill="rgba(245,140,114,0.3)" fill-rule="evenodd"/>
          <path id="Path_27044" data-name="Path 27044" d="M158.807,312.377l1.5.2.023.087,0,.012,0,.015.005.021,0,.018,0,.016,0,.016,0,.01,0,.014,0,.007,0,.011,0,.015,0,.017,0,.01,0,.011,0,.01,0,.011,0,.015,0,.02,0,.006,0,.011,0,.016,0,.016,0,.01,0,.011.005.021,0,.016,0,.016.005.022.005.021h0l.007.031h0a19.327,19.327,0,0,1-.518,11.186h-2.554l.046-.045h0c.671-.659-1.736-1.359-1.207-2.075h0c.181-.246.353-.494.516-.742a12.9,12.9,0,0,0,.883-1.587h0a12.7,12.7,0,0,0,.883-2.578h0a12.461,12.461,0,0,0,.242-4.038h0v-.007h0v-.007h0v-.068h0l0-.041v-.431l0-.009v0c0-.052.06-.094.155-.125ZM149.628,324.3H138.85a5.965,5.965,0,0,1-1.29-2.595,1.493,1.493,0,0,1-1.222.607,1.4,1.4,0,0,1-1.457-1.332v-.651A1.4,1.4,0,0,1,136.339,319a1.534,1.534,0,0,1,.93.307h0a17.743,17.743,0,0,0,.164-1.812,5.678,5.678,0,0,1,.044-.714l0-.025c0-.023.006-.047.01-.07l0-.017q.025-.167.058-.33l.015-.074,0-.017c.023-.1.048-.2.076-.3.01-.038.021-.075.033-.112v0c.007-.023.014-.046.022-.069l.016-.051.006-.018c.027-.082.056-.163.087-.244s.063-.159.1-.238l.007-.017a6.021,6.021,0,0,1,.542-.979l0,0a6.411,6.411,0,0,1,1.192-1.308l0,0,.035-.029.009-.007.042-.034.014-.011.026-.021.022-.017.039-.03.036-.029q.088-.067.178-.132l.018-.013.027-.019c.055-.039.112-.077.168-.114l.014-.009c.107-.07.216-.137.327-.2l.02-.011.035-.02,0,0c.055-.031.109-.061.165-.09l.019-.01.056-.029.031-.016.01-.005.124-.062.006,0,.072-.034.02-.01.036-.017.041-.018.025-.011.1-.044.022-.009a7.315,7.315,0,0,1,2.845-.569c3.757,0,6.806,2.787,6.806,6.221v1.9A1.526,1.526,0,0,1,152.08,319a1.4,1.4,0,0,1,1.457,1.332v.651a1.4,1.4,0,0,1-1.457,1.332,1.5,1.5,0,0,1-1.175-.545A5.967,5.967,0,0,1,149.628,324.3Zm-22.161-16.177,1.307.177-.081.234c.08.049.128.1.126.136a3.759,3.759,0,0,1-.42,1.169c-.062.162-.121.324-.179.488h0c-1.593,2.814-.683,9.6,3.559,13.972h-5.4c-2.189-5.439-1.941-13.034.926-16.044h0a.18.18,0,0,1,.107-.049Z" transform="translate(-118.124 -305.095)" fill="rgba(212,210,210,0.3)" fill-rule="evenodd"/>
          <path id="Path_27045" data-name="Path 27045" d="M135.163,450.206c12.232,0,22.162,1.282,22.162,2.861s-9.93,2.861-22.162,2.861S113,454.646,113,453.067,122.93,450.206,135.163,450.206Z" transform="translate(-113 -366.144)" fill="#1a1e51" fill-rule="evenodd" opacity="0.5"/>
          <path id="Path_27046" data-name="Path 27046" d="M143.941,328.988a6.556,6.556,0,0,1-5.411-4.909,1.5,1.5,0,0,1-1.222.607,1.4,1.4,0,0,1-1.457-1.332V322.7a1.4,1.4,0,0,1,1.457-1.332,1.535,1.535,0,0,1,.931.307,17.659,17.659,0,0,0,.164-1.812c0-3.433,3.05-6.221,6.806-6.221s6.806,2.787,6.806,6.221v1.9a1.526,1.526,0,0,1,1.035-.394,1.4,1.4,0,0,1,1.457,1.332v.651a1.4,1.4,0,0,1-1.457,1.332,1.5,1.5,0,0,1-1.175-.545,6.566,6.566,0,0,1-5.4,4.848V331l-.1.449a1.62,1.62,0,0,1-.675.617l-.493.092-.491-.092a1.62,1.62,0,0,1-.675-.617l-.1-.449Z" transform="translate(-122.819 -307.467)" fill="#845a38"/>
          <path id="Path_27047" data-name="Path 27047" d="M182.44,310.873a5.631,5.631,0,0,1,.157-.771c.05-.119.091-.261.277-.268.22-.007.216.158.255.277a5.476,5.476,0,0,1,.1.778,3.168,3.168,0,0,1,.366-.45c.1-.079.224-.178.368-.114s.12.238.1.362a5.466,5.466,0,0,1-.248.735.871.871,0,0,1,.256-.091c.106,0,.287-.084.376.076a.451.451,0,0,1-.087.374,12.742,12.742,0,0,1-.934.931q.1.37.206.741c.09.33-1.324.526-1.345.228-.015-.221-.033-.5-.047-.718a6.684,6.684,0,0,1-.826-.266c-.114-.057-.266-.13-.263-.277s.168-.2.283-.257a3.5,3.5,0,0,1,.556-.14c-.151-.521-.342-1.117-.384-1.413-.019-.127-.033-.3.124-.364s.26.046.354.129A3.366,3.366,0,0,1,182.44,310.873Z" transform="translate(-142.285 -305.829)" fill="#855a37"/>
          <path id="Path_27048" data-name="Path 27048" d="M129.705,303.945a5.688,5.688,0,0,0,.054-.785c-.017-.127-.018-.276-.2-.332-.21-.066-.25.095-.32.2a5.472,5.472,0,0,0-.3.723,3.152,3.152,0,0,0-.233-.532c-.078-.1-.168-.23-.325-.207s-.179.2-.2.322a5.5,5.5,0,0,0,.044.774.874.874,0,0,0-.223-.156c-.1-.03-.255-.157-.382-.026a.449.449,0,0,0-.015.383,12.523,12.523,0,0,0,.652,1.146c-.132.22-.265.439-.4.659-.175.294,1.136.859,1.235.577.074-.209.164-.47.237-.68a6.543,6.543,0,0,0,.867-.038c.125-.025.291-.055.328-.2s-.108-.24-.2-.323a3.5,3.5,0,0,0-.5-.283c.283-.461.625-.986.746-1.26.051-.117.11-.277-.023-.384s-.263-.025-.375.031A3.363,3.363,0,0,0,129.705,303.945Z" transform="translate(-119.263 -302.812)" fill="#855a37"/>
          <path id="Path_27049" data-name="Path 27049" d="M154.83,445.568c.128-.433.646-.563.825-.816.344-.485,2.359,2.577,2.359,2.577.385,1.719.5,1.689,1.011,1.774.234.039.182,1.134,0,1.147-.542.04-1.386.112-1.627-.25-.494-.745-.665-1.471-1.121-2.087C155.652,447.069,154.646,446.191,154.83,445.568Z" transform="translate(-130.964 -363.778)" fill="#dcdcdc" fill-rule="evenodd"/>
          <path id="Path_27050" data-name="Path 27050" d="M158.395,447.957c.33.351.549.106.59.027.432-.846.189-4.321-.2-6.04l-2.223.238c0,.749-.482,1.021-.873,1.7a.7.7,0,0,0,0,.12,19.3,19.3,0,0,0,1.506,2.294A11.721,11.721,0,0,0,158.395,447.957Z" transform="translate(-131.343 -362.594)" fill="#2d0d60" fill-rule="evenodd"/>
          <path id="Path_27051" data-name="Path 27051" d="M161.829,445.668a4.51,4.51,0,0,0,.494,1.1,5.587,5.587,0,0,0-.492-1.1S161.817,445.635,161.829,445.668Zm-.311-.715c.249.031.4.34.567.641a3.777,3.777,0,0,1,.558,1.423c.011.145-.135.28-.269.193a1.954,1.954,0,0,1-.609-.974c-.134-.346-.265-.695-.367-1.051C161.37,445.088,161.363,444.944,161.518,444.953Z" transform="translate(-133.789 -363.886)" fill="#cacaca"/>
          <path id="Path_27052" data-name="Path 27052" d="M161.458,445.012c.1.017.114.139.114.249a10.839,10.839,0,0,0,.274,2.921,1.446,1.446,0,0,0,.172.411.163.163,0,0,1-.006.151c-.058.073-.157.075-.233-.049a3.22,3.22,0,0,1-.334-1.229,16.516,16.516,0,0,1-.13-2.327S161.341,445,161.458,445.012Z" transform="translate(-133.76 -363.912)" fill="#cacaca"/>
          <path id="Path_27053" data-name="Path 27053" d="M161.991,445.586c.2.213.474.462.633.466a1.443,1.443,0,0,0-.187-.178,4.266,4.266,0,0,0-.391-.26S161.96,445.553,161.991,445.586Zm-.537-.575a.364.364,0,0,1,.117.048,3.871,3.871,0,0,1,1.232.8.294.294,0,0,1,.079.3c-.07.164-.318.172-.493.084a3.3,3.3,0,0,1-1.037-1.013.17.17,0,0,1-.034-.066A.124.124,0,0,1,161.454,445.011Z" transform="translate(-133.76 -363.911)" fill="#cacaca"/>
          <path id="Path_27054" data-name="Path 27054" d="M161.487,445.266m.025-.256c.164.014.226.209.294.38a7.945,7.945,0,0,1,.475,1.86c.043.309.108.682-.054.859-.087.094-.271-.021-.192-.172a1.549,1.549,0,0,0-.035-.826,6.375,6.375,0,0,0-.491-1.761c-.067-.136-.1-.08-.131-.176a.125.125,0,0,1,.122-.164Z" transform="translate(-133.784 -363.912)" fill="#cacaca"/>
          <path id="Path_27055" data-name="Path 27055" d="M160.78,446.993m.014-.256c.149.013.132.213-.074.273a2.3,2.3,0,0,1-.913.168.131.131,0,0,1,.061-.254h.037C160.214,446.917,160.5,446.721,160.794,446.737Z" transform="translate(-133.071 -364.653)" fill="#cacaca"/>
          <path id="Path_27056" data-name="Path 27056" d="M160.966,447.818c.106.01.156.135.067.245a1.119,1.119,0,0,1-.982.326.131.131,0,0,1,.066-.253h.038a.963.963,0,0,0,.709-.277A.136.136,0,0,1,160.966,447.818Z" transform="translate(-133.176 -365.118)" fill="#cacaca"/>
          <path id="Path_27057" data-name="Path 27057" d="M161.154,449.084a.139.139,0,0,1,.079.231,1.018,1.018,0,0,1-.9.3c-.127-.02-.129-.249.014-.255a.915.915,0,0,0,.7-.231A.132.132,0,0,1,161.154,449.084Z" transform="translate(-133.296 -365.662)" fill="#cacaca"/>
          <path id="Path_27058" data-name="Path 27058" d="M146.014,445.568c-.128-.433-.646-.563-.825-.816-.343-.485-2.359,2.577-2.359,2.577-.385,1.719-.5,1.689-1.011,1.774-.234.039-.182,1.134,0,1.147.542.04,1.386.112,1.627-.25.494-.745.665-1.471,1.121-2.087C145.193,447.069,146.2,446.191,146.014,445.568Z" transform="translate(-125.316 -363.778)" fill="#dcdcdc" fill-rule="evenodd"/>
          <path id="Path_27059" data-name="Path 27059" d="M143.09,447.957c-.33.351-.549.106-.59.027-.432-.846-.189-4.321.2-6.04l2.223.238c0,.749.482,1.021.873,1.7a.7.7,0,0,1,0,.12,19.3,19.3,0,0,1-1.506,2.294A11.722,11.722,0,0,1,143.09,447.957Z" transform="translate(-125.577 -362.594)" fill="#2d0d60" fill-rule="evenodd"/>
          <path id="Path_27060" data-name="Path 27060" d="M141.377,445.668a5.769,5.769,0,0,0-.491,1.1s.1-.129.138-.207a6.674,6.674,0,0,0,.356-.895S141.4,445.635,141.377,445.668Zm.331-.716c.235.018.011.539-.161,1.011a3.3,3.3,0,0,1-.6,1.146.33.33,0,0,1-.21.137c-.206.011-.158-.37-.07-.628a4.11,4.11,0,0,1,.793-1.511C141.53,445.031,141.594,444.951,141.709,444.952Z" transform="translate(-124.855 -363.886)" fill="#cacaca"/>
          <path id="Path_27061" data-name="Path 27061" d="M142.171,445.012c.1.016.116.139.116.249a11.113,11.113,0,0,1-.284,2.991,1.746,1.746,0,0,1-.2.474.163.163,0,0,1-.121.066c-.1-.006-.146-.117-.074-.238a3.105,3.105,0,0,0,.3-1.159,16.472,16.472,0,0,0,.123-2.255S142.053,445.006,142.171,445.012Z" transform="translate(-125.277 -363.912)" fill="#cacaca"/>
          <path id="Path_27062" data-name="Path 27062" d="M140.934,445.594a2.115,2.115,0,0,0-.611.455.778.778,0,0,0,.207-.086,2.587,2.587,0,0,0,.425-.377S141,445.555,140.934,445.594Zm.575-.583c.106.009.153.131.072.237a3.538,3.538,0,0,1-1.009.989c-.208.109-.553.08-.523-.185s.374-.447.685-.636c.231-.141.469-.27.712-.391A.1.1,0,0,1,141.509,445.011Z" transform="translate(-124.621 -363.911)" fill="#cacaca"/>
          <path id="Path_27063" data-name="Path 27063" d="M141.933,445.267m0-.256a.114.114,0,0,1,.066.026.127.127,0,0,1-.032.221,2.141,2.141,0,0,0-.271.69,6.111,6.111,0,0,0-.337,1.8c0,.145.088.252.046.337-.063.128-.268.019-.294-.206a4.109,4.109,0,0,1,.175-1.379,4.551,4.551,0,0,1,.447-1.349A.368.368,0,0,1,141.935,445.012Z" transform="translate(-125.074 -363.912)" fill="#cacaca"/>
          <path id="Path_27064" data-name="Path 27064" d="M142.452,446.994m.009-.256a1.435,1.435,0,0,1,.31.084,3.386,3.386,0,0,0,.652.1c.12.018.16.24,0,.255a2.563,2.563,0,0,1-.658-.092,1.392,1.392,0,0,1-.4-.123A.129.129,0,0,1,142.461,446.738Z" transform="translate(-125.597 -364.654)" fill="#cacaca"/>
          <path id="Path_27065" data-name="Path 27065" d="M142.343,447.818c.12.008.182.161.335.227.242.1.57.028.652.141.059.083,0,.2-.143.205a1.121,1.121,0,0,1-.94-.35A.136.136,0,0,1,142.343,447.818Z" transform="translate(-125.555 -365.118)" fill="#cacaca"/>
          <path id="Path_27066" data-name="Path 27066" d="M142.224,449.084c.057,0,.092.054.13.1.158.172.466.151.686.183.135.026.155.262-.091.253a1.029,1.029,0,0,1-.816-.3C142.071,449.23,142.1,449.082,142.224,449.084Z" transform="translate(-125.504 -365.662)" fill="#cacaca"/>
          <path id="Path_27067" data-name="Path 27067" d="M138.815,387.913c-.015-.425,15.274-.425,15.26,0-.063,1.872-.24,4.637-.342,6.193-.558,8.518-1.262,17.012-1.99,25.5,0,0-2.545.419-2.592-.13-.71-8.436-1.426-16.91-1.98-25.365-.017-.265-.037-.564-.057-.888h-1.337c-.021.324-.04.623-.057.888-.558,8.518-1.991,25.5-1.991,25.5-.117.432-2.545.417-2.592-.132-.71-8.436-1.426-16.91-1.98-25.365C139.055,392.55,138.878,389.785,138.815,387.913Z" transform="translate(-124.092 -339.241)" fill="#293677"/>
          <path id="Path_27068" data-name="Path 27068" d="M151.584,341.427a6.44,6.44,0,0,0-4.465,0l-1.23,1.333,6.667-.143Z" transform="translate(-127.132 -319.232)" fill="#fff" fill-rule="evenodd"/>
          <path id="Path_27069" data-name="Path 27069" d="M130.922,331.715c-.359-.214-.7-.445-1.025-.684a16.593,16.593,0,0,1-6.2-9.784,18.087,18.087,0,0,1,2.354-12.934h0c.183-.209,1.518.212,1.508.416a3.742,3.742,0,0,1-.42,1.169c-1.823,4.765-1.717,10.335,1.976,14.855a10.181,10.181,0,0,0,5.037,3.617,2.88,2.88,0,0,0,.548.106,18.506,18.506,0,0,1,5.084-1.13,20.111,20.111,0,0,1,5.35,1.153c.25-.034.5-.094.736-.145a15.965,15.965,0,0,0,9.46-6.858,12.61,12.61,0,0,0,1.935-8.772v0c.009-.278,1.607-.237,1.615-.209.019.071.039.141.057.211a14.3,14.3,0,0,1,.059,7.024,19.02,19.02,0,0,1-8.848,11.4c-.364.217-.74.425-1.125.62v.016l-.182,12.373v11.36c-5.938,2.033-11.984,1.789-18.1,0l.183-23.733C130.921,331.759,130.922,331.737,130.922,331.715Z" transform="translate(-117.441 -305.151)" fill="#bedaff"/>
          <path id="Path_27070" data-name="Path 27070" d="M126.96,311.665a17.724,17.724,0,0,0-.71,2.663,4.52,4.52,0,0,0-2.117-.4C124.413,313.012,126.388,311.449,126.96,311.665ZM157.4,316.2a12.423,12.423,0,0,0-.134-2.194v0c.009-.278,1.607-.237,1.615-.209.019.071.039.141.057.211a14.125,14.125,0,0,1,.442,2.764A3.963,3.963,0,0,0,157.4,316.2Zm-33.929.809a7.439,7.439,0,0,1,1.957-.277h.116c.149,0,.3.008.447.018a14.544,14.544,0,0,0,.17,2.732,4.735,4.735,0,0,0-2.584.405,2.339,2.339,0,0,0-.218.124A16.851,16.851,0,0,1,123.471,317.007Zm33.626,1.6a7.121,7.121,0,0,1,2.158,1.1c-.065.444-.151.885-.258,1.321a15.6,15.6,0,0,1-.562,1.807,3.538,3.538,0,0,0-2.22-1.647A12.732,12.732,0,0,0,157.1,318.61Zm-30.35,3.213a13.531,13.531,0,0,0,1.149,2.469,4.747,4.747,0,0,0-2.454,1.8,2.735,2.735,0,0,0-.282.552,17.234,17.234,0,0,1-1.2-3.071A7.07,7.07,0,0,1,126.746,321.823Zm28.068,1.694a7.4,7.4,0,0,1,1.595,1.55,5.972,5.972,0,0,1,.512.8,19.194,19.194,0,0,1-2.025,2.671c0-.015,0-.029,0-.044a3.54,3.54,0,0,0-1.886-2.9A17.3,17.3,0,0,0,154.815,323.517Zm-19.984,6.19a18.406,18.406,0,0,1,4.953-1.082,20.014,20.014,0,0,1,5.232,1.11,39.328,39.328,0,0,1-8.452.159C135.989,329.846,135.409,329.787,134.831,329.707Zm-5.025-2.884a11.677,11.677,0,0,0,2.3,1.929,4.663,4.663,0,0,0-2.263,1.727,2.313,2.313,0,0,0-.213.4c.009.02.017.041.025.062.355.935,1.645,1.327,2.792,1.64a26.881,26.881,0,0,0,8.177.679,24.018,24.018,0,0,0,8.935-1.63c.091-.041.183-.084.275-.129a4.042,4.042,0,0,0-2.195-2.4,14.457,14.457,0,0,0,2.767-1.416,7.374,7.374,0,0,1,1.035,1.108,6.046,6.046,0,0,1,.888,1.663,1.326,1.326,0,0,1,.334.2,20.691,20.691,0,0,1-2.513,1.761c-.364.217-.74.425-1.125.621v.016L149,334.717c.13.177-8.616,1.881-13.129,1.194a27.976,27.976,0,0,1-4.964-.921l.015-1.928c0-.022,0-.044,0-.067-.359-.214-.7-.445-1.025-.684a15.488,15.488,0,0,1-2.748-2.618A6.638,6.638,0,0,1,129.806,326.823Zm19.145,11.144-.043,2.955a23.62,23.62,0,0,1-2.964.677,37.282,37.282,0,0,1-12.506.169,22.673,22.673,0,0,1-2.58-.554l.023-2.906c.358.131.736.238,1.1.341a26.763,26.763,0,0,0,8.048.78A24.529,24.529,0,0,0,148.951,337.967Zm-.11,7.467v2.256a19.977,19.977,0,0,1-3.715.779,37.408,37.408,0,0,1-12.445-.319c-.618-.127-1.252-.27-1.873-.447l.022-2.9c.153.054.307.106.459.155a26.754,26.754,0,0,0,8.01,1.1,24.293,24.293,0,0,0,9.1-1.15c.15-.059.305-.119.455-.186Zm0,6.153v3.022a15.139,15.139,0,0,1-1.773.481,35.54,35.54,0,0,1-13.093.159,25.951,25.951,0,0,1-3.22-.694l.022-2.889.03.01a26.737,26.737,0,0,0,7.983,1.282,24.232,24.232,0,0,0,9.122-.944A3.947,3.947,0,0,0,148.841,351.587Z" transform="translate(-117.441 -306.43)" fill="#7cb3fb"/>
          <path id="Path_27071" data-name="Path 27071" d="M146.837,328.065c-5.709.083-6.811-6.469-6.8-6.387a12.858,12.858,0,0,0,.164-1.812c0-3.433,3.05-6.221,6.806-6.221s6.806,2.787,6.806,6.221v1.9l.018-.016A7.078,7.078,0,0,1,146.837,328.065Z" transform="translate(-124.617 -307.467)" fill="#b25e02"/>
        </g>
        <g id="Group_8212" data-name="Group 8212">
          <path id="Path_27072" data-name="Path 27072" d="M100.388,187.686c-1.106-.219-.014,0-.014,0Zm6.244,3.2a26.53,26.53,0,0,0-5.419-2.912l-.021-.008a26.154,26.154,0,0,0,2.287,5.127q.211.4.423.788c.258.059.509.129.752.209l-.376-.536,1.8.265a4.5,4.5,0,0,1,.913.767l.286-.2A7.346,7.346,0,0,1,106.632,190.886Zm-4.207,33.406a1.647,1.647,0,0,1,.209-.035c.127-.01.3-.026.368.1s-.025.471-.11.374A2.448,2.448,0,0,0,102.425,224.292ZM85.886,203.65c4.014-3.123,7.054-4.98,13.236-9.1q.207-.138.422-.251c-.424-1.1-.812-2.217-1.142-3.356-.541-1.884-1.2-4.091.054-5.57a2.247,2.247,0,0,1,1.581-.779,1.562,1.562,0,0,1,.2,0,2.222,2.222,0,0,1,.338.031,7.845,7.845,0,0,1,2.88,1.4,31.8,31.8,0,0,1,3.7,2.72,11.656,11.656,0,0,1,3.27-3.761c2.589-2.2,8.479-2,10.155.64,1.128,1.777,4.082,5.5.788,9.618-.206.258-.633.109-1.106-.113a5.719,5.719,0,0,1-.906.787,27.973,27.973,0,0,1-3.6,2.352,6.468,6.468,0,0,1-7.051-1.744l-.371.26a7.19,7.19,0,0,1,.265.8l-.2.694c.319,1.308.6,2.948-.13,4.121-5.635,9-8.824,15.824-6.574,22l-.015.014a.173.173,0,0,1,.108.051c.149-.039.315-.087.467-.126.01-.078.058-.107.168-.04-.054.011-.11.025-.168.04a2.707,2.707,0,0,0,.231.818c.4.377.867.8,1.056,1.036.081.1.18.242.08.384s-.246.1-.37.072a3.366,3.366,0,0,1-.559-.252,5.8,5.8,0,0,1,.262.759c.019.13.057.277-.1.38-.185.122-.266-.025-.362-.108a5.608,5.608,0,0,1-.486-.629,3.3,3.3,0,0,1-.082.586c-.047.122-.1.273-.257.293s-.225-.145-.275-.263a5.745,5.745,0,0,1-.165-.774.9.9,0,0,1-.172.214c-.09.058-.2.225-.362.13a.47.47,0,0,1-.117-.373,13.183,13.183,0,0,1,.322-1.306l-.13-.126c-.206.153-.406.275-.424.216-2.225-7.495-1.254-6.375-.662-12.34a23.262,23.262,0,0,1-7.231,6.421,7.548,7.548,0,0,1-1.235-3.3c-.887.888-1.43,1.393-1.019.869a2.859,2.859,0,0,0,.521-1.175,10.882,10.882,0,0,1-2.135,2.827c-.121.119-.624.574-1.083.922a13.959,13.959,0,0,1-1.618,1.056Z" transform="translate(-57.552 -78.503)" fill="rgba(212,210,210,0.3)"/>
          <path id="Path_27073" data-name="Path 27073" d="M112.272,228.917a1.639,1.639,0,0,1,.209-.035c.127-.01.3-.026.368.1s-.025.471-.11.374A2.448,2.448,0,0,0,112.272,228.917Zm.909-34.68,19.541,2.651c-.062,1.152-.483,1.7-1.5,2.976-.206.258-.633.109-1.106-.113a5.72,5.72,0,0,1-.906.787,27.974,27.974,0,0,1-3.6,2.352,6.468,6.468,0,0,1-7.051-1.744l-.371.26a7.2,7.2,0,0,1,.265.8l-.2.694c.319,1.308.6,2.948-.13,4.121-5.635,9-8.824,15.824-6.574,22l-.015.014a.173.173,0,0,1,.108.051c.149-.039.315-.087.467-.126.01-.078.058-.107.168-.04-.054.011-.11.025-.168.04a2.707,2.707,0,0,0,.231.818c.4.377.867.8,1.056,1.036.081.1.18.242.08.384s-.246.1-.37.072a3.366,3.366,0,0,1-.559-.252,5.8,5.8,0,0,1,.262.758c.019.13.057.277-.1.38-.185.122-.266-.025-.362-.108a5.608,5.608,0,0,1-.486-.628,3.3,3.3,0,0,1-.082.586c-.047.122-.1.273-.257.293s-.225-.145-.275-.263a5.746,5.746,0,0,1-.165-.774.9.9,0,0,1-.172.214c-.09.058-.2.225-.362.13a.47.47,0,0,1-.117-.373,13.183,13.183,0,0,1,.322-1.306l-.13-.126c-.206.153-.406.275-.424.216-2.225-7.495-1.254-6.374-.662-12.34q-.1.127-.2.252l3-22.11c.318.642.656,1.274.991,1.9q.211.4.423.788c.258.059.509.129.752.209l-.376-.536,1.8.265a4.5,4.5,0,0,1,.913.767l.286-.2a7.347,7.347,0,0,1-.639-3.5C115.438,194.768,114.327,194.806,113.18,194.237Z" transform="translate(-67.399 -83.128)" fill="#2ab7f6"/>
          <path id="Path_27074" data-name="Path 27074" d="M131.408,204.132l.2-1.077a20.1,20.1,0,0,1,2.112-.1c-.151.2-.323.412-.515.653-.206.258-.633.109-1.106-.113A5.75,5.75,0,0,1,131.408,204.132Zm-4.351,2.693a6.242,6.242,0,0,1-4.616-.5,20.1,20.1,0,0,1,2.83-1.567Zm-7.774,5.271c-.873,1.426-1.679,2.8-2.4,4.119l-1.649-1.422a20.109,20.109,0,0,1,1.976-3.421Zm-4.705,8.84a27.5,27.5,0,0,0-1.117,3.194,20.2,20.2,0,0,1,.071-3Z" transform="translate(-69.389 -86.875)" fill="#d4d2d2"/>
          <path id="Path_27075" data-name="Path 27075" d="M77.321,218.852v17.022A17.353,17.353,0,0,1,66.227,237.7c-.092-.015-.183-.031-.274-.047v-5.7a11.879,11.879,0,0,0,2.683-.068,10.8,10.8,0,0,0,5.423-2.154l-.4-.725a24.861,24.861,0,0,1-7.706.608v-6.01a20.091,20.091,0,0,0,4.209-.737,16,16,0,0,0,5.013-2.308l.042-.029q.4-.327.782-.635l-.017-.011.09-.048C76.5,219.5,76.916,219.167,77.321,218.852Z" transform="translate(-48.987 -93.705)" fill="rgba(0,10,8,0.3)"/>
          <path id="Path_27076" data-name="Path 27076" d="M116.34,192.222a7.151,7.151,0,0,1-.249-5.359c.276-.753,11.492-5.6,13.617-2.441s1.552,7.344-1.279,9.328a27.9,27.9,0,0,1-3.6,2.351,6.467,6.467,0,0,1-7.051-1.743l-1.657,1.162-.427.175a1.6,1.6,0,0,1-.891-.212l-.354-.362-.2-.467a1.694,1.694,0,0,1,.127-.926l.314-.344Z" transform="translate(-69.731 -78.455)" fill="#efc9a7"/>
          <path id="Path_27077" data-name="Path 27077" d="M44.178,219.855a6.646,6.646,0,0,0,1.565,1.888,9.21,9.21,0,0,0,7.071,1.6,10.8,10.8,0,0,0,5.423-2.154l-.4-.725A25.165,25.165,0,0,1,49.32,221,21.166,21.166,0,0,1,44.178,219.855Zm-4.339-2.446a9.649,9.649,0,0,1-2.893-10.762,16.116,16.116,0,0,1,1.237-2.726c.124-.22,2.6.745,2.582.788-.944,2.357-1.514,5.167-.125,7.252l.033.048c.044-.152.091-.3.139-.453.075-.236,2.654.372,2.588.833-.078.543-.143,1.1-.184,1.65a12.053,12.053,0,0,0,3.383.91,19.137,19.137,0,0,0,7.741-.625,16,16,0,0,0,5.013-2.308l.107-.074q.354-.25.686-.529h0a7.4,7.4,0,0,1,.622-.4,3.644,3.644,0,0,1,3.4.077,3.353,3.353,0,0,1,1.03.881l.279-.161,3.939,7.128-2.45,1.413c0,.028,0,.056-.007.084a8.467,8.467,0,0,1-2.76,4.919c-.121.119-.624.574-1.083.922A16.913,16.913,0,0,1,50.4,229.158a14.485,14.485,0,0,1-5.309-1.947,11.16,11.16,0,0,1-4.843-6.548A12.959,12.959,0,0,1,39.839,217.41Z" transform="translate(-36.275 -87.275)" fill="#293677"/>
          <path id="Path_27078" data-name="Path 27078" d="M36.25,195.21c-.124-.186.026-.723.232-.64a48.82,48.82,0,0,1,5.392,2.874c.218.154-.387,1.336-.9,2.15-.185.293-.775-.318-1.479-.808-.4-.281-.93-.273-1.223-.668C37.416,196.966,36.583,195.709,36.25,195.21Z" transform="translate(-36.205 -83.267)" fill="#dcdcdc" fill-rule="evenodd"/>
          <path id="Path_27079" data-name="Path 27079" d="M38.949,211.581c-.175-.139-.192-.7.029-.682a48.238,48.238,0,0,1,6,1.049c.254.078.032,1.392-.213,2.328-.088.336-.833-.06-1.649-.306-.469-.141-.967.031-1.365-.253C40.585,212.888,39.416,211.951,38.949,211.581Z" transform="translate(-37.327 -90.287)" fill="#dcdcdc" fill-rule="evenodd"/>
          <path id="Path_27080" data-name="Path 27080" d="M117,201.465a6.578,6.578,0,0,0-2.525-3.76l-1.8-.266,3.89,5.532Z" transform="translate(-69.064 -84.504)" fill="#fff" fill-rule="evenodd"/>
          <path id="Path_27081" data-name="Path 27081" d="M82.445,214.263c4.928,3.087,6.6,8.777,4.7,11.2-1.194,1.522,4.121-3.967,4.121-3.967a12.517,12.517,0,0,0-5.887-9.6S82.418,214.156,82.445,214.263Z" transform="translate(-56.073 -90.713)" fill="#f1c9a7" fill-rule="evenodd"/>
          <path id="Path_27082" data-name="Path 27082" d="M112.914,257a5.791,5.791,0,0,1,.261.759c.019.129.057.277-.1.38-.185.122-.266-.025-.361-.108a5.558,5.558,0,0,1-.486-.629,3.248,3.248,0,0,1-.082.587c-.047.122-.1.273-.257.293s-.225-.145-.275-.263a5.68,5.68,0,0,1-.166-.774.9.9,0,0,1-.172.214c-.089.058-.2.225-.362.13a.466.466,0,0,1-.117-.373,12.836,12.836,0,0,1,.322-1.306c-.186-.18-.372-.36-.558-.541-.247-.241,1.32-.488,1.446-.3a6.414,6.414,0,0,1,.845-.2c.127-.01.295-.026.368.1s-.04.266-.111.374a3.49,3.49,0,0,1-.4.415c.4.376.867.8,1.056,1.036.082.1.181.241.08.384s-.246.1-.37.072A3.348,3.348,0,0,1,112.914,257Z" transform="translate(-68.143 -109.177)" fill="#f1c9a7"/>
          <path id="Path_27083" data-name="Path 27083" d="M93.3,184.818c-1.106-.219-.014,0-.014,0Zm-.843,6.613c-.425-1.1-.812-2.217-1.143-3.356-.541-1.884-1.2-4.091.054-5.57a2.247,2.247,0,0,1,1.581-.779,1.564,1.564,0,0,1,.2,0,2.3,2.3,0,0,1,.338.031,7.852,7.852,0,0,1,2.88,1.4,25.011,25.011,0,0,1,5.952,5.009h0a.939.939,0,0,1,.209.6,1.756,1.756,0,0,1-.059.305l-.169.258-.255.161a1.145,1.145,0,0,1-.609-.011,1.926,1.926,0,0,1-.517-.384,24.557,24.557,0,0,0-6.8-3.991l-.021-.009a26.076,26.076,0,0,0,2.287,5.128q.211.4.423.788a6.249,6.249,0,0,1,3.5,1.923c.719,1.067,1.859,4.277.864,6.59-4.649,10.8-7.555,16.664-3.835,24.052,0,0-1.214,1.116-1.35,1-4.55-3.934-3.992-8.428-3.4-14.393A23.271,23.271,0,0,1,85.37,216.6c-2.459-2.99-1.989-10.725-3.106-12.236-.965-1.3-1.381-3.671-5.626-2.162,5.66-4.7,7.86-5.5,15.4-10.524A4.753,4.753,0,0,1,92.461,191.431Z" transform="translate(-53.578 -77.75)" fill="#bedaff"/>
          <path id="Path_27084" data-name="Path 27084" d="M124.926,192.827a6.916,6.916,0,0,1-3.942-.512,12.864,12.864,0,0,1-3.231-1.908,6.246,6.246,0,0,1-.882-2.274c-.561-3.5,2.63-5.926,3.734-6.864,2.588-2.2,8.478-2,10.155.64,1.128,1.777,4.081,5.5.787,9.617-.488.609-2.2-1.047-2.863-.582l-1.42,1a1.354,1.354,0,0,0-.128-.314c-.2-.349-1.186.559-2.084,1.125C125.009,192.778,124.968,192.8,124.926,192.827Z" transform="translate(-70.837 -76.908)" fill="#b25e02"/>
          <path id="Path_27085" data-name="Path 27085" d="M90.627-.563c.148.1.123.184.123.184l-.011,120.823-.059.141-.141.059s-.146.071-.2-.2L90.351-.379,90.41-.52C90.484-.57,90.443-.6,90.627-.563Z" transform="translate(-59.465 0.58)" fill="#1a1e51"/>
        </g>
        <g id="Group_8213" data-name="Group 8213" transform="translate(175.552 22.262)">
          <path id="Path_27086" data-name="Path 27086" d="M363.741,141.121a15.56,15.56,0,0,0,4.433,7.282h0c.076.1.014.315-.123.574l.242.228a.122.122,0,0,1,.14-.04c.66.24,1.535.651,1.47.839a37.455,37.455,0,0,1-2,4.118c-.088.141-.41-.1-.416-.266-.015-.441-.059-1.549-.042-2.607a.68.68,0,0,1,.061-.266c-.226-.212-.451-.425-.676-.639a.229.229,0,0,1-.181.017,19.079,19.079,0,0,1-6.428-9.242Zm-8.141,0c.095.729.219,1.454.356,2.164a20.246,20.246,0,0,0,2.305,6.535h0c.029.078-.024.19-.129.316l.192.27c.1-.045.173-.047.22.019.4.574.886,1.412.724,1.53a37.622,37.622,0,0,1-4,2.232c-.153.065-.278-.318-.188-.457.24-.37.838-1.3,1.458-2.162a.7.7,0,0,1,.224-.2l-.179-.249c-.222.062-.4.06-.476-.047a24.022,24.022,0,0,1-3.936-9.957Z" transform="translate(-347.521 -82.568)" fill="rgba(212,210,210,0.3)"/>
          <path id="Path_27087" data-name="Path 27087" d="M359.836,159.84h-.192l-.1-.013-.14-.026-.077-.051-.051-.076-.026-.128v-.09l-.013-.2.026-.384v-.192l-.038-.485.013-.2.039-.166.051-.09.077-.038.128-.026h.294l.473.038h.2l.314-.022c.378.561.769,1.273.622,1.381-.236.173-.694.452-1.222.757l-.084.005Zm-1.917.026v1.2c-.2.1-.363.179-.477.227-.153.065-.278-.318-.188-.457.132-.2.374-.581.668-1.021Z" transform="translate(-349.69 -89.677)" fill="#f0502a"/>
          <path id="Path_27088" data-name="Path 27088" d="M374.7,122.292a7.177,7.177,0,0,1-.631.473l-.939.21a18.846,18.846,0,0,0-8.33,1.7,4.649,4.649,0,0,0-1.842,1.589c-.692,1.125-.4,2.7-.168,4.026a22.424,22.424,0,0,0,.654,2.736h-3.517q-.144-.4-.275-.8c-.9-2.731-1.4-5.714-.009-8.23a9.72,9.72,0,0,0-1.773.58,3.954,3.954,0,0,0-2.3,2.412,14.654,14.654,0,0,0-.27,6.039h-3.425c-.157-.924-.268-1.846-.336-2.754-.2-2.69.024-5.527,1.882-7.651.1-.114.2-.225.309-.333Z" transform="translate(-347.222 -74.477)" fill="rgba(0,0,0,0.3)"/>
          <path id="Path_27089" data-name="Path 27089" d="M380.358,153.615a.948.948,0,0,1,.588.232c.54.5,1.067,1,1.6,1.507a.949.949,0,0,1-.55,1.574.929.929,0,0,1-.683-.229c-.54-.5-1.068-1-1.6-1.507A.926.926,0,0,1,380.358,153.615Z" transform="translate(-359.241 -87.936)" fill="#c3c3c3"/>
          <path id="Path_27090" data-name="Path 27090" d="M362.187,154.2a.943.943,0,0,1,.7.36c.435.59.854,1.191,1.282,1.787a.951.951,0,0,1-.77,1.443.932.932,0,0,1-.7-.36c-.436-.59-.855-1.191-1.282-1.787A.92.92,0,0,1,362.187,154.2Z" transform="translate(-351.424 -88.186)" fill="#c3c3c3"/>
          <path id="Path_27091" data-name="Path 27091" d="M382,159.912c.006.165.328.407.416.266a37.664,37.664,0,0,0,2-4.118c.064-.188-.81-.6-1.47-.839-.237-.086-.328.537-.539,1.141-.121.347-.441.581-.447.943C381.937,158.363,381.98,159.471,382,159.912Z" transform="translate(-360.315 -88.623)" fill="#5c3712" fill-rule="evenodd"/>
          <path id="Path_27092" data-name="Path 27092" d="M360.255,160.7c-.09.139.035.522.189.457a37.738,37.738,0,0,0,4-2.232c.161-.117-.321-.955-.725-1.53-.145-.206-.576.252-1.1.626-.3.215-.694.224-.906.517C361.094,159.4,360.495,160.332,360.255,160.7Z" transform="translate(-350.98 -89.539)" fill="#5c3712" fill-rule="evenodd"/>
          <path id="Path_27093" data-name="Path 27093" d="M370.1,59.727a29.715,29.715,0,0,0-.731,3.207,10.294,10.294,0,0,0,.005,4.441l.008.027c-1-2.355-.608-5.1-.249-7.418.2-1.305.478-2.6.8-3.885l.02-.08c.169-.655.76-2.311.954-2.961.064-.215,13.517.606,13.517.606a28.291,28.291,0,0,1,1.453,10.912,11,11,0,0,1-.465,2.373l-.01.03a14.591,14.591,0,0,0-.042-5.054,15.682,15.682,0,0,1-.829,6.789,42.419,42.419,0,0,0-13.956.017C369.693,66.607,369.742,63.149,370.1,59.727Z" transform="translate(-354.641 -44.714)" fill="#2d0d60" fill-rule="evenodd"/>
          <path id="Path_27094" data-name="Path 27094" d="M372.977,78.768A5.148,5.148,0,0,1,374.82,76.3c1.931-1.162,1.655,2.059,3.239,2.864C376.326,79.109,374.64,78.97,372.977,78.768Zm6.6.425c1.609-.707,1.559-3.652,3.531-2.642a5.748,5.748,0,0,1,1.878,2.385q-.8.079-1.578.133C382.1,79.159,380.827,79.2,379.581,79.193Z" transform="translate(-356.459 -54.609)" fill="#b6b9fe" fill-rule="evenodd"/>
          <path id="Path_27095" data-name="Path 27095" d="M370.8,53.969V51.741a6.336,6.336,0,0,1,12.672,0v2.168a1.356,1.356,0,0,1,2.319.955v.764a1.356,1.356,0,0,1-2.43.829,6.349,6.349,0,0,1-4.981,5.031v1.308a8.306,8.306,0,0,1,1.726.518c1.092.461-1.665,3.676-3.182,3.645-1.748-.035-4.357-3.239-3.111-3.728a8.305,8.305,0,0,1,2.078-.518V61.487a6.348,6.348,0,0,1-4.993-5.092,1.356,1.356,0,0,1-2.475-.768v-.764a1.356,1.356,0,0,1,2.375-.894Z" transform="translate(-354.504 -41.441)" fill="#f9ab83" fill-rule="evenodd"/>
          <path id="Path_27098" data-name="Path 27098" d="M367.055,116.332c.388,0,.776.01,1.163.039l.924.275.724.589.452.817.107.959-.275.923a3.243,3.243,0,0,1-1.406,1.176l-.956.107a14.073,14.073,0,0,0-6.916.8,3.955,3.955,0,0,0-2.3,2.412,17.6,17.6,0,0,0,.086,8.2,20.258,20.258,0,0,0,2.305,6.535h0c.145.4-1.838,1.691-2.15,1.257a25.357,25.357,0,0,1-4.273-12.711c-.2-2.69.024-5.527,1.882-7.651,2.059-2.354,5.357-3.334,8.556-3.646C365.669,116.35,366.362,116.331,367.055,116.332Z" transform="translate(-348.512 -71.916)" fill="#52169d"/>
          <path id="Path_27099" data-name="Path 27099" d="M382.48,115.133A3.244,3.244,0,0,1,383.8,116.4l.211.942-.173.947a3.249,3.249,0,0,1-1.271,1.322l-.939.21a18.847,18.847,0,0,0-8.33,1.7,4.653,4.653,0,0,0-1.842,1.59c-.691,1.125-.4,2.7-.168,4.026.66,3.786,2.3,7.621,5.087,10.018h0c.265.333-1.136,2.135-1.523,1.958-3.34-2.375-5.451-6.226-6.7-10.042-1.021-3.112-1.528-6.554.688-9.257a12.936,12.936,0,0,1,6.466-3.829,27.156,27.156,0,0,1,3.082-.708l.039-.006a25.841,25.841,0,0,1,3.1-.321A4.879,4.879,0,0,1,382.48,115.133Z" transform="translate(-354.012 -71.327)" fill="#52169d"/>
          <path id="Path_27103" data-name="Path 27103" d="M376.592,47.542a7.944,7.944,0,0,0-2.767,2.637,8.762,8.762,0,0,0-.852,4.334l-1-1.2c-.813-3.967,1.328-8.874,6.363-8.581,7.068-1.08,8.092,4.364,7.262,8.415l-.914.94c-.481.868-4.047-2.6-5.834-4.78a9.649,9.649,0,0,0,1.182,2.448,2.1,2.1,0,0,0,.561.579.436.436,0,0,0,.116.059l.137.23-.231.136c-1.242-.185-2.132-1.806-2.788-2.9A23.883,23.883,0,0,1,376.592,47.542Z" transform="translate(-355.956 -41.092)" fill="#5a4100" fill-rule="evenodd"/>
          <path id="Path_27104" data-name="Path 27104" d="M384.311,76.908a54.936,54.936,0,0,1-13.141,2.106c-9.352.185-17.629-1.3-26.682-3.091l1.935,24.44c14.711,1.985,19.416,2.779,35.618.855Z" transform="translate(-344.218 -54.554)" fill="#fafafa" fill-rule="evenodd"/>
          <path id="Path_27105" data-name="Path 27105" d="M411.763,84.657a.918.918,0,0,0-.229.86c.279.886.675,2.552.857,2.483.554-.21,1.2-1.761.609-2.379-.262-.274-.9-.983-1.237-.963" transform="translate(-373.011 -58.306)" fill="#fcd1ad"/>
          <path id="Path_27106" data-name="Path 27106" d="M345.487,84.657a.917.917,0,0,1,.228.86c-.279.886-.675,2.552-.857,2.483-.554-.21-1.2-1.761-.608-2.379.261-.274.9-.983,1.237-.963" transform="translate(-344.015 -58.306)" fill="#fcd1ad"/>
          <path id="Path_27107" data-name="Path 27107" d="M371.805,47.388v-.816a7.018,7.018,0,0,1,14.036,0v.816a19.95,19.95,0,0,1-6.419,1.243A21.6,21.6,0,0,1,371.805,47.388Z" transform="translate(-355.956 -38.927)" fill="#ffc729" fill-rule="evenodd"/>
          <path id="Path_27108" data-name="Path 27108" d="M383.746,38.462a3.132,3.132,0,0,1,.543.087l-.006.326c-.047,1.177-.092,1.819-.167,2.94-.113,1.689-.241,3.376-.371,5.067l-.18.214-.18-.214-.083-1.076c-.132-1.785-.269-3.571-.376-5.355-.024-.4-.065-1.1-.08-1.576,0-.109,0-.217-.006-.326l.273-.06.27-.027A2.274,2.274,0,0,1,383.746,38.462Z" transform="translate(-360.697 -38.454)" fill="#d2a118"/>
          <path id="Path_27109" data-name="Path 27109" d="M389.584,41.453c.151.079.362.217.362.217a2.063,2.063,0,0,1,.27.248l-.123.179c-.457.636-.717.975-1.169,1.57q-1.022,1.344-2.061,2.674l-.178.052-.022-.185.348-.627c.58-1.039,1.157-2.08,1.75-3.109.165-.286.452-.777.648-1.086Z" transform="translate(-362.34 -39.714)" fill="#d2a118"/>
          <path id="Path_27110" data-name="Path 27110" d="M376.054,41.569c.4.67.615,1.043.983,1.692q.832,1.468,1.647,2.947l-.022.185-.178-.052-.44-.566c-.727-.942-1.457-1.882-2.169-2.833-.2-.264-.536-.721-.744-1.023l.129-.133c.132-.108.343-.248.343-.248a2.118,2.118,0,0,1,.334-.151Z" transform="translate(-357.385 -39.714)" fill="#d2a118"/>
          <path id="Path_27111" data-name="Path 27111" d="M371.805,53.29c.374,2.516,13.584,2.812,14.036,0Z" transform="translate(-355.956 -44.829)" fill="#d2a118" fill-rule="evenodd"/>
        </g>
      </g>
    </g>
  </g>
</svg>
