<svg xmlns="http://www.w3.org/2000/svg" xmlns:xlink="http://www.w3.org/1999/xlink" width="370" height="300" viewBox="0 0 370 300">
  <defs>
    <radialGradient id="radial-gradient" cx="0.5" cy="0.5" r="0.5" gradientUnits="objectBoundingBox">
      <stop offset="0" stop-color="#0094d6"/>
      <stop offset="1" stop-color="#002c9a"/>
    </radialGradient>
  </defs>
  <g id="Group_8208" data-name="Group 8208" transform="translate(-375 -1216)">
    <path id="Rectangle_645" data-name="Rectangle 645" d="M10,0H360a10,10,0,0,1,10,10V300a0,0,0,0,1,0,0H0a0,0,0,0,1,0,0V10A10,10,0,0,1,10,0Z" transform="translate(375 1216)" fill="url(#radial-gradient)"/>
    <g id="Group_7280" data-name="Group 7280" transform="translate(41.323 1081.118)">
      <path id="Path_23923" data-name="Path 23923" d="M542.088,315.765a25.146,25.146,0,0,0,2.384-41.322,94.108,94.108,0,0,1,10.363-12.273c1.813-1.812,3.656-3.521,5.517-5.156.744.629,1.473,1.276,2.183,1.953l6.19-3.783a6.721,6.721,0,0,1,9.238,2.229l6.132,10.034a6.719,6.719,0,0,1-2.229,9.238l-6.19,3.783a48.464,48.464,0,0,1,1.984,14.305l7,1.951a6.721,6.721,0,0,1,4.667,8.279l-3.162,11.328A6.72,6.72,0,0,1,577.881,321l-6.989-1.951a48.343,48.343,0,0,1-6.65,8.8l3.783,6.19a6.72,6.72,0,0,1-2.229,9.238l-10.034,6.133a6.719,6.719,0,0,1-9.238-2.229l-3.783-6.19a48.3,48.3,0,0,1-11.01,1.9,77.052,77.052,0,0,1-2.764-23.455A25.041,25.041,0,0,0,542.088,315.765Z" transform="translate(82.921 43.585)" fill="#489aff"/>
      <g id="Group_7239" data-name="Group 7239" transform="translate(373.658 219.792)">
        <g id="Group_7238" data-name="Group 7238">
          <rect id="Rectangle_1428" data-name="Rectangle 1428" width="237.564" height="168.795" rx="6.928" transform="translate(6.877)" fill="#e3eaff"/>
          <path id="Path_26979" data-name="Path 26979" d="M5.491,0H225.822a5.491,5.491,0,0,1,5.491,5.491V158.863a5.491,5.491,0,0,1-5.491,5.491H5.491A5.491,5.491,0,0,1,0,158.863V5.491A5.491,5.491,0,0,1,5.491,0Z" transform="translate(10.003 2.221)" fill="#bbcee1"/>
          <path id="Path_26978" data-name="Path 26978" d="M3.383,0H207.924a3.383,3.383,0,0,1,3.383,3.383V138.734a3.383,3.383,0,0,1-3.383,3.383H3.383A3.383,3.383,0,0,1,0,138.734V3.383A3.383,3.383,0,0,1,3.383,0Z" transform="translate(20.005 9.955)" fill="#1363a1"/>
          <path id="Path_23924" data-name="Path 23924" d="M374.767,307.683a8.816,8.816,0,0,0-1.109,4.22,8.909,8.909,0,0,0,8.908,8.908h233.5a8.909,8.909,0,0,0,8.91-8.908,8.817,8.817,0,0,0-1.109-4.22Z" transform="translate(-373.658 -147.641)" fill="#e3eaff"/>
        </g>
        <path id="Path_23925" data-name="Path 23925" d="M374.381,313.185a8.866,8.866,0,0,0,7.8,4.688h233.5a8.869,8.869,0,0,0,7.8-4.688Z" transform="translate(-373.272 -144.702)" fill="#c8d6f2"/>
      </g>
      <path id="Path_23926" data-name="Path 23926" d="M581.259,203.359H422.736V309.3a4.242,4.242,0,0,0,4.242,4.242H591.887V213.986A10.627,10.627,0,0,0,581.259,203.359Z" transform="translate(26.212 16.433)" fill="#424261" opacity="0.2"/>
      <rect id="Rectangle_1431" data-name="Rectangle 1431" width="185.572" height="117.706" rx="2.765" transform="translate(454.78 207.494)" fill="#e3eaff" opacity="0.21"/>
      <rect id="Rectangle_1432" data-name="Rectangle 1432" width="185.572" height="117.706" rx="2.765" transform="translate(462.202 199.541)" fill="#f9fbfc"/>
      <rect id="Rectangle_1433" data-name="Rectangle 1433" width="24.124" height="25.185" rx="1.728" transform="translate(406.465 254.682)" fill="#424261" opacity="0.2"/>
      <rect id="Rectangle_1434" data-name="Rectangle 1434" width="24.124" height="25.185" rx="1.728" transform="translate(405.073 291.266)" fill="#6db8ff"/>
      <rect id="Rectangle_1435" data-name="Rectangle 1435" width="24.124" height="25.185" rx="1.728" transform="translate(405.073 327.055)" fill="#6db8ff"/>
      <g id="Group_7240" data-name="Group 7240" transform="translate(410.905 331.139)">
        <path id="Path_23927" data-name="Path 23927" d="M409.438,281.675a5.734,5.734,0,0,0-11.469,0s-.809,6.075,5.734,10.9C410.246,287.75,409.438,281.675,409.438,281.675Z" transform="translate(-397.937 -275.941)" fill="#9570ee"/>
        <path id="Path_23928" data-name="Path 23928" d="M403.48,285.265a4.153,4.153,0,1,1,3.8-3.8A4.155,4.155,0,0,1,403.48,285.265Z" transform="translate(-397.376 -275.39)" fill="#f9fbfc"/>
      </g>
      <g id="Group_7247" data-name="Group 7247" transform="translate(408.624 295.593)">
        <g id="Group_7242" data-name="Group 7242">
          <g id="Group_7241" data-name="Group 7241">
            <path id="Path_23929" data-name="Path 23929" d="M412.318,260.7a7.934,7.934,0,1,1-7.933-7.933A7.933,7.933,0,0,1,412.318,260.7Z" transform="translate(-396.451 -252.77)" fill="#9570ee"/>
            <path id="Path_23930" data-name="Path 23930" d="M410.248,260.168a6.4,6.4,0,1,1-6.4-6.4A6.4,6.4,0,0,1,410.248,260.168Z" transform="translate(-395.916 -252.235)" fill="#f9fbfc"/>
            <path id="Path_23931" data-name="Path 23931" d="M403.933,253.949a6.4,6.4,0,0,1,6.133,4.573.256.256,0,0,0,.245.187h0a.256.256,0,0,0,.245-.327,6.91,6.91,0,0,0-13.25,0,.257.257,0,0,0,.247.327h0a.259.259,0,0,0,.245-.187A6.4,6.4,0,0,1,403.933,253.949Z" transform="translate(-395.999 -252.414)" fill="#bb87ee"/>
            <path id="Path_23932" data-name="Path 23932" d="M411.459,258.075a.763.763,0,0,0-.759.655,6.4,6.4,0,0,1-12.676,0,.763.763,0,0,0-.759-.655h0a.766.766,0,0,0-.762.864,7.932,7.932,0,0,0,15.72,0,.766.766,0,0,0-.762-.864Z" transform="translate(-396.428 -249.937)" fill="#7f57ee"/>
            <path id="Path_23933" data-name="Path 23933" d="M410.248,260.168a6.4,6.4,0,1,1-6.4-6.4A6.4,6.4,0,0,1,410.248,260.168Z" transform="translate(-395.916 -252.235)" fill="#f9fbfc"/>
            <path id="Path_23934" data-name="Path 23934" d="M410.12,259.287a.26.26,0,0,0-.242.17,6.4,6.4,0,0,1-11.989,0,.26.26,0,0,0-.241-.17h0a.257.257,0,0,0-.242.345,6.913,6.913,0,0,0,12.955,0,.256.256,0,0,0-.241-.345Z" transform="translate(-395.95 -249.289)" fill="#9570ee"/>
          </g>
          <path id="Path_23935" data-name="Path 23935" d="M401.718,260.09h0a.307.307,0,0,1-.307-.307v-4.5a.308.308,0,0,1,.307-.307h0a.308.308,0,0,1,.308.307v4.5A.307.307,0,0,1,401.718,260.09Z" transform="translate(-393.802 -251.594)" fill="#9570ee"/>
          <path id="Path_23936" data-name="Path 23936" d="M401.492,258.035h0a.306.306,0,0,1,.433-.035l2.778,2.347a.307.307,0,0,1,.037.433h0a.307.307,0,0,1-.433.037l-2.778-2.349A.306.306,0,0,1,401.492,258.035Z" transform="translate(-393.797 -250.016)" fill="#9570ee"/>
        </g>
        <g id="Group_7243" data-name="Group 7243" transform="translate(7.755 1.97)">
          <rect id="Rectangle_1436" data-name="Rectangle 1436" width="0.23" height="0.614" fill="#ced6ff"/>
          <rect id="Rectangle_1437" data-name="Rectangle 1437" width="0.23" height="0.614" transform="translate(0 11.209)" fill="#ced6ff"/>
        </g>
        <g id="Group_7244" data-name="Group 7244" transform="translate(1.958 7.767)">
          <rect id="Rectangle_1438" data-name="Rectangle 1438" width="0.23" height="0.614" transform="translate(0 0.23) rotate(-90)" fill="#ced6ff"/>
          <rect id="Rectangle_1439" data-name="Rectangle 1439" width="0.23" height="0.614" transform="translate(11.209 0.23) rotate(-90)" fill="#ced6ff"/>
        </g>
        <g id="Group_7245" data-name="Group 7245" transform="translate(3.608 3.62)">
          <rect id="Rectangle_1440" data-name="Rectangle 1440" width="0.23" height="0.614" transform="translate(0 0.163) rotate(-44.976)" fill="#ced6ff"/>
          <rect id="Rectangle_1441" data-name="Rectangle 1441" width="0.23" height="0.614" transform="translate(7.926 8.089) rotate(-45)" fill="#ced6ff"/>
        </g>
        <g id="Group_7246" data-name="Group 7246" transform="translate(3.608 3.62)">
          <rect id="Rectangle_1442" data-name="Rectangle 1442" width="0.23" height="0.614" transform="translate(0.163 8.523) rotate(-134.997)" fill="#ced6ff"/>
          <rect id="Rectangle_1443" data-name="Rectangle 1443" width="0.23" height="0.614" transform="matrix(-0.707, -0.707, 0.707, -0.707, 8.089, 0.597)" fill="#ced6ff"/>
        </g>
      </g>
      <g id="Group_7254" data-name="Group 7254" transform="translate(376.157 253.887)">
        <rect id="Rectangle_1444" data-name="Rectangle 1444" width="24.124" height="25.185" rx="1.728" transform="translate(28.916)" fill="#6db8ff"/>
        <g id="Group_7253" data-name="Group 7253" transform="translate(0 13.255)">
          <path id="Path_23937" data-name="Path 23937" d="M393.83,243.569l1.988-1.392.895-3.281-.994-.2-.6,1.193.6-5.667-.994.2-.994,5.468-1.193,2.585,1.093.7" transform="translate(-366.074 -234.224)" fill="#f7d3a9"/>
          <path id="Path_23938" data-name="Path 23938" d="M401.048,246.007l.265-2.386,2.916-2.916.663.928-1.06,1.193L409.4,241.5v1.193l-5.17,1.988-1.06,1.856Z" transform="translate(-361.528 -230.763)" fill="#f7d3a9"/>
          <g id="Group_7252" data-name="Group 7252" transform="translate(0 7.339)">
            <g id="Group_7251" data-name="Group 7251">
              <path id="Path_23939" data-name="Path 23939" d="M377.389,282.612l10.843,53.044,8.206-.879-5.568-2.052,2.051-.586-2.931-49.527Z" transform="translate(-374.165 -215.72)" fill="#3a55ca"/>
              <path id="Path_23940" data-name="Path 23940" d="M393.66,283.06s13.773,12.9,11.722,28.428c-2.344,12.308-7.327,17-7.327,17l-1.465-.293,2.272,6.007-6.6-7.034s8.132-11.21,3.077-22.859A31.4,31.4,0,0,0,379.3,288.483s9.451-8.572,10.111-8.353A45.416,45.416,0,0,1,393.66,283.06Z" transform="translate(-373.144 -217.048)" fill="#3a55ca"/>
              <g id="Group_7250" data-name="Group 7250">
                <path id="Path_23941" data-name="Path 23941" d="M401.663,239.008s-22.639,27.476-25.276,32.969c0,0-1.1,1.979-1.1,7.693s1.979,26.816,1.979,26.816l23.079,1.318s-7.474-25.716-7.693-26.375-3.956-4.616-7.473-5.5l19.342-34.946Z" transform="translate(-375.287 -239.008)" fill="#bedaff"/>
                <g id="Group_7249" data-name="Group 7249" transform="translate(5.939 20.838)">
                  <path id="Path_23942" data-name="Path 23942" d="M384.834,262.018s.962,2.853,1.493,4.578c0,0-4.711-.1-6.37-2.289l1.758-4.213Z" transform="translate(-378.732 -248.585)" fill="#fcc4b7"/>
                  <g id="Group_7248" data-name="Group 7248">
                    <path id="Path_23943" data-name="Path 23943" d="M388.843,257.109s1.393,8.114,0,9.958-6.17-1.29-8.16-4.242-2.389-9.588.994-10.142A6.257,6.257,0,0,1,388.843,257.109Z" transform="translate(-379.158 -252.592)" fill="#fcc4b7"/>
                  </g>
                </g>
                <path id="Path_23944" data-name="Path 23944" d="M384.4,277s18.15-11.418,19.613-13.759,5.563-19.761,5.563-19.761l3.513.877s-2.049,19.468-2.634,21.517-18.444,21.078-22.542,21.078S382.346,281.68,384.4,277Z" transform="translate(-370.914 -236.621)" fill="#bedaff"/>
              </g>
            </g>
            <path id="Path_23945" data-name="Path 23945" d="M379.741,253.811a6.882,6.882,0,0,1,6.629-2.519c4.242.795,5.3-.132,5.3-.132s-.928,4.639-3.844,5.7-3.711.795-3.711.795a9.887,9.887,0,0,1,1.988,2.784c.4,1.192-1.325-1.459-1.988-.531s0,2.916,1.325,2.784.529.928,0,1.988-1.325,2.386-2.122,1.988a9.367,9.367,0,0,1-4.639-5.3C377.621,258.053,377.356,254.871,379.741,253.811Z" transform="translate(-373.89 -232.518)" fill="#b25e02"/>
          </g>
        </g>
      </g>
      <rect id="Rectangle_1445" data-name="Rectangle 1445" width="55.672" height="93.847" rx="1.296" transform="translate(473.602 211.868)" fill="#e3eaff"/>
      <rect id="Rectangle_1446" data-name="Rectangle 1446" width="36.054" height="7.953" rx="1.037" transform="translate(483.146 219.424)" fill="#6db8ff"/>
      <path id="Path_23946" data-name="Path 23946" d="M456.444,239.24h-7.16a3.046,3.046,0,0,1-3.047-3.047h0a3.047,3.047,0,0,1,3.047-3.048h7.16a3.047,3.047,0,0,1,3.048,3.048h0A3.047,3.047,0,0,1,456.444,239.24Z" transform="translate(38.764 32.342)" fill="#6db8ff"/>
      <path id="Path_23947" data-name="Path 23947" d="M469.925,239.24h-7.161a3.046,3.046,0,0,1-3.047-3.047h0a3.047,3.047,0,0,1,3.047-3.048h7.161a3.047,3.047,0,0,1,3.047,3.048h0A3.046,3.046,0,0,1,469.925,239.24Z" transform="translate(45.963 32.342)" fill="#9570ee"/>
      <rect id="Rectangle_1447" data-name="Rectangle 1447" width="38.705" height="6.097" transform="translate(482.35 235.33)" fill="#f9fbfc"/>
      <rect id="Rectangle_1448" data-name="Rectangle 1448" width="38.705" height="6.097" transform="translate(482.35 245.669)" fill="#f9fbfc"/>
      <rect id="Rectangle_1449" data-name="Rectangle 1449" width="22.269" height="1.392" transform="translate(490.701 255.61)" fill="#cdd4ff"/>
      <path id="Path_23948" data-name="Path 23948" d="M576.807,253.448H507.216a7.754,7.754,0,0,1-7.753-7.755h0a7.754,7.754,0,0,1,7.753-7.753h69.591a7.754,7.754,0,0,1,7.753,7.753h0A7.754,7.754,0,0,1,576.807,253.448Z" transform="translate(67.19 34.902)" fill="#9570ee"/>
      <g id="Group_7255" data-name="Group 7255" transform="translate(534.045 209.881)">
        <path id="Path_23949" data-name="Path 23949" d="M527.914,209.622H484.57a6.362,6.362,0,0,1-6.363-6.362h0a6.362,6.362,0,0,1,6.363-6.362h43.344a6.362,6.362,0,0,1,6.362,6.362h0A6.362,6.362,0,0,1,527.914,209.622Z" transform="translate(-478.207 -196.898)" fill="#e3eaff"/>
        <path id="Path_23950" data-name="Path 23950" d="M490.478,201.737a1.988,1.988,0,1,1-1.988-1.988A1.988,1.988,0,0,1,490.478,201.737Z" transform="translate(-473.777 -195.375)" fill="#ffc240"/>
        <path id="Path_23951" data-name="Path 23951" d="M499.378,201.737a1.988,1.988,0,1,1-1.988-1.988A1.988,1.988,0,0,1,499.378,201.737Z" transform="translate(-469.023 -195.375)" fill="#90c240"/>
        <path id="Path_23952" data-name="Path 23952" d="M507.586,201.737a1.988,1.988,0,1,1-1.988-1.988A1.988,1.988,0,0,1,507.586,201.737Z" transform="translate(-464.64 -195.375)" fill="#eb4f24"/>
      </g>
      <g id="Group_7257" data-name="Group 7257" transform="translate(409.571 260.235)">
        <circle id="Ellipse_431" data-name="Ellipse 431" cx="4.843" cy="4.843" r="4.843" transform="translate(2.444 2.95)" fill="#fff"/>
        <g id="Group_7256" data-name="Group 7256">
          <path id="Path_23953" data-name="Path 23953" d="M409.376,231.666h-.853L407.3,229.94a.52.52,0,0,0-.422-.218h-4.894a.515.515,0,0,0-.42.218l-1.226,1.726h-.855a2.421,2.421,0,0,0-2.413,2.415v7.02a2.421,2.421,0,0,0,2.413,2.415h9.895a2.421,2.421,0,0,0,2.413-2.415v-7.02A2.421,2.421,0,0,0,409.376,231.666Zm-4.947,9.422a3.558,3.558,0,1,1,3.558-3.558A3.558,3.558,0,0,1,404.429,241.088Z" transform="translate(-397.068 -229.722)" fill="#9570ee"/>
          <circle id="Ellipse_432" data-name="Ellipse 432" cx="2.352" cy="2.352" r="2.352" transform="translate(5.009 5.456)" fill="#6db8ff"/>
        </g>
      </g>
      <g id="Group_7258" data-name="Group 7258" transform="translate(550.525 235.631)">
        <path id="Rectangle_1450" data-name="Rectangle 1450" d="M2.045,0h38.57a2.045,2.045,0,0,1,2.045,2.045V25.977a2.045,2.045,0,0,1-2.045,2.045H2.044A2.044,2.044,0,0,1,0,25.977V2.045A2.045,2.045,0,0,1,2.045,0Z" fill="#e3eaff"/>
        <path id="Path_23954" data-name="Path 23954" d="M509.025,226.637h-.083a1.121,1.121,0,0,1-.545-.141l-16.444-9.135a1.121,1.121,0,0,1,1.089-1.961l15.941,8.856,15.941-8.856a1.121,1.121,0,0,1,1.088,1.961L509.57,226.5A1.129,1.129,0,0,1,509.025,226.637Z" transform="translate(-487.654 -212.843)" fill="#fd4940"/>
      </g>
      <rect id="Rectangle_1451" data-name="Rectangle 1451" width="52.888" height="68.397" rx="1.814" transform="translate(602.84 192.383)" fill="#544db8"/>
      <g id="Group_7259" data-name="Group 7259" transform="translate(610.792 200.188)">
        <path id="Path_23955" data-name="Path 23955" d="M532.1,191.944h-3.524c-.187,0-.339-.305-.339-.683h0c0-.376.152-.681.339-.681H532.1c.189,0,.341.305.341.681h0C532.438,191.639,532.286,191.944,532.1,191.944Z" transform="translate(-528.235 -190.58)" fill="#0cf"/>
        <path id="Path_23956" data-name="Path 23956" d="M552.109,191.944H531.953c-.187,0-.339-.305-.339-.683h0c0-.376.152-.681.339-.681h20.156c.187,0,.341.305.341.681h0C552.45,191.639,552.3,191.944,552.109,191.944Z" transform="translate(-526.43 -190.58)" fill="#0cf"/>
        <path id="Path_23957" data-name="Path 23957" d="M538.382,193.778h-6.429c-.187,0-.339-.305-.339-.681h0c0-.376.152-.681.339-.681h6.429c.187,0,.339.305.339.681h0C538.721,193.473,538.57,193.778,538.382,193.778Z" transform="translate(-526.43 -189.599)" fill="#ff56a9"/>
        <path id="Path_23958" data-name="Path 23958" d="M546.264,193.778H537c-.187,0-.339-.305-.339-.681h0c0-.376.152-.681.339-.681h9.267c.187,0,.339.305.339.681h0C546.6,193.473,546.452,193.778,546.264,193.778Z" transform="translate(-523.736 -189.599)" fill="#e3eaff"/>
        <path id="Path_23959" data-name="Path 23959" d="M552.109,202.718H531.953c-.187,0-.339-.305-.339-.683h0c0-.376.152-.681.339-.681h20.156c.187,0,.341.305.341.681h0C552.45,202.413,552.3,202.718,552.109,202.718Z" transform="translate(-526.43 -184.826)" fill="#e3eaff"/>
        <path id="Path_23960" data-name="Path 23960" d="M532.1,204.552h-3.524c-.187,0-.339-.3-.339-.681h0c0-.376.152-.681.339-.681H532.1c.189,0,.341.305.341.681h0C532.438,204.249,532.286,204.552,532.1,204.552Z" transform="translate(-528.235 -183.845)" fill="#0cf"/>
        <path id="Path_23961" data-name="Path 23961" d="M538.382,204.552h-6.429c-.187,0-.339-.3-.339-.681h0c0-.376.152-.681.339-.681h6.429c.187,0,.339.305.339.681h0C538.721,204.249,538.57,204.552,538.382,204.552Z" transform="translate(-526.43 -183.845)" fill="#e3eaff"/>
        <path id="Path_23962" data-name="Path 23962" d="M546.264,204.552H537c-.187,0-.339-.3-.339-.681h0c0-.376.152-.681.339-.681h9.267c.187,0,.339.305.339.681h0C546.6,204.249,546.452,204.552,546.264,204.552Z" transform="translate(-523.736 -183.845)" fill="#ff56a9"/>
        <path id="Path_23963" data-name="Path 23963" d="M557.109,195.614H531.953c-.187,0-.339-.305-.339-.681h0c0-.376.152-.681.339-.681h25.156c.187,0,.339.305.339.681h0C557.448,195.309,557.3,195.614,557.109,195.614Z" transform="translate(-526.43 -188.619)" fill="#ff56a9"/>
        <rect id="Rectangle_1452" data-name="Rectangle 1452" width="6.575" height="1.363" rx="0.234" transform="translate(19.19 8.449)" fill="#0cf"/>
        <path id="Path_23964" data-name="Path 23964" d="M540.309,197.45h-8.356c-.187,0-.339-.305-.339-.681h0c0-.377.152-.681.339-.681h8.356c.187,0,.339.3.339.681h0C540.648,197.145,540.5,197.45,540.309,197.45Z" transform="translate(-526.43 -187.638)" fill="#e3eaff"/>
        <path id="Path_23965" data-name="Path 23965" d="M541.453,197.45h-3.314c-.187,0-.339-.305-.339-.681h0c0-.377.152-.681.339-.681h3.314c.187,0,.339.3.339.681h0C541.792,197.145,541.64,197.45,541.453,197.45Z" transform="translate(-523.127 -187.638)" fill="#0cf"/>
        <path id="Path_23966" data-name="Path 23966" d="M532.1,199.226h-3.524c-.187,0-.339-.305-.339-.683h0c0-.376.152-.681.339-.681H532.1c.189,0,.341.305.341.681h0C532.438,198.921,532.286,199.226,532.1,199.226Z" transform="translate(-528.235 -186.691)" fill="#e3eaff"/>
        <path id="Path_23967" data-name="Path 23967" d="M557.109,199.226H531.953c-.187,0-.339-.305-.339-.683h0c0-.376.152-.681.339-.681h25.156c.187,0,.339.305.339.681h0C557.448,198.921,557.3,199.226,557.109,199.226Z" transform="translate(-526.43 -186.691)" fill="#e3eaff"/>
        <path id="Path_23968" data-name="Path 23968" d="M532.1,206.254h-3.524c-.187,0-.339-.305-.339-.683h0c0-.376.152-.681.339-.681H532.1c.189,0,.341.305.341.681h0C532.438,205.949,532.286,206.254,532.1,206.254Z" transform="translate(-528.235 -182.937)" fill="#e3eaff"/>
        <rect id="Rectangle_1453" data-name="Rectangle 1453" width="9.096" height="1.363" rx="0.275" transform="translate(19.19 21.953)" fill="#e3eaff"/>
        <path id="Path_23969" data-name="Path 23969" d="M540.309,206.254h-8.356c-.187,0-.339-.305-.339-.683h0c0-.376.152-.681.339-.681h8.356c.187,0,.339.305.339.681h0C540.648,205.949,540.5,206.254,540.309,206.254Z" transform="translate(-526.43 -182.937)" fill="#e3eaff"/>
        <path id="Path_23970" data-name="Path 23970" d="M541.453,206.254h-3.314c-.187,0-.339-.305-.339-.683h0c0-.376.152-.681.339-.681h3.314c.187,0,.339.305.339.681h0C541.792,205.949,541.64,206.254,541.453,206.254Z" transform="translate(-523.127 -182.937)" fill="#e3eaff"/>
        <path id="Path_23971" data-name="Path 23971" d="M532.1,208.027h-3.524c-.187,0-.339-.305-.339-.681h0c0-.376.152-.681.339-.681H532.1c.189,0,.341.305.341.681h0C532.438,207.722,532.286,208.027,532.1,208.027Z" transform="translate(-528.235 -181.989)" fill="#ffc359"/>
        <path id="Path_23972" data-name="Path 23972" d="M536.308,208.027h-4.355c-.187,0-.339-.305-.339-.681h0c0-.376.152-.681.339-.681h4.355c.187,0,.339.305.339.681h0C536.647,207.722,536.5,208.027,536.308,208.027Z" transform="translate(-526.43 -181.989)" fill="#0cf"/>
        <path id="Path_23973" data-name="Path 23973" d="M528.574,201.06c-.187,0-.339-.3-.339-.681h0c0-.376.152-.681.339-.681H532.1c.189,0,.341.305.341.681h0c0,.377-.152.681-.341.681" transform="translate(-528.235 -185.71)" fill="#0cf"/>
        <rect id="Rectangle_1454" data-name="Rectangle 1454" width="10.278" height="1.363" rx="0.292" transform="translate(19.19 13.988)" fill="#e3eaff"/>
        <path id="Path_23974" data-name="Path 23974" d="M540.309,201.06h-8.356c-.187,0-.339-.3-.339-.681h0c0-.376.152-.681.339-.681h8.356c.187,0,.339.305.339.681h0C540.648,200.757,540.5,201.06,540.309,201.06Z" transform="translate(-526.43 -185.71)" fill="#ffc359"/>
        <path id="Path_23975" data-name="Path 23975" d="M541.453,201.06h-3.314c-.187,0-.339-.3-.339-.681h0c0-.376.152-.681.339-.681h3.314c.187,0,.339.305.339.681h0C541.792,200.757,541.64,201.06,541.453,201.06Z" transform="translate(-523.127 -185.71)" fill="#ffc359"/>
        <path id="Path_23976" data-name="Path 23976" d="M552.109,209.916H531.953c-.187,0-.339-.305-.339-.683h0c0-.376.152-.681.339-.681h20.156c.187,0,.341.305.341.681h0C552.45,209.611,552.3,209.916,552.109,209.916Z" transform="translate(-526.43 -180.981)" fill="#e3eaff"/>
        <path id="Path_23977" data-name="Path 23977" d="M538.382,211.75h-6.429c-.187,0-.339-.3-.339-.681h0c0-.376.152-.681.339-.681h6.429c.187,0,.339.305.339.681h0C538.721,211.447,538.57,211.75,538.382,211.75Z" transform="translate(-526.43 -180.001)" fill="#e3eaff"/>
        <path id="Path_23978" data-name="Path 23978" d="M546.264,211.75H537c-.187,0-.339-.3-.339-.681h0c0-.376.152-.681.339-.681h9.267c.187,0,.339.305.339.681h0C546.6,211.447,546.452,211.75,546.264,211.75Z" transform="translate(-523.736 -180.001)" fill="#e3eaff"/>
        <path id="Path_23979" data-name="Path 23979" d="M552.109,220.69H531.953c-.187,0-.339-.305-.339-.681h0c0-.377.152-.683.339-.683h20.156c.187,0,.341.305.341.683h0C552.45,220.385,552.3,220.69,552.109,220.69Z" transform="translate(-526.43 -175.227)" fill="#e3eaff"/>
        <path id="Path_23980" data-name="Path 23980" d="M532.1,222.526h-3.524c-.187,0-.339-.305-.339-.683h0c0-.376.152-.681.339-.681H532.1c.189,0,.341.305.341.681h0C532.438,222.221,532.286,222.526,532.1,222.526Z" transform="translate(-528.235 -174.247)" fill="#ff56a9"/>
        <path id="Path_23981" data-name="Path 23981" d="M538.382,222.526h-6.429c-.187,0-.339-.305-.339-.683h0c0-.376.152-.681.339-.681h6.429c.187,0,.339.305.339.681h0C538.721,222.221,538.57,222.526,538.382,222.526Z" transform="translate(-526.43 -174.247)" fill="#0cf"/>
        <path id="Path_23982" data-name="Path 23982" d="M546.264,222.526H537c-.187,0-.339-.305-.339-.683h0c0-.376.152-.681.339-.681h9.267c.187,0,.339.305.339.681h0C546.6,222.221,546.452,222.526,546.264,222.526Z" transform="translate(-523.736 -174.247)" fill="#e3eaff"/>
        <path id="Path_23983" data-name="Path 23983" d="M532.1,213.586h-3.524c-.187,0-.339-.305-.339-.681h0c0-.376.152-.681.339-.681H532.1c.189,0,.341.305.341.681h0C532.438,213.281,532.286,213.586,532.1,213.586Z" transform="translate(-528.235 -179.02)" fill="#ff56a9"/>
        <rect id="Rectangle_1455" data-name="Rectangle 1455" width="18.743" height="1.363" rx="0.267" transform="translate(5.183 33.204)" fill="#ff56a9"/>
        <path id="Path_23984" data-name="Path 23984" d="M532.1,215.422h-3.524c-.187,0-.339-.305-.339-.681h0c0-.376.152-.681.339-.681H532.1c.189,0,.341.305.341.681h0C532.438,215.117,532.286,215.422,532.1,215.422Z" transform="translate(-528.235 -178.04)" fill="#e3eaff"/>
        <path id="Path_23985" data-name="Path 23985" d="M540.309,215.422h-8.356c-.187,0-.339-.305-.339-.681h0c0-.376.152-.681.339-.681h8.356c.187,0,.339.305.339.681h0C540.648,215.117,540.5,215.422,540.309,215.422Z" transform="translate(-526.43 -178.04)" fill="#e3eaff"/>
        <path id="Path_23986" data-name="Path 23986" d="M541.453,215.422h-3.314c-.187,0-.339-.305-.339-.681h0c0-.376.152-.681.339-.681h3.314c.187,0,.339.305.339.681h0C541.792,215.117,541.64,215.422,541.453,215.422Z" transform="translate(-523.127 -178.04)" fill="#e3eaff"/>
        <path id="Path_23987" data-name="Path 23987" d="M532.1,217.2h-3.524c-.187,0-.339-.305-.339-.681h0c0-.377.152-.683.339-.683H532.1c.189,0,.341.305.341.683h0C532.438,216.893,532.286,217.2,532.1,217.2Z" transform="translate(-528.235 -177.092)" fill="#e3eaff"/>
        <path id="Rectangle_1456" data-name="Rectangle 1456" d="M.3,0h23a.3.3,0,0,1,.3.3v.764a.3.3,0,0,1-.3.3H.3a.3.3,0,0,1-.3-.3V.3A.3.3,0,0,1,.3,0Z" transform="translate(5.183 38.742)" fill="#e3eaff"/>
        <path id="Path_23988" data-name="Path 23988" d="M532.1,224.226h-3.524c-.187,0-.339-.305-.339-.681h0c0-.377.152-.683.339-.683H532.1c.189,0,.341.305.341.683h0C532.438,223.921,532.286,224.226,532.1,224.226Z" transform="translate(-528.235 -173.339)" fill="#e3eaff"/>
        <path id="Path_23989" data-name="Path 23989" d="M552.207,224.226H541.083c-.187,0-.339-.305-.339-.681h0c0-.377.152-.683.339-.683h11.124c.187,0,.339.305.339.683h0C552.546,223.921,552.394,224.226,552.207,224.226Z" transform="translate(-521.554 -173.339)" fill="#e3eaff"/>
        <path id="Path_23990" data-name="Path 23990" d="M540.309,224.226h-8.356c-.187,0-.339-.305-.339-.681h0c0-.377.152-.683.339-.683h8.356c.187,0,.339.305.339.683h0C540.648,223.921,540.5,224.226,540.309,224.226Z" transform="translate(-526.43 -173.339)" fill="#e3eaff"/>
        <path id="Path_23991" data-name="Path 23991" d="M541.453,224.226h-3.314c-.187,0-.339-.305-.339-.681h0c0-.377.152-.683.339-.683h3.314c.187,0,.339.305.339.683h0C541.792,223.921,541.64,224.226,541.453,224.226Z" transform="translate(-523.127 -173.339)" fill="#e3eaff"/>
        <rect id="Rectangle_1457" data-name="Rectangle 1457" width="15.592" height="1.363" rx="0.243" transform="translate(5.183 52.246)" fill="#ffc359"/>
        <rect id="Rectangle_1458" data-name="Rectangle 1458" width="10.882" height="1.363" rx="0.301" transform="translate(19.19 41.559)" fill="#ff56a9"/>
        <path id="Path_23992" data-name="Path 23992" d="M540.309,219.032h-8.356c-.187,0-.339-.3-.339-.681h0c0-.376.152-.681.339-.681h8.356c.187,0,.339.305.339.681h0C540.648,218.729,540.5,219.032,540.309,219.032Z" transform="translate(-526.43 -176.112)" fill="#ffc359"/>
        <path id="Path_23993" data-name="Path 23993" d="M541.453,219.032h-3.314c-.187,0-.339-.3-.339-.681h0c0-.376.152-.681.339-.681h3.314c.187,0,.339.305.339.681h0C541.792,218.729,541.64,219.032,541.453,219.032Z" transform="translate(-523.127 -176.112)" fill="#ffc359"/>
      </g>
      <g id="Group_7263" data-name="Group 7263" transform="translate(640.329 182.661)">
        <circle id="Ellipse_433" data-name="Ellipse 433" cx="11.134" cy="11.134" r="11.134" fill="#ff4dd1"/>
        <g id="Group_7262" data-name="Group 7262" transform="translate(4.006 8.444)">
          <g id="Group_7260" data-name="Group 7260">
            <path id="Path_23994" data-name="Path 23994" d="M556.422,186.305,552,187.925l4.423,1.608v1.66l-6.322-2.4v-1.726l6.322-2.4Z" transform="translate(-550.1 -184.659)" fill="#f9fbfc"/>
          </g>
          <g id="Group_7261" data-name="Group 7261" transform="translate(7.766)">
            <path id="Path_23995" data-name="Path 23995" d="M555.162,184.659l6.322,2.4v1.726l-6.322,2.4v-1.66l4.423-1.608-4.423-1.62Z" transform="translate(-555.162 -184.659)" fill="#f9fbfc"/>
          </g>
        </g>
      </g>
      <g id="Group_7265" data-name="Group 7265" transform="translate(561.039 364.764)">
        <circle id="Ellipse_434" data-name="Ellipse 434" cx="12.078" cy="12.078" r="12.078" transform="matrix(0.828, -0.561, 0.561, 0.828, 0, 13.558)" fill="#ffc240"/>
        <g id="Group_7264" data-name="Group 7264" transform="translate(10.398 10.39)">
          <path id="Path_23996" data-name="Path 23996" d="M515.335,310.325a5.688,5.688,0,0,1-.359,2.059,3.41,3.41,0,0,1-1.016,1.465,2.357,2.357,0,0,1-1.523.531,1.891,1.891,0,0,1-1.023-.278,1.581,1.581,0,0,1-.64-.73h-.126a2.676,2.676,0,0,1-2.148,1.008,2.875,2.875,0,0,1-2.178-.831,3.151,3.151,0,0,1-.8-2.277,3.519,3.519,0,0,1,1.048-2.657,3.777,3.777,0,0,1,2.734-1.006,9.45,9.45,0,0,1,1.479.129,8.115,8.115,0,0,1,1.332.308l-.18,3.82q0,1.084.594,1.085.5,0,.8-.73a5.177,5.177,0,0,0,.3-1.91,4.592,4.592,0,0,0-.523-2.221,3.559,3.559,0,0,0-1.473-1.473,4.515,4.515,0,0,0-2.168-.508,5.543,5.543,0,0,0-2.741.649,4.343,4.343,0,0,0-1.784,1.87,6.151,6.151,0,0,0-.621,2.824,4.474,4.474,0,0,0,1.152,3.308,4.521,4.521,0,0,0,3.34,1.152,10.042,10.042,0,0,0,1.819-.184,12.093,12.093,0,0,0,1.953-.535v1.5a9.392,9.392,0,0,1-3.711.71,6.485,6.485,0,0,1-4.627-1.562,5.675,5.675,0,0,1-1.66-4.343,7.273,7.273,0,0,1,.847-3.5,6.158,6.158,0,0,1,2.415-2.468,7.127,7.127,0,0,1,3.6-.894,6.561,6.561,0,0,1,3.07.7,4.987,4.987,0,0,1,2.085,2A5.963,5.963,0,0,1,515.335,310.325Zm-8,.977q0,1.648,1.342,1.648a1.252,1.252,0,0,0,1.071-.5,3.147,3.147,0,0,0,.445-1.612l.1-1.727a4.306,4.306,0,0,0-.9-.086,1.934,1.934,0,0,0-1.52.609A2.413,2.413,0,0,0,507.338,311.3Z" transform="translate(-502.581 -304.632)" fill="#fff"/>
        </g>
      </g>
      <g id="Group_7266" data-name="Group 7266" transform="translate(430.204 172.59)">
        <path id="Path_23997" data-name="Path 23997" d="M497.433,172.59H421.662a11.143,11.143,0,1,0,0,22.286h5.572l5.385,5.386L438,194.876h59.429a11.143,11.143,0,0,0,0-22.286Z" transform="translate(-410.518 -172.59)" fill="#9570ee"/>
        <path id="Path_23998" data-name="Path 23998" d="M470.834,183.037H420.974a1.246,1.246,0,0,1-1.247-1.246h0a1.247,1.247,0,0,1,1.247-1.247h49.859a1.247,1.247,0,0,1,1.246,1.247h0A1.246,1.246,0,0,1,470.834,183.037Z" transform="translate(-405.6 -168.342)" fill="#fff"/>
        <path id="Path_23999" data-name="Path 23999" d="M455.252,178.568H420.974a1.246,1.246,0,0,1-1.247-1.246h0a1.247,1.247,0,0,1,1.247-1.247h34.278a1.247,1.247,0,0,1,1.247,1.247h0A1.246,1.246,0,0,1,455.252,178.568Z" transform="translate(-405.6 -170.729)" fill="#fff"/>
      </g>
      <g id="Group_7270" data-name="Group 7270" transform="translate(599.546 285.91)">
        <path id="Path_24000" data-name="Path 24000" d="M535.184,265.275s-.928,2.752-1.439,4.415c0,0,4.543-.1,6.141-2.208l-1.7-4.062Z" transform="translate(-514.046 -237.399)" fill="#f7d3a9"/>
        <g id="Group_7267" data-name="Group 7267" transform="translate(16.675 103.49)">
          <path id="Path_24001" data-name="Path 24001" d="M534.238,314.166l.388,1.731,2.508.141-.53-2.119Z" transform="translate(-530.458 -313.918)" fill="#f79a74"/>
          <path id="Path_24002" data-name="Path 24002" d="M535.942,315.208s-4.2,2.191-4.168,2.332,7.1-.6,7.1-.6l-.423-1.589Z" transform="translate(-531.774 -313.229)" fill="#544db8"/>
        </g>
        <g id="Group_7268" data-name="Group 7268" transform="translate(39.585 99.168)">
          <path id="Path_24003" data-name="Path 24003" d="M548.055,312.183l.985,1.475,2.391-.771-1.257-1.787Z" transform="translate(-545.988 -311.101)" fill="#f79a74"/>
          <path id="Path_24004" data-name="Path 24004" d="M549.759,313.036s-3.133,3.556-3.05,3.676,6.409-3.116,6.409-3.116l-.968-1.33Z" transform="translate(-546.708 -310.479)" fill="#544db8"/>
        </g>
        <path id="Path_24005" data-name="Path 24005" d="M531.977,284.333s-7.206,23.527,4.239,46.207h3.392s-6.782-25.647,1.7-46.418Z" transform="translate(-516.185 -226.343)" fill="#6125b3"/>
        <path id="Path_24006" data-name="Path 24006" d="M535.277,285.961s1.117,24.581,19.517,42.1l3.194-1.14s-15-21.878-14-44.289Z" transform="translate(-513.228 -227.14)" fill="#6125b3"/>
        <g id="Group_7269" data-name="Group 7269" transform="translate(0 0)">
          <path id="Path_24007" data-name="Path 24007" d="M534.432,249.894l.009-1.451a.717.717,0,0,0-.025-.189l-.276-1.037-.827.212-.844-.779a.715.715,0,0,0-1.134.218,7.98,7.98,0,0,0-.65,1.8.708.708,0,0,0,.183.6l1.289,1.41a.717.717,0,0,0,.733.2l1.028-.3A.715.715,0,0,0,534.432,249.894Z" transform="translate(-515.684 -246.458)" fill="#f79a74"/>
          <path id="Path_24008" data-name="Path 24008" d="M546.585,280.451s-9.4-10.073-10.018-13.844-1.994-17.794-1.994-17.794l-2.9.558s-.994,20.061-.115,22.372,6.53,14.083,10.212,15.171S548.039,284.371,546.585,280.451Z" transform="translate(-515.406 -245.2)" fill="#b6b9fe"/>
          <path id="Path_24009" data-name="Path 24009" d="M533.144,259.909s-2.122,7.054-.778,8.832,6.287.169,8.207-2.677,2.3-9.247-.96-9.781S533.911,257.065,533.144,259.909Z" transform="translate(-515.02 -241.273)" fill="#f79a74"/>
          <path id="Path_24010" data-name="Path 24010" d="M547.031,295.925s1.907-20.348,1.907-25.858c0-.253,0-.489-.008-.726a5.435,5.435,0,0,0-6.351-3.232c-1.413.284-6.923,2.05-6.888,2.261l-.015-.018a13.617,13.617,0,0,0-3.482,3.41,32.847,32.847,0,0,0-.635,23.315Z" transform="translate(-516.189 -236.027)" fill="#b6b9fe"/>
          <path id="Path_24011" data-name="Path 24011" d="M524.807,250.408l-.247-1.43a.667.667,0,0,0-.057-.181l-.454-.973-.776.353-.968-.62a.717.717,0,0,0-1.078.414,8.062,8.062,0,0,0-.322,1.892.707.707,0,0,0,.284.552l1.516,1.163a.718.718,0,0,0,.758.072l.959-.48A.715.715,0,0,0,524.807,250.408Z" transform="translate(-520.904 -245.932)" fill="#f79a74"/>
          <path id="Path_24012" data-name="Path 24012" d="M542.077,278.479s-11.022-8.266-12.294-11.869-5.087-17.168-5.087-17.168l-2.755,1.06s2.544,19.923,3.815,22.043,8.9,12.716,12.718,13.141S544.2,282.083,542.077,278.479Z" transform="translate(-520.35 -244.865)" fill="#b6b9fe"/>
          <path id="Path_24013" data-name="Path 24013" d="M541.361,256.415s-5.652-2.4-8.336,2.544c-1.414,3.108,3.108.141,3.956,1.129s-1.131,2.968-.566,3.674,1.554-1.272,2.12-.141-.848,1.272-1.838,2.543.848,3.11-.565,4.24-5.369,1.977-2.967,8.054-3.956,7.631-1.272,15.967,20.913,13,24.3,3.11-7.913-12.294-7.206-16.674,3.249-5.512-.141-9.892-5.51-6.923-4.522-9.751A3.7,3.7,0,0,0,541.361,256.415Z" transform="translate(-515.395 -241.452)" fill="#2d0d60"/>
        </g>
      </g>
      <path id="Path_24014" data-name="Path 24014" d="M552.109,233.941a12.151,12.151,0,1,0,12.15,12.151A12.151,12.151,0,0,0,552.109,233.941Zm-6.144,11.207a1.486,1.486,0,1,1,1.487,1.485A1.486,1.486,0,0,1,545.964,245.148Zm6.144,7.575a3.864,3.864,0,0,1-3.828-3.338h7.654A3.863,3.863,0,0,1,552.109,252.723Zm4.658-6.09a1.485,1.485,0,1,1,1.485-1.485A1.485,1.485,0,0,1,556.766,246.632Z" transform="translate(88.818 32.767)" fill="#fec800"/>
      <path id="Path_24015" data-name="Path 24015" d="M430.473,308.933l-.711-1.423,19.261-9.631,24.3.4,26.385-9.938h20.152l21.517-7.172.176.019,17.255,1.962,9.727-5.058.733,1.41-10.156,5.281-.242-.026-17.321-1.97-21.559,7.144H499.853L473.6,299.874l-.152,0-24.063-.395Z" transform="translate(29.964 56.346)" fill="#f9fbfc"/>
      <g id="Group_7277" data-name="Group 7277" transform="translate(517.344 252.296)">
        <path id="Path_24016" data-name="Path 24016" d="M476.306,274.922s19.089,30.915,16.7,52.423l12.991.268-5.567-3.226,1.591-.268s-4.773-33.336-9.28-45.165c-4.72-12.389-6.1-7.8-6.1-7.8Z" transform="translate(-462.521 -200.098)" fill="#544db8"/>
        <path id="Path_24017" data-name="Path 24017" d="M474.213,272.438s1.062,21.474-.529,29.692-6.363,24.389-6.363,24.389l12.194.265-3.2-2.261-2.031-1.184s8.681-23.329,9.476-34.463a146.115,146.115,0,0,1,2.122-17.5Z" transform="translate(-467.32 -199.535)" fill="#544db8"/>
        <g id="Group_7276" data-name="Group 7276" transform="translate(4.09)">
          <path id="Path_24018" data-name="Path 24018" d="M488.529,233.892l1.988-1.392.895-3.281-.994-.2-.6,1.193.6-5.667-.994.2-.994,5.468-1.193,2.585,1.094.7" transform="translate(-460.773 -224.547)" fill="#f7d3a9"/>
          <path id="Path_24019" data-name="Path 24019" d="M495.747,236.329l.265-2.386,2.916-2.916.663.928-1.06,1.193,5.567-1.325v1.193L498.929,235l-1.061,1.856Z" transform="translate(-456.227 -221.086)" fill="#f7d3a9"/>
          <g id="Group_7275" data-name="Group 7275" transform="translate(0 7.339)">
            <g id="Group_7274" data-name="Group 7274">
              <g id="Group_7273" data-name="Group 7273">
                <path id="Path_24020" data-name="Path 24020" d="M496.363,229.331S473.723,256.8,471.086,262.3c0,0-1.1,1.979-1.1,7.693s1.979,26.814,1.979,26.814l23.079,1.319s-7.473-25.716-7.693-26.376-3.956-4.616-7.473-5.5l19.342-34.948Z" transform="translate(-469.986 -229.331)" fill="#6db8ff"/>
                <g id="Group_7272" data-name="Group 7272" transform="translate(5.939 20.838)">
                  <path id="Path_24021" data-name="Path 24021" d="M479.533,252.341s.962,2.853,1.493,4.578c0,0-4.711-.1-6.37-2.289l1.758-4.213Z" transform="translate(-473.431 -238.908)" fill="#f7d3a9"/>
                  <g id="Group_7271" data-name="Group 7271">
                    <path id="Path_24022" data-name="Path 24022" d="M483.542,247.432s1.393,8.114,0,9.958-6.17-1.292-8.16-4.242-2.389-9.59.994-10.142A6.255,6.255,0,0,1,483.542,247.432Z" transform="translate(-473.857 -242.915)" fill="#f7d3a9"/>
                  </g>
                </g>
                <path id="Path_24023" data-name="Path 24023" d="M479.094,267.32s18.15-11.418,19.615-13.761S504.27,233.8,504.27,233.8l3.513.879s-2.048,19.468-2.634,21.517-18.444,21.078-22.542,21.078S477.045,272,479.094,267.32Z" transform="translate(-465.613 -226.945)" fill="#6db8ff"/>
              </g>
            </g>
          </g>
        </g>
        <path id="Path_24024" data-name="Path 24024" d="M482.715,246.76s.928-3.18-1.06-4.771-5.434-1.325-5.965-.8c0,.928,2.122,1.459,1.591,1.988s-3.314,0-3.976,2.784.265,3.314.265,3.314-1.459,1.723.264,4.108,5.618,4.354,6.587,4.1.439-3.966.439-3.966-2.254-.265-2.385-1.723,1.06-1.591,1.589-1.062.663,1.724,1.062,1.459-.133-3.05-.133-3.05A5.572,5.572,0,0,0,482.715,246.76Z" transform="translate(-464.29 -215.876)" fill="#544db8"/>
      </g>
      <g id="Group_7279" data-name="Group 7279" transform="translate(527.624 364.142)">
        <path id="Path_24025" data-name="Path 24025" d="M492.85,297.706l-13.632,3.738a7.089,7.089,0,0,0-4.946,8.684l2.579,9.4a7.089,7.089,0,0,0,8.684,4.946l4.088-1.121,4.024,3.976,1.431-5.474,4.088-1.12a7.09,7.09,0,0,0,4.946-8.686l-2.579-9.4A7.087,7.087,0,0,0,492.85,297.706Z" transform="translate(-474.022 -297.454)" fill="#9570ee"/>
        <g id="Group_7278" data-name="Group 7278" transform="translate(6.736 10.737)">
          <path id="Path_24026" data-name="Path 24026" d="M481.485,308.061a1.564,1.564,0,1,1-1.921-1.1A1.562,1.562,0,0,1,481.485,308.061Z" transform="translate(-478.412 -303.142)" fill="#fff"/>
          <path id="Path_24027" data-name="Path 24027" d="M485.963,306.831a1.564,1.564,0,1,1-1.921-1.094A1.564,1.564,0,0,1,485.963,306.831Z" transform="translate(-476.021 -303.798)" fill="#fff"/>
          <path id="Path_24028" data-name="Path 24028" d="M490.44,305.6a1.564,1.564,0,1,1-1.921-1.094A1.564,1.564,0,0,1,490.44,305.6Z" transform="translate(-473.629 -304.453)" fill="#fff"/>
        </g>
      </g>
      <circle id="Ellipse_435" data-name="Ellipse 435" cx="2.519" cy="2.519" r="2.519" transform="translate(476.518 352.108)" fill="#ffc240"/>
      <circle id="Ellipse_436" data-name="Ellipse 436" cx="2.519" cy="2.519" r="2.519" transform="translate(569.039 335.936)" fill="#ff4f72"/>
    </g>
  </g>
</svg>
