<svg xmlns="http://www.w3.org/2000/svg" xmlns:xlink="http://www.w3.org/1999/xlink" width="370" height="300" viewBox="0 0 370 300">
  <defs>
    <radialGradient id="radial-gradient" cx="0.5" cy="0.5" r="0.5" gradientUnits="objectBoundingBox">
      <stop offset="0" stop-color="#0094d6"/>
      <stop offset="1" stop-color="#002c9a"/>
    </radialGradient>
  </defs>
  <g id="Group_8207" data-name="Group 8207" transform="translate(-775 -1216)">
    <path id="Rectangle_646" data-name="Rectangle 646" d="M10,0H360a10,10,0,0,1,10,10V300a0,0,0,0,1,0,0H0a0,0,0,0,1,0,0V10A10,10,0,0,1,10,0Z" transform="translate(775 1216)" fill="url(#radial-gradient)"/>
    <g id="Group_8197" data-name="Group 8197" transform="translate(581.989 1093.222)">
      <g id="Group_8129" data-name="Group 8129" transform="translate(230.011 363.549)">
        <g id="Group_8128" data-name="Group 8128" transform="translate(0 7.519)" opacity="0.5">
          <path id="Path_26902" data-name="Path 26902" d="M356.149,319.01a330.764,330.764,0,0,1-63.069,6.139,330.763,330.763,0,0,1-63.069-6.139,327.059,327.059,0,0,1,126.138,0Z" transform="translate(-230.011 -312.871)" fill="#1a1e51"/>
          <path id="Path_26903" data-name="Path 26903" d="M333.216,318.745a316.654,316.654,0,0,1-41.992,5.416c1.375-3.491,2.682-7.024,3.89-10.57A312.592,312.592,0,0,1,333.216,318.745Z" transform="translate(-207.085 -312.602)" fill="#173d7a"/>
        </g>
        <path id="Path_26904" data-name="Path 26904" d="M473.454,321.011a226.214,226.214,0,0,1-104.694,0,226.262,226.262,0,0,1,104.694,0Z" transform="translate(-178.045 -304.603)" fill="#1a1e51" opacity="0.5"/>
        <path id="Path_26905" data-name="Path 26905" d="M470.509,311.061a302.822,302.822,0,0,1-93.883,0,302.82,302.82,0,0,1,93.883,0Z" transform="translate(-175.099 -307.401)" fill="#1a1e51" opacity="0.5"/>
      </g>
      <g id="Group_8196" data-name="Group 8196" transform="translate(243.048 157.486)">
        <g id="Group_8131" data-name="Group 8131" transform="translate(0 178.797)">
          <path id="Path_26976" data-name="Path 26976" d="M2.97,0H73.543a2.966,2.966,0,0,1,2.966,2.966V34.713a2.966,2.966,0,0,1-2.966,2.966H2.97A2.97,2.97,0,0,1,0,34.709V2.97A2.97,2.97,0,0,1,2.97,0Z" fill="#6db8ff"/>
          <g id="Group_8130" data-name="Group 8130" transform="translate(5.744 5.815)">
            <rect id="Rectangle_1482" data-name="Rectangle 1482" width="65.021" height="3.373" transform="translate(65.021 3.373) rotate(180)" fill="#fff"/>
            <rect id="Rectangle_1483" data-name="Rectangle 1483" width="65.021" height="3.373" transform="translate(65.021 10.932) rotate(180)" fill="#fff"/>
            <rect id="Rectangle_1484" data-name="Rectangle 1484" width="65.021" height="3.375" transform="translate(65.021 18.49) rotate(180)" fill="#fff"/>
            <rect id="Rectangle_1485" data-name="Rectangle 1485" width="20.439" height="3.373" transform="translate(65.021 26.048) rotate(180)" fill="#fff"/>
          </g>
        </g>
        <g id="Group_8136" data-name="Group 8136" transform="translate(169.276 139.216)">
          <g id="Group_8132" data-name="Group 8132">
            <path id="Path_26906" data-name="Path 26906" d="M362.647,266.394V321.65a7.63,7.63,0,0,0,7.64,7.626h77.355a7.63,7.63,0,0,0,7.64-7.626V266.394a7.629,7.629,0,0,0-7.64-7.626H370.287A7.629,7.629,0,0,0,362.647,266.394Z" transform="translate(-362.647 -258.768)" fill="#fff"/>
          </g>
          <g id="Group_8134" data-name="Group 8134">
            <path id="Path_26907" data-name="Path 26907" d="M362.647,266.394v4.231h92.634v-4.231a7.629,7.629,0,0,0-7.64-7.626H370.287A7.629,7.629,0,0,0,362.647,266.394Z" transform="translate(-362.647 -258.768)" fill="#505084"/>
            <g id="Group_8133" data-name="Group 8133" transform="translate(71.472 4.891)">
              <path id="Path_26908" data-name="Path 26908" d="M423.972,263.929a1.6,1.6,0,1,0,1.6-1.6A1.6,1.6,0,0,0,423.972,263.929Z" transform="translate(-411.15 -262.326)" fill="#fff"/>
              <path id="Path_26909" data-name="Path 26909" d="M419.308,263.929a1.6,1.6,0,1,0,1.6-1.6A1.6,1.6,0,0,0,419.308,263.929Z" transform="translate(-412.897 -262.326)" fill="#fff"/>
              <path id="Path_26910" data-name="Path 26910" d="M414.644,263.929a1.6,1.6,0,1,0,1.6-1.6A1.6,1.6,0,0,0,414.644,263.929Z" transform="translate(-414.644 -262.326)" fill="#fff"/>
            </g>
          </g>
          <path id="Path_26975" data-name="Path 26975" d="M1.787,0H70.6a1.787,1.787,0,0,1,1.787,1.787V15.758A1.787,1.787,0,0,1,70.6,17.546H1.786A1.786,1.786,0,0,1,0,15.759V1.787A1.787,1.787,0,0,1,1.787,0Z" transform="translate(82.511 35.255) rotate(180)" fill="#6db8ff"/>
          <g id="Group_8135" data-name="Group 8135" transform="translate(10.123 40.533)">
            <rect id="Rectangle_1487" data-name="Rectangle 1487" width="71.852" height="3.375" transform="translate(71.852 3.375) rotate(180)" fill="#00a49f"/>
            <rect id="Rectangle_1488" data-name="Rectangle 1488" width="71.852" height="3.373" transform="translate(71.852 11.673) rotate(180)" fill="#00a49f"/>
            <rect id="Rectangle_1489" data-name="Rectangle 1489" width="35.926" height="3.375" transform="translate(71.852 19.972) rotate(180)" fill="#00a49f"/>
          </g>
        </g>
        <path id="Path_26911" data-name="Path 26911" d="M269.541,277.621v3.938a1.658,1.658,0,0,0,1.658,1.658h3.321a12.85,12.85,0,0,0,1.072,2.6l-2.345,2.345a1.658,1.658,0,0,0,0,2.345l2.783,2.782a1.654,1.654,0,0,0,2.344,0l2.345-2.344a12.876,12.876,0,0,0,2.6,1.071v3.321a1.658,1.658,0,0,0,1.658,1.658h3.937a1.658,1.658,0,0,0,1.659-1.658v-3.321a12.91,12.91,0,0,0,2.6-1.071l2.344,2.344a1.654,1.654,0,0,0,2.344,0l2.785-2.782a1.661,1.661,0,0,0,0-2.345l-2.344-2.345a12.845,12.845,0,0,0,1.071-2.6h3.321a1.658,1.658,0,0,0,1.658-1.658v-3.938a1.657,1.657,0,0,0-1.658-1.656H299.37a12.879,12.879,0,0,0-1.071-2.6l2.344-2.345a1.659,1.659,0,0,0,0-2.344l-2.785-2.785a1.659,1.659,0,0,0-2.344,0l-2.344,2.345a12.833,12.833,0,0,0-2.6-1.071v-3.322a1.658,1.658,0,0,0-1.659-1.658h-3.937a1.658,1.658,0,0,0-1.658,1.658v3.322a12.8,12.8,0,0,0-2.6,1.071l-2.345-2.345a1.659,1.659,0,0,0-2.344,0l-2.783,2.785a1.657,1.657,0,0,0,0,2.344l2.345,2.345a12.8,12.8,0,0,0-1.072,2.6H271.2A1.657,1.657,0,0,0,269.541,277.621ZM280,279.59a6.944,6.944,0,1,1,6.943,6.944A6.944,6.944,0,0,1,280,279.59Z" transform="translate(-228.242 -118.272)" fill="#f065a6"/>
        <g id="Group_8162" data-name="Group 8162" transform="translate(69.114)">
          <g id="Group_8144" data-name="Group 8144" transform="translate(7.133)">
            <g id="Group_8142" data-name="Group 8142" transform="translate(3.91)">
              <g id="Group_8141" data-name="Group 8141">
                <g id="Group_8140" data-name="Group 8140">
                  <g id="Group_8139" data-name="Group 8139">
                    <g id="Group_8138" data-name="Group 8138">
                      <g id="Group_8137" data-name="Group 8137">
                        <path id="Rectangle_1490" data-name="Rectangle 1490" d="M7.907,0H123.619a7.907,7.907,0,0,1,7.907,7.907V208.569a7.907,7.907,0,0,1-7.907,7.907H7.906A7.906,7.906,0,0,1,0,208.57V7.907A7.907,7.907,0,0,1,7.907,0Z" transform="translate(131.526 216.476) rotate(180)" fill="#e3eaff"/>
                      </g>
                    </g>
                  </g>
                  <path id="Path_26912" data-name="Path 26912" d="M301.106,168.531V360.8a8.224,8.224,0,0,0,8.224,8.224H415.351a8.222,8.222,0,0,0,8.222-8.222V168.531a8.222,8.222,0,0,0-8.222-8.222H309.33A8.223,8.223,0,0,0,301.106,168.531Z" transform="translate(-296.577 -156.428)" fill="#bbcee1"/>
                  <path id="Path_26913" data-name="Path 26913" d="M415.76,166.6V353.067a7.746,7.746,0,0,1-7.62,7.864H313.19a7.741,7.741,0,0,1-7.614-7.864V166.6Z" transform="translate(-294.903 -154.073)" fill="#1363a1"/>
                  <path id="Path_26914" data-name="Path 26914" d="M339.9,176.3h24.742a8.737,8.737,0,0,0,7.658-4.53l4.264-7.762H327.982l4.264,7.762A8.737,8.737,0,0,0,339.9,176.3Z" transform="translate(-286.511 -155.043)" fill="#bbcee1"/>
                  <path id="Path_26915" data-name="Path 26915" d="M338.178,170.218H360a1.686,1.686,0,0,0,1.685-1.687h0A1.686,1.686,0,0,0,360,166.845H338.178a1.687,1.687,0,0,0-1.687,1.687h0A1.687,1.687,0,0,0,338.178,170.218Z" transform="translate(-283.324 -153.98)" fill="#7a8ea1"/>
                </g>
              </g>
            </g>
            <g id="Group_8143" data-name="Group 8143" transform="translate(0 34.606)">
              <rect id="Rectangle_1491" data-name="Rectangle 1491" width="3.91" height="14.845" transform="translate(139.346 14.845) rotate(180)" fill="#fff"/>
              <rect id="Rectangle_1492" data-name="Rectangle 1492" width="3.91" height="14.845" transform="translate(139.346 38.124) rotate(180)" fill="#fff"/>
              <rect id="Rectangle_1493" data-name="Rectangle 1493" width="3.91" height="14.845" transform="translate(3.91 14.845) rotate(180)" fill="#fff"/>
            </g>
          </g>
          <g id="Group_8145" data-name="Group 8145" transform="translate(29.869 128.705)">
            <path id="Path_26916" data-name="Path 26916" d="M327.166,282.438h0a15.66,15.66,0,0,0,15.659-15.66h0a15.658,15.658,0,0,0-15.659-15.657h0a15.657,15.657,0,0,0-15.659,15.657h0A15.659,15.659,0,0,0,327.166,282.438Z" transform="translate(-311.507 -251.121)" fill="#fff"/>
            <path id="Path_26917" data-name="Path 26917" d="M321.455,268.59a3.412,3.412,0,0,1,1.986.642l4.012-2.873a3.144,3.144,0,0,1,0-2.151l-4.012-2.873a3.5,3.5,0,1,1,1.225-1.612l3.963,2.837a3.4,3.4,0,0,1,2.066-.708,3.432,3.432,0,1,1-2.066,6.157l-3.963,2.836a3.4,3.4,0,0,1,.22,1.178,3.431,3.431,0,1,1-3.431-3.432Z" transform="translate(-309.066 -249.625)" fill="#f065a6"/>
          </g>
          <g id="Group_8149" data-name="Group 8149" transform="translate(29.927 33.918)">
            <g id="Group_8146" data-name="Group 8146" transform="translate(65.641 0)">
              <rect id="Rectangle_1494" data-name="Rectangle 1494" width="28.121" height="28.122" rx="2.586" transform="translate(28.121 28.122) rotate(180)" fill="#fff"/>
              <path id="Path_26918" data-name="Path 26918" d="M365.772,188.446c3.144-2.381,5.966.924,5.966.924s2.822-3.3,5.965-.924a5.415,5.415,0,0,1,1.629,6.561c-1.876,4.141-7.594,6.951-7.594,6.951s-5.718-2.81-7.594-6.951A5.415,5.415,0,0,1,365.772,188.446Z" transform="translate(-357.676 -180.132)" fill="#f065a6"/>
            </g>
            <g id="Group_8147" data-name="Group 8147" transform="translate(32.82 0)">
              <rect id="Rectangle_1495" data-name="Rectangle 1495" width="28.123" height="28.122" rx="2.586" transform="translate(28.123 28.122) rotate(180)" fill="#6db8ff"/>
            </g>
            <g id="Group_8148" data-name="Group 8148" transform="translate(0 0)">
              <rect id="Rectangle_1496" data-name="Rectangle 1496" width="28.122" height="28.122" rx="2.586" transform="translate(28.122 28.122) rotate(180)" fill="#6db8ff"/>
            </g>
          </g>
          <g id="Group_8151" data-name="Group 8151" transform="translate(74.189 125.523)">
            <path id="Path_26919" data-name="Path 26919" d="M343.751,252.882v29.528a4.077,4.077,0,0,0,4.081,4.076H389.17a4.077,4.077,0,0,0,4.081-4.076V252.882a4.077,4.077,0,0,0-4.081-4.075H347.832A4.077,4.077,0,0,0,343.751,252.882Z" transform="translate(-343.751 -248.806)" fill="#fff"/>
            <g id="Group_8150" data-name="Group 8150" transform="translate(5.743 5.816)">
              <rect id="Rectangle_1497" data-name="Rectangle 1497" width="38.012" height="3.373" transform="translate(38.012 3.373) rotate(180)" fill="#00a49f"/>
              <rect id="Rectangle_1498" data-name="Rectangle 1498" width="38.012" height="3.375" transform="translate(38.012 10.932) rotate(180)" fill="#00a49f"/>
              <rect id="Rectangle_1499" data-name="Rectangle 1499" width="38.012" height="3.373" transform="translate(38.012 18.489) rotate(180)" fill="#00a49f"/>
              <rect id="Rectangle_1500" data-name="Rectangle 1500" width="20.438" height="3.373" transform="translate(38.012 26.048) rotate(180)" fill="#00a49f"/>
            </g>
          </g>
          <g id="Group_8153" data-name="Group 8153" transform="translate(60.053 34.118)">
            <g id="Group_8152" data-name="Group 8152" transform="translate(0 0)">
              <path id="Rectangle_1501" data-name="Rectangle 1501" d="M2.587,0h22.95a2.586,2.586,0,0,1,2.586,2.586v22.95a2.586,2.586,0,0,1-2.586,2.586H2.586A2.586,2.586,0,0,1,0,25.536V2.587A2.587,2.587,0,0,1,2.587,0Z" transform="matrix(-0.987, -0.162, 0.162, -0.987, 27.752, 32.298)" fill="#00a49f"/>
            </g>
            <path id="Path_26920" data-name="Path 26920" d="M348.458,188.338l-3.252,4.076-5.211.181,2.871,4.352-1.439,5.012,5.027-1.386,4.322,2.917.235-5.209,4.11-3.209-4.882-1.834Z" transform="translate(-331.022 -180.049)" fill="#fff"/>
          </g>
          <rect id="Rectangle_1502" data-name="Rectangle 1502" width="100.877" height="27.559" rx="3.029" transform="translate(127.246 198.103) rotate(180)" fill="#6db8ff"/>
          <rect id="Rectangle_1503" data-name="Rectangle 1503" width="100.877" height="27.559" rx="3.029" transform="translate(127.246 117.08) rotate(180)" fill="#6db8ff"/>
          <g id="Group_8157" data-name="Group 8157" transform="translate(62.195 89.521)">
            <path id="Path_26977" data-name="Path 26977" d="M3.029,0H97.846a3.029,3.029,0,0,1,3.029,3.029v21.5a3.029,3.029,0,0,1-3.029,3.029H3.029A3.029,3.029,0,0,1,0,24.529V3.029A3.029,3.029,0,0,1,3.029,0Z" transform="translate(100.875 27.559) rotate(180)" fill="#544db8"/>
            <g id="Group_8156" data-name="Group 8156" transform="translate(4.52 4.954)">
              <path id="Rectangle_1505" data-name="Rectangle 1505" d="M1.067,0H17.522A1.067,1.067,0,0,1,18.59,1.067V16.585a1.067,1.067,0,0,1-1.067,1.067H1.066A1.066,1.066,0,0,1,0,16.585V1.067A1.067,1.067,0,0,1,1.067,0Z" transform="translate(91.835 17.651) rotate(180)" fill="#fff"/>
              <g id="Group_8155" data-name="Group 8155" transform="translate(0 1.165)">
                <rect id="Rectangle_1506" data-name="Rectangle 1506" width="68.321" height="2.53" transform="translate(68.321 2.53) rotate(180)" fill="#fff"/>
                <g id="Group_8154" data-name="Group 8154" transform="translate(0 6.395)">
                  <rect id="Rectangle_1507" data-name="Rectangle 1507" width="22.605" height="2.53" transform="translate(68.321 2.53) rotate(180)" fill="#fff"/>
                  <rect id="Rectangle_1508" data-name="Rectangle 1508" width="38.8" height="2.53" transform="translate(38.8 2.53) rotate(180)" fill="#fff"/>
                </g>
                <rect id="Rectangle_1509" data-name="Rectangle 1509" width="38.8" height="2.53" transform="translate(68.321 15.322) rotate(180)" fill="#fff"/>
              </g>
            </g>
          </g>
          <g id="Group_8161" data-name="Group 8161" transform="translate(0 170.361)">
            <rect id="Rectangle_1510" data-name="Rectangle 1510" width="100.875" height="27.558" rx="3.029" transform="translate(100.875 27.558) rotate(180)" fill="#ff6748"/>
            <g id="Group_8160" data-name="Group 8160" transform="translate(4.521 4.953)">
              <path id="Rectangle_1511" data-name="Rectangle 1511" d="M1.066,0H17.523A1.066,1.066,0,0,1,18.59,1.066V16.584a1.067,1.067,0,0,1-1.067,1.067H1.066A1.066,1.066,0,0,1,0,16.585V1.066A1.066,1.066,0,0,1,1.066,0Z" transform="translate(91.833 17.651) rotate(180)" fill="#fff"/>
              <g id="Group_8159" data-name="Group 8159" transform="translate(0 1.165)">
                <rect id="Rectangle_1512" data-name="Rectangle 1512" width="68.32" height="2.53" transform="translate(68.32 2.53) rotate(180)" fill="#fff"/>
                <g id="Group_8158" data-name="Group 8158" transform="translate(0 6.395)">
                  <rect id="Rectangle_1513" data-name="Rectangle 1513" width="22.605" height="2.532" transform="translate(68.32 2.532) rotate(180)" fill="#fff"/>
                  <rect id="Rectangle_1514" data-name="Rectangle 1514" width="38.798" height="2.532" transform="translate(38.798 2.532) rotate(180)" fill="#fff"/>
                </g>
                <rect id="Rectangle_1515" data-name="Rectangle 1515" width="38.8" height="2.53" transform="translate(68.32 15.321) rotate(180)" fill="#fff"/>
              </g>
            </g>
          </g>
        </g>
        <g id="Group_8176" data-name="Group 8176" transform="translate(2.287 58.756)">
          <g id="Group_8167" data-name="Group 8167" transform="translate(27.331 1.632)">
            <g id="Group_8163" data-name="Group 8163">
              <path id="Path_26921" data-name="Path 26921" d="M261.043,207.861v46.692a6.446,6.446,0,0,0,6.455,6.441H332.86a6.445,6.445,0,0,0,6.453-6.441V207.861a6.445,6.445,0,0,0-6.453-6.442H267.5A6.446,6.446,0,0,0,261.043,207.861Z" transform="translate(-261.043 -201.419)" fill="#544db8"/>
            </g>
            <g id="Group_8165" data-name="Group 8165">
              <path id="Path_26922" data-name="Path 26922" d="M261.043,207.861v3.576h78.27v-3.576a6.445,6.445,0,0,0-6.453-6.442H267.5A6.446,6.446,0,0,0,261.043,207.861Z" transform="translate(-261.043 -201.419)" fill="#6125b3"/>
              <g id="Group_8164" data-name="Group 8164" transform="translate(60.39 4.132)">
                <path id="Path_26923" data-name="Path 26923" d="M312.86,205.779a1.353,1.353,0,1,0,1.353-1.354A1.354,1.354,0,0,0,312.86,205.779Z" transform="translate(-302.026 -204.425)" fill="#fff"/>
                <path id="Path_26924" data-name="Path 26924" d="M308.92,205.779a1.353,1.353,0,1,0,1.353-1.354A1.353,1.353,0,0,0,308.92,205.779Z" transform="translate(-303.502 -204.425)" fill="#fff"/>
                <path id="Path_26925" data-name="Path 26925" d="M304.978,205.779a1.354,1.354,0,1,0,1.355-1.354A1.355,1.355,0,0,0,304.978,205.779Z" transform="translate(-304.978 -204.425)" fill="#fff"/>
              </g>
            </g>
            <rect id="Rectangle_1516" data-name="Rectangle 1516" width="61.165" height="14.824" rx="1.51" transform="translate(69.718 29.788) rotate(180)" fill="#fff"/>
            <g id="Group_8166" data-name="Group 8166" transform="translate(8.553 34.248)">
              <rect id="Rectangle_1517" data-name="Rectangle 1517" width="60.712" height="2.851" transform="translate(60.712 2.851) rotate(180)" fill="#fff"/>
              <rect id="Rectangle_1518" data-name="Rectangle 1518" width="60.712" height="2.851" transform="translate(60.712 9.863) rotate(180)" fill="#fff"/>
              <rect id="Rectangle_1519" data-name="Rectangle 1519" width="30.355" height="2.851" transform="translate(60.712 16.876) rotate(180)" fill="#fff"/>
            </g>
          </g>
          <g id="Group_8175" data-name="Group 8175">
            <g id="Group_8174" data-name="Group 8174">
              <g id="Group_8171" data-name="Group 8171">
                <g id="Group_8170" data-name="Group 8170">
                  <g id="Group_8168" data-name="Group 8168" transform="translate(4.005 74.856)">
                    <path id="Path_26926" data-name="Path 26926" d="M245.358,316.364l.36-2.192,5.329,1.326a39.42,39.42,0,0,1,4.76,3.307,14.418,14.418,0,0,1,2.382,2.43l.011.022-7.5-2.379-5.47-1.735Z" transform="translate(-243.64 -232.413)" fill="#2d0d60"/>
                    <path id="Path_26927" data-name="Path 26927" d="M258.3,320.448a.783.783,0,0,1-.841,1.194l-12.5-3.109.366-2.2Z" transform="translate(-243.74 -231.604)"/>
                    <path id="Path_26928" data-name="Path 26928" d="M261.446,316.389l-.14-2.217,5.491.1a39.219,39.219,0,0,1,5.38,2.155,16.94,16.94,0,0,1,2.254,1.348l-12.895.065Z" transform="translate(-237.619 -232.413)" fill="#2d0d60"/>
                    <path id="Path_26929" data-name="Path 26929" d="M274.369,316.793c.219.159.423.32.613.485a.785.785,0,0,1-.537,1.372l-12.874-.228-.1-1.564Z" transform="translate(-237.556 -231.432)"/>
                    <path id="Path_26930" data-name="Path 26930" d="M252.493,309.564c-.231-.543-8.42-50.408-8.42-50.408a177.812,177.812,0,0,0,25.01-4.464l11.358,51.794s-3.722,14.28-5.355,21.649l-1.835,8.414-5.493-.095s.573-4.224,1.3-9.278c1-7.017,2.306-15.62,2.772-16.735l-10.172-30.254s.186,29.686-.032,30.12c-.2.39-3.886,10.4-6.761,18.232-1.787,4.878-3.266,8.907-3.38,9.218l-.007.019-5.33-1.322s1.1-4.305,2.382-9.473C250.41,319.415,252.69,310,252.493,309.564Z" transform="translate(-244.073 -254.691)" fill="#293677"/>
                  </g>
                  <path id="Path_26931" data-name="Path 26931" d="M241.953,273c-.126-1.463-.367-5.851-.56-11.469-.327-9.5-.47-22.479.64-26.485,3.834-13.832,12.056-13.425,12.056-13.425,2.515,5.847,7.79,1.893,7.79,1.893s9.256,5.609,6.191,20.941c-1.979,9.9,2.034,18.958,5.13,24.142A35.616,35.616,0,0,1,241.953,273Z" transform="translate(-241.16 -192.223)" fill="#bedaff"/>
                  <g id="Group_8169" data-name="Group 8169" transform="translate(5.081)">
                    <path id="Path_26932" data-name="Path 26932" d="M262.609,212.253s4.668,13.235-2.819,14.308-11.13-3.846-11.13-7.154-.608-9.784,5.666-11.605S262.609,212.253,262.609,212.253Z" transform="translate(-243.437 -197.522)" fill="#fcc4b7"/>
                    <circle id="Ellipse_451" data-name="Ellipse 451" cx="2.499" cy="2.499" r="2.499" transform="translate(2.708 22.106)" fill="#fcc4b7"/>
                    <path id="Path_26933" data-name="Path 26933" d="M250.063,210.18c.165-.078.324-.144.487-.217a19.806,19.806,0,0,1,2.564-2.608,16.717,16.717,0,0,0,2.126-1.908,3.632,3.632,0,0,0,.97-2.612,4.157,4.157,0,0,1,1.08,3.491,5.95,5.95,0,0,0,.785-4.9,5,5,0,0,1,2.9,3.854,7.978,7.978,0,0,0,.073-5.045,7.493,7.493,0,0,1,2.209,13.334,5.956,5.956,0,0,1-3.6,1.126c.3,4.7-7.924,8.29-7.924,8.29a3.253,3.253,0,0,0-3.341,0,2.259,2.259,0,0,0-.829,1.854S240.047,214.934,250.063,210.18Z" transform="translate(-244.856 -200.232)" fill="#b25e02"/>
                    <path id="Path_26934" data-name="Path 26934" d="M249.318,217.777v1.9s.015.342.062.889c.056.72.158,1.794.342,2.877.282,1.681.746,3.4,1.491,3.894,1.6,1.063,6.9.455,7.59,0,.214-.143.19-1.109.051-2.361-.077-.669-.179-1.416-.3-2.166h0c-.353-2.275-.812-4.544-.812-4.544Z" transform="translate(-243.185 -193.661)" fill="#fcc4b7"/>
                    <path id="Path_26935" data-name="Path 26935" d="M249.363,219.8c.056.72.158,1.794.342,2.877,2.238.624,6.752,1.758,9.132,1.533-.077-.669-.179-1.416-.3-2.166h0C258.291,222.036,250.625,221.72,249.363,219.8Z" transform="translate(-243.168 -192.902)" fill="#dd936f"/>
                  </g>
                </g>
              </g>
              <g id="Group_8173" data-name="Group 8173" transform="translate(2.523 34.926)">
                <path id="Path_26936" data-name="Path 26936" d="M257.333,242.768s25.3,7.038,34.077,8.228c0,0,3.983-4.276,3.938-2.954a9.761,9.761,0,0,1-1.117,3.285s9.218.425,5.357,3.792-8.4-.784-8.4-.784-31.818-.1-37.244-3.149-15.086-17.876-9.011-23.757S256.191,231.091,257.333,242.768Z" transform="translate(-242.995 -225.641)" fill="#fcc4b7"/>
                <g id="Group_8172" data-name="Group 8172" transform="translate(0.001 0.001)">
                  <path id="Path_26937" data-name="Path 26937" d="M244.933,227.429c5.63-5.453,10.495,2.356,12.085,12.827l-8.937,5.049C243.943,239.55,240.807,231.426,244.933,227.429Z" transform="translate(-242.996 -225.642)" fill="#0382ff"/>
                </g>
              </g>
            </g>
          </g>
        </g>
        <g id="Group_8179" data-name="Group 8179" transform="translate(177.188 191.198)">
          <g id="Group_8177" data-name="Group 8177">
            <path id="Path_26938" data-name="Path 26938" d="M384.063,327.906h0a15.659,15.659,0,0,0,15.659-15.66h0a15.659,15.659,0,0,0-15.659-15.66h0a15.66,15.66,0,0,0-15.66,15.66h0A15.66,15.66,0,0,0,384.063,327.906Z" transform="translate(-368.403 -296.586)" fill="#ff6748"/>
          </g>
          <g id="Group_8178" data-name="Group 8178" transform="translate(4.306 7.761)">
            <path id="Path_26939" data-name="Path 26939" d="M383.238,305.11l6.621,2.663v2.562L383.238,313v-2.246l4.548-1.7-4.548-1.7Z" transform="translate(-367.153 -301.154)" fill="#fff"/>
            <path id="Path_26940" data-name="Path 26940" d="M379.565,302.232l4.735,15.8h-2.706l-4.735-15.8Z" transform="translate(-369.543 -302.232)" fill="#fff"/>
            <path id="Path_26941" data-name="Path 26941" d="M378.157,313l-6.621-2.662v-2.562l6.621-2.663v2.246l-4.548,1.7,4.548,1.7Z" transform="translate(-371.536 -301.154)" fill="#fff"/>
          </g>
        </g>
        <g id="Group_8183" data-name="Group 8183" transform="translate(152.393 191.198)">
          <g id="Group_8181" data-name="Group 8181">
            <path id="Path_26944" data-name="Path 26944" d="M366.024,327.906h0a15.659,15.659,0,0,0,15.659-15.66h0a15.659,15.659,0,0,0-15.659-15.66h0a15.66,15.66,0,0,0-15.66,15.66h0A15.66,15.66,0,0,0,366.024,327.906Z" transform="translate(-350.364 -296.586)" fill="#00a49f"/>
          </g>
          <g id="Group_8182" data-name="Group 8182" transform="translate(4.306 7.761)">
            <path id="Path_26945" data-name="Path 26945" d="M365.2,305.11l6.62,2.663v2.562L365.2,313v-2.246l4.548-1.7-4.548-1.7Z" transform="translate(-349.114 -301.154)" fill="#fff"/>
            <path id="Path_26946" data-name="Path 26946" d="M361.525,302.232l4.735,15.8h-2.706l-4.735-15.8Z" transform="translate(-351.504 -302.232)" fill="#fff"/>
            <path id="Path_26947" data-name="Path 26947" d="M360.118,313l-6.621-2.662v-2.562l6.621-2.663v2.246l-4.548,1.7,4.548,1.7Z" transform="translate(-353.497 -301.154)" fill="#fff"/>
          </g>
        </g>
        <g id="Group_8185" data-name="Group 8185" transform="translate(84.27 194.801)">
          <g id="Group_8184" data-name="Group 8184" transform="translate(4.115)">
            <path id="Path_26948" data-name="Path 26948" d="M313.985,307.053v-2.088a4.429,4.429,0,0,0-8.859,0v2.088H303.8v-2.088a5.759,5.759,0,0,1,11.517,0v2.088Z" transform="translate(-303.797 -299.207)" fill="#fff"/>
          </g>
          <path id="Path_26949" data-name="Path 26949" d="M300.8,303.928v19.84a1.391,1.391,0,0,0,1.39,1.388h16.97a1.39,1.39,0,0,0,1.388-1.388v-19.84Z" transform="translate(-300.803 -297.439)" fill="#fff"/>
          <path id="Path_26950" data-name="Path 26950" d="M300.8,303.928v4.625c.015.01.036.015.051.025,1.328.612,2.823-.789,4.26-.537,1.644.29,2.158,2.4,3.412,3.505a3.379,3.379,0,0,0,4.383-.055,5.316,5.316,0,0,1,1.265-1.135c1.031-.474,2.235.381,2.738,1.4s.594,2.2,1.082,3.223a2.309,2.309,0,0,0,.869,1.042,1.727,1.727,0,0,0,1.689-.049V303.928Z" transform="translate(-300.803 -297.439)" fill="#f065a6"/>
        </g>
        <g id="Group_8187" data-name="Group 8187" transform="translate(108.912 194.801)">
          <g id="Group_8186" data-name="Group 8186" transform="translate(4.114)">
            <path id="Path_26951" data-name="Path 26951" d="M323.055,307.053v-2.088a4.429,4.429,0,0,1,8.858,0v2.088h1.331v-2.088a5.759,5.759,0,0,0-11.519,0v2.088Z" transform="translate(-321.724 -299.207)" fill="#fff"/>
          </g>
          <path id="Path_26952" data-name="Path 26952" d="M338.478,303.928v19.84a1.389,1.389,0,0,1-1.388,1.388h-16.97a1.389,1.389,0,0,1-1.388-1.388v-19.84Z" transform="translate(-318.731 -297.439)" fill="#fff"/>
          <path id="Path_26953" data-name="Path 26953" d="M338.478,303.928v4.625c-.014.01-.034.015-.049.025-1.329.612-2.823-.789-4.26-.537-1.645.29-2.158,2.4-3.412,3.505a3.379,3.379,0,0,1-4.383-.055,5.335,5.335,0,0,0-1.263-1.135c-1.032-.474-2.236.381-2.741,1.4s-.592,2.2-1.08,3.223a2.31,2.31,0,0,1-.869,1.042,1.727,1.727,0,0,1-1.689-.049V303.928Z" transform="translate(-318.731 -297.439)" fill="#ff6748"/>
        </g>
        <g id="Group_8195" data-name="Group 8195" transform="translate(191.474 58.099)">
          <g id="Group_8193" data-name="Group 8193" transform="translate(10.809)">
            <path id="Path_26954" data-name="Path 26954" d="M429.621,208.988a33.839,33.839,0,0,1,3.152,11.877,1.963,1.963,0,0,1-1.512,2.482,81.158,81.158,0,0,1-16.342,5.284,8.27,8.27,0,0,0,4.236-10.005,4.272,4.272,0,0,0-2.176-2.6,3.713,3.713,0,0,0-4.2,1.431,7.529,7.529,0,0,0-1.21,4.537,16.125,16.125,0,0,0,1.087,5.788,35.289,35.289,0,0,1-6.693-5.234,3.694,3.694,0,0,1-1.38-3.563,40.854,40.854,0,0,1,1.458-8.836c1.08-3.847,3.034-7.853,6.686-9.472C419.813,197.538,426.512,202.918,429.621,208.988Z" transform="translate(-379.953 -199.754)" fill="#ff6748"/>
            <path id="Path_26955" data-name="Path 26955" d="M408.627,230.166s-4.612,12.023-6.753,12.023-6.423-15.976-6.423-15.976l-6.425,1.482s3.68,23.884,11.146,24.707,15.014-11.472,15.014-11.472Z" transform="translate(-385.774 -189.844)" fill="#767cfb"/>
            <g id="Group_8192" data-name="Group 8192" transform="translate(3.555 0.772)">
              <g id="Group_8190" data-name="Group 8190" transform="translate(0 72.618)">
                <path id="Path_26956" data-name="Path 26956" d="M404.145,253.822s-6.929,31.42-6.929,38.016-.081,44.029-.081,44.029h6.929s7.344-28.875,6.77-40.73c-.078-1.637,5.825-11.395,7.827-18.428a74.021,74.021,0,0,0,2.8-20.878Z" transform="translate(-386.292 -252.893)" fill="#470b8d"/>
                <g id="Group_8188" data-name="Group 8188" transform="translate(0 82.975)">
                  <path id="Path_26957" data-name="Path 26957" d="M393.073,316.114a49.5,49.5,0,0,1,6.837-2.6h6.93l-.227,2.793-.184,2.324-16.7-.506A19.234,19.234,0,0,1,393.073,316.114Z" transform="translate(-389.066 -313.512)" fill="#2d0d60"/>
                  <path id="Path_26958" data-name="Path 26958" d="M389.907,316.867l16.7.506-.118,1.476h-16.25a.99.99,0,0,1-.645-1.743C389.691,317.025,389.805,316.947,389.907,316.867Z" transform="translate(-389.246 -312.255)"/>
                </g>
                <path id="Path_26959" data-name="Path 26959" d="M410.848,255.161s.459,32.172,1.971,38.591,10.013,42.876,10.013,42.876l6.743-1.588s-.448-29.97-2.746-41.2c-.329-1.605,3.058-12.426,3.394-19.73a74.006,74.006,0,0,0-2.059-20.966Z" transform="translate(-381.155 -253.146)" fill="#7a3ed5"/>
                <g id="Group_8189" data-name="Group 8189" transform="translate(32.378 81.896)">
                  <path id="Path_26960" data-name="Path 26960" d="M415.945,318.415a49.65,49.65,0,0,1,6.059-4.1l6.746-1.588.419,2.771.258,1.695-16.367,4.052A18.812,18.812,0,0,1,415.945,318.415Z" transform="translate(-412.704 -312.727)" fill="#2d0d60"/>
                  <path id="Path_26961" data-name="Path 26961" d="M413.158,320.028l16.366-4.052.318,2.073-15.817,3.724A.991.991,0,0,1,413,320.225C413.047,320.159,413.107,320.093,413.158,320.028Z" transform="translate(-412.802 -311.51)"/>
                </g>
              </g>
              <g id="Group_8191" data-name="Group 8191" transform="translate(23.437)">
                <path id="Path_26962" data-name="Path 26962" d="M422.437,208.045v5.487a8.07,8.07,0,1,1-16.14,0v-5.487c0-.066,0-.131,0-.2a5.811,5.811,0,0,1,5.806-5.619h4.514a5.813,5.813,0,0,1,5.811,5.619C422.437,207.914,422.437,207.979,422.437,208.045Z" transform="translate(-406.297 -199.598)" fill="#f4eed8"/>
                <path id="Path_26963" data-name="Path 26963" d="M422.437,208.384c0,.062,0,.124,0,.181a8.068,8.068,0,0,1-16.125.213c-.007-.07-.007-.139-.007-.213,0-.058,0-.12,0-.181a8.07,8.07,0,0,1,16.14,0Z" transform="translate(-406.297 -200.315)" fill="#f4eed8"/>
                <path id="Path_26964" data-name="Path 26964" d="M423.453,214.418c0,.992-1.2,1.78-1.524,2.658l-5.545-5.545a7.964,7.964,0,0,1-10.075-2.753l-.011-.016c0-.066,0-.131,0-.2s0-.12,0-.181a8.067,8.067,0,0,1,8.067-8.069l.311,0a9.738,9.738,0,0,1,9.274,12.04Z" transform="translate(-406.297 -200.315)" fill="#ff6748"/>
                <path id="Path_26965" data-name="Path 26965" d="M420.337,212.129a2.394,2.394,0,1,1-2.394-2.394A2.395,2.395,0,0,1,420.337,212.129Z" transform="translate(-402.832 -196.787)" fill="#f4eed8"/>
              </g>
              <path id="Path_26966" data-name="Path 26966" d="M406.562,246.582l-4.051,20.346h0a41.184,41.184,0,0,0,18.323,1.622l11.8-1.622c-.056-3.858-.188-9.605-.484-15.765-.177-3.652-.1-8.073-.415-11.706-.779-9.028-2.352-16.419-4.4-18.692l-3.739-1.934-15.068.83s-8.792,12.677-6.715,16.831S406.562,246.582,406.562,246.582Z" transform="translate(-384.658 -193.38)" fill="#b6b9fe"/>
              <path id="Path_26967" data-name="Path 26967" d="M406.613,221.681l1.594,5.258a8.038,8.038,0,0,0,2.5,1.068l1.732-2.392v2.635c.139.014.283.014.429.014a14.951,14.951,0,0,0,5.659-1.3c1.344-1.792,3.128-4.474,3.156-6.108l-2.016-1.041-1.1-6.371-7.075.77-1.16,5.384Z" transform="translate(-382.742 -195.4)" fill="#f4eed8"/>
              <path id="Path_26968" data-name="Path 26968" d="M409.846,216.041a7.381,7.381,0,0,0,8.034-.836l.511,2.97-.253.129a7.842,7.842,0,0,1-8.578-.931h0Z" transform="translate(-381.638 -194.738)" fill="#ebe0be"/>
              <path id="Path_26969" data-name="Path 26969" d="M410.85,223.879v4.507l4.618-1.318s.651-.759,1.469-1.845c1.344-1.792,3.128-4.474,3.156-6.108l-2.016-1.041Z" transform="translate(-381.155 -193.664)" fill="#fff"/>
              <path id="Path_26970" data-name="Path 26970" d="M406.613,220l1.595,5.258.968,3.183,1.529-2.116,1.733-2.391-2.109-6.022Z" transform="translate(-382.742 -193.723)" fill="#fff"/>
            </g>
            <rect id="Rectangle_1520" data-name="Rectangle 1520" width="16.592" height="21.718" transform="matrix(-0.935, -0.354, 0.354, -0.935, 38.974, 68.602)" fill="#fff"/>
            <path id="Path_26971" data-name="Path 26971" d="M421.862,220.549s-3.347,2.414-.214,10.1,9.406,22.2,8.2,22.622-13.616-6.012-13.616-6.012l-4.181,5.865s18.109,16.28,24.606,12.374S433.25,216.064,421.862,220.549Z" transform="translate(-377.151 -192.082)" fill="#767cfb"/>
            <path id="Path_26972" data-name="Path 26972" d="M408.113,238.462a4.12,4.12,0,0,1,4.1-3.682l1.472.841.048.038a2.451,2.451,0,0,1,.866,1.726,9.875,9.875,0,0,0,1.465,3.7l.726,2.027-2.833,3.974-4.667-3.626C408.254,242.414,407.914,240.385,408.113,238.462Z" transform="translate(-378.646 -186.635)" fill="#f4eed8"/>
            <path id="Path_26973" data-name="Path 26973" d="M395.622,228.36s3.308-4.7,1.66-4.7a3.7,3.7,0,0,0-2.635,1.153s-5.024-4.282-7.411-3.871,3.421,8.558,3.421,8.558Z" transform="translate(-386.66 -191.826)" fill="#ebe0be"/>
          </g>
          <g id="Group_8194" data-name="Group 8194" transform="translate(0 7.177)">
            <rect id="Rectangle_1521" data-name="Rectangle 1521" width="28.122" height="28.122" rx="2.586" transform="translate(28.122 28.122) rotate(180)" fill="#fff"/>
            <path id="Path_26974" data-name="Path 26974" d="M382.7,216.592v1.967a.829.829,0,0,0,.829.829h1.66a6.392,6.392,0,0,0,.535,1.3l-1.171,1.172a.828.828,0,0,0,0,1.172l1.391,1.392a.83.83,0,0,0,1.172,0l1.171-1.174a6.4,6.4,0,0,0,1.3.536v1.662a.827.827,0,0,0,.827.827h1.968a.828.828,0,0,0,.829-.827v-1.662a6.425,6.425,0,0,0,1.3-.536l1.172,1.174a.83.83,0,0,0,1.172,0l1.391-1.392a.828.828,0,0,0,0-1.172l-1.172-1.172a6.47,6.47,0,0,0,.536-1.3h1.66a.829.829,0,0,0,.829-.829v-1.967a.829.829,0,0,0-.829-.829h-1.66a6.47,6.47,0,0,0-.536-1.3l1.172-1.172a.828.828,0,0,0,0-1.173l-1.391-1.391a.828.828,0,0,0-1.172,0L394.51,211.9a6.505,6.505,0,0,0-1.3-.536V209.7a.829.829,0,0,0-.829-.829h-1.968a.828.828,0,0,0-.827.829v1.66a6.483,6.483,0,0,0-1.3.536l-1.171-1.172a.828.828,0,0,0-1.172,0l-1.391,1.391a.828.828,0,0,0,0,1.173l1.171,1.172a6.392,6.392,0,0,0-.535,1.3h-1.66A.829.829,0,0,0,382.7,216.592Zm5.23.984a3.471,3.471,0,1,1,3.471,3.471A3.472,3.472,0,0,1,387.926,217.576Z" transform="translate(-377.336 -203.515)" fill="#3e039c"/>
          </g>
        </g>
      </g>
    </g>
  </g>
</svg>
