<svg xmlns="http://www.w3.org/2000/svg" xmlns:xlink="http://www.w3.org/1999/xlink" width="370" height="300" viewBox="0 0 370 300">
  <defs>
    <radialGradient id="radial-gradient" cx="0.5" cy="0.5" r="0.5" gradientUnits="objectBoundingBox">
      <stop offset="0" stop-color="#0094d6"/>
      <stop offset="1" stop-color="#002c9a"/>
    </radialGradient>
    <linearGradient id="linear-gradient" x1="-4.211" y1="7.385" x2="-4.211" y2="6.681" gradientUnits="objectBoundingBox">
      <stop offset="0" stop-color="#2d0979"/>
      <stop offset="1" stop-color="#5b04f7"/>
    </linearGradient>
    <linearGradient id="linear-gradient-2" x1="-5.688" y1="7.852" x2="-4.562" y2="7.765" gradientUnits="objectBoundingBox">
      <stop offset="0" stop-color="#3919bb"/>
      <stop offset="1" stop-color="#6507fa"/>
    </linearGradient>
  </defs>
  <g id="Group_8200" data-name="Group 8200" transform="translate(-1175 -3061)">
    <path id="Rectangle_1477" data-name="Rectangle 1477" d="M10,0H360a10,10,0,0,1,10,10V300a0,0,0,0,1,0,0H0a0,0,0,0,1,0,0V10A10,10,0,0,1,10,0Z" transform="translate(1175 3061)" fill="url(#radial-gradient)"/>
    <g id="Group_7728" data-name="Group 7728" transform="translate(1053.279 3035.081)">
      <g id="Group_7686" data-name="Group 7686" transform="translate(211.194 53.664)">
        <path id="Path_25708" data-name="Path 25708" d="M339.293,342.745l-99.2-57.271c-2.806-1.62-2.455-4.45.786-6.321l67.545-38.985c3.24-1.871,8.142-2.074,10.948-.454l99.2,57.271c2.806,1.62,2.454,4.45-.786,6.321L350.241,342.29C347,344.162,342.1,344.365,339.293,342.745Z" transform="translate(-231.4 -113.038)" fill="#173d7a" opacity="0.5"/>
        <path id="Path_25709" data-name="Path 25709" d="M491.16,115.869l-106.6-61.546a4.3,4.3,0,0,0-3.612-.443l.007-.011-.194.073-.047.018-3.853,1.474,3.457,1.693c-.015.064-.035.123-.05.188l-18.835,85.658c-.869,3.956.871,8.574,3.887,10.314l104.037,60.066-.371,4.409,4.21-1.632a5.919,5.919,0,0,0,3.015-4.289l18.835-85.658C495.916,122.229,494.175,117.61,491.16,115.869Z" transform="translate(-270.887 -53.664)" fill="#a7bcce"/>
        <path id="Path_25710" data-name="Path 25710" d="M494.064,115.869l-106.6-61.546a4.3,4.3,0,0,0-3.612-.443l.007-.011-.194.073-.047.018-3.853,1.474,3.457,1.693c-.015.064-.035.123-.05.188l-12.916,58.711,52.158,40.637,75.016-36.546A8.275,8.275,0,0,0,494.064,115.869Z" transform="translate(-273.792 -53.664)" fill="#e8ebf5"/>
        <path id="Path_25711" data-name="Path 25711" d="M542.888,157.7,551,154.242a10.164,10.164,0,0,0-3.287-8.125l-12.845,5.4Z" transform="translate(-326.635 -83.343)" fill="#d4ecff"/>
        <path id="Path_25712" data-name="Path 25712" d="M462.143,218.046,355.543,156.5c-3.015-1.741-4.756-6.359-3.886-10.314l18.836-85.658c.868-3.956,4.018-5.75,7.034-4.009l106.6,61.546c3.015,1.741,4.756,6.359,3.887,10.314l-18.836,85.658C468.308,217.993,465.159,219.787,462.143,218.046Z" transform="translate(-267.749 -54.367)" fill="#bbcee1"/>
        <path id="Path_25713" data-name="Path 25713" d="M495.985,117.517l-106.6-61.545a4.214,4.214,0,0,0-4.2-.183,4.381,4.381,0,0,1,3.174.557l106.6,61.545c3.015,1.742,4.756,6.36,3.887,10.315l-18.836,85.657a6.006,6.006,0,0,1-2.836,4.192c1.8-.393,3.3-2.025,3.86-4.566l18.835-85.658C500.741,123.876,499,119.257,495.985,117.517Z" transform="translate(-278.584 -54.194)" fill="#fff"/>
        <path id="Path_25714" data-name="Path 25714" d="M461.9,214.908,361.649,157.053c-2.76-1.593-4.352-5.819-3.557-9.439l17.361-78.946c.8-3.62,3.677-5.262,6.437-3.669l100.255,57.854c2.759,1.594,4.352,5.82,3.557,9.439l-17.362,78.947C467.546,214.859,464.664,216.5,461.9,214.908Z" transform="translate(-269.821 -57.108)" fill="#fff"/>
        <path id="Path_25715" data-name="Path 25715" d="M461.9,214.908,361.649,157.053c-2.76-1.593-4.352-5.819-3.557-9.439l17.361-78.946c.8-3.62,3.677-5.262,6.437-3.669l100.255,57.854c2.759,1.594,4.352,5.82,3.557,9.439l-17.362,78.947C467.546,214.859,464.664,216.5,461.9,214.908Z" transform="translate(-269.821 -57.108)" fill="#1e76bc"/>
        <path id="Path_25716" data-name="Path 25716" d="M462.779,214.607,362.523,156.752c-2.759-1.593-4.352-5.819-3.557-9.438l17.361-78.947a5.55,5.55,0,0,1,2.526-3.807c-1.59.409-2.9,1.9-3.4,4.163l-17.361,78.946c-.8,3.62.8,7.846,3.557,9.439L461.9,214.963a3.853,3.853,0,0,0,3.91.138A4,4,0,0,1,462.779,214.607Z" transform="translate(-269.821 -57.162)" fill="#5793ce"/>
        <path id="Path_25717" data-name="Path 25717" d="M424.053,271.536l-14.572-1.924L315.418,215.3c-3.015-1.741-8.283-1.522-11.765.488L237,254.26,228.19,253.1v5h.009a3.432,3.432,0,0,0,2.023,3.089l106.6,61.546c3.015,1.741,8.283,1.522,11.765-.488l72.587-41.894c1.959-1.13,2.935-2.588,2.878-3.956h0Z" transform="translate(-228.186 -105.176)" fill="#a7bcce"/>
        <path id="Path_25718" data-name="Path 25718" d="M353.377,246.313l-6.683-3.858H273.222L237,263.353l-8.811-1.163v5h.009a3.432,3.432,0,0,0,2.023,3.089l106.6,61.546a11.027,11.027,0,0,0,6.072,1.137Z" transform="translate(-228.186 -114.269)" fill="#e8ebf5"/>
        <path id="Path_25719" data-name="Path 25719" d="M232.1,272.036l-3.91-.516v5h.009a3.432,3.432,0,0,0,2.023,3.089l1.879,1.084Z" transform="translate(-228.186 -123.599)" fill="#5793ce"/>
        <path id="Path_25720" data-name="Path 25720" d="M389.763,369.246a13.656,13.656,0,0,0,10-.621V357.474h-10Z" transform="translate(-280.053 -151.192)" fill="#d4ecff"/>
        <path id="Path_25721" data-name="Path 25721" d="M336.82,313.819l-106.6-61.546c-3.015-1.741-2.637-4.782.845-6.793l72.588-41.894c3.482-2.01,8.749-2.228,11.765-.488l106.6,61.546c3.015,1.741,2.637,4.782-.845,6.793l-72.587,41.894C345.1,315.342,339.836,315.56,336.82,313.819Z" transform="translate(-228.184 -101.258)" fill="#d4ecff"/>
        <path id="Path_25722" data-name="Path 25722" d="M421.175,291.583l-72.587,41.895c-3.483,2.01-8.749,2.228-11.765.487l-106.6-61.546a3.969,3.969,0,0,1-1.875-2.051c-.471,1.427.13,2.869,1.875,3.877l106.6,61.545c3.016,1.742,8.283,1.523,11.765-.488l72.587-41.894c2.34-1.351,3.271-3.167,2.719-4.742A5.667,5.667,0,0,1,421.175,291.583Z" transform="translate(-228.187 -123.23)" fill="#fff"/>
        <g id="Group_7683" data-name="Group 7683" transform="translate(42.29 104.456)">
          <path id="Path_25723" data-name="Path 25723" d="M295.553,242.686l-4.823-2.785c-.387-.223-.339-.614.109-.872l5.693-3.287a1.679,1.679,0,0,1,1.511-.062l4.823,2.785c.388.223.339.614-.109.872l-5.693,3.287A1.68,1.68,0,0,1,295.553,242.686Z" transform="translate(-290.468 -216.501)" fill="#5793ce"/>
          <path id="Path_25724" data-name="Path 25724" d="M306.523,249.019l-4.823-2.785c-.387-.223-.339-.614.109-.872l5.693-3.287a1.68,1.68,0,0,1,1.511-.062l4.823,2.785c.388.224.339.614-.108.872l-5.693,3.287A1.678,1.678,0,0,1,306.523,249.019Z" transform="translate(-293.99 -218.535)" fill="#5793ce"/>
          <path id="Path_25725" data-name="Path 25725" d="M317.493,255.353l-4.824-2.785c-.387-.224-.339-.615.109-.872l5.693-3.287a1.68,1.68,0,0,1,1.511-.062l4.823,2.785c.388.223.339.614-.108.872L319,255.291A1.68,1.68,0,0,1,317.493,255.353Z" transform="translate(-297.511 -220.568)" fill="#5793ce"/>
          <path id="Path_25726" data-name="Path 25726" d="M332.665,250.372l-4.823-2.785c-.387-.223-.338-.614.109-.872l4.779-2.759a1.678,1.678,0,0,1,1.511-.062l4.823,2.785c.388.223.339.614-.108.872l-4.779,2.759A1.678,1.678,0,0,1,332.665,250.372Z" transform="translate(-302.382 -219.138)" fill="#5793ce"/>
          <path id="Path_25727" data-name="Path 25727" d="M343.635,256.706l-4.823-2.785c-.388-.224-.339-.614.108-.872l4.779-2.759a1.68,1.68,0,0,1,1.511-.062l4.824,2.785c.387.224.338.614-.109.872l-4.779,2.759A1.68,1.68,0,0,1,343.635,256.706Z" transform="translate(-305.903 -221.171)" fill="#5793ce"/>
          <path id="Path_25728" data-name="Path 25728" d="M354.605,263.039l-4.823-2.785c-.388-.223-.339-.614.108-.872l4.779-2.759a1.678,1.678,0,0,1,1.511-.062L361,259.345c.387.223.339.614-.109.872l-4.779,2.759A1.678,1.678,0,0,1,354.605,263.039Z" transform="translate(-309.425 -223.205)" fill="#5793ce"/>
          <path id="Path_25729" data-name="Path 25729" d="M365.575,269.373l-4.823-2.784c-.388-.223-.339-.615.109-.872l4.779-2.759a1.678,1.678,0,0,1,1.511-.063l4.823,2.785c.387.223.339.614-.109.872l-4.779,2.759A1.679,1.679,0,0,1,365.575,269.373Z" transform="translate(-312.946 -225.238)" fill="#5793ce"/>
          <path id="Path_25730" data-name="Path 25730" d="M376.545,275.707l-4.823-2.785c-.387-.224-.339-.614.109-.872l4.779-2.759a1.68,1.68,0,0,1,1.511-.062l4.823,2.785c.387.223.339.614-.109.872l-4.779,2.759A1.681,1.681,0,0,1,376.545,275.707Z" transform="translate(-316.468 -227.271)" fill="#5793ce"/>
          <path id="Path_25731" data-name="Path 25731" d="M387.516,282.04l-4.823-2.785c-.387-.223-.339-.614.109-.872l4.779-2.759a1.678,1.678,0,0,1,1.511-.062l4.823,2.785c.387.223.339.614-.109.872l-4.779,2.759A1.678,1.678,0,0,1,387.516,282.04Z" transform="translate(-319.99 -229.304)" fill="#5793ce"/>
          <path id="Path_25732" data-name="Path 25732" d="M398.486,288.374l-4.824-2.784c-.387-.224-.339-.615.109-.872l4.779-2.759a1.681,1.681,0,0,1,1.511-.062l4.823,2.785c.388.224.339.614-.109.872L400,288.311A1.68,1.68,0,0,1,398.486,288.374Z" transform="translate(-323.511 -231.337)" fill="#5793ce"/>
          <path id="Path_25733" data-name="Path 25733" d="M409.456,294.707l-4.823-2.785c-.387-.223-.339-.614.109-.872l4.779-2.759a1.678,1.678,0,0,1,1.511-.062l4.823,2.785c.388.223.339.614-.108.872l-4.779,2.759A1.678,1.678,0,0,1,409.456,294.707Z" transform="translate(-327.033 -233.371)" fill="#5793ce"/>
          <path id="Path_25734" data-name="Path 25734" d="M420.426,301.041l-4.823-2.785c-.387-.223-.338-.614.109-.872l4.779-2.759a1.678,1.678,0,0,1,1.511-.063l4.823,2.785c.388.223.339.614-.108.872l-4.779,2.759A1.678,1.678,0,0,1,420.426,301.041Z" transform="translate(-330.554 -235.404)" fill="#5793ce"/>
          <path id="Path_25735" data-name="Path 25735" d="M431.4,307.375l-4.824-2.785c-.387-.224-.338-.614.109-.872l4.779-2.759a1.68,1.68,0,0,1,1.511-.062l4.824,2.785c.387.223.338.614-.109.872l-4.779,2.759A1.68,1.68,0,0,1,431.4,307.375Z" transform="translate(-334.076 -237.437)" fill="#5793ce"/>
          <path id="Path_25736" data-name="Path 25736" d="M348.829,247.374l-4.823-2.785c-.387-.224-.339-.614.109-.872l4.779-2.759a1.681,1.681,0,0,1,1.511-.062l4.823,2.785c.388.224.339.614-.108.872l-4.779,2.759A1.68,1.68,0,0,1,348.829,247.374Z" transform="translate(-307.57 -218.176)" fill="#5793ce"/>
          <path id="Path_25737" data-name="Path 25737" d="M337.7,240.946l-4.824-2.785c-.387-.223-.338-.614.109-.872l4.779-2.759a1.68,1.68,0,0,1,1.511-.062l4.823,2.785c.388.223.339.614-.108.872l-4.779,2.759A1.678,1.678,0,0,1,337.7,240.946Z" transform="translate(-303.996 -216.112)" fill="#5793ce"/>
          <path id="Path_25738" data-name="Path 25738" d="M323.912,232.988l-10.388-6c-.388-.223-.339-.614.108-.872l4.779-2.759a1.678,1.678,0,0,1,1.511-.063l10.388,6c.388.224.339.614-.108.872l-4.779,2.759A1.68,1.68,0,0,1,323.912,232.988Z" transform="translate(-297.785 -212.526)" fill="#5793ce"/>
          <path id="Path_25739" data-name="Path 25739" d="M332.633,225.692l-8.43-4.867c-.387-.224-.339-.615.109-.872l4.779-2.759a1.68,1.68,0,0,1,1.511-.062l8.43,4.867c.387.224.338.615-.109.872l-4.779,2.759A1.68,1.68,0,0,1,332.633,225.692Z" transform="translate(-301.213 -210.547)" fill="#5793ce"/>
          <path id="Path_25740" data-name="Path 25740" d="M359.8,253.707l-4.823-2.785c-.387-.223-.339-.614.109-.872l4.779-2.759a1.678,1.678,0,0,1,1.511-.062l4.823,2.785c.388.223.339.614-.108.872l-4.779,2.759A1.678,1.678,0,0,1,359.8,253.707Z" transform="translate(-311.092 -220.209)" fill="#5793ce"/>
          <path id="Path_25741" data-name="Path 25741" d="M370.769,260.041l-4.824-2.784c-.387-.223-.338-.615.109-.872l4.779-2.759a1.68,1.68,0,0,1,1.511-.062l4.823,2.785c.387.224.338.614-.109.872l-4.779,2.759A1.68,1.68,0,0,1,370.769,260.041Z" transform="translate(-314.614 -222.242)" fill="#5793ce"/>
          <path id="Path_25742" data-name="Path 25742" d="M381.739,266.375l-4.823-2.785c-.388-.223-.339-.614.108-.872l4.779-2.759a1.68,1.68,0,0,1,1.511-.062l4.823,2.784c.387.223.338.615-.109.872l-4.779,2.759A1.678,1.678,0,0,1,381.739,266.375Z" transform="translate(-318.135 -224.275)" fill="#5793ce"/>
          <path id="Path_25743" data-name="Path 25743" d="M392.709,272.708l-4.823-2.785c-.388-.223-.339-.614.108-.872l4.779-2.759a1.678,1.678,0,0,1,1.511-.063l4.823,2.785c.387.223.339.614-.109.872l-4.779,2.759A1.678,1.678,0,0,1,392.709,272.708Z" transform="translate(-321.657 -226.308)" fill="#5793ce"/>
          <path id="Path_25744" data-name="Path 25744" d="M403.679,279.042l-4.823-2.785c-.388-.224-.339-.614.109-.872l4.779-2.759a1.68,1.68,0,0,1,1.511-.062l4.823,2.784c.387.224.339.615-.109.872l-4.779,2.759A1.682,1.682,0,0,1,403.679,279.042Z" transform="translate(-325.178 -228.342)" fill="#5793ce"/>
          <path id="Path_25745" data-name="Path 25745" d="M414.65,285.375l-4.823-2.785c-.387-.223-.339-.614.109-.872l4.779-2.759a1.678,1.678,0,0,1,1.511-.062l4.823,2.785c.387.223.339.614-.109.872l-4.779,2.759A1.678,1.678,0,0,1,414.65,285.375Z" transform="translate(-328.7 -230.375)" fill="#5793ce"/>
          <path id="Path_25746" data-name="Path 25746" d="M425.62,291.709l-4.823-2.785c-.387-.223-.339-.614.109-.872l4.779-2.759a1.681,1.681,0,0,1,1.511-.062l4.823,2.785c.387.223.339.614-.109.872l-4.779,2.759A1.68,1.68,0,0,1,425.62,291.709Z" transform="translate(-332.222 -232.408)" fill="#5793ce"/>
          <path id="Path_25747" data-name="Path 25747" d="M436.59,298.042l-4.823-2.785c-.387-.223-.339-.614.109-.872l4.779-2.759a1.679,1.679,0,0,1,1.511-.062l4.823,2.785c.388.223.339.614-.109.872L438.1,297.98A1.68,1.68,0,0,1,436.59,298.042Z" transform="translate(-335.743 -234.441)" fill="#5793ce"/>
          <path id="Path_25748" data-name="Path 25748" d="M447.56,304.376l-4.824-2.785c-.387-.223-.339-.614.109-.872l4.779-2.759a1.678,1.678,0,0,1,1.511-.063l4.823,2.785c.388.223.339.614-.108.872l-4.779,2.759A1.678,1.678,0,0,1,447.56,304.376Z" transform="translate(-339.265 -236.474)" fill="#5793ce"/>
          <path id="Path_25749" data-name="Path 25749" d="M464.367,314.079,453.843,308c-.388-.223-.339-.614.109-.872l4.779-2.759a1.678,1.678,0,0,1,1.511-.062l10.524,6.076c.387.224.339.614-.109.872l-4.779,2.759A1.682,1.682,0,0,1,464.367,314.079Z" transform="translate(-342.83 -238.533)" fill="#5793ce"/>
          <path id="Path_25750" data-name="Path 25750" d="M486.5,302.2l-8.882-5.128c-.388-.223-.339-.614.108-.872l4.779-2.759a1.678,1.678,0,0,1,1.511-.062L492.9,298.5c.388.223.339.614-.109.872l-4.779,2.759A1.678,1.678,0,0,1,486.5,302.2Z" transform="translate(-350.462 -235.022)" fill="#5793ce"/>
          <path id="Path_25751" data-name="Path 25751" d="M379.01,252.468l-4.823-2.785c-.387-.223-.338-.614.109-.872l4.779-2.759a1.678,1.678,0,0,1,1.511-.063l4.823,2.785c.388.223.339.614-.108.872l-4.779,2.759A1.678,1.678,0,0,1,379.01,252.468Z" transform="translate(-317.259 -219.811)" fill="#5793ce"/>
          <path id="Path_25752" data-name="Path 25752" d="M367.767,245.977l-4.823-2.785c-.387-.223-.338-.614.109-.872l4.779-2.759a1.68,1.68,0,0,1,1.511-.062l4.823,2.785c.388.223.339.614-.108.872l-4.779,2.759A1.68,1.68,0,0,1,367.767,245.977Z" transform="translate(-313.65 -217.727)" fill="#5793ce"/>
          <path id="Path_25753" data-name="Path 25753" d="M356.524,239.486,351.7,236.7c-.387-.224-.338-.614.109-.872l4.779-2.759a1.68,1.68,0,0,1,1.511-.062l4.823,2.785c.388.224.339.615-.108.872l-4.779,2.759A1.68,1.68,0,0,1,356.524,239.486Z" transform="translate(-310.041 -215.644)" fill="#5793ce"/>
          <path id="Path_25754" data-name="Path 25754" d="M345.281,232.995l-4.824-2.785c-.387-.224-.339-.614.109-.872l4.779-2.759a1.68,1.68,0,0,1,1.511-.062l4.823,2.784c.388.223.339.615-.108.872l-4.779,2.759A1.68,1.68,0,0,1,345.281,232.995Z" transform="translate(-306.431 -213.56)" fill="#5793ce"/>
          <path id="Path_25755" data-name="Path 25755" d="M389.98,258.8l-4.824-2.785c-.387-.224-.338-.614.109-.872l4.779-2.759a1.68,1.68,0,0,1,1.511-.062l4.824,2.785c.387.223.338.614-.109.872l-4.779,2.759A1.68,1.68,0,0,1,389.98,258.8Z" transform="translate(-320.781 -221.844)" fill="#5793ce"/>
          <path id="Path_25756" data-name="Path 25756" d="M400.95,265.135l-4.823-2.785c-.388-.223-.339-.614.108-.872l4.779-2.759a1.678,1.678,0,0,1,1.511-.062l4.823,2.785c.387.223.339.614-.109.872l-4.779,2.759A1.678,1.678,0,0,1,400.95,265.135Z" transform="translate(-324.302 -223.877)" fill="#5793ce"/>
          <path id="Path_25757" data-name="Path 25757" d="M411.92,271.469l-4.823-2.784c-.388-.223-.339-.615.108-.872l4.779-2.759a1.68,1.68,0,0,1,1.511-.062l4.823,2.784c.387.224.339.615-.109.872l-4.779,2.759A1.681,1.681,0,0,1,411.92,271.469Z" transform="translate(-327.824 -225.911)" fill="#5793ce"/>
          <path id="Path_25758" data-name="Path 25758" d="M422.89,277.8l-4.823-2.785c-.388-.223-.339-.614.109-.872l4.779-2.759a1.68,1.68,0,0,1,1.511-.062l4.823,2.785c.387.223.339.614-.109.872l-4.779,2.759A1.68,1.68,0,0,1,422.89,277.8Z" transform="translate(-331.345 -227.944)" fill="#5793ce"/>
          <path id="Path_25759" data-name="Path 25759" d="M433.861,284.136l-4.824-2.784c-.387-.223-.339-.615.109-.872l4.779-2.759a1.678,1.678,0,0,1,1.511-.063l4.823,2.785c.387.223.339.614-.109.872l-4.779,2.759A1.678,1.678,0,0,1,433.861,284.136Z" transform="translate(-334.867 -229.977)" fill="#5793ce"/>
          <path id="Path_25760" data-name="Path 25760" d="M444.831,290.47l-4.823-2.785c-.387-.224-.339-.614.109-.872l4.779-2.759a1.682,1.682,0,0,1,1.511-.062l4.823,2.785c.388.224.339.614-.109.872l-4.779,2.759A1.68,1.68,0,0,1,444.831,290.47Z" transform="translate(-338.389 -232.01)" fill="#5793ce"/>
          <path id="Path_25761" data-name="Path 25761" d="M455.8,296.8l-4.824-2.785c-.387-.223-.339-.614.109-.872l4.779-2.759a1.679,1.679,0,0,1,1.511-.062l4.823,2.785c.388.223.339.614-.108.872l-4.779,2.759A1.678,1.678,0,0,1,455.8,296.8Z" transform="translate(-341.91 -234.043)" fill="#5793ce"/>
          <path id="Path_25762" data-name="Path 25762" d="M466.771,303.137l-4.823-2.784c-.387-.224-.339-.615.109-.872l4.779-2.759a1.68,1.68,0,0,1,1.511-.062l4.823,2.785c.388.223.339.614-.108.872l-4.779,2.759A1.68,1.68,0,0,1,466.771,303.137Z" transform="translate(-345.432 -236.076)" fill="#5793ce"/>
          <path id="Path_25763" data-name="Path 25763" d="M477.741,309.47l-4.823-2.785c-.387-.223-.338-.614.109-.872l4.779-2.759a1.678,1.678,0,0,1,1.511-.062l4.823,2.785c.387.223.338.614-.109.872l-4.779,2.759A1.68,1.68,0,0,1,477.741,309.47Z" transform="translate(-348.953 -238.11)" fill="#5793ce"/>
          <path id="Path_25764" data-name="Path 25764" d="M373.234,236.8l-4.824-2.785c-.387-.223-.339-.614.109-.872l4.779-2.759a1.678,1.678,0,0,1,1.511-.062l4.824,2.785c.387.223.339.614-.109.872l-4.779,2.759A1.676,1.676,0,0,1,373.234,236.8Z" transform="translate(-315.405 -214.782)" fill="#5793ce"/>
          <path id="Path_25765" data-name="Path 25765" d="M362.318,230.5l-4.823-2.785c-.387-.223-.338-.614.109-.872l4.779-2.759a1.678,1.678,0,0,1,1.511-.063l4.823,2.785c.388.223.339.614-.108.872l-4.779,2.759A1.678,1.678,0,0,1,362.318,230.5Z" transform="translate(-311.901 -212.759)" fill="#5793ce"/>
          <path id="Path_25766" data-name="Path 25766" d="M351.4,224.2l-4.823-2.785c-.388-.223-.339-.614.109-.872l4.779-2.759a1.678,1.678,0,0,1,1.511-.063L357.8,220.5c.387.223.339.614-.109.872l-4.779,2.759A1.68,1.68,0,0,1,351.4,224.2Z" transform="translate(-308.397 -210.736)" fill="#5793ce"/>
          <path id="Path_25767" data-name="Path 25767" d="M340.487,217.9l-4.824-2.785c-.387-.223-.339-.614.109-.872l4.779-2.759a1.678,1.678,0,0,1,1.511-.063l4.823,2.785c.388.223.339.614-.108.872L342,217.833A1.68,1.68,0,0,1,340.487,217.9Z" transform="translate(-304.893 -208.713)" fill="#5793ce"/>
          <path id="Path_25768" data-name="Path 25768" d="M351.711,212.289l-4.823-2.785c-.388-.223-.339-.614.109-.872l1.579-.913a1.68,1.68,0,0,1,1.511-.062l4.824,2.785c.387.224.339.614-.109.872l-1.579.912A1.68,1.68,0,0,1,351.711,212.289Z" transform="translate(-308.496 -207.506)" fill="#5793ce"/>
          <path id="Path_25769" data-name="Path 25769" d="M365.956,220.513l-4.823-2.785c-.388-.224-.339-.614.108-.872l1.58-.912a1.678,1.678,0,0,1,1.511-.063l4.824,2.785c.387.223.339.614-.109.872l-1.58.913A1.68,1.68,0,0,1,365.956,220.513Z" transform="translate(-313.069 -210.146)" fill="#5793ce"/>
          <path id="Path_25770" data-name="Path 25770" d="M376.826,226.789,372,224c-.388-.224-.339-.614.108-.872l1.58-.913a1.68,1.68,0,0,1,1.511-.062l4.824,2.785c.387.224.339.614-.109.872l-1.58.913A1.68,1.68,0,0,1,376.826,226.789Z" transform="translate(-316.558 -212.161)" fill="#5793ce"/>
          <path id="Path_25771" data-name="Path 25771" d="M387.7,233.065l-4.823-2.785c-.388-.223-.339-.614.108-.872l1.58-.913a1.68,1.68,0,0,1,1.511-.062l4.823,2.785c.387.224.339.614-.109.872l-1.58.912A1.678,1.678,0,0,1,387.7,233.065Z" transform="translate(-320.048 -214.175)" fill="#5793ce"/>
          <path id="Path_25772" data-name="Path 25772" d="M398.566,239.341l-4.823-2.785c-.388-.223-.339-.614.108-.872l1.58-.912a1.68,1.68,0,0,1,1.511-.062l4.824,2.785c.387.223.339.614-.109.872l-1.579.912A1.682,1.682,0,0,1,398.566,239.341Z" transform="translate(-323.537 -216.19)" fill="#5793ce"/>
          <path id="Path_25773" data-name="Path 25773" d="M459.252,274.378l-4.823-2.785c-.388-.223-.339-.614.108-.872l1.58-.912a1.68,1.68,0,0,1,1.511-.062l4.823,2.785c.387.223.339.614-.109.872l-1.58.912A1.68,1.68,0,0,1,459.252,274.378Z" transform="translate(-343.018 -227.437)" fill="#5793ce"/>
          <path id="Path_25774" data-name="Path 25774" d="M470.122,280.653l-4.823-2.785c-.388-.223-.339-.614.108-.872l1.58-.912a1.68,1.68,0,0,1,1.511-.062l4.823,2.785c.387.223.339.614-.109.872l-1.58.912A1.678,1.678,0,0,1,470.122,280.653Z" transform="translate(-346.508 -229.452)" fill="#5793ce"/>
          <path id="Path_25775" data-name="Path 25775" d="M480.992,286.929l-4.823-2.785c-.388-.223-.339-.615.108-.872l1.58-.912a1.678,1.678,0,0,1,1.511-.062l4.823,2.785c.387.223.339.614-.109.872l-1.579.912A1.682,1.682,0,0,1,480.992,286.929Z" transform="translate(-349.997 -231.467)" fill="#5793ce"/>
          <path id="Path_25776" data-name="Path 25776" d="M491.862,293.2l-4.823-2.785c-.388-.224-.339-.614.109-.872l1.579-.912a1.68,1.68,0,0,1,1.511-.063l4.823,2.785c.387.223.339.614-.109.872l-1.579.913A1.681,1.681,0,0,1,491.862,293.2Z" transform="translate(-353.486 -233.481)" fill="#5793ce"/>
          <path id="Path_25777" data-name="Path 25777" d="M384.2,243.136l-4.824-2.785c-.387-.223-.339-.614.109-.872l4.779-2.759a1.68,1.68,0,0,1,1.511-.062l4.824,2.785c.387.224.339.614-.109.872l-4.779,2.759A1.68,1.68,0,0,1,384.2,243.136Z" transform="translate(-318.926 -216.815)" fill="#5793ce"/>
          <path id="Path_25778" data-name="Path 25778" d="M395.174,249.469l-4.824-2.785c-.387-.223-.339-.614.109-.872l4.779-2.759a1.679,1.679,0,0,1,1.511-.062l4.823,2.785c.388.223.339.614-.109.872l-4.779,2.759A1.68,1.68,0,0,1,395.174,249.469Z" transform="translate(-322.448 -218.848)" fill="#5793ce"/>
          <path id="Path_25779" data-name="Path 25779" d="M406.144,255.8l-4.823-2.785c-.387-.223-.339-.614.109-.872l4.779-2.759a1.678,1.678,0,0,1,1.511-.063l4.823,2.785c.388.223.339.614-.108.872l-4.779,2.759A1.678,1.678,0,0,1,406.144,255.8Z" transform="translate(-325.969 -220.882)" fill="#5793ce"/>
          <path id="Path_25780" data-name="Path 25780" d="M417.114,262.137l-4.824-2.784c-.387-.224-.338-.615.109-.872l4.779-2.759a1.68,1.68,0,0,1,1.511-.062l4.823,2.785c.388.224.339.614-.108.872l-4.779,2.759A1.68,1.68,0,0,1,417.114,262.137Z" transform="translate(-329.491 -222.915)" fill="#5793ce"/>
          <path id="Path_25781" data-name="Path 25781" d="M428.084,268.47l-4.823-2.785c-.387-.223-.338-.614.109-.872l4.779-2.759a1.678,1.678,0,0,1,1.511-.062l4.823,2.785c.387.223.338.614-.109.872l-4.779,2.759A1.678,1.678,0,0,1,428.084,268.47Z" transform="translate(-333.013 -224.948)" fill="#5793ce"/>
          <path id="Path_25782" data-name="Path 25782" d="M439.054,274.8l-4.823-2.784c-.388-.223-.339-.615.108-.872l4.779-2.759a1.68,1.68,0,0,1,1.511-.062l4.823,2.785c.387.224.339.614-.109.872l-4.779,2.759A1.68,1.68,0,0,1,439.054,274.8Z" transform="translate(-336.534 -226.981)" fill="#5793ce"/>
          <path id="Path_25783" data-name="Path 25783" d="M450.024,281.137l-4.823-2.785c-.388-.224-.339-.614.108-.872l4.779-2.759a1.678,1.678,0,0,1,1.511-.062l4.824,2.785c.387.223.339.614-.109.872l-4.779,2.759A1.68,1.68,0,0,1,450.024,281.137Z" transform="translate(-340.056 -229.014)" fill="#5793ce"/>
          <path id="Path_25784" data-name="Path 25784" d="M460.994,287.471l-4.823-2.785c-.388-.223-.339-.614.109-.872l4.779-2.759a1.678,1.678,0,0,1,1.511-.063l4.824,2.785c.387.223.339.614-.109.872l-4.779,2.759A1.679,1.679,0,0,1,460.994,287.471Z" transform="translate(-343.577 -231.047)" fill="#5793ce"/>
          <path id="Path_25785" data-name="Path 25785" d="M471.965,293.8l-4.823-2.785c-.387-.224-.339-.614.109-.872l4.779-2.759a1.68,1.68,0,0,1,1.511-.062l4.824,2.784c.387.224.339.615-.109.872l-4.779,2.759A1.68,1.68,0,0,1,471.965,293.8Z" transform="translate(-347.099 -233.081)" fill="#5793ce"/>
          <path id="Path_25786" data-name="Path 25786" d="M317.05,241.357l-14.205-8.2c-.388-.223-.339-.614.109-.872l4.779-2.759a1.678,1.678,0,0,1,1.511-.062l14.205,8.2c.388.224.339.614-.109.872l-4.779,2.759A1.68,1.68,0,0,1,317.05,241.357Z" transform="translate(-294.357 -214.505)" fill="#5793ce"/>
          <path id="Path_25787" data-name="Path 25787" d="M451.821,319.167l-14.205-8.2c-.387-.223-.338-.614.109-.872l4.779-2.759a1.678,1.678,0,0,1,1.511-.062l14.205,8.2c.387.224.339.615-.109.872l-4.779,2.759A1.68,1.68,0,0,1,451.821,319.167Z" transform="translate(-337.621 -239.484)" fill="#5793ce"/>
          <path id="Path_25788" data-name="Path 25788" d="M412.385,310.139l-4.823-2.785c-.388-.223-.339-.614.108-.872l5.693-3.287a1.68,1.68,0,0,1,1.511-.062l4.824,2.784c.387.224.339.615-.109.872l-5.693,3.287A1.678,1.678,0,0,1,412.385,310.139Z" transform="translate(-327.973 -238.155)" fill="#5793ce"/>
          <path id="Path_25789" data-name="Path 25789" d="M331.353,263.355l-7.714-4.453c-.387-.223-.339-.614.109-.872l5.693-3.287a1.678,1.678,0,0,1,1.511-.063l7.714,4.453c.387.224.338.614-.109.872l-5.693,3.287A1.678,1.678,0,0,1,331.353,263.355Z" transform="translate(-301.033 -222.601)" fill="#5793ce"/>
          <path id="Path_25790" data-name="Path 25790" d="M400.449,303.248l-7.713-4.453c-.388-.224-.339-.614.108-.872l5.693-3.287a1.678,1.678,0,0,1,1.511-.062l7.714,4.453c.387.223.339.614-.109.872l-5.693,3.287A1.68,1.68,0,0,1,400.449,303.248Z" transform="translate(-323.213 -235.407)" fill="#5793ce"/>
          <path id="Path_25791" data-name="Path 25791" d="M347.181,272.493l-7.713-4.453c-.388-.223-.339-.614.109-.872l5.693-3.287a1.68,1.68,0,0,1,1.511-.063l7.714,4.454c.388.223.339.614-.109.872l-5.693,3.287A1.679,1.679,0,0,1,347.181,272.493Z" transform="translate(-306.114 -225.534)" fill="#5793ce"/>
          <path id="Path_25792" data-name="Path 25792" d="M346.981,263.934,380.517,283.3a.459.459,0,0,1,0,.87l-5.805,3.352a1.664,1.664,0,0,1-1.507,0l-33.537-19.363Z" transform="translate(-306.262 -225.62)" fill="#5793ce"/>
          <path id="Path_25793" data-name="Path 25793" d="M443.619,324.948l5.373,3.1c.317.183.277.5-.089.715l-2.329,1.344a1.376,1.376,0,0,1-1.238.052l-5.373-3.1c-.317-.183-.278-.5.089-.715L442.381,325A1.378,1.378,0,0,1,443.619,324.948Z" transform="translate(-338.389 -245.167)" fill="#5793ce"/>
          <path id="Path_25794" data-name="Path 25794" d="M432.558,318.563l5.373,3.1c.317.183.277.5-.089.715l-2.329,1.344a1.376,1.376,0,0,1-1.238.052l-5.373-3.1c-.318-.183-.278-.5.089-.715l2.329-1.344A1.378,1.378,0,0,1,432.558,318.563Z" transform="translate(-334.839 -243.117)" fill="#5793ce"/>
          <path id="Path_25795" data-name="Path 25795" d="M421.588,312.229l5.372,3.1c.318.183.278.5-.089.715l-2.328,1.345a1.378,1.378,0,0,1-1.238.051l-5.373-3.1c-.318-.183-.278-.5.089-.715l2.329-1.344A1.376,1.376,0,0,1,421.588,312.229Z" transform="translate(-331.317 -241.084)" fill="#5793ce"/>
          <path id="Path_25796" data-name="Path 25796" d="M438.616,315.065l5.372,3.1c.318.183.278.5-.088.716l-2.329,1.344a1.378,1.378,0,0,1-1.238.051l-5.373-3.1c-.318-.183-.278-.5.089-.715l2.329-1.344A1.376,1.376,0,0,1,438.616,315.065Z" transform="translate(-336.783 -241.994)" fill="#5793ce"/>
        </g>
        <g id="Group_7684" data-name="Group 7684" transform="translate(113.093 38.091)">
          <path id="Path_25797" data-name="Path 25797" d="M464.81,179.353l-40.122-23.164.516-2.608,40.122,23.164Z" transform="translate(-404.358 -123.829)" fill="#d4ecff"/>
          <path id="Path_25798" data-name="Path 25798" d="M449.374,189.142l-28.007-16.17.516-2.608,28.007,16.17Z" transform="translate(-403.292 -129.217)" fill="#d4ecff"/>
          <path id="Path_25799" data-name="Path 25799" d="M447.257,178.569,423.028,164.58l.516-2.608,24.229,13.989Z" transform="translate(-403.825 -126.523)" fill="#fff"/>
          <path id="Path_25800" data-name="Path 25800" d="M476.391,195.389l-12.115-6.994.516-2.608,12.115,6.994Z" transform="translate(-417.066 -134.168)" fill="#983be9"/>
          <path id="Path_25801" data-name="Path 25801" d="M412.668,119.366l-12.115-6.994.516-2.608,12.115,6.994Z" transform="translate(-396.61 -109.764)" fill="#d4ecff"/>
          <path id="Path_25802" data-name="Path 25802" d="M410.732,128.294,398.617,121.3l.516-2.608,12.115,6.994Z" transform="translate(-395.988 -112.629)" fill="#fff"/>
          <path id="Path_25803" data-name="Path 25803" d="M498.3,252.122l-12.115-6.994.516-2.608,12.115,6.994Z" transform="translate(-424.1 -152.38)" fill="#d4ecff"/>
          <path id="Path_25804" data-name="Path 25804" d="M406.86,146.149l-12.115-6.994.516-2.608,12.115,6.994Z" transform="translate(-394.745 -118.361)" fill="#d4ecff"/>
        </g>
        <g id="Group_7685" data-name="Group 7685" transform="translate(148.267 65.154)">
          <path id="Path_25805" data-name="Path 25805" d="M449.666,152.224a1.512,1.512,0,0,1-2.178.671,1.9,1.9,0,0,1-.78-2.378,1.511,1.511,0,0,1,2.178-.671A1.9,1.9,0,0,1,449.666,152.224Z" transform="translate(-446.55 -149.622)" fill="#983be9"/>
          <path id="Path_25806" data-name="Path 25806" d="M457.351,156.661a1.511,1.511,0,0,1-2.178.671,1.9,1.9,0,0,1-.78-2.378,1.511,1.511,0,0,1,2.178-.671A1.9,1.9,0,0,1,457.351,156.661Z" transform="translate(-449.017 -151.046)" fill="#fff"/>
          <path id="Path_25807" data-name="Path 25807" d="M465.036,161.1a1.511,1.511,0,0,1-2.178.671,1.9,1.9,0,0,1-.78-2.378,1.512,1.512,0,0,1,2.178-.671A1.9,1.9,0,0,1,465.036,161.1Z" transform="translate(-451.484 -152.471)" fill="#d4ecff"/>
          <path id="Path_25808" data-name="Path 25808" d="M472.721,165.535a1.511,1.511,0,0,1-2.178.671,1.9,1.9,0,0,1-.78-2.378,1.512,1.512,0,0,1,2.178-.671A1.9,1.9,0,0,1,472.721,165.535Z" transform="translate(-453.951 -153.895)" fill="#983be9"/>
        </g>
      </g>
      <g id="Group_7689" data-name="Group 7689" transform="translate(254.19 101.564)">
        <g id="Group_7687" data-name="Group 7687">
          <path id="Path_25809" data-name="Path 25809" d="M328.888,139.536l-26.129-15.081a1.585,1.585,0,0,0-1.484-.108l.005-.017-3.115,1.464s1.17.409,1.856.65l-3.77,19.022a3.971,3.971,0,0,0,1.547,4.016L322.772,163.9l-.443,2.232,3.146-1.474-.014,0a2.275,2.275,0,0,0,1.124-1.676l3.85-19.422A3.971,3.971,0,0,0,328.888,139.536Z" transform="translate(-293.007 -124.211)" fill="#721bd5"/>
          <path id="Path_25810" data-name="Path 25810" d="M319.257,166.75l-26.129-15.081a3.972,3.972,0,0,1-1.547-4.016l3.85-19.422c.307-1.548,1.5-2.259,2.658-1.589l26.129,15.081a3.972,3.972,0,0,1,1.547,4.016l-3.851,19.423C321.608,166.709,320.418,167.42,319.257,166.75Z" transform="translate(-291.508 -124.91)" fill="#983be9"/>
          <path id="Path_25811" data-name="Path 25811" d="M327.393,141.38,301.263,126.3a1.562,1.562,0,0,0-1.714.014,1.655,1.655,0,0,1,1.12.219L326.8,141.614a3.972,3.972,0,0,1,1.547,4.016L324.5,165.053a2.394,2.394,0,0,1-.942,1.574,2.06,2.06,0,0,0,1.537-1.807l3.85-19.423A3.972,3.972,0,0,0,327.393,141.38Z" transform="translate(-294.089 -124.801)" fill="#fff"/>
        </g>
        <g id="Group_7688" data-name="Group 7688" transform="translate(9.167 16.772)">
          <path id="Path_25812" data-name="Path 25812" d="M308.58,152.206a1.381,1.381,0,0,1-2.167,1.017,3.063,3.063,0,0,1-1.359-3.052,1.38,1.38,0,0,1,2.166-1.018A3.064,3.064,0,0,1,308.58,152.206Z" transform="translate(-305.008 -148.912)" fill="#fff"/>
          <path id="Path_25813" data-name="Path 25813" d="M316.446,156.746a1.381,1.381,0,0,1-2.167,1.017,3.063,3.063,0,0,1-1.359-3.052,1.38,1.38,0,0,1,2.166-1.018A3.065,3.065,0,0,1,316.446,156.746Z" transform="translate(-307.533 -150.37)" fill="#fff"/>
          <path id="Path_25814" data-name="Path 25814" d="M324.312,161.286a1.381,1.381,0,0,1-2.167,1.017,3.063,3.063,0,0,1-1.359-3.052,1.38,1.38,0,0,1,2.166-1.018A3.065,3.065,0,0,1,324.312,161.286Z" transform="translate(-310.059 -151.827)" fill="#fff"/>
        </g>
      </g>
      <g id="Group_7692" data-name="Group 7692" transform="translate(242.459 77.143)">
        <g id="Group_7690" data-name="Group 7690">
          <path id="Path_25815" data-name="Path 25815" d="M311.611,103.568,285.482,88.488A1.586,1.586,0,0,0,284,88.379l.005-.016-3.114,1.464s1.169.409,1.856.65l-3.77,19.022a3.971,3.971,0,0,0,1.547,4.016L305.5,127.929l-.442,2.233,3.146-1.474-.014-.005a2.273,2.273,0,0,0,1.123-1.675l3.851-19.423A3.971,3.971,0,0,0,311.611,103.568Z" transform="translate(-275.731 -88.243)" fill="#5793ce"/>
          <path id="Path_25816" data-name="Path 25816" d="M301.981,130.782,275.851,115.7a3.972,3.972,0,0,1-1.547-4.016l3.85-19.423c.307-1.547,1.5-2.259,2.658-1.589l26.129,15.082a3.97,3.97,0,0,1,1.547,4.016l-3.85,19.422C304.331,130.741,303.142,131.452,301.981,130.782Z" transform="translate(-274.231 -88.943)" fill="#d4ecff"/>
          <path id="Path_25817" data-name="Path 25817" d="M310.116,105.413,283.987,90.332a1.563,1.563,0,0,0-1.715.014,1.655,1.655,0,0,1,1.121.219l26.129,15.081a3.972,3.972,0,0,1,1.547,4.016l-3.85,19.422a2.392,2.392,0,0,1-.943,1.575,2.061,2.061,0,0,0,1.537-1.807l3.85-19.423A3.971,3.971,0,0,0,310.116,105.413Z" transform="translate(-276.812 -88.834)" fill="#fff"/>
        </g>
        <g id="Group_7691" data-name="Group 7691" transform="translate(9.167 16.772)">
          <path id="Path_25818" data-name="Path 25818" d="M291.3,116.239a1.381,1.381,0,0,1-2.167,1.017,3.063,3.063,0,0,1-1.359-3.053,1.38,1.38,0,0,1,2.166-1.017A3.065,3.065,0,0,1,291.3,116.239Z" transform="translate(-287.732 -112.945)" fill="#fff"/>
          <path id="Path_25819" data-name="Path 25819" d="M299.17,120.779A1.381,1.381,0,0,1,297,121.8a3.062,3.062,0,0,1-1.359-3.053,1.38,1.38,0,0,1,2.166-1.017A3.064,3.064,0,0,1,299.17,120.779Z" transform="translate(-290.257 -114.403)" fill="#fff"/>
          <path id="Path_25820" data-name="Path 25820" d="M307.036,125.319a1.381,1.381,0,0,1-2.167,1.017,3.064,3.064,0,0,1-1.36-3.053,1.381,1.381,0,0,1,2.167-1.017A3.064,3.064,0,0,1,307.036,125.319Z" transform="translate(-292.782 -115.86)" fill="#fff"/>
        </g>
      </g>
      <g id="Group_7698" data-name="Group 7698" transform="translate(224.936 140.431)">
        <g id="Group_7697" data-name="Group 7697" transform="translate(0 0)">
          <g id="Group_7694" data-name="Group 7694" transform="translate(1.917)">
            <path id="Path_25821" data-name="Path 25821" d="M273.391,337.435s-2.546-1.284-4.11.628-3.8,6.425-3.867,9.475,2.413,2.844,3.889,2.122,5.787-6.975,6.048-8.2a4.254,4.254,0,0,0-.722-3.206C274.212,337.928,273.391,337.435,273.391,337.435Z" transform="translate(-255.793 -231.391)" fill="#191728"/>
            <path id="Path_25822" data-name="Path 25822" d="M275.7,336.443l.117,2.637a1.5,1.5,0,0,1-.745,1.372,2.933,2.933,0,0,1-1.964.306c-1.917-.308-2.089-.856-2.226-3.493S275.7,336.443,275.7,336.443Z" transform="translate(-257.549 -231.012)" fill="#d4ecff"/>
            <g id="Group_7693" data-name="Group 7693" transform="translate(0 46.916)">
              <path id="Path_25823" data-name="Path 25823" d="M259.665,329.966s-2.546-1.284-4.109.628-3.8,6.425-3.868,9.474,2.413,2.844,3.889,2.122,5.786-6.975,6.048-8.2a4.253,4.253,0,0,0-.722-3.206C260.487,330.459,259.665,329.966,259.665,329.966Z" transform="translate(-251.387 -275.909)" fill="#191728"/>
              <path id="Path_25824" data-name="Path 25824" d="M261.976,328.973l.118,2.638a1.5,1.5,0,0,1-.746,1.372,2.94,2.94,0,0,1-1.964.306c-1.918-.308-2.089-.856-2.226-3.493S261.976,328.973,261.976,328.973Z" transform="translate(-253.143 -275.531)" fill="#d4ecff"/>
              <path id="Path_25825" data-name="Path 25825" d="M282.8,255.57c-.754-12.26-13.278,1.8-13.278,1.8l-8.572,8.4-7.719,8.479a7.61,7.61,0,0,0-1.917,6.112l3.123,23.777a2.336,2.336,0,0,0,2.343,2.03,7.832,7.832,0,0,0,1.157-.1,2.9,2.9,0,0,0,2.579-3.082l-.57-22.237,16.21-9.772S283.549,267.829,282.8,255.57Z" transform="translate(-251.246 -250.552)" fill="#293677"/>
            </g>
            <path id="Path_25826" data-name="Path 25826" d="M296.521,262.449c-.754-12.26-13.278,1.8-13.278,1.8l-8.572,8.4-7.719,8.479a7.607,7.607,0,0,0-1.917,6.112l3.122,23.776a2.337,2.337,0,0,0,2.343,2.031,7.925,7.925,0,0,0,1.157-.1,2.905,2.905,0,0,0,2.58-3.083l-.555-21.6,16.194-10.411S297.275,274.709,296.521,262.449Z" transform="translate(-255.652 -205.844)" fill="#3a55ca"/>
            <path id="Path_25827" data-name="Path 25827" d="M291.865,206.213c9.495,3.937,9.3,9.549,9.3,9.549s-1.86,20.577-1.226,34.319c.266,5.745-30.522,6.184-25.93-9.143,5.414-18.071,3.384-32.7,5.919-34.907S289.409,205.2,291.865,206.213Z" transform="translate(-258.405 -188.964)" fill="#bedaff"/>
            <path id="Path_25828" data-name="Path 25828" d="M300.5,211.861c-.5,1.928-3.023,2.944-5.642,2.269s-4.34-2.785-3.843-4.712,3.022-2.944,5.641-2.269S301,209.934,300.5,211.861Z" transform="translate(-263.985 -189.636)" fill="#ffc2b0"/>
            <path id="Path_25829" data-name="Path 25829" d="M296.264,214.579a6.974,6.974,0,0,1-1.734-.223,6.319,6.319,0,0,1-3.328-2.039,3.432,3.432,0,0,1,1.454-5.644,6.658,6.658,0,0,1,7.228,1.862,3.432,3.432,0,0,1-1.454,5.644A5.8,5.8,0,0,1,296.264,214.579Zm-1.444-7.4a4.9,4.9,0,0,0-1.826.335,2.532,2.532,0,0,0-1.089,4.228,5.757,5.757,0,0,0,6.186,1.594,2.749,2.749,0,0,0,1.755-1.8h0a2.75,2.75,0,0,0-.665-2.426,5.411,5.411,0,0,0-2.852-1.733A6.048,6.048,0,0,0,294.82,207.179Z" transform="translate(-263.77 -189.421)" fill="#fff"/>
            <path id="Path_25830" data-name="Path 25830" d="M294.88,205.333a23.36,23.36,0,0,1-.082,3.389c-.052.946,3.26,1.829,4.116.973s.514-1.746.719-4.965S294.88,205.333,294.88,205.333Z" transform="translate(-265.226 -188.512)" fill="#dd936f"/>
            <path id="Path_25832" data-name="Path 25832" d="M298.869,191.58a7.309,7.309,0,1,1-8.906-5.247A7.309,7.309,0,0,1,298.869,191.58Z" transform="translate(-261.915 -182.945)" fill="#ffc2b0"/>
            <path id="Path_25834" data-name="Path 25834" d="M284.3,192.64a13.052,13.052,0,0,1,6.581-.868,3.227,3.227,0,0,1,1.858,1.1,1.1,1.1,0,0,0,.562.407c.545.124,1.438-2.139,2.5-2.19s1.767.7.9,2.09-.576,2.949-.176,3.172,5.35-3.231,1.609-10.642S284.182,182.5,282.7,184c0,0-1.557,1.357-2.823.149C279.88,184.151,278.46,194.784,284.3,192.64Z" transform="translate(-260.389 -181.454)" fill="#b25e02"/>
            <path id="Path_25835" data-name="Path 25835" d="M300.635,241.566v5.56a2.265,2.265,0,0,1-.739,1.674l-11.422,10.413,1.3,1.985,15.736-10.318a3.066,3.066,0,0,0,1.249-2.161l1.076-10.319Z" transform="translate(-263.197 -199.735)" fill="#ffc2b0"/>
            <path id="Path_25836" data-name="Path 25836" d="M310.514,216.828s3.465,5.211,4.756,18.928c0,0-5.919,1.915-9.278.828S310.514,216.828,310.514,216.828Z" transform="translate(-268.552 -192.81)" fill="#0382ff"/>
            <path id="Path_25837" data-name="Path 25837" d="M304.775,226.532a96.587,96.587,0,0,0-1.433,10.672,2.178,2.178,0,0,0,1.433,2.1h0Z" transform="translate(-267.969 -195.925)" fill="#015bb4"/>
          </g>
          <g id="Group_7695" data-name="Group 7695" transform="translate(1.826 55.328)">
            <path id="Path_25838" data-name="Path 25838" d="M285.045,275l-2.524-.333-16.3-9.409a2.264,2.264,0,0,0-2.038.084l-11.548,6.665-1.526-.2v1.52h0a.593.593,0,0,0,.35.535l18.468,10.663a2.266,2.266,0,0,0,2.038-.084l12.575-7.258a.823.823,0,0,0,.5-.686h0Z" transform="translate(-251.112 -263.619)" fill="#5793ce"/>
            <path id="Path_25839" data-name="Path 25839" d="M272.8,270.631l-1.158-.669H258.915l-6.275,3.621-1.526-.2v1.52h0a.593.593,0,0,0,.35.535L269.933,286.1a1.911,1.911,0,0,0,1.052.2Z" transform="translate(-251.112 -265.194)" fill="#396caa"/>
            <path id="Path_25840" data-name="Path 25840" d="M251.79,275.087l-.677-.089v1.52h0a.593.593,0,0,0,.35.535l.325.188Z" transform="translate(-251.112 -266.811)" fill="#5793ce"/>
            <path id="Path_25841" data-name="Path 25841" d="M279.105,292.582a2.364,2.364,0,0,0,1.732-.107v-2.586h-1.732Z" transform="translate(-260.098 -271.591)" fill="#5793ce"/>
            <path id="Path_25842" data-name="Path 25842" d="M269.933,282.326l-18.468-10.663c-.522-.3-.457-.828.147-1.177l12.576-7.258a2.266,2.266,0,0,1,2.038-.085l18.468,10.663c.522.3.457.828-.147,1.177l-12.575,7.258A2.264,2.264,0,0,1,269.933,282.326Z" transform="translate(-251.112 -262.94)" fill="#fff"/>
            <path id="Path_25843" data-name="Path 25843" d="M270.972,282.552l-15.357-8.866c-.435-.251-.38-.689.122-.978l6.739-3.789a1.885,1.885,0,0,1,1.7-.07l15.356,8.865c.435.251.38.689-.122.978l-6.739,3.79A1.885,1.885,0,0,1,270.972,282.552Z" transform="translate(-252.463 -264.782)" fill="#d4ecff"/>
          </g>
          <path id="Path_25844" data-name="Path 25844" d="M271.28,262.546l-.191,1.274a9.417,9.417,0,0,0,.083,3.267l.227,1.123a1.58,1.58,0,0,0,1.266,1.241h0a.871.871,0,0,0,1.022-.76l.3-2.724s.7.913,1.033.913-.377-2.728-1.138-4.272S271.28,262.546,271.28,262.546Z" transform="translate(-255.666 -207.28)" fill="#ffc2b0"/>
          <path id="Path_25845" data-name="Path 25845" d="M277.112,231.2l-1.981,3.922a7.679,7.679,0,0,0-.811,2.977l-.861,13.415-2.607-.062-1.183-15.066a5.5,5.5,0,0,1,.067-1.393l1.352-7.639Z" transform="translate(-255.238 -196.19)" fill="#ffc2b0"/>
          <g id="Group_7696" data-name="Group 7696" transform="translate(0 47.34)">
            <path id="Path_25846" data-name="Path 25846" d="M268.6,279.574l-1.549-2.022-16.285-9.428a2.266,2.266,0,0,1-.944-1.808l.014-13.333-.936-1.223.88-.509h0a.6.6,0,0,1,.639.037l18.455,10.685a2.264,2.264,0,0,1,.944,1.809L269.8,278.3a.821.821,0,0,1-.345.774h0Z" transform="translate(-248.575 -251.175)" fill="#173d7a"/>
            <path id="Path_25847" data-name="Path 25847" d="M257.335,271.928l-1.157-.67-6.351-11.031.007-7.245-.936-1.223.88-.509h0a.6.6,0,0,1,.639.037l18.455,10.685a1.907,1.907,0,0,1,.7.813Z" transform="translate(-248.575 -251.175)" fill="#396caa"/>
            <path id="Path_25848" data-name="Path 25848" d="M249.313,252.3l-.416-.543.88-.509h0a.6.6,0,0,1,.639.037l.325.188Z" transform="translate(-248.575 -251.175)" fill="#5793ce"/>
            <path id="Path_25849" data-name="Path 25849" d="M277.665,267.253a2.366,2.366,0,0,1,.771,1.554l-1.8,1.042-.864-1.5Z" transform="translate(-257.202 -256.337)" fill="#274f89"/>
            <path id="Path_25850" data-name="Path 25850" d="M267.841,262.722l-18.455-10.685c-.522-.3-.946.018-.947.714l-.016,14.52a2.263,2.263,0,0,0,.944,1.808l18.455,10.685c.522.3.947-.017.947-.714l.016-14.52A2.267,2.267,0,0,0,267.841,262.722Z" transform="translate(-248.423 -251.415)" fill="#5793ce"/>
          </g>
          <path id="Path_25851" data-name="Path 25851" d="M287.508,271.039l-.3.613a4.105,4.105,0,0,1-1.543,1.71l-1.833,1.13a1.824,1.824,0,0,1-1.871.043l-.062-.037a1.1,1.1,0,0,1-.156-1.695l1.916-1.969s-1.076.824-1.378.492c-.221-.244,1.044-1.431,2.015-1.47a3.831,3.831,0,0,0,1.911-.8Z" transform="translate(-259.016 -209.575)" fill="#ffc2b0"/>
          <path id="Path_25852" data-name="Path 25852" d="M278.572,206.548s-7.023,7.641-9.856,14.651a14.336,14.336,0,0,0,8.28,6.024C282.874,228.921,278.572,206.548,278.572,206.548Z" transform="translate(-254.937 -189.509)" fill="#0382ff"/>
          <path id="Path_25853" data-name="Path 25853" d="M278.233,231.132l1.138-11-2.682,10.3A15.469,15.469,0,0,0,278.233,231.132Z" transform="translate(-257.497 -193.872)" fill="#015bb4"/>
        </g>
      </g>
      <path id="Path_25856" data-name="Path 25856" d="M332.265,312.832,300.8,294.663c-.916-.529-.8-1.452.257-2.063l18.991-10.964a3.972,3.972,0,0,1,3.574-.148l31.47,18.169c.916.529.8,1.452-.257,2.063L335.84,312.684A3.974,3.974,0,0,1,332.265,312.832Z" transform="translate(-40.101 -73.02)" fill="#fff"/>
      <g id="Group_7701" data-name="Group 7701" transform="translate(175.937 214.088)">
        <g id="Group_7699" data-name="Group 7699" transform="translate(0 0)">
          <ellipse id="Ellipse_445" data-name="Ellipse 445" cx="13.842" cy="7.992" rx="13.842" ry="7.992" transform="translate(3.255 15.54) rotate(-6.322)" fill="#173d7a" opacity="0.5"/>
          <path id="Path_25857" data-name="Path 25857" d="M209.522,305.467l-.487-4.394-.83.092a10.059,10.059,0,0,0-4.144-3.1c-6.5-2.852-16.414-1.754-22.135,2.453a10.049,10.049,0,0,0-3.365,3.929l-.829.092.485,4.371h0c.247,2.321,2.031,4.475,5.293,5.906,6.5,2.852,16.414,1.753,22.135-2.453C208.507,310.262,209.779,307.78,209.522,305.467Z" transform="translate(-176.731 -292.036)" fill="#91bfe2"/>
          <path id="Path_26901" data-name="Path 26901" d="M15.747,0c8.7,0,15.747,4.071,15.747,9.092s-7.05,9.092-15.747,9.092S0,14.113,0,9.092,7.05,0,15.747,0Z" transform="translate(0 3.468) rotate(-6.322)" fill="#fff"/>
          <path id="Path_25858" data-name="Path 25858" d="M205.186,310.277c-5.721,4.207-15.632,5.3-22.135,2.453-3.117-1.366-4.87-3.394-5.237-5.6.135,2.423,1.914,4.687,5.3,6.172,6.5,2.852,16.413,1.754,22.134-2.453,2.979-2.19,4.22-4.789,3.821-7.182C209.194,305.9,207.928,308.262,205.186,310.277Z" transform="translate(-176.757 -294.344)" fill="#fff"/>
        </g>
        <g id="Group_7700" data-name="Group 7700" transform="translate(8.325 7.195)">
          <path id="Path_25859" data-name="Path 25859" d="M189.634,307.935a.708.708,0,0,1-.476-.531l-.637-5.89c-.049-.449.543-.883,1.321-.968s1.447.209,1.5.659l.528,4.883,13.976-3.305c.752-.178,1.53.02,1.74.442s-.228.907-.979,1.084l-15.657,3.7a2.247,2.247,0,0,1-1.2-.033C189.709,307.965,189.67,307.95,189.634,307.935Z" transform="translate(-188.518 -300.531)" fill="#98d336"/>
        </g>
      </g>
      <g id="Group_7703" data-name="Group 7703" transform="translate(251.401 251.668)">
        <g id="Group_7702" data-name="Group 7702" transform="translate(0 0)">
          <path id="Path_25860" data-name="Path 25860" d="M297.809,386.239l-10.409-6.01,10.409-6.009,10.409,6.01Z" transform="translate(-287.4 -354.571)" fill="#173d7a" opacity="0.5"/>
          <path id="Path_25861" data-name="Path 25861" d="M313.139,366.151l-10.409,6.01V360.142l10.409-6.01Z" transform="translate(-292.321 -348.123)" fill="#173d7a"/>
          <path id="Path_25862" data-name="Path 25862" d="M297.809,357.3l-10.409-6.01,10.409-6.009,10.409,6.01Z" transform="translate(-287.4 -345.282)" fill="#d4ecff"/>
          <path id="Path_25863" data-name="Path 25863" d="M297.809,372.16l-10.409-6.01V354.132l10.409,6.01Z" transform="translate(-287.4 -348.123)" fill="#5793ce"/>
        </g>
        <path id="Path_25864" data-name="Path 25864" d="M295.833,368.737l-2.911-1.681v-3.362l2.911,1.681Z" transform="translate(-289.172 -351.193)" fill="#fff"/>
      </g>
      <path id="Path_25865" data-name="Path 25865" d="M376.343,325.071l-45.389-26.205a1.53,1.53,0,0,1,0-2.65L374.112,271.3,422.4,299.18a1.53,1.53,0,0,1,0,2.65l-40.26,23.24A5.8,5.8,0,0,1,376.343,325.071Z" transform="translate(-49.735 -69.865)" fill="#173d7a" opacity="0.5"/>
      <g id="Group_7708" data-name="Group 7708" transform="translate(277.064 180.035)">
        <g id="Group_7704" data-name="Group 7704" transform="translate(0)">
          <path id="Path_25866" data-name="Path 25866" d="M373.438,243.014c0-2.882-2.027-4.057-4.525-2.617l-42.45,24.458a2.748,2.748,0,0,0-1.245,2.151c0,.792.555,1.114,1.242.719l42.45-24.458c1.126-.649,2.042-.119,2.041,1.181l0,4.747c.824-.052,1.651-.052,2.486-.038Z" transform="translate(-325.203 -239.781)" fill="#699822"/>
          <path id="Path_25867" data-name="Path 25867" d="M326.438,280.689l42.45-15.469a10.021,10.021,0,0,0,4.534-7.837l0-3.8c-.835-.014-1.661-.014-2.486.038l0,5.194a4.518,4.518,0,0,1-2.044,3.535l-42.45,15.469a2.746,2.746,0,0,0-1.245,2.151C325.2,280.763,325.751,281.084,326.438,280.689Z" transform="translate(-325.196 -244.21)" fill="#699822"/>
        </g>
        <path id="Path_25868" data-name="Path 25868" d="M325.669,291.541l51.639,29.881,43.72-26.074,3.469-5.177-.36,1.834-.932-4.8-81.156,3.1-14.3-.921Z" transform="translate(-325.348 -255.004)" fill="#699822"/>
        <path id="Path_25869" data-name="Path 25869" d="M328.185,280.311l-.014,6.357,49.909,28.875,1.348-6.058Z" transform="translate(-326.151 -252.792)" fill="#98d336"/>
        <path id="Path_25870" data-name="Path 25870" d="M423.876,270.091l-51.557-29.828-46.484,27.032-.1.664,51.633,29.872Z" transform="translate(-325.37 -239.936)" fill="#98d336"/>
        <g id="Group_7705" data-name="Group 7705" transform="translate(51.911 32.537)">
          <path id="Path_25871" data-name="Path 25871" d="M431.808,300.637l12.122-7.191a4.555,4.555,0,0,0,1.824-3.381l.009-.952a1.315,1.315,0,0,0-.818-1.412l-23.863,13.276-19.432,10.51.018,6.427Z" transform="translate(-401.65 -287.702)" fill="#fff"/>
        </g>
        <path id="Path_25872" data-name="Path 25872" d="M378.857,309.016l-51.23-29.639-1.086-.628-.992-.574a2.5,2.5,0,0,0-.33,1.155.876.876,0,0,0,.353.8v0l.008,0,0,0L377.205,310Z" transform="translate(-325.203 -252.106)" fill="#699822"/>
        <path id="Path_25873" data-name="Path 25873" d="M400.774,336.98l.644.373.119-.205-.4-.316Z" transform="translate(-349.458 -270.936)" fill="#fff"/>
        <path id="Path_25874" data-name="Path 25874" d="M400.8,324.476l.66.382-.165-.36Z" transform="translate(-349.466 -266.97)" fill="#fff"/>
        <g id="Group_7706" data-name="Group 7706" transform="translate(51.632 29.872)">
          <path id="Path_25875" data-name="Path 25875" d="M402.5,308.849l42.45-24.458c2.5-1.439,4.527-.264,4.525,2.617l-.009.953a10.022,10.022,0,0,1-4.534,7.837l-42.45,24.458c-.686.4-1.243.074-1.243-.718a2.746,2.746,0,0,1,1.245-2.151l42.451-24.458a4.516,4.516,0,0,0,2.044-3.534l.009-.952c0-1.3-.914-1.83-2.04-1.181L402.5,311.719c-.686.4-1.243.073-1.242-.719A2.745,2.745,0,0,1,402.5,308.849Z" transform="translate(-401.239 -283.776)" fill="#7bae28"/>
        </g>
        <g id="Group_7707" data-name="Group 7707" transform="translate(50.952 29.479)">
          <path id="Path_25876" data-name="Path 25876" d="M400.918,321.059a2.748,2.748,0,0,1,1.245-2.151l42.451-24.458a4.516,4.516,0,0,0,2.044-3.534l.009-.952c0-.851-.392-1.37-.979-1.446a1.716,1.716,0,0,1,.3,1.052l-.009.953a4.52,4.52,0,0,1-2.045,3.534l-42.45,24.458a2.747,2.747,0,0,0-1.245,2.151c0,.6.319.929.773.881A1.2,1.2,0,0,1,400.918,321.059Z" transform="translate(-400.238 -284.906)" fill="#fff"/>
          <path id="Path_25877" data-name="Path 25877" d="M400.941,310.814a2.747,2.747,0,0,1,1.245-2.151l42.45-24.458a3.426,3.426,0,0,1,2.84-.475c-.83-.707-2.1-.738-3.521.081l-42.45,24.458a2.746,2.746,0,0,0-1.245,2.151c0,.6.319.929.773.881A1.188,1.188,0,0,1,400.941,310.814Z" transform="translate(-400.245 -283.198)" fill="#fff"/>
        </g>
        <path id="Path_25878" data-name="Path 25878" d="M372.347,278.679l23.422-13.495,20.313,11.752L392.66,290.432Z" transform="translate(-340.332 -247.936)" fill="#fff"/>
      </g>
      <g id="Group_7724" data-name="Group 7724" transform="translate(357.563 168.599)">
        <g id="Group_7719" data-name="Group 7719" transform="translate(0 0)">
          <g id="Group_7711" data-name="Group 7711">
            <g id="Group_7710" data-name="Group 7710">
              <path id="Path_25879" data-name="Path 25879" d="M481.036,412.09l-31.659-18.279c-1.16-.669-1.015-1.839.325-2.613l33.556-19.424a5.033,5.033,0,0,1,4.527-.187l31.66,18.279c1.16.669,1.014,1.839-.325,2.613L485.562,411.9A5.031,5.031,0,0,1,481.036,412.09Z" transform="translate(-445.307 -270.512)" fill="rgba(26,30,80,0.3)" opacity="0.5"/>
              <g id="Group_7709" data-name="Group 7709">
                <path id="Path_25880" data-name="Path 25880" d="M536.868,330.135,503.016,310.59a5.71,5.71,0,0,1-2.384-4.555V225.027c0-1.755,1.067-2.562,2.384-1.8l33.852,19.545a5.708,5.708,0,0,1,2.384,4.555v81.008C539.252,330.088,538.185,330.895,536.868,330.135Z" transform="translate(-462.013 -222.938)" fill="url(#linear-gradient)"/>
                <path id="Path_25881" data-name="Path 25881" d="M518.994,242.77l-33.852-19.545a1.531,1.531,0,0,0-1.542-.134h0l-38.648,22.3,1.821,6.739,35.239,100.361,38.493-22.2.019-.011.069-.039v0a2.145,2.145,0,0,0,.786-1.9V247.324A5.708,5.708,0,0,0,518.994,242.77Z" transform="translate(-444.139 -222.939)" fill="#a7bcce"/>
                <path id="Path_25882" data-name="Path 25882" d="M518.994,242.77l-33.852-19.545a1.531,1.531,0,0,0-1.542-.134h0l-38.648,22.3,1.821,6.739,9.69,27.6,1.824,1.053,62.424-36.041A4.763,4.763,0,0,0,518.994,242.77Z" transform="translate(-444.139 -222.939)" fill="#f3f5fa"/>
                <path id="Path_25883" data-name="Path 25883" d="M479.99,362.945,446.137,343.4a5.709,5.709,0,0,1-2.383-4.555V257.838c0-1.756,1.067-2.563,2.383-1.8L479.99,275.58a5.709,5.709,0,0,1,2.383,4.554v81.009C482.373,362.9,481.306,363.706,479.99,362.945Z" transform="translate(-443.754 -233.471)" fill="#bbcee1"/>
                <path id="Path_25884" data-name="Path 25884" d="M479.009,360.051l-29.593-17.085a4.991,4.991,0,0,1-2.084-3.982V263.749c0-1.535.933-2.239,2.084-1.575l29.593,17.086a4.988,4.988,0,0,1,2.084,3.981v75.235C481.092,360.01,480.16,360.716,479.009,360.051Z" transform="translate(-444.903 -235.453)" fill="url(#linear-gradient-2)"/>
                <path id="Path_25885" data-name="Path 25885" d="M479.009,360.051l-29.593-17.085a4.991,4.991,0,0,1-2.084-3.982V263.749c0-1.535.933-2.239,2.084-1.575l29.593,17.086a4.988,4.988,0,0,1,2.084,3.981v75.235C481.092,360.01,480.16,360.716,479.009,360.051Z" transform="translate(-444.903 -235.453)" fill="url(#linear-gradient-2)"/>
                <path id="Path_25886" data-name="Path 25886" d="M479.009,360.051l-29.593-17.085a4.991,4.991,0,0,1-2.084-3.982V263.749c0-1.535.933-2.239,2.084-1.575l29.593,17.086a4.988,4.988,0,0,1,2.084,3.981v75.235C481.092,360.01,480.16,360.716,479.009,360.051Z" transform="translate(-444.903 -235.453)" fill="#9fb3c5"/>
                <path id="Path_25887" data-name="Path 25887" d="M479.976,359.482,450.383,342.4a4.991,4.991,0,0,1-2.084-3.982V263.18a2.41,2.41,0,0,1,.3-1.255c-.744-.006-1.266.677-1.266,1.824v75.235a4.991,4.991,0,0,0,2.084,3.982l29.593,17.085a1.207,1.207,0,0,0,1.785-.319A1.679,1.679,0,0,1,479.976,359.482Z" transform="translate(-444.903 -235.454)" fill="#738291"/>
              </g>
            </g>
          </g>
          <g id="Group_7713" data-name="Group 7713" transform="translate(5.564 29.747)">
            <g id="Group_7712" data-name="Group 7712">
              <path id="Path_25888" data-name="Path 25888" d="M480.49,352.57l-11-6.351-17.544,10.128,30.626,17.682V356.551A4.99,4.99,0,0,0,480.49,352.57Z" transform="translate(-451.948 -292.261)" fill="#9fb3c5"/>
              <path id="Path_25889" data-name="Path 25889" d="M480.49,329.864l-11-6.35-17.544,10.128,30.626,17.681V333.845A4.991,4.991,0,0,0,480.49,329.864Z" transform="translate(-451.948 -284.972)" fill="#9fb3c5"/>
              <path id="Path_25890" data-name="Path 25890" d="M480.49,307.159l-11-6.351-17.544,10.128,30.626,17.682V311.14A4.99,4.99,0,0,0,480.49,307.159Z" transform="translate(-451.948 -277.683)" fill="#9fb3c5"/>
              <path id="Path_25891" data-name="Path 25891" d="M480.49,284.453l-11-6.35-17.544,10.128,30.626,17.681V288.434A4.991,4.991,0,0,0,480.49,284.453Z" transform="translate(-451.948 -270.395)" fill="#9fb3c5"/>
              <path id="Path_25892" data-name="Path 25892" d="M480.49,280.808,456.14,266.75l-4.192,2.42,30.626,17.682V284.79A4.991,4.991,0,0,0,480.49,280.808Z" transform="translate(-451.948 -266.75)" fill="#9fb3c5"/>
            </g>
            <path id="Path_25893" data-name="Path 25893" d="M482.575,288l-30.626-17.682v9.744l30.626,17.682Z" transform="translate(-451.948 -267.894)" fill="#e8ebf4"/>
            <path id="Path_25894" data-name="Path 25894" d="M482.575,310.7l-30.626-17.682v9.744l30.626,17.682Z" transform="translate(-451.948 -275.183)" fill="#e8ebf5"/>
            <path id="Path_25895" data-name="Path 25895" d="M482.575,333.407l-30.626-17.682v9.744l30.626,17.682Z" transform="translate(-451.948 -282.472)" fill="#e8ebf5"/>
            <path id="Path_25896" data-name="Path 25896" d="M482.575,356.112,451.948,338.43v9.744l30.626,17.682Z" transform="translate(-451.948 -289.76)" fill="#e8ebf5"/>
            <path id="Path_25897" data-name="Path 25897" d="M482.575,378.818l-30.626-17.682v9.744l30.626,17.682Z" transform="translate(-451.948 -297.049)" fill="#e8ebf5"/>
          </g>
          <g id="Group_7714" data-name="Group 7714" transform="translate(9.242 36.907)">
            <path id="Path_25898" data-name="Path 25898" d="M481.612,296.508,458.544,283.19a2.826,2.826,0,0,1-1.179-2.254v-2.609c0-.868.528-1.268,1.179-.892l23.068,13.318a2.824,2.824,0,0,1,1.179,2.253v2.61C482.792,296.485,482.263,296.884,481.612,296.508Z" transform="translate(-457.365 -277.294)" fill="#a7bcce"/>
            <path id="Path_25899" data-name="Path 25899" d="M459.71,282.691a2.826,2.826,0,0,1-1.179-2.254v-2.609a1.7,1.7,0,0,1,.043-.375l-.03-.017c-.651-.376-1.179.023-1.179.892v2.609a2.826,2.826,0,0,0,1.179,2.254l23.068,13.318a.706.706,0,0,0,1.136-.517Z" transform="translate(-457.365 -277.294)" fill="#62707c" opacity="0.3"/>
            <path id="Path_25900" data-name="Path 25900" d="M475.656,290.723l-13.881-8.015a.992.992,0,0,1-.415-.792h0c0-.306.185-.446.415-.314l13.881,8.014a.993.993,0,0,1,.415.793h0C476.071,290.715,475.885,290.856,475.656,290.723Z" transform="translate(-458.647 -278.661)" fill="#fff"/>
          </g>
          <g id="Group_7715" data-name="Group 7715" transform="translate(9.242 52.228)">
            <path id="Path_25901" data-name="Path 25901" d="M481.612,319.074l-23.068-13.318a2.826,2.826,0,0,1-1.179-2.254v-2.609c0-.868.528-1.268,1.179-.892l23.068,13.318a2.825,2.825,0,0,1,1.179,2.254v2.609C482.792,319.051,482.263,319.45,481.612,319.074Z" transform="translate(-457.365 -299.859)" fill="#a7bcce"/>
            <path id="Path_25902" data-name="Path 25902" d="M459.71,305.256A2.825,2.825,0,0,1,458.531,303v-2.609a1.709,1.709,0,0,1,.043-.375l-.03-.017c-.651-.376-1.179.023-1.179.892V303.5a2.826,2.826,0,0,0,1.179,2.254l23.068,13.318a.706.706,0,0,0,1.136-.517Z" transform="translate(-457.365 -299.859)" fill="#617382" opacity="0.3"/>
            <path id="Path_25903" data-name="Path 25903" d="M475.656,313.288l-13.881-8.015a.991.991,0,0,1-.415-.792h0c0-.306.185-.446.415-.314l13.881,8.015a.992.992,0,0,1,.415.792h0C476.071,313.28,475.885,313.421,475.656,313.288Z" transform="translate(-458.647 -301.226)" fill="#fff"/>
          </g>
          <g id="Group_7716" data-name="Group 7716" transform="translate(9.242 67.693)">
            <path id="Path_25904" data-name="Path 25904" d="M481.612,341.849l-23.068-13.318a2.823,2.823,0,0,1-1.179-2.253v-2.609c0-.868.528-1.268,1.179-.892L481.612,336.1a2.823,2.823,0,0,1,1.179,2.253v2.609C482.792,341.826,482.263,342.225,481.612,341.849Z" transform="translate(-457.365 -322.635)" fill="#a7bcce"/>
            <path id="Path_25905" data-name="Path 25905" d="M459.71,328.032a2.826,2.826,0,0,1-1.179-2.254v-2.609a1.7,1.7,0,0,1,.043-.375l-.03-.017c-.651-.376-1.179.023-1.179.892v2.609a2.823,2.823,0,0,0,1.179,2.253l23.068,13.318a.706.706,0,0,0,1.136-.517Z" transform="translate(-457.365 -322.635)" fill="#5d6d7d" opacity="0.3"/>
            <path id="Path_25906" data-name="Path 25906" d="M475.656,336.064l-13.881-8.015a.992.992,0,0,1-.415-.792h0c0-.306.185-.446.415-.314l13.881,8.014a.993.993,0,0,1,.415.793h0C476.071,336.056,475.885,336.2,475.656,336.064Z" transform="translate(-458.647 -324.002)" fill="#fff"/>
          </g>
          <g id="Group_7717" data-name="Group 7717" transform="translate(9.242 83.3)">
            <path id="Path_25907" data-name="Path 25907" d="M481.612,364.835l-23.068-13.318a2.824,2.824,0,0,1-1.179-2.253v-2.61c0-.868.528-1.267,1.179-.891l23.068,13.318a2.825,2.825,0,0,1,1.179,2.254v2.609C482.792,364.812,482.263,365.211,481.612,364.835Z" transform="translate(-457.365 -345.621)" fill="#a7bcce"/>
            <path id="Path_25908" data-name="Path 25908" d="M459.71,351.017a2.823,2.823,0,0,1-1.179-2.253v-2.609a1.7,1.7,0,0,1,.043-.375l-.03-.017c-.651-.376-1.179.022-1.179.892v2.609a2.824,2.824,0,0,0,1.179,2.253l23.068,13.318a.706.706,0,0,0,1.136-.517Z" transform="translate(-457.365 -345.621)" fill="#4c5a66" opacity="0.3"/>
            <path id="Path_25909" data-name="Path 25909" d="M475.656,359.05l-13.881-8.015a.993.993,0,0,1-.415-.793h0c0-.3.185-.445.415-.313l13.881,8.014a.993.993,0,0,1,.415.793h0C476.071,359.041,475.885,359.182,475.656,359.05Z" transform="translate(-458.647 -346.988)" fill="#fff"/>
          </g>
          <g id="Group_7718" data-name="Group 7718" transform="translate(9.242 98.597)">
            <path id="Path_25910" data-name="Path 25910" d="M481.612,387.365l-23.068-13.318a2.826,2.826,0,0,1-1.179-2.254v-2.609c0-.868.528-1.268,1.179-.892l23.068,13.318a2.824,2.824,0,0,1,1.179,2.253v2.61C482.792,387.342,482.263,387.741,481.612,387.365Z" transform="translate(-457.365 -368.151)" fill="#a7bcce"/>
            <path id="Path_25911" data-name="Path 25911" d="M459.71,373.548a2.826,2.826,0,0,1-1.179-2.254v-2.609a1.7,1.7,0,0,1,.043-.375l-.03-.017c-.651-.376-1.179.023-1.179.892v2.609a2.826,2.826,0,0,0,1.179,2.254l23.068,13.318a.706.706,0,0,0,1.136-.517Z" transform="translate(-457.365 -368.151)" fill="#8c9eaf" opacity="0.3"/>
            <path id="Path_25912" data-name="Path 25912" d="M475.656,381.58l-13.881-8.015a.992.992,0,0,1-.415-.792h0c0-.306.185-.446.415-.314l13.881,8.014a.993.993,0,0,1,.415.793h0C476.071,381.572,475.885,381.713,475.656,381.58Z" transform="translate(-458.647 -369.518)" fill="#fff"/>
          </g>
          <path id="Path_25913" data-name="Path 25913" d="M451.948,270.314l2.412,1.392v9.744l-2.412-1.392Z" transform="translate(-446.385 -238.147)" fill="#a7bcce" opacity="0.5"/>
          <path id="Path_25914" data-name="Path 25914" d="M451.948,293.019l2.412,1.392v9.744l-2.412-1.392Z" transform="translate(-446.385 -245.436)" fill="#a7bcce" opacity="0.5"/>
          <path id="Path_25915" data-name="Path 25915" d="M451.948,315.725l2.412,1.392v9.744l-2.412-1.392Z" transform="translate(-446.385 -252.724)" fill="#a7bcce" opacity="0.5"/>
          <path id="Path_25916" data-name="Path 25916" d="M451.948,338.43l2.412,1.392v9.744l-2.412-1.392Z" transform="translate(-446.385 -260.013)" fill="#a7bcce" opacity="0.5"/>
          <path id="Path_25917" data-name="Path 25917" d="M451.948,361.136l2.412,1.392v9.744l-2.412-1.392Z" transform="translate(-446.385 -267.302)" fill="#a7bcce" opacity="0.5"/>
        </g>
        <path id="Path_25918" data-name="Path 25918" d="M485.981,296.045c0,.311-.219.437-.488.282a1.079,1.079,0,0,1-.488-.846c0-.311.219-.437.488-.282A1.08,1.08,0,0,1,485.981,296.045Z" transform="translate(-456.996 -246.114)" fill="#fff"/>
        <path id="Path_25919" data-name="Path 25919" d="M489.03,297.8c0,.312-.219.438-.488.282a1.078,1.078,0,0,1-.489-.845c0-.312.219-.438.489-.282A1.079,1.079,0,0,1,489.03,297.8Z" transform="translate(-457.975 -246.679)" fill="#98d336"/>
        <path id="Path_25920" data-name="Path 25920" d="M492.079,299.565c0,.312-.219.438-.489.282A1.08,1.08,0,0,1,491.1,299c0-.312.219-.438.488-.282A1.078,1.078,0,0,1,492.079,299.565Z" transform="translate(-458.953 -247.244)" fill="#fff"/>
        <path id="Path_25921" data-name="Path 25921" d="M485.981,318.739c0,.311-.219.437-.488.282a1.079,1.079,0,0,1-.488-.846c0-.311.219-.437.488-.282A1.08,1.08,0,0,1,485.981,318.739Z" transform="translate(-456.996 -253.399)" fill="#98d336"/>
        <path id="Path_25922" data-name="Path 25922" d="M489.03,320.5c0,.312-.219.438-.488.282a1.078,1.078,0,0,1-.489-.845c0-.312.219-.438.489-.282A1.08,1.08,0,0,1,489.03,320.5Z" transform="translate(-457.975 -253.964)" fill="#fff"/>
        <path id="Path_25923" data-name="Path 25923" d="M492.079,322.259c0,.312-.219.438-.489.282a1.078,1.078,0,0,1-.488-.845c0-.312.219-.438.488-.282A1.078,1.078,0,0,1,492.079,322.259Z" transform="translate(-458.953 -254.529)" fill="#fff"/>
        <path id="Path_25924" data-name="Path 25924" d="M485.981,341.6c0,.312-.219.438-.488.282a1.079,1.079,0,0,1-.488-.845c0-.312.219-.438.488-.282A1.079,1.079,0,0,1,485.981,341.6Z" transform="translate(-456.996 -260.739)" fill="#fff"/>
        <path id="Path_25925" data-name="Path 25925" d="M489.03,343.365c0,.311-.219.437-.488.282a1.079,1.079,0,0,1-.489-.846c0-.312.219-.437.489-.282A1.079,1.079,0,0,1,489.03,343.365Z" transform="translate(-457.975 -261.304)" fill="#98d336"/>
        <path id="Path_25926" data-name="Path 25926" d="M492.079,345.125c0,.311-.219.437-.489.282a1.079,1.079,0,0,1-.488-.846c0-.311.219-.437.488-.282A1.078,1.078,0,0,1,492.079,345.125Z" transform="translate(-458.953 -261.869)" fill="#fff"/>
        <path id="Path_25927" data-name="Path 25927" d="M485.981,364.137c0,.311-.219.437-.488.282a1.08,1.08,0,0,1-.488-.846c0-.311.219-.437.488-.282A1.079,1.079,0,0,1,485.981,364.137Z" transform="translate(-456.996 -267.972)" fill="#fff"/>
        <path id="Path_25928" data-name="Path 25928" d="M489.03,365.9c0,.311-.219.437-.488.282a1.078,1.078,0,0,1-.489-.846c0-.311.219-.437.489-.282A1.08,1.08,0,0,1,489.03,365.9Z" transform="translate(-457.975 -268.537)" fill="#98d336"/>
        <path id="Path_25929" data-name="Path 25929" d="M492.079,367.657c0,.312-.219.438-.489.282a1.079,1.079,0,0,1-.488-.845c0-.312.219-.438.488-.282A1.077,1.077,0,0,1,492.079,367.657Z" transform="translate(-458.953 -269.102)" fill="#98d336"/>
        <path id="Path_25930" data-name="Path 25930" d="M485.981,386.976c0,.312-.219.438-.488.282a1.079,1.079,0,0,1-.488-.845c0-.312.219-.438.488-.282A1.079,1.079,0,0,1,485.981,386.976Z" transform="translate(-456.996 -275.304)" fill="#fff"/>
        <path id="Path_25931" data-name="Path 25931" d="M489.03,388.737c0,.311-.219.437-.488.282a1.079,1.079,0,0,1-.489-.846c0-.311.219-.437.489-.282A1.079,1.079,0,0,1,489.03,388.737Z" transform="translate(-457.975 -275.869)" fill="#98d336"/>
        <path id="Path_25932" data-name="Path 25932" d="M492.079,390.5c0,.312-.219.437-.489.282a1.079,1.079,0,0,1-.488-.846c0-.311.219-.437.488-.282A1.079,1.079,0,0,1,492.079,390.5Z" transform="translate(-458.953 -276.434)" fill="#fff"/>
        <g id="Group_7720" data-name="Group 7720" transform="translate(43.718 32.817)">
          <path id="Path_25933" data-name="Path 25933" d="M508.142,356.978V288l.143-.082,28.828-16.645v68.981l-.143.081Zm.571-68.65v67.661l27.83-16.068V272.26Z" transform="translate(-508.142 -271.271)" fill="#738291"/>
        </g>
        <g id="Group_7723" data-name="Group 7723" transform="translate(50.702 52.305)">
          <path id="Path_25934" data-name="Path 25934" d="M532.926,311.522,520,318.985c-.868.5-1.573-.031-1.573-1.188v-7.167a3.765,3.765,0,0,1,1.573-3l12.927-7.463c.868-.5,1.572.031,1.572,1.189v7.167A3.767,3.767,0,0,1,532.926,311.522Z" transform="translate(-518.427 -299.973)" fill="#92a6b7"/>
          <path id="Path_25935" data-name="Path 25935" d="M533.295,300.024a2.071,2.071,0,0,1,.117.718v7.167a3.765,3.765,0,0,1-1.573,3l-12.927,7.463a1.539,1.539,0,0,1-.314.139.917.917,0,0,0,1.456.47l12.927-7.463a3.766,3.766,0,0,0,1.572-3v-7.167C534.553,300.336,534.013,299.8,533.295,300.024Z" transform="translate(-518.482 -299.974)" fill="#606e7b"/>
          <g id="Group_7722" data-name="Group 7722" transform="translate(2.433 4.078)">
            <g id="Group_7721" data-name="Group 7721" transform="translate(0 3.095)">
              <path id="Path_25936" data-name="Path 25936" d="M536.1,310.6c.239-.139.432-.026.432.25v1.632a.956.956,0,0,1-.432.75c-.24.138-.433.026-.433-.25v-1.633A.954.954,0,0,1,536.1,310.6Z" transform="translate(-526.394 -310.538)" fill="#fff"/>
              <path id="Path_25937" data-name="Path 25937" d="M533.368,312.474c.24-.138.433-.026.433.25v1.429a.954.954,0,0,1-.433.749c-.239.139-.433.026-.433-.249v-1.429A.955.955,0,0,1,533.368,312.474Z" transform="translate(-525.518 -311.14)" fill="#d4ecff"/>
              <path id="Path_25938" data-name="Path 25938" d="M530.636,311.7c.239-.138.433-.026.433.25v3.022a.956.956,0,0,1-.433.75c-.239.138-.432.026-.432-.25v-3.022A.956.956,0,0,1,530.636,311.7Z" transform="translate(-524.641 -310.893)" fill="#98d336"/>
              <path id="Path_25939" data-name="Path 25939" d="M527.906,310.715c.239-.138.433-.026.433.25v4.764a.956.956,0,0,1-.433.75c-.239.138-.432.026-.432-.25v-4.764A.955.955,0,0,1,527.906,310.715Z" transform="translate(-523.764 -310.576)" fill="#d4ecff"/>
              <path id="Path_25940" data-name="Path 25940" d="M525.175,313.028c.239-.138.433-.026.433.25v4.264a.957.957,0,0,1-.433.75c-.239.138-.433.026-.433-.25v-4.265A.955.955,0,0,1,525.175,313.028Z" transform="translate(-522.888 -311.318)" fill="#d4ecff"/>
              <path id="Path_25941" data-name="Path 25941" d="M522.443,317.474c.239-.138.433-.026.433.25v2.316a.958.958,0,0,1-.433.75c-.239.138-.432.026-.432-.25v-2.316A.956.956,0,0,1,522.443,317.474Z" transform="translate(-522.011 -312.745)" fill="#fff"/>
            </g>
            <path id="Path_25942" data-name="Path 25942" d="M535.677,309.034c0,.272.19.382.426.246a.941.941,0,0,0,.425-.737c0-.271-.19-.381-.425-.246A.94.94,0,0,0,535.677,309.034Z" transform="translate(-526.398 -306.705)" fill="#98d336"/>
            <path id="Path_25943" data-name="Path 25943" d="M535.677,306.774c0,.272.19.382.426.246a.941.941,0,0,0,.425-.737c0-.271-.19-.381-.425-.245A.937.937,0,0,0,535.677,306.774Z" transform="translate(-526.398 -305.979)" fill="#fff"/>
          </g>
        </g>
      </g>
      <g id="Group_7727" data-name="Group 7727" transform="translate(175.258 164.762)">
        <path id="Path_25944" data-name="Path 25944" d="M194.567,267.811l-18.54-10.7c-1.138-.657-1-1.8.318-2.563l17.9-10.336a4.935,4.935,0,0,1,4.44-.184l18.54,10.7c1.138.657,1,1.8-.318,2.563l-17.9,10.336A4.935,4.935,0,0,1,194.567,267.811Z" transform="translate(-175.258 -225.727)" fill="#173d7a" opacity="0.5"/>
        <path id="Path_25945" data-name="Path 25945" d="M217.992,240.288h0v-6.4l-14.345-.008-4.958-2.863a4.933,4.933,0,0,0-4.44.184l-4.626,2.67-14.358-.007v6.579a1.287,1.287,0,0,0,.763,1.19l18.54,10.7a4.937,4.937,0,0,0,4.44-.184l17.9-10.336A1.759,1.759,0,0,0,217.992,240.288Z" transform="translate(-175.26 -221.553)" fill="#396caa"/>
        <path id="Path_25946" data-name="Path 25946" d="M196.629,230.582a5.11,5.11,0,0,0-2.38.624l-4.626,2.67-14.358-.007v6.579a1.287,1.287,0,0,0,.763,1.19l18.54,10.7a4.019,4.019,0,0,0,2.061.44Z" transform="translate(-175.26 -221.555)" fill="#396caa"/>
        <path id="Path_25947" data-name="Path 25947" d="M176.89,235.424h-1.625V242a1.287,1.287,0,0,0,.763,1.19l.862.5Z" transform="translate(-175.26 -223.109)" fill="#5793ce"/>
        <path id="Path_25948" data-name="Path 25948" d="M204.117,259.285a5.058,5.058,0,0,0,3.549-.041v-7.47h-3.549Z" transform="translate(-184.522 -228.358)" fill="#5793ce"/>
        <path id="Path_25949" data-name="Path 25949" d="M194.567,241.519l-18.54-10.7c-1.138-.657-1-1.8.318-2.563l17.9-10.336a4.937,4.937,0,0,1,4.44-.184l18.54,10.7c1.138.657,1,1.8-.318,2.563l-17.9,10.336A4.937,4.937,0,0,1,194.567,241.519Z" transform="translate(-175.258 -217.287)" fill="#d4ecff"/>
        <path id="Path_25950" data-name="Path 25950" d="M216.91,235.249l-17.9,10.336a4.937,4.937,0,0,1-4.44.184l-18.54-10.7a1.709,1.709,0,0,1-.568-.5,1.192,1.192,0,0,0,.568,1.763l18.54,10.7a4.937,4.937,0,0,0,4.44-.184l17.9-10.336c1.021-.589,1.331-1.413.886-2.059A2.476,2.476,0,0,1,216.91,235.249Z" transform="translate(-175.259 -222.796)" fill="#fff"/>
        <g id="Group_7725" data-name="Group 7725" transform="translate(34.415 17.106)">
          <path id="Path_25951" data-name="Path 25951" d="M227.442,247.113a1.655,1.655,0,0,1-.749,1.3c-.413.239-.749.046-.749-.432a1.656,1.656,0,0,1,.749-1.3C227.106,246.442,227.442,246.636,227.442,247.113Z" transform="translate(-225.944 -243.796)" fill="#d4ecff"/>
          <path id="Path_25952" data-name="Path 25952" d="M230.991,245.064a1.657,1.657,0,0,1-.749,1.3c-.413.238-.749.045-.749-.432a1.656,1.656,0,0,1,.749-1.3C230.655,244.393,230.991,244.587,230.991,245.064Z" transform="translate(-227.083 -243.139)" fill="#d4ecff"/>
          <path id="Path_25953" data-name="Path 25953" d="M234.539,243.015a1.656,1.656,0,0,1-.749,1.3c-.413.238-.749.045-.749-.433a1.655,1.655,0,0,1,.749-1.3C234.2,242.345,234.539,242.538,234.539,243.015Z" transform="translate(-228.222 -242.481)" fill="#d4ecff"/>
        </g>
        <g id="Group_7726" data-name="Group 7726" transform="translate(11.37 6.256)">
          <path id="Path_25954" data-name="Path 25954" d="M201.039,237.839l-8.676-5.009c-.532-.308-.466-.845.149-1.2l8.377-4.836a2.309,2.309,0,0,1,2.078-.086l8.676,5.01c.532.307.466.844-.149,1.2l-8.377,4.837A2.311,2.311,0,0,1,201.039,237.839Z" transform="translate(-192.004 -226.5)" fill="#5793ce"/>
          <path id="Path_25955" data-name="Path 25955" d="M205.943,236.281l-1.2-.693c-.074-.043-.064-.117.02-.166l1.159-.669a.317.317,0,0,1,.287-.012l1.2.693c.074.042.064.117-.02.166l-1.159.669A.32.32,0,0,1,205.943,236.281Z" transform="translate(-196.077 -229.137)" fill="#d4ecff"/>
          <path id="Path_25956" data-name="Path 25956" d="M192.363,232.83l.024.014a1.338,1.338,0,0,1,.125-.086l8.377-4.837a2.309,2.309,0,0,1,2.078-.086l8.652,5c.49-.352.516-.83.024-1.114l-8.676-5.01a2.309,2.309,0,0,0-2.078.086l-8.377,4.836C191.9,231.986,191.831,232.523,192.363,232.83Z" transform="translate(-192.004 -226.5)" fill="#396caa"/>
        </g>
      </g>
    </g>
  </g>
</svg>
