<svg xmlns="http://www.w3.org/2000/svg" xmlns:xlink="http://www.w3.org/1999/xlink" width="370" height="300" viewBox="0 0 370 300">
  <defs>
    <radialGradient id="radial-gradient" cx="0.5" cy="0.5" r="0.5" gradientUnits="objectBoundingBox">
      <stop offset="0" stop-color="#0094d6"/>
      <stop offset="1" stop-color="#002c9a"/>
    </radialGradient>
    <radialGradient id="radial-gradient-2" cx="446.593" cy="162.227" r="46.354" gradientTransform="translate(-7.824 0.107) scale(0.803 0.803)" gradientUnits="userSpaceOnUse">
      <stop offset="0" stop-color="#01c8ef"/>
      <stop offset="0.089" stop-color="#02bee8"/>
      <stop offset="0.239" stop-color="#07a4d7"/>
      <stop offset="0.429" stop-color="#107bba"/>
      <stop offset="0.446" stop-color="#1177b8"/>
      <stop offset="1" stop-color="#112564"/>
    </radialGradient>
  </defs>
  <g id="Group_8199" data-name="Group 8199" transform="translate(-775 -3061)">
    <path id="Rectangle_1476" data-name="Rectangle 1476" d="M10,0H360a10,10,0,0,1,10,10V300a0,0,0,0,1,0,0H0a0,0,0,0,1,0,0V10A10,10,0,0,1,10,0Z" transform="translate(775 3061)" fill="url(#radial-gradient)"/>
    <g id="Group_7787" data-name="Group 7787" transform="translate(618.888 3050.945)">
      <path id="Path_25957" data-name="Path 25957" d="M462.149,309.192l-.4-.687,11.868-6.957a4.659,4.659,0,0,1,4.746.021l9.808,5.859-.408.683-9.808-5.86a3.86,3.86,0,0,0-3.936-.017Z" transform="translate(-52.741 -53.961)" fill="#d4ecff"/>
      <path id="Path_25958" data-name="Path 25958" d="M506.575,301.821l-.4-.685,30.788-18.193a.96.96,0,0,0,.006-1.649l-10.222-6.277.416-.677,10.219,6.275a1.754,1.754,0,0,1-.015,3.012Z" transform="translate(-61.852 -48.512)" fill="#d4ecff"/>
      <path id="Path_25959" data-name="Path 25959" d="M464.4,253.089l-.4-.689,30.005-17.277a.991.991,0,0,0,0-1.718l-15.88-9.121a7.038,7.038,0,0,1-3.526-6.09V165.943a6.526,6.526,0,0,1,2.859-5.4l2.385-1.622.447.657L477.9,161.2a5.733,5.733,0,0,0-2.51,4.743v52.252a6.241,6.241,0,0,0,3.127,5.4l15.88,9.12a1.787,1.787,0,0,1,0,3.1Z" transform="translate(-53.203 -24.841)" fill="#d4ecff"/>
      <path id="Path_25960" data-name="Path 25960" d="M461.8,295.787a.795.795,0,0,1-.4-1.48l11.868-6.957a5.05,5.05,0,0,1,5.15.021l9.808,5.86a.795.795,0,0,1-.815,1.365l-9.808-5.86a3.469,3.469,0,0,0-3.531-.016L462.2,295.677A.786.786,0,0,1,461.8,295.787Z" transform="translate(-52.588 -51.038)" fill="#7eba48"/>
      <path id="Path_25961" data-name="Path 25961" d="M423.39,333.444l-66.038-38.127c-2.3-1.325-2.008-3.641.643-5.171h0c2.65-1.531,6.661-1.7,8.956-.371L432.989,327.9c2.3,1.325,2.008,3.641-.643,5.171h0C429.7,334.6,425.686,334.77,423.39,333.444Z" transform="translate(-31.013 -51.494)" fill="#d4ecff"/>
      <g id="Group_7742" data-name="Group 7742" transform="translate(423.382 69.59)">
        <g id="Group_7736" data-name="Group 7736" transform="translate(3.48 54.791)">
          <g id="Group_7729" data-name="Group 7729" transform="translate(9.107 53.836)">
            <path id="Path_25962" data-name="Path 25962" d="M515.237,217.46a12.37,12.37,0,0,0-1.576-.754h.016l-3.033-1.345.229.53a19.576,19.576,0,0,0-7.11-.076l.141-.587-3.567,1.58.021,0a12,12,0,0,0-1.334.651c-4.477,2.584-4.477,6.776,0,9.36s11.736,2.585,16.213,0S519.714,220.045,515.237,217.46Z" transform="translate(-495.666 -214.605)" fill="#d4ecff"/>
            <path id="Path_25963" data-name="Path 25963" d="M512.5,219.74a8.4,8.4,0,0,1-7.6,0c-2.1-1.211-2.1-3.175,0-4.386a8.4,8.4,0,0,1,7.6,0C514.6,216.565,514.6,218.528,512.5,219.74Z" transform="translate(-497.238 -214.445)" fill="#5793ce"/>
          </g>
          <g id="Group_7730" data-name="Group 7730" transform="translate(18.673 31.862)">
            <path id="Path_25964" data-name="Path 25964" d="M509.617,212.971h0a1.827,1.827,0,0,1-1.827-1.827V188.059h3.653v23.086A1.826,1.826,0,0,1,509.617,212.971Z" transform="translate(-507.719 -187.06)" fill="#5793ce"/>
            <path id="Path_25965" data-name="Path 25965" d="M510.883,188.639a2.912,2.912,0,0,1-2.636,0,.8.8,0,0,1,0-1.522,2.918,2.918,0,0,1,2.637,0A.8.8,0,0,1,510.883,188.639Z" transform="translate(-507.701 -186.802)" fill="#5793ce"/>
          </g>
          <path id="Path_25966" data-name="Path 25966" d="M509.706,183.075h0a1.481,1.481,0,0,1-1.481-1.48v-21.7h2.961v21.7A1.48,1.48,0,0,1,509.706,183.075Z" transform="translate(-489.135 -149.421)" fill="#d4ecff"/>
          <g id="Group_7732" data-name="Group 7732" transform="translate(30.492 18.826)">
            <path id="Path_25967" data-name="Path 25967" d="M536.867,173.641v-.85l1.2-.173,1.344-1.006a.905.905,0,0,1,.885-.033l.991.573.983-.142v.861h0a.327.327,0,0,1-.226.259l-3.13,1.394a.983.983,0,0,1-.82-.03l-1.042-.6a.3.3,0,0,1-.177-.253Z" transform="translate(-525.501 -170.623)" fill="#396caa"/>
            <path id="Path_25968" data-name="Path 25968" d="M537,172.342l2.415-1.808a.9.9,0,0,1,.885-.033l1.8,1.041c.252.145.226.386-.056.511l-3.13,1.394a.984.984,0,0,1-.82-.031l-1.042-.6C536.827,172.688,536.8,172.486,537,172.342Z" transform="translate(-525.501 -170.402)" fill="#5793ce"/>
            <g id="Group_7731" data-name="Group 7731" transform="translate(0 1.379)">
              <path id="Path_25969" data-name="Path 25969" d="M529.989,176.8a1.964,1.964,0,0,0,.967-.238l3.753-2.167a.433.433,0,1,0-.434-.75l-3.752,2.167a1.243,1.243,0,0,1-1.068,0l-6.237-3.613a.433.433,0,1,0-.433.75l6.238,3.613A1.952,1.952,0,0,0,529.989,176.8Z" transform="translate(-522.568 -172.137)" fill="#d4ecff"/>
            </g>
          </g>
          <g id="Group_7735" data-name="Group 7735">
            <path id="Path_25970" data-name="Path 25970" d="M486.448,166.715l6.026-3.5-3.376-1.525-2.889,2.048Z" transform="translate(-484.62 -149.789)" fill="url(#radial-gradient-2)"/>
            <path id="Path_25971" data-name="Path 25971" d="M525.312,158.446a8.022,8.022,0,0,1-1.013-.631L511.457,148.4c-2.319-1.7-4.706-2.138-6.552-1.2-.048.024-.089.058-.136.083l-.013,0-17.736,10.29,1.594.53,6.211,2.816,8.449,5.994,6.669,3.538.3.064c1.555-1.309,3.3-2.433,4.25-4.343,1.651-2.889,6.248-3.716,8.951-6.059.273.174.545.335.817.476A6.061,6.061,0,0,0,525.312,158.446Z" transform="translate(-484.786 -146.719)" fill="#5793ce"/>
            <path id="Path_25972" data-name="Path 25972" d="M536.938,156.132a1.182,1.182,0,0,0-.727.254l0,0-17.355,10.046.634,2.6.65-.311a17.827,17.827,0,0,1-3.9,3.733l1.962.416,17-9.89c.079-.034.159-.063.235-.1a4.238,4.238,0,0,0,.655-.416l.029-.017h-.011a5.99,5.99,0,0,0,2.025-4.908v-.2A1.193,1.193,0,0,0,536.938,156.132Z" transform="translate(-490.779 -148.65)" fill="#396caa"/>
            <g id="Group_7733" data-name="Group 7733" transform="translate(2.234 0.004)">
              <path id="Path_25973" data-name="Path 25973" d="M512.379,146.724a7.261,7.261,0,0,1,3.408,1.1A7.261,7.261,0,0,0,512.379,146.724Z" transform="translate(-492.221 -146.724)" fill="#eaeaea"/>
              <path id="Path_25974" data-name="Path 25974" d="M515.082,166.267v-.2a1.193,1.193,0,0,0-2.386,0v.2c0,1.595-.507,2.766-1.391,3.214-1,.506-2.517.134-4.062-1L494.4,159.072a6.842,6.842,0,0,0-5.7-1.517l10.606-6.153-12.289,7.13,1.594.53,6.211,2.816,8.449,5.994,6.669,3.538.3.064c1.555-1.309,3.3-2.433,4.25-4.343a4.948,4.948,0,0,1,.583-.8C515.079,166.311,515.082,166.29,515.082,166.267Z" transform="translate(-487.02 -147.683)" fill="#5793ce"/>
            </g>
            <g id="Group_7734" data-name="Group 7734" transform="translate(0 10.095)">
              <path id="Path_25975" data-name="Path 25975" d="M509.36,174.12a7.735,7.735,0,0,1-4.47-1.684l-12.842-9.41c-1.544-1.131-3.061-1.5-4.063-1-.884.448-1.39,1.619-1.39,3.214a1.193,1.193,0,0,1-2.386,0c0-2.525.983-4.472,2.7-5.341,1.844-.935,4.233-.5,6.551,1.2l12.842,9.411c1.544,1.132,3.064,1.5,4.062,1,.884-.448,1.391-1.619,1.391-3.214v-.2a1.193,1.193,0,0,1,2.386,0v.2c0,2.525-.983,4.472-2.7,5.342A4.564,4.564,0,0,1,509.36,174.12Z" transform="translate(-484.21 -159.418)" fill="#d4ecff"/>
            </g>
          </g>
        </g>
        <g id="Group_7741" data-name="Group 7741" transform="translate(0 0)">
          <g id="Group_7738" data-name="Group 7738" transform="translate(1.821)">
            <path id="Path_25976" data-name="Path 25976" d="M501.2,204.277s-2.418-1.219-3.9.6-3.609,6.1-3.674,9,2.293,2.7,3.694,2.016,5.5-6.626,5.746-7.79a4.038,4.038,0,0,0-.687-3.046C501.979,204.746,501.2,204.277,501.2,204.277Z" transform="translate(-484.481 -103.65)" fill="#191728"/>
            <path id="Path_25977" data-name="Path 25977" d="M502.636,203.5l.112,2.506a1.421,1.421,0,0,1-.708,1.3,2.793,2.793,0,0,1-1.866.29c-1.822-.293-1.984-.814-2.115-3.319S502.636,203.5,502.636,203.5Z" transform="translate(-485.391 -103.454)" fill="#5793ce"/>
            <g id="Group_7737" data-name="Group 7737" transform="translate(0 44.455)">
              <path id="Path_25978" data-name="Path 25978" d="M490.06,198.216s-2.419-1.22-3.9.6-3.609,6.1-3.675,9,2.292,2.7,3.695,2.016,5.5-6.626,5.745-7.79a4.042,4.042,0,0,0-.686-3.046C490.841,198.685,490.06,198.216,490.06,198.216Z" transform="translate(-482.197 -146.862)" fill="#191728"/>
              <path id="Path_25979" data-name="Path 25979" d="M491.5,197.437l.111,2.506a1.421,1.421,0,0,1-.708,1.3,2.8,2.8,0,0,1-1.866.29c-1.822-.293-1.985-.813-2.115-3.319S491.5,197.437,491.5,197.437Z" transform="translate(-483.107 -146.666)" fill="#5793ce"/>
              <path id="Path_25980" data-name="Path 25980" d="M512.1,138.483c-.716-11.647-12.614,1.714-12.614,1.714l-8.144,7.982-7.332,8.055a7.227,7.227,0,0,0-1.821,5.807l2.966,22.587a2.221,2.221,0,0,0,2.226,1.929,7.614,7.614,0,0,0,1.1-.1,2.759,2.759,0,0,0,2.451-2.928l-.542-21.126,15.4-9.283S512.811,150.13,512.1,138.483Z" transform="translate(-482.123 -133.717)" fill="#293677"/>
            </g>
            <path id="Path_25981" data-name="Path 25981" d="M523.233,144.066c-.716-11.647-12.614,1.714-12.614,1.714l-8.143,7.981-7.333,8.056a7.228,7.228,0,0,0-1.821,5.807l2.967,22.587a2.22,2.22,0,0,0,2.226,1.929,7.623,7.623,0,0,0,1.1-.1,2.758,2.758,0,0,0,2.451-2.928l-.542-21.126,15.4-9.284S523.948,155.713,523.233,144.066Z" transform="translate(-484.407 -90.406)" fill="#3a55ca"/>
            <path id="Path_25982" data-name="Path 25982" d="M517.621,97.927c9.021,3.74,8.839,9.072,8.839,9.072s-1.766,19.548-1.164,32.6c.252,5.457-29,5.874-24.634-8.687,5.143-17.167,3.215-31.065,5.623-33.161S515.288,96.96,517.621,97.927Z" transform="translate(-485.835 -81.655)" fill="#bedaff"/>
            <ellipse id="Ellipse_447" data-name="Ellipse 447" cx="3.424" cy="4.652" rx="3.424" ry="4.652" transform="translate(24.824 21.995) rotate(-75.555)" fill="#ffc2b0"/>
            <path id="Path_25983" data-name="Path 25983" d="M519.484,105.678a6.622,6.622,0,0,1-1.646-.211,6,6,0,0,1-3.163-1.938,3.448,3.448,0,0,1-.8-3.064c.531-2.059,3.171-3.162,5.885-2.466a6,6,0,0,1,3.161,1.938,3.26,3.26,0,0,1-1.381,5.362A5.53,5.53,0,0,1,519.484,105.678Zm-1.374-7.029c-1.676,0-3.076.779-3.4,2.031a2.61,2.61,0,0,0,.632,2.3,5.467,5.467,0,0,0,5.877,1.514,2.609,2.609,0,0,0,1.666-1.711h0a2.608,2.608,0,0,0-.632-2.3,5.132,5.132,0,0,0-2.709-1.647A5.773,5.773,0,0,0,518.11,98.648Z" transform="translate(-488.616 -81.893)" fill="#fff"/>
            <path id="Path_25984" data-name="Path 25984" d="M517.542,97.286a22.431,22.431,0,0,1-.079,3.22c-.049.9,3.1,1.738,3.911.924s.488-1.659.683-4.718S517.542,97.286,517.542,97.286Z" transform="translate(-489.371 -81.421)" fill="#dd936f"/>
            <path id="Path_25986" data-name="Path 25986" d="M522.76,86.623a6.943,6.943,0,1,1-8.46-4.984A6.942,6.942,0,0,1,522.76,86.623Z" transform="translate(-487.655 -78.535)" fill="#ffc2b0"/>
            <path id="Path_25988" data-name="Path 25988" d="M509.582,88.3a12.406,12.406,0,0,1,6.252-.824,3.059,3.059,0,0,1,1.765,1.049,1.045,1.045,0,0,0,.535.386c.518.118,1.366-2.032,2.373-2.081s1.679.665.853,1.986-.546,2.8-.167,3.014,4.409-2.874.855-9.915S509.466,78.67,508.062,80.1c0,0-1.479,1.289-2.683.141C505.379,80.239,504.031,90.34,509.582,88.3Z" transform="translate(-486.863 -77.792)" fill="#b25e02"/>
            <path id="Path_25989" data-name="Path 25989" d="M523.885,126.864v5.282a2.153,2.153,0,0,1-.7,1.591l-10.851,9.893,1.233,1.886,14.33-10.393a2.911,2.911,0,0,0,1.186-2.053l.969-9.212Z" transform="translate(-488.319 -87.239)" fill="#ffc2b0"/>
            <path id="Path_25990" data-name="Path 25990" d="M530.958,106.351s3.292,4.951,4.518,17.982c0,0-5.623,1.818-8.815.786S530.958,106.351,530.958,106.351Z" transform="translate(-491.095 -83.649)" fill="#0382ff"/>
            <path id="Path_25991" data-name="Path 25991" d="M525.758,114.226a91.775,91.775,0,0,0-1.362,10.139,2.068,2.068,0,0,0,1.362,2h0Z" transform="translate(-490.793 -85.264)" fill="#015bb4"/>
          </g>
          <g id="Group_7739" data-name="Group 7739" transform="translate(1.734 52.446)">
            <path id="Path_25992" data-name="Path 25992" d="M514.251,154.933l-2.4-.316-15.482-8.938a2.151,2.151,0,0,0-1.936.079l-10.97,6.331-1.45-.192v1.444h0a.564.564,0,0,0,.333.508l17.544,10.13a2.152,2.152,0,0,0,1.936-.08l11.947-6.9a.781.781,0,0,0,.474-.651h0Z" transform="translate(-482.014 -144.121)" fill="#173d7a"/>
            <path id="Path_25993" data-name="Path 25993" d="M502.619,150.1l-1.1-.635H489.427l-5.962,3.44-1.45-.192v1.444h0a.564.564,0,0,0,.333.508l17.544,10.13a1.811,1.811,0,0,0,1,.188Z" transform="translate(-482.014 -144.938)" fill="#396caa"/>
            <path id="Path_25994" data-name="Path 25994" d="M482.658,153.638l-.643-.085V155h0a.564.564,0,0,0,.333.508l.308.179Z" transform="translate(-482.014 -145.776)" fill="#5793ce"/>
            <path id="Path_25995" data-name="Path 25995" d="M504.729,168.2a2.246,2.246,0,0,0,1.645-.1v-2.456h-1.645Z" transform="translate(-486.672 -148.254)" fill="#274f89"/>
            <path id="Path_25996" data-name="Path 25996" d="M499.894,162.186l-17.544-10.13c-.5-.286-.435-.787.138-1.118l11.947-6.9a2.149,2.149,0,0,1,1.936-.08l17.545,10.13c.5.286.434.787-.139,1.118l-11.947,6.9A2.152,2.152,0,0,1,499.894,162.186Z" transform="translate(-482.014 -143.769)" fill="#fff"/>
            <path id="Path_25997" data-name="Path 25997" d="M500.3,161.606l-14.589-8.423c-.413-.238-.361-.654.116-.929l6.4-3.6a1.79,1.79,0,0,1,1.61-.067l14.588,8.423c.413.238.361.654-.115.929l-6.4,3.6A1.791,1.791,0,0,1,500.3,161.606Z" transform="translate(-482.715 -144.724)" fill="#d4ecff"/>
          </g>
          <path id="Path_25998" data-name="Path 25998" d="M498.421,143.538l-.181,1.211a8.951,8.951,0,0,0,.079,3.1l.216,1.067a1.5,1.5,0,0,0,1.2,1.179h0a.828.828,0,0,0,.971-.723l.289-2.587s.662.867.982.867-.358-2.591-1.08-4.059S498.421,143.538,498.421,143.538Z" transform="translate(-483.587 -91.151)" fill="#ffc2b0"/>
          <path id="Path_25999" data-name="Path 25999" d="M504.146,118.549l-1.883,3.727a7.311,7.311,0,0,0-.77,2.828l-.817,12.744-2.477-.059-1.124-14.312a5.231,5.231,0,0,1,.064-1.323l1.285-7.258Z" transform="translate(-483.365 -85.401)" fill="#ffc2b0"/>
          <g id="Group_7740" data-name="Group 7740" transform="translate(0 44.857)">
            <path id="Path_26000" data-name="Path 26000" d="M498.931,161.2l-1.471-1.921-15.471-8.957a2.152,2.152,0,0,1-.9-1.718l.014-12.666-.89-1.161.835-.484,0,0a.563.563,0,0,1,.607.035l17.533,10.151a2.152,2.152,0,0,1,.9,1.718l-.015,13.794a.782.782,0,0,1-.328.735h0Z" transform="translate(-479.911 -134.222)" fill="#173d7a"/>
            <path id="Path_26001" data-name="Path 26001" d="M488.233,153.937l-1.1-.636-6.033-10.48.006-6.882-.89-1.161.835-.484,0,0a.563.563,0,0,1,.607.035l17.533,10.151a1.814,1.814,0,0,1,.661.773Z" transform="translate(-479.911 -134.222)" fill="#396caa"/>
            <path id="Path_26002" data-name="Path 26002" d="M480.612,135.294l-.4-.516.835-.484,0,0a.563.563,0,0,1,.607.035l.308.179Z" transform="translate(-479.911 -134.222)" fill="#5793ce"/>
            <path id="Path_26003" data-name="Path 26003" d="M503.824,147.269a2.243,2.243,0,0,1,.732,1.477l-1.713.989-.821-1.426Z" transform="translate(-484.383 -136.898)" fill="#274f89"/>
            <path id="Path_26004" data-name="Path 26004" d="M498.279,145.089l-17.532-10.151c-.5-.287-.9.017-.9.678l-.015,13.794a2.151,2.151,0,0,0,.9,1.718l17.533,10.151c.5.288.9-.017.9-.678l.015-13.794A2.152,2.152,0,0,0,498.279,145.089Z" transform="translate(-479.832 -134.347)" fill="#5793ce"/>
          </g>
          <path id="Path_26005" data-name="Path 26005" d="M512.392,150.617l-.281.582a3.9,3.9,0,0,1-1.466,1.624L508.9,153.9a1.733,1.733,0,0,1-1.777.041l-.06-.036a1.047,1.047,0,0,1-.148-1.609l1.82-1.871s-1.022.783-1.309.467c-.21-.231.992-1.359,1.914-1.4a3.645,3.645,0,0,0,1.816-.762Z" transform="translate(-485.324 -92.341)" fill="#ffc2b0"/>
          <path id="Path_26006" data-name="Path 26006" d="M505.662,98.01s-6.672,7.259-9.363,13.918a13.62,13.62,0,0,0,7.866,5.723C509.75,119.264,505.662,98.01,505.662,98.01Z" transform="translate(-483.209 -81.938)" fill="#0382ff"/>
          <path id="Path_26007" data-name="Path 26007" d="M504.236,119.482l1.082-10.446-2.549,9.787A14.55,14.55,0,0,0,504.236,119.482Z" transform="translate(-484.536 -84.2)" fill="#015bb4"/>
        </g>
      </g>
      <path id="Path_26009" data-name="Path 26009" d="M433.642,79.967l-71.155-41.09c-2.338-1.35-4.462-1.383-6.068-.37l0-.017-8.928,5.172,5.987,1.116c-.019.307-.037.615-.037.939V213.543c0,6.662,4.051,14.4,9.048,17.288l70.155,40.513c-.638,2-2,6.219-2,6.219l8.73-5.064h0c2.025-1.044,3.317-3.656,3.317-7.418V97.254C442.69,90.591,438.639,82.851,433.642,79.967Z" transform="translate(-29.308 0)" fill="#e8ebf5"/>
      <g id="Group_7743" data-name="Group 7743" transform="translate(447.764 202.789)">
        <path id="Path_26010" data-name="Path 26010" d="M534.5,270.5l-10.687-6.17-10.687,6.17,10.687,6.17Z" transform="translate(-511.041 -249.247)" fill="#d4ecff"/>
        <path id="Path_26011" data-name="Path 26011" d="M526.566,268.955V262l12.768-7.372v6.952Z" transform="translate(-513.798 -247.259)" fill="#91bfe2"/>
        <path id="Path_26012" data-name="Path 26012" d="M523.272,262,510.5,254.631v6.952l12.768,7.372Z" transform="translate(-510.504 -247.259)" fill="#a7bcce"/>
        <path id="Path_26013" data-name="Path 26013" d="M536.04,252.729l-12.768-7.372L510.5,252.729l12.768,7.372Z" transform="translate(-510.504 -245.357)" fill="#fff"/>
      </g>
      <path id="Path_26014" data-name="Path 26014" d="M486.021,152.817c0,1.092-.767,1.536-1.713.989a3.786,3.786,0,0,1-1.713-2.967c0-1.092.767-1.535,1.713-.989A3.787,3.787,0,0,1,486.021,152.817Z" transform="translate(-57.017 -22.932)" fill="#fff"/>
      <path id="Path_26015" data-name="Path 26015" d="M464.046,246.691a.795.795,0,0,1-.4-1.483l30.005-17.277a.593.593,0,0,0,0-1.029l-15.88-9.121a7.438,7.438,0,0,1-3.726-6.435V159.095a6.922,6.922,0,0,1,3.033-5.729l2.385-1.622a.8.8,0,0,1,.894,1.315l-2.385,1.622a5.332,5.332,0,0,0-2.337,4.414v52.252a5.845,5.845,0,0,0,2.928,5.056l15.88,9.12a2.183,2.183,0,0,1,0,3.785l-30.005,17.277A.788.788,0,0,1,464.046,246.691Z" transform="translate(-53.049 -23.34)" fill="#983be9"/>
      <path id="Path_26016" data-name="Path 26016" d="M354.974,226.184c0,6.663,4.051,14.4,9.048,17.288l70.155,40.513c-.638,2-2,6.219-2,6.219l8.73-5.064h0c2.025-1.044,3.317-3.656,3.317-7.418V109.9a22.5,22.5,0,0,0-2.873-10.459l-86.378,49.87Z" transform="translate(-30.843 -12.641)" fill="#a7bcce"/>
      <path id="Path_26017" data-name="Path 26017" d="M423.886,278.46l-71.155-41.089c-5-2.886-9.048-10.626-9.048-17.289V52.257c0-6.663,4.051-9.726,9.048-6.84l71.155,41.089c5,2.886,9.048,10.626,9.048,17.289V271.62C432.934,278.283,428.882,281.345,423.886,278.46Z" transform="translate(-28.527 -1.34)" fill="#bbcee1"/>
      <path id="Path_26019" data-name="Path 26019" d="M423.536,274.171l-68.372-39.482c-3.714-2.145-6.725-7.9-6.725-12.85V56.4c0-4.952,3.011-7.229,6.725-5.084l68.372,39.482c3.714,2.144,6.725,7.9,6.725,12.85V269.086C430.261,274.039,427.25,276.314,423.536,274.171Z" transform="translate(-29.503 -2.606)" fill="#1e76bc"/>
      <path id="Path_26020" data-name="Path 26020" d="M399.067,241.907l-33.56-19.377V140.947l15.812,9.129a35.5,35.5,0,0,1,17.748,30.742Z" transform="translate(-33.003 -21.154)" fill="#ededed"/>
      <g id="Group_7745" data-name="Group 7745" transform="translate(288.554 110.6)">
        <path id="Path_26021" data-name="Path 26021" d="M342.168,130.683l0,.006c-3.387-2.017-8.093-1.769-13.291,1.232-10.291,5.942-18.663,20.442-18.663,32.323v8.575h0l.354.207,33.622,19.779.509-10.261.42-3.985,1.783-6.187.2-.947,3.823-7.705,3.012-3.762,2.441-2.91,5.948-4.684.523-.389,2.924-1.258,3.932-1.022h3.067l3.43.6Z" transform="translate(-310.218 -129.383)" fill="#d4ecff"/>
        <path id="Path_26022" data-name="Path 26022" d="M355.8,220.54l1.09-.629V180.845a8,8,0,0,0-1.09,2.766Z" transform="translate(-319.567 -139.937)" fill="#d4ecff"/>
        <path id="Path_26023" data-name="Path 26023" d="M389.777,234.863,355.8,215.288l.351-36.982,1.3-3.736,3.932-6.764,4.653-5.518,4.195-3.356,4.535-2.753,8.229-.943,4.352,2.464,2.432,3.723.767,5.715-.262,61.817Z" transform="translate(-319.567 -134.685)" fill="#d4ecff"/>
        <path id="Path_26024" data-name="Path 26024" d="M347.632,130.691c-2.834-1.688-6.593-1.782-10.789-.013l34.618,19.986,3.713-.965h3.067l3.43.6-34.042-19.616Z" transform="translate(-315.679 -129.384)" fill="#5793ce"/>
        <g id="Group_7744" data-name="Group 7744" transform="translate(12.166 0.972)">
          <path id="Path_26025" data-name="Path 26025" d="M336.436,130.606a21.617,21.617,0,0,0-3.317,1.567c-.758.438-1.5.927-2.238,1.452l34.509,19.924,1.181-.93.523-.389,2.924-1.258,1.167-.3Z" transform="translate(-326.622 -130.606)" fill="#e9f6ff"/>
          <path id="Path_26026" data-name="Path 26026" d="M359.816,157.808l4.695-3.7-34.5-19.917a33.29,33.29,0,0,0-4.49,3.815Z" transform="translate(-325.523 -131.342)" fill="#fff"/>
          <path id="Path_26027" data-name="Path 26027" d="M390.284,233.981l-1.09.63V167.95c0-11.188-7.883-15.739-17.572-10.145s-17.572,19.248-17.572,30.436v8.987l-1.09.629v-8.986c0-11.882,8.371-26.382,18.662-32.323s18.662-1.108,18.662,10.774Z" transform="translate(-331.15 -135.405)" fill="#5793ce"/>
        </g>
      </g>
      <path id="Path_26028" data-name="Path 26028" d="M321.509,165.222,319.6,173.04l.956,12.631-2.425-1.426-3.1-6.866,2.716-8.678Z" transform="translate(-22.65 -26.133)" fill="#aedeed"/>
      <g id="Group_7747" data-name="Group 7747" transform="translate(327.808 151.424)">
        <path id="Path_26029" data-name="Path 26029" d="M386.241,218.437a1.277,1.277,0,0,1-.636-.188L360.9,203.985a3.025,3.025,0,0,1-1.3-2.444V182.1a1.354,1.354,0,0,1,.579-1.233,1.082,1.082,0,0,1,1.116.058L386,195.19a3.026,3.026,0,0,1,1.3,2.444v19.44a1.355,1.355,0,0,1-.579,1.233A.95.95,0,0,1,386.241,218.437Zm-25.581-36.9a.167.167,0,0,0-.084.02c-.083.049-.181.22-.181.545v19.44a2.232,2.232,0,0,0,.9,1.755L386,217.562c.064.036.221.113.322.058.083-.048.18-.219.18-.544v-19.44a2.229,2.229,0,0,0-.9-1.755L360.9,181.613A.536.536,0,0,0,360.66,181.535Z" transform="translate(-359.6 -180.739)" fill="#fff" opacity="0.4"/>
        <g id="Group_7746" data-name="Group 7746" transform="translate(7.628 11.424)">
          <path id="Path_26030" data-name="Path 26030" d="M370.536,207.724l-.174-.1A2.792,2.792,0,0,1,369.2,205.4v-9.264c0-.859.522-1.254,1.166-.882l.174.1a2.794,2.794,0,0,1,1.166,2.228v9.265C371.7,207.7,371.18,208.1,370.536,207.724Z" transform="translate(-369.196 -195.11)" fill="#b2d3ea"/>
          <path id="Path_26031" data-name="Path 26031" d="M376.787,212.325l-.174-.1A2.794,2.794,0,0,1,375.447,210v-5.423c0-.859.522-1.253,1.166-.881l.174.1a2.794,2.794,0,0,1,1.166,2.228v5.422C377.953,212.3,377.431,212.7,376.787,212.325Z" transform="translate(-370.478 -196.841)" fill="#b2d3ea"/>
          <path id="Path_26032" data-name="Path 26032" d="M383.038,214l-.173-.1a2.792,2.792,0,0,1-1.166-2.228V198.768c0-.859.521-1.254,1.166-.882l.173.1a2.792,2.792,0,0,1,1.167,2.228v12.906C384.205,213.98,383.683,214.375,383.038,214Z" transform="translate(-371.76 -195.651)" fill="#396caa"/>
        </g>
      </g>
      <g id="Group_7749" data-name="Group 7749" transform="translate(285.668 137.306)">
        <ellipse id="Ellipse_448" data-name="Ellipse 448" cx="21.257" cy="12.273" rx="21.257" ry="12.273" transform="translate(0 118.908)" fill="#d4ecff"/>
        <g id="Group_7748" data-name="Group 7748" transform="translate(5.931 13.643)">
          <path id="Path_26033" data-name="Path 26033" d="M316.349,318.611a4.058,4.058,0,0,0-2.29,4.057,6.88,6.88,0,0,0,.334,1.984,3.339,3.339,0,0,0,4.481,1.373c2.465-.975,7.94-6.118,8.145-9.485C327.4,310.286,320.248,316.946,316.349,318.611Z" transform="translate(-314.048 -207.577)" fill="#191728"/>
          <path id="Path_26034" data-name="Path 26034" d="M335.064,331.607s-.591,3.606-.3,4.267a4.644,4.644,0,0,0,4.537,1.766c2.535-.305,9.827-2.82,11.451-7.626,2.517-7.45-14.076.56-14.076.56Z" transform="translate(-318.28 -210.229)" fill="#191728"/>
          <path id="Path_26035" data-name="Path 26035" d="M337.957,259.458l.564,56.292a3.942,3.942,0,0,1-3.066,3.9c-.213.036-.441.065-.686.087a3.506,3.506,0,0,1-3.344-1.383,4.133,4.133,0,0,1-.752-2.273l-.719-24.031-3.588-21.486L321.4,308.594a3.286,3.286,0,0,1-1.364,2.5,3.8,3.8,0,0,1-2.263.614,4.159,4.159,0,0,1-3.009-1.482,3.019,3.019,0,0,1-.719-2.036l1.967-22.88.733-29.184Z" transform="translate(-314.048 -195.727)" fill="#3a55ca"/>
          <path id="Path_26036" data-name="Path 26036" d="M334.726,196.929l-.89,5.129a2.352,2.352,0,0,0,1.921,2.235c1.954.485,2.558-.777,2.558-.777l.884-5.777Z" transform="translate(-318.107 -183.585)" fill="#ffc2b0"/>
          <path id="Path_26037" data-name="Path 26037" d="M344.74,190.676c-1.387,4.394-5.68,6.944-9.589,5.7s-5.952-5.823-4.564-10.217,5.68-6.944,9.588-5.7S346.127,186.282,344.74,190.676Z" transform="translate(-317.351 -180.142)" fill="#ffc2b0"/>
          <path id="Path_26038" data-name="Path 26038" d="M331.535,202.9c-.135-.055-8.291-5.306-11.305.189-4.915,8.96-1.32,19.234-3.074,41.54-.293,3.732,5.023,6.007,7.537,7.443a15.057,15.057,0,0,0,7.316,2.081c2.548.021,7.435-2.246,7.258-5.577-.816-15.323.539-28.238,1.79-40.771C341.056,207.806,339.492,206.122,331.535,202.9Z" transform="translate(-314.683 -184.335)" fill="#bedaff"/>
          <path id="Path_26039" data-name="Path 26039" d="M327.8,274.292l-4.963,38.027a3.286,3.286,0,0,1-1.364,2.5,3.586,3.586,0,0,1-.424.239c1.03-.773,4.039-32.691,4.6-36.242S327.8,274.292,327.8,274.292Z" transform="translate(-315.485 -199.452)" fill="#293677"/>
        </g>
        <path id="Path_26040" data-name="Path 26040" d="M367.9,205.494l6.828-13.553-2.142-1.353-7.077,10.323Z" transform="translate(-318.671 -168.641)" fill="#fcc4b7"/>
        <path id="Path_26041" data-name="Path 26041" d="M311.859,187.337l3.322-15.111,2.645.029-.994,12.532Z" transform="translate(-307.668 -164.875)" fill="#fcc4b7"/>
        <path id="Path_26042" data-name="Path 26042" d="M345.972,208.181s7.637,3.012,14.2-5.265a1.258,1.258,0,0,1,2.107.138c.59,1.357,1.329,3.406.432,5.33-3.966,8.511-17.5,8.215-20.756,12.986S345.972,208.181,345.972,208.181Z" transform="translate(-313.668 -171.067)" fill="#0382ff"/>
        <path id="Path_26043" data-name="Path 26043" d="M325.236,198.161s-6.305.485-7.213-4.973a41.732,41.732,0,0,1-.634-5.455,1.1,1.1,0,0,0-1.236-1.071c-1.51.188-3.848.638-4.165,1.65-.473,1.511-1.364,8.923,4.864,20.295C320.932,216.057,325.236,198.161,325.236,198.161Z" transform="translate(-307.626 -167.834)" fill="#0382ff"/>
        <path id="Path_26044" data-name="Path 26044" d="M316.021,170.368l.06-1.723a3.549,3.549,0,0,1,.515-1.72l1.747-2.87.456-.574a1.327,1.327,0,0,1,1.746-.3l.4.253a1.65,1.65,0,0,1,.768,1.5l-.9,2.452,1.142-.222a.406.406,0,0,1,.476.327h0a.406.406,0,0,1-.247.448l-1.866.753-1.695,2.4Z" transform="translate(-308.522 -162.979)" fill="#fcc4b7"/>
        <path id="Path_26045" data-name="Path 26045" d="M376.072,190.21l.8-1.528a3.548,3.548,0,0,0,.4-1.75l-.1-3.358-.112-.724a1.327,1.327,0,0,0-1.37-1.122l-.474.021a1.649,1.649,0,0,0-1.41.927l-.427,2.578-.883-.757a.406.406,0,0,0-.576.049h0a.4.4,0,0,0-.006.511l1.25,1.577.323,3.285Z" transform="translate(-319.967 -166.824)" fill="#fcc4b7"/>
        <path id="Path_26046" data-name="Path 26046" d="M340.846,224.949c-.664,3.026,3.161,23.272-1.284,31.621,2.223-.9,4.421-2.664,4.3-4.917a208.59,208.59,0,0,1,.75-29.918c3.8-1.926,9.743-3.075,13.945-6.152C354.052,217.244,341.95,221.373,340.846,224.949Z" transform="translate(-313.35 -173.767)" fill="#0382ff"/>
        <path id="Path_26047" data-name="Path 26047" d="M331.559,201.376l1.133-1.163a9.23,9.23,0,0,0,3.359,2.234,17.453,17.453,0,0,0,2.681.554l.729,2.01S333.53,204.586,331.559,201.376Z" transform="translate(-311.708 -170.615)" fill="#fff"/>
        <path id="Path_26048" data-name="Path 26048" d="M339.052,190.374a.959.959,0,0,0,.781-.405c.309-.448.114-2.509,1.068-2.849,1.491-.532,5.029,1.334,5.407-4.046.2-2.8-1.164-3.539-1.158-5.071,0,0,.118.768-7.077.29s-9.534,5.911-9.7,8.954,1.3,8.047,6.22,8.734c.815.114,4.239-2.64,4.151-3s-1.381-.341-1.194-1.392A1.352,1.352,0,0,1,339.052,190.374Z" transform="translate(-311.051 -166.06)" fill="#b25e02"/>
      </g>
      <g id="Group_7752" data-name="Group 7752" transform="translate(322.79 58.24)">
        <g id="Group_7750" data-name="Group 7750">
          <path id="Path_26049" data-name="Path 26049" d="M382.184,103.153,360.444,90.6A4.188,4.188,0,0,1,358.7,87.26V71.095c0-1.288.783-1.88,1.749-1.322l21.74,12.552a4.189,4.189,0,0,1,1.75,3.342v16.165C383.933,103.119,383.15,103.712,382.184,103.153Z" transform="translate(-354.396 -64.754)" fill="#ededed"/>
          <path id="Path_26050" data-name="Path 26050" d="M379.1,76.268l-21.74-12.551a1.112,1.112,0,0,0-1.124-.091l0-.014-2.109,1.218,1.483.541V81.2a4.19,4.19,0,0,0,1.749,3.342l20.779,12V98.4l2.13-1.227-.011,0a1.551,1.551,0,0,0,.591-1.4V79.611A4.19,4.19,0,0,0,379.1,76.268Z" transform="translate(-353.459 -63.514)" fill="#721bd5"/>
          <path id="Path_26051" data-name="Path 26051" d="M376.776,98.653,355.037,86.1a4.187,4.187,0,0,1-1.75-3.342V66.595c0-1.288.783-1.88,1.75-1.322l21.739,12.552a4.187,4.187,0,0,1,1.75,3.342V97.332C378.525,98.619,377.742,99.212,376.776,98.653Z" transform="translate(-353.287 -63.831)" fill="#983be9"/>
          <path id="Path_26052" data-name="Path 26052" d="M376.878,77.825l-21.74-12.551a1.03,1.03,0,0,0-1.354.091,1.306,1.306,0,0,1,.772.2L376.3,78.113a4.188,4.188,0,0,1,1.749,3.342V97.62a1.768,1.768,0,0,1-.4,1.231c.577-.048.978-.6.978-1.518V81.167A4.188,4.188,0,0,0,376.878,77.825Z" transform="translate(-353.389 -63.833)" fill="#fff"/>
        </g>
        <g id="Group_7751" data-name="Group 7751" transform="translate(6.126 13.959)">
          <path id="Path_26053" data-name="Path 26053" d="M363.928,83.816c0,.935-.657,1.314-1.467.847a3.243,3.243,0,0,1-1.467-2.541c0-.936.657-1.315,1.467-.847A3.242,3.242,0,0,1,363.928,83.816Z" transform="translate(-360.994 -81.075)" fill="#fff"/>
          <path id="Path_26054" data-name="Path 26054" d="M369.518,87.043c0,.936-.657,1.315-1.467.847a3.24,3.24,0,0,1-1.467-2.541c0-.935.657-1.314,1.467-.847A3.241,3.241,0,0,1,369.518,87.043Z" transform="translate(-362.14 -81.737)" fill="#fff"/>
          <path id="Path_26055" data-name="Path 26055" d="M375.108,90.27c0,.936-.657,1.315-1.467.847a3.243,3.243,0,0,1-1.467-2.541c0-.936.657-1.315,1.467-.847A3.244,3.244,0,0,1,375.108,90.27Z" transform="translate(-363.287 -82.398)" fill="#fff"/>
        </g>
      </g>
      <g id="Group_7754" data-name="Group 7754" transform="translate(366.052 123.355)">
        <g id="Group_7753" data-name="Group 7753" transform="translate(0)">
          <path id="Path_26056" data-name="Path 26056" d="M436.607,205.283l-21.74-12.552a4.187,4.187,0,0,1-1.749-3.342V153.01c0-1.288.783-1.88,1.749-1.322l21.74,12.552a4.186,4.186,0,0,1,1.75,3.342v36.38C438.356,205.249,437.573,205.841,436.607,205.283Z" transform="translate(-408.819 -146.669)" fill="#ededed"/>
          <path id="Path_26057" data-name="Path 26057" d="M433.518,158.183l-21.74-12.551a1.112,1.112,0,0,0-1.124-.091l0-.014-2.109,1.219,1.483.541v36.047a4.191,4.191,0,0,0,1.749,3.343l20.779,12v1.858l2.131-1.227-.012,0a1.55,1.55,0,0,0,.591-1.394v-36.38A4.191,4.191,0,0,0,433.518,158.183Z" transform="translate(-407.882 -145.429)" fill="#5793ce"/>
          <path id="Path_26058" data-name="Path 26058" d="M431.2,200.783l-21.74-12.552a4.186,4.186,0,0,1-1.75-3.342V148.51c0-1.288.783-1.88,1.75-1.322l21.74,12.552a4.187,4.187,0,0,1,1.749,3.342v36.38C432.948,200.749,432.165,201.341,431.2,200.783Z" transform="translate(-407.71 -145.746)" fill="#d4ecff"/>
          <path id="Path_26059" data-name="Path 26059" d="M431.3,159.74l-21.74-12.551a1.031,1.031,0,0,0-1.355.091,1.307,1.307,0,0,1,.772.2l21.74,12.552a4.189,4.189,0,0,1,1.75,3.342v36.38a1.768,1.768,0,0,1-.4,1.232c.577-.048.978-.6.978-1.519v-36.38A4.19,4.19,0,0,0,431.3,159.74Z" transform="translate(-407.812 -145.748)" fill="#fff"/>
        </g>
      </g>
      <g id="Group_7756" data-name="Group 7756" transform="translate(366.052 172.507)">
        <g id="Group_7755" data-name="Group 7755" transform="translate(0)">
          <path id="Path_26060" data-name="Path 26060" d="M436.607,267.117l-21.74-12.552a4.19,4.19,0,0,1-1.749-3.342v-36.38c0-1.289.783-1.881,1.749-1.323l21.74,12.552a4.187,4.187,0,0,1,1.75,3.342v36.38C438.356,267.083,437.573,267.674,436.607,267.117Z" transform="translate(-408.819 -208.503)" fill="#ededed"/>
          <path id="Path_26061" data-name="Path 26061" d="M433.518,220.017l-21.74-12.552a1.114,1.114,0,0,0-1.124-.091l0-.014-2.109,1.219,1.483.541v36.046a4.19,4.19,0,0,0,1.749,3.343l20.779,12v1.858l2.131-1.227-.012,0a1.55,1.55,0,0,0,.591-1.394v-36.38A4.189,4.189,0,0,0,433.518,220.017Z" transform="translate(-407.882 -207.262)" fill="#7bae28"/>
          <path id="Path_26062" data-name="Path 26062" d="M431.2,262.617l-21.74-12.552a4.188,4.188,0,0,1-1.75-3.342v-36.38c0-1.289.783-1.881,1.75-1.323l21.74,12.552a4.188,4.188,0,0,1,1.749,3.342v36.38C432.948,262.583,432.165,263.174,431.2,262.617Z" transform="translate(-407.71 -207.58)" fill="#98d336"/>
          <path id="Path_26063" data-name="Path 26063" d="M431.3,221.574l-21.74-12.552a1.031,1.031,0,0,0-1.355.091,1.319,1.319,0,0,1,.772.2l21.74,12.552a4.19,4.19,0,0,1,1.75,3.342v36.38a1.767,1.767,0,0,1-.4,1.232c.577-.048.978-.6.978-1.519v-36.38A4.188,4.188,0,0,0,431.3,221.574Z" transform="translate(-407.812 -207.581)" fill="#fff"/>
        </g>
      </g>
      <g id="Group_7759" data-name="Group 7759" transform="translate(244.749 225.013)">
        <g id="Group_7757" data-name="Group 7757">
          <path id="Path_26064" data-name="Path 26064" d="M258.991,298.023,278.1,287.257a3.659,3.659,0,0,1,3.292.171l12.156,7.189c.968.572,1.065,1.425.216,1.9l-19.106,10.766a3.658,3.658,0,0,1-3.291-.171l-12.157-7.188C258.239,299.354,258.142,298.5,258.991,298.023Z" transform="translate(-255.788 -276.109)" fill="#d4ecff"/>
          <path id="Path_26065" data-name="Path 26065" d="M273.7,299.718l21.87-12.323a1.114,1.114,0,0,0,.65-.921l.011.009.025-2.436s-.768.63-1.22,1l-13.627-8.059a4.188,4.188,0,0,0-3.767-.2l-20.9,11.779-1.6-.946-.029,2.458.01-.007a1.549,1.549,0,0,0,.9,1.218l13.914,8.229A4.188,4.188,0,0,0,273.7,299.718Z" transform="translate(-255.111 -273.954)" fill="#a7bcce"/>
          <path id="Path_26066" data-name="Path 26066" d="M255.806,286l21.87-12.323a4.188,4.188,0,0,1,3.767.2l13.914,8.228c1.108.656,1.219,1.631.247,2.179L273.735,296.6a4.188,4.188,0,0,1-3.767-.2l-13.914-8.229C254.945,287.521,254.835,286.545,255.806,286Z" transform="translate(-255.118 -273.314)" fill="#fff"/>
          <path id="Path_26067" data-name="Path 26067" d="M273.738,299.116l21.87-12.324a1.03,1.03,0,0,0,.611-1.211,1.313,1.313,0,0,1-.562.564l-21.87,12.324a4.189,4.189,0,0,1-3.766-.2l-13.914-8.229a1.769,1.769,0,0,1-.859-.967c-.253.521.021,1.148.81,1.614l13.914,8.228A4.188,4.188,0,0,0,273.738,299.116Z" transform="translate(-255.12 -275.83)" fill="#fff"/>
        </g>
        <g id="Group_7758" data-name="Group 7758" transform="translate(14.093 7.459)">
          <path id="Path_26068" data-name="Path 26068" d="M284.685,284.727a.894.894,0,0,1,.018-1.693,3.243,3.243,0,0,1,2.934.03.894.894,0,0,1-.018,1.694A3.241,3.241,0,0,1,284.685,284.727Z" transform="translate(-275.146 -282.697)" fill="#98d336"/>
          <path id="Path_26069" data-name="Path 26069" d="M279.062,287.9a.894.894,0,0,1,.018-1.693,3.241,3.241,0,0,1,2.933.03.894.894,0,0,1-.017,1.694A3.245,3.245,0,0,1,279.062,287.9Z" transform="translate(-273.993 -283.347)" fill="#98d336"/>
          <path id="Path_26070" data-name="Path 26070" d="M273.439,291.064a.894.894,0,0,1,.017-1.694,3.243,3.243,0,0,1,2.933.031.894.894,0,0,1-.017,1.693A3.241,3.241,0,0,1,273.439,291.064Z" transform="translate(-272.84 -283.997)" fill="#98d336"/>
        </g>
      </g>
      <g id="Group_7764" data-name="Group 7764" transform="translate(204.587 104.468)">
        <ellipse id="Ellipse_449" data-name="Ellipse 449" cx="15.289" cy="8.827" rx="15.289" ry="8.827" transform="translate(9.821 107.676)" fill="#d4ecff"/>
        <g id="Group_7763" data-name="Group 7763" transform="translate(0 0)">
          <path id="Path_26071" data-name="Path 26071" d="M225.3,133.989s.393,8.1,1.01,13.55,13.733-4.183,13.733-4.183v-6.2Z" transform="translate(-208.836 -124.196)" fill="#2d0d60"/>
          <g id="Group_7761" data-name="Group 7761" transform="translate(6.909 2.836)">
            <path id="Path_26072" data-name="Path 26072" d="M234.058,259.978c.2.492,3.6,4.63,6.994,5.664a7.82,7.82,0,0,0,3.122.432,1.029,1.029,0,0,0,.837-1.371,12.911,12.911,0,0,0-6.521-7.187C232.728,254.659,234.058,259.978,234.058,259.978Z" transform="translate(-217.513 -152.193)" fill="#191728"/>
            <path id="Path_26073" data-name="Path 26073" d="M231.44,262.83a28.109,28.109,0,0,1,1.674,5.517c.241,1.532-.6,3.522-1.293,4.842a1.415,1.415,0,0,1-2.2.382,8.179,8.179,0,0,1-2.758-5.273c-.393-4.236,0-4.975,0-4.975Z" transform="translate(-216.028 -153.456)" fill="#191728"/>
            <path id="Path_26074" data-name="Path 26074" d="M222.317,197.349a80.517,80.517,0,0,0,0,11.254c.443,5.91,2.03,33.552,2.325,40.2,0,0-.148,2.014,3.75,1.57s3.583-2.678,3.583-2.678,5.473-.074,5.645-3.3,5.606-38.525,5.606-51.215Z" transform="translate(-215.092 -139.171)" fill="#6f33c6"/>
            <g id="Group_7760" data-name="Group 7760">
              <path id="Path_26075" data-name="Path 26075" d="M250.614,163.67l2.682,4.153,9.217,11.134a2.067,2.067,0,0,1-1.464,1.3c-.9.211-8.649-7.185-12-10.431a2.57,2.57,0,0,1-.353-3.267Z" transform="translate(-220.455 -133.119)" fill="#ffc2b0"/>
              <path id="Path_26076" data-name="Path 26076" d="M244.638,142.224s4.26-.11,5.742,6.046,2.643,13.864,1.353,14.5c-3.871,1.923-6.321-.327-6.321-.327Z" transform="translate(-219.71 -128.721)" fill="#7278ff"/>
              <path id="Path_26077" data-name="Path 26077" d="M240.453,142.485a3.483,3.483,0,0,0-2.3-.126c-3.629,1.042-17.274,5.047-19.523,6.969-2.6,2.221,3.9,14.7,3.8,18.792s-.555,8.916-.916,13.363-.851,6.887,2.787,8.778a14.306,14.306,0,0,0,14.5-1.565c4.649-3.543,3.806-5.967,3.612-8.539s-1.777-13.7-1.639-16.855a11.938,11.938,0,0,0,2.851-3.277c1.214-2.07-.929-5.874-1.82-8.348s.5-5.3.227-7.32A2.29,2.29,0,0,0,240.453,142.485Z" transform="translate(-214.25 -128.72)" fill="#b6b9fe"/>
              <path id="Path_26078" data-name="Path 26078" d="M238.1,147.011c.288,2.248-1.773,4.364-4.6,4.727s-5.36-1.165-5.648-3.413,1.774-4.363,4.6-4.726S237.814,144.764,238.1,147.011Z" transform="translate(-216.261 -128.992)" fill="#fff"/>
              <path id="Path_26080" data-name="Path 26080" d="M235.4,141.173s-2.463-2.026-2.947-1a31.549,31.549,0,0,0-.882,5.429l4.892,1.314-.742-4.461S236.695,141.625,235.4,141.173Z" transform="translate(-217.029 -128.241)" fill="#dd936f"/>
              <circle id="Ellipse_450" data-name="Ellipse 450" cx="7.304" cy="7.304" r="7.304" transform="matrix(0.052, -0.999, 0.999, 0.052, 11.045, 14.587)" fill="#ffc2b0"/>
              <path id="Path_26900" data-name="Path 26900" d="M7.3,0A7.3,7.3,0,1,1,0,7.3,7.3,7.3,0,0,1,7.3,0Z" transform="matrix(0.052, -0.999, 0.999, 0.052, 11.045, 14.587)" fill="#f9ab83"/>
              <path id="Path_26082" data-name="Path 26082" d="M214.192,173.786l.818,19.545,2.857.295,1.86-17.594Z" transform="translate(-213.466 -135.194)" fill="#ffc2b0"/>
              <path id="Path_26083" data-name="Path 26083" d="M225.073,168.275c-.154-.68-1.405-1.24-1.6-2.127a79.864,79.864,0,0,1-1.217-11.266l-.8,9.171c.921,2.719,1.712,5.216,1.679,6.663-.055,2.4-.237,5.056-.451,7.738v.008S226.018,172.45,225.073,168.275Z" transform="translate(-214.957 -131.317)" fill="#7278ff"/>
              <path id="Path_26084" data-name="Path 26084" d="M218.2,150.657s-2.285.873-3.578,7.891-2.261,14.048.045,14.954,4.231,1.587,4.909-.29,1.1-10.921,1.183-14.174S220.974,151.3,218.2,150.657Z" transform="translate(-213.279 -130.45)" fill="#7278ff"/>
              <path id="Path_26085" data-name="Path 26085" d="M264.468,181.825a6.133,6.133,0,0,1,2.132,1.429,13.885,13.885,0,0,1,1.456,1.955c.711,1.061,1.312,3.356.878,3.642s-2.917-3.843-3.316-2.882,0,1.848-.51,1.862-2.3-4.149-3.7-5.44S264.468,181.825,264.468,181.825Z" transform="translate(-223.094 -136.801)" fill="#ffc2b0"/>
            </g>
            <path id="Path_26086" data-name="Path 26086" d="M234.518,250.633a11.149,11.149,0,0,0,1.564-.162h0l1.072-42.966Z" transform="translate(-217.635 -142.109)" fill="#490d8f"/>
          </g>
          <g id="Group_7762" data-name="Group 7762" transform="translate(0 60.269)">
            <path id="Path_26087" data-name="Path 26087" d="M224.325,225.369l-1.52-1.985-15.989-9.257a2.223,2.223,0,0,1-.927-1.776l.014-13.09-.92-1.2.864-.5h0a.585.585,0,0,1,.627.037L224.6,208.09a2.226,2.226,0,0,1,.927,1.776l-.015,14.256a.809.809,0,0,1-.339.76h0Z" transform="translate(-204.668 -197.488)" fill="#983be9"/>
            <path id="Path_26088" data-name="Path 26088" d="M213.269,217.864l-1.136-.658L205.9,206.375l.006-7.113-.92-1.2.864-.5h0a.585.585,0,0,1,.627.037L224.6,208.09a1.881,1.881,0,0,1,.684.8Z" transform="translate(-204.668 -197.488)" fill="#d29fff"/>
            <path id="Path_26089" data-name="Path 26089" d="M205.393,198.595l-.409-.533.864-.5h0a.585.585,0,0,1,.627.037l.32.184Z" transform="translate(-204.668 -197.488)" fill="#d29fff"/>
            <path id="Path_26090" data-name="Path 26090" d="M229.382,210.971a2.323,2.323,0,0,1,.758,1.526l-1.771,1.022-.848-1.474Z" transform="translate(-209.29 -200.253)" fill="#983be9"/>
            <path id="Path_26091" data-name="Path 26091" d="M223.651,208.718l-18.12-10.49c-.513-.3-.928.017-.929.7l-.015,14.256a2.223,2.223,0,0,0,.926,1.776l18.12,10.49c.513.3.928-.017.929-.7l.015-14.256A2.224,2.224,0,0,0,223.651,208.718Z" transform="translate(-204.587 -197.617)" fill="#b45ef4"/>
          </g>
          <path id="Path_26092" data-name="Path 26092" d="M223.664,222.275l-.863-.5v-7.414l.863.5Z" transform="translate(-208.323 -140.679)" fill="#fff"/>
          <path id="Path_26093" data-name="Path 26093" d="M221.128,220.811l-.863-.5V212.9l.863.5Z" transform="translate(-207.802 -140.379)" fill="#fff"/>
          <path id="Path_26094" data-name="Path 26094" d="M218.592,219.346l-.863-.5v-7.414l.863.5Z" transform="translate(-207.282 -140.079)" fill="#fff"/>
          <path id="Path_26095" data-name="Path 26095" d="M215.08,197.556a44.272,44.272,0,0,0-.641,6.023c.114,1.462.9,3.872,1.489,3.82s.02-5.875,1.062-5.3,1.152,1.576,1.624,1.224-.823-5.33-.478-7.489S215.08,197.556,215.08,197.556Z" transform="translate(-206.605 -136.746)" fill="#ffc2b0"/>
          <path id="Path_26097" data-name="Path 26097" d="M242.018,125.336c-.863-.74-3.979-4.4-9.561-3.536-3.489.539-6.429,2.919-7.081,8.348a12.479,12.479,0,0,0,3.376,9.924,3.047,3.047,0,0,0,.4-.2c1.4-.92,1.548-1.425,1.548-1.43l.308-2.77a.773.773,0,0,0-.7-.768,1.392,1.392,0,0,1-1.022-.623,1.629,1.629,0,0,1,1.172-2.745,1.23,1.23,0,0,0,1.281-.911.655.655,0,0,1,.855-.445c1.824.66,6.319,2.083,9.212,1.263C245.508,130.393,242.881,126.076,242.018,125.336Z" transform="translate(-208.834 -121.669)" fill="#2d0d60"/>
          <path id="Path_26099" data-name="Path 26099" d="M219.536,204.97l-1.9-1.09.715,1.167.962.355Z" transform="translate(-207.263 -138.53)" fill="#d29fff"/>
        </g>
      </g>
      <g id="Group_7767" data-name="Group 7767" transform="translate(240.248 148.236)">
        <g id="Group_7765" data-name="Group 7765">
          <path id="Path_26100" data-name="Path 26100" d="M268.08,203.156,289.9,190.74a1.113,1.113,0,0,0,.645-.924l.011.009.014-2.436-1.216,1.006-13.661-8a4.189,4.189,0,0,0-3.768-.18L251.07,192.081l-1.6-.939-.018,2.459.01-.008a1.551,1.551,0,0,0,.9,1.215l13.949,8.169A4.189,4.189,0,0,0,268.08,203.156Z" transform="translate(-249.449 -177.369)" fill="#a7bcce"/>
          <path id="Path_26101" data-name="Path 26101" d="M250.127,189.512,271.944,177.1a4.189,4.189,0,0,1,3.768.18l13.949,8.169c1.111.651,1.227,1.626.257,2.178L268.1,200.038a4.191,4.191,0,0,1-3.768-.179l-13.949-8.169C249.273,191.039,249.157,190.064,250.127,189.512Z" transform="translate(-249.453 -176.729)" fill="#fff"/>
          <path id="Path_26102" data-name="Path 26102" d="M268.1,202.535l21.817-12.416a1.031,1.031,0,0,0,.607-1.215,1.319,1.319,0,0,1-.56.567L268.15,201.888a4.189,4.189,0,0,1-3.768-.18l-13.949-8.169a1.769,1.769,0,0,1-.863-.963c-.25.522.025,1.148.816,1.611l13.949,8.168A4.187,4.187,0,0,0,268.1,202.535Z" transform="translate(-249.455 -179.226)" fill="#fff"/>
        </g>
        <g id="Group_7766" data-name="Group 7766" transform="translate(14.082 7.455)">
          <path id="Path_26103" data-name="Path 26103" d="M278.987,188.143a.894.894,0,0,1,.01-1.694,3.242,3.242,0,0,1,2.934.018.894.894,0,0,1-.01,1.693A3.243,3.243,0,0,1,278.987,188.143Z" transform="translate(-269.466 -186.107)" fill="#fff"/>
          <path id="Path_26104" data-name="Path 26104" d="M273.377,191.335a.894.894,0,0,1,.01-1.693,3.242,3.242,0,0,1,2.934.018.894.894,0,0,1-.01,1.693A3.242,3.242,0,0,1,273.377,191.335Z" transform="translate(-268.315 -186.762)" fill="#fff"/>
          <path id="Path_26105" data-name="Path 26105" d="M267.767,194.528a.894.894,0,0,1,.01-1.693,3.245,3.245,0,0,1,2.934.018.894.894,0,0,1-.01,1.694A3.242,3.242,0,0,1,267.767,194.528Z" transform="translate(-267.165 -187.417)" fill="#fff"/>
        </g>
      </g>
      <g id="Group_7768" data-name="Group 7768" transform="translate(372.673 185.504)">
        <path id="Path_26106" data-name="Path 26106" d="M425.938,229.538c0,2.022-1.42,2.843-3.172,1.831a7.01,7.01,0,0,1-3.172-5.493c0-2.022,1.421-2.842,3.172-1.831A7.009,7.009,0,0,1,425.938,229.538Z" transform="translate(-416.769 -223.612)" fill="#d3008d"/>
        <path id="Path_26107" data-name="Path 26107" d="M426.531,236.789c0-.031-.009-.063-.014-.094-.135-.852-.942-1.6-1.474-1.41a3.627,3.627,0,0,1-3.006-.509,9.4,9.4,0,0,1-3.006-2.963c-.532-.8-1.339-.986-1.474-.291,0,.025-.01.052-.014.078l-1.5,9.552,12,6.926Z" transform="translate(-416.04 -225.146)" fill="#d3008d"/>
      </g>
      <g id="Group_7769" data-name="Group 7769" transform="translate(372.673 185.504)">
        <path id="Path_26108" data-name="Path 26108" d="M425.938,229.538c0,2.022-1.42,2.843-3.172,1.831a7.01,7.01,0,0,1-3.172-5.493c0-2.022,1.421-2.842,3.172-1.831A7.009,7.009,0,0,1,425.938,229.538Z" transform="translate(-416.769 -223.612)" fill="#fff"/>
        <path id="Path_26109" data-name="Path 26109" d="M426.531,236.789c0-.031-.009-.063-.014-.094-.135-.852-.942-1.6-1.474-1.41a3.627,3.627,0,0,1-3.006-.509,9.4,9.4,0,0,1-3.006-2.963c-.532-.8-1.339-.986-1.474-.291,0,.025-.01.052-.014.078l-1.5,9.552,12,6.926Z" transform="translate(-416.04 -225.146)" fill="#fff"/>
      </g>
      <g id="Group_7770" data-name="Group 7770" transform="translate(370.954 206.247)">
        <path id="Path_26110" data-name="Path 26110" d="M428.442,259.166l-14.564-8.409v-1.05l14.564,8.409Z" transform="translate(-413.878 -249.707)" fill="#fff"/>
        <path id="Path_26111" data-name="Path 26111" d="M424.044,262.4l-10.166-5.87v-1.05l10.166,5.87Z" transform="translate(-413.878 -250.891)" fill="#fff"/>
        <path id="Path_26112" data-name="Path 26112" d="M422.673,258.72l-8.8-5.078v-1.05l8.8,5.078Z" transform="translate(-413.878 -250.299)" fill="#fff"/>
        <path id="Path_26113" data-name="Path 26113" d="M431.065,263.565l-4.4-2.539v-1.05l4.4,2.539Z" transform="translate(-416.5 -251.814)" fill="#fff"/>
      </g>
      <g id="Group_7771" data-name="Group 7771" transform="translate(370.988 136.105)">
        <path id="Path_26114" data-name="Path 26114" d="M428.484,170.927l-14.564-8.409v-1.05l14.564,8.409Z" transform="translate(-413.92 -161.468)" fill="#5793ce"/>
        <path id="Path_26115" data-name="Path 26115" d="M424.086,174.157l-10.166-5.87v-1.05l10.166,5.87Z" transform="translate(-413.92 -162.652)" fill="#5793ce"/>
        <path id="Path_26116" data-name="Path 26116" d="M422.715,170.481l-8.8-5.078v-1.05l8.8,5.078Z" transform="translate(-413.92 -162.06)" fill="#5793ce"/>
        <path id="Path_26117" data-name="Path 26117" d="M431.107,175.326l-4.4-2.539v-1.05l4.4,2.539Z" transform="translate(-416.543 -163.574)" fill="#5793ce"/>
      </g>
      <g id="Group_7772" data-name="Group 7772" transform="translate(370.988 144.963)">
        <path id="Path_26118" data-name="Path 26118" d="M428.484,182.07l-14.564-8.409v-1.05l14.564,8.409Z" transform="translate(-413.92 -172.611)" fill="#5793ce"/>
        <path id="Path_26119" data-name="Path 26119" d="M424.086,185.3l-10.166-5.87v-1.05l10.166,5.87Z" transform="translate(-413.92 -173.795)" fill="#5793ce"/>
        <path id="Path_26120" data-name="Path 26120" d="M422.715,181.624l-8.8-5.078V175.5l8.8,5.078Z" transform="translate(-413.92 -173.203)" fill="#5793ce"/>
        <path id="Path_26121" data-name="Path 26121" d="M431.107,186.469l-4.4-2.539v-1.05l4.4,2.539Z" transform="translate(-416.543 -174.717)" fill="#5793ce"/>
      </g>
      <g id="Group_7773" data-name="Group 7773" transform="translate(370.988 153.821)">
        <path id="Path_26122" data-name="Path 26122" d="M428.484,193.213,413.92,184.8v-1.05l14.564,8.409Z" transform="translate(-413.92 -183.754)" fill="#5793ce"/>
        <path id="Path_26123" data-name="Path 26123" d="M424.086,196.443l-10.166-5.87v-1.05l10.166,5.87Z" transform="translate(-413.92 -184.938)" fill="#5793ce"/>
        <path id="Path_26124" data-name="Path 26124" d="M422.715,192.767l-8.8-5.078v-1.05l8.8,5.078Z" transform="translate(-413.92 -184.346)" fill="#5793ce"/>
        <path id="Path_26125" data-name="Path 26125" d="M431.107,197.612l-4.4-2.539v-1.05l4.4,2.539Z" transform="translate(-416.543 -185.86)" fill="#5793ce"/>
      </g>
      <g id="Group_7774" data-name="Group 7774" transform="translate(329.246 181.156)">
        <path id="Path_26126" data-name="Path 26126" d="M371.824,225.111l-10.389-6v-.97l10.389,6Z" transform="translate(-361.414 -218.143)" fill="#fff"/>
        <path id="Path_26127" data-name="Path 26127" d="M381.461,230.674l-4.437-2.562v-.97l4.437,2.562Z" transform="translate(-364.611 -219.989)" fill="#fff"/>
        <path id="Path_26128" data-name="Path 26128" d="M373.811,228.914l-4.437-2.562v-.97l4.437,2.562Z" transform="translate(-363.042 -219.628)" fill="#fff"/>
        <path id="Path_26129" data-name="Path 26129" d="M384.989,235.367l-7.965-4.6v-.97l7.965,4.6Z" transform="translate(-364.611 -220.534)" fill="#fff"/>
        <path id="Path_26130" data-name="Path 26130" d="M390.862,241.415l-11.78-6.8v-.97l11.78,6.8Z" transform="translate(-365.033 -221.322)" fill="#fff"/>
        <path id="Path_26131" data-name="Path 26131" d="M389.444,235.284l-4.437-2.562v-.97l4.437,2.562Z" transform="translate(-366.248 -220.934)" fill="#fff"/>
        <path id="Path_26132" data-name="Path 26132" d="M365.872,224.331l-4.437-2.562v-.97l4.437,2.562Z" transform="translate(-361.414 -218.688)" fill="#fff"/>
        <path id="Path_26133" data-name="Path 26133" d="M373.555,231.423l-12.147-7.013v-.97l12.147,7.013Z" transform="translate(-361.408 -219.229)" fill="#fff"/>
        <path id="Path_26134" data-name="Path 26134" d="M368.915,231.4l-7.328-4.231v-.97l7.328,4.231Z" transform="translate(-361.445 -219.795)" fill="#fff"/>
      </g>
      <path id="Path_26135" data-name="Path 26135" d="M506.221,290.06a.795.795,0,0,1-.405-1.479L536.6,270.386a.562.562,0,0,0,0-.965l-8.4-5.041a.795.795,0,1,1,.818-1.363l8.4,5.041a2.152,2.152,0,0,1-.014,3.7l-30.788,18.194A.8.8,0,0,1,506.221,290.06Z" transform="translate(-61.699 -46.166)" fill="#98d336"/>
      <g id="Group_7775" data-name="Group 7775" transform="translate(427.086 236.583)">
        <path id="Path_26136" data-name="Path 26136" d="M508.484,313.009l-10.687-6.17-10.687,6.17,10.687,6.17Z" transform="translate(-485.029 -291.76)" fill="#d4ecff"/>
        <path id="Path_26137" data-name="Path 26137" d="M500.554,311.467v-6.952l12.768-7.372V304.1Z" transform="translate(-487.786 -289.772)" fill="#bbcee1"/>
        <path id="Path_26138" data-name="Path 26138" d="M497.26,304.515l-12.768-7.372V304.1l12.768,7.372Z" transform="translate(-484.492 -289.772)" fill="#a7bcce"/>
        <path id="Path_26139" data-name="Path 26139" d="M510.028,295.241,497.26,287.87l-12.768,7.372,12.768,7.372Z" transform="translate(-484.492 -287.87)" fill="#fff"/>
      </g>
      <path id="Path_26140" data-name="Path 26140" d="M368.955,110.819l2.152,7.057,5.508,3.79-4.178,1.7,1.252,7-4.734-6.094-4.734.628,1.252-5.559-4.178-6.527,5.508,2.569Z" transform="translate(-32.139 -14.976)" fill="#b45ef4"/>
      <path id="Path_26141" data-name="Path 26141" d="M391.039,123.46l2.152,7.057,5.508,3.79-4.178,1.7,1.252,7-4.734-6.094-4.734.628,1.252-5.559-4.178-6.527,5.508,2.569Z" transform="translate(-36.669 -17.568)" fill="#b45ef4"/>
      <path id="Path_26142" data-name="Path 26142" d="M356.423,109.025l-5.508-3.79-2.152-7.057-.325.69v12.815l.325-.043,4.734,6.094-1.252-7Z" transform="translate(-29.502 -12.383)" fill="#b45ef4"/>
      <g id="Group_7786" data-name="Group 7786" transform="translate(270.227 61.06)">
        <g id="Group_7779" data-name="Group 7779" transform="translate(17.555 10.049)">
          <g id="Group_7778" data-name="Group 7778">
            <path id="Path_26151" data-name="Path 26151" d="M320.139,79.7l2.152,7.057,5.508,3.79-4.178,1.7,1.252,7-4.734-6.094-4.734.628,1.252-5.558-4.178-6.527,5.508,2.569Z" transform="translate(-309.909 -79.702)" fill="#e8a200"/>
            <path id="Path_26152" data-name="Path 26152" d="M309.246,83.7l2.571-1.476,3.969,1.852s-.014,2.669,0,2.733a14.048,14.048,0,0,1-1.747.142C313.928,86.949,309.246,83.7,309.246,83.7Z" transform="translate(-309.246 -80.219)" fill="#e8ebf5"/>
            <path id="Path_26153" data-name="Path 26153" d="M327.084,102.537l-2.57,1.475-1.252-7s1.246-1.315,1.24-1.315l1.4.238Z" transform="translate(-312.121 -82.982)" fill="#bbcee1"/>
            <path id="Path_26154" data-name="Path 26154" d="M316.906,81.558l2.152,7.057,5.508,3.79-4.178,1.7,1.252,7-4.734-6.094-4.734.628,1.252-5.558-4.178-6.527,5.508,2.569Z" transform="translate(-309.246 -80.083)" fill="#fff"/>
            <path id="Path_26155" data-name="Path 26155" d="M321.639,101.114l-1.252-7,4.177-1.7-5.507-3.791-2.152-7.057-2.152,4.573-5.508-2.57.384.6,5.308,2.475,1.893-4.022,1.9,6.239,5.037,3.466-3.811,1.553,1.18,6.594Z" transform="translate(-309.246 -80.083)" fill="#fff"/>
            <path id="Path_26156" data-name="Path 26156" d="M318.882,81.178l2.57-1.475,2.152,7.057-2.57,1.475Z" transform="translate(-311.222 -79.702)" fill="#a7bcce"/>
            <path id="Path_26157" data-name="Path 26157" d="M329.667,92.371l-2.57,1.475-5.508-3.79,2.57-1.475Z" transform="translate(-311.777 -81.523)" fill="#e8ebf5"/>
          </g>
          <path id="Path_26158" data-name="Path 26158" d="M321.649,90.184l-.392-.226,2.776-1.615.057.189.183.126Z" transform="translate(-311.709 -81.474)" fill="#fff"/>
        </g>
        <g id="Group_8125" data-name="Group 8125" transform="translate(35.555 20.049)">
          <g id="Group_7778-2" data-name="Group 7778">
            <path id="Path_26151-2" data-name="Path 26151" d="M320.139,79.7l2.152,7.057,5.508,3.79-4.178,1.7,1.252,7-4.734-6.094-4.734.628,1.252-5.558-4.178-6.527,5.508,2.569Z" transform="translate(-309.909 -79.702)" fill="#e8a200"/>
            <path id="Path_26152-2" data-name="Path 26152" d="M309.246,83.7l2.571-1.476,3.969,1.852s-.014,2.669,0,2.733a14.048,14.048,0,0,1-1.747.142C313.928,86.949,309.246,83.7,309.246,83.7Z" transform="translate(-309.246 -80.219)" fill="#e8ebf5"/>
            <path id="Path_26153-2" data-name="Path 26153" d="M327.084,102.537l-2.57,1.475-1.252-7s1.246-1.315,1.24-1.315l1.4.238Z" transform="translate(-312.121 -82.982)" fill="#bbcee1"/>
            <path id="Path_26154-2" data-name="Path 26154" d="M316.906,81.558l2.152,7.057,5.508,3.79-4.178,1.7,1.252,7-4.734-6.094-4.734.628,1.252-5.558-4.178-6.527,5.508,2.569Z" transform="translate(-309.246 -80.083)" fill="#fff"/>
            <path id="Path_26155-2" data-name="Path 26155" d="M321.639,101.114l-1.252-7,4.177-1.7-5.507-3.791-2.152-7.057-2.152,4.573-5.508-2.57.384.6,5.308,2.475,1.893-4.022,1.9,6.239,5.037,3.466-3.811,1.553,1.18,6.594Z" transform="translate(-309.246 -80.083)" fill="#fff"/>
            <path id="Path_26156-2" data-name="Path 26156" d="M318.882,81.178l2.57-1.475,2.152,7.057-2.57,1.475Z" transform="translate(-311.222 -79.702)" fill="#a7bcce"/>
            <path id="Path_26157-2" data-name="Path 26157" d="M329.667,92.371l-2.57,1.475-5.508-3.79,2.57-1.475Z" transform="translate(-311.777 -81.523)" fill="#e8ebf5"/>
          </g>
          <path id="Path_26158-2" data-name="Path 26158" d="M321.649,90.184l-.392-.226,2.776-1.615.057.189.183.126Z" transform="translate(-311.709 -81.474)" fill="#fff"/>
        </g>
        <g id="Group_8126" data-name="Group 8126" transform="translate(52.555 30.049)">
          <g id="Group_7778-3" data-name="Group 7778">
            <path id="Path_26151-3" data-name="Path 26151" d="M320.139,79.7l2.152,7.057,5.508,3.79-4.178,1.7,1.252,7-4.734-6.094-4.734.628,1.252-5.558-4.178-6.527,5.508,2.569Z" transform="translate(-309.909 -79.702)" fill="#e8a200"/>
            <path id="Path_26152-3" data-name="Path 26152" d="M309.246,83.7l2.571-1.476,3.969,1.852s-.014,2.669,0,2.733a14.048,14.048,0,0,1-1.747.142C313.928,86.949,309.246,83.7,309.246,83.7Z" transform="translate(-309.246 -80.219)" fill="#e8ebf5"/>
            <path id="Path_26153-3" data-name="Path 26153" d="M327.084,102.537l-2.57,1.475-1.252-7s1.246-1.315,1.24-1.315l1.4.238Z" transform="translate(-312.121 -82.982)" fill="#bbcee1"/>
            <path id="Path_26154-3" data-name="Path 26154" d="M316.906,81.558l2.152,7.057,5.508,3.79-4.178,1.7,1.252,7-4.734-6.094-4.734.628,1.252-5.558-4.178-6.527,5.508,2.569Z" transform="translate(-309.246 -80.083)" fill="#fff"/>
            <path id="Path_26155-3" data-name="Path 26155" d="M321.639,101.114l-1.252-7,4.177-1.7-5.507-3.791-2.152-7.057-2.152,4.573-5.508-2.57.384.6,5.308,2.475,1.893-4.022,1.9,6.239,5.037,3.466-3.811,1.553,1.18,6.594Z" transform="translate(-309.246 -80.083)" fill="#fff"/>
            <path id="Path_26156-3" data-name="Path 26156" d="M318.882,81.178l2.57-1.475,2.152,7.057-2.57,1.475Z" transform="translate(-311.222 -79.702)" fill="#a7bcce"/>
            <path id="Path_26157-3" data-name="Path 26157" d="M329.667,92.371l-2.57,1.475-5.508-3.79,2.57-1.475Z" transform="translate(-311.777 -81.523)" fill="#e8ebf5"/>
          </g>
          <path id="Path_26158-3" data-name="Path 26158" d="M321.649,90.184l-.392-.226,2.776-1.615.057.189.183.126Z" transform="translate(-311.709 -81.474)" fill="#fff"/>
        </g>
        <g id="Group_8127" data-name="Group 8127" transform="translate(70.555 40.049)">
          <g id="Group_7778-4" data-name="Group 7778">
            <path id="Path_26151-4" data-name="Path 26151" d="M320.139,79.7l2.152,7.057,5.508,3.79-4.178,1.7,1.252,7-4.734-6.094-4.734.628,1.252-5.558-4.178-6.527,5.508,2.569Z" transform="translate(-309.909 -79.702)" fill="#e8a200"/>
            <path id="Path_26152-4" data-name="Path 26152" d="M309.246,83.7l2.571-1.476,3.969,1.852s-.014,2.669,0,2.733a14.048,14.048,0,0,1-1.747.142C313.928,86.949,309.246,83.7,309.246,83.7Z" transform="translate(-309.246 -80.219)" fill="#e8ebf5"/>
            <path id="Path_26153-4" data-name="Path 26153" d="M327.084,102.537l-2.57,1.475-1.252-7s1.246-1.315,1.24-1.315l1.4.238Z" transform="translate(-312.121 -82.982)" fill="#bbcee1"/>
            <path id="Path_26154-4" data-name="Path 26154" d="M316.906,81.558l2.152,7.057,5.508,3.79-4.178,1.7,1.252,7-4.734-6.094-4.734.628,1.252-5.558-4.178-6.527,5.508,2.569Z" transform="translate(-309.246 -80.083)" fill="#fff"/>
            <path id="Path_26155-4" data-name="Path 26155" d="M321.639,101.114l-1.252-7,4.177-1.7-5.507-3.791-2.152-7.057-2.152,4.573-5.508-2.57.384.6,5.308,2.475,1.893-4.022,1.9,6.239,5.037,3.466-3.811,1.553,1.18,6.594Z" transform="translate(-309.246 -80.083)" fill="#fff"/>
            <path id="Path_26156-4" data-name="Path 26156" d="M318.882,81.178l2.57-1.475,2.152,7.057-2.57,1.475Z" transform="translate(-311.222 -79.702)" fill="#a7bcce"/>
            <path id="Path_26157-4" data-name="Path 26157" d="M329.667,92.371l-2.57,1.475-5.508-3.79,2.57-1.475Z" transform="translate(-311.777 -81.523)" fill="#e8ebf5"/>
          </g>
          <path id="Path_26158-4" data-name="Path 26158" d="M321.649,90.184l-.392-.226,2.776-1.615.057.189.183.126Z" transform="translate(-311.709 -81.474)" fill="#fff"/>
        </g>
        <g id="Group_8124" data-name="Group 8124" transform="translate(-0.445 0.049)">
          <g id="Group_7778-5" data-name="Group 7778">
            <path id="Path_26151-5" data-name="Path 26151" d="M320.139,79.7l2.152,7.057,5.508,3.79-4.178,1.7,1.252,7-4.734-6.094-4.734.628,1.252-5.558-4.178-6.527,5.508,2.569Z" transform="translate(-309.909 -79.702)" fill="#e8a200"/>
            <path id="Path_26152-5" data-name="Path 26152" d="M309.246,83.7l2.571-1.476,3.969,1.852s-.014,2.669,0,2.733a14.048,14.048,0,0,1-1.747.142C313.928,86.949,309.246,83.7,309.246,83.7Z" transform="translate(-309.246 -80.219)" fill="#e8ebf5"/>
            <path id="Path_26153-5" data-name="Path 26153" d="M327.084,102.537l-2.57,1.475-1.252-7s1.246-1.315,1.24-1.315l1.4.238Z" transform="translate(-312.121 -82.982)" fill="#bbcee1"/>
            <path id="Path_26154-5" data-name="Path 26154" d="M316.906,81.558l2.152,7.057,5.508,3.79-4.178,1.7,1.252,7-4.734-6.094-4.734.628,1.252-5.558-4.178-6.527,5.508,2.569Z" transform="translate(-309.246 -80.083)" fill="#fff"/>
            <path id="Path_26155-5" data-name="Path 26155" d="M321.639,101.114l-1.252-7,4.177-1.7-5.507-3.791-2.152-7.057-2.152,4.573-5.508-2.57.384.6,5.308,2.475,1.893-4.022,1.9,6.239,5.037,3.466-3.811,1.553,1.18,6.594Z" transform="translate(-309.246 -80.083)" fill="#fff"/>
            <path id="Path_26156-5" data-name="Path 26156" d="M318.882,81.178l2.57-1.475,2.152,7.057-2.57,1.475Z" transform="translate(-311.222 -79.702)" fill="#a7bcce"/>
            <path id="Path_26157-5" data-name="Path 26157" d="M329.667,92.371l-2.57,1.475-5.508-3.79,2.57-1.475Z" transform="translate(-311.777 -81.523)" fill="#e8ebf5"/>
          </g>
          <path id="Path_26158-5" data-name="Path 26158" d="M321.649,90.184l-.392-.226,2.776-1.615.057.189.183.126Z" transform="translate(-311.709 -81.474)" fill="#fff"/>
        </g>
      </g>
    </g>
  </g>
</svg>
